<?xml version="1.0" encoding="UTF-8"?>
<svg version="1.1" xmlns="http://www.w3.org/2000/svg" width="1000" height="1000">
<path d="M0 0 C1.9375 0.3125 1.9375 0.3125 4 1 C5.33520391 5.00561173 4.23989022 6.1075979 2.4375 9.875 C-9.72826273 36.82393199 -12.65268912 67.45576529 -16.58959961 96.43432617 C-16.7343573 97.49916229 -16.87911499 98.56399841 -17.02825928 99.66110229 C-17.29883227 101.65905452 -17.56750571 103.6572654 -17.83380127 105.65579224 C-18.75124773 112.46201157 -19.83766044 119.23144099 -21 126 C-20.34 126 -19.68 126 -19 126 C-18.58137695 125.13109131 -18.58137695 125.13109131 -18.15429688 124.24462891 C-17.05039466 122.09799672 -15.84463868 120.10983982 -14.53125 118.0859375 C-14.04769043 117.3340918 -13.56413086 116.58224609 -13.06591797 115.80761719 C-12.29078857 114.60347168 -12.29078857 114.60347168 -11.5 113.375 C-7.39198762 106.94689286 -3.51025356 100.45630294 0.125 93.75 C15.15592378 66.23354386 35.75026301 40.70061042 64 26 C66.875 25.28515625 66.875 25.28515625 69 25 C67.48838613 29.30908111 64.26180738 31.14878846 60.625 33.5625 C53.5050676 38.48160945 47.13712178 43.89748222 41 50 C40.50258301 50.49338867 40.00516602 50.98677734 39.49267578 51.49511719 C31.13676365 59.89666071 24.38501818 69.04192991 18 79 C17.47229004 79.82097168 16.94458008 80.64194336 16.40087891 81.48779297 C10.68376703 90.43536689 5.16919558 99.42887982 0.3125 108.875 C-9.02543754 126.98050605 -21.43631453 141.87912929 -36 156 C-37.00215749 156.99783785 -38.00328405 157.9967267 -39 159 C-33.37601411 160.78092886 -27.7404518 162.32137913 -22.00561523 163.69384766 C9.53501934 171.29190527 33.88274789 185.71080557 56.7421875 208.765625 C58.9330644 211.02906789 58.9330644 211.02906789 61.375 212.8125 C64.26228734 215.21857279 66.56264534 217.8296791 68.99609375 220.68359375 C71.19054304 223.22025735 73.46674497 225.66805837 75.75 228.125 C81.53116821 234.47552569 86.81913757 241.15477185 92 248 C92.47598633 248.62438965 92.95197266 249.2487793 93.44238281 249.89208984 C94.85107347 251.75108398 96.24098225 253.62258695 97.625 255.5 C98.05103516 256.06307861 98.47707031 256.62615723 98.91601562 257.20629883 C101.49553762 260.76907767 102.61743439 263.62028334 103 268 C98.6725379 266.62584098 96.542913 264.75184511 93.625 261.3125 C92.84125 260.41273438 92.0575 259.51296875 91.25 258.5859375 C90.5075 257.73257812 89.765 256.87921875 89 256 C74.31270719 240.06691003 54.20468517 225.65458271 33 220 C31.68 220 30.36 220 29 220 C29.825 220.78375 30.65 221.5675 31.5 222.375 C34 225 34 225 34 227 C34.66 227 35.32 227 36 227 C37.77734375 228.9140625 37.77734375 228.9140625 39.9375 231.625 C40.74445312 232.635625 41.55140625 233.64625 42.3828125 234.6875 C42.81110352 235.23019531 43.23939453 235.77289063 43.68066406 236.33203125 C44.98346763 237.97909898 46.29898972 239.61523874 47.6171875 241.25 C71.05099429 270.46728744 91.14814309 303.49236555 100.5 340.0625 C100.67249268 340.73563232 100.84498535 341.40876465 101.02270508 342.10229492 C102.12912512 346.74174975 102.12912512 346.74174975 101 349 C99.68 349 98.36 349 97 349 C96.8047876 348.46858398 96.6095752 347.93716797 96.40844727 347.38964844 C81.27557382 306.40935329 60.20735798 270.65205771 30 239 C28.97519531 237.89591797 28.97519531 237.89591797 27.9296875 236.76953125 C18.41385091 226.79581967 7.13460059 219.36955948 -5 213 C-5.82371094 212.566875 -6.64742187 212.13375 -7.49609375 211.6875 C-14.56020212 208.26247776 -23.26655241 205.62047766 -31 208 C-33.31544243 209.85282169 -33.31544243 209.85282169 -33.05078125 212.75 C-31.57591247 217.31167593 -28.88212632 219.11272797 -25.1875 222 C-1.30385388 241.77136198 14.43958554 270.98628364 20.625 301.25 C20.83664795 302.28068604 21.0482959 303.31137207 21.26635742 304.37329102 C26.78074699 332.54104153 29.63349471 367.04962472 13.85546875 392.44921875 C11.16500721 396.14789536 9.14291708 398.00252212 5 400 C1.25 400.0625 1.25 400.0625 -2 399 C-4.64522228 396.17827871 -5.40901663 394.06740169 -5.70776367 390.25073242 C-5.82754829 388.84358223 -5.82754829 388.84358223 -5.94975281 387.40800476 C-6.0577697 385.89699944 -6.0577697 385.89699944 -6.16796875 384.35546875 C-6.25250809 383.3123201 -6.33704742 382.26917145 -6.42414856 381.19441223 C-6.69099738 377.85961981 -6.93911743 374.52371317 -7.1875 371.1875 C-7.36538361 368.95238191 -7.54440721 366.71735423 -7.72460938 364.48242188 C-9.11737653 346.85729196 -9.11737653 346.85729196 -9 340 C-9.99 340 -10.98 340 -12 340 C-12.09796875 340.556875 -12.1959375 341.11375 -12.296875 341.6875 C-14.35949893 352.21399452 -18.23886378 358.57516677 -27 365 C-31.7245495 367.36227475 -36.79235638 367.75813183 -42 367 C-45.31586957 365.69094162 -48.34779335 364.30441331 -50 361 C-50.0971853 359.29907387 -50.13076549 357.59432406 -50.1328125 355.890625 C-50.13410156 354.82328125 -50.13539063 353.7559375 -50.13671875 352.65625 C-50.13285156 351.5321875 -50.12898437 350.408125 -50.125 349.25 C-50.12886719 348.20328125 -50.13273438 347.1565625 -50.13671875 346.078125 C-50.12827993 338.92200852 -49.85951531 331.80938718 -49.49609375 324.6640625 C-48.89059419 312.48159361 -48.88716384 300.3196462 -48.9375 288.125 C-48.94253497 285.96093856 -48.94709428 283.79687596 -48.95117188 281.6328125 C-48.96199654 276.42184537 -48.97914599 271.21093624 -49 266 C-49.66 265.67 -50.32 265.34 -51 265 C-51.37705078 265.79277344 -51.37705078 265.79277344 -51.76171875 266.6015625 C-53.31376491 269.60773392 -55.05739616 272.48492902 -56.8125 275.375 C-59.60664245 279.97990391 -62.35641994 284.60354224 -65.02734375 289.28125 C-71.88705099 301.23442408 -79.18004717 312.3991223 -88 323 C-88.46615723 323.56396484 -88.93231445 324.12792969 -89.41259766 324.70898438 C-99.16570705 336.34673563 -111.01782879 345.2371915 -124 353 C-123.88463791 354.91533691 -123.88463791 354.91533691 -123 357 C-115.45576899 362.43483549 -106.25341812 364.51620978 -97.33279419 366.52755737 C-93.77859045 367.33376154 -90.23900704 368.19941637 -86.69921875 369.06640625 C-86.01512436 369.23362686 -85.33102997 369.40084747 -84.62620544 369.57313538 C-64.83228002 374.47005074 -47.40009921 383.73689737 -32 397 C-31.08476563 397.78632812 -30.16953125 398.57265625 -29.2265625 399.3828125 C-26.77531784 401.54745009 -24.37817514 403.75552125 -22 406 C-21.25363281 406.69351562 -20.50726562 407.38703125 -19.73828125 408.1015625 C0.81075924 427.82577239 17.1360416 456.56630874 18.3359375 485.47265625 C18.64348603 504.35179031 16.66148255 524.59011033 3.80859375 539.55078125 C-1.03294088 544 -1.03294088 544 -5 544 C-4.55020734 541.04359583 -4.05109845 538.18294835 -3.24609375 535.30078125 C2.20747314 515.14629493 0.60996218 491.96814002 -8 473 C-7.9278125 473.88300781 -7.855625 474.76601563 -7.78125 475.67578125 C-7.3302635 481.50728722 -6.90677478 487.33980085 -6.75 493.1875 C-6.72421875 494.04730469 -6.6984375 494.90710938 -6.671875 495.79296875 C-7 498 -7 498 -8.3203125 499.7890625 C-10 501 -10 501 -13.125 501.1875 C-22.2091421 499.35540412 -28.75711686 489.12654892 -33.66943359 482.0168457 C-39.71511351 472.85292611 -45.10282241 463.38089114 -50.25 453.6875 C-50.56682739 453.09403778 -50.88365479 452.50057556 -51.21008301 451.88912964 C-56.38593114 442.19369733 -61.37921972 432.41349426 -66.23144531 422.55151367 C-66.68616211 421.62830322 -67.14087891 420.70509277 -67.609375 419.75390625 C-68.00092773 418.95283447 -68.39248047 418.1517627 -68.79589844 417.32641602 C-69.39192871 416.17484009 -69.39192871 416.17484009 -70 415 C-70.4220874 414.09386963 -70.8441748 413.18773926 -71.27905273 412.25415039 C-72.82381948 409.7514863 -72.82381948 409.7514863 -75.6887207 409.29638672 C-76.75695068 409.25787598 -77.82518066 409.21936523 -78.92578125 409.1796875 C-80.10841553 409.12127686 -81.2910498 409.06286621 -82.50952148 409.00268555 C-83.76450439 408.96054932 -85.0194873 408.91841309 -86.3125 408.875 C-88.87276567 408.73990857 -91.43268456 408.59806324 -93.9921875 408.44921875 C-95.21389648 408.37880371 -96.43560547 408.30838867 -97.69433594 408.23583984 C-116.73516039 406.87738811 -132.72044366 399.11309068 -145.92578125 385.43359375 C-150.64815412 379.89303199 -154.45841416 373.82667501 -157 367 C-161.25959678 370.69165054 -162.63480147 373.90798579 -163.29296875 379.48046875 C-163.66354303 386.58147317 -162.32165627 392.27380544 -158 398 C-152.18537852 404.13500401 -145.39581041 407.63984891 -137.875 411.3125 C-112.56125158 424.11065854 -90.85115197 441.43216374 -80.97265625 468.8515625 C-75.90532193 485.80494828 -78.82244694 503.12292421 -86.921875 518.5390625 C-96.26722211 534.70813985 -112.20311436 546.82917834 -130.00390625 552.22265625 C-140.31700235 554.89841391 -152.97146943 557.65412469 -163 553 C-163 552.34 -163 551.68 -163 551 C-158.50380212 548.56455948 -154.05037623 546.62602788 -149.22045898 544.9284668 C-141.62757854 542.24357898 -135.2320565 539.24376396 -129 534 C-128.3915625 533.49082031 -127.783125 532.98164062 -127.15625 532.45703125 C-119.03181983 524.97886257 -111.08470662 513.61919119 -108 503 C-108.1338818 499.9614652 -108.92094925 499.08053946 -111.07421875 496.88671875 C-111.93660156 496.16097656 -112.79898438 495.43523437 -113.6875 494.6875 C-117.8882257 491.02899563 -121.54166413 487.35257575 -125 483 C-125.60199219 482.25105469 -126.20398438 481.50210937 -126.82421875 480.73046875 C-128.17835577 479.04112295 -129.52981465 477.34962773 -130.87890625 475.65625 C-140.07155302 464.14427983 -149.50004555 452.82127636 -159.5 442 C-176.25939988 423.81974717 -193.00497173 404.26492107 -195.45703125 378.515625 C-196.41393907 369.26705548 -197.36848293 363.29462608 -204.39428711 356.61499023 C-228.83183724 333.29599052 -238.44353998 293.32932774 -243.44628906 261.13476562 C-243.72037598 260.07805664 -243.72037598 260.07805664 -244 259 C-244.66 258.67 -245.32 258.34 -246 258 C-242.95695978 293.44370584 -237.05408198 332.48721944 -210.22265625 358.71484375 C-208 361 -208 361 -207.6875 363.8125 C-207.790625 364.534375 -207.89375 365.25625 -208 366 C-212.33975263 367.54991165 -216.63572832 368.94178458 -221.125 369.984375 C-221.84494141 370.15291992 -222.56488281 370.32146484 -223.30664062 370.49511719 C-224.76113088 370.82992193 -226.21822327 371.15362892 -227.67773438 371.46582031 C-229.94666444 371.95937734 -229.94666444 371.95937734 -233 373 C-234.32210996 376.96632988 -232.97426482 379.02360445 -231.3125 382.625 C-231.00505859 383.30868652 -230.69761719 383.99237305 -230.38085938 384.69677734 C-224.31185795 398.06081167 -217.9362594 411.30919035 -211.25 424.375 C-208.50988835 429.80809608 -206.06194756 435.33752922 -203.6875 440.9375 C-203.34944336 441.73140137 -203.01138672 442.52530273 -202.66308594 443.34326172 C-191.58917929 469.87239269 -197.96631008 500.29925864 -208.33984375 526.1484375 C-213.57465566 538.591791 -220.43027882 552.37450195 -232 560 C-234.171875 559.61328125 -234.171875 559.61328125 -236 559 C-235.41992188 557.86046875 -234.83984375 556.7209375 -234.2421875 555.546875 C-230.03187017 547.09012352 -226.28130361 538.68533844 -223.5625 529.625 C-223.32837402 528.85510742 -223.09424805 528.08521484 -222.85302734 527.29199219 C-219.30789531 514.88533825 -218.67626737 502.66478298 -218.73925781 489.85107422 C-218.75003995 487.24032686 -218.73927153 484.63025867 -218.7265625 482.01953125 C-218.72788335 480.33072768 -218.73044419 478.64192452 -218.734375 476.953125 C-218.72830231 475.80435883 -218.72830231 475.80435883 -218.72210693 474.63238525 C-218.78413073 467.37005245 -219.59640086 460.31303116 -223.765625 454.1875 C-224.31895508 453.35275146 -224.87228516 452.51800293 -225.44238281 451.65795898 C-226.03889648 450.78083252 -226.63541016 449.90370605 -227.25 449 C-238.41194477 432.00604067 -248.21018642 414.35182792 -256.71875 395.88671875 C-257.09580078 395.11094482 -257.47285156 394.3351709 -257.86132812 393.53588867 C-259 391 -259 391 -259.99804688 387.91137695 C-262.15641509 382.07418071 -262.15641509 382.07418071 -266.69995117 378.02651978 C-271.78328459 375.93700536 -277.13322539 374.90196714 -282.5 373.8125 C-284.10911604 373.44661496 -285.71721041 373.07620585 -287.32421875 372.70117188 C-293.51829896 371.27864384 -299.72127223 369.99838644 -306 369 C-304.78268567 376.80875789 -302.37701755 383.77164438 -299.375 391.0625 C-298.70621826 392.70786743 -298.70621826 392.70786743 -298.02392578 394.38647461 C-293.44852444 405.53421701 -288.36909187 416.36812866 -282.90087891 427.10107422 C-281.23600778 430.38564862 -279.61156635 433.68900932 -278 437 C-277.69223633 437.62084473 -277.38447266 438.24168945 -277.06738281 438.88134766 C-272.09500402 449.10294578 -271.09533645 457.84981552 -272 469 C-272.11021484 470.63775391 -272.11021484 470.63775391 -272.22265625 472.30859375 C-274.11392317 490.06911184 -280.0573002 508.06141269 -288 524 C-288.5775 525.16917969 -289.155 526.33835937 -289.75 527.54296875 C-293.22387389 534.2813536 -297.11190113 540.2159387 -302 546 C-302.50402344 546.63679687 -303.00804687 547.27359375 -303.52734375 547.9296875 C-307.34977346 552.65449451 -311.627216 557.64119319 -317.9375 558.3125 C-318.618125 558.209375 -319.29875 558.10625 -320 558 C-318.36862283 554.38334902 -316.14878862 551.38431489 -313.8125 548.1875 C-296.12226217 523.10134352 -291 489.08641899 -291 459 C-291.57234375 458.7525 -292.1446875 458.505 -292.734375 458.25 C-310.75798198 448.30594098 -323.56420014 421.8775177 -329.1328125 403.0546875 C-330.68377046 396.55983706 -331.22418892 389.82975317 -331.8737793 383.19628906 C-332.85186482 372.83689536 -332.85186482 372.83689536 -336 363 C-337.90742535 361.72929202 -337.90742535 361.72929202 -340 361 C-341.6322819 360.03302112 -343.25689628 359.05302144 -344.875 358.0625 C-351.0471237 353.83997004 -351.0471237 353.83997004 -358 352 C-358.51696057 380.05947121 -351.87653828 411.75964433 -339.6015625 437.06640625 C-333.88052383 448.91912341 -333.88052383 448.91912341 -334.1875 454.265625 C-335.17764916 457.04677925 -336.36703473 459.50776964 -337.86914062 462.04638672 C-339.1990685 464.34390028 -340.38657813 466.69418429 -341.578125 469.06640625 C-344.09681975 474.04847781 -346.70247525 478.9787995 -349.33984375 483.89892578 C-350.98795021 486.97749171 -352.61978872 490.06427184 -354.25 493.15234375 C-382.49288064 546.3466415 -382.49288064 546.3466415 -398.6328125 554.296875 C-401 555 -401 555 -403 554 C-402.59773351 547.91694581 -399.72315175 543.76911692 -396.5625 538.75 C-395.46121462 536.95845964 -394.36229897 535.16546065 -393.265625 533.37109375 C-392.71455078 532.47116699 -392.16347656 531.57124023 -391.59570312 530.64404297 C-387.51649204 523.88488507 -383.76324669 516.93838832 -380 510 C-379.6174707 509.29810547 -379.23494141 508.59621094 -378.84082031 507.87304688 C-374.05051185 499.06018613 -369.55704952 490.14408592 -365.32641602 481.04882812 C-363.49579483 477.11953195 -361.62397411 473.22762015 -359.62109375 469.3828125 C-359.243479 468.65392822 -358.86586426 467.92504395 -358.47680664 467.17407227 C-357.76088213 465.80202904 -357.03530599 464.43496367 -356.29858398 463.07397461 C-355.02146298 460.61787302 -353.99888192 458.62388922 -354.00390625 455.8203125 C-355.42406787 453.22503675 -357.29896831 451.70971969 -359.5625 449.8125 C-377.38913352 434.19200747 -386.55154923 414.37362818 -388.83056641 390.828125 C-389.13491436 385.74805769 -388.82648987 380.70196198 -388.5625 375.625 C-388.04887072 364.40553611 -387.88593282 353.22927982 -388 342 C-399.25504408 339.37258077 -410.56452959 337.62213413 -422 336 C-421.67386719 336.95777344 -421.34773437 337.91554688 -421.01171875 338.90234375 C-413.11775387 362.66580633 -409.6942157 387.73904533 -420.1875 411.3125 C-423.24659006 417.01005523 -428.10785776 424.05392888 -434 427 C-435.99960012 427.039992 -438.00047242 427.04346799 -440 427 C-446.85416968 409.55302264 -445.79328052 389.1246055 -446.67724609 370.67578125 C-447.50285616 351.75444957 -447.50285616 351.75444957 -450 333 C-456.93302093 332.77268784 -463.2168636 333.57997892 -470 335 C-470.14797856 340.01196949 -469.64185814 344.42181981 -468.5625 349.3125 C-464.79080665 367.29449286 -462.98705341 387.66709472 -473 404 C-476.06516063 408.49556892 -479.65829977 412.27616602 -485.1640625 413.46875 C-487.10180305 413.71524703 -489.05127292 413.86560503 -491 414 C-499.62709964 402.36097543 -497.25018027 384.904367 -497.125 371.0625 C-497.11494154 369.1074265 -497.1058208 367.15234795 -497.09765625 365.19726562 C-497.07588963 360.46471603 -497.04152082 355.73241581 -497 351 C-498.09924805 351.44947998 -499.19849609 351.89895996 -500.33105469 352.36206055 C-500.94938171 352.61489304 -501.56770874 352.86772552 -502.20477295 353.1282196 C-511.37891626 357.5832763 -518.77360885 369.35535533 -524.76171875 377.3515625 C-525.91905145 378.89223884 -527.09934371 380.41559327 -528.28125 381.9375 C-528.9309375 382.80375 -529.580625 383.67 -530.25 384.5625 C-531.09304688 385.67818359 -531.09304688 385.67818359 -531.953125 386.81640625 C-533.19512841 388.96925196 -533.19512841 388.96925196 -532.8984375 391.4765625 C-529.46525849 401.11931745 -518.68671012 409.71121627 -511.734375 417.046875 C-507.5519608 421.46045641 -503.4546828 425.94788047 -499.3671875 430.44921875 C-496.97109027 433.03115191 -494.49250426 435.5114521 -492 438 C-485.69231815 444.74507585 -479.72977701 451.75981898 -474 459 C-473.49388184 459.6388916 -472.98776367 460.2777832 -472.46630859 460.93603516 C-443.59266601 497.57113267 -443.59266601 497.57113267 -445.0625 518.9375 C-445.94976244 524.13704868 -448.21287296 527.7043329 -452.5 530.8125 C-459.36340599 534.07261784 -466.95000255 534.01877835 -474.0625 531.5 C-485.09249987 526.5176013 -492.00797041 516.46911134 -499 507 C-499.47840332 506.35385742 -499.95680664 505.70771484 -500.44970703 505.04199219 C-513.38191153 487.44450897 -524.34149194 468.69730204 -534.90625 449.609375 C-535.42960937 448.66384766 -535.95296875 447.71832031 -536.4921875 446.74414062 C-537.48598358 444.93548325 -538.47060476 443.12174976 -539.4453125 441.30273438 C-539.88617187 440.48611328 -540.32703125 439.66949219 -540.78125 438.828125 C-541.16345703 438.11043945 -541.54566406 437.39275391 -541.93945312 436.65332031 C-542.90840813 434.83271838 -542.90840813 434.83271838 -545 434 C-535.02716081 464.85403075 -520.72941333 493.73040318 -505.5625 522.3125 C-504.0342942 525.20452168 -502.51266686 528.09981985 -501 531 C-500.63197266 531.70495605 -500.26394531 532.40991211 -499.88476562 533.13623047 C-498.83912335 535.16415698 -497.82148186 537.20363227 -496.8125 539.25 C-496.24144531 540.38953125 -495.67039062 541.5290625 -495.08203125 542.703125 C-493.80483083 546.59466707 -494.07047171 549.04466346 -495 553 C-497.18187943 556.33023703 -500.30301506 556.8904607 -504 558 C-517.2516089 560.40117709 -531.58345117 558.34224144 -543 551 C-543.63164063 550.61585938 -544.26328125 550.23171875 -544.9140625 549.8359375 C-562.23150274 537.40094737 -565.5186982 503.45944969 -570.25 484.125 C-570.45855621 483.27457123 -570.66711243 482.42414246 -570.88198853 481.54794312 C-573.92110043 469.09354924 -576.57009714 456.58689679 -579 444 C-580.20681025 447.62043076 -579.83603164 449.89252818 -579.3984375 453.68359375 C-579.32172821 454.35841293 -579.24501892 455.03323212 -579.16598511 455.72850037 C-578.90915133 457.96568279 -578.64211449 460.20152368 -578.375 462.4375 C-578.19344403 464.00599427 -578.01213277 465.57451689 -577.83105469 467.14306641 C-576.87514855 475.30980273 -575.81911495 483.45560849 -574.6171875 491.58984375 C-570.54453505 519.18784248 -570.54453505 519.18784248 -570.5 530.5625 C-570.49387695 531.40087402 -570.48775391 532.23924805 -570.48144531 533.10302734 C-570.59850821 538.45234264 -570.59850821 538.45234264 -572.26879883 540.73071289 C-575.07148426 542.78559395 -577.28576635 542.06272227 -580.58349609 541.56542969 C-584.48597618 540.65230139 -587.81384955 539.04839762 -591.3125 537.125 C-592.41053955 536.53041992 -592.41053955 536.53041992 -593.53076172 535.92382812 C-607.60834166 527.9745709 -619.28392432 515.66541417 -624 500 C-630.99620101 468.51709544 -616.46980082 433.64588511 -605.3203125 404.609375 C-603.01156776 398.2978953 -603.6679698 394.49070589 -606.375 388.5 C-616.40969728 365.73004953 -610.57787088 336.78969487 -601.98681641 314.43652344 C-591.60472421 288.80236211 -591.60472421 288.80236211 -584 285 C-579.93648817 284.40788828 -578.41057112 284.70130408 -575.046875 287.1484375 C-573.9324999 288.20797637 -572.83482067 289.28522085 -571.75 290.375 C-571.13374756 290.97062744 -570.51749512 291.56625488 -569.88256836 292.17993164 C-567.56777437 294.43322476 -565.28295575 296.71444358 -563 299 C-561.96445448 300.03411608 -560.92880377 301.06812684 -559.89306641 302.10205078 C-550.61275675 311.37265958 -550.61275675 311.37265958 -546.18847656 315.84716797 C-541.12779026 320.95524982 -536.05152307 325.97334352 -530.5715332 330.63793945 C-528.68765213 332.27071442 -526.99424886 334.03651384 -525.3125 335.875 C-522.69793848 338.55552523 -520.89533465 339.88195956 -517 340 C-517.23613258 334.38648458 -520.91073354 331.4619031 -524.625 327.6875 C-525.91496806 326.3446193 -527.20404183 325.00087892 -528.4921875 323.65625 C-529.10674805 323.01945312 -529.72130859 322.38265625 -530.35449219 321.7265625 C-532.22083749 319.76828446 -534.00007784 317.75021018 -535.75 315.6875 C-539.1566531 311.72167404 -542.88438374 308.10221546 -546.6015625 304.4296875 C-548.6198473 302.38510583 -550.51499518 300.31163982 -552.375 298.125 C-555.52925423 294.44125465 -558.89118683 290.99597784 -562.3125 287.5625 C-562.84085449 287.02963379 -563.36920898 286.49676758 -563.91357422 285.94775391 C-566.6923312 283.12416108 -566.6923312 283.12416108 -570 281 C-570 280.34 -570 279.68 -570 279 C-570.99 278.67 -571.98 278.34 -573 278 C-573.7578125 275.875 -573.7578125 275.875 -574 273 C-564.80002772 256.80100575 -548.23519542 242.89298324 -531.90234375 234.38671875 C-529 234 -529 234 -526.0234375 235.83203125 C-522.35599065 239.36977281 -519.49345549 243.4969666 -516.625 247.6875 C-516.02776123 248.55036621 -515.43052246 249.41323242 -514.81518555 250.30224609 C-507.7657937 260.61536335 -501.29421587 271.28915992 -494.83056641 281.97509766 C-492.68989526 285.51242967 -490.53382293 289.04013483 -488.375 292.56640625 C-487.05410617 294.72411634 -485.7357122 296.88333365 -484.41796875 299.04296875 C-480.960902 304.70490358 -477.48182209 310.35326274 -474 316 C-473.67 315.34 -473.34 314.68 -473 314 C-473.92702195 311.69241309 -474.91627174 309.51392723 -476.015625 307.2890625 C-476.50526985 306.2762899 -476.50526985 306.2762899 -477.00480652 305.24305725 C-478.07748641 303.03249267 -479.16277353 300.82844287 -480.25 298.625 C-480.61924591 297.87159332 -480.98849182 297.11818665 -481.368927 296.34194946 C-488.49428814 281.80652242 -495.93704386 267.57375382 -504.41796875 253.77734375 C-504.805186 253.14598007 -505.19240326 252.51461639 -505.59135437 251.86412048 C-507.5212037 248.72057187 -509.46257791 245.58538284 -511.42749023 242.46362305 C-512.14199815 241.31183122 -512.85628249 240.15990066 -513.5703125 239.0078125 C-514.20727051 237.99348145 -514.84422852 236.97915039 -515.50048828 235.93408203 C-517.07557182 232.85212925 -517.75877676 230.44482642 -518 227 C-515.23916837 223.02265417 -510.94974997 221.18406536 -506.6875 219.125 C-505.97819336 218.77912842 -505.26888672 218.43325684 -504.53808594 218.0769043 C-487.15378689 209.71490972 -469.21077174 204.2265854 -450 202 C-449.12601563 201.88914062 -448.25203125 201.77828125 -447.3515625 201.6640625 C-419.46371415 198.70747113 -391.06308185 202.17787942 -364 209 C-363.19771973 209.19368164 -362.39543945 209.38736328 -361.56884766 209.58691406 C-348.59294711 212.75778742 -336.16462122 217.41182129 -323.6875 222.125 C-322.87182556 222.43259247 -322.05615112 222.74018494 -321.21575928 223.05709839 C-318.85368163 223.95119918 -316.49461991 224.85276096 -314.13671875 225.7578125 C-313.43533279 226.02438156 -312.73394684 226.29095062 -312.01130676 226.56559753 C-299.64174772 231.35825228 -299.64174772 231.35825228 -297 234 C-297.43812513 240.4185332 -299.17521563 246.00434831 -301.25 252.0625 C-305.03840164 263.55258656 -307.73779692 275.12343383 -310 287 C-310.2475 288.22976563 -310.495 289.45953125 -310.75 290.7265625 C-312.23794117 299.55088028 -312.23362376 308.44859321 -312.3125 317.375 C-312.33030518 318.67187744 -312.34811035 319.96875488 -312.36645508 321.30493164 C-312.36037935 328.54299621 -311.76895013 334.29314982 -309 341 C-308.67 341 -308.34 341 -308 341 C-307.93530518 339.85450684 -307.87061035 338.70901367 -307.80395508 337.52880859 C-303.16718016 257.14358381 -303.16718016 257.14358381 -289.85546875 236.19921875 C-286.87454218 234.27259884 -283.81993733 234.9696468 -280.4375 235.3125 C-278.90656456 235.4324694 -277.37529324 235.54821302 -275.84375 235.66015625 C-275.0496875 235.71961426 -274.255625 235.77907227 -273.4375 235.84033203 C-269.43786928 236.10232707 -265.44482192 236.20416118 -261.4375 236.25 C-260.35069946 236.28154175 -260.35069946 236.28154175 -259.24194336 236.3137207 C-251.54520158 236.36599511 -246.44462758 234.61775808 -240.84980774 229.25952148 C-238.25017013 226.67424475 -235.71434033 224.03120886 -233.1875 221.375 C-231.14701779 219.25026437 -229.09873154 217.13339108 -227.04296875 215.0234375 C-226.54127167 214.50819519 -226.03957458 213.99295288 -225.52267456 213.46209717 C-220.67361629 208.54899233 -215.44269756 204.24703912 -210 200 C-209.11207764 199.2579834 -208.22415527 198.5159668 -207.30932617 197.75146484 C-205 196 -205 196 -203 196 C-203 195.34 -203 194.68 -203 194 C-201.9996875 193.43796875 -200.999375 192.8759375 -199.96875 192.296875 C-196.73964931 190.45213776 -193.59443205 188.50252333 -190.46142578 186.5 C-159.27312463 166.62396043 -125.88333176 157.19372106 -89.63769531 151.47729492 C-86.90520528 151.04743062 -86.90520528 151.04743062 -84 150 C-86.00006824 143.6361465 -90.74446384 139.83106975 -96 136 C-98.45110519 134.89260021 -100.81383873 133.91667377 -103.3359375 133.015625 C-104.03721771 132.7593634 -104.73849792 132.50310181 -105.46102905 132.23907471 C-112.07345704 129.87562428 -118.79210945 128.01903766 -125.59118652 126.27481079 C-149.01177864 120.23129716 -171.73143723 112.33393017 -194.375 103.875 C-195.14146851 103.5912149 -195.90793701 103.30742981 -196.69763184 103.01504517 C-204.87630288 99.97651358 -212.89256971 96.73327249 -220.7265625 92.8828125 C-221.37152679 92.56980194 -222.01649109 92.25679138 -222.68099976 91.93429565 C-228.60110505 88.93791826 -234.24622043 85.27249791 -237 79 C-237.57076223 75.16773929 -237.27090858 73.47202806 -235.33203125 70.09375 C-232.89012211 66.85423234 -230.52681562 64.81022012 -227.25 62.4375 C-226.26515625 61.71433594 -225.2803125 60.99117188 -224.265625 60.24609375 C-217.71535263 55.74082268 -211.50071963 52.07862108 -204 49.375 C-203.17838379 49.07577637 -202.35676758 48.77655273 -201.51025391 48.46826172 C-193.77501204 45.75071577 -186.11355097 44.14727814 -178 43 C-176.69289063 42.80470703 -176.69289063 42.80470703 -175.359375 42.60546875 C-146.44452702 38.81418623 -118.13268478 49.15698638 -95 66 C-93.28898063 67.62110094 -91.61985848 69.28780431 -90 71 C-89.23300781 71.78117187 -88.46601562 72.56234375 -87.67578125 73.3671875 C-70.18916773 91.92323028 -61.34047116 113.34976826 -58.1262207 138.56713867 C-57.51198346 143.04526335 -56.72035268 146.2472697 -54 150 C-45.53091675 147.93436994 -40.37888645 142.05686479 -35.6953125 135 C-30.73108823 126.21538194 -27.94336193 116.75055114 -26.0078125 106.8984375 C-25.75305397 105.61163086 -25.75305397 105.61163086 -25.4931488 104.29882812 C-23.32752079 92.96949567 -22.05287547 81.51482214 -20.72094727 70.06347656 C-18.63032972 52.25242402 -15.31587586 35.09233562 -9 18.25 C-8.52433594 16.91195312 -8.52433594 16.91195312 -8.0390625 15.546875 C-5.96280068 9.89944284 -3.40326717 4.96193563 0 0 Z " fill="#040404" transform="translate(761,220)"/>
<path d="M0 0 C1.9375 0.3125 1.9375 0.3125 4 1 C5.33520391 5.00561173 4.23989022 6.1075979 2.4375 9.875 C-9.72826273 36.82393199 -12.65268912 67.45576529 -16.58959961 96.43432617 C-16.7343573 97.49916229 -16.87911499 98.56399841 -17.02825928 99.66110229 C-17.29883227 101.65905452 -17.56750571 103.6572654 -17.83380127 105.65579224 C-18.75124773 112.46201157 -19.83766044 119.23144099 -21 126 C-20.34 126 -19.68 126 -19 126 C-18.72091797 125.42072754 -18.44183594 124.84145508 -18.15429688 124.24462891 C-17.05039466 122.09799672 -15.84463868 120.10983982 -14.53125 118.0859375 C-13.80591064 116.95816895 -13.80591064 116.95816895 -13.06591797 115.80761719 C-12.54916504 115.00485352 -12.03241211 114.20208984 -11.5 113.375 C-7.39198762 106.94689286 -3.51025356 100.45630294 0.125 93.75 C15.15592378 66.23354386 35.75026301 40.70061042 64 26 C66.875 25.28515625 66.875 25.28515625 69 25 C67.48838613 29.30908111 64.26180738 31.14878846 60.625 33.5625 C53.5050676 38.48160945 47.13712178 43.89748222 41 50 C40.50258301 50.49338867 40.00516602 50.98677734 39.49267578 51.49511719 C31.13676365 59.89666071 24.38501818 69.04192991 18 79 C17.47229004 79.82097168 16.94458008 80.64194336 16.40087891 81.48779297 C10.68376703 90.43536689 5.16919558 99.42887982 0.3125 108.875 C-9.01632983 126.96284694 -21.41226349 141.92015373 -36 156 C-36.14953125 155.38511719 -36.2990625 154.77023437 -36.453125 154.13671875 C-37.05906363 151.76922996 -37.60658887 150.02044613 -39 148 C-41.30371421 146.82221688 -41.30371421 146.82221688 -44 147 C-46.81099414 148.8312811 -46.81099414 148.8312811 -49 151 C-49.33 150.34 -49.66 149.68 -50 149 C-49.43152344 148.61070312 -48.86304688 148.22140625 -48.27734375 147.8203125 C-34.45257518 137.80370222 -29.19069039 123.09956064 -26.0078125 106.8984375 C-25.75305397 105.61163086 -25.75305397 105.61163086 -25.4931488 104.29882812 C-23.32752079 92.96949567 -22.05287547 81.51482214 -20.72094727 70.06347656 C-18.63032972 52.25242402 -15.31587586 35.09233562 -9 18.25 C-8.68289063 17.35796875 -8.36578125 16.4659375 -8.0390625 15.546875 C-5.96280068 9.89944284 -3.40326717 4.96193563 0 0 Z " fill="#1E1E1C" transform="translate(761,220)"/>
<path d="M0 0 C4.46281877 4.07262697 7.51955451 8.56418 10.6875 13.6875 C11.21077881 14.52909668 11.73405762 15.37069336 12.27319336 16.23779297 C26.50039287 39.3060112 41.7686617 65.64133577 45 93 C42.525 93.495 42.525 93.495 40 94 C39.7071814 93.20287598 39.7071814 93.20287598 39.40844727 92.38964844 C28.8705477 63.85268644 15.8307242 37.74861639 -2 13 C-2.93662738 11.68910883 -3.87283314 10.37791629 -4.80859375 9.06640625 C-5.53175781 8.05449219 -6.25492188 7.04257812 -7 6 C-6.21625 5.7525 -5.4325 5.505 -4.625 5.25 C-1.67682892 3.84610901 -1.0975223 2.99324263 0 0 Z " fill="#181817" transform="translate(818,475)"/>
<path d="M0 0 C-1.51161387 4.30908111 -4.73819262 6.14878846 -8.375 8.5625 C-15.4949324 13.48160945 -21.86287822 18.89748222 -28 25 C-28.49741699 25.49338867 -28.99483398 25.98677734 -29.50732422 26.49511719 C-37.86323635 34.89666071 -44.61498182 44.04192991 -51 54 C-51.52770996 54.82097168 -52.05541992 55.64194336 -52.59912109 56.48779297 C-58.8159352 66.21742655 -64.78163548 76.02592298 -70.02197266 86.32006836 C-72.43344088 91.04970037 -75.12532838 95.53704286 -78 100 C-78.99 99.34 -79.98 98.68 -81 98 C-80.505 97.01 -80.505 97.01 -80 96 C-81.65 96 -83.3 96 -85 96 C-84.36058472 95.02208496 -84.36058472 95.02208496 -83.70825195 94.02441406 C-79.22545318 87.08623763 -75.15371546 79.99272739 -71.1875 72.75 C-58.89761764 50.6243138 -29.78325207 0 0 0 Z " fill="#1D1D1C" transform="translate(830,245)"/>
<path d="M0 0 C1.65 0.66 3.3 1.32 5 2 C4.50610812 10.78607656 3.63177319 19.35001785 2 28 C2.66 28 3.32 28 4 28 C4.2475 27.38125 4.495 26.7625 4.75 26.125 C6.21956837 23.62673377 7.28564404 22.93305986 10 22 C12 23 12 23 12.828125 25.24609375 C13.20208936 31.23802274 7.36406492 36.26144668 3.64990234 40.56396484 C-1.67269546 46.59424537 -7.24937704 52.37716866 -13 58 C-13.14953125 57.38511719 -13.2990625 56.77023437 -13.453125 56.13671875 C-14.05906363 53.76922996 -14.60658887 52.02044613 -16 50 C-18.30371421 48.82221688 -18.30371421 48.82221688 -21 49 C-23.81099414 50.8312811 -23.81099414 50.8312811 -26 53 C-26.33 52.34 -26.66 51.68 -27 51 C-26.14728516 50.41605469 -26.14728516 50.41605469 -25.27734375 49.8203125 C-10.28658631 38.95889559 -5.73992872 22.38415658 -1.76171875 5.1328125 C-1 2 -1 2 0 0 Z " fill="#131313" transform="translate(738,318)"/>
<path d="M0 0 C5.78845533 8.68268299 9.23790361 19.17424808 12.375 29.0625 C12.62540039 29.84689453 12.87580078 30.63128906 13.13378906 31.43945312 C14.52346137 35.95830409 15.46344734 40.30204472 16 45 C13.525 45.495 13.525 45.495 11 46 C10.7071814 45.20287598 10.7071814 45.20287598 10.40844727 44.38964844 C6.25575075 33.14401623 1.85471077 22.0952463 -3.20483398 11.22363281 C-3.75312866 10.03979004 -3.75312866 10.03979004 -4.3125 8.83203125 C-4.63863281 8.13827393 -4.96476563 7.4445166 -5.30078125 6.72973633 C-6 5 -6 5 -6 3 C-5.195625 2.87625 -4.39125 2.7525 -3.5625 2.625 C-2.716875 2.41875 -1.87125 2.2125 -1 2 C-0.67 1.34 -0.34 0.68 0 0 Z " fill="#201F1E" transform="translate(847,523)"/>
<path d="M0 0 C-1.5115919 4.30901847 -4.73813484 6.14891318 -8.375 8.5625 C-20.04072249 16.61808326 -29.62543404 26.42593249 -39 37 C-40.98 36.34 -42.96 35.68 -45 35 C-38.56620197 23.28880555 -14.43385124 0 0 0 Z " fill="#1C1B1A" transform="translate(830,245)"/>
<path d="M0 0 C1.5 1.3125 1.5 1.3125 3 3 C3 3.99 3 4.98 3 6 C5.44480079 5.81171228 5.44480079 5.81171228 8 5 C9.36020151 3.03241727 9.36020151 3.03241727 10 1 C11.32 1.33 12.64 1.66 14 2 C-3.28067621 24.70713155 -3.28067621 24.70713155 -11 27 C-11.66 26.67 -12.32 26.34 -13 26 C-12.66986588 19.5890084 -9.23841431 14.91400785 -5.9375 9.625 C-5.36966797 8.69816406 -4.80183594 7.77132812 -4.21679688 6.81640625 C-2.81972384 4.538825 -1.4139959 2.26709935 0 0 Z " fill="#10100E" transform="translate(371,748)"/>
<path d="M0 0 C2.58289842 3.87434763 3.68412659 7.82981472 5.0625 12.25 C5.4656543 13.50103516 5.4656543 13.50103516 5.87695312 14.77734375 C7.37141892 19.5253473 8.45823406 24.05053336 9 29 C7.35 29.33 5.7 29.66 4 30 C2.96334662 27.44292167 1.9456027 24.88081487 0.9375 22.3125 C0.49567383 21.2306543 0.49567383 21.2306543 0.04492188 20.12695312 C-1.54677785 16.02598561 -2.45711877 13.33967982 -1 9 C-0.29852051 5.8043712 0 3.32231081 0 0 Z " fill="#1B1B1A" transform="translate(854,539)"/>
<path d="M0 0 C2 0.25 2 0.25 4 1 C5.34243036 5.02729108 3.86058643 7.27785947 2.1875 10.9375 C1.91357422 11.55818359 1.63964844 12.17886719 1.35742188 12.81835938 C-0.01914662 15.91811433 -1.45000291 18.98317639 -3 22 C-3.103125 21.38125 -3.20625 20.7625 -3.3125 20.125 C-3.87525373 17.63473516 -3.87525373 17.63473516 -7 16 C-6.56688677 10.36952802 -4.07551604 4.07551604 0 0 Z " fill="#2B2B29" transform="translate(761,220)"/>
<path d="M0 0 C-1.53874677 4.58418308 -5.18904487 6.58181682 -9 9.1875 C-9.64195312 9.63802734 -10.28390625 10.08855469 -10.9453125 10.55273438 C-15.5984623 13.79923115 -15.5984623 13.79923115 -18 15 C-18 14.34 -18 13.68 -18 13 C-18.66 13 -19.32 13 -20 13 C-18.51257289 8.67382312 -15.32342677 7.00329123 -11.5625 4.8125 C-10.97662109 4.45736328 -10.39074219 4.10222656 -9.78710938 3.73632812 C-3.54098968 0 -3.54098968 0 0 0 Z " fill="#21201F" transform="translate(830,245)"/>
<path d="M0 0 C0.66 0 1.32 0 2 0 C3.32 2.31 4.64 4.62 6 7 C4.76446724 8.20254524 3.51097661 9.38666232 2.25 10.5625 C1.20585938 11.55443359 1.20585938 11.55443359 0.140625 12.56640625 C-0.56578125 13.03949219 -1.2721875 13.51257813 -2 14 C-3.32 13.67 -4.64 13.34 -6 13 C-4.02 8.71 -2.04 4.42 0 0 Z " fill="#252422" transform="translate(531,766)"/>
<path d="M0 0 C0.66 0.33 1.32 0.66 2 1 C1.48308594 1.43570312 0.96617187 1.87140625 0.43359375 2.3203125 C-1.56849909 4.13042383 -3.36212059 5.85189114 -5 8 C-5.12610897 11.35406512 -5.12610897 11.35406512 -4 14 C-5.65 15.32 -7.3 16.64 -9 18 C-11.475 17.01 -11.475 17.01 -14 16 C-11.7140466 11.73236687 -8.76416143 8.52336376 -5.3125 5.1875 C-4.80138672 4.68541016 -4.29027344 4.18332031 -3.76367188 3.66601562 C-2.51365638 2.43936491 -1.2574532 1.21902509 0 0 Z " fill="#31302E" transform="translate(799,264)"/>
<path d="M0 0 C0.33 0.99 0.66 1.98 1 3 C2.65 3 4.3 3 6 3 C6.33 2.01 6.66 1.02 7 0 C7.66 0.33 8.32 0.66 9 1 C0.36824324 9.87837838 0.36824324 9.87837838 -3.8125 10.25 C-4.534375 10.1675 -5.25625 10.085 -6 10 C-4.34832443 6.4213696 -2.21713508 3.25179812 0 0 Z " fill="#2D2C2A" transform="translate(447,768)"/>
<path d="M0 0 C3.25 -0.375 3.25 -0.375 7 0 C10.16334019 3.56889663 11 5.18966879 11 10 C5.36310966 8.67367286 3.06814317 4.53368235 0 0 Z " fill="#181716" transform="translate(853,478)"/>
<path d="M0 0 C2 3 2 3 1.84765625 4.984375 C0.79964732 7.47641468 -0.46111959 8.56889567 -2.5625 10.25 C-3.20316406 10.77078125 -3.84382812 11.2915625 -4.50390625 11.828125 C-4.99761719 12.21484375 -5.49132812 12.6015625 -6 13 C-6.66 11.68 -7.32 10.36 -8 9 C-7.50628906 8.51789063 -7.01257813 8.03578125 -6.50390625 7.5390625 C-5.86324219 6.90742188 -5.22257813 6.27578125 -4.5625 5.625 C-3.92441406 4.99851562 -3.28632812 4.37203125 -2.62890625 3.7265625 C-0.92117824 2.08276939 -0.92117824 2.08276939 0 0 Z " fill="#1C1B1A" transform="translate(801,263)"/>
<path d="M0 0 C-0.125 1.75 -0.125 1.75 -1 4 C-4.0625 6.25 -4.0625 6.25 -7 8 C-7.66 7.67 -8.32 7.34 -9 7 C-8.02086745 1.32103121 -5.73500486 -0.46500039 0 0 Z " fill="#1A1918" transform="translate(368,767)"/>
<path d="M0 0 C0.66 0 1.32 0 2 0 C2.33 2.97 2.66 5.94 3 9 C1.02 9.99 1.02 9.99 -1 11 C-2.55136786 8.53606281 -3.03039129 7.31910854 -2.75 4.375 C-2 2 -2 2 0 0 Z " fill="#121211" transform="translate(852,539)"/>
<path d="M0 0 C0.99 0.33 1.98 0.66 3 1 C2.67 1.66 2.34 2.32 2 3 C6.29 3.66 10.58 4.32 15 5 C15 5.33 15 5.66 15 6 C12.9377952 6.054348 10.87517184 6.09294961 8.8125 6.125 C7.66394531 6.14820313 6.51539063 6.17140625 5.33203125 6.1953125 C2.08259628 6.00484152 -0.08660521 5.39360127 -3 4 C-3 3.34 -3 2.68 -3 2 C-2.01 1.34 -1.02 0.68 0 0 Z " fill="#585755" transform="translate(601,769)"/>
<path d="M0 0 C2.12046792 3.53411321 2.53199289 6.94393835 3 11 C1.35 11.33 -0.3 11.66 -2 12 C-3.44095307 7.35692901 -1.77128392 4.36916701 0 0 Z " fill="#333331" transform="translate(860,557)"/>
<path d="M0 0 C2.45823172 3.68734758 3.01242616 6.69699971 4 11 C3.01 11.66 2.02 12.32 1 13 C0.34 13.99 -0.32 14.98 -1 16 C-1.97457657 11.7118631 -2.03033714 9.82181108 0 6 C0.16724737 2.83304044 0.16724737 2.83304044 0 0 Z " fill="#2D2D2C" transform="translate(854,539)"/>
<path d="M0 0 C0.5 2 0.5 2 1 4 C1.309375 5.051875 1.309375 5.051875 1.625 6.125 C2 8 2 8 1 10 C-0.65 10 -2.3 10 -4 10 C-3.43454163 6.04179141 -2.19097652 3.3340947 0 0 Z " fill="#161614" transform="translate(452,761)"/>
<path d="M0 0 C0.66 0.33 1.32 0.66 2 1 C0.5140084 5.59306496 -1.85014682 8.43569245 -5 12 C-5.66 10.68 -6.32 9.36 -7 8 C-6.34 7.67 -5.68 7.34 -5 7 C-5 6.34 -5 5.68 -5 5 C-3.35 4.34 -1.7 3.68 0 3 C0 2.01 0 1.02 0 0 Z " fill="#30302E" transform="translate(464,754)"/>
<path d="M0 0 C0.99 0.66 1.98 1.32 3 2 C2.34 2 1.68 2 1 2 C1 2.66 1 3.32 1 4 C1.99 4.33 2.98 4.66 4 5 C4 5.99 4 6.98 4 8 C1.625 9.0625 1.625 9.0625 -1 10 C-1.66 9.67 -2.32 9.34 -3 9 C-2.01 6.03 -1.02 3.06 0 0 Z " fill="#21211F" transform="translate(459,746)"/>
<path d="M0 0 C0.33 0 0.66 0 1 0 C1.01981934 0.71655762 1.03963867 1.43311523 1.06005859 2.17138672 C1.15509519 5.4063063 1.26486019 8.64056094 1.375 11.875 C1.4059375 13.00292969 1.436875 14.13085938 1.46875 15.29296875 C1.52675781 16.90751953 1.52675781 16.90751953 1.5859375 18.5546875 C1.6173584 19.54968262 1.6487793 20.54467773 1.68115234 21.56982422 C1.77247083 24.17854517 1.77247083 24.17854517 4 26 C3.34 26.99 2.68 27.98 2 29 C-0.32891212 25.50663182 -0.23551143 24.13992135 -0.1953125 20.01953125 C-0.18886719 18.85615234 -0.18242188 17.69277344 -0.17578125 16.49414062 C-0.15902344 15.27919922 -0.14226563 14.06425781 -0.125 12.8125 C-0.11597656 11.58595703 -0.10695313 10.35941406 -0.09765625 9.09570312 C-0.07406017 6.06360705 -0.04113841 3.03190062 0 0 Z " fill="#464543" transform="translate(711,555)"/>
<path d="M0 0 C1.32 0.99 2.64 1.98 4 3 C3.67 4.98 3.34 6.96 3 9 C1.35 9 -0.3 9 -2 9 C-2.25 3.375 -2.25 3.375 0 0 Z M1 3 C2 5 2 5 2 5 Z " fill="#171715" transform="translate(367,755)"/>
<path d="M0 0 C1 3 1 3 1 5 C1.66 5.66 2.32 6.32 3 7 C2.2575 7.226875 1.515 7.45375 0.75 7.6875 C-2.51139591 9.24407532 -3.92894975 11.08518854 -6 14 C-5.57202798 8.29370646 -3.15654048 4.58921384 0 0 Z " fill="#31302F" transform="translate(364,760)"/>
<path d="M0 0 C-1.45255699 3.82946843 -3.42895561 5.12050295 -7 7 C-7 6.34 -7 5.68 -7 5 C-7.99 4.67 -8.98 4.34 -10 4 C-8.71086513 3.32845067 -7.41859796 2.66291141 -6.125 2 C-5.40570312 1.62875 -4.68640625 1.2575 -3.9453125 0.875 C-2 0 -2 0 0 0 Z " fill="#4A4948" transform="translate(830,245)"/>
<path d="M0 0 C0.66 0.33 1.32 0.66 2 1 C-0.33333333 3.33333333 -2.66666667 5.66666667 -5 8 C-6.32 7.34 -7.64 6.68 -9 6 C-6.03 4.02 -3.06 2.04 0 0 Z " fill="#363533" transform="translate(574,404)"/>
<path d="M0 0 C0.33 1.32 0.66 2.64 1 4 C-0.32 4.99 -1.64 5.98 -3 7 C-3.66 5.68 -4.32 4.36 -5 3 C-2.25 0 -2.25 0 0 0 Z " fill="#121110" transform="translate(798,269)"/>
<path d="M0 0 C0.66 0.33 1.32 0.66 2 1 C1.01 3.97 0.02 6.94 -1 10 C-1.99 8.68 -2.98 7.36 -4 6 C-3.525625 5.566875 -3.05125 5.13375 -2.5625 4.6875 C-0.76313043 2.97690387 -0.76313043 2.97690387 0 0 Z " fill="#31302E" transform="translate(422,676)"/>
<path d="M0 0 C0.99 0 1.98 0 3 0 C3.33 1.98 3.66 3.96 4 6 C1.525 5.01 1.525 5.01 -1 4 C-1 1 -1 1 0 0 Z " fill="#3B3A39" transform="translate(860,482)"/>
<path d="M0 0 C1.4552777 2.9105554 0.63516661 4.95849052 0.0625 8.125 C-0.13214844 9.22070312 -0.32679688 10.31640625 -0.52734375 11.4453125 C-0.68332031 12.28835938 -0.83929687 13.13140625 -1 14 C-1.33 14 -1.66 14 -2 14 C-2.16873478 12.56274129 -2.33490737 11.12518162 -2.5 9.6875 C-2.5928125 8.88699219 -2.685625 8.08648438 -2.78125 7.26171875 C-3 5 -3 5 -3 2 C-2.01 1.34 -1.02 0.68 0 0 Z " fill="#434240" transform="translate(598,592)"/>
<path d="M0 0 C1.65 0 3.3 0 5 0 C3.35 2.64 1.7 5.28 0 8 C-0.33 7.34 -0.66 6.68 -1 6 C-1.66 5.67 -2.32 5.34 -3 5 C-2.34 4.67 -1.68 4.34 -1 4 C-0.34786708 1.97536745 -0.34786708 1.97536745 0 0 Z " fill="#2C2C2B" transform="translate(380,749)"/>
<path d="M0 0 C0.66 0.66 1.32 1.32 2 2 C0.02 4.97 0.02 4.97 -2 8 C-2.99 7.34 -3.98 6.68 -5 6 C-3.35 4.02 -1.7 2.04 0 0 Z " fill="#282725" transform="translate(774,608)"/>
<path d="M0 0 C0.66 0 1.32 0 2 0 C1.34 1.65 0.68 3.3 0 5 C0.66 5.33 1.32 5.66 2 6 C0.824375 6.4640625 0.824375 6.4640625 -0.375 6.9375 C-2.92330128 7.92875038 -2.92330128 7.92875038 -5 9 C-3.7580393 5.56072421 -2.44259716 2.74792181 0 0 Z " fill="#393937" transform="translate(778,287)"/>
<path d="M0 0 C0.33 0.99 0.66 1.98 1 3 C1.66 3 2.32 3 3 3 C1.25 6.875 1.25 6.875 -1 8 C-1.625 5.125 -1.625 5.125 -2 2 C-1.34 1.34 -0.68 0.68 0 0 Z " fill="#2D2C2B" transform="translate(804,260)"/>
<path d="M0 0 C2 1 2 1 3 3 C5.52733235 3.65555119 5.52733235 3.65555119 8 4 C5 6 5 6 2.9375 5.6875 C1 5 1 5 -1 4 C-0.67 2.68 -0.34 1.36 0 0 Z " fill="#0E0D0C" transform="translate(604,768)"/>
<path d="M0 0 C0.99 0.99 1.98 1.98 3 3 C2.34 4.32 1.68 5.64 1 7 C0.01 7 -0.98 7 -2 7 C-2 3.89448334 -1.4606285 2.64738916 0 0 Z " fill="#2F2F2E" transform="translate(371,748)"/>
<path d="M0 0 C0.33 0.66 0.66 1.32 1 2 C0.06553465 4.03144641 -0.93224776 6.03533587 -2 8 C-2.66 7.67 -3.32 7.34 -4 7 C-3.43628586 3.73045798 -2.50037734 2.17424117 0 0 Z " fill="#0F0E0D" transform="translate(363,767)"/>
<path d="M0 0 C0.66 0.33 1.32 0.66 2 1 C0.515 3.475 0.515 3.475 -1 6 C-2.65 5.67 -4.3 5.34 -6 5 C-5.195625 4.360625 -4.39125 3.72125 -3.5625 3.0625 C-1.7249496 1.59396498 -1.7249496 1.59396498 0 0 Z " fill="#2E2E2E" transform="translate(628,757)"/>
<path d="M0 0 C1.9375 0.3125 1.9375 0.3125 4 1 C4.33 1.99 4.66 2.98 5 4 C4.01 4.66 3.02 5.32 2 6 C0 3 0 3 0 0 Z " fill="#1C1C1C" transform="translate(208,757)"/>
<path d="M0 0 C0.66 0 1.32 0 2 0 C2.6875 1.75 2.6875 1.75 3 4 C1.5625 6.25 1.5625 6.25 0 8 C-1.125 2.25 -1.125 2.25 0 0 Z " fill="#353534" transform="translate(244,445)"/>
<path d="M0 0 C0.66 0.33 1.32 0.66 2 1 C0.02 1.99 0.02 1.99 -2 3 C-1.67 4.32 -1.34 5.64 -1 7 C-1.99 7.495 -1.99 7.495 -3 8 C-3 7.34 -3 6.68 -3 6 C-3.66 6 -4.32 6 -5 6 C-3.63016497 2.83884224 -3.0109362 2.0072908 0 0 Z " fill="#3D3C3A" transform="translate(815,252)"/>
<path d="M0 0 C0.99 0.33 1.98 0.66 3 1 C2.34 3.97 1.68 6.94 1 10 C0.67 10 0.34 10 0 10 C-0.74926071 6.33694766 -1.2380014 3.57644848 0 0 Z " fill="#373635" transform="translate(482,708)"/>
<path d="M0 0 C1.485 0.99 1.485 0.99 3 2 C2.67 2.33 2.34 2.66 2 3 C2.66 3.66 3.32 4.32 4 5 C2.35 5.33 0.7 5.66 -1 6 C-0.67 4.02 -0.34 2.04 0 0 Z " fill="#51504E" transform="translate(757,758)"/>
<path d="M0 0 C2.31 0.33 4.62 0.66 7 1 C5 3 5 3 1.875 3.125 C0.451875 3.063125 0.451875 3.063125 -1 3 C-0.67 2.01 -0.34 1.02 0 0 Z " fill="#2D2C2A" transform="translate(322,644)"/>
<path d="M0 0 C2 3 2 3 2 6 C1.01 6.495 1.01 6.495 0 7 C-0.66 7.99 -1.32 8.98 -2 10 C-1.54177532 6.53058454 -1.10868317 3.32604951 0 0 Z " fill="#464544" transform="translate(156,543)"/>
<path d="" fill="#E8E7E6" transform="translate(0,0)"/>
<path d="" fill="#E3E2E0" transform="translate(0,0)"/>
<path d="" fill="#DEDDDB" transform="translate(0,0)"/>
<path d="" fill="#E3E2E0" transform="translate(0,0)"/>
<path d="" fill="#E8E7E6" transform="translate(0,0)"/>
<path d="" fill="#DCDBD9" transform="translate(0,0)"/>
<path d="" fill="#E8E8E8" transform="translate(0,0)"/>
<path d="" fill="#E8E7E6" transform="translate(0,0)"/>
<path d="" fill="#E8E8E7" transform="translate(0,0)"/>
<path d="" fill="#DFDFDF" transform="translate(0,0)"/>
<path d="" fill="#E3E3E1" transform="translate(0,0)"/>
<path d="" fill="#DFDEDC" transform="translate(0,0)"/>
<path d="" fill="#E3E2E0" transform="translate(0,0)"/>
<path d="" fill="#E8E7E6" transform="translate(0,0)"/>
<path d="" fill="#DCDCDA" transform="translate(0,0)"/>
<path d="" fill="#D9D8D6" transform="translate(0,0)"/>
<path d="" fill="#E8E7E6" transform="translate(0,0)"/>
<path d="" fill="#E3E2E0" transform="translate(0,0)"/>
<path d="" fill="#E8E8E8" transform="translate(0,0)"/>
<path d="" fill="#DFDFDF" transform="translate(0,0)"/>
<path d="" fill="#E3E3E3" transform="translate(0,0)"/>
<path d="" fill="#E8E7E6" transform="translate(0,0)"/>
<path d="" fill="#DCDBD9" transform="translate(0,0)"/>
<path d="" fill="#E0E0E0" transform="translate(0,0)"/>
<path d="" fill="#E3E3E3" transform="translate(0,0)"/>
<path d="" fill="#E8E7E6" transform="translate(0,0)"/>
<path d="" fill="#E0DFDD" transform="translate(0,0)"/>
<path d="" fill="#E8E7E6" transform="translate(0,0)"/>
<path d="" fill="#E8E8E8" transform="translate(0,0)"/>
<path d="" fill="#E3E3E1" transform="translate(0,0)"/>
<path d="" fill="#DDDCDA" transform="translate(0,0)"/>
<path d="" fill="#E3E2E0" transform="translate(0,0)"/>
<path d="" fill="#DDDDDD" transform="translate(0,0)"/>
<path d="" fill="#DBDAD8" transform="translate(0,0)"/>
<path d="" fill="#E8E8E8" transform="translate(0,0)"/>
<path d="" fill="#DCDBD9" transform="translate(0,0)"/>
<path d="" fill="#E8E8E8" transform="translate(0,0)"/>
<path d="" fill="#E8E8E8" transform="translate(0,0)"/>
<path d="" fill="#E3E3E3" transform="translate(0,0)"/>
<path d="" fill="#E8E8E8" transform="translate(0,0)"/>
<path d="" fill="#E8E8E8" transform="translate(0,0)"/>
<path d="" fill="#E3E3E3" transform="translate(0,0)"/>
<path d="" fill="#E3E3E3" transform="translate(0,0)"/>
<path d="" fill="#E0E0DE" transform="translate(0,0)"/>
<path d="" fill="#E8E8E8" transform="translate(0,0)"/>
<path d="" fill="#E0E0E0" transform="translate(0,0)"/>
<path d="" fill="#D9D9D7" transform="translate(0,0)"/>
<path d="" fill="#DFDFDF" transform="translate(0,0)"/>
<path d="" fill="#DFDFDF" transform="translate(0,0)"/>
<path d="" fill="#E0E0E0" transform="translate(0,0)"/>
<path d="" fill="#DEDEDE" transform="translate(0,0)"/>
<path d="" fill="#E0E0E0" transform="translate(0,0)"/>
<path d="" fill="#E8E8E7" transform="translate(0,0)"/>
<path d="" fill="#E0DFDD" transform="translate(0,0)"/>
<path d="" fill="#E3E3E3" transform="translate(0,0)"/>
<path d="" fill="#E3E3E3" transform="translate(0,0)"/>
<path d="" fill="#E0DFDD" transform="translate(0,0)"/>
<path d="" fill="#E0DFDD" transform="translate(0,0)"/>
<path d="" fill="#E3E3E3" transform="translate(0,0)"/>
<path d="" fill="#D8D7D5" transform="translate(0,0)"/>
<path d="" fill="#E3E3E3" transform="translate(0,0)"/>
<path d="" fill="#E8E8E8" transform="translate(0,0)"/>
<path d="" fill="#E8E8E8" transform="translate(0,0)"/>
<path d="" fill="#D7D7D7" transform="translate(0,0)"/>
<path d="" fill="#DDDCDA" transform="translate(0,0)"/>
<path d="" fill="#DFDEDC" transform="translate(0,0)"/>
<path d="" fill="#E3E2E0" transform="translate(0,0)"/>
<path d="" fill="#E8E8E7" transform="translate(0,0)"/>
<path d="" fill="#E8E7E6" transform="translate(0,0)"/>
<path d="" fill="#DEDDDB" transform="translate(0,0)"/>
<path d="" fill="#E0DFDD" transform="translate(0,0)"/>
</svg>
