<?xml version="1.0" standalone="no"?>
<!DOCTYPE svg PUBLIC "-//W3C//DTD SVG 20010904//EN"
 "http://www.w3.org/TR/2001/REC-SVG-20010904/DTD/svg10.dtd">
<svg version="1.0" xmlns="http://www.w3.org/2000/svg"
 width="438.991451pt" height="439.230674pt" viewBox="0 0 438.991451 439.230674"
 preserveAspectRatio="xMidYMid meet">
<metadata>
Created by potrace 1.16, written by Peter Selinger 2001-2019
</metadata>
<g transform="translate(-4.462916,444.694413) scale(0.100000,-0.100000)"
fill="#000000" stroke="none">
<path d="M2070 4444 c-19 -2 -78 -9 -130 -15 -468 -52 -904 -266 -1255 -616
-349 -348 -546 -736 -622 -1223 -25 -160 -25 -519 0 -680 74 -482 274 -877
617 -1220 343 -343 738 -543 1220 -617 161 -25 520 -25 680 0 485 75 876 274
1223 622 184 184 309 358 417 580 104 213 167 426 202 675 19 141 16 489 -5
630 -78 510 -287 910 -662 1268 -338 323 -712 507 -1175 577 -100 15 -436 28
-510 19z m337 -74 c229 -18 428 -60 610 -131 541 -211 995 -662 1206 -1199
138 -349 179 -784 111 -1180 -70 -410 -253 -768 -555 -1084 -343 -359 -760
-572 -1249 -637 -122 -17 -458 -17 -580 0 -469 62 -856 251 -1198 585 -352
343 -558 750 -623 1236 -17 121 -17 456 0 580 65 488 278 906 637 1249 451
431 1011 629 1641 581z"/>
<path d="M2075 4334 c-215 -22 -345 -48 -505 -99 -376 -121 -735 -378 -997
-715 -365 -470 -502 -1092 -378 -1716 157 -787 812 -1442 1599 -1599 783 -156
1528 93 2033 680 272 315 424 654 485 1080 19 133 16 465 -5 605 -70 455 -261
834 -587 1160 -324 323 -707 518 -1150 585 -102 15 -415 27 -495 19z m460 -49
c350 -46 675 -182 955 -399 95 -73 291 -268 369 -366 181 -228 297 -458 367
-727 46 -181 64 -330 64 -541 0 -192 -9 -288 -41 -452 -117 -591 -554 -1140
-1122 -1410 -276 -131 -550 -190 -887 -190 -254 0 -446 29 -669 102 -588 191
-1101 707 -1289 1298 -67 212 -93 390 -92 653 0 194 9 292 41 451 151 747 791
1392 1539 1551 214 46 544 59 765 30z"/>
<path d="M2165 4246 l-40 -13 -3 -124 c-2 -113 -4 -125 -24 -140 -45 -35 11
-48 141 -32 49 6 54 9 68 41 11 28 13 56 8 126 -7 85 -10 93 -40 123 -35 35
-48 38 -110 19z m83 -83 c3 -28 -1 -33 -23 -39 -34 -8 -39 -2 -31 41 6 30 11
36 29 33 17 -2 23 -11 25 -35z m30 -118 c4 -29 -18 -54 -55 -61 -33 -6 -33 -6
-33 34 0 43 10 52 60 49 17 -1 26 -9 28 -22z"/>
<path d="M2056 3890 c-503 -58 -919 -310 -1197 -724 -312 -467 -357 -1112
-113 -1635 149 -320 456 -626 777 -776 448 -209 1006 -206 1447 8 158 77 284
169 436 321 195 196 313 380 393 613 125 366 116 825 -25 1173 -137 341 -426
665 -745 834 -164 87 -325 142 -508 172 -109 18 -362 26 -465 14z m525 -58
c316 -66 558 -200 800 -441 241 -242 375 -485 441 -800 28 -140 36 -439 14
-587 -55 -371 -203 -655 -482 -924 -310 -298 -672 -440 -1119 -440 -488 1
-899 184 -1213 540 -183 208 -305 448 -362 715 -31 143 -39 455 -16 613 50
336 197 629 442 877 253 255 538 403 889 460 132 21 476 14 606 -13z"/>
<path d="M3177 3493 c-4 -3 -7 -52 -7 -108 0 -90 -3 -106 -23 -136 -14 -21
-32 -35 -48 -37 -36 -4 -75 73 -64 126 18 92 22 138 14 146 -18 19 -113 -38
-189 -114 -155 -154 -140 -235 33 -181 96 29 147 11 139 -52 -3 -31 -10 -40
-41 -54 -20 -9 -94 -74 -165 -145 l-128 -128 -72 0 c-139 0 -134 -3 -194 122
-41 85 -67 124 -110 168 -76 75 -90 78 -153 28 -60 -47 -113 -127 -154 -231
l-30 -77 -133 0 -133 0 -107 90 c-105 88 -164 159 -176 212 -5 23 -2 30 26 45
26 14 56 18 140 18 86 0 110 3 124 16 15 15 15 20 -4 60 -39 89 -161 195 -214
187 -19 -3 -24 -15 -43 -105 -12 -56 -23 -104 -26 -105 -2 -2 -18 -16 -36 -32
-31 -28 -32 -28 -61 -10 -17 9 -35 28 -41 41 -16 36 -14 145 4 169 19 25 19
73 0 80 -39 15 -180 -110 -278 -248 -73 -101 -65 -109 69 -74 53 15 107 26
121 26 28 0 87 -53 81 -73 -9 -27 -88 -58 -180 -70 -88 -12 -93 -14 -96 -38
-2 -20 5 -31 35 -52 21 -15 58 -51 82 -81 44 -56 107 -96 149 -96 25 0 46 38
31 55 -5 5 -9 48 -9 95 0 70 3 90 18 102 41 35 48 32 187 -98 74 -69 135 -132
135 -141 0 -8 -9 -26 -19 -40 -24 -29 -44 -121 -36 -156 14 -54 43 -68 192
-87 131 -18 222 -34 227 -42 1 -1 32 -39 68 -83 60 -74 88 -115 88 -129 0 -3
-62 -6 -138 -6 l-138 0 -51 -52 c-28 -29 -61 -72 -72 -96 -12 -23 -50 -77 -84
-120 -34 -43 -131 -175 -216 -293 l-154 -214 -66 0 c-126 0 -181 -54 -181
-177 0 -75 21 -123 67 -154 73 -49 200 -38 252 22 50 56 56 171 12 233 l-22
31 261 367 c281 396 277 391 368 392 34 1 42 -2 42 -17 0 -9 -13 -23 -30 -30
-75 -34 -117 -109 -105 -189 9 -58 47 -98 110 -115 42 -11 49 -18 78 -72 44
-82 96 -136 132 -136 33 0 92 58 140 138 25 42 36 51 66 56 19 3 45 16 58 30
27 28 51 104 51 158 0 34 -7 46 -55 94 -72 72 -72 89 -2 81 97 -10 89 1 298
-376 106 -190 203 -362 215 -381 l21 -35 -23 -34 c-30 -44 -39 -105 -24 -162
22 -82 77 -119 180 -119 116 0 168 49 178 165 10 133 -59 202 -196 193 l-65
-4 -35 55 c-20 31 -117 205 -215 386 -99 182 -189 340 -199 352 -28 30 -104
46 -206 42 l-87 -4 3 35 c4 54 50 120 102 147 35 18 75 26 179 35 l134 12 50
46 50 46 -12 65 c-7 35 -21 79 -32 97 -10 18 -19 37 -19 41 0 16 86 106 183
192 l98 87 49 -16 48 -15 -5 -116 c-7 -135 -1 -147 59 -131 51 14 243 220 222
239 -5 4 -47 13 -92 19 -86 12 -175 50 -187 80 -7 19 13 42 50 57 24 10 49 10
120 -1 118 -17 125 -17 131 1 16 41 -112 201 -225 283 -46 33 -53 36 -64 25z
m-987 -578 l0 -105 -51 0 -51 0 7 38 c11 65 68 172 91 172 2 0 4 -47 4 -105z
m165 -9 c35 -70 33 -84 -12 -91 -21 -4 -45 -9 -54 -11 -12 -3 -18 5 -23 33 -8
50 -8 147 1 169 6 15 10 13 35 -17 16 -19 40 -56 53 -83z m-391 -227 c12 -115
11 -119 -28 -119 -32 0 -33 1 -45 57 -19 96 -16 111 22 116 17 2 35 5 38 5 3
1 9 -26 13 -59z m224 -26 l-3 -88 -56 -3 -56 -3 -6 60 c-11 99 2 114 96 120
l28 1 -3 -87z m196 55 c3 -18 8 -56 12 -85 l6 -51 -56 -7 c-84 -11 -86 -9 -86
84 0 88 -2 87 81 90 34 1 37 -2 43 -31z m214 8 c2 -10 -6 -49 -18 -88 -20 -59
-26 -69 -44 -66 -19 3 -21 10 -24 77 -4 96 -1 103 45 99 27 -2 39 -8 41 -22z
m-796 -53 c26 -27 26 -29 10 -49 -13 -17 -31 -23 -75 -26 -56 -5 -59 -4 -73
25 -15 29 -15 30 22 68 35 36 39 37 63 24 14 -7 38 -26 53 -42z m932 42 c21
-14 23 -20 15 -53 -9 -41 -58 -92 -89 -92 -25 0 -25 13 -3 96 19 69 32 78 77
49z m-550 -232 c3 -10 8 -44 12 -75 8 -75 -10 -78 -48 -8 -41 73 -37 93 19 99
6 0 14 -7 17 -16z m161 8 c17 -28 -37 -141 -67 -141 -4 0 -8 31 -8 69 0 68 1
70 28 74 15 2 30 5 34 6 4 0 9 -3 13 -8z m-167 -359 c8 -6 14 -59 19 -180 5
-154 4 -172 -10 -172 -26 0 -31 19 -37 129 -7 122 -20 141 -96 141 l-45 0 16
29 c8 17 25 37 37 45 24 17 94 21 116 8z m186 -24 c72 -14 121 -56 131 -112 7
-33 4 -41 -21 -67 -22 -23 -36 -29 -59 -27 -26 3 -30 8 -33 36 -3 30 -1 32 28
32 34 0 49 22 30 45 -20 24 -58 17 -95 -17 l-35 -33 11 -69 c12 -76 5 -107
-31 -126 -20 -11 -20 -9 -20 170 0 205 -9 189 94 168z m-274 -123 c11 -13 10
-21 -1 -42 -18 -34 -31 -38 -68 -18 -35 18 -44 60 -13 68 37 10 70 6 82 -8z
m-791 -576 c70 -25 84 -149 22 -196 -9 -7 -39 -13 -68 -13 -72 0 -104 28 -110
96 -5 43 -2 54 21 81 34 41 79 51 135 32z m1921 -44 c57 -30 61 -135 7 -181
-27 -22 -38 -25 -79 -22 -72 7 -98 36 -98 107 1 58 10 79 45 99 28 16 91 15
125 -3z"/>
<path d="M3945 2428 c-10 -26 -1 -70 15 -78 8 -4 27 -13 41 -20 22 -10 27 -21
33 -68 7 -60 -3 -77 -39 -66 -46 13 -50 10 -53 -35 -5 -74 -4 -75 105 -30 142
59 170 75 176 101 8 30 -2 39 -108 93 -49 25 -106 62 -127 82 -30 29 -38 33
-43 21z m185 -198 c-25 -10 -48 -16 -52 -13 -5 2 -8 22 -8 44 l0 39 52 -26 52
-27 -44 -17z"/>
<path d="M424 2336 c-4 -9 5 -28 22 -48 33 -40 57 -95 50 -114 -4 -10 -27 -14
-90 -14 -75 0 -87 2 -96 20 -17 32 -30 13 -30 -45 0 -51 11 -77 25 -55 3 6 48
10 101 10 92 0 95 -1 104 -26 6 -15 15 -22 21 -18 14 8 6 271 -8 285 -4 4 -27
11 -50 15 -34 5 -44 3 -49 -10z"/>
<path d="M2280 538 c-63 -5 -121 -11 -127 -13 -16 -5 -17 -81 -2 -90 5 -4 18
0 28 9 27 25 31 20 31 -38 0 -30 5 -58 10 -61 6 -3 22 3 36 14 34 26 44 19 44
-30 l0 -39 -48 0 c-40 0 -53 5 -77 30 -34 36 -58 25 -53 -24 4 -41 44 -60 123
-60 71 0 145 28 127 46 -8 8 -12 49 -12 114 l0 102 31 11 c28 10 36 32 13 36
-5 1 -61 -2 -124 -7z m20 -78 c0 -22 -4 -40 -8 -40 -5 0 -21 14 -37 30 -25 26
-27 32 -15 40 8 5 25 10 38 10 19 0 22 -5 22 -40z"/>
</g>
</svg>
