<?xml version="1.0" standalone="no"?>
<!DOCTYPE svg PUBLIC "-//W3C//DTD SVG 20010904//EN"
 "http://www.w3.org/TR/2001/REC-SVG-20010904/DTD/svg10.dtd">
<svg version="1.0" xmlns="http://www.w3.org/2000/svg"
 width="439.279180pt" height="439.125805pt" viewBox="0 0 439.279180 439.125805"
 preserveAspectRatio="xMidYMid meet">
<metadata>
Created by potrace 1.16, written by Peter Selinger 2001-2019
</metadata>
<g transform="translate(-5.487415,444.590153) scale(0.100000,-0.100000)"
fill="#000000" stroke="none">
<path d="M2070 4443 c-532 -42 -988 -249 -1361 -616 -359 -353 -561 -747 -636
-1237 -25 -162 -24 -519 1 -685 72 -474 276 -877 617 -1216 345 -344 737 -542
1219 -616 160 -25 520 -25 680 0 486 75 880 275 1226 624 182 184 306 358 414
578 140 288 203 548 216 900 14 369 -61 735 -216 1050 -112 227 -257 423 -454
613 -347 333 -721 517 -1191 587 -103 16 -412 26 -515 18z m501 -89 c667 -92
1239 -501 1576 -1124 266 -492 304 -1214 92 -1757 -112 -287 -288 -546 -519
-766 -332 -316 -702 -498 -1146 -563 -164 -24 -496 -24 -654 0 -445 68 -811
248 -1135 558 -307 293 -504 625 -599 1008 -112 456 -74 973 100 1380 185 434
554 833 974 1053 376 198 852 275 1311 211z"/>
<path d="M2075 4334 c-301 -32 -504 -86 -735 -196 -281 -133 -552 -355 -757
-618 -366 -470 -502 -1091 -378 -1716 62 -309 205 -612 408 -864 139 -172 382
-385 563 -493 436 -261 986 -349 1519 -242 440 88 835 324 1142 680 266 308
418 639 480 1045 23 155 23 479 0 640 -66 447 -258 828 -583 1156 -324 326
-715 525 -1155 589 -102 15 -426 27 -504 19z m474 -49 c436 -62 798 -239 1115
-545 343 -331 521 -657 613 -1125 25 -130 26 -588 0 -725 -40 -219 -85 -357
-171 -535 -106 -219 -229 -390 -407 -566 -336 -333 -742 -528 -1201 -578 -211
-23 -488 -11 -693 31 -749 152 -1380 764 -1555 1509 -52 224 -68 578 -35 804
66 454 250 820 580 1150 328 329 704 517 1155 580 133 18 470 18 599 0z"/>
<path d="M2233 4248 c-6 -7 -30 -51 -53 -97 -52 -104 -77 -139 -114 -158 -40
-21 -20 -35 45 -31 l54 3 -3 38 -3 37 66 0 66 0 -3 -32 c-3 -33 -3 -33 46 -36
75 -5 85 3 51 38 -18 19 -42 68 -65 137 -29 84 -42 109 -57 111 -11 2 -24 -3
-30 -10z"/>
<path d="M2105 3894 c-207 -22 -381 -66 -543 -137 -327 -145 -636 -442 -792
-762 -197 -401 -223 -887 -73 -1318 147 -423 504 -793 928 -962 178 -71 356
-105 580 -110 307 -7 542 43 790 167 162 82 267 160 421 313 153 153 229 255
316 429 182 362 215 815 92 1244 -30 104 -123 300 -188 396 -26 39 -38 62 -28
52 16 -13 34 -16 92 -14 42 2 75 8 77 14 5 16 -61 108 -81 112 -11 2 -19 -4
-23 -17 -3 -12 -10 -21 -15 -21 -23 0 -48 23 -48 44 0 29 86 79 128 74 24 -3
27 -7 28 -43 0 -27 5 -41 15 -43 17 -3 109 53 109 67 0 20 -28 31 -54 21 -27
-10 -27 -11 -40 33 -5 18 -73 37 -127 37 -90 0 -138 -62 -120 -157 l8 -41
-111 115 c-253 263 -551 426 -886 484 -111 19 -368 32 -455 23z m490 -64 c291
-62 529 -186 745 -387 265 -246 423 -519 492 -852 29 -141 36 -450 14 -593
-59 -375 -205 -652 -485 -920 -220 -211 -467 -342 -772 -409 -92 -20 -131 -23
-339 -23 -206 0 -248 3 -340 23 -288 62 -519 177 -736 369 -259 229 -432 523
-504 857 -28 127 -39 451 -20 587 67 491 348 908 790 1172 153 91 313 148 525
187 143 26 485 21 630 -11z"/>
<path d="M2180 3668 c-45 -12 -86 -52 -101 -96 -17 -52 -7 -142 20 -180 l22
-32 -271 0 c-265 0 -270 0 -260 19 5 11 10 44 10 73 0 101 -54 145 -168 136
-46 -4 -60 -10 -83 -36 -36 -40 -46 -105 -25 -156 9 -21 16 -40 16 -41 0 -1
-26 -5 -58 -9 -74 -8 -120 -33 -144 -77 -28 -52 -23 -104 14 -162 26 -40 29
-52 20 -66 -42 -58 -72 -120 -72 -149 0 -43 34 -77 91 -91 140 -35 170 -45
218 -72 80 -46 93 -74 88 -190 -5 -120 -29 -171 -97 -206 -40 -20 -49 -22 -83
-11 -35 11 -41 10 -55 -8 -10 -12 -40 -26 -71 -32 -96 -22 -180 -69 -256 -146
-157 -158 -215 -381 -141 -541 34 -75 139 -177 232 -227 59 -31 83 -38 164
-45 l95 -8 43 -87 c71 -144 175 -242 359 -336 355 -181 761 -199 1089 -47 107
49 217 128 316 226 73 73 93 100 127 173 l40 87 109 -7 c201 -12 248 27 326
274 30 95 33 164 11 267 -41 195 -173 331 -366 379 -86 21 -97 20 -161 -9 -92
-43 -149 -33 -228 41 -63 59 -84 113 -78 197 11 129 67 187 209 213 160 31
203 72 196 189 -2 39 -12 90 -23 114 l-19 43 44 44 c37 37 42 48 36 71 -8 33
-106 165 -142 191 -25 18 -25 19 -9 50 21 40 20 105 -1 149 -22 47 -69 66
-146 61 -49 -4 -63 -9 -90 -36 -29 -30 -32 -38 -32 -95 0 -34 4 -70 9 -79 8
-17 -8 -18 -253 -18 -144 0 -261 2 -261 5 0 2 9 19 20 37 24 39 27 123 6 171
-34 79 -132 115 -236 85z m114 -72 c42 -17 66 -51 66 -93 0 -76 -42 -117 -116
-115 -73 3 -104 35 -104 108 0 51 25 92 63 103 45 13 53 13 91 -3z m791 -91
c34 -33 33 -77 -1 -104 -15 -12 -37 -21 -49 -21 -36 0 -75 37 -75 71 0 37 40
79 75 79 14 0 37 -11 50 -25z m-1577 -1 c25 -17 31 -78 9 -107 -19 -27 -78
-33 -104 -10 -76 65 12 175 95 117z m1595 -249 c62 -30 107 -75 107 -104 0
-22 -46 -66 -85 -82 -50 -20 -174 -15 -228 9 -56 25 -60 21 -55 -54 3 -46 5
-49 28 -45 14 2 79 5 145 8 183 7 221 -12 205 -99 -8 -44 -39 -81 -78 -96 -15
-6 -67 -25 -115 -43 -124 -45 -170 -78 -203 -145 -25 -50 -26 -62 -22 -148 4
-71 11 -106 31 -149 28 -62 47 -77 187 -147 100 -50 108 -38 -99 -144 -255
-130 -461 -199 -636 -212 -198 -15 -468 66 -669 200 -75 50 -217 183 -215 203
0 4 28 28 62 53 102 74 149 163 150 281 0 61 -27 121 -100 222 -32 43 -38 47
-76 47 -23 0 -71 5 -107 10 -81 12 -100 31 -100 104 0 50 2 53 35 69 42 20 72
21 183 5 73 -10 85 -9 99 5 13 13 14 23 7 49 l-10 33 -84 -1 c-47 0 -112 -4
-145 -8 -54 -7 -62 -6 -78 12 -12 13 -21 43 -24 80 -5 55 -3 63 20 86 l26 26
476 0 475 0 0 -197 c0 -109 -3 -222 -7 -252 l-6 -53 -93 6 c-168 12 -213 37
-337 186 -17 21 -31 30 -37 24 -5 -5 -11 -124 -12 -265 -2 -205 0 -259 11
-272 7 -10 17 -17 21 -17 5 0 22 25 39 55 41 72 95 132 142 155 43 23 140 40
223 40 l59 0 -7 -81 c-4 -50 -14 -96 -27 -121 -24 -47 -93 -117 -172 -176 -89
-66 -80 -75 78 -84 107 -6 385 -1 445 7 31 4 20 33 -27 68 -77 56 -191 181
-214 232 -23 51 -21 91 6 132 14 21 23 23 89 23 l73 0 42 -45 c23 -25 67 -84
97 -131 45 -68 60 -85 77 -82 19 3 24 14 35 73 13 73 20 292 13 405 -7 108
-30 128 -73 63 -46 -69 -148 -171 -191 -192 -42 -21 -100 -27 -144 -15 -31 8
-36 67 -26 309 l8 200 95 6 c52 3 221 5 375 4 l280 -2 58 -28z m-1877 -1030
c-3 -9 -8 -95 -12 -193 -6 -160 1 -274 22 -356 5 -21 -3 -26 -108 -63 -78 -27
-115 -37 -120 -29 -19 27 -49 122 -58 184 -21 134 23 269 122 377 61 67 171
124 154 80z m227 -149 c252 -234 344 -293 536 -342 119 -31 325 -42 453 -25
263 35 470 130 670 306 106 94 115 101 122 94 3 -2 8 -52 12 -110 l7 -104 -69
-64 c-86 -81 -232 -177 -366 -241 -87 -41 -123 -52 -228 -70 -166 -27 -369
-42 -455 -35 -186 17 -421 104 -616 230 -123 79 -196 201 -219 363 -7 50 -5
60 13 80 11 12 22 22 25 22 2 0 54 -47 115 -104z m1913 45 c75 -54 128 -132
170 -252 50 -143 41 -283 -23 -359 -31 -37 -43 -38 -43 -2 0 15 -11 51 -25 81
-25 52 -26 53 -63 49 l-38 -3 -13 210 c-7 115 -15 231 -18 258 -3 28 -2 47 4
47 6 0 28 -13 49 -29z m209 -82 c61 -56 85 -123 85 -237 0 -153 -42 -356 -83
-400 -21 -23 -92 -50 -103 -39 -10 10 33 71 74 104 48 39 72 106 79 219 6 100
1 120 -88 322 -19 41 -24 72 -14 72 3 0 25 -18 50 -41z m-2674 -410 c27 -57
41 -74 107 -124 85 -63 99 -71 155 -80 24 -4 37 -11 37 -22 0 -12 -7 -14 -37
-8 -21 3 -42 11 -47 16 -6 5 -17 9 -26 9 -9 0 -39 7 -67 15 -93 28 -158 118
-188 261 -17 82 -8 104 17 43 11 -24 33 -74 49 -110z m2499 -74 c0 -27 -44
-80 -59 -71 -11 7 -24 74 -16 86 3 6 22 10 41 10 30 0 34 -3 34 -25z m-2160
-2 c0 -5 -10 -24 -21 -43 l-22 -35 -11 24 c-8 20 -7 26 13 42 24 20 41 24 41
12z m1870 -20 c0 -34 -217 -191 -369 -268 -188 -94 -361 -127 -557 -107 -352
37 -576 129 -661 272 -39 64 -41 86 -10 96 46 15 164 6 259 -20 345 -94 612
-100 918 -19 176 47 251 59 363 62 48 1 57 -2 57 -16z m87 -85 c-20 -165 -187
-337 -462 -473 -142 -70 -216 -97 -344 -125 -81 -18 -86 -18 -200 1 -233 39
-372 92 -541 207 -131 90 -280 284 -280 366 0 30 34 16 105 -41 304 -246 639
-371 893 -334 203 29 481 169 701 353 64 54 120 98 125 98 5 0 6 -23 3 -52z"/>
<path d="M716 3546 c-31 -38 -36 -52 -36 -94 0 -73 9 -78 132 -63 94 12 103
11 115 -5 22 -30 15 -34 -51 -34 -72 0 -85 -10 -62 -45 22 -34 53 -41 79 -17
12 11 36 26 52 33 36 17 44 53 20 98 -27 54 -66 60 -203 35 -31 -6 -33 -5 -30
17 2 20 10 25 47 29 25 3 46 11 49 17 4 14 -50 73 -66 73 -5 0 -26 -20 -46
-44z"/>
<path d="M3560 1137 c-15 -8 -24 -21 -23 -33 1 -10 5 -39 9 -64 5 -37 2 -50
-17 -73 -18 -24 -27 -28 -51 -23 -16 3 -38 16 -47 28 -24 28 -45 19 -71 -32
l-21 -40 26 -10 c15 -6 32 -10 38 -10 7 0 65 -16 130 -34 141 -40 139 -42 112
84 -10 47 -23 114 -30 149 -6 36 -15 66 -20 68 -6 1 -21 -3 -35 -10z"/>
<path d="M870 1105 c-20 -24 -6 -39 56 -60 47 -16 60 -25 62 -43 3 -22 -22
-62 -39 -62 -4 0 -6 15 -5 33 1 27 -2 31 -19 29 -50 -9 -77 -78 -35 -89 23 -6
26 -25 7 -41 -19 -16 -46 9 -55 53 -10 51 -35 67 -62 39 l-21 -20 67 -87 c36
-48 72 -87 79 -87 7 0 22 17 32 38 11 20 28 51 37 69 15 29 48 47 124 69 27 8
8 34 -77 102 -90 73 -126 87 -151 57z"/>
<path d="M2256 507 c-18 -13 -18 -14 1 -28 17 -12 19 -22 14 -64 l-6 -50 -17
25 c-9 14 -19 40 -23 58 -9 41 -36 56 -90 47 -74 -11 -88 -59 -17 -53 36 3 37
2 46 -40 8 -37 6 -45 -13 -66 -25 -26 -21 -70 8 -85 22 -12 176 -25 197 -17
15 6 15 9 -6 31 -21 22 -22 31 -18 102 2 43 11 88 19 100 17 27 7 38 -41 47
-23 4 -42 1 -54 -7z m14 -207 c0 -15 -7 -20 -25 -20 -14 0 -28 -1 -32 -2 -5
-2 -9 7 -11 20 -3 19 1 22 32 22 29 0 36 -4 36 -20z"/>
</g>
</svg>
