<?xml version="1.0" standalone="no"?>
<!DOCTYPE svg PUBLIC "-//W3C//DTD SVG 20010904//EN"
 "http://www.w3.org/TR/2001/REC-SVG-20010904/DTD/svg10.dtd">
<svg version="1.0" xmlns="http://www.w3.org/2000/svg"
 width="439.228800pt" height="439.169475pt" viewBox="0 0 439.228800 439.169475"
 preserveAspectRatio="xMidYMid meet">
<metadata>
Created by potrace 1.16, written by Peter Selinger 2001-2019
</metadata>
<g transform="translate(-5.205147,444.618780) scale(0.100000,-0.100000)"
fill="#000000" stroke="none">
<path d="M2075 4444 c-551 -46 -1003 -253 -1385 -634 -442 -443 -658 -997
-636 -1635 20 -603 231 -1087 657 -1506 328 -322 702 -512 1169 -591 172 -29
538 -32 715 -4 585 90 1074 387 1434 871 216 291 343 600 397 971 22 147 25
473 6 624 -59 474 -251 876 -584 1225 -355 372 -772 590 -1260 660 -104 15
-420 26 -513 19z m491 -89 c284 -40 535 -127 765 -266 407 -244 727 -613 894
-1029 118 -293 170 -639 146 -972 -38 -517 -224 -937 -583 -1313 -375 -393
-836 -609 -1379 -646 -629 -44 -1184 152 -1626 574 -367 351 -572 750 -644
1252 -19 133 -17 473 5 619 69 475 285 887 641 1224 342 323 735 510 1185 561
52 6 109 13 125 15 68 7 368 -4 471 -19z"/>
<path d="M2085 4334 c-214 -22 -357 -50 -510 -100 -575 -189 -1075 -672 -1288
-1244 -131 -353 -161 -790 -82 -1186 107 -535 439 -1011 927 -1328 434 -282
1010 -382 1566 -270 754 151 1388 759 1577 1513 44 178 59 310 59 531 0 360
-57 621 -199 916 -225 467 -656 863 -1129 1039 -131 48 -297 91 -427 110 -103
15 -416 27 -494 19z m530 -59 c441 -78 787 -264 1112 -598 264 -272 426 -555
512 -898 80 -315 84 -691 12 -1014 -54 -244 -167 -496 -315 -700 -351 -488
-862 -792 -1438 -854 -125 -14 -371 -14 -496 0 -409 44 -772 202 -1089 473
-392 334 -633 772 -698 1264 -17 132 -20 448 -5 572 58 462 248 849 585 1185
361 361 794 560 1290 593 136 9 420 -3 530 -23z"/>
<path d="M2011 4232 c-33 -10 -39 -32 -11 -39 21 -6 145 -163 183 -233 22 -40
20 -42 114 89 53 74 79 100 118 121 62 33 65 54 10 58 -81 6 -158 -26 -91 -38
l27 -5 -30 -45 c-31 -47 -108 -127 -114 -119 -2 2 -28 39 -57 83 l-53 78 23
18 c15 11 19 20 12 24 -18 11 -104 16 -131 8z"/>
<path d="M2105 3894 c-425 -44 -741 -191 -1025 -474 -304 -303 -457 -658 -477
-1100 -12 -283 42 -557 157 -796 186 -386 552 -710 945 -838 422 -136 893
-108 1275 77 159 77 284 169 435 321 184 185 301 360 381 573 81 216 119 515
94 753 -29 282 -108 519 -246 733 -48 73 -50 78 -33 74 7 -1 26 34 44 78 17
44 50 113 74 154 28 50 39 77 32 84 -7 7 -49 4 -128 -8 -65 -11 -139 -19 -165
-20 -25 0 -49 -2 -51 -5 -8 -8 46 -103 60 -108 7 -2 17 8 23 22 8 22 16 26 49
26 42 0 51 -13 51 -73 0 -26 -4 -30 -48 -43 -9 -3 -7 -14 8 -46 l21 -43 -27
35 c-15 19 -71 79 -123 134 -249 256 -550 415 -893 471 -93 15 -358 27 -433
19z m465 -60 c311 -55 574 -197 821 -443 242 -242 371 -476 439 -796 27 -126
38 -436 21 -569 -49 -370 -205 -672 -482 -941 -310 -300 -674 -445 -1114 -445
-432 0 -779 129 -1090 406 -253 225 -423 518 -497 858 -20 89 -23 131 -23 341
0 264 9 333 67 515 150 469 547 870 1013 1023 248 82 564 101 845 51z m1095
-371 c-8 -34 -20 -47 -34 -39 -15 10 -14 53 2 59 30 13 39 7 32 -20z"/>
<path d="M2341 3813 c-6 -12 -11 -43 -12 -70 0 -26 -6 -68 -12 -93 -11 -42
-15 -46 -57 -56 l-45 -11 -23 46 c-19 38 -22 58 -19 114 2 37 1 70 -3 72 -14
9 -78 -73 -89 -112 -6 -21 -11 -58 -11 -84 0 -38 5 -50 33 -76 17 -17 51 -43
75 -57 43 -27 43 -28 37 -69 -4 -23 -14 -55 -22 -70 l-14 -28 -30 22 c-46 32
-78 89 -89 154 -5 32 -7 61 -5 65 3 4 -1 13 -9 19 -10 9 -19 7 -37 -8 -22 -18
-24 -26 -24 -108 1 -71 5 -96 23 -130 35 -67 75 -106 140 -137 l61 -29 3 -126
c2 -69 2 -136 0 -148 l-3 -23 -235 0 -234 0 -163 126 c-89 70 -163 128 -165
129 -2 2 4 18 13 36 13 23 16 50 13 100 -4 78 -24 114 -79 141 -46 24 -152 24
-198 0 -58 -29 -75 -63 -79 -150 -4 -98 14 -137 78 -170 39 -20 55 -23 117
-19 66 5 73 4 95 -20 12 -14 73 -62 133 -108 61 -45 122 -95 135 -111 l25 -30
-3 -252 -3 -252 -197 -2 -197 -3 0 -180 0 -180 198 -3 197 -2 0 -95 0 -94 -51
-63 c-29 -35 -94 -106 -147 -159 l-95 -97 -35 15 c-50 21 -153 14 -189 -13
-43 -32 -63 -80 -63 -154 0 -74 20 -122 63 -154 40 -29 167 -35 216 -9 60 32
76 64 75 151 -1 42 -4 86 -5 97 -3 15 26 48 114 128 l117 108 0 -43 c1 -24 2
-95 3 -158 l2 -115 199 -5 c179 -4 197 -7 181 -20 -52 -43 -70 -166 -39 -269
20 -67 74 -123 143 -146 67 -22 77 -14 47 38 -30 52 -56 139 -56 186 1 54 32
112 85 159 26 23 51 42 54 42 14 0 90 -87 110 -125 33 -63 28 -108 -27 -218
-27 -53 -47 -99 -44 -102 12 -12 86 -3 121 14 121 62 165 205 103 336 -16 33
-36 66 -45 74 -10 7 -17 17 -17 22 0 5 80 10 178 11 l177 3 0 138 c0 75 2 137
5 137 3 0 49 -44 103 -98 93 -94 97 -100 87 -126 -22 -59 -6 -121 49 -179 38
-42 74 -57 133 -57 95 0 155 48 168 136 23 151 -120 266 -258 208 l-37 -15
-127 130 -128 130 0 125 0 126 203 2 202 3 0 180 0 180 -202 3 -203 2 0 253 0
252 130 140 c102 110 135 139 152 137 128 -15 126 -15 173 12 91 54 125 159
79 252 -31 62 -63 79 -149 79 -67 0 -77 -3 -112 -31 -66 -52 -105 -165 -73
-214 7 -12 -22 -46 -133 -157 l-142 -143 -232 0 -233 0 0 149 0 149 50 17 c59
20 143 91 172 149 27 51 28 122 4 194 -30 90 -62 82 -83 -20 -18 -89 -51 -147
-96 -171 -56 -29 -67 -19 -67 56 l0 64 44 17 c25 10 61 35 82 58 36 41 37 41
30 107 -8 88 -22 135 -50 168 -23 27 -23 27 -35 6z m-1000 -492 c24 -25 29
-38 29 -80 0 -65 -28 -100 -87 -108 -103 -14 -165 75 -117 168 18 35 43 48
102 48 35 1 49 -5 73 -28z m1940 0 c24 -25 29 -38 29 -80 0 -68 -28 -101 -91
-108 -93 -11 -147 56 -120 147 14 48 48 69 109 70 35 0 49 -6 73 -29z m-1071
-835 l0 -314 -24 -6 c-32 -8 -83 -52 -101 -87 -21 -40 -19 -135 5 -187 27 -59
86 -86 176 -80 123 8 185 99 160 233 -8 43 -55 98 -98 116 -18 7 -35 16 -38
20 -3 4 -4 145 -2 313 l3 306 234 0 235 0 2 -292 3 -293 128 -3 127 -3 0 -109
0 -109 -127 -3 -128 -3 -3 -217 -2 -218 -510 0 -510 0 -2 48 c-1 26 -2 124 -3
217 l0 170 -127 3 -128 3 0 109 0 109 128 3 127 3 3 293 2 292 235 0 235 0 0
-314z m-802 -383 l-3 -108 -35 0 -35 0 -3 108 -3 107 41 0 41 0 -3 -107z
m1760 0 l-3 -108 -35 0 -35 0 -3 108 -3 107 41 0 41 0 -3 -107z m-837 -32 c23
-23 29 -38 29 -71 0 -70 -28 -104 -92 -115 -46 -8 -101 16 -117 51 -20 44 -14
99 15 133 23 28 32 31 81 31 47 0 59 -4 84 -29z m429 -666 l0 -75 -510 0 -510
0 0 75 0 75 510 0 510 0 0 -75z m-1419 -64 c24 -25 29 -38 29 -80 0 -68 -28
-101 -91 -108 -87 -10 -138 43 -126 130 8 59 43 87 108 87 42 0 55 -5 80 -29z
m1940 0 c24 -25 29 -38 29 -80 0 -68 -28 -101 -91 -108 -65 -7 -105 15 -120
68 -11 34 -10 48 2 82 16 49 46 67 107 67 35 0 49 -6 73 -29z m-1131 -100 c0
-6 -4 -12 -9 -15 -31 -19 -58 -248 -38 -320 7 -27 7 -28 -8 -16 -31 26 -45 68
-45 138 0 85 22 161 56 196 27 27 44 33 44 17z m316 -66 c44 -92 26 -267 -29
-296 -18 -10 -19 -9 -14 18 21 106 16 270 -10 340 -15 40 30 -12 53 -62z"/>
<path d="M766 3590 c-38 -42 -38 -44 -33 -103 8 -92 59 -146 144 -154 45 -5
51 -2 95 36 27 24 49 53 53 71 8 39 -22 105 -69 149 -30 30 -44 35 -94 39 -57
4 -58 4 -96 -38z m158 -84 c42 -75 45 -100 13 -121 -21 -13 -29 -13 -63 -2
-35 13 -41 20 -56 68 -9 30 -17 69 -17 87 -1 31 0 32 43 32 44 0 44 0 80 -64z"/>
<path d="M407 2193 c-11 -10 -8 -122 3 -144 14 -25 36 -24 50 1 14 26 42 26
58 0 20 -33 -26 -55 -117 -55 l-76 0 -6 30 c-4 23 0 36 18 56 21 22 22 28 9
38 -8 7 -32 11 -53 9 l-38 -3 2 -54 c3 -66 19 -92 78 -126 38 -23 52 -26 87
-20 53 9 106 35 136 68 24 25 24 25 6 78 -9 30 -19 60 -20 67 -2 7 -20 12 -47
12 -37 0 -46 4 -55 25 -12 25 -23 31 -35 18z"/>
<path d="M3968 2094 c-3 -5 -15 -42 -27 -81 l-21 -73 26 -40 c22 -33 32 -40
60 -40 53 0 84 17 100 55 8 19 18 35 23 35 5 0 16 3 25 6 13 5 16 -1 16 -33 0
-34 -4 -40 -31 -50 -18 -7 -29 -18 -27 -25 5 -13 103 -40 112 -31 8 8 -5 126
-16 148 -39 76 -94 86 -149 26 -32 -34 -84 -60 -95 -48 -3 2 0 15 5 28 9 24
30 39 84 59 27 9 38 42 18 54 -17 11 -98 18 -103 10z"/>
<path d="M1365 790 c-3 -5 -8 -84 -12 -174 -6 -150 -4 -166 11 -172 10 -4 25
2 39 15 62 60 173 145 213 162 25 11 43 26 41 32 -2 7 -23 18 -47 26 -40 13
-45 13 -54 -3 -29 -48 -30 -48 -74 -37 -24 7 -42 18 -42 26 0 7 -2 20 -5 27
-4 9 4 19 20 26 15 7 25 18 23 24 -6 17 -106 59 -113 48z m114 -189 c24 -6 23
-7 -20 -43 -24 -20 -45 -35 -47 -34 -1 2 0 22 4 45 7 43 13 46 63 32z"/>
<path d="M3060 751 c-9 -18 -20 -21 -71 -21 -60 0 -60 0 -75 -37 -16 -38 -13
-85 7 -110 8 -9 37 -13 93 -13 91 0 103 -5 107 -40 5 -33 16 -31 40 7 l21 33
-29 29 c-32 32 -87 51 -145 51 -27 0 -38 4 -38 15 0 19 68 32 89 16 48 -34 69
-21 52 32 -17 50 -36 64 -51 38z"/>
<path d="M2994 515 c-3 -7 2 -29 10 -49 19 -46 42 -46 86 -1 37 38 37 37 -43
53 -37 8 -50 7 -53 -3z"/>
</g>
</svg>
