<?xml version="1.0" standalone="no"?>
<!DOCTYPE svg PUBLIC "-//W3C//DTD SVG 20010904//EN"
 "http://www.w3.org/TR/2001/REC-SVG-20010904/DTD/svg10.dtd">
<svg version="1.0" xmlns="http://www.w3.org/2000/svg"
 width="439.290958pt" height="439.174130pt" viewBox="0 0 439.290958 439.174130"
 preserveAspectRatio="xMidYMid meet">
<metadata>
Created by potrace 1.16, written by Peter Selinger 2001-2019
</metadata>
<g transform="translate(-5.173409,444.650509) scale(0.100000,-0.100000)"
fill="#000000" stroke="none">
<path d="M2070 4444 c-564 -53 -993 -251 -1377 -633 -246 -245 -430 -537 -532
-846 -154 -470 -145 -1047 25 -1501 106 -285 272 -540 500 -770 346 -347 740
-547 1224 -621 160 -24 519 -24 680 0 481 74 870 271 1214 613 350 348 552
747 622 1230 25 166 25 507 1 664 -78 506 -285 905 -651 1257 -345 332 -720
518 -1186 588 -103 15 -431 27 -520 19z m470 -85 c452 -59 840 -244 1172 -558
476 -451 706 -1048 659 -1709 -37 -515 -222 -936 -572 -1306 -339 -358 -737
-567 -1224 -642 -155 -24 -499 -24 -655 0 -446 69 -815 251 -1142 565 -356
342 -560 730 -634 1214 -24 155 -24 489 0 647 68 455 246 820 560 1148 373
390 832 610 1361 652 114 10 364 4 475 -11z"/>
<path d="M2090 4334 c-19 -2 -78 -9 -130 -15 -847 -96 -1585 -779 -1755 -1623
-158 -782 95 -1532 686 -2040 367 -315 775 -472 1279 -492 656 -27 1242 227
1667 721 266 308 418 640 479 1045 25 159 25 483 1 640 -70 458 -261 833 -590
1163 -323 322 -699 513 -1152 583 -94 14 -408 26 -485 18z m453 -49 c374 -49
721 -201 1007 -440 93 -78 269 -259 337 -345 209 -268 349 -601 397 -942 17
-125 21 -438 6 -568 -42 -374 -193 -733 -433 -1029 -344 -425 -828 -693 -1359
-750 -125 -14 -371 -14 -496 0 -464 50 -869 246 -1207 584 -332 331 -514 695
-581 1154 -23 163 -16 540 14 696 79 411 262 755 562 1055 338 339 724 531
1185 589 118 15 443 12 568 -4z"/>
<path d="M2339 4254 c-14 -13 -23 -14 -59 -4 -55 15 -105 6 -125 -23 -18 -26
-20 -110 -2 -125 6 -5 37 -15 68 -21 81 -17 104 -50 67 -98 -14 -17 -108 29
-126 62 -11 22 -16 24 -28 14 -11 -9 -14 -29 -12 -73 2 -50 6 -61 21 -64 12
-3 20 4 24 17 6 25 3 25 52 5 57 -23 91 -15 118 25 25 37 31 104 11 118 -7 4
-42 19 -78 33 -89 35 -96 79 -12 80 25 0 41 -9 67 -37 32 -35 36 -37 51 -22
13 14 14 26 7 69 -9 58 -20 69 -44 44z"/>
<path d="M2066 3889 c-497 -52 -917 -307 -1199 -727 -349 -519 -355 -1282 -14
-1804 166 -255 408 -471 671 -598 445 -214 1010 -213 1456 3 158 77 284 169
435 321 155 155 231 258 314 424 254 508 220 1162 -87 1637 -117 182 -317 381
-500 500 -304 196 -694 284 -1076 244z m520 -57 c315 -63 562 -199 805 -441
243 -243 369 -473 441 -801 20 -93 22 -131 22 -345 0 -209 -3 -253 -22 -338
-73 -329 -217 -584 -463 -822 -183 -177 -377 -295 -604 -368 -151 -49 -263
-67 -447 -74 -179 -7 -332 7 -481 43 -545 132 -997 575 -1146 1123 -72 262
-69 641 5 899 149 515 570 941 1079 1090 236 70 564 83 811 34z"/>
<path d="M2066 3839 c-33 -5 -64 -13 -69 -18 -17 -17 4 -51 68 -114 74 -73 85
-92 85 -146 0 -40 -1 -41 -35 -41 -41 0 -93 42 -151 122 -39 53 -64 59 -75 18
-9 -31 -9 -295 0 -334 3 -16 11 -31 18 -33 19 -7 80 55 87 87 3 17 17 42 31
56 22 21 33 25 78 22 l52 -3 8 -273 c5 -151 6 -277 2 -280 -9 -9 -486 -16
-540 -8 -46 7 -46 8 -40 39 17 81 32 113 78 163 73 80 68 84 -118 84 -186 0
-189 -2 -126 -88 79 -109 91 -128 97 -160 l7 -32 -49 0 c-90 0 -116 13 -168
86 -37 51 -52 65 -69 62 -20 -3 -23 -11 -28 -73 -3 -38 -5 -122 -5 -185 1 -94
4 -115 16 -118 9 -1 53 34 100 78 84 80 84 80 138 80 l55 0 -5 -44 c-7 -55
-38 -120 -84 -174 -19 -23 -33 -46 -29 -52 8 -12 322 -14 329 -1 6 9 -76 124
-127 178 -29 31 -29 33 -14 56 15 23 24 25 144 33 179 12 350 10 401 -4 l42
-13 2 -194 c1 -107 3 -225 3 -262 l0 -68 -53 -3 c-30 -2 -78 2 -109 8 -46 10
-58 17 -75 47 -15 25 -24 31 -32 23 -16 -16 -21 -251 -6 -279 14 -27 26 -20
35 19 4 16 20 41 37 55 26 22 38 25 113 25 75 0 84 -2 90 -20 8 -25 4 -230 -5
-235 -6 -3 -118 -22 -368 -60 -56 -8 -127 -25 -158 -36 -62 -24 -186 -103
-226 -146 -46 -50 -196 -489 -201 -590 -3 -69 2 -71 203 -88 144 -11 180 26
86 88 -31 20 -77 57 -102 82 -79 75 -78 75 306 75 l327 0 -19 -40 c-29 -58
-27 -156 4 -218 33 -67 87 -95 182 -96 117 0 175 32 210 116 22 52 20 143 -4
197 -11 24 -20 45 -20 47 0 2 171 4 380 4 209 0 380 -2 380 -5 0 -35 -80 -118
-168 -174 -29 -18 -51 -39 -49 -45 10 -29 254 -30 323 -1 59 25 60 41 14 188
-49 154 -111 299 -163 379 -122 192 -222 236 -652 292 -103 13 -190 27 -193
31 -4 4 -8 58 -9 120 -3 129 -3 130 77 145 110 21 199 -11 233 -84 11 -23 22
-35 27 -30 13 13 23 201 13 252 -4 24 -12 44 -18 45 -5 1 -17 -17 -25 -40
l-14 -42 -136 -3 c-74 -2 -138 0 -143 3 -13 9 -26 197 -27 368 l0 164 248 -6
c136 -4 296 -7 356 -7 l109 0 -6 -34 c-9 -58 -37 -104 -94 -156 -84 -77 -78
-81 129 -78 207 4 211 7 126 96 -79 83 -91 103 -82 147 7 37 7 37 46 32 60 -8
129 -48 165 -95 18 -24 36 -43 40 -43 17 -2 33 78 38 180 7 182 -15 220 -78
133 -38 -53 -108 -94 -179 -107 -35 -5 -38 -4 -38 18 0 41 21 89 68 159 62 93
57 100 -63 97 -52 -2 -97 0 -100 3 -7 7 -108 -11 -119 -22 -5 -5 13 -32 41
-62 55 -58 90 -119 95 -164 l3 -29 -117 0 c-65 0 -223 1 -351 3 l-234 2 -6
225 c-3 124 -3 251 0 281 l6 56 52 -5 c92 -9 148 -50 183 -130 7 -16 18 -27
25 -25 17 6 36 106 43 228 9 164 -16 197 -91 119 -22 -22 -58 -51 -80 -64 -40
-24 -123 -48 -136 -39 -10 6 17 96 42 146 14 26 34 45 68 63 50 25 87 63 73
76 -24 24 -243 34 -356 18z m385 -2034 c40 -9 96 -22 126 -31 l53 -15 0 -78 0
-78 -181 -7 c-100 -4 -184 -5 -186 -2 -11 11 -2 211 10 218 19 12 101 9 178
-7z m-271 -99 l0 -104 -75 -7 c-41 -3 -120 -3 -175 0 l-101 8 3 91 3 91 115 7
c63 4 129 9 145 11 17 2 42 5 58 5 l27 2 0 -104z m-412 -29 l3 -77 -39 0 c-21
0 -93 -3 -159 -6 l-121 -7 5 27 c6 30 51 63 132 98 50 21 150 48 166 44 6 -2
11 -37 13 -79z m1021 63 c98 -27 161 -61 201 -107 l34 -38 -154 -3 c-84 -1
-158 2 -163 7 -7 7 -1 161 7 161 1 0 34 -9 75 -20z m328 -228 c6 -7 34 -105
39 -139 l7 -43 -49 -1 c-146 -1 -315 2 -356 8 l-48 6 0 91 0 91 202 -6 c112
-3 204 -6 205 -7z m-1430 2 c95 -8 98 -11 87 -119 l-7 -65 -209 0 c-164 0
-209 3 -205 13 2 6 12 49 22 95 l18 82 106 0 c58 0 143 -3 188 -6z m503 -84
l0 -90 -175 0 -175 0 0 90 0 90 175 0 175 0 0 -90z m440 -4 l0 -93 -82 -6
c-46 -4 -122 -7 -170 -7 -109 0 -118 7 -118 93 0 115 -14 107 191 107 l179 0
0 -94z m-350 -184 c96 -48 107 -190 19 -255 -33 -24 -124 -25 -169 -2 -58 30
-82 134 -46 203 32 63 127 89 196 54z"/>
<path d="M3600 3683 c-19 -9 -78 -28 -130 -43 -87 -25 -98 -27 -139 -14 -64
19 -83 -2 -38 -43 31 -29 65 -37 92 -23 38 20 93 5 115 -33 26 -43 26 -83 0
-90 -28 -7 -25 -27 11 -67 29 -31 32 -32 44 -17 23 32 98 259 99 300 1 47 -7
51 -54 30z m-7 -78 c-15 -44 -33 -60 -33 -30 0 9 -10 20 -22 24 -21 8 -20 10
22 30 25 11 46 21 47 21 1 0 -5 -20 -14 -45z"/>
<path d="M823 3675 c-3 -9 9 -57 28 -108 21 -59 35 -119 38 -167 7 -90 24 -99
58 -31 l23 45 -21 19 c-23 21 -22 47 5 111 l14 34 43 -12 c27 -8 45 -20 50
-34 5 -12 12 -22 17 -22 7 0 36 35 55 67 13 20 -34 41 -135 62 -52 10 -109 26
-126 35 -38 20 -41 20 -49 1z m107 -86 c0 -14 -23 -59 -30 -59 -4 0 -12 17
-19 38 -7 20 -15 43 -18 50 -3 9 6 7 31 -5 20 -9 36 -20 36 -24z"/>
<path d="M254 2433 c-3 -10 -9 -25 -14 -34 -15 -28 12 -49 85 -68 45 -12 71
-24 73 -34 2 -9 -25 -38 -67 -72 -66 -52 -71 -59 -71 -95 0 -47 16 -61 30 -26
9 25 12 26 104 26 85 0 96 -2 106 -20 17 -32 30 -13 30 44 0 61 -7 72 -31 50
-11 -10 -31 -14 -56 -12 l-38 3 69 66 c83 80 85 101 11 111 -28 3 -78 7 -112
7 -59 1 -63 3 -78 30 -19 38 -34 47 -41 24z"/>
<path d="M3924 2426 c-8 -21 4 -104 17 -111 5 -4 12 1 15 9 6 16 66 22 98 10
12 -5 10 -11 -14 -30 -46 -40 -48 -61 -6 -96 20 -16 36 -34 36 -40 0 -16 -88
-3 -109 16 -24 22 -31 11 -31 -50 0 -56 10 -73 29 -50 9 11 33 13 104 10 115
-6 137 -11 137 -28 0 -20 29 -41 40 -30 6 6 13 31 16 56 l6 46 -86 42 c-108
53 -112 72 -21 105 53 20 61 26 69 58 11 42 1 76 -16 59 -8 -8 -55 -12 -135
-12 -115 0 -123 1 -123 19 0 26 -18 37 -26 17z"/>
<path d="M987 1113 c-4 -3 -7 -21 -7 -38 0 -26 -9 -40 -47 -72 -75 -62 -100
-76 -127 -69 -38 9 -40 -10 -6 -58 55 -76 118 -108 105 -53 -10 42 9 74 70
119 53 40 65 44 101 40 64 -6 64 12 -2 79 -56 57 -73 67 -87 52z"/>
<path d="M3436 1033 c-31 -25 -55 -51 -53 -57 2 -6 19 -12 38 -14 29 -2 46
-15 101 -75 51 -57 63 -77 58 -92 -9 -23 -4 -35 14 -35 18 0 90 106 81 120 -5
8 -10 8 -21 0 -10 -9 -25 -1 -70 41 -63 60 -88 101 -79 129 11 35 -13 30 -69
-17z"/>
<path d="M2210 553 c-40 -5 -60 -25 -60 -63 0 -19 -8 -30 -26 -39 -39 -17 -15
-38 52 -47 67 -8 114 7 94 31 -7 8 -21 15 -31 15 -28 0 -32 17 -9 40 54 54 78
-16 50 -142 -12 -52 -16 -58 -39 -58 -21 0 -29 8 -43 41 -21 50 -40 47 -51 -7
-11 -48 5 -94 31 -94 37 0 135 47 148 71 40 74 38 176 -7 233 -21 26 -29 28
-109 19z"/>
</g>
</svg>
