<?xml version="1.0" standalone="no"?>
<!DOCTYPE svg PUBLIC "-//W3C//DTD SVG 20010904//EN"
 "http://www.w3.org/TR/2001/REC-SVG-20010904/DTD/svg10.dtd">
<svg version="1.0" xmlns="http://www.w3.org/2000/svg"
 width="439.178596pt" height="439.143094pt" viewBox="0 0 439.178596 439.143094"
 preserveAspectRatio="xMidYMid meet">
<metadata>
Created by potrace 1.16, written by Peter Selinger 2001-2019
</metadata>
<g transform="translate(-5.463926,444.630346) scale(0.100000,-0.100000)"
fill="#000000" stroke="none">
<path d="M2080 4444 c-353 -37 -550 -90 -805 -214 -225 -110 -395 -232 -582
-419 -345 -343 -545 -738 -620 -1221 -25 -162 -24 -519 1 -685 72 -475 274
-873 616 -1215 344 -344 738 -543 1220 -617 160 -24 520 -24 680 0 367 57 683
185 957 391 606 453 916 1087 899 1841 -14 605 -234 1111 -663 1526 -347 335
-732 527 -1195 594 -97 15 -432 27 -508 19z m337 -74 c343 -26 631 -113 902
-273 412 -243 753 -638 914 -1057 93 -240 135 -463 141 -738 11 -462 -101
-864 -340 -1223 -225 -337 -557 -621 -915 -781 -474 -212 -1091 -233 -1599
-56 -559 195 -1064 695 -1270 1258 -87 237 -124 456 -124 740 0 285 30 484
110 720 180 533 643 1029 1169 1251 315 133 651 186 1012 159z"/>
<path d="M2085 4334 c-312 -32 -510 -84 -742 -194 -418 -199 -781 -561 -983
-982 -267 -556 -267 -1263 0 -1817 281 -582 829 -1013 1444 -1136 783 -156
1528 93 2033 680 264 306 412 627 479 1040 25 152 25 485 0 644 -71 464 -260
836 -590 1165 -329 326 -685 507 -1146 581 -92 15 -415 27 -495 19z m456 -49
c353 -47 689 -186 957 -398 103 -81 258 -232 348 -340 239 -284 390 -630 439
-1004 17 -132 20 -429 5 -553 -29 -237 -85 -433 -184 -636 -275 -567 -814
-993 -1411 -1113 -120 -24 -271 -41 -357 -41 -60 1 -62 1 -38 15 14 8 30 14
37 15 6 0 24 5 40 11 l28 11 -23 18 c-21 18 -23 25 -20 121 l3 101 35 12 c55
17 45 40 -20 48 -180 22 -199 22 -221 2 -45 -40 -56 -83 -44 -182 9 -83 13
-94 44 -126 19 -19 43 -37 55 -39 46 -9 -135 -6 -214 3 -419 51 -777 207
-1092 478 -395 339 -635 782 -698 1292 -15 129 -13 455 6 579 66 450 249 816
574 1141 329 331 700 518 1151 584 127 19 466 19 600 1z m-256 -3832 c-4 -27
-8 -49 -8 -50 -1 0 -23 -4 -49 -8 l-47 -7 -6 35 c-12 64 -1 77 62 77 l55 0 -7
-47z m-6 -128 c1 -2 -1 -16 -7 -32 -8 -23 -14 -28 -41 -26 -39 1 -39 1 -47 43
l-7 33 49 -8 c27 -4 51 -8 53 -10z"/>
<path d="M2042 4241 c-34 -27 -34 -41 0 -41 16 0 18 -10 18 -102 0 -99 -1
-103 -27 -124 -24 -19 -26 -24 -13 -39 11 -13 24 -16 54 -12 43 6 73 34 56 51
-13 13 -13 86 0 86 5 0 19 -18 30 -40 28 -55 62 -55 90 -1 32 64 43 62 39 -9
l-4 -63 50 -13 c58 -15 85 -2 48 23 -22 15 -23 22 -23 132 l0 117 33 9 c39 12
34 31 -8 27 -68 -6 -74 -11 -109 -80 -54 -107 -58 -107 -105 -15 -23 43 -53
88 -69 99 l-28 22 -32 -27z"/>
<path d="M2066 3889 c-530 -56 -976 -344 -1250 -809 -135 -228 -204 -485 -211
-785 -7 -294 38 -521 151 -764 149 -320 456 -626 777 -776 329 -153 721 -194
1096 -113 288 61 539 199 765 418 302 293 458 617 497 1035 19 197 -1 421 -55
620 -114 423 -442 813 -851 1015 -281 139 -595 193 -919 159z m525 -57 c316
-66 558 -200 800 -441 325 -326 469 -676 469 -1141 0 -474 -154 -838 -491
-1165 -312 -302 -674 -445 -1120 -445 -363 1 -667 94 -935 286 -337 242 -558
575 -646 977 -32 145 -37 472 -10 633 58 336 200 609 447 857 248 250 532 395
880 452 132 21 476 14 606 -13z"/>
<path d="M1174 3268 c-60 -41 -145 -150 -191 -245 -30 -61 -40 -111 -23 -107
3 1 51 7 108 14 111 13 151 8 243 -32 42 -18 58 -37 59 -71 0 -13 -120 -64
-212 -91 -75 -22 -83 -26 -80 -48 4 -36 47 -94 104 -139 57 -45 151 -93 170
-87 8 3 12 41 12 119 1 104 3 118 28 166 l28 52 36 -15 c67 -28 167 -98 284
-197 63 -54 143 -120 178 -145 40 -30 61 -53 59 -63 -5 -18 -311 -510 -455
-729 l-95 -146 -68 0 c-53 0 -75 -4 -96 -20 -47 -35 -66 -70 -71 -128 -10
-122 29 -187 126 -207 114 -23 211 26 228 116 11 63 -1 131 -30 170 l-27 35
347 528 c191 290 353 536 361 547 11 16 13 -72 13 -567 l0 -586 -24 -6 c-32
-8 -83 -52 -101 -87 -8 -15 -15 -53 -15 -84 0 -100 40 -156 124 -175 95 -21
184 11 218 80 22 42 23 128 4 173 -15 38 -66 84 -102 93 l-24 6 0 586 c0 322
4 582 8 576 5 -5 89 -128 187 -274 98 -146 250 -370 337 -498 l159 -233 -25
-29 c-35 -42 -49 -94 -43 -152 13 -109 68 -151 189 -146 85 3 118 20 152 77
25 43 24 147 -1 199 -25 50 -88 82 -164 82 l-57 0 -183 268 c-101 147 -221
323 -267 392 l-84 125 59 53 c99 91 305 263 357 297 42 29 52 32 77 23 69 -24
78 -65 58 -248 -7 -60 -8 -105 -3 -110 13 -12 117 42 199 103 72 54 132 127
121 146 -4 6 -28 11 -53 11 -120 0 -232 63 -254 143 -10 37 -9 43 10 59 58 46
212 80 291 65 78 -15 85 -14 88 13 9 81 -226 366 -268 324 -5 -5 -16 -45 -25
-88 -26 -127 -52 -186 -103 -234 -56 -52 -86 -53 -119 -3 -21 31 -23 45 -23
157 0 71 -4 125 -10 129 -18 11 -111 -48 -179 -115 -68 -67 -110 -135 -94
-151 5 -5 60 -18 122 -29 63 -11 124 -26 137 -35 27 -17 32 -61 12 -87 -7 -8
-109 -92 -226 -187 l-214 -171 -22 28 c-32 37 -126 182 -126 193 0 5 6 9 14 9
23 0 78 51 92 87 20 47 17 130 -6 181 -27 60 -87 86 -181 80 -114 -9 -159 -59
-159 -181 0 -62 20 -107 60 -139 l33 -26 -60 -94 c-45 -71 -65 -94 -84 -96
-24 -3 -166 99 -431 310 -108 86 -113 104 -40 165 64 54 55 50 176 64 80 9
109 16 114 27 4 11 -20 40 -75 91 -86 81 -172 139 -213 143 -24 3 -25 1 -27
-60 -3 -93 -20 -170 -49 -229 -28 -59 -46 -65 -110 -38 -48 20 -68 72 -84 215
-16 155 -24 163 -106 108z m1130 -342 c40 -17 61 -61 53 -117 -6 -49 -29 -76
-73 -88 -75 -21 -144 27 -144 100 0 95 74 143 164 105z m873 -1451 c17 -20 23
-38 23 -76 0 -42 -5 -55 -29 -80 -25 -24 -37 -29 -81 -29 -40 0 -56 5 -75 24
-51 51 -40 155 19 182 47 22 115 12 143 -21z m-1765 -46 c44 -12 68 -49 68
-104 0 -74 -32 -104 -111 -105 -47 0 -59 4 -80 26 -19 20 -24 36 -24 79 0 72
29 104 100 114 6 0 27 -4 47 -10z m922 -141 c25 -27 28 -36 24 -80 -7 -71 -36
-98 -106 -98 -46 0 -58 4 -83 29 -53 53 -33 160 34 180 51 15 98 4 131 -31z"/>
<path d="M611 3405 c-10 -23 -24 -46 -30 -49 -6 -4 -11 -35 -11 -70 0 -90 12
-97 92 -53 35 19 79 37 98 41 74 12 77 -32 4 -60 -64 -24 -70 -36 -38 -73 33
-39 53 -37 68 9 7 24 18 36 33 38 35 5 44 26 41 94 l-3 63 -41 3 c-24 2 -67
-6 -100 -17 -54 -19 -104 -27 -104 -16 0 2 5 15 11 29 8 18 22 27 50 31 67 12
62 40 -11 61 l-40 12 -19 -43z"/>
<path d="M3594 3266 c-7 -18 17 -64 46 -91 21 -19 23 -19 35 -2 8 12 26 17 57
17 41 0 46 -3 67 -40 16 -29 21 -49 16 -70 -7 -31 -31 -51 -52 -43 -33 12 -26
-55 10 -101 l23 -29 62 99 c67 109 122 220 122 246 0 28 -16 30 -125 8 -115
-22 -200 -26 -210 -10 -3 5 -15 15 -26 20 -15 8 -21 7 -25 -4z m306 -41 c0
-13 -30 -62 -44 -74 -13 -11 -17 -9 -26 14 -14 38 -12 53 8 58 26 7 62 8 62 2z"/>
<path d="M609 1368 c-46 -91 -61 -133 -63 -167 l-1 -46 50 0 c30 0 72 10 104
24 61 26 95 23 140 -10 46 -34 54 -16 21 50 -17 32 -30 65 -30 74 0 8 -6 19
-13 26 -18 14 -37 -5 -37 -35 0 -25 -24 -54 -44 -54 -17 0 -59 91 -54 121 2
19 9 24 33 24 28 0 30 3 28 33 -1 35 -36 82 -60 82 -7 0 -40 -55 -74 -122z
m59 -140 c-3 -23 -48 -41 -48 -20 0 24 14 42 32 42 14 0 19 -6 16 -22z"/>
<path d="M3760 1431 c-11 -22 -20 -42 -20 -45 0 -2 21 -16 46 -31 41 -24 45
-30 39 -53 -4 -15 -8 -28 -10 -30 -1 -1 -22 4 -46 13 -130 48 -127 49 -140
-56 -14 -112 6 -115 44 -6 6 17 9 17 38 2 17 -9 44 -17 60 -17 22 -1 34 -9 48
-34 26 -44 62 -67 95 -58 18 4 38 28 71 85 48 80 50 103 12 94 -16 -4 -34 4
-62 28 -22 18 -61 48 -87 66 -29 19 -48 40 -48 51 0 35 -19 31 -40 -9z m161
-163 c44 -26 47 -45 8 -67 -41 -23 -59 -9 -59 44 0 25 2 45 6 45 3 0 23 -10
45 -22z"/>
</g>
</svg>
