<?xml version="1.0" standalone="no"?>
<!DOCTYPE svg PUBLIC "-//W3C//DTD SVG 20010904//EN"
 "http://www.w3.org/TR/2001/REC-SVG-20010904/DTD/svg10.dtd">
<svg version="1.0" xmlns="http://www.w3.org/2000/svg"
 width="439.702246pt" height="439.468278pt" viewBox="0 0 439.702246 439.468278"
 preserveAspectRatio="xMidYMid meet">
<metadata>
Created by potrace 1.16, written by Peter Selinger 2001-2019
</metadata>
<g transform="translate(-5.140098,445.041918) scale(0.100000,-0.100000)"
fill="#000000" stroke="none">
<path d="M2120 4448 c-3 -3 -45 -8 -95 -11 -488 -33 -958 -253 -1330 -624
-251 -250 -432 -537 -534 -848 -155 -472 -145 -1047 25 -1502 215 -574 703
-1062 1277 -1277 239 -89 470 -129 757 -130 273 -1 448 19 649 75 563 157
1075 579 1346 1110 261 511 306 1165 119 1729 -108 325 -290 608 -555 865
-343 332 -723 520 -1189 590 -102 15 -460 32 -470 23z m296 -78 c543 -37 1015
-262 1390 -664 286 -306 457 -639 533 -1036 28 -148 44 -373 36 -515 -31 -575
-223 -1013 -620 -1411 -346 -347 -733 -540 -1215 -605 -139 -19 -478 -16 -620
5 -479 73 -874 281 -1218 641 -310 324 -490 691 -558 1135 -21 141 -24 480 -5
620 66 491 278 906 637 1249 367 350 793 542 1289 580 146 12 194 12 351 1z"/>
<path d="M2090 4334 c-19 -2 -78 -9 -130 -15 -674 -77 -1294 -528 -1601 -1164
-192 -397 -247 -884 -154 -1351 78 -386 265 -731 555 -1024 393 -397 846 -595
1410 -617 656 -25 1242 228 1667 722 266 309 418 639 480 1045 23 154 23 490
0 644 -69 452 -264 835 -593 1161 -325 323 -703 514 -1149 580 -102 16 -404
27 -485 19z m453 -49 c360 -47 692 -189 977 -415 111 -88 310 -293 387 -397
209 -282 334 -590 379 -937 20 -154 15 -515 -10 -651 -38 -210 -83 -349 -171
-531 -136 -285 -350 -546 -611 -746 -361 -276 -763 -408 -1244 -408 -522 0
-955 157 -1338 484 -401 344 -645 796 -703 1305 -17 156 -7 517 20 656 78 417
260 756 571 1065 330 329 721 522 1175 579 118 15 443 12 568 -4z"/>
<path d="M2075 4242 c-41 -8 -39 -22 7 -70 25 -26 67 -82 93 -124 26 -43 52
-78 59 -78 19 0 60 48 100 116 33 57 76 103 122 130 34 21 3 35 -67 32 l-64
-3 -7 -42 c-9 -58 -44 -133 -60 -133 -8 0 -26 25 -42 56 -27 53 -27 56 -10 75
10 12 14 23 8 28 -10 10 -108 19 -139 13z"/>
<path d="M2066 3889 c-487 -51 -895 -293 -1184 -703 -368 -522 -376 -1311 -18
-1845 244 -364 601 -612 1007 -699 469 -101 933 -16 1312 240 121 82 351 311
433 433 128 188 216 403 256 625 30 163 30 457 0 620 -62 340 -214 622 -474
877 -350 343 -828 505 -1332 452z m443 -45 c353 -51 643 -204 906 -475 207
-215 335 -442 400 -710 35 -145 45 -240 45 -414 1 -363 -96 -668 -298 -945
-79 -109 -291 -315 -397 -387 -259 -175 -518 -258 -847 -270 -195 -7 -329 6
-493 47 -573 143 -1027 618 -1156 1206 -33 153 -38 476 -11 640 57 334 202
612 444 854 253 253 540 401 887 455 121 19 390 18 520 -1z"/>
<path d="M1837 3495 c-141 -17 -239 -39 -361 -82 -130 -45 -243 -103 -283
-145 -45 -47 -76 -121 -67 -161 8 -40 48 -120 86 -173 l29 -40 -41 -61 c-47
-71 -51 -108 -17 -173 42 -85 138 -115 226 -71 50 26 55 34 76 119 9 39 19 72
22 72 24 0 133 -37 133 -45 0 -5 -11 -30 -25 -54 -28 -47 -30 -68 -15 -123 15
-52 55 -96 100 -109 57 -17 170 19 223 72 41 41 43 53 22 124 -6 19 -2 20 69
17 42 -2 76 -6 76 -8 0 -3 -9 -22 -20 -44 -25 -48 -25 -83 -1 -135 27 -59 53
-78 114 -83 61 -5 113 17 161 66 26 28 28 35 22 83 -4 29 -14 61 -23 71 -9 10
-14 20 -12 22 2 2 41 7 87 10 94 8 105 0 77 -54 -9 -17 -13 -40 -10 -50 4 -11
38 -48 76 -82 l69 -62 0 -131 c0 -109 -19 -546 -24 -552 -1 -1 -261 -7 -579
-13 -428 -8 -583 -8 -598 1 -18 9 -21 18 -16 55 7 64 61 168 114 218 l45 44
-26 17 c-22 15 -48 17 -159 16 -152 -3 -219 -11 -224 -28 -3 -7 13 -23 34 -36
82 -52 122 -122 138 -239 l6 -48 -75 0 -76 0 -81 103 c-45 56 -85 106 -89 111
-5 4 -16 -7 -26 -25 -15 -28 -19 -64 -22 -209 -4 -182 3 -243 30 -248 10 -2
26 14 42 42 64 109 119 145 224 146 l62 0 0 -52 c-1 -86 -48 -166 -119 -203
-24 -12 -31 -22 -29 -38 3 -22 5 -22 188 -22 205 0 218 5 145 53 -52 35 -93
115 -101 200 l-7 62 387 1 c212 1 397 1 411 1 14 0 107 0 208 -1 l182 -1 19
-82 c22 -98 36 -129 70 -152 24 -15 125 -46 153 -46 29 0 84 66 139 168 l59
109 197 5 196 5 52 33 c119 77 138 184 48 278 -30 30 -37 32 -97 32 -81 0
-186 -22 -238 -49 -41 -21 -119 -92 -188 -172 -35 -41 -46 -47 -93 -54 -29 -4
-94 -4 -143 0 l-90 7 6 112 c3 61 10 217 15 346 9 228 10 235 32 250 50 33 85
71 103 110 l19 41 -28 56 c-15 30 -26 57 -24 58 2 2 39 14 83 26 44 12 148 51
231 86 82 34 157 63 166 63 23 0 174 -66 209 -91 37 -26 59 -68 59 -112 0 -28
-7 -39 -37 -60 -53 -36 -86 -47 -150 -48 -87 -2 -133 43 -133 132 0 39 4 47
25 57 37 17 49 15 73 -11 28 -30 28 -35 -4 -68 -49 -51 3 -83 60 -38 21 16 26
29 26 64 0 36 -5 48 -30 69 -34 28 -100 41 -145 28 -37 -10 -54 -52 -54 -139
-1 -91 9 -109 71 -128 75 -24 180 -31 220 -15 45 18 122 94 144 141 14 33 15
45 5 79 -17 56 -47 85 -110 105 -55 18 -141 85 -141 110 0 8 29 16 81 23 92
12 119 29 145 97 19 50 11 71 -39 109 -79 60 -169 81 -226 52 -50 -26 -111
-172 -111 -267 0 -28 -6 -33 -92 -74 -144 -68 -319 -118 -487 -140 l-54 -7 6
98 c4 55 7 122 7 150 l0 51 58 6 c109 12 173 42 216 100 18 24 21 43 21 120 0
82 -3 97 -27 138 -47 80 -81 93 -302 114 -193 18 -577 18 -729 0z m690 -79 c2
-1 5 -278 3 -313 0 -10 -35 -13 -140 -13 -163 0 -162 -1 -104 93 20 32 33 64
30 72 -4 12 -29 15 -120 15 -65 0 -117 -4 -121 -10 -3 -5 14 -39 39 -74 26
-35 46 -69 46 -75 0 -6 -18 -11 -44 -11 -43 0 -47 3 -91 60 -84 110 -108 103
-130 -36 -19 -112 -19 -175 -1 -199 13 -19 17 -17 68 31 43 41 65 54 107 63
58 12 95 14 104 5 8 -9 -29 -80 -65 -127 -47 -59 -36 -67 86 -67 58 0 107 4
111 10 3 5 -8 44 -25 87 -16 43 -30 82 -30 86 0 10 265 6 274 -4 4 -3 3 -70 0
-147 l-7 -141 -46 -8 c-25 -4 -113 -7 -196 -6 -330 4 -651 73 -875 189 -161
83 -225 163 -201 252 15 52 28 65 113 108 193 97 515 159 853 163 76 1 142 4
145 7 4 5 211 -5 217 -10z m222 -19 c56 -28 81 -73 81 -147 0 -99 -53 -149
-179 -165 l-54 -7 6 122 c4 68 7 147 7 176 l0 54 48 -6 c26 -3 67 -16 91 -27z
m745 -278 c23 -18 27 -27 24 -68 -3 -45 -4 -46 -40 -49 -37 -3 -37 -3 -40 40
-3 38 -6 43 -28 43 -20 0 -34 -14 -67 -62 -45 -68 -53 -66 -53 14 0 36 6 50
29 74 26 26 37 29 89 29 45 0 66 -5 86 -21z m-2135 -304 c41 -35 68 -107 53
-140 -23 -50 -84 -57 -143 -18 -41 27 -41 28 -37 79 8 100 62 133 127 79z
m474 -142 c21 -20 34 -67 29 -104 -4 -28 -26 -42 -87 -54 -36 -7 -65 18 -90
79 -15 36 -15 39 2 58 41 47 106 56 146 21z m917 -63 c12 -12 20 -33 20 -54 0
-41 -31 -70 -93 -87 -39 -10 -42 -10 -64 18 -23 28 -39 81 -31 104 6 17 65 37
111 38 24 1 44 -6 57 -19z m-489 -22 c46 -19 50 -23 44 -47 -21 -88 -99 -115
-168 -59 -26 22 -27 25 -16 63 6 22 16 46 21 53 16 18 63 15 119 -10z m1156
-669 c41 -15 73 -49 73 -76 0 -38 -38 -102 -73 -123 -44 -27 -95 -32 -230 -23
l-118 8 26 51 c30 59 80 103 167 144 67 32 109 37 155 19z m-495 -346 c-28
-74 -69 -132 -105 -149 -27 -13 -38 -13 -72 -2 -46 15 -52 32 -47 134 l4 64
119 0 119 0 -18 -47z"/>
<path d="M802 3633 c-37 -18 -82 -87 -85 -129 -2 -24 4 -31 38 -47 52 -24 92
-62 116 -109 11 -21 23 -38 27 -38 5 0 23 16 42 35 28 29 31 37 20 50 -7 8
-18 15 -24 15 -7 0 -23 12 -37 26 l-24 27 55 -8 c100 -14 103 -14 124 28 14
29 16 41 7 50 -9 9 -13 6 -17 -11 -7 -25 -30 -27 -84 -8 -34 13 -38 21 -25 61
4 13 -1 30 -15 48 -25 32 -67 35 -118 10z m56 -82 c5 -46 -9 -56 -41 -31 -30
23 -34 39 -15 58 24 24 53 10 56 -27z"/>
<path d="M3606 3559 c-54 -16 -113 -30 -130 -31 -48 -2 -49 -6 -15 -53 l32
-44 34 29 c56 50 72 41 109 -62 13 -37 12 -38 -10 -38 -33 0 -36 -8 -18 -43 8
-18 18 -38 22 -46 11 -25 28 -23 45 3 25 38 108 285 101 301 -8 22 -58 17
-170 -16z"/>
<path d="M3966 2100 c-9 -29 -35 -165 -41 -226 -7 -57 -6 -62 16 -78 28 -19
78 -21 85 -3 3 8 -6 44 -21 82 -34 92 -33 115 4 115 16 0 58 -9 93 -20 54 -17
65 -24 75 -51 21 -54 38 -31 38 51 l0 73 -40 2 c-80 4 -170 28 -187 49 -14 17
-18 18 -22 6z"/>
<path d="M336 2050 c-76 -67 -79 -170 -6 -242 35 -35 42 -38 97 -38 56 0 61 2
100 43 101 104 95 184 -18 241 -74 36 -128 35 -173 -4z m165 -61 c48 -16 57
-29 52 -72 -5 -35 -8 -38 -57 -52 -28 -7 -72 -17 -98 -21 -46 -6 -48 -5 -59
22 -19 51 -14 85 15 111 31 26 90 31 147 12z"/>
<path d="M1327 814 c-4 -4 -7 -22 -7 -39 0 -18 -8 -39 -18 -49 -18 -15 -19
-15 -31 10 -10 22 -14 24 -27 13 -41 -34 -37 -79 7 -79 25 0 24 -25 -1 -50
-24 -24 -33 -25 -66 -3 -21 13 -25 23 -23 54 4 48 -4 56 -36 35 -42 -27 -34
-67 22 -115 26 -22 69 -52 94 -66 53 -28 58 -26 79 40 7 22 25 68 40 101 23
52 33 63 59 69 59 13 48 47 -21 65 -21 6 -45 13 -52 16 -6 2 -15 1 -19 -2z"/>
<path d="M3083 739 c-62 -39 -113 -75 -113 -80 0 -19 29 -67 44 -72 19 -7 20
-5 35 60 11 46 16 53 52 67 22 9 41 16 43 16 2 0 9 -14 15 -32 13 -35 -3 -56
-27 -36 -27 23 -33 -7 -9 -53 28 -52 46 -56 61 -11 l11 33 30 -31 30 -32 -35
-29 c-19 -16 -41 -27 -50 -24 -75 22 -90 14 -71 -38 18 -46 65 -32 191 58 66
46 81 70 45 70 -24 0 -67 61 -100 140 -13 33 -27 61 -32 62 -4 2 -59 -29 -120
-68z"/>
</g>
</svg>
