<?xml version="1.0" standalone="no"?>
<!DOCTYPE svg PUBLIC "-//W3C//DTD SVG 20010904//EN"
 "http://www.w3.org/TR/2001/REC-SVG-20010904/DTD/svg10.dtd">
<svg version="1.0" xmlns="http://www.w3.org/2000/svg"
 width="438.936309pt" height="439.214258pt" viewBox="0 0 438.936309 439.214258"
 preserveAspectRatio="xMidYMid meet">
<metadata>
Created by potrace 1.16, written by Peter Selinger 2001-2019
</metadata>
<g transform="translate(-5.474198,444.692685) scale(0.100000,-0.100000)"
fill="#000000" stroke="none">
<path d="M2080 4444 c-19 -2 -78 -9 -130 -14 -463 -51 -908 -269 -1256 -618
-348 -348 -545 -736 -621 -1222 -25 -161 -24 -518 1 -685 72 -473 274 -873
616 -1215 343 -343 741 -544 1215 -616 167 -25 524 -26 685 -1 489 76 882 276
1232 631 278 280 459 596 553 961 52 204 69 340 69 575 0 293 -28 484 -110
730 -108 326 -292 611 -558 867 -345 332 -718 517 -1186 588 -101 15 -437 28
-510 19z m490 -89 c407 -61 735 -208 1045 -468 365 -305 616 -714 710 -1152
38 -179 49 -288 48 -495 0 -328 -53 -589 -175 -866 -220 -500 -697 -945 -1208
-1128 -444 -159 -990 -164 -1435 -15 -364 123 -696 356 -967 679 -132 158
-278 416 -347 614 -145 415 -158 911 -34 1341 95 334 269 622 538 891 378 379
780 563 1345 617 82 8 383 -3 480 -18z"/>
<path d="M2035 4329 c-637 -60 -1198 -406 -1559 -961 -281 -432 -381 -1012
-271 -1564 158 -787 812 -1442 1597 -1598 784 -157 1530 92 2035 679 264 306
419 643 480 1041 23 156 23 502 -1 649 -76 465 -257 823 -583 1152 -324 325
-711 522 -1158 588 -128 19 -411 27 -540 14z m580 -55 c347 -58 654 -199 930
-425 75 -61 255 -243 322 -324 169 -207 300 -467 368 -730 49 -191 65 -325 65
-548 -1 -356 -57 -614 -199 -903 -274 -561 -813 -983 -1406 -1103 -292 -59
-659 -55 -935 10 -218 51 -464 157 -647 279 -306 204 -593 536 -734 847 -127
280 -179 533 -179 877 -1 256 20 404 85 621 154 507 547 969 1034 1216 239
120 500 191 765 206 l108 6 -7 -34 c-22 -103 -74 -187 -149 -245 -26 -20 -45
-41 -43 -47 2 -8 28 -12 68 -12 l64 0 -3 30 c-5 59 4 73 52 80 57 9 80 1 95
-31 10 -22 9 -30 -5 -45 -9 -10 -13 -23 -9 -28 8 -13 132 -15 139 -2 3 5 -11
30 -33 56 -27 33 -49 78 -75 153 -20 59 -36 110 -36 114 0 19 208 9 365 -18z
m-382 -106 l16 -48 -36 0 c-32 0 -35 2 -29 25 9 36 26 78 30 74 2 -2 10 -25
19 -51z"/>
<path d="M2115 3894 c-304 -35 -498 -93 -692 -208 -431 -254 -720 -668 -799
-1141 -69 -420 16 -859 230 -1190 197 -303 502 -547 822 -658 426 -148 905
-124 1301 64 153 73 286 171 439 323 329 329 475 681 478 1151 2 292 -45 509
-158 740 -81 164 -163 280 -296 418 -286 297 -609 455 -1019 496 -97 10 -239
12 -306 5z m425 -53 c317 -54 587 -192 829 -426 339 -328 493 -697 492 -1176
-2 -468 -159 -833 -497 -1159 -295 -284 -632 -424 -1056 -437 -250 -8 -456 23
-660 102 -468 180 -855 620 -967 1102 -61 261 -57 597 10 843 70 258 209 496
405 695 280 284 620 442 1015 473 109 8 334 0 429 -17z"/>
<path d="M2081 3739 c-64 -12 -117 -52 -160 -119 l-38 -58 -72 64 c-72 64 -84
69 -156 64 -43 -3 -133 -38 -181 -71 -53 -36 -100 -100 -121 -164 -15 -44 -18
-118 -21 -592 l-3 -543 -22 0 c-12 0 -109 -3 -214 -7 -174 -5 -193 -4 -193 10
0 9 13 23 29 32 59 30 120 139 121 213 0 104 -83 168 -182 142 -83 -23 -123
-90 -105 -178 11 -58 42 -79 89 -59 50 22 80 60 82 104 1 50 -23 51 -47 2 -13
-28 -22 -36 -37 -32 -28 8 -27 57 2 77 31 22 82 30 107 17 11 -7 23 -26 26
-45 11 -56 -24 -118 -128 -226 -114 -118 -147 -178 -147 -264 0 -89 22 -126
90 -153 106 -43 177 -24 213 55 11 26 21 69 21 95 1 41 -3 52 -27 73 -34 29
-85 32 -117 6 -28 -23 -38 -93 -16 -111 19 -16 36 -6 36 22 0 32 15 50 36 45
15 -3 19 -12 18 -48 0 -26 -8 -57 -18 -72 -16 -24 -25 -28 -66 -28 -47 0 -48
0 -69 49 -26 60 -27 114 -3 161 15 31 23 36 67 42 28 3 141 7 252 7 l202 1 3
-527 c4 -463 6 -535 21 -588 50 -174 150 -284 257 -285 42 0 112 21 167 49 39
20 103 83 103 101 0 6 8 10 19 10 12 0 24 -12 32 -32 19 -46 75 -106 121 -129
142 -72 336 -27 455 106 l57 63 41 -33 c63 -52 141 -85 203 -85 102 0 248 86
295 174 22 41 22 46 25 609 l3 567 220 0 220 0 15 -35 c31 -76 4 -153 -68
-188 -31 -15 -44 -16 -77 -7 -50 13 -71 34 -71 69 0 35 35 81 61 81 15 0 18
-5 14 -23 -4 -15 -1 -28 9 -36 26 -21 46 4 46 56 0 52 -14 61 -69 45 -93 -28
-139 -153 -76 -209 52 -46 145 -40 235 15 88 54 113 136 69 232 -19 42 -86
135 -160 222 -24 28 -33 50 -37 88 -4 48 -3 52 36 90 22 22 49 40 60 40 49 0
80 -80 48 -122 -21 -28 -36 -21 -36 16 0 39 -14 53 -35 36 -19 -16 -20 -100
-2 -125 22 -29 78 -13 120 34 19 21 38 48 42 60 9 28 -10 83 -38 109 -27 26
-88 52 -120 52 -70 0 -164 -153 -138 -223 5 -13 37 -63 70 -111 34 -48 61 -89
61 -91 0 -3 -90 -5 -200 -5 l-200 0 0 545 c0 364 -4 562 -11 597 -31 145 -120
219 -282 234 -75 7 -80 6 -150 -29 -39 -20 -92 -53 -116 -73 -41 -35 -44 -36
-54 -18 -22 40 -121 134 -161 154 -34 16 -61 20 -137 19 -52 -1 -114 -5 -138
-10z m255 -84 c43 -27 55 -42 101 -134 77 -153 77 -153 118 -68 56 120 141
181 250 181 83 -1 127 -18 174 -69 74 -81 74 -79 79 -697 l3 -548 -371 0 -372
0 4 99 c3 98 4 101 37 135 48 50 38 71 -32 62 -28 -3 -101 -6 -160 -6 -132 0
-142 -10 -73 -73 l46 -43 0 -87 0 -87 -365 0 -365 0 -1 503 c-1 276 0 516 1
532 2 44 52 145 91 184 65 65 152 81 234 41 51 -24 75 -54 111 -135 30 -69 38
-65 79 32 67 162 143 216 291 210 58 -2 80 -8 120 -32z m-196 -1533 l0 -128
-45 -44 c-59 -58 -58 -83 5 -90 43 -5 280 7 308 16 9 3 -4 24 -37 61 l-51 57
0 128 0 128 370 0 371 0 -3 -552 -3 -553 -27 -46 c-33 -56 -115 -114 -183
-130 -97 -22 -185 27 -247 138 -25 45 -34 53 -59 53 -23 0 -32 -6 -40 -27 -47
-115 -82 -174 -122 -202 -80 -54 -184 -67 -262 -30 -60 28 -111 87 -152 176
-18 40 -35 73 -37 73 -20 0 -41 -20 -61 -60 -45 -88 -115 -139 -212 -155 -38
-6 -48 -3 -88 26 -50 36 -105 111 -132 179 -16 41 -18 96 -21 578 l-3 532 366
0 365 0 0 -128z"/>
<path d="M2144 3586 c-104 -46 -75 -171 62 -267 45 -31 56 -52 43 -87 -13 -34
-48 -46 -97 -32 -32 8 -43 17 -48 36 -9 34 7 49 36 34 45 -24 67 13 30 50 -22
22 -69 27 -88 8 -17 -17 -15 -93 3 -128 21 -40 72 -49 140 -26 68 24 95 51 95
94 0 29 -8 42 -46 76 -125 111 -135 124 -132 169 3 41 4 42 40 45 29 3 43 -2
63 -22 24 -24 35 -76 16 -76 -6 0 -9 12 -8 27 2 22 -3 29 -20 31 -45 6 -56
-85 -13 -108 48 -26 94 -1 106 57 9 45 -19 91 -69 114 -50 22 -71 23 -113 5z"/>
<path d="M1578 3530 c-20 -4 -44 -12 -52 -19 -36 -30 -42 -120 -12 -166 9 -14
43 -42 74 -62 55 -35 72 -50 72 -65 0 -9 -40 -47 -62 -59 -25 -14 -62 25 -55
57 6 32 -9 40 -34 18 -25 -23 -24 -56 4 -81 70 -65 138 -57 186 21 37 60 32
70 -97 174 -29 23 -43 43 -48 68 -8 41 0 51 43 60 26 5 37 1 57 -19 35 -35 33
-48 -6 -45 -31 3 -33 1 -33 -31 0 -29 5 -36 28 -44 43 -14 75 -1 94 37 18 39
12 88 -16 125 -21 27 -84 40 -143 31z"/>
<path d="M2733 3505 c-34 -15 -63 -59 -63 -98 0 -33 34 -73 79 -97 21 -10 52
-35 70 -55 38 -44 29 -65 -28 -65 -43 0 -56 8 -65 37 -9 29 11 39 34 18 18
-16 20 -17 26 -1 9 24 -24 56 -57 56 -38 0 -51 -26 -38 -76 15 -57 40 -74 108
-74 103 0 141 43 106 120 -16 36 -30 47 -96 80 -42 22 -79 46 -82 55 -4 9 4
27 21 45 47 52 125 49 134 -5 2 -14 -3 -21 -19 -23 -15 -2 -23 2 -23 12 0 20
-19 31 -33 17 -15 -15 6 -57 33 -66 36 -12 90 4 99 28 10 27 -4 78 -26 95 -23
16 -140 15 -180 -3z"/>
<path d="M2706 1429 c-50 -59 -24 -108 99 -189 28 -18 56 -40 63 -48 30 -39 1
-82 -55 -82 -35 0 -36 1 -19 19 35 39 0 111 -41 85 -26 -16 -46 -62 -39 -90 8
-32 61 -64 106 -64 21 0 50 10 73 25 30 21 37 32 37 58 0 53 -33 95 -100 126
-80 38 -90 48 -90 86 0 35 12 49 49 58 18 4 31 -2 52 -23 30 -29 37 -50 19
-50 -6 0 -22 12 -35 26 -27 29 -45 25 -45 -11 0 -30 33 -53 79 -57 47 -4 60
19 41 74 -12 35 -24 47 -60 66 -63 32 -102 29 -134 -9z"/>
<path d="M2114 1417 c-25 -22 -29 -32 -28 -76 1 -63 18 -83 102 -123 65 -31
102 -77 89 -112 -7 -16 -82 -41 -97 -31 -16 10 -12 37 8 51 16 12 15 15 -9 39
-23 23 -30 25 -48 15 -33 -17 -44 -55 -27 -95 18 -41 42 -55 112 -62 62 -7 93
8 124 60 41 67 16 107 -120 190 -47 29 -86 60 -88 69 -7 35 107 65 136 36 18
-18 15 -26 -10 -30 -18 -2 -22 -9 -20 -28 7 -60 63 -64 106 -7 19 26 19 30 6
55 -20 36 -73 61 -146 68 -55 6 -63 4 -90 -19z"/>
<path d="M1534 1416 c-35 -16 -44 -32 -44 -85 0 -50 23 -79 85 -107 88 -38
115 -103 51 -124 -43 -14 -86 1 -86 31 0 16 4 19 18 14 35 -14 47 -11 47 15 0
21 -6 26 -43 34 -53 11 -63 3 -69 -58 -5 -45 -5 -46 30 -61 52 -22 125 -19
166 6 32 19 33 22 29 70 -6 60 -35 95 -92 110 -55 15 -66 26 -66 65 0 22 7 38
21 48 29 20 42 13 67 -39 25 -51 45 -56 86 -24 31 24 34 57 7 90 -17 21 -29
24 -98 27 -51 1 -89 -3 -109 -12z"/>
<path d="M3934 2457 c-3 -8 -4 -32 -2 -53 l3 -39 55 3 55 4 -39 -41 -40 -41
34 -35 34 -35 -49 2 -50 3 -3 -39 c-4 -48 10 -66 36 -43 14 13 38 17 99 17 76
0 82 -2 98 -26 23 -35 37 -19 33 36 -3 38 -7 45 -31 51 -31 8 -117 60 -117 71
0 4 22 19 49 33 54 27 88 66 91 105 4 41 1 44 -20 25 -28 -25 -210 -36 -210
-12 0 22 -19 32 -26 14z"/>
<path d="M247 2403 c-2 -5 -7 -24 -11 -44 -9 -49 8 -61 91 -65 37 -2 69 -7 71
-12 1 -5 -22 -30 -53 -56 -66 -57 -71 -66 -80 -133 -7 -57 8 -80 26 -40 13 29
43 37 134 37 l63 0 9 -36 c4 -19 13 -35 18 -35 14 1 18 91 6 124 -10 25 -11
26 -38 12 -34 -18 -83 -20 -83 -2 0 6 20 24 43 39 58 37 77 60 80 94 l2 29
-85 8 c-88 9 -141 31 -160 68 -11 20 -26 25 -33 12z"/>
<path d="M2151 513 c-48 -47 -65 -101 -50 -158 19 -69 36 -91 81 -108 84 -31
92 -30 141 22 55 59 77 100 77 143 0 48 -24 76 -94 109 -82 39 -106 37 -155
-8z m116 -24 c39 -14 43 -24 43 -106 0 -83 -9 -98 -72 -108 -54 -9 -68 8 -68
86 0 65 13 108 37 127 20 15 24 15 60 1z"/>
</g>
</svg>
