<?xml version="1.0" standalone="no"?>
<!DOCTYPE svg PUBLIC "-//W3C//DTD SVG 20010904//EN"
 "http://www.w3.org/TR/2001/REC-SVG-20010904/DTD/svg10.dtd">
<svg version="1.0" xmlns="http://www.w3.org/2000/svg"
 width="438.923751pt" height="439.500919pt" viewBox="0 0 438.923751 439.500919"
 preserveAspectRatio="xMidYMid meet">
<metadata>
Created by potrace 1.16, written by Peter Selinger 2001-2019
</metadata>
<g transform="translate(-5.498363,444.640281) scale(0.100000,-0.100000)"
fill="#000000" stroke="none">
<path d="M2075 4444 c-553 -46 -1005 -254 -1386 -637 -344 -346 -546 -744
-616 -1217 -24 -165 -24 -523 1 -685 72 -475 275 -875 616 -1215 409 -409 894
-617 1485 -637 636 -22 1196 197 1637 641 344 346 544 743 614 1221 22 146 25
483 6 625 -69 518 -281 937 -658 1299 -343 330 -718 516 -1184 586 -103 15
-417 27 -515 19z m341 -74 c531 -40 958 -235 1335 -610 346 -344 543 -734 603
-1195 57 -427 4 -828 -158 -1194 -187 -425 -571 -823 -1001 -1036 -297 -147
-572 -208 -940 -208 -363 -1 -628 55 -920 192 -422 199 -801 575 -1005 996
-147 302 -205 575 -204 950 1 304 43 531 145 788 172 437 544 850 969 1080
345 186 755 268 1176 237z"/>
<path d="M2090 4334 c-152 -16 -238 -28 -315 -45 -601 -130 -1142 -563 -1415
-1131 -227 -473 -263 -1070 -95 -1584 194 -593 716 -1115 1309 -1309 444 -145
987 -137 1416 22 488 181 924 581 1150 1056 91 192 142 362 177 587 21 139 24
470 5 605 -67 478 -260 864 -599 1201 -318 316 -675 500 -1118 575 -113 19
-421 33 -515 23z m460 -49 c353 -50 673 -184 950 -399 99 -76 284 -260 370
-367 226 -282 368 -614 415 -974 17 -135 20 -428 4 -560 -53 -456 -246 -851
-579 -1186 -335 -337 -750 -538 -1212 -588 -227 -25 -533 -8 -743 41 -458 106
-878 389 -1176 790 -197 266 -319 570 -365 908 -17 133 -20 453 -4 575 61 464
250 845 585 1180 334 334 723 526 1180 584 118 14 459 12 575 -4z"/>
<path d="M2085 4271 c-3 -5 3 -16 14 -23 18 -13 19 -23 14 -131 -4 -83 -10
-117 -18 -117 -19 0 -38 -27 -25 -35 36 -22 222 -15 256 10 24 17 23 84 0 121
-16 23 -16 27 -2 43 19 21 21 80 4 104 -21 28 -228 52 -243 28z m188 -70 c21
-21 -6 -46 -52 -49 l-41 -3 0 39 0 39 41 -7 c22 -4 46 -13 52 -19z m-9 -123
c14 -6 29 -20 32 -31 9 -28 -20 -47 -72 -47 -39 0 -42 2 -47 33 -2 17 -2 38 0
45 6 15 54 16 87 0z"/>
<path d="M2115 3894 c-16 -2 -70 -9 -120 -15 -341 -42 -661 -204 -920 -464
-244 -245 -393 -533 -451 -870 -19 -109 -26 -380 -13 -490 39 -340 156 -614
373 -873 332 -395 810 -602 1336 -579 463 21 809 178 1132 516 277 289 421
629 444 1048 7 126 -7 307 -32 433 -42 210 -151 456 -274 620 -267 355 -626
582 -1030 651 -108 18 -378 33 -445 23z m476 -62 c316 -66 559 -200 800 -441
315 -316 452 -633 466 -1078 8 -270 -25 -479 -111 -688 -169 -409 -544 -761
-961 -902 -187 -63 -292 -78 -540 -78 -191 0 -235 3 -330 23 -322 68 -578 206
-810 437 -224 224 -358 464 -432 775 -21 89 -26 137 -30 320 -5 187 -3 230 15
336 58 335 200 608 443 853 250 251 510 387 864 452 138 26 483 20 626 -9z"/>
<path d="M2042 3494 c-62 -16 -106 -38 -145 -70 -37 -31 -51 -30 -128 5 -87
39 -165 54 -218 42 -81 -18 -155 -90 -202 -196 -45 -102 -49 -161 -49 -777 l0
-580 -182 4 c-182 3 -184 3 -250 35 -76 36 -100 69 -100 139 0 97 23 125 122
155 37 11 42 10 79 -16 57 -39 66 -76 35 -137 -12 -22 -22 -28 -48 -28 -39 0
-46 12 -46 75 0 84 -38 61 -47 -28 -5 -47 -2 -58 16 -76 31 -31 86 -28 143 8
39 25 46 35 50 67 8 67 -9 137 -38 160 -34 28 -89 44 -148 44 -39 0 -52 -6
-86 -36 -46 -42 -80 -122 -80 -190 0 -115 80 -197 228 -235 l52 -13 0 -193 c0
-200 -7 -241 -47 -285 -15 -17 -15 -19 1 -37 9 -10 45 -32 79 -47 l62 -29 222
0 c241 0 277 8 213 42 -92 50 -143 128 -156 237 l-7 56 242 0 242 0 -7 -47
c-17 -120 -57 -194 -124 -232 -42 -24 -49 -41 -25 -61 23 -19 79 -16 343 16
52 6 67 30 33 52 -50 34 -150 199 -151 250 l0 22 330 0 330 0 0 -43 c0 -78
-66 -176 -160 -239 -21 -13 -23 -18 -12 -30 10 -10 55 -12 205 -11 109 2 195
7 201 13 6 6 -11 29 -52 67 -65 62 -96 117 -107 196 l-7 47 256 0 256 0 0 -37
c0 -86 -74 -184 -169 -226 -64 -27 -74 -36 -60 -53 9 -11 66 -14 284 -14 l273
0 35 53 36 52 -16 55 c-12 41 -17 100 -17 232 -1 97 2 179 5 183 4 3 35 10 69
15 34 5 87 21 117 36 77 37 95 79 101 232 4 108 4 114 -19 139 -56 60 -202 91
-269 56 -43 -22 -70 -74 -75 -146 -5 -70 8 -117 41 -148 23 -21 35 -24 101
-23 70 0 78 2 99 28 31 36 30 77 -2 116 -32 38 -80 64 -89 49 -4 -5 6 -35 21
-65 24 -47 26 -57 13 -65 -21 -13 -55 -11 -94 5 -38 16 -42 30 -25 101 13 58
58 95 116 95 25 0 56 -7 70 -17 25 -16 64 -80 64 -106 0 -41 -33 -117 -66
-150 -57 -57 -102 -67 -297 -67 l-170 0 8 423 c14 769 13 801 -13 892 -31 106
-43 122 -115 155 -123 55 -230 62 -340 20 -67 -26 -78 -25 -136 5 -149 75
-461 117 -599 79z m359 -88 c63 -33 122 -87 143 -131 8 -17 20 -65 27 -106 6
-41 13 -80 15 -86 8 -28 37 4 74 81 48 100 87 148 143 175 77 37 174 23 283
-42 89 -52 84 -9 84 -737 l0 -640 -901 0 -902 0 6 598 c6 614 11 685 49 757
34 63 110 108 203 120 45 6 56 3 110 -27 l60 -34 40 -122 c57 -173 70 -180
105 -56 41 149 70 212 106 233 63 37 124 51 215 48 70 -2 95 -8 140 -31z
m-1106 -1651 l0 -90 -107 -3 -108 -3 0 96 0 96 108 -3 107 -3 0 -90z m550 0
l0 -90 -237 -3 -238 -2 0 95 0 95 238 -2 237 -3 0 -90z m735 0 l0 -95 -330 0
-330 0 0 95 0 95 330 0 330 0 0 -95z m585 0 l0 -90 -257 -3 -258 -2 0 95 0 95
258 -2 257 -3 0 -90z m295 0 l0 -95 -110 0 -110 0 0 95 0 95 110 0 110 0 0
-95z m-2164 -222 c-11 -97 -35 -164 -71 -200 -43 -43 -66 -42 -98 5 -35 50
-45 81 -53 156 -10 98 -12 96 117 96 l111 0 -6 -57z m2144 7 c0 -92 -64 -210
-114 -210 -38 0 -86 124 -86 221 l0 39 100 0 100 0 0 -50z"/>
<path d="M2846 3292 c-3 -5 10 -42 29 -81 19 -40 35 -77 35 -82 0 -18 -48 -9
-85 17 -21 14 -44 23 -51 20 -27 -10 -38 -53 -28 -113 11 -70 30 -85 69 -55
15 12 41 22 57 22 28 0 30 -2 23 -27 -3 -16 -18 -43 -32 -61 -13 -18 -23 -39
-20 -46 9 -22 86 -36 140 -26 79 15 82 22 36 74 -37 43 -38 89 -2 94 17 3 28
-6 44 -32 22 -37 37 -44 56 -25 13 13 6 177 -7 192 -4 5 -23 -5 -43 -22 -30
-27 -39 -30 -61 -21 -32 12 -32 29 -1 104 13 33 22 63 19 68 -7 11 -171 10
-178 0z"/>
<path d="M1505 3279 c-11 -16 4 -60 31 -92 15 -18 24 -41 24 -63 0 -30 -3 -34
-25 -34 -15 0 -41 15 -65 36 -57 52 -70 42 -69 -48 2 -131 18 -151 75 -94 44
44 84 49 84 11 0 -38 -21 -75 -52 -91 -33 -17 -36 -39 -8 -54 17 -9 142 -5
178 6 9 2 4 25 -17 84 -16 44 -26 80 -21 80 4 0 31 -18 59 -40 28 -23 56 -38
61 -35 14 9 13 198 -2 213 -8 8 -22 1 -56 -28 -67 -60 -76 -53 -46 33 15 39
31 78 36 84 6 7 8 20 4 28 -4 12 -24 15 -95 15 -52 0 -93 -4 -96 -11z"/>
<path d="M2098 3066 c-113 -12 -141 -24 -119 -50 7 -8 25 -18 41 -21 49 -11
117 -62 143 -107 31 -53 49 -143 45 -223 l-3 -60 -97 2 c-155 2 -178 16 -262
161 -38 64 -61 77 -87 46 -10 -13 -14 -67 -14 -233 0 -202 1 -219 22 -263 33
-71 38 -68 79 46 9 28 35 69 56 92 53 57 110 76 219 72 l84 -3 -3 -105 c-5
-186 -46 -282 -144 -343 -97 -61 -56 -75 220 -76 176 -1 212 5 212 36 0 9 -45
63 -100 118 l-100 102 0 119 c0 65 4 124 8 131 6 10 125 17 224 14 29 -1 94
-67 143 -147 81 -129 95 -104 94 168 -1 217 -9 265 -47 279 -19 7 -24 2 -40
-34 -10 -23 -45 -73 -76 -112 l-58 -70 -116 -6 c-65 -4 -121 -4 -126 -1 -5 3
-6 55 -2 121 8 137 15 151 118 245 43 39 69 70 65 78 -14 37 -163 47 -379 24z"/>
<path d="M3635 3691 c-25 -25 -189 -91 -225 -91 -15 0 -42 5 -59 11 -45 16
-57 2 -38 -44 26 -61 86 -77 109 -29 18 36 48 39 87 7 39 -33 44 -82 9 -87
-29 -4 -33 -26 -14 -72 16 -39 59 -67 77 -49 5 5 25 68 44 139 18 71 40 148
48 170 11 31 12 45 4 53 -15 15 -19 14 -42 -8z m-15 -66 c0 -11 -34 -75 -40
-75 -9 0 -44 39 -39 44 8 7 64 35 72 36 4 0 7 -2 7 -5z"/>
<path d="M842 3668 c-18 -23 -62 -141 -62 -168 0 -32 24 -55 65 -63 24 -4 43
3 89 34 65 44 86 48 86 20 0 -24 -32 -48 -83 -62 -59 -16 -62 -58 -6 -86 29
-15 47 -2 47 32 0 15 10 33 24 44 38 30 75 107 62 128 -23 37 -39 38 -122 10
-44 -15 -89 -27 -101 -27 -18 0 -20 4 -15 28 8 32 33 55 54 49 41 -12 45 -11
48 9 2 15 -6 29 -26 43 -35 24 -46 26 -60 9z"/>
<path d="M3956 2453 c-9 -10 -7 -111 3 -117 4 -3 23 -1 41 4 81 23 109 -28 34
-60 -52 -23 -74 -53 -74 -102 0 -73 33 -111 68 -76 9 9 5 17 -13 34 -14 13
-25 29 -25 37 0 22 78 37 153 30 l67 -6 16 39 c18 43 15 144 -6 199 -11 28
-12 29 -25 12 -9 -13 -36 -22 -89 -29 -74 -10 -78 -9 -110 16 -18 14 -36 22
-40 19z m222 -109 c33 -9 31 -61 -4 -74 -40 -16 -44 -13 -44 35 0 47 4 50 48
39z"/>
<path d="M337 2386 c-50 -18 -64 -31 -78 -73 -16 -48 -3 -116 29 -154 55 -66
158 -89 208 -46 30 27 48 105 38 174 -5 36 -13 46 -58 77 -57 39 -80 43 -139
22z m141 -85 c20 -11 23 -19 20 -64 l-3 -52 -56 -9 c-94 -15 -139 6 -141 66
-1 24 5 45 16 57 28 31 108 32 164 2z"/>
<path d="M3494 1125 c-31 -19 -44 -34 -53 -67 -7 -24 -24 -62 -38 -85 l-24
-42 23 -15 c13 -8 41 -20 64 -26 32 -10 43 -19 53 -45 19 -53 43 -68 95 -61
40 6 52 15 101 71 31 35 54 68 51 73 -3 5 -23 12 -44 15 -47 8 -96 43 -144
105 -26 33 -36 53 -32 68 8 33 -8 35 -52 9z m12 -115 c9 0 14 -11 14 -29 0
-22 -5 -30 -24 -33 -19 -4 -26 0 -30 16 -11 39 -7 59 10 52 9 -3 22 -6 30 -6z
m132 -143 c-3 -29 -30 -58 -43 -45 -10 9 -18 76 -11 93 5 14 8 14 31 -1 20
-13 25 -24 23 -47z"/>
<path d="M971 1068 c-5 -13 -40 -52 -77 -88 l-69 -65 -3 60 c-2 33 -7 64 -11
68 -5 5 -25 2 -44 -7 -42 -17 -56 -53 -38 -93 35 -76 147 -173 201 -173 29 0
66 34 72 65 3 17 -4 21 -50 25 l-52 5 42 60 c52 73 55 76 95 73 46 -3 62 15
37 43 -16 19 -72 49 -89 49 -3 0 -9 -10 -14 -22z"/>
<path d="M2099 536 c-4 -4 15 -55 41 -114 26 -59 57 -129 68 -155 19 -43 25
-48 49 -45 23 2 33 13 56 63 64 136 110 205 140 213 48 12 35 27 -27 30 -75 4
-90 -1 -75 -26 9 -14 8 -25 -5 -50 -15 -29 -21 -32 -65 -32 -46 0 -50 2 -66
36 -12 26 -14 39 -5 49 7 9 8 15 1 20 -16 9 -105 18 -112 11z m201 -201 c0 -2
-5 -16 -12 -30 -12 -27 -38 -34 -38 -11 0 8 -3 21 -6 30 -5 13 1 16 25 16 17
0 31 -2 31 -5z"/>
</g>
</svg>
