<?xml version="1.0" standalone="no"?>
<!DOCTYPE svg PUBLIC "-//W3C//DTD SVG 20010904//EN"
 "http://www.w3.org/TR/2001/REC-SVG-20010904/DTD/svg10.dtd">
<svg version="1.0" xmlns="http://www.w3.org/2000/svg"
 width="438.949789pt" height="439.251979pt" viewBox="0 0 438.949789 439.251979"
 preserveAspectRatio="xMidYMid meet">
<metadata>
Created by potrace 1.16, written by Peter Selinger 2001-2019
</metadata>
<g transform="translate(-5.475725,444.729469) scale(0.100000,-0.100000)"
fill="#000000" stroke="none">
<path d="M2075 4443 c-536 -39 -999 -250 -1382 -632 -345 -343 -546 -739 -620
-1221 -25 -163 -24 -520 1 -685 72 -475 275 -875 616 -1215 340 -341 740 -544
1215 -616 164 -25 521 -26 685 -1 488 74 884 278 1237 636 332 337 531 737
599 1206 22 148 25 496 6 635 -71 514 -287 936 -667 1298 -359 343 -772 535
-1258 586 -129 13 -320 17 -432 9z m334 -73 c166 -12 262 -27 416 -67 680
-175 1273 -757 1468 -1438 109 -381 111 -826 5 -1215 -148 -546 -581 -1060
-1111 -1319 -299 -146 -575 -206 -947 -205 -364 1 -636 62 -935 209 -411 201
-787 581 -981 990 -140 296 -198 564 -198 925 0 295 36 511 124 750 196 532
650 1002 1180 1221 191 79 467 141 670 151 30 2 78 4 106 6 27 2 119 -2 203
-8z"/>
<path d="M2075 4334 c-300 -32 -504 -86 -735 -196 -414 -196 -777 -559 -980
-980 -196 -407 -251 -913 -149 -1385 109 -505 434 -972 889 -1277 116 -78 342
-188 474 -231 354 -115 757 -135 1144 -56 706 145 1336 731 1535 1427 150 524
98 1116 -138 1573 -197 381 -543 724 -925 916 -174 88 -402 158 -610 190 -102
15 -425 27 -505 19z m540 -59 c438 -78 790 -267 1106 -591 183 -188 293 -344
394 -559 129 -273 184 -535 185 -877 0 -352 -54 -602 -195 -895 -270 -563
-820 -996 -1410 -1112 -185 -36 -177 -35 -173 -9 2 17 -2 24 -18 26 -26 4 -34
35 -34 128 0 61 1 64 31 79 43 23 31 39 -31 43 -57 3 -83 -9 -62 -30 13 -13
15 -62 3 -92 -6 -17 -12 -13 -40 27 -54 74 -61 72 -143 -33 -15 -19 -29 -32
-32 -29 -11 11 -9 109 3 123 7 8 10 20 6 26 -8 13 -122 13 -130 0 -3 -5 3 -22
14 -37 14 -20 21 -53 25 -114 7 -85 7 -85 -20 -97 -38 -18 -15 -42 41 -42 45
0 67 16 80 60 9 29 73 120 85 120 4 0 19 -19 33 -42 37 -62 96 -128 115 -128
15 0 15 -2 2 -10 -20 -13 -328 -12 -449 0 -310 33 -640 152 -895 325 -190 129
-385 316 -527 507 -195 263 -317 564 -364 902 -21 147 -21 470 0 613 65 450
252 820 580 1148 361 361 791 559 1290 593 135 9 420 -3 530 -23z"/>
<path d="M2187 4264 c-3 -4 -32 -9 -64 -13 -42 -4 -58 -10 -58 -21 0 -10 12
-16 37 -18 34 -3 38 -6 44 -40 8 -53 8 -52 0 -112 -6 -41 -14 -60 -33 -76 -41
-34 -22 -46 60 -38 77 7 107 21 69 30 -24 7 -28 28 -12 68 13 35 39 46 85 36
48 -11 71 1 80 40 13 57 -2 88 -58 120 -49 28 -132 41 -150 24z m129 -84 c15
-22 25 -42 23 -44 -18 -15 -69 -30 -91 -28 -25 3 -28 7 -28 40 0 41 7 56 30
65 30 11 40 6 66 -33z"/>
<path d="M2066 3889 c-497 -52 -917 -307 -1199 -727 -279 -414 -344 -986 -170
-1485 156 -449 551 -839 1004 -990 308 -103 689 -113 1009 -26 269 73 482 201
706 424 153 153 230 257 316 429 159 317 207 727 128 1104 -73 350 -275 674
-575 921 -327 270 -770 397 -1219 350z m520 -58 c314 -61 561 -196 805 -440
325 -326 469 -676 469 -1141 0 -474 -154 -839 -491 -1165 -330 -318 -703 -458
-1184 -442 -329 11 -582 89 -832 256 -352 236 -594 589 -684 997 -33 153 -38
476 -11 640 57 330 201 609 440 852 226 229 498 378 809 443 191 40 477 40
679 0z"/>
<path d="M1863 3441 c-49 -23 -68 -49 -82 -113 -17 -77 1 -139 54 -186 l44
-39 -45 -44 c-25 -24 -68 -74 -96 -111 l-50 -68 -28 38 c-28 39 -95 102 -125
120 -17 9 -17 12 8 41 34 41 50 102 42 161 -14 98 -70 143 -181 143 -118 0
-177 -58 -177 -172 0 -56 9 -88 38 -127 14 -19 13 -22 -33 -52 -181 -117 -256
-329 -177 -500 36 -78 97 -138 166 -163 33 -12 61 -25 63 -28 11 -18 -33 -128
-108 -275 -48 -92 -86 -174 -86 -183 0 -13 -8 -15 -46 -9 -127 17 -218 115
-260 277 -20 78 -12 138 24 180 28 34 113 79 148 79 41 0 84 -78 84 -153 0
-51 -14 -67 -50 -57 -24 6 -25 9 -25 85 0 88 -16 110 -39 53 -8 -18 -24 -46
-37 -62 l-23 -29 20 -35 c20 -37 28 -42 81 -60 29 -9 37 -7 72 19 71 51 88
116 51 188 -10 21 -34 51 -51 66 -29 23 -38 26 -78 20 -135 -18 -194 -62 -229
-169 -37 -113 -28 -177 38 -276 48 -71 182 -198 217 -206 96 -21 96 -21 133
-97 28 -57 45 -79 83 -104 35 -24 55 -31 75 -27 65 13 67 12 64 -31 -2 -22
-12 -59 -22 -82 -17 -39 -22 -43 -54 -43 -26 0 -36 4 -36 16 0 29 -63 81 -105
88 -60 10 -125 -13 -152 -53 -32 -47 -32 -135 0 -182 27 -40 92 -63 152 -53
42 7 105 59 105 88 0 9 6 16 14 16 12 0 11 -9 -6 -47 -15 -33 -23 -75 -26
-133 l-4 -86 47 -47 c26 -25 63 -51 82 -58 30 -10 39 -9 62 8 40 29 75 106 67
147 -9 46 -39 82 -82 96 -50 17 -80 6 -103 -38 -29 -53 -25 -17 3 43 31 63 75
113 101 115 11 1 411 2 888 1 l868 -1 16 -37 c10 -23 17 -68 17 -115 1 -67 -2
-79 -22 -101 -39 -41 -67 -42 -112 -6 -38 30 -40 36 -40 86 0 52 1 53 29 53
26 0 30 -4 36 -39 9 -54 28 -69 49 -39 9 12 16 31 16 41 0 27 -73 97 -100 97
-33 0 -96 -68 -110 -119 -11 -42 -11 -44 21 -77 37 -38 104 -74 138 -74 39 0
90 31 129 77 l36 45 -3 104 c-2 109 6 128 34 75 33 -65 96 -89 180 -68 64 16
95 58 95 129 0 104 -43 151 -139 152 -68 0 -102 -18 -133 -70 -28 -47 -73 -48
-105 -1 -31 46 -43 82 -43 133 l0 44 58 0 c125 0 232 62 247 143 6 32 12 36
52 47 131 32 222 126 279 288 54 155 20 275 -107 370 -29 22 -139 -20 -193
-72 -69 -68 -73 -117 -13 -182 30 -33 36 -35 70 -29 47 9 95 48 114 93 12 30
12 37 -4 70 -25 51 -59 52 -56 2 1 -19 -1 -50 -3 -67 -5 -31 -7 -33 -46 -33
l-41 0 6 41 c3 23 18 62 34 88 26 40 33 46 59 43 41 -5 85 -33 111 -72 47 -69
19 -238 -59 -347 -35 -50 -126 -107 -161 -101 -27 5 -136 245 -143 317 -5 51
-2 62 34 132 58 110 75 200 70 363 -3 125 -5 136 -36 199 -30 60 -66 101 -110
126 -15 9 -15 12 5 33 55 59 68 154 31 228 -30 59 -77 83 -163 83 -121 0 -180
-59 -180 -179 0 -51 5 -67 30 -104 19 -27 26 -45 18 -47 -34 -12 -110 -73
-142 -114 -20 -26 -39 -48 -43 -48 -3 -1 -9 11 -13 27 -9 41 -56 104 -97 130
l-36 24 39 35 c47 42 63 89 56 160 -11 104 -69 153 -183 153 -102 0 -157 -41
-175 -131 -13 -66 -1 -124 36 -167 14 -17 25 -32 25 -35 0 -2 -20 -12 -44 -21
-51 -20 -130 -99 -153 -153 l-15 -38 -18 47 c-25 65 -61 109 -133 158 -34 24
-64 45 -66 46 -2 2 10 19 27 38 56 63 52 194 -7 250 -51 49 -153 61 -228 27z
m166 -80 c48 -34 51 -122 6 -167 -43 -43 -150 -29 -174 23 -16 35 -14 105 4
131 30 42 114 49 164 13z m644 -22 c35 -16 50 -47 49 -103 -1 -43 -6 -55 -32
-78 -48 -44 -143 -33 -171 19 -29 54 -10 139 35 161 28 14 89 15 119 1z
m-1201 -40 c52 -28 59 -136 11 -180 -34 -33 -123 -33 -155 -2 -42 43 -39 139
6 175 24 20 106 24 138 7z m1763 -5 c49 -32 52 -136 5 -179 -25 -22 -98 -30
-130 -13 -59 31 -71 148 -20 190 29 23 111 24 145 2z m-570 -298 c57 -26 98
-69 114 -118 22 -70 39 -276 36 -451 l-2 -178 -47 -29 c-92 -59 -113 -146 -53
-229 58 -81 90 -141 75 -141 -7 -1 -105 -1 -218 0 -200 0 -205 1 -220 22 -8
13 -34 44 -57 70 -49 55 -58 71 -67 114 -6 25 -3 33 10 38 20 8 34 -9 34 -40
0 -29 37 -74 61 -74 24 0 98 66 111 99 14 37 -8 78 -58 107 l-44 26 0 68 c0
95 9 114 62 129 63 19 175 80 214 117 56 52 46 119 -27 199 -47 50 -61 51
-135 9 -35 -20 -42 -30 -48 -64 -10 -65 17 -83 49 -32 29 46 55 61 82 49 51
-23 15 -135 -52 -163 -59 -24 -81 -19 -115 30 -43 63 -57 131 -41 201 15 66
71 182 103 212 62 58 148 69 233 29z m575 -5 c40 -20 94 -94 110 -149 27 -97
-4 -291 -68 -427 -33 -71 -37 -89 -37 -160 0 -77 2 -84 53 -185 29 -58 56
-124 59 -147 5 -41 5 -42 -28 -47 -71 -12 -258 -26 -355 -26 l-101 0 -7 39
c-4 28 -20 55 -56 94 -49 54 -57 75 -44 125 5 19 13 22 50 22 l45 0 -16 -30
c-18 -35 -20 -81 -3 -98 21 -21 64 -13 98 18 31 29 33 33 27 89 -6 75 -24 112
-62 131 l-30 15 7 84 c4 46 9 86 12 89 3 2 33 0 66 -5 54 -9 66 -7 122 16 79
33 103 72 103 172 0 57 -4 71 -28 102 -16 21 -50 48 -76 62 -48 24 -48 24 -79
4 -50 -30 -74 -75 -69 -132 8 -93 67 -107 67 -17 0 66 13 90 48 90 49 0 56
-12 49 -82 -9 -97 -22 -124 -68 -142 -31 -13 -45 -14 -62 -5 -32 17 -77 60
-93 91 -33 63 -4 211 60 305 79 117 199 158 306 104z m-1767 -15 c30 -14 75
-48 101 -76 l46 -49 1 -98 c0 -54 2 -105 3 -113 2 -8 9 -119 16 -246 l13 -232
-37 -45 c-71 -87 -70 -175 4 -222 22 -14 40 -29 40 -35 0 -12 -87 -16 -297
-12 l-173 3 0 30 c0 47 42 161 118 316 68 141 69 143 130 182 97 63 111 117
61 231 -58 130 -139 133 -230 6 -50 -68 -34 -128 39 -142 41 -8 49 10 28 61
-20 47 -20 79 -1 95 12 10 21 8 50 -10 68 -42 83 -109 39 -174 l-27 -39 -65 6
c-199 19 -276 174 -200 402 28 84 66 142 113 171 35 22 49 25 107 21 46 -3 85
-13 121 -31z m603 9 c76 -38 108 -78 140 -175 26 -81 28 -96 32 -317 l4 -233
-58 -82 c-37 -52 -57 -92 -56 -107 3 -38 61 -130 92 -146 27 -14 60 -51 60
-67 0 -5 -125 -8 -278 -8 l-277 0 -20 36 c-10 19 -32 44 -47 55 -34 25 -37 69
-8 117 33 53 45 42 42 -38 -3 -57 -1 -71 12 -76 28 -11 87 6 113 33 23 22 25
31 20 74 -8 65 -20 85 -67 109 -36 18 -40 25 -41 58 -1 60 2 157 6 160 2 2 31
-3 65 -12 53 -14 65 -14 88 -2 79 41 135 143 136 246 1 100 -37 143 -139 157
-55 7 -74 -7 -105 -78 -42 -98 -24 -167 45 -172 29 -2 29 -1 25 38 -9 93 -7
98 28 109 20 5 36 5 42 0 5 -5 6 -43 1 -88 -6 -69 -11 -82 -35 -102 -41 -36
-113 -34 -148 4 -36 37 -48 72 -48 141 0 153 83 311 192 365 66 33 119 33 184
1z m-298 -947 c-4 -41 -28 -50 -28 -10 0 16 3 32 7 35 15 16 24 5 21 -25z
m1552 -264 c0 -19 -53 -74 -73 -74 -23 0 -50 36 -42 59 4 15 17 21 48 24 23 2
48 4 55 5 6 1 12 -5 12 -14z m-266 -35 c-31 -34 -31 -139 0 -239 14 -46 24
-85 22 -87 -1 -2 -379 -4 -840 -6 l-836 -2 7 45 c10 58 10 200 0 268 l-8 52
126 0 125 0 0 -36 c0 -27 -8 -43 -35 -68 -30 -29 -35 -40 -35 -79 0 -34 6 -53
24 -74 22 -25 31 -28 85 -28 82 0 106 23 106 101 0 51 -3 59 -32 83 -26 22
-33 35 -33 64 l0 37 275 0 275 0 0 -38 c0 -32 -5 -41 -25 -50 -35 -16 -59 -71
-51 -115 11 -59 35 -79 99 -85 52 -4 58 -2 87 26 25 25 30 38 30 77 0 40 -5
52 -35 82 -26 26 -35 43 -35 69 l0 34 220 0 220 0 0 -35 c0 -27 -8 -42 -36
-68 -31 -28 -36 -39 -36 -75 1 -60 10 -80 42 -97 46 -24 103 -19 139 11 28 23
31 32 31 80 0 45 -4 59 -25 79 -13 14 -29 25 -35 25 -5 0 -10 18 -10 40 l0 39
103 3 c56 2 104 -1 106 -5 1 -5 -5 -17 -15 -28z m-1734 6 c0 -34 -25 -82 -49
-95 -52 -27 -91 5 -91 77 l0 43 70 0 c68 0 70 -1 70 -25z m394 -131 c9 -8 16
-19 16 -24 0 -5 -7 -16 -16 -24 -8 -9 -19 -16 -24 -16 -5 0 -16 7 -24 16 -9 8
-16 19 -16 24 0 5 7 16 16 24 8 9 19 16 24 16 5 0 16 -7 24 -16z m624 4 c28
-28 1 -75 -38 -63 -14 4 -20 15 -20 35 0 37 33 53 58 28z m506 6 c24 -9 21
-61 -4 -69 -39 -12 -66 35 -38 63 14 14 20 14 42 6z m-1700 -206 c38 -55 6
-120 -59 -120 -65 0 -97 65 -59 120 12 17 25 22 59 22 34 0 47 -5 59 -22z
m2307 6 c19 -23 17 -90 -3 -110 -24 -24 -88 -21 -110 6 -22 27 -23 68 -2 98
19 28 94 31 115 6z m-2042 -275 c24 -23 22 -45 -11 -92 -23 -33 -48 -47 -82
-47 -28 0 -36 24 -11 34 8 3 15 13 15 23 1 30 38 103 53 103 7 0 23 -9 36 -21z"/>
<path d="M706 3491 c-9 -10 -20 -35 -23 -55 -5 -35 -2 -41 47 -91 30 -30 51
-57 47 -61 -3 -4 -48 -6 -99 -5 -97 2 -148 -14 -172 -52 -14 -22 8 -47 26 -29
18 18 56 14 67 -7 6 -10 24 -24 41 -31 22 -9 33 -22 42 -54 16 -59 31 -72 63
-58 29 13 61 72 52 96 -5 12 -20 16 -61 16 -46 0 -56 3 -61 20 -3 11 -4 24 -1
28 3 5 47 12 98 16 139 10 150 37 45 109 -61 42 -78 73 -75 131 3 44 -11 55
-36 27z"/>
<path d="M3585 3290 c-7 -11 26 -70 51 -91 13 -10 16 -9 21 10 4 17 11 21 27
17 11 -3 28 -6 38 -6 9 0 21 -13 27 -31 16 -47 14 -69 -7 -69 -10 0 -26 -6
-35 -12 -15 -12 -14 -17 14 -66 37 -65 57 -65 79 -1 9 25 35 72 57 105 43 64
68 127 58 145 -8 12 -75 5 -154 -16 -41 -11 -55 -10 -107 6 -32 10 -60 19 -61
19 -1 0 -5 -5 -8 -10z m274 -57 c-41 -55 -41 -55 -57 -32 -16 23 -17 23 23 37
43 15 49 14 34 -5z"/>
<path d="M551 1473 c-21 -11 -40 -31 -52 -57 -20 -45 -25 -136 -9 -167 26 -48
135 -67 198 -35 17 9 47 31 65 50 28 28 34 41 36 85 2 41 -2 57 -19 74 -11 12
-26 31 -34 42 -20 27 -137 33 -185 8z m164 -99 c6 -43 5 -49 -22 -70 -15 -12
-40 -30 -55 -38 -25 -15 -28 -15 -57 10 -17 14 -31 33 -31 41 0 9 16 36 36 59
32 40 40 44 79 44 l43 0 7 -46z"/>
<path d="M3751 1416 c-80 -107 -97 -162 -36 -122 23 15 26 14 83 -29 74 -56
80 -62 84 -104 2 -19 8 -36 14 -38 16 -5 86 95 82 115 -2 9 -11 16 -21 16 -20
-2 -167 121 -167 139 0 7 7 23 16 35 14 21 12 42 -5 42 -5 0 -27 -24 -50 -54z"/>
</g>
</svg>
