<?xml version="1.0" standalone="no"?>
<!DOCTYPE svg PUBLIC "-//W3C//DTD SVG 20010904//EN"
 "http://www.w3.org/TR/2001/REC-SVG-20010904/DTD/svg10.dtd">
<svg version="1.0" xmlns="http://www.w3.org/2000/svg"
 width="438.913342pt" height="439.200790pt" viewBox="0 0 438.913342 439.200790"
 preserveAspectRatio="xMidYMid meet">
<metadata>
Created by potrace 1.16, written by Peter Selinger 2001-2019
</metadata>
<g transform="translate(-5.475568,444.660770) scale(0.100000,-0.100000)"
fill="#000000" stroke="none">
<path d="M2085 4444 c-341 -34 -550 -88 -800 -209 -219 -105 -410 -242 -595
-426 -345 -346 -542 -735 -617 -1219 -25 -161 -24 -518 1 -685 72 -474 274
-873 616 -1215 345 -345 732 -540 1220 -617 160 -25 519 -25 680 0 483 75 873
272 1219 618 186 187 312 360 421 584 104 213 168 426 202 675 16 121 16 476
-1 600 -63 474 -253 870 -583 1215 -355 372 -770 589 -1260 660 -101 15 -424
27 -503 19z m491 -90 c510 -74 950 -319 1295 -721 148 -172 260 -351 343 -545
127 -300 182 -654 156 -1003 -39 -532 -237 -964 -614 -1340 -370 -369 -771
-559 -1296 -615 -118 -12 -402 -4 -539 15 -468 66 -877 281 -1216 637 -383
402 -569 858 -580 1423 -12 616 191 1125 619 1550 438 436 952 638 1576 619
85 -3 200 -12 256 -20z"/>
<path d="M2005 4325 c-487 -55 -890 -249 -1235 -595 -390 -391 -584 -840 -606
-1400 -26 -657 227 -1243 722 -1670 402 -347 898 -518 1444 -497 505 20 911
178 1285 500 390 335 624 759 701 1267 25 159 25 483 1 640 -70 458 -256 826
-583 1156 -395 396 -865 597 -1429 609 -110 2 -227 -2 -300 -10z m536 -40
c220 -29 410 -86 604 -180 217 -105 348 -199 538 -384 197 -192 312 -350 422
-576 139 -285 195 -544 195 -900 0 -357 -59 -617 -206 -915 -145 -292 -359
-544 -637 -749 -283 -208 -601 -331 -962 -371 -118 -13 -371 -13 -493 1 -543
59 -1023 328 -1375 769 -224 280 -360 599 -412 962 -20 143 -20 476 1 621 69
479 298 900 669 1229 101 90 241 194 318 236 23 13 65 36 92 51 175 97 417
172 655 206 129 18 458 18 591 0z"/>
<path d="M2114 4268 c-4 -6 2 -19 14 -28 18 -15 21 -30 23 -115 l3 -98 -38
-19 c-24 -13 -36 -25 -34 -36 6 -31 221 -29 264 2 23 17 24 108 1 134 -13 15
-14 20 -1 36 19 27 18 69 -3 95 -29 34 -212 58 -229 29z m174 -86 c3 -31 2
-33 -25 -30 -17 2 -29 10 -31 21 -6 30 6 49 30 45 18 -2 24 -11 26 -36z m17
-137 l0 -50 -42 -3 c-37 -3 -43 0 -43 16 0 49 13 81 34 85 45 9 51 4 51 -48z"/>
<path d="M2066 3889 c-476 -50 -857 -270 -1158 -668 -303 -400 -391 -1004
-221 -1520 38 -116 135 -305 210 -410 134 -187 352 -382 547 -490 458 -253
1062 -268 1536 -38 157 76 284 170 436 321 152 153 229 257 314 426 218 436
224 1011 15 1447 -162 338 -428 608 -760 773 -279 139 -595 193 -919 159z
m549 -63 c319 -74 537 -196 776 -435 239 -240 362 -460 434 -776 37 -161 47
-453 21 -617 -59 -371 -203 -647 -478 -914 -123 -119 -276 -228 -404 -289
-105 -50 -290 -110 -399 -130 -121 -23 -398 -31 -522 -16 -372 45 -674 192
-938 456 -229 229 -372 492 -436 799 -25 117 -38 376 -26 506 34 377 186 705
451 973 232 234 480 373 786 441 157 34 157 34 400 32 195 -2 226 -5 335 -30z"/>
<path d="M2436 3412 c-6 -10 62 -58 117 -83 l27 -12 0 -126 c0 -69 -3 -190 -7
-268 l-6 -143 -169 0 c-126 0 -169 3 -172 13 -2 6 -8 39 -15 71 -33 179 -175
341 -354 404 -59 21 -91 25 -177 25 -102 0 -149 -10 -261 -57 -13 -6 -17 1
-22 34 -13 103 -111 157 -233 130 -86 -20 -124 -73 -124 -175 0 -108 40 -163
132 -180 l36 -7 -29 -61 c-16 -34 -29 -68 -29 -74 0 -17 -4 -17 -52 8 -34 18
-54 20 -106 16 -108 -8 -154 -60 -154 -175 -1 -105 38 -162 125 -181 52 -12
112 -3 152 23 30 20 35 20 35 1 0 -8 11 -39 24 -70 l25 -55 -27 0 c-15 0 -48
-10 -72 -22 -58 -30 -80 -74 -80 -156 0 -123 45 -172 164 -180 60 -4 79 -1
114 17 45 23 82 80 82 125 l0 25 53 -24 c54 -25 158 -55 189 -55 17 0 18 -14
18 -195 l0 -195 -221 0 c-205 0 -224 2 -254 20 -37 23 -57 60 -75 138 -7 29
-21 62 -31 75 -19 22 -19 22 -34 2 -32 -40 -39 -98 -38 -285 1 -102 4 -243 8
-314 8 -174 30 -212 64 -111 12 37 25 54 51 70 33 19 52 20 284 20 l248 0 -7
-69 c-3 -38 -16 -98 -27 -135 -16 -55 -30 -75 -76 -121 -39 -38 -76 -63 -117
-79 -80 -32 -83 -36 -46 -59 34 -21 34 -21 444 -44 148 -8 220 -9 227 -2 7 7
7 19 1 37 -8 21 -17 27 -41 27 -43 0 -99 26 -138 63 -18 17 -60 79 -92 138
-58 102 -60 108 -60 177 l0 72 156 0 c177 0 200 -6 259 -71 35 -39 36 -42 33
-110 -1 -54 2 -73 15 -86 16 -16 18 -16 37 3 11 11 30 46 42 79 19 53 23 84
26 262 5 243 -12 511 -32 531 -21 21 -34 7 -41 -46 -10 -72 -12 -75 -63 -114
-90 -67 -95 -68 -272 -68 l-160 0 0 194 0 193 49 7 c124 16 226 71 320 171 72
78 120 170 134 264 l11 71 178 0 178 0 0 -150 0 -149 -30 -35 c-29 -33 -70
-53 -148 -73 -51 -12 -43 -27 18 -35 232 -28 449 -29 471 -2 12 15 -2 23 -78
43 -24 7 -54 22 -67 34 -24 21 -24 27 -29 195 l-4 172 367 0 367 0 40 -29 c78
-56 91 -102 48 -161 -30 -41 -73 -70 -103 -70 -13 0 -37 14 -54 30 -25 26 -29
36 -24 62 8 39 23 58 48 58 17 0 19 -4 12 -32 -12 -58 -11 -63 16 -60 34 4 40
12 47 69 5 46 3 54 -20 76 -31 32 -99 51 -135 39 -42 -14 -65 -64 -66 -144 -1
-66 1 -71 31 -98 38 -34 98 -52 169 -52 112 1 173 72 174 204 0 47 -4 62 -27
89 -15 17 -44 39 -65 49 l-37 16 39 18 c63 27 100 96 100 184 0 41 -5 50 -45
88 -109 105 -260 89 -294 -32 -16 -57 -13 -91 13 -166 l23 -68 -309 0 -308 0
0 133 c0 72 5 186 10 251 13 154 25 170 150 191 72 12 87 32 35 48 -46 13
-471 22 -479 9z m-1139 -106 c24 -21 28 -31 28 -79 0 -44 -5 -60 -23 -80 -29
-31 -73 -40 -122 -27 -47 13 -70 46 -70 100 0 78 31 109 107 110 41 0 58 -5
80 -24z m343 -306 l0 -220 -214 0 c-132 0 -217 4 -221 10 -9 15 21 123 51 182
63 124 238 244 362 247 l22 1 0 -220z m211 190 c146 -54 275 -215 296 -367 l6
-43 -219 2 -219 3 -3 219 -2 219 43 -6 c24 -4 68 -15 98 -27z m1688 -222 c26
-81 18 -145 -22 -173 -35 -25 -63 -18 -94 21 -22 29 -27 47 -27 88 0 79 14 96
79 96 52 0 54 -1 64 -32z m-2459 -123 c40 -21 58 -79 41 -135 -29 -98 -182
-94 -210 6 -10 36 -1 85 21 111 28 34 100 43 148 18z m560 -355 l0 -219 -32 5
c-207 36 -354 174 -397 372 -6 29 -11 55 -11 57 0 3 99 5 220 5 l220 0 0 -220z
m510 195 c0 -41 -38 -143 -74 -199 -45 -70 -116 -132 -189 -167 -61 -28 -154
-52 -169 -43 -5 3 -8 102 -8 220 l0 214 220 0 220 0 0 -25z m-863 -319 c32
-38 32 -114 0 -151 -27 -32 -92 -44 -137 -25 -75 31 -80 155 -9 197 39 22 118
11 146 -21z m353 -746 l0 -120 -184 0 c-156 0 -194 3 -249 20 -60 19 -66 23
-81 60 -38 95 -14 126 119 154 11 2 104 4 208 5 l187 1 0 -120z m444 100 c18
-10 46 -37 63 -58 l32 -39 -19 -31 c-41 -67 -126 -91 -322 -92 l-128 0 0 120
0 120 171 0 c153 0 175 -2 203 -20z"/>
<path d="M1413 3069 c-44 -13 -63 -44 -63 -102 0 -65 39 -107 99 -107 61 0 90
15 107 57 41 97 -40 183 -143 152z m72 -104 c0 -23 -5 -31 -21 -33 -27 -4 -47
21 -39 48 5 16 14 20 33 18 23 -2 27 -8 27 -33z"/>
<path d="M1842 3066 c-36 -17 -52 -49 -52 -107 0 -78 80 -121 165 -89 56 21
70 133 22 178 -30 28 -93 36 -135 18z m92 -82 c3 -8 1 -24 -5 -35 -20 -38 -81
-5 -66 35 8 21 63 22 71 0z"/>
<path d="M1404 2630 c-35 -14 -54 -50 -54 -103 0 -40 5 -53 29 -78 24 -23 38
-29 73 -29 61 0 91 18 107 67 21 60 3 119 -44 139 -38 16 -79 17 -111 4z m84
-102 c-2 -27 -7 -33 -27 -33 -28 0 -47 25 -38 49 4 10 18 16 37 16 29 0 31 -2
28 -32z"/>
<path d="M1844 2630 c-35 -14 -54 -50 -54 -103 0 -40 5 -53 29 -78 24 -23 38
-29 73 -29 61 0 91 18 107 67 21 60 3 119 -44 139 -38 16 -79 17 -111 4z m90
-86 c3 -8 1 -24 -5 -35 -20 -38 -81 -5 -66 35 8 21 63 22 71 0z"/>
<path d="M484 2458 c-4 -6 1 -18 12 -27 57 -47 -27 -97 -144 -85 -52 5 -71 3
-77 -6 -15 -24 -16 -154 -3 -205 15 -57 32 -65 36 -17 l3 32 97 0 c88 0 98 -2
110 -21 21 -33 36 -8 33 53 -3 59 -13 77 -34 60 -14 -12 -73 -6 -82 8 -2 4 18
19 46 35 52 28 69 54 69 106 0 53 -46 100 -66 67z m-116 -201 c3 -25 1 -27
-32 -27 -29 0 -36 4 -36 20 0 21 27 41 50 37 8 -1 16 -15 18 -30z"/>
<path d="M4181 2438 c-11 -30 -29 -38 -82 -38 -62 0 -107 -24 -124 -64 -37
-87 -7 -150 98 -206 37 -20 78 -47 91 -59 34 -32 46 -19 45 44 -2 63 -20 98
-40 78 -19 -19 -37 -16 -106 17 -55 26 -63 33 -63 57 0 44 10 50 91 58 73 7
76 6 82 -15 3 -12 11 -20 19 -18 9 3 14 28 16 78 3 78 -10 112 -27 68z"/>
<path d="M2149 519 c-21 -5 -24 -11 -22 -44 4 -54 14 -60 61 -36 27 14 60 21
97 21 l55 0 0 -35 c0 -32 -3 -35 -28 -35 -15 0 -37 7 -48 15 -25 17 -34 11
-34 -25 0 -39 15 -49 58 -39 52 12 52 12 52 -19 0 -37 -17 -52 -56 -52 -46 0
-64 9 -75 37 -6 18 -15 23 -32 21 -18 -2 -23 -10 -25 -47 -2 -24 1 -48 6 -53
6 -6 57 -7 132 -3 95 6 123 11 127 23 4 8 -1 21 -11 27 -15 12 -16 24 -8 122
5 59 6 111 3 115 -8 8 -222 15 -252 7z"/>
</g>
</svg>
