<?xml version="1.0" standalone="no"?>
<!DOCTYPE svg PUBLIC "-//W3C//DTD SVG 20010904//EN"
 "http://www.w3.org/TR/2001/REC-SVG-20010904/DTD/svg10.dtd">
<svg version="1.0" xmlns="http://www.w3.org/2000/svg"
 width="438.917067pt" height="439.402948pt" viewBox="0 0 438.917067 439.402948"
 preserveAspectRatio="xMidYMid meet">
<metadata>
Created by potrace 1.16, written by Peter Selinger 2001-2019
</metadata>
<g transform="translate(-5.463926,444.619314) scale(0.100000,-0.100000)"
fill="#000000" stroke="none">
<path d="M2070 4444 c-555 -52 -987 -248 -1365 -620 -353 -348 -557 -745 -632
-1234 -25 -162 -24 -519 1 -685 85 -556 364 -1035 811 -1391 372 -296 786
-443 1295 -460 381 -13 723 57 1045 216 223 109 392 230 576 413 184 181 322
371 429 592 105 215 170 432 202 675 16 125 16 480 0 600 -66 483 -256 873
-595 1226 -358 373 -783 589 -1287 654 -91 12 -405 21 -480 14z m493 -88 c524
-74 978 -328 1324 -741 259 -309 407 -639 469 -1047 23 -155 23 -470 0 -633
-68 -468 -261 -851 -600 -1191 -268 -267 -557 -442 -891 -537 -364 -105 -785
-112 -1155 -21 -384 95 -715 292 -1009 600 -308 322 -489 691 -557 1134 -24
159 -25 492 0 650 74 485 279 882 631 1218 430 410 937 604 1538 586 81 -2
194 -11 250 -18z"/>
<path d="M2090 4334 c-19 -2 -78 -9 -130 -15 -587 -67 -1135 -416 -1480 -944
-70 -107 -172 -318 -210 -435 -71 -216 -100 -391 -105 -640 -4 -208 5 -320 40
-496 136 -678 647 -1271 1308 -1518 421 -157 966 -166 1412 -21 508 165 972
575 1211 1070 144 299 208 612 199 970 -11 477 -154 882 -436 1236 -342 429
-795 694 -1319 774 -101 15 -418 28 -490 19z m462 -50 c375 -52 712 -200 995
-438 387 -324 621 -706 717 -1171 37 -176 48 -495 25 -690 -54 -460 -251 -858
-589 -1195 -323 -323 -715 -516 -1163 -575 -132 -17 -267 -20 -229 -5 31 13
28 30 -9 43 l-31 12 7 94 c5 80 10 97 28 112 19 15 20 18 6 24 -9 3 -49 5 -89
3 -82 -3 -104 -21 -51 -41 l31 -11 0 -94 c0 -97 2 -93 -49 -108 -31 -10 12
-33 67 -37 43 -2 35 -4 -31 -5 -48 -1 -131 3 -185 9 -559 61 -1058 348 -1408
811 -205 273 -330 576 -379 919 -19 132 -21 443 -5 577 57 463 248 850 585
1187 312 313 678 504 1092 569 54 9 109 17 123 19 75 12 439 6 542 -9z"/>
<path d="M2275 4281 c-3 -5 -31 -15 -63 -21 -75 -16 -99 -32 -113 -79 -15 -51
-4 -163 20 -193 18 -21 20 -21 67 -6 57 18 96 9 121 -28 22 -34 33 -21 33 42
0 43 4 56 18 61 26 9 52 34 46 44 -6 10 -107 10 -143 0 -32 -9 -39 -31 -12
-38 26 -7 28 -39 3 -45 -55 -15 -88 42 -71 122 12 57 37 83 76 78 25 -3 29 -8
33 -43 4 -35 8 -40 30 -40 24 0 25 3 30 73 3 41 3 76 1 78 -8 8 -70 4 -76 -5z"/>
<path d="M2066 3889 c-557 -59 -1024 -377 -1290 -879 -192 -364 -229 -865 -94
-1290 108 -341 357 -660 673 -866 304 -197 685 -283 1076 -243 278 28 509 110
736 261 137 91 360 311 450 443 211 313 308 690 275 1073 -38 428 -195 760
-499 1052 -132 127 -230 199 -383 279 -273 143 -615 205 -944 170z m525 -57
c316 -66 558 -200 800 -441 322 -322 468 -675 470 -1131 1 -483 -154 -851
-500 -1182 -293 -281 -630 -422 -1043 -435 -494 -17 -882 131 -1213 462 -224
224 -357 463 -432 775 -34 144 -44 458 -19 628 50 340 202 637 454 890 246
245 532 390 882 447 126 21 474 13 601 -13z"/>
<path d="M984 2981 c-83 -13 -122 -32 -150 -73 -66 -95 -70 -193 -12 -255 30
-32 116 -62 198 -69 l70 -7 0 -468 0 -467 -34 -12 c-75 -24 -146 -148 -131
-227 17 -90 105 -212 170 -233 104 -34 234 103 192 202 -40 92 -133 122 -187
62 -28 -32 -48 -100 -33 -114 4 -5 17 -10 27 -12 16 -2 22 6 31 37 11 37 15
40 46 40 32 0 34 -2 37 -38 2 -24 -3 -48 -13 -64 -16 -23 -22 -25 -65 -20 -62
7 -128 41 -142 72 -14 30 1 88 39 153 47 80 104 103 156 62 14 -11 50 -55 80
-98 71 -100 189 -212 261 -246 79 -38 170 -44 214 -16 44 27 71 90 78 184 6
61 4 80 -10 100 -30 47 -145 57 -218 20 -36 -19 -54 -74 -36 -110 21 -43 35
-39 59 15 20 49 23 51 60 51 72 0 99 -60 62 -137 -19 -40 -66 -73 -103 -73
-43 0 -87 36 -172 142 -129 158 -186 216 -242 242 l-51 24 3 466 2 466 145 0
145 0 0 -324 0 -324 -30 -12 c-89 -37 -105 -180 -28 -245 29 -25 38 -27 104
-23 103 5 136 39 135 140 0 61 -23 105 -66 125 -33 16 -35 20 -35 65 l0 48
180 0 180 0 0 -47 c0 -45 -2 -49 -38 -68 -51 -28 -75 -76 -68 -142 8 -91 45
-123 144 -123 99 0 143 40 144 131 1 69 -22 115 -67 136 -33 16 -35 20 -35 65
l0 48 215 0 215 0 0 -48 c0 -44 -2 -49 -36 -67 -51 -27 -67 -64 -62 -142 3
-53 9 -68 31 -91 24 -23 37 -27 100 -30 67 -4 76 -2 105 23 53 45 66 142 27
201 -9 14 -32 32 -50 41 -33 16 -35 20 -35 65 l0 48 180 0 180 0 0 -49 c0 -45
-2 -50 -30 -61 -49 -20 -73 -64 -73 -132 0 -98 43 -138 150 -138 54 0 67 4 93
28 74 65 56 206 -30 242 l-30 12 0 324 0 324 145 0 145 0 0 -478 0 -478 -47
-23 c-55 -26 -98 -59 -203 -151 -152 -134 -270 -210 -325 -210 -16 0 -42 15
-71 42 -37 34 -44 47 -42 72 3 30 33 55 86 71 24 7 24 6 20 -56 -4 -78 11 -86
60 -36 30 31 33 38 26 73 -10 54 -52 94 -100 94 -97 0 -184 -58 -184 -124 0
-61 57 -153 112 -182 77 -40 219 8 320 107 103 101 315 243 373 249 48 5 76
-2 105 -27 39 -32 52 -64 51 -125 0 -91 -51 -148 -133 -148 -41 0 -54 5 -79
29 -36 36 -37 64 -3 86 30 19 28 20 40 -25 8 -28 15 -35 34 -35 37 0 48 42 24
91 -19 39 -19 39 -74 36 -68 -4 -121 -28 -138 -65 -21 -43 -6 -113 33 -155 27
-30 39 -36 88 -40 108 -9 253 43 289 104 15 26 16 39 7 94 -20 123 -77 209
-161 245 l-38 15 0 474 0 475 53 11 c123 25 160 43 215 102 l53 56 -12 82 -13
82 -54 39 -55 39 -136 -1 c-75 -1 -149 -4 -166 -8 -54 -11 -41 -71 16 -71 l29
0 0 -130 0 -130 -146 0 -147 0 7 53 c10 74 48 151 101 203 26 25 45 50 42 57
-5 17 -66 26 -187 26 -80 1 -111 -3 -128 -15 -31 -21 -28 -34 19 -79 54 -52
69 -90 69 -175 l0 -70 -180 0 -180 0 0 39 c0 52 25 120 58 155 15 16 50 39 78
52 56 25 73 49 50 72 -21 21 -325 22 -381 2 -56 -21 -54 -48 5 -69 100 -35
109 -48 115 -166 l4 -85 -220 0 -219 0 0 90 c0 84 2 93 25 114 14 13 55 32 91
42 64 17 97 45 77 65 -26 26 -319 38 -383 16 -27 -9 -35 -18 -35 -36 0 -25 11
-34 57 -50 14 -6 38 -26 54 -46 23 -31 28 -48 32 -116 l5 -79 -182 0 -181 0 0
53 c0 105 50 190 121 204 15 3 36 14 45 24 16 18 15 20 -22 35 -30 13 -67 17
-159 16 -150 -2 -192 -8 -205 -33 -9 -16 -4 -23 31 -49 71 -51 109 -125 109
-212 l0 -38 -145 0 -145 0 0 129 0 130 51 3 c55 3 78 21 66 52 -5 13 -22 16
-94 16 -48 0 -104 2 -123 4 -19 3 -58 1 -86 -3z m106 -201 c0 -149 9 -139
-102 -120 -157 25 -192 93 -107 208 l31 42 89 0 89 0 0 -130z m2342 106 c47
-23 78 -71 78 -122 l0 -39 -88 -38 c-48 -20 -97 -37 -109 -37 -23 0 -23 2 -23
131 l0 131 53 -4 c28 -2 69 -12 89 -22z m-1532 -546 l0 -240 -180 0 -180 0 0
240 0 240 180 0 180 0 0 -240z m510 0 l0 -240 -215 0 -215 0 0 240 0 240 215
0 215 0 0 -240z m440 0 l0 -240 -180 0 -180 0 0 240 0 240 180 0 180 0 0 -240z
m-1297 -497 c23 -22 22 -78 -3 -103 -21 -21 -74 -27 -98 -11 -18 11 -31 72
-21 99 16 42 82 50 122 15z m440 0 c21 -20 22 -71 1 -101 -20 -29 -83 -31
-108 -3 -27 30 -18 102 14 118 28 15 67 9 93 -14z m515 -1 c17 -22 15 -82 -5
-104 -20 -23 -80 -24 -105 -1 -18 17 -25 77 -10 100 21 33 95 36 120 5z m417
18 c19 0 38 -38 37 -73 -1 -40 -28 -67 -66 -67 -49 0 -76 25 -76 68 0 20 4 42
8 49 10 16 54 33 70 27 8 -2 20 -4 27 -4z"/>
<path d="M740 3555 l-44 -45 43 -44 c52 -53 44 -61 -48 -52 -62 6 -68 5 -90
-18 -30 -32 -22 -56 18 -56 24 0 34 -7 46 -30 8 -16 35 -41 59 -55 36 -21 45
-32 48 -58 3 -28 6 -32 28 -29 36 5 48 21 52 67 3 34 0 40 -17 40 -26 0 -85
36 -85 52 0 10 22 13 84 13 121 0 126 13 35 86 l-71 58 4 48 c7 71 -9 77 -62
23z"/>
<path d="M3686 3383 c-89 -103 -94 -125 -41 -177 54 -54 62 -56 140 -35 39 10
92 19 118 19 48 0 67 15 53 43 -36 73 -66 91 -76 47 -12 -52 -124 -87 -194
-60 -37 14 -36 62 2 88 63 45 114 64 138 53 13 -5 26 -6 29 -2 6 10 -71 111
-84 111 -5 0 -43 -39 -85 -87z"/>
<path d="M664 1276 c-63 -29 -84 -58 -84 -114 0 -39 5 -48 51 -93 28 -27 59
-49 70 -49 43 0 126 48 156 89 10 16 10 27 -3 64 -17 50 -91 127 -121 127 -10
0 -41 -11 -69 -24z m136 -66 c0 -30 -25 -64 -70 -95 -38 -27 -39 -27 -69 -9
-58 34 -31 80 64 110 59 19 75 17 75 -6z"/>
<path d="M3621 1206 c-18 -25 -43 -53 -56 -62 -47 -31 -40 -67 19 -104 31 -19
43 -20 112 -14 71 6 77 6 71 -10 -4 -10 -7 -22 -7 -27 0 -6 -4 -8 -9 -5 -16
10 -72 -6 -79 -22 -6 -18 41 -62 67 -62 9 0 32 15 50 34 33 34 33 35 22 83
-20 83 -36 95 -130 101 -44 2 -81 9 -81 14 0 12 45 28 80 28 44 0 46 18 7 57
l-35 35 -31 -46z"/>
</g>
</svg>
