<?xml version="1.0" standalone="no"?>
<!DOCTYPE svg PUBLIC "-//W3C//DTD SVG 20010904//EN"
 "http://www.w3.org/TR/2001/REC-SVG-20010904/DTD/svg10.dtd">
<svg version="1.0" xmlns="http://www.w3.org/2000/svg"
 width="438.913342pt" height="439.200790pt" viewBox="0 0 438.913342 439.200790"
 preserveAspectRatio="xMidYMid meet">
<metadata>
Created by potrace 1.16, written by Peter Selinger 2001-2019
</metadata>
<g transform="translate(-5.475568,443.660770) scale(0.100000,-0.100000)"
fill="#000000" stroke="none">
<path d="M2085 4434 c-341 -34 -550 -88 -800 -209 -219 -105 -410 -242 -595
-426 -345 -346 -542 -735 -617 -1219 -25 -161 -24 -518 1 -685 72 -474 274
-873 616 -1215 345 -345 732 -540 1220 -617 160 -25 519 -25 680 0 483 75 873
272 1219 618 186 187 312 360 421 584 104 213 168 426 202 675 16 121 16 476
-1 600 -63 474 -253 870 -583 1215 -355 372 -770 589 -1260 660 -101 15 -424
27 -503 19z m491 -90 c510 -74 950 -319 1295 -721 148 -172 260 -351 343 -545
127 -300 182 -654 156 -1003 -39 -532 -237 -964 -614 -1340 -370 -369 -771
-559 -1296 -615 -118 -12 -402 -4 -539 15 -468 66 -877 281 -1216 637 -383
402 -569 858 -580 1423 -12 616 191 1125 619 1550 438 436 952 638 1576 619
85 -3 200 -12 256 -20z"/>
<path d="M2005 4315 c-487 -55 -890 -249 -1235 -595 -390 -391 -584 -840 -606
-1400 -26 -657 227 -1243 722 -1670 402 -347 898 -518 1444 -497 505 20 911
178 1285 500 390 335 624 759 701 1267 25 159 25 483 1 640 -70 458 -256 826
-583 1156 -395 396 -865 597 -1429 609 -110 2 -227 -2 -300 -10z m536 -40
c220 -29 410 -86 604 -180 217 -105 348 -199 538 -384 197 -192 312 -350 422
-576 139 -285 195 -544 195 -900 0 -357 -59 -617 -206 -915 -145 -292 -359
-544 -637 -749 -283 -208 -601 -331 -962 -371 -118 -13 -371 -13 -493 1 -543
59 -1023 328 -1375 769 -224 280 -360 599 -412 962 -20 143 -20 476 1 621 69
479 298 900 669 1229 101 90 241 194 318 236 23 13 65 36 92 51 175 97 417
172 655 206 129 18 458 18 591 0z"/>
<path d="M2325 4261 c-6 -5 -36 -11 -67 -12 -66 -3 -115 -29 -124 -65 -8 -31
4 -44 86 -99 77 -51 116 -107 79 -113 -39 -7 -70 9 -114 56 l-44 47 -9 -25
c-15 -41 -24 -118 -14 -124 6 -3 15 0 21 8 10 12 20 12 63 1 28 -8 56 -19 61
-24 20 -20 42 -10 85 39 42 48 42 50 29 82 -13 30 -38 56 -132 131 -44 36 -44
47 -2 47 41 0 54 -9 62 -43 7 -28 43 -52 57 -38 3 3 8 35 10 71 3 59 1 65 -17
68 -11 1 -25 -2 -30 -7z"/>
<path d="M2115 3884 c-147 -17 -223 -29 -300 -49 -415 -105 -760 -371 -1010
-779 -15 -25 -19 -27 -27 -13 -11 21 -27 21 -49 1 -16 -15 -22 -15 -64 1 -80
31 -135 71 -135 99 0 37 -17 40 -37 9 -9 -15 -27 -37 -39 -48 -13 -11 -24 -29
-26 -40 -2 -17 3 -20 32 -21 22 -1 65 -18 117 -48 80 -46 81 -48 76 -80 -12
-73 47 -44 93 47 35 68 38 58 4 -15 -173 -383 -196 -852 -63 -1257 38 -116
135 -305 210 -410 134 -187 352 -382 547 -490 458 -253 1062 -268 1536 -38
157 76 284 170 436 321 297 297 439 603 476 1029 37 428 -91 855 -353 1172
-251 305 -574 504 -941 579 -142 29 -366 43 -483 30z m500 -68 c319 -74 537
-196 776 -435 239 -240 362 -460 434 -776 37 -161 47 -453 21 -617 -59 -371
-203 -647 -478 -914 -184 -178 -360 -285 -597 -364 -156 -52 -266 -71 -453
-77 -345 -12 -634 56 -890 210 -142 85 -216 144 -333 262 -221 223 -363 487
-426 789 -25 117 -38 376 -26 506 34 377 186 705 451 973 232 234 480 373 786
441 157 34 157 34 400 32 195 -2 226 -5 335 -30z"/>
<path d="M2053 3249 c-22 -22 -15 -37 31 -68 62 -43 94 -112 106 -227 5 -49
10 -95 10 -101 0 -16 -70 -17 -142 -2 -68 15 -125 44 -160 81 -55 59 -68 18
-68 -209 0 -115 2 -135 16 -140 11 -4 22 1 29 13 30 44 102 122 123 133 13 6
63 11 111 11 l89 0 7 -55 c7 -61 11 -54 -98 -198 -32 -43 -56 -84 -53 -92 6
-17 67 -35 119 -35 l37 0 0 -50 0 -50 -420 0 -420 0 0 54 0 53 82 7 c89 7 116
20 84 40 -119 73 -149 119 -154 239 l-5 90 70 -6 c91 -7 126 -23 193 -85 43
-41 57 -49 67 -39 12 11 37 356 27 366 -17 18 -45 6 -69 -27 -16 -20 -46 -56
-69 -79 l-40 -43 -86 0 c-83 0 -87 1 -98 25 -23 49 -15 109 19 151 18 22 44
65 60 98 15 32 42 71 60 85 19 17 29 32 25 39 -9 14 -372 17 -380 3 -6 -10 69
-126 116 -180 16 -18 27 -40 24 -48 -3 -8 -6 -50 -6 -94 l0 -79 -84 0 c-82 0
-85 1 -126 35 -24 20 -61 58 -83 85 -22 28 -44 50 -48 50 -26 0 -32 -38 -33
-218 l-1 -187 25 3 c14 2 41 22 64 48 49 57 81 73 158 80 35 2 78 7 97 9 l33
4 -4 -83 c-5 -103 -42 -187 -95 -218 -24 -15 -33 -27 -31 -42 3 -18 13 -22 71
-30 l67 -9 0 -49 0 -48 -163 0 -163 0 -17 29 c-32 55 -120 77 -192 47 -42 -18
-62 -48 -70 -108 -9 -57 6 -106 41 -139 22 -21 35 -24 99 -24 67 0 76 2 103
28 16 16 34 43 39 60 l9 32 154 0 155 0 6 -235 c7 -271 19 -334 94 -485 125
-253 348 -432 616 -496 l97 -23 -20 -38 c-16 -30 -19 -52 -16 -103 7 -110 60
-157 178 -157 118 0 171 47 178 157 3 51 0 73 -16 104 l-21 39 42 7 c79 13
222 65 291 105 183 107 333 277 407 461 53 132 61 182 68 429 l6 235 157 3
157 3 7 -26 c3 -13 22 -38 40 -55 31 -27 42 -30 100 -30 61 0 68 2 98 33 52
51 57 144 11 213 -29 45 -146 55 -203 18 -13 -9 -30 -31 -38 -50 l-14 -34
-161 0 -160 0 3 48 3 47 60 5 c72 6 82 25 32 63 -18 14 -50 49 -70 79 -34 48
-38 63 -45 140 -4 47 -6 91 -4 97 2 6 30 11 69 11 64 0 66 -1 121 -51 85 -78
122 -103 133 -92 11 11 25 313 16 337 -6 15 -11 15 -49 -5 -23 -12 -64 -43
-92 -69 -63 -60 -92 -68 -153 -45 l-46 18 7 68 c9 103 40 174 99 231 31 29 47
52 41 57 -5 5 -83 12 -174 16 -144 6 -168 5 -185 -9 -20 -16 -20 -17 5 -33 93
-63 140 -152 140 -268 l0 -62 -77 -6 -78 -5 -76 75 -76 75 -17 -23 c-13 -19
-16 -47 -15 -134 1 -142 11 -227 26 -232 6 -2 27 20 46 50 53 82 84 100 184
105 l83 5 0 -56 c0 -138 -54 -259 -128 -288 -15 -6 -22 -16 -20 -27 3 -14 17
-17 86 -20 l82 -3 0 -49 0 -50 -421 0 -420 0 3 52 3 53 55 8 c30 5 59 13 64
17 11 11 -22 65 -85 140 -49 59 -53 74 -50 188 1 32 2 32 50 32 72 0 95 -12
183 -97 69 -67 80 -75 93 -62 29 29 35 111 19 246 -9 71 -19 132 -24 136 -4 5
-41 -24 -81 -63 l-74 -72 -84 -10 c-97 -12 -101 -9 -101 63 0 100 66 251 133
303 20 16 28 29 24 40 -6 15 -24 17 -149 14 -79 -2 -156 1 -173 5 -20 6 -34 4
-42 -4z m1665 -976 c17 -24 15 -88 -4 -107 -20 -21 -83 -20 -106 1 -34 30 -20
110 22 126 24 10 74 -2 88 -20z m-2845 -4 c30 -16 37 -28 37 -71 0 -43 -27
-68 -76 -68 -41 0 -68 31 -68 77 0 58 54 89 107 62z m807 -86 c-1 -5 -7 -19
-15 -33 -21 -37 -19 -133 5 -179 26 -52 76 -76 160 -75 94 1 144 31 169 103
15 47 14 105 -4 148 -8 19 -15 37 -15 39 0 2 122 4 270 4 149 0 270 -2 270 -4
0 -2 -7 -21 -16 -42 -20 -47 -14 -142 11 -180 50 -77 214 -95 284 -31 50 46
67 150 37 222 l-15 35 155 0 156 0 -4 -227 c-4 -196 -8 -239 -27 -307 -84
-299 -324 -536 -626 -617 -114 -31 -336 -31 -450 0 -307 83 -543 319 -626 626
-18 67 -23 116 -26 303 l-5 222 156 0 c86 0 156 -3 156 -7z m217 -18 c32 -21
46 -61 39 -110 -7 -56 -43 -85 -106 -85 -26 0 -56 3 -65 6 -42 17 -60 129 -27
171 34 44 106 52 159 18z m815 14 c44 -12 68 -49 68 -104 0 -73 -32 -104 -108
-105 -47 0 -58 4 -84 30 -28 28 -30 35 -26 81 7 68 36 99 103 108 6 0 27 -4
47 -10z m-377 -1281 c24 -28 27 -39 22 -82 -6 -68 -38 -96 -108 -96 -42 0 -55
5 -80 29 -23 23 -29 38 -29 71 0 79 31 109 112 110 51 0 59 -3 83 -32z"/>
<path d="M4051 3031 c-6 -11 -11 -26 -11 -33 0 -8 -37 -30 -83 -49 -66 -28
-88 -33 -105 -26 -38 17 -46 -3 -27 -70 9 -32 23 -73 31 -91 12 -29 16 -32 34
-22 15 8 21 20 20 38 -1 15 -2 35 -1 44 1 22 62 63 124 84 47 16 49 16 63 -5
21 -30 34 -17 34 32 -1 33 -8 50 -35 80 -32 37 -34 38 -44 18z"/>
<path d="M1062 950 c-31 -13 -23 -33 14 -41 18 -3 28 -10 26 -19 -2 -8 -6 -36
-9 -61 -5 -44 -8 -48 -38 -53 -65 -13 -91 -75 -51 -123 29 -34 141 -97 156
-88 6 4 10 23 9 43 -2 29 6 49 35 90 34 47 42 52 76 52 46 0 69 22 49 46 -7 9
-39 34 -71 55 -54 37 -58 38 -67 20 -7 -13 -7 -29 0 -50 8 -24 8 -35 -1 -46
-35 -42 -58 5 -42 82 18 81 -19 120 -86 93z m59 -235 l29 -16 -21 -29 c-17
-23 -26 -27 -39 -20 -20 10 -30 32 -30 61 0 23 21 24 61 4z"/>
<path d="M3275 822 c-57 -43 -67 -77 -23 -77 29 0 69 -33 100 -83 29 -47 14
-59 -48 -38 -64 22 -75 9 -40 -45 25 -38 31 -41 61 -36 21 3 68 33 125 78 l92
73 -6 50 c-3 31 -13 58 -26 70 -20 20 -22 20 -35 3 -7 -10 -16 -45 -20 -78 -7
-56 -8 -58 -28 -48 -27 14 -52 43 -77 91 -17 31 -18 38 -5 48 16 13 11 30 -8
30 -7 0 -34 -17 -62 -38z"/>
</g>
</svg>
