<?xml version="1.0" standalone="no"?>
<!DOCTYPE svg PUBLIC "-//W3C//DTD SVG 20010904//EN"
 "http://www.w3.org/TR/2001/REC-SVG-20010904/DTD/svg10.dtd">
<svg version="1.0" xmlns="http://www.w3.org/2000/svg"
 width="438.924119pt" height="439.055424pt" viewBox="0 0 438.924119 439.055424"
 preserveAspectRatio="xMidYMid meet">
<metadata>
Created by potrace 1.16, written by Peter Selinger 2001-2019
</metadata>
<g transform="translate(-5.543175,444.548669) scale(0.100000,-0.100000)"
fill="#000000" stroke="none">
<path d="M2020 4439 c-517 -51 -953 -257 -1323 -623 -343 -340 -544 -730 -619
-1197 -18 -118 -23 -183 -23 -364 0 -385 60 -665 209 -971 110 -226 240 -408
424 -592 354 -354 748 -549 1257 -624 136 -20 502 -17 645 5 486 75 875 273
1223 622 343 344 543 742 613 1220 25 165 25 505 0 665 -77 509 -286 910 -661
1268 -338 323 -714 507 -1175 577 -129 19 -442 27 -570 14z m550 -84 c517 -73
970 -327 1317 -740 259 -309 410 -646 469 -1050 21 -142 24 -476 5 -600 -73
-485 -242 -841 -562 -1179 -345 -365 -765 -581 -1259 -647 -142 -19 -480 -16
-620 5 -450 69 -818 252 -1149 571 -350 337 -553 729 -627 1208 -21 137 -24
476 -5 617 66 494 282 914 647 1259 370 350 798 537 1319 575 96 7 351 -3 465
-19z"/>
<path d="M2080 4334 c-475 -44 -851 -200 -1195 -497 -355 -305 -592 -703 -679
-1139 -36 -178 -45 -290 -41 -498 4 -195 19 -318 60 -487 136 -565 567 -1088
1116 -1353 472 -227 1071 -263 1589 -94 506 166 976 583 1210 1077 139 294
194 550 194 907 0 273 -31 471 -111 709 -38 115 -143 324 -216 434 -344 512
-850 838 -1432 923 -100 14 -411 26 -495 18z m530 -58 c353 -61 662 -202 934
-426 89 -73 276 -264 342 -350 217 -280 352 -604 400 -959 31 -232 17 -545
-35 -777 -42 -190 -142 -432 -243 -594 -240 -382 -616 -693 -1023 -845 -349
-131 -794 -163 -1178 -84 -335 68 -628 215 -909 456 -378 325 -618 763 -684
1253 -18 133 -20 451 -4 574 61 466 249 845 585 1181 373 374 815 570 1330
593 179 8 355 0 485 -22z"/>
<path d="M2070 4273 c-70 -7 -95 -42 -45 -65 24 -11 25 -14 25 -113 0 -100 0
-102 -26 -114 -21 -9 -24 -14 -14 -26 10 -12 40 -15 140 -15 108 0 129 3 142
18 26 30 28 63 7 111 -13 30 -16 47 -9 49 21 7 32 54 19 84 -22 54 -120 83
-239 71z m154 -69 c31 -30 20 -51 -30 -59 -52 -7 -64 1 -64 48 0 25 3 27 39
27 23 0 46 -7 55 -16z m-29 -129 c21 -8 39 -25 45 -41 13 -34 1 -48 -43 -48
-56 0 -63 7 -59 58 4 51 7 52 57 31z"/>
<path d="M2066 3890 c-505 -58 -917 -308 -1199 -728 -361 -538 -354 -1324 16
-1849 286 -406 694 -650 1172 -702 409 -43 786 45 1115 263 133 88 357 309
446 441 179 263 270 550 279 880 12 388 -94 742 -306 1025 -268 360 -631 585
-1054 655 -112 19 -364 27 -469 15z m559 -64 c308 -71 524 -193 760 -430 246
-246 377 -482 445 -801 31 -143 39 -449 16 -597 -59 -373 -204 -651 -482 -918
-223 -214 -472 -346 -780 -412 -97 -20 -134 -23 -339 -22 -257 1 -331 12 -533
79 -444 149 -832 535 -991 988 -64 182 -75 265 -75 537 0 215 3 257 22 343 48
214 135 413 255 584 78 110 256 292 366 372 215 159 441 253 708 296 61 10
151 13 298 11 187 -2 223 -6 330 -30z"/>
<path d="M2575 3394 c-16 -8 -43 -27 -58 -42 -39 -37 -114 -190 -129 -263
l-12 -60 -86 -40 c-177 -83 -291 -132 -296 -126 -3 3 22 38 56 79 106 125 136
223 90 300 -19 33 -22 34 -87 36 -66 3 -70 1 -153 -50 -47 -28 -115 -82 -151
-119 -81 -81 -113 -94 -223 -86 -93 6 -173 37 -208 82 -12 15 -48 47 -80 71
-99 73 -210 81 -268 19 -13 -14 -19 -26 -14 -26 5 -1 41 -2 79 -3 102 -2 179
-39 205 -99 30 -67 33 -114 16 -217 -9 -52 -19 -96 -21 -98 -3 -3 -43 3 -90
12 -59 12 -104 15 -143 10 -69 -8 -86 -16 -134 -62 -53 -51 -52 -88 3 -136 49
-42 128 -71 167 -61 15 3 38 14 52 23 14 9 51 27 83 38 l57 22 5 -22 c3 -11 9
-57 14 -100 11 -94 24 -72 -148 -256 -127 -138 -183 -230 -216 -355 -42 -162
-24 -351 47 -487 70 -136 226 -277 306 -278 33 0 116 45 141 76 52 66 50 189
-3 243 -34 34 -109 40 -162 13 -63 -32 -76 -52 -72 -113 3 -49 5 -54 27 -57
30 -5 51 20 51 59 0 24 5 29 35 35 27 5 41 2 55 -11 40 -36 34 -121 -10 -145
-11 -6 -44 -11 -72 -12 -66 0 -119 36 -165 112 -43 71 -83 196 -90 283 l-6 67
292 0 c160 0 291 -3 291 -7 -1 -5 -7 -19 -15 -33 -17 -30 -19 -117 -4 -157 17
-47 58 -81 111 -93 94 -23 185 10 220 80 22 43 23 135 3 170 -8 14 -14 28 -15
33 0 4 128 7 285 7 157 0 285 -2 285 -5 0 -3 -10 -20 -22 -36 -33 -44 -31
-128 2 -189 19 -34 38 -51 83 -74 56 -29 57 -29 89 -12 31 17 37 17 97 1 63
-16 64 -16 88 7 63 58 85 176 49 260 -9 21 -16 40 -16 43 0 3 32 5 71 3 l71
-3 1 -61 c2 -73 20 -99 79 -114 53 -15 107 -2 141 32 26 25 28 34 26 85 l-3
58 133 3 134 3 -5 -76 c-4 -61 -12 -90 -39 -143 -34 -66 -35 -67 -82 -72 -49
-6 -68 0 -104 32 -25 23 -43 16 -43 -16 0 -42 105 -106 172 -106 61 0 97 42
118 135 10 44 60 419 60 449 0 30 94 -6 147 -56 17 -17 36 -27 42 -24 12 8 13
112 2 211 -7 73 -28 80 -49 17 -19 -57 -51 -78 -100 -66 -21 5 -38 16 -40 25
-4 21 42 75 79 95 30 15 40 51 17 59 -26 9 -261 -10 -265 -21 -2 -6 19 -26 46
-43 67 -43 84 -111 28 -111 -48 0 -101 23 -133 58 -49 53 -59 37 -58 -92 0
-57 4 -111 7 -120 10 -25 43 -4 67 44 20 40 21 40 79 40 l58 0 7 -46 c3 -26 6
-60 6 -75 l0 -29 -143 0 -142 0 3 45 c8 91 -34 135 -127 135 -42 0 -56 -5 -83
-29 -30 -27 -33 -34 -33 -90 l0 -61 -117 0 c-65 0 -118 4 -118 8 0 4 18 36 40
70 23 36 40 73 40 90 0 54 -25 95 -74 121 -35 18 -46 29 -46 48 0 28 -5 30 98
-39 l73 -49 133 0 c183 -1 220 20 233 129 7 59 -12 97 -76 155 -86 78 -221 89
-373 30 -63 -25 -81 -28 -99 -19 -67 34 -42 94 96 231 125 124 349 305 378
305 2 0 7 -25 10 -56 9 -88 40 -120 135 -138 31 -5 39 -1 93 51 32 31 59 64
59 75 0 29 -40 107 -66 127 -31 25 -32 53 -1 47 12 -3 47 -8 77 -11 62 -7 75
2 119 75 41 69 21 209 -34 230 -90 34 -176 -25 -163 -112 4 -33 23 -28 50 12
45 67 98 46 98 -38 0 -35 -6 -49 -29 -73 -35 -35 -51 -36 -101 -8 l-38 22 -37
-23 c-20 -12 -47 -39 -60 -60 -18 -29 -32 -39 -62 -44 -153 -26 -416 -221
-543 -404 -24 -34 -48 -61 -54 -59 -12 4 -87 255 -112 370 -14 71 -18 165 -8
205 4 12 38 45 78 74 106 77 185 147 203 181 18 36 13 105 -11 142 -14 21 -24
25 -69 25 -28 0 -65 -7 -82 -16z m95 -80 c0 -58 -51 -130 -132 -184 -33 -22
-64 -40 -69 -40 -10 0 -1 52 16 96 25 62 141 169 171 157 8 -3 14 -16 14 -29z
m-595 -115 c6 -6 10 -38 10 -72 -1 -76 -15 -99 -102 -168 -35 -28 -79 -71 -96
-97 -49 -70 -57 -76 -147 -105 -47 -15 -100 -36 -117 -47 -28 -17 -33 -25 -33
-59 0 -83 32 -117 118 -128 102 -12 134 17 142 130 l5 68 165 73 c91 40 210
94 264 119 54 26 100 47 101 47 1 0 5 -35 9 -77 8 -96 56 -333 95 -472 l29
-105 -30 -43 c-27 -37 -38 -44 -87 -53 -85 -17 -87 -18 -121 -57 -23 -26 -34
-33 -43 -24 -20 20 -36 12 -52 -26 -25 -60 -37 -68 -95 -64 -58 3 -66 13 -56
66 5 27 16 40 52 61 25 15 43 31 41 38 -2 6 -24 12 -48 14 -24 2 -77 5 -116 8
-99 8 -106 -9 -33 -74 50 -45 52 -50 43 -77 -11 -35 -25 -39 -109 -30 -58 6
-64 9 -88 45 -35 53 -92 107 -122 114 -38 10 -82 -23 -183 -134 -109 -120
-123 -153 -86 -215 35 -61 48 -69 98 -61 108 18 134 18 165 2 19 -10 56 -16
96 -16 59 0 67 3 82 25 9 14 21 57 27 95 l11 70 47 0 c25 0 48 -3 52 -6 13
-14 -24 -100 -55 -126 -48 -41 -30 -49 98 -46 89 2 109 6 109 18 0 8 -10 16
-21 18 -36 5 -58 38 -58 90 l-1 47 37 3 c34 3 43 -2 88 -49 71 -74 84 -66 76
50 -5 68 -3 91 7 100 11 8 19 5 36 -13 60 -64 146 -56 218 20 28 28 51 44 67
44 21 0 24 -5 28 -45 3 -43 2 -46 -28 -55 -32 -11 -84 -59 -103 -97 -18 -36
-13 -86 14 -126 14 -20 32 -37 40 -37 20 0 65 -22 65 -32 0 -4 -363 -8 -806
-8 l-807 0 6 68 c14 142 65 274 131 334 38 35 46 35 80 -1 99 -103 234 -61
267 83 12 55 11 61 -11 103 -13 24 -42 61 -65 81 -38 34 -43 42 -49 100 -4 34
-15 95 -25 134 l-18 71 24 54 c14 29 31 90 39 135 8 45 16 83 18 86 3 2 13 1
24 -2 15 -5 21 -19 26 -67 3 -34 12 -73 19 -88 14 -28 6 -28 180 -21 74 3 79
4 88 29 6 14 9 58 8 98 l-2 72 94 72 c52 40 117 92 144 116 44 38 54 43 85 37
19 -3 40 -10 45 -15z m-415 -308 c0 -55 -2 -59 -20 -54 -12 3 -27 18 -35 32
-30 60 -54 59 -69 -1 -3 -16 -13 -28 -21 -28 -11 0 -15 12 -15 48 0 27 3 52 7
55 3 4 39 7 80 7 l73 0 0 -59z m1639 -96 c21 -25 31 -46 31 -68 0 -28 -5 -36
-35 -50 -49 -23 -75 -7 -75 46 0 41 24 107 38 107 6 0 24 -16 41 -35z m-2189
-100 c50 -26 39 -50 -27 -64 -31 -6 -78 -11 -105 -11 -47 0 -48 1 -48 30 0 22
7 33 28 44 35 20 115 20 152 1z m664 -15 c5 -5 5 -29 2 -54 -7 -43 -9 -45 -49
-54 -33 -7 -45 -6 -54 6 -14 17 -17 80 -5 98 14 22 83 24 106 4z m-440 -371
c26 -20 56 -68 56 -88 0 -5 -12 -23 -26 -40 -30 -36 -75 -41 -113 -12 -22 16
-23 23 -17 67 12 89 47 115 100 73z m1693 -80 c109 -53 124 -153 28 -193 -30
-13 -40 -12 -110 10 -42 13 -80 24 -86 24 -23 0 -149 93 -149 110 0 24 5 27
92 50 98 26 171 25 225 -1z m-593 -95 c12 -31 5 -45 -29 -60 -55 -23 -65 -19
-65 24 0 48 4 52 51 52 24 0 39 -5 43 -16z m-724 -91 c103 -144 109 -185 33
-199 -47 -9 -62 2 -93 62 -14 27 -29 48 -34 48 -5 -1 -21 -19 -36 -40 -33 -49
-69 -68 -104 -54 -31 11 -35 53 -10 103 21 43 144 167 165 167 9 0 44 -39 79
-87z m870 -158 c0 -58 -2 -65 -20 -65 -14 0 -21 9 -25 38 -13 76 -10 92 20 92
24 0 25 -2 25 -65z m114 43 c3 -13 6 -42 6 -65 0 -36 -3 -43 -20 -43 -18 0
-20 7 -20 65 0 49 3 65 14 65 7 0 16 -10 20 -22z m400 -114 c19 -18 21 -65 4
-82 -20 -20 -76 -15 -88 7 -32 61 37 123 84 75z m-1314 -200 c36 -35 36 -121
1 -158 -21 -22 -33 -26 -80 -26 -31 0 -63 6 -72 13 -60 46 -47 178 19 193 15
3 32 7 37 9 24 7 72 -9 95 -31z m1318 14 c17 -14 15 -63 -3 -78 -8 -7 -26 -12
-40 -12 -35 0 -55 19 -55 53 0 49 55 70 98 37z m-570 -42 c15 -8 36 -23 46
-35 26 -29 43 -26 83 14 38 38 57 42 87 20 15 -12 18 -24 14 -70 -3 -34 -12
-66 -25 -83 -24 -33 -61 -41 -69 -15 -17 54 -44 60 -80 17 -11 -14 -35 -27
-56 -30 -34 -6 -36 -4 -57 38 -25 52 -27 105 -5 136 18 26 26 27 62 8z"/>
<path d="M710 3573 c-16 -16 -31 -39 -32 -53 -3 -22 0 -24 28 -22 44 4 60 -18
39 -57 -19 -38 -52 -41 -65 -6 -6 16 -17 25 -30 25 -42 0 -92 -75 -76 -115 5
-13 9 -13 26 -3 17 11 30 7 96 -25 72 -36 75 -39 69 -66 -10 -46 12 -46 56 -2
52 52 51 83 -4 92 -20 3 -40 8 -43 11 -9 10 8 59 23 65 21 8 59 -15 72 -44
l11 -24 41 23 c54 30 65 44 49 63 -7 9 -18 14 -24 12 -28 -10 -123 57 -160
113 -14 22 -31 40 -36 40 -5 0 -23 -12 -40 -27z"/>
<path d="M3721 3467 c-31 -72 -90 -108 -142 -86 -44 18 -58 0 -36 -47 22 -46
126 -174 141 -174 6 0 26 9 44 20 46 28 40 54 -13 58 -33 2 -44 9 -63 38 -18
28 -21 39 -11 50 19 23 47 16 64 -16 l16 -31 30 22 c33 23 34 42 1 47 -30 5
-28 26 5 51 l26 21 20 -32 c16 -27 17 -37 8 -70 -7 -21 -9 -43 -6 -48 9 -14
69 -12 83 2 20 20 13 72 -16 119 -30 46 -105 119 -122 119 -6 0 -19 -20 -29
-43z"/>
<path d="M757 1353 c-4 -3 -7 -20 -7 -37 0 -58 -136 -150 -153 -103 -2 6 2 28
10 46 19 48 12 64 -24 50 -65 -25 -74 -58 -36 -133 15 -29 113 -156 120 -156
15 0 72 31 86 48 25 28 16 38 -39 47 l-46 7 23 25 c33 34 73 54 128 62 30 4
47 12 49 22 1 8 -14 41 -35 72 -34 52 -59 68 -76 50z"/>
<path d="M3694 1302 c-21 -26 -59 -70 -86 -99 -49 -53 -59 -84 -38 -124 12
-21 48 -26 55 -6 2 6 6 29 10 49 3 21 17 51 31 68 l26 30 35 -43 c20 -23 53
-68 75 -100 22 -33 43 -55 47 -50 78 94 81 100 62 117 -10 9 -32 16 -49 16
-22 0 -36 7 -49 26 -10 15 -30 38 -44 52 -22 20 -26 31 -22 62 8 55 -10 56
-53 2z"/>
<path d="M2165 503 c-31 -8 -45 -23 -45 -50 0 -32 19 -37 67 -16 26 12 56 17
87 15 44 -4 46 -5 42 -31 -2 -14 -5 -30 -5 -35 -1 -4 -10 2 -20 15 -16 20 -23
22 -38 13 -24 -15 -30 -72 -9 -80 9 -4 22 -1 30 5 19 16 46 3 46 -23 0 -33
-19 -46 -67 -46 -38 0 -45 4 -53 26 -7 16 -16 24 -28 22 -13 -3 -17 -13 -17
-48 l0 -45 120 3 c125 4 154 13 121 37 -17 13 -18 23 -13 101 5 71 10 91 28
110 13 13 21 24 18 24 -2 0 -58 2 -124 4 -66 2 -129 2 -140 -1z"/>
</g>
</svg>
