<?xml version="1.0" standalone="no"?>
<!DOCTYPE svg PUBLIC "-//W3C//DTD SVG 20010904//EN"
 "http://www.w3.org/TR/2001/REC-SVG-20010904/DTD/svg10.dtd">
<svg version="1.0" xmlns="http://www.w3.org/2000/svg"
 width="438.961907pt" height="439.113020pt" viewBox="0 0 438.961907 439.113020"
 preserveAspectRatio="xMidYMid meet">
<metadata>
Created by potrace 1.16, written by Peter Selinger 2001-2019
</metadata>
<g transform="translate(-5.475725,443.619314) scale(0.100000,-0.100000)"
fill="#000000" stroke="none">
<path d="M2070 4434 c-562 -53 -997 -252 -1376 -632 -349 -348 -547 -739 -621
-1222 -25 -163 -24 -520 1 -685 72 -475 275 -874 616 -1215 353 -353 748 -548
1255 -622 137 -19 503 -17 645 5 487 76 875 273 1223 622 344 345 543 742 613
1221 22 146 25 494 6 634 -67 484 -256 873 -595 1226 -358 373 -783 589 -1287
654 -91 12 -405 21 -480 14z m350 -74 c336 -25 623 -111 890 -267 424 -248
760 -637 928 -1076 158 -411 182 -907 65 -1357 -141 -548 -576 -1072 -1108
-1335 -296 -146 -575 -208 -940 -209 -214 0 -323 11 -504 51 -745 164 -1381
787 -1565 1533 -98 401 -82 858 45 1235 183 546 632 1032 1164 1261 316 136
661 191 1025 164z"/>
<path d="M2090 4324 c-240 -25 -376 -52 -540 -109 -627 -217 -1143 -765 -1314
-1395 -88 -326 -98 -713 -25 -1055 67 -315 225 -629 447 -887 430 -498 1014
-751 1672 -725 562 23 1016 220 1405 612 333 334 518 711 587 1190 19 131 15
463 -6 605 -55 369 -192 689 -417 971 -315 395 -736 659 -1204 754 -164 33
-467 53 -605 39z m452 -49 c360 -46 686 -184 978 -416 108 -85 307 -290 388
-397 203 -272 333 -591 377 -929 17 -128 20 -450 6 -553 -62 -438 -205 -763
-476 -1078 -349 -406 -808 -648 -1334 -703 -158 -16 -463 -7 -611 20 -513 91
-951 365 -1283 803 -200 264 -327 578 -372 918 -21 153 -20 466 0 607 66 454
253 823 585 1153 465 463 1065 660 1742 575z"/>
<path d="M2093 4264 c-39 -17 -42 -31 -8 -44 24 -9 25 -14 27 -90 0 -44 1 -85
2 -92 1 -7 -10 -15 -24 -18 -14 -3 -25 -12 -25 -20 0 -21 296 -28 312 -8 18
23 23 75 8 88 -11 9 -25 3 -69 -30 -49 -37 -58 -40 -88 -32 l-33 8 -3 96 -3
96 31 10 c16 6 30 16 30 21 0 31 -99 41 -157 15z"/>
<path d="M2105 3883 c-549 -47 -1009 -338 -1291 -816 -232 -392 -278 -939
-117 -1400 107 -308 324 -589 616 -794 307 -216 721 -317 1125 -272 410 45
722 202 1020 514 320 334 473 781 434 1258 -20 240 -62 399 -156 592 -80 163
-162 279 -296 418 -234 244 -514 403 -822 467 -158 33 -363 46 -513 33z m486
-61 c300 -63 550 -197 777 -416 339 -329 491 -691 493 -1171 1 -455 -147 -813
-470 -1135 -200 -200 -370 -307 -618 -390 -175 -58 -267 -72 -493 -76 -266 -4
-432 23 -635 103 -497 196 -861 626 -977 1156 -29 133 -36 451 -14 605 68 463
338 867 757 1130 141 89 355 170 519 196 52 9 106 18 120 20 14 2 120 3 235 1
161 -3 233 -8 306 -23z"/>
<path d="M1625 3101 c-3 -5 22 -24 55 -42 76 -40 154 -124 203 -216 20 -39 37
-76 37 -82 0 -8 -49 -11 -155 -11 l-155 0 7 28 c11 36 7 107 -7 132 -43 80
-217 80 -260 0 -14 -25 -18 -96 -7 -132 l7 -28 -79 0 -80 0 15 35 c17 40 18
122 3 162 -29 78 -117 115 -220 94 -89 -19 -129 -73 -129 -177 0 -58 15 -97
49 -128 l21 -19 -30 -34 c-16 -18 -33 -45 -36 -60 -11 -42 13 -243 51 -431
156 -775 511 -1138 1162 -1192 325 -27 549 46 749 245 216 215 347 518 453
1050 l36 180 40 -13 c46 -16 232 -10 266 9 20 10 20 11 3 30 -9 10 -23 19 -31
19 -7 0 -13 10 -14 23 0 12 -2 48 -4 80 l-4 57 59 0 c50 0 61 3 70 21 21 38 6
49 -65 49 l-65 0 0 73 0 72 37 20 c77 42 45 62 -111 71 -147 9 -193 -16 -126
-68 33 -26 40 -62 26 -125 -7 -31 -11 -33 -48 -33 -35 0 -39 2 -32 18 5 9 9
45 9 79 0 57 -3 65 -32 94 -26 26 -41 33 -86 37 -110 9 -167 -36 -167 -131 0
-26 7 -61 15 -77 l16 -30 -126 0 -125 0 0 38 c0 83 10 109 44 119 17 5 31 15
31 23 0 12 -24 16 -129 18 -141 3 -170 -6 -117 -35 56 -31 59 -36 63 -100 l4
-63 -233 0 c-180 0 -233 3 -233 13 0 10 95 182 141 255 8 12 32 28 54 34 47
13 70 32 61 47 -8 13 -296 4 -335 -11 -32 -12 -16 -26 34 -30 l40 -3 3 -52 c3
-45 -3 -64 -48 -152 l-50 -101 -73 0 -72 0 -35 87 c-19 48 -49 111 -67 140
l-32 53 39 32 c22 17 37 35 34 39 -7 12 -311 11 -319 0z m-504 -160 c23 -24
29 -38 29 -73 0 -61 -18 -91 -67 -107 -34 -12 -48 -13 -82 -2 -53 15 -75 55
-68 120 7 63 40 91 108 91 42 0 55 -5 80 -29z m2114 -46 c14 -13 25 -36 25
-50 0 -35 -42 -75 -77 -75 -40 1 -63 22 -70 64 -12 73 70 114 122 61z m-1707
-11 c17 -12 22 -25 22 -58 0 -48 -12 -63 -58 -72 -51 -10 -82 16 -82 71 0 49
24 75 70 75 14 0 36 -7 48 -16z m-407 -233 c24 -25 29 -38 29 -80 0 -65 -28
-100 -87 -108 -56 -7 -98 11 -117 52 -42 89 4 164 102 165 35 0 49 -6 73 -29z
m222 7 c-12 -34 -6 -103 12 -138 42 -81 209 -80 250 1 19 36 24 90 12 132 l-7
27 160 0 c88 0 160 -4 160 -9 0 -23 -46 -62 -88 -74 l-47 -14 0 -204 0 -204
145 -5 145 -5 -3 -445 -3 -445 -24 -37 c-32 -48 -128 -96 -210 -104 -54 -5
-69 -2 -158 34 -54 23 -112 50 -130 61 -28 18 -30 20 -12 26 59 18 91 42 113
85 44 88 17 212 -56 254 -24 13 -54 19 -100 19 -100 1 -152 -33 -176 -114
l-13 -42 -40 65 c-81 128 -156 294 -214 473 -28 86 -81 292 -94 366 l-7 36 74
-4 c83 -5 126 11 162 60 27 37 34 139 13 190 l-16 37 80 0 c79 0 80 0 72 -22z
m185 6 c17 -12 22 -25 22 -59 0 -49 -24 -75 -70 -75 -45 0 -70 26 -70 72 0 25
7 49 17 60 20 22 71 24 101 2z m618 -1 c30 -94 61 -126 144 -146 l50 -12 0
-133 0 -132 -237 2 -238 3 -3 55 c-2 30 -1 92 3 137 6 73 9 83 28 89 46 14 86
54 104 104 l18 50 63 0 c51 0 64 -3 68 -17z m574 -30 c0 -41 -4 -50 -41 -85
-26 -25 -38 -43 -32 -49 15 -15 255 -7 260 8 3 7 -7 17 -21 23 -35 13 -66 66
-66 113 l0 37 93 0 93 0 0 -68 c-1 -111 52 -160 160 -149 l51 5 -14 -101 c-20
-149 -60 -336 -100 -467 -36 -120 -126 -320 -169 -378 l-26 -33 -28 45 c-37
58 -79 80 -155 79 -106 0 -157 -36 -176 -124 -20 -90 13 -175 85 -215 l38 -21
-61 -37 c-90 -55 -227 -116 -261 -116 -63 0 -112 33 -161 109 l-29 45 0 458 0
457 123 3 122 3 0 205 0 205 -70 -3 c-68 -4 -71 -3 -83 23 -7 14 -12 37 -12
50 l0 25 240 0 240 0 0 -47z m480 27 c23 -23 27 -77 7 -103 -19 -27 -78 -33
-105 -10 -55 45 -26 133 44 133 21 0 42 -8 54 -20z m180 -54 c0 -79 0 -80 -42
-90 -24 -6 -27 -3 -36 42 -6 26 -13 64 -16 85 l-5 37 50 0 49 0 0 -74z m-1795
-1096 c30 -31 28 -119 -4 -153 -44 -48 -152 -41 -180 11 -14 27 -14 94 0 125
27 58 133 68 184 17z m1227 0 c11 -14 18 -39 18 -66 0 -37 -6 -49 -40 -85 -36
-38 -43 -41 -76 -36 -53 9 -82 32 -93 74 -12 42 0 103 23 123 41 33 137 28
168 -10z"/>
<path d="M735 3552 c-36 -23 -102 -94 -117 -128 -10 -22 -8 -28 23 -60 18 -19
44 -37 57 -41 15 -4 33 -25 53 -65 19 -38 34 -56 42 -52 28 16 177 140 177
147 0 4 -7 24 -15 43 -20 49 -49 44 -53 -10 -4 -50 -53 -102 -82 -86 -10 6
-26 20 -35 33 -15 21 -14 22 11 27 37 7 39 22 8 59 -32 38 -47 36 -54 -9 l-5
-33 -33 28 c-18 15 -31 32 -29 38 2 6 32 18 67 27 81 19 97 41 55 76 -36 29
-33 28 -70 6z"/>
<path d="M3789 3472 c-1 -4 -1 -16 0 -27 2 -36 -36 -83 -91 -111 -43 -22 -55
-24 -71 -14 -14 8 -22 9 -30 1 -16 -16 17 -73 83 -144 l55 -59 38 16 c52 21
46 45 -15 63 -29 8 -56 25 -73 45 l-27 31 24 13 c37 21 64 17 76 -11 13 -29
24 -31 43 -9 11 14 10 19 -10 35 -28 23 -22 43 19 64 30 15 32 15 51 -7 15
-17 19 -33 16 -66 -5 -52 3 -59 33 -27 30 32 22 62 -41 141 -45 57 -77 84 -80
66z"/>
<path d="M760 1294 c-6 -14 -10 -28 -10 -31 0 -15 -47 -67 -85 -93 -43 -30
-46 -30 -75 -15 -39 20 -53 12 -44 -28 8 -41 43 -87 83 -110 l31 -18 10 26 c6
14 10 35 10 45 0 27 46 78 91 100 46 24 57 25 80 4 22 -20 39 -11 32 19 -8 32
-81 127 -99 127 -8 0 -19 -12 -24 -26z"/>
<path d="M3707 1280 c-34 -29 -62 -82 -50 -94 4 -3 17 -6 29 -6 20 0 44 -25
44 -44 0 -3 -36 -6 -80 -6 -89 0 -94 -4 -102 -81 -2 -28 0 -34 17 -34 15 0 21
8 23 30 5 45 15 49 71 25 46 -20 51 -26 51 -54 0 -39 25 -76 50 -76 40 0 72
26 115 93 43 67 49 95 18 83 -9 -4 -39 17 -79 56 -57 54 -65 66 -62 95 4 46
-5 48 -45 13z m133 -228 c0 -4 -11 -20 -23 -36 -42 -52 -76 -8 -46 58 l12 25
28 -20 c16 -11 29 -23 29 -27z"/>
<path d="M2094 527 c-11 -30 116 -317 140 -317 10 0 36 41 71 110 38 76 70
125 101 155 55 52 51 69 -14 59 -54 -8 -73 -19 -65 -40 3 -8 -2 -25 -10 -38
-15 -22 -20 -23 -63 -15 -70 13 -92 38 -57 64 26 19 5 35 -48 35 -32 0 -51 -5
-55 -13z m180 -159 c-4 -13 -12 -31 -19 -41 -12 -17 -14 -16 -20 12 -8 37 -1
51 26 51 17 0 19 -4 13 -22z"/>
</g>
</svg>
