<?xml version="1.0" standalone="no"?>
<!DOCTYPE svg PUBLIC "-//W3C//DTD SVG 20010904//EN"
 "http://www.w3.org/TR/2001/REC-SVG-20010904/DTD/svg10.dtd">
<svg version="1.0" xmlns="http://www.w3.org/2000/svg"
 width="439.328138pt" height="437.526981pt" viewBox="0 0 439.328138 437.526981"
 preserveAspectRatio="xMidYMid meet">
<metadata>
Created by potrace 1.16, written by Peter Selinger 2001-2019
</metadata>
<g transform="translate(-5.487237,445.909477) scale(0.100000,-0.100000)"
fill="#000000" stroke="none">
<path d="M2070 4453 c-538 -42 -995 -251 -1377 -632 -344 -342 -547 -741 -619
-1216 -25 -168 -25 -522 0 -690 64 -421 226 -773 504 -1095 352 -408 798 -656
1327 -736 168 -26 522 -26 690 0 473 72 871 274 1211 614 413 412 619 893 641
1492 19 537 -145 1037 -474 1446 -262 325 -611 574 -987 703 -271 94 -620 137
-916 114z m505 -89 c392 -57 733 -209 1035 -462 325 -272 571 -638 679 -1014
63 -221 84 -377 84 -628 0 -320 -43 -549 -154 -824 -165 -408 -519 -807 -917
-1034 -404 -231 -879 -315 -1386 -246 -459 63 -873 280 -1212 637 -310 325
-491 692 -559 1132 -19 122 -27 425 -14 555 46 477 240 899 573 1248 374 391
826 607 1360 652 129 11 383 3 511 -16z"/>
<path d="M2005 4335 c-435 -50 -793 -206 -1120 -488 -472 -406 -725 -960 -725
-1587 0 -629 255 -1185 730 -1593 302 -259 631 -410 1030 -473 174 -28 511
-25 685 4 451 77 807 262 1130 587 324 326 515 704 581 1155 18 124 24 397 12
540 -34 389 -184 763 -429 1071 -342 429 -804 700 -1320 774 -153 22 -430 27
-574 10z m88 -46 c3 -11 14 -23 25 -26 21 -5 32 -54 32 -140 0 -35 -6 -49 -26
-68 -17 -16 -24 -30 -20 -41 6 -15 20 -16 133 -10 70 4 134 11 144 16 16 9 32
66 22 83 -2 4 -15 7 -29 7 -19 0 -28 -7 -35 -30 -10 -28 -14 -30 -65 -30 l-54
0 0 35 c0 39 13 44 43 18 18 -17 19 -17 33 2 20 27 18 94 -2 102 -11 4 -22 -1
-30 -12 -17 -24 -31 -12 -40 34 l-7 34 43 -6 c24 -3 56 -15 72 -27 38 -28 58
-13 58 41 0 46 -7 45 153 24 429 -56 805 -240 1125 -549 209 -203 325 -359
437 -591 137 -282 196 -553 196 -901 1 -519 -156 -948 -486 -1331 -345 -403
-800 -645 -1320 -703 -116 -13 -374 -13 -490 0 -562 63 -1052 343 -1406 806
-206 268 -334 578 -384 924 -20 140 -20 480 0 620 63 444 253 818 580 1145
334 334 722 526 1180 584 109 13 112 13 118 -10z"/>
<path d="M2070 3900 c-265 -26 -523 -117 -732 -257 -304 -204 -546 -516 -652
-838 -112 -345 -111 -766 4 -1105 110 -324 360 -637 668 -838 458 -299 1115
-335 1622 -89 157 76 284 170 436 321 254 254 395 519 456 856 27 152 30 447
4 595 -72 425 -296 785 -656 1055 -104 78 -309 184 -433 225 -214 70 -480 98
-717 75z m400 -41 c338 -37 638 -182 899 -434 337 -326 491 -691 491 -1165 0
-476 -155 -842 -496 -1170 -179 -173 -374 -291 -601 -364 -157 -50 -263 -67
-455 -73 -488 -15 -871 132 -1203 462 -226 226 -370 487 -436 794 -30 138 -38
453 -15 609 50 340 197 629 447 880 295 297 634 450 1044 470 153 8 184 7 325
-9z"/>
<path d="M2590 3284 c-19 -9 -56 -22 -81 -30 -59 -18 -109 -58 -175 -141 -80
-100 -158 -253 -183 -360 l-13 -53 -76 0 -75 0 81 78 c87 83 106 121 106 213
0 61 -28 107 -89 144 -41 25 -59 30 -114 30 -86 0 -128 -21 -212 -106 -72 -73
-192 -213 -258 -301 l-43 -58 -78 0 -77 0 10 38 c13 51 2 104 -28 132 -36 34
-127 39 -172 11 -48 -30 -63 -98 -37 -165 5 -13 -1 -16 -29 -16 -32 0 -35 3
-42 36 -10 53 -31 80 -77 99 -58 23 -130 12 -172 -25 -30 -27 -31 -31 -31
-108 0 -71 3 -83 24 -106 30 -32 92 -50 138 -41 19 3 51 22 72 41 31 27 47 34
80 34 36 0 42 -3 37 -17 -22 -77 -13 -128 31 -163 31 -25 120 -27 163 -5 45
23 63 105 35 168 -6 15 0 17 54 17 34 0 61 -2 61 -4 0 -13 -215 -478 -242
-523 -40 -68 -122 -160 -149 -168 -14 -5 -26 1 -39 18 -28 36 -72 50 -135 45
-85 -7 -116 -46 -116 -145 0 -95 47 -143 141 -143 82 0 132 38 145 110 5 31
13 38 63 62 100 47 214 173 310 343 28 50 56 97 61 105 6 10 10 -113 10 -359
1 -351 0 -373 -16 -366 -69 27 -145 8 -180 -44 -43 -64 -22 -189 37 -218 34
-17 135 -16 169 2 40 20 64 77 59 136 -5 47 -4 49 20 49 19 0 23 -3 16 -17
-16 -37 -16 -91 0 -121 33 -64 159 -64 192 0 16 30 16 84 0 121 -7 14 -3 17
23 17 30 0 41 -13 21 -25 -16 -10 -12 -98 5 -122 22 -31 87 -47 131 -33 57 19
78 71 60 147 -7 32 -6 33 22 33 l30 0 -14 -40 c-11 -32 -11 -47 -1 -77 23 -73
128 -93 185 -36 22 22 24 31 19 89 l-5 64 59 0 c33 0 59 -3 59 -7 0 -4 -10
-17 -21 -29 -46 -49 -28 -162 31 -191 30 -15 99 -17 134 -3 60 22 82 130 38
190 -12 16 -22 32 -22 35 0 3 27 5 61 5 54 0 60 -2 53 -17 -16 -37 -16 -91 0
-121 33 -64 159 -64 192 0 16 30 16 84 0 121 -7 14 -3 17 24 17 27 0 31 -3 24
-17 -16 -37 -16 -91 0 -121 31 -60 135 -65 182 -9 22 26 25 38 21 72 -3 22 -8
48 -12 58 -6 14 -2 17 25 17 27 0 31 -3 24 -17 -14 -32 -15 -98 -2 -123 16
-31 78 -53 124 -44 65 12 98 86 71 162 -7 18 -5 22 11 22 17 0 20 -9 24 -61 4
-54 9 -66 35 -89 51 -45 144 -48 208 -6 47 31 58 144 21 201 -9 14 -33 33 -51
42 l-35 17 0 440 0 441 103 66 c56 37 113 72 126 79 24 12 24 13 6 26 -10 8
-26 14 -35 14 -35 0 -117 54 -190 124 -106 102 -211 169 -239 151 -7 -4 -11
-57 -11 -141 l0 -134 -235 0 c-129 0 -235 2 -235 5 0 2 16 30 36 60 19 31 62
111 95 178 90 185 89 253 -9 322 -43 29 -47 30 -175 33 -104 2 -139 -1 -167
-14z m220 -167 c49 -24 40 -61 -52 -214 -46 -76 -90 -153 -97 -170 l-13 -33
-150 0 -150 0 6 28 c13 52 95 207 140 264 25 32 69 76 97 98 49 38 54 40 122
40 40 0 83 -6 97 -13z m-870 -164 c0 -13 -84 -148 -124 -200 l-41 -53 -94 0
-95 0 35 37 c133 145 235 223 292 223 15 0 27 -3 27 -7z m-708 -140 c38 -34
12 -93 -41 -93 -36 0 -51 17 -51 57 0 49 54 71 92 36z m2252 -55 l88 -58 -101
0 -101 0 0 66 c0 49 3 63 13 58 6 -5 52 -34 101 -66z m-2543 23 c17 -17 29
-40 29 -55 l0 -26 -110 0 c-121 0 -125 2 -94 61 18 35 43 48 102 48 35 1 49
-5 73 -28z m-13 -163 c-7 -22 -54 -32 -94 -22 -67 16 -54 34 26 34 53 0 71 -3
68 -12z m812 0 c0 -7 -7 -35 -15 -62 -18 -59 -19 -154 -3 -208 6 -22 28 -58
49 -81 l37 -42 85 -3 c102 -5 174 13 243 61 47 32 52 42 116 188 l67 154 137
3 c127 2 136 1 131 -15 -3 -10 -16 -45 -28 -78 -30 -86 -23 -154 20 -199 18
-19 55 -46 83 -61 41 -23 59 -27 103 -23 67 6 110 36 167 121 82 122 189 209
294 240 l52 15 4 -114 c2 -87 7 -117 19 -130 15 -14 18 -13 39 20 23 38 78 86
98 86 9 0 12 -40 12 -136 l0 -136 -22 8 c-13 4 -51 8 -85 8 -57 1 -65 -2 -95
-31 -27 -27 -32 -41 -36 -91 -8 -112 45 -169 147 -159 25 2 56 8 69 12 l22 7
0 -169 0 -169 -35 -17 c-32 -15 -84 -17 -488 -17 -447 0 -452 0 -421 19 17 10
40 31 52 45 20 27 21 27 32 7 15 -29 62 -51 109 -51 85 0 121 40 121 134 0 43
-5 61 -22 81 -46 53 -152 51 -199 -4 l-26 -31 -13 26 c-8 14 -26 32 -41 41
l-27 16 29 24 c62 53 60 164 -4 204 -48 30 -141 23 -173 -14 -46 -53 -40 -160
10 -192 l23 -15 -40 -41 -40 -40 -21 26 c-40 50 -149 51 -192 1 -28 -32 -37
-86 -24 -136 14 -53 56 -80 124 -80 42 0 53 5 83 35 20 20 36 34 37 33 27 -45
43 -62 69 -73 28 -12 -24 -14 -400 -15 l-433 0 0 161 c0 150 1 161 18 154 64
-26 92 -27 154 -3 84 32 90 205 8 252 -39 23 -122 26 -158 7 l-22 -12 0 236 0
235 100 0 c73 0 100 -3 100 -12z m380 6 c0 -4 -16 -40 -35 -80 -56 -116 -166
-197 -202 -148 -34 46 -29 102 17 182 l30 52 95 0 c52 0 95 -3 95 -6z m920 2
c0 -3 -42 -37 -92 -77 -51 -40 -121 -97 -156 -126 -35 -29 -69 -53 -76 -53 -8
0 -23 8 -35 18 -20 16 -20 20 -8 72 13 52 47 129 69 158 8 8 51 12 154 12 79
0 144 -2 144 -4z m511 -10 c-13 -15 -111 -61 -153 -71 -28 -7 -28 -6 -28 39
l0 46 96 0 c81 0 95 -2 85 -14z m-2319 -23 c38 -34 12 -93 -41 -93 -36 0 -51
17 -51 57 0 49 54 71 92 36z m2173 -448 c14 -13 25 -36 25 -50 0 -33 -41 -75
-73 -75 -39 0 -77 36 -77 74 0 71 75 102 125 51z m-1713 -57 c13 -22 9 -86 -8
-102 -26 -27 -81 -24 -106 6 -35 40 -17 105 32 120 20 7 72 -9 82 -24z m782
-41 c21 -16 24 -60 6 -82 -13 -16 -57 -20 -77 -7 -24 15 -26 59 -4 81 24 24
49 27 75 8z m-1546 -133 c16 -11 22 -25 22 -52 0 -43 -6 -55 -38 -71 -50 -27
-102 9 -102 69 0 44 26 70 70 70 14 0 36 -7 48 -16z m1562 -114 c49 -49 3
-139 -65 -126 -42 9 -57 28 -57 72 0 66 76 100 122 54z m-273 -8 c24 -15 26
-59 4 -81 -35 -35 -82 -22 -94 26 -10 45 48 81 90 55z m523 -11 c23 -45 1 -91
-45 -91 -31 0 -55 25 -55 59 0 36 17 51 57 51 22 0 36 -6 43 -19z m800 -241
c11 -11 20 -33 20 -50 0 -49 -37 -76 -95 -70 -51 5 -72 71 -39 118 20 29 85
31 114 2z m-2087 -23 c23 -26 17 -85 -10 -104 -29 -22 -90 -16 -107 9 -58 83
51 171 117 95z m242 -62 c0 -27 -3 -30 -30 -30 -21 0 -31 5 -33 18 -5 25 17
49 42 45 16 -2 21 -10 21 -33z m240 0 c0 -27 -3 -30 -30 -30 -21 0 -31 5 -33
18 -5 25 17 49 42 45 16 -2 21 -10 21 -33z m240 0 c0 -27 -3 -30 -30 -30 -24
0 -31 5 -33 24 -4 27 13 42 43 39 15 -2 20 -11 20 -33z m585 20 c19 -23 3 -55
-30 -55 -32 0 -41 15 -29 48 9 25 41 29 59 7z m240 0 c28 -34 -24 -80 -55 -48
-18 18 -19 35 -3 51 16 16 43 15 58 -3z m238 -14 c5 -32 -23 -54 -49 -40 -11
5 -19 18 -19 27 0 45 62 56 68 13z m-760 -3 c20 -20 15 -76 -7 -88 -29 -15
-49 -12 -71 10 -24 24 -26 53 -4 74 18 19 65 21 82 4z"/>
<path d="M663 3490 c-42 -31 -78 -97 -69 -129 2 -9 7 -28 10 -43 10 -45 37
-51 98 -23 45 21 138 35 138 20 0 -23 -31 -58 -66 -75 -24 -11 -44 -24 -44
-29 0 -5 14 -18 31 -29 l32 -20 40 38 c78 76 96 129 57 165 -19 17 -26 18 -66
7 -63 -17 -160 -16 -167 2 -9 22 20 40 71 46 65 7 77 32 34 71 -18 16 -38 29
-45 29 -7 0 -31 -14 -54 -30z"/>
<path d="M3835 3459 c-4 -6 -4 -25 -1 -42 5 -31 3 -34 -72 -78 -65 -40 -80
-45 -99 -36 -17 7 -27 7 -35 -1 -19 -19 19 -87 92 -165 73 -78 91 -82 147 -32
27 24 27 26 10 39 -11 8 -37 18 -58 21 -45 8 -69 27 -69 56 0 21 55 60 128 88
26 10 48 26 50 35 2 9 -11 41 -28 71 -30 53 -51 67 -65 44z"/>
<path d="M590 1417 c-62 -34 -83 -66 -82 -123 0 -38 6 -52 34 -81 32 -34 35
-35 91 -30 107 9 173 83 165 183 -3 36 -6 40 -43 52 -78 25 -116 25 -165 -1z
m149 -41 c10 -11 9 -22 -5 -48 -27 -53 -57 -89 -85 -104 -23 -12 -28 -11 -42
4 -59 68 -46 117 40 148 50 17 78 17 92 0z"/>
<path d="M3675 1229 c-47 -52 -96 -129 -89 -141 3 -4 18 -1 34 9 29 17 30 17
87 -23 52 -35 58 -43 58 -74 0 -49 15 -52 38 -7 10 21 32 44 47 52 29 15 46
47 35 65 -4 6 -17 4 -37 -6 l-31 -16 -51 51 c-48 48 -50 52 -39 80 8 23 8 33
-2 41 -9 8 -22 0 -50 -31z"/>
<path d="M2150 531 c-5 -11 -10 -26 -10 -34 0 -8 -10 -26 -21 -41 -13 -16 -18
-31 -13 -36 12 -12 118 -24 140 -16 16 6 15 8 -1 26 -23 26 -9 43 31 38 24 -2
31 -9 38 -39 12 -51 1 -86 -34 -104 -40 -21 -66 -19 -101 7 -30 23 -31 23 -46
3 -17 -23 -11 -81 11 -103 12 -12 16 -12 34 6 10 10 45 27 76 37 59 19 140 80
151 115 7 21 -25 103 -45 115 -7 5 -35 7 -63 6 -34 -1 -60 5 -84 19 -42 25
-50 25 -63 1z"/>
</g>
</svg>
