<?xml version="1.0" standalone="no"?>
<!DOCTYPE svg PUBLIC "-//W3C//DTD SVG 20010904//EN"
 "http://www.w3.org/TR/2001/REC-SVG-20010904/DTD/svg10.dtd">
<svg version="1.0" xmlns="http://www.w3.org/2000/svg"
 width="439.015795pt" height="439.161356pt" viewBox="0 0 439.015795 439.161356"
 preserveAspectRatio="xMidYMid meet">
<metadata>
Created by potrace 1.16, written by Peter Selinger 2001-2019
</metadata>
<g transform="translate(-4.463739,446.650509) scale(0.100000,-0.100000)"
fill="#000000" stroke="none">
<path d="M2060 4464 c-564 -53 -998 -253 -1380 -634 -343 -344 -542 -737 -617
-1220 -25 -160 -25 -519 0 -680 74 -482 277 -882 617 -1220 349 -347 739 -544
1220 -617 162 -25 520 -24 685 1 478 72 876 276 1221 623 341 345 540 741 610
1218 25 166 25 506 1 665 -74 481 -258 854 -592 1199 -351 363 -755 572 -1245
646 -103 15 -431 27 -520 19z m341 -74 c314 -24 562 -91 813 -220 511 -263
930 -769 1074 -1300 125 -461 98 -986 -73 -1410 -215 -536 -697 -1002 -1235
-1195 -232 -83 -453 -118 -740 -119 -355 0 -628 58 -915 193 -420 198 -803
578 -1005 996 -146 302 -204 566 -204 930 0 300 32 493 121 745 179 508 627
987 1128 1208 318 140 678 200 1036 172z"/>
<path d="M2075 4353 c-474 -40 -853 -197 -1200 -496 -419 -361 -665 -834 -714
-1377 -65 -709 189 -1348 718 -1802 404 -348 900 -518 1445 -495 317 14 564
73 824 197 419 201 783 565 981 980 138 292 195 553 195 905 0 270 -25 445
-99 675 -182 564 -653 1060 -1216 1280 -272 106 -639 158 -934 133z m456 -48
c459 -61 838 -253 1176 -596 162 -165 261 -298 358 -481 155 -295 226 -592
226 -948 0 -362 -57 -621 -201 -915 -310 -632 -913 -1059 -1602 -1134 -125
-14 -371 -14 -496 0 -465 50 -869 246 -1207 584 -330 330 -521 709 -580 1155
-18 133 -20 442 -5 570 58 463 248 848 585 1185 216 216 442 365 714 470 137
53 256 81 501 118 68 11 435 5 531 -8z"/>
<path d="M2340 4280 c-8 -5 -63 -10 -122 -10 -95 0 -108 -2 -118 -19 -23 -44
24 -127 57 -99 7 6 13 17 13 24 0 23 38 54 65 54 14 0 25 -3 25 -6 0 -15 -64
-96 -94 -119 -46 -35 -92 -103 -79 -116 5 -5 78 -11 164 -12 l154 -2 3 46 c4
69 -15 80 -75 40 -40 -27 -93 -41 -93 -26 0 21 49 92 105 153 69 74 78 102 33
102 -13 0 -30 -5 -38 -10z"/>
<path d="M2056 3909 c-530 -56 -976 -345 -1252 -811 -133 -225 -203 -487 -209
-783 -4 -175 4 -269 36 -418 128 -608 623 -1105 1230 -1235 464 -100 921 -19
1296 230 143 94 362 312 452 448 213 321 306 685 273 1068 -22 247 -63 398
-167 607 -81 163 -187 306 -332 445 -138 134 -254 216 -418 296 -272 133 -590
187 -909 153z m520 -57 c314 -62 561 -198 805 -441 243 -243 369 -473 441
-801 20 -93 23 -132 23 -340 0 -188 -4 -252 -18 -320 -75 -352 -214 -601 -474
-851 -310 -296 -672 -439 -1109 -439 -352 1 -627 79 -894 255 -327 216 -568
542 -665 900 -74 273 -76 634 -4 895 71 259 208 495 402 692 206 209 448 353
717 427 77 21 257 49 345 53 100 6 333 -11 431 -30z"/>
<path d="M944 3136 c-27 -23 -28 -25 -28 -142 -1 -172 34 -231 80 -133 17 34
32 49 60 61 65 28 118 32 156 12 18 -10 46 -20 62 -22 109 -14 200 -139 213
-292 l6 -70 -161 0 -160 0 -92 85 c-102 93 -127 107 -146 80 -44 -60 -21 -375
27 -375 6 0 37 23 68 52 96 88 96 88 266 88 188 0 199 -3 191 -44 -12 -57 -64
-154 -106 -196 -76 -76 -185 -108 -290 -85 -66 14 -88 32 -97 77 -7 33 -13 43
-28 43 -24 0 -30 -30 -40 -211 -8 -124 -1 -164 30 -164 8 0 24 18 35 40 50 97
69 109 280 160 160 40 215 88 279 247 18 43 36 88 41 101 9 20 16 22 100 22
l90 0 0 -95 0 -95 -52 -26 c-335 -167 -508 -430 -508 -770 0 -93 17 -153 81
-274 77 -149 148 -205 422 -335 140 -67 198 -81 267 -66 98 21 211 98 241 165
55 120 -16 263 -156 316 -120 45 -188 28 -232 -60 -28 -55 -29 -99 -3 -151 28
-54 72 -79 138 -79 46 0 58 4 83 29 39 39 40 97 4 138 l-25 28 -19 -23 c-11
-13 -23 -43 -27 -67 -6 -43 -8 -45 -38 -45 -71 0 -99 81 -49 140 25 30 30 32
80 28 71 -6 133 -48 152 -104 12 -34 12 -46 -3 -97 -19 -64 -68 -127 -116
-147 -18 -7 -53 -11 -87 -8 -66 6 -228 85 -387 189 -84 55 -103 73 -142 134
-68 106 -88 183 -81 314 9 167 83 399 150 469 46 49 170 142 252 190 119 68
115 63 126 182 5 58 14 109 19 114 8 8 375 5 382 -4 7 -10 -7 -618 -15 -626
-4 -4 -34 -10 -65 -12 -45 -3 -68 1 -98 16 -45 23 -107 86 -153 155 -18 26
-38 46 -44 44 -17 -5 -25 -64 -26 -187 0 -58 -4 -139 -7 -181 -9 -106 2 -109
86 -23 37 38 72 78 78 89 9 18 23 20 114 23 57 1 109 -2 117 -7 12 -8 12 -19
2 -72 -25 -123 -82 -199 -188 -245 -56 -25 -64 -41 -35 -67 16 -14 22 -15 57
-2 53 19 108 18 238 -1 79 -12 124 -14 170 -8 57 8 62 11 65 36 3 21 -3 30
-26 42 -99 51 -186 153 -198 231 -12 80 -6 85 100 85 108 0 111 -2 165 -113
34 -70 64 -98 84 -78 17 17 23 456 7 476 -7 8 -16 15 -21 15 -5 0 -29 -39 -53
-87 -65 -131 -63 -129 -177 -125 l-97 3 -7 109 c-3 60 -3 202 1 314 l7 206 35
6 c43 8 307 -9 320 -21 2 -1 6 -57 9 -123 l6 -120 101 -69 c126 -85 250 -207
293 -289 46 -86 60 -152 74 -337 l13 -162 -47 -98 c-59 -125 -106 -189 -171
-233 -62 -42 -182 -81 -273 -89 -37 -4 -78 -8 -91 -11 -16 -3 -36 8 -74 43
-107 100 -116 199 -22 261 44 29 58 28 116 -10 48 -30 49 -33 43 -67 -12 -69
-14 -72 -48 -69 -29 3 -32 7 -38 46 -8 62 -25 74 -55 39 -13 -15 -24 -36 -24
-46 0 -21 43 -63 87 -85 85 -43 139 0 157 127 7 43 4 52 -19 83 -35 45 -73 64
-133 64 -89 0 -160 -38 -208 -110 -25 -37 -25 -41 -15 -110 16 -100 40 -142
109 -188 99 -67 112 -72 214 -72 172 0 294 47 392 149 63 67 105 146 143 268
24 80 27 103 27 248 0 145 -3 168 -27 248 -60 196 -108 256 -337 423 -135 100
-129 87 -114 233 l7 61 111 0 111 0 18 -97 c22 -121 42 -166 97 -220 71 -72
195 -120 345 -137 47 -5 54 -10 112 -73 55 -61 62 -66 70 -48 4 11 8 97 8 190
0 159 -1 170 -19 170 -13 0 -24 -15 -38 -52 -27 -74 -75 -113 -137 -113 -58 0
-157 29 -226 68 -43 23 -55 37 -88 102 -36 72 -60 168 -48 189 12 18 142 34
245 28 146 -8 163 -15 216 -95 41 -61 48 -67 80 -67 l35 0 3 181 c2 170 1 182
-18 199 -19 18 -21 17 -67 -35 -27 -30 -61 -69 -78 -87 l-30 -33 -130 0 c-71
-1 -154 -1 -182 -1 l-53 1 0 68 c1 166 97 240 325 249 l120 5 24 -47 c25 -47
67 -89 81 -80 16 10 20 75 10 140 -11 69 -46 183 -61 200 -14 14 -31 -9 -38
-50 -5 -32 -13 -40 -71 -69 -38 -20 -99 -40 -147 -49 -110 -21 -196 -60 -239
-111 -41 -48 -80 -127 -95 -194 l-12 -49 -60 -7 c-33 -3 -89 -6 -125 -6 l-64
0 4 123 c6 148 18 180 96 259 43 45 53 61 44 70 -15 15 -154 21 -267 11 -81
-7 -90 -10 -93 -29 -2 -16 10 -31 46 -57 28 -21 59 -56 75 -85 25 -46 27 -59
27 -164 l0 -115 -67 -6 c-87 -9 -217 -9 -267 0 l-39 6 6 118 c4 105 8 124 34
170 16 31 45 65 71 83 34 24 42 36 40 55 -2 20 -11 27 -38 33 -43 10 -339 -2
-346 -13 -11 -19 32 -83 92 -137 l63 -57 2 -125 2 -125 -174 -3 c-96 -1 -185
0 -198 3 l-23 6 7 127 c8 151 24 196 93 259 44 42 46 45 28 58 -27 20 -115 29
-224 21 -150 -11 -167 -31 -75 -93 88 -59 96 -84 94 -285 l-1 -88 -93 0 -92 0
-12 75 c-17 106 -52 173 -126 241 -73 68 -164 112 -292 144 -100 25 -128 44
-157 108 -10 23 -23 42 -28 42 -5 0 -21 -11 -36 -24z"/>
<path d="M479 3198 c-21 -15 -46 -47 -66 -87 -36 -70 -33 -90 14 -84 19 2 52
-10 101 -37 67 -38 72 -43 72 -75 0 -60 27 -50 65 23 20 40 13 66 -14 57 -20
-6 -84 16 -94 32 -11 18 12 36 58 43 42 6 47 5 55 -14 4 -12 16 -28 25 -36 15
-13 20 -11 40 12 23 27 50 122 39 139 -11 18 -35 8 -52 -21 -15 -27 -22 -30
-69 -30 -50 0 -53 1 -53 25 0 30 -41 75 -68 75 -11 0 -34 -10 -53 -22z m61
-72 c0 -31 -11 -66 -21 -66 -4 0 -19 4 -34 10 -23 9 -25 12 -14 32 29 57 69
71 69 24z"/>
<path d="M4005 3159 c-4 -6 -4 -25 -1 -42 l6 -32 -97 -37 c-82 -32 -99 -35
-106 -23 -10 19 -36 19 -43 1 -7 -20 21 -111 50 -160 40 -67 69 -90 109 -82
61 11 88 66 32 66 -29 0 -85 46 -85 70 0 16 18 30 41 30 5 0 9 -13 9 -29 0
-17 4 -33 10 -36 12 -7 60 17 83 43 18 20 18 21 -2 31 -11 6 -27 11 -35 11
-23 0 -20 16 6 34 30 21 50 20 76 -4 21 -20 21 -32 0 -77 -16 -32 -3 -56 24
-48 34 11 48 28 55 68 4 30 0 45 -20 75 -14 20 -38 63 -52 95 -25 54 -46 70
-60 46z"/>
<path d="M1083 968 c-15 -24 -50 -223 -45 -260 7 -62 23 -65 94 -17 35 23 80
55 101 72 33 26 40 28 69 18 69 -24 49 37 -25 75 -33 18 -47 11 -47 -21 0 -30
-17 -36 -57 -17 -25 12 -33 22 -33 43 0 15 7 29 15 33 22 8 19 20 -14 55 -31
34 -45 38 -58 19z m58 -179 c20 -10 20 -11 2 -24 -26 -20 -33 -18 -33 10 0 28
3 29 31 14z"/>
<path d="M3299 917 c-39 -27 -48 -47 -22 -53 10 -3 26 -18 34 -33 16 -28 16
-29 -13 -58 -57 -58 -28 -153 46 -153 36 0 199 105 193 124 -2 6 -23 11 -46
11 -40 0 -48 5 -98 59 -46 50 -53 62 -48 86 8 38 -6 44 -46 17z m85 -182 c21
-32 13 -45 -25 -45 -37 0 -48 24 -24 50 23 26 29 25 49 -5z"/>
</g>
</svg>
