<?xml version="1.0" standalone="no"?>
<!DOCTYPE svg PUBLIC "-//W3C//DTD SVG 20010904//EN"
 "http://www.w3.org/TR/2001/REC-SVG-20010904/DTD/svg10.dtd">
<svg version="1.0" xmlns="http://www.w3.org/2000/svg"
 width="438.991451pt" height="439.230674pt" viewBox="0 0 438.991451 439.230674"
 preserveAspectRatio="xMidYMid meet">
<metadata>
Created by potrace 1.16, written by Peter Selinger 2001-2019
</metadata>
<g transform="translate(-6.462916,444.694413) scale(0.100000,-0.100000)"
fill="#000000" stroke="none">
<path d="M2090 4444 c-19 -2 -78 -9 -130 -15 -468 -52 -904 -266 -1255 -616
-349 -348 -546 -736 -622 -1223 -25 -160 -25 -519 0 -680 74 -482 274 -877
617 -1220 343 -343 738 -543 1220 -617 161 -25 520 -25 680 0 485 75 876 274
1223 622 184 184 309 358 417 580 104 213 167 426 202 675 19 141 16 489 -5
630 -78 510 -287 910 -662 1268 -338 323 -712 507 -1175 577 -100 15 -436 28
-510 19z m337 -74 c229 -18 428 -60 610 -131 541 -211 995 -662 1206 -1199
138 -349 179 -784 111 -1180 -70 -410 -253 -768 -555 -1084 -343 -359 -760
-572 -1249 -637 -122 -17 -458 -17 -580 0 -469 62 -856 251 -1198 585 -352
343 -558 750 -623 1236 -17 121 -17 456 0 580 65 488 278 906 637 1249 451
431 1011 629 1641 581z"/>
<path d="M2095 4334 c-215 -22 -345 -48 -505 -99 -376 -121 -735 -378 -997
-715 -365 -470 -502 -1092 -378 -1716 157 -787 812 -1442 1599 -1599 783 -156
1528 93 2033 680 272 315 424 654 485 1080 19 133 16 465 -5 605 -70 455 -261
834 -587 1160 -324 323 -707 518 -1150 585 -102 15 -415 27 -495 19z m460 -49
c350 -46 675 -182 955 -399 95 -73 291 -268 369 -366 181 -228 297 -458 367
-727 46 -181 64 -330 64 -541 0 -192 -9 -288 -41 -452 -117 -591 -554 -1140
-1122 -1410 -276 -131 -550 -190 -887 -190 -254 0 -446 29 -669 102 -588 191
-1101 707 -1289 1298 -67 212 -93 390 -92 653 0 194 9 292 41 451 151 747 791
1392 1539 1551 214 46 544 59 765 30z"/>
<path d="M2100 4273 c-45 -6 -63 -22 -32 -29 21 -6 22 -11 22 -114 0 -123 -4
-138 -36 -151 -61 -23 -5 -49 104 -49 86 0 148 22 176 61 20 29 20 52 1 90
-15 28 -15 31 5 56 26 33 25 54 -2 88 -39 50 -106 63 -238 48z m163 -55 c9
-11 17 -31 17 -44 0 -22 -4 -24 -55 -24 -52 0 -55 2 -55 24 0 14 5 37 10 51 9
23 14 26 38 21 15 -4 35 -16 45 -28z m11 -140 c26 -36 20 -54 -24 -72 -70 -28
-80 -23 -80 33 0 53 5 57 62 60 17 1 32 -7 42 -21z"/>
<path d="M2076 3890 c-278 -32 -521 -118 -728 -257 -292 -196 -517 -476 -633
-788 -184 -494 -121 -1085 159 -1504 248 -370 618 -623 1031 -705 461 -91 903
-9 1275 238 139 93 360 311 449 446 287 432 355 941 195 1473 -4 13 2 10 21
-9 25 -25 31 -26 104 -22 127 7 190 65 178 165 -8 72 -62 113 -151 113 -74 0
-124 -58 -151 -174 l-11 -49 -18 49 c-120 321 -429 669 -747 838 -164 87 -325
142 -508 172 -109 18 -362 26 -465 14z m525 -58 c316 -66 558 -200 800 -441
241 -242 375 -485 441 -800 28 -140 36 -439 14 -587 -55 -371 -203 -655 -482
-924 -310 -298 -672 -440 -1119 -440 -488 1 -899 184 -1213 540 -183 208 -305
448 -362 715 -31 143 -39 455 -16 613 50 336 197 629 442 877 253 255 538 403
889 460 132 21 476 14 606 -13z m1459 -869 c5 -4 6 -20 3 -35 -4 -22 -19 -34
-66 -58 -67 -34 -89 -37 -107 -16 -20 26 -7 59 40 94 38 29 50 33 83 29 22 -3
43 -9 47 -14z"/>
<path d="M3258 3380 c-20 -3 -47 -14 -61 -23 -36 -24 -61 -96 -54 -157 l6 -50
-897 0 -897 0 0 64 c0 105 -49 151 -160 150 -111 -1 -159 -49 -159 -159 0
-104 43 -155 139 -163 l55 -4 0 -818 0 -818 -29 -12 c-68 -28 -106 -107 -91
-189 15 -85 65 -121 167 -121 104 0 153 51 153 157 0 76 -24 122 -79 148 l-41
20 0 832 0 833 465 0 465 0 0 -500 0 -500 -99 0 c-55 0 -102 4 -105 9 -3 4
-19 11 -34 14 -42 9 -90 53 -102 95 -7 22 -10 110 -8 220 l3 183 42 -30 c33
-24 52 -50 83 -116 46 -96 68 -114 122 -99 32 9 33 12 41 79 4 39 6 104 5 145
l-3 75 -40 15 c-32 12 -98 15 -332 15 -195 0 -296 -4 -303 -11 -16 -16 -26
-265 -11 -292 6 -12 17 -22 23 -22 6 0 59 50 116 110 95 101 143 140 172 140
7 0 10 -71 10 -214 0 -205 -1 -214 -23 -247 -16 -25 -34 -36 -62 -43 -22 -4
-49 -12 -60 -17 -11 -5 -90 -10 -175 -11 l-155 -3 0 -35 0 -35 448 -3 447 -2
0 -135 0 -135 -37 0 c-74 0 -153 51 -241 154 -39 47 -54 39 -73 -36 -14 -61
-6 -355 11 -372 12 -12 88 58 148 137 l36 47 78 0 c90 0 103 -15 39 -44 -56
-24 -84 -73 -84 -146 1 -108 52 -160 158 -160 112 0 165 51 165 160 0 65 -25
112 -71 138 -66 36 -68 41 -19 42 45 0 46 0 78 -60 59 -107 102 -142 129 -107
15 19 37 259 29 329 -11 106 -35 113 -101 31 -56 -70 -110 -113 -142 -113 -23
0 -23 0 -23 135 l0 135 254 0 254 0 20 -34 c30 -50 64 -69 125 -69 69 0 114
24 134 71 20 48 13 134 -14 170 -24 33 -94 55 -146 46 -42 -7 -92 -44 -102
-75 -5 -16 -10 -18 -21 -8 -8 6 -29 19 -47 28 -60 30 -72 72 -75 274 -3 167
-3 177 15 177 32 0 63 -29 117 -113 61 -95 76 -110 108 -105 38 5 50 43 44
143 -5 107 -16 140 -48 148 -105 27 -465 35 -548 14 l-45 -12 -8 -100 c-9
-107 -5 -151 17 -180 13 -18 14 -18 42 4 16 13 53 55 82 94 46 63 109 117 135
117 5 0 7 -87 5 -192 -3 -173 -5 -197 -24 -228 -11 -19 -32 -41 -48 -48 -15
-8 -30 -20 -33 -28 -4 -11 -27 -14 -99 -14 l-94 0 0 500 0 500 431 0 432 0 -7
-77 c-3 -42 -6 -417 -6 -834 l0 -758 -32 -5 c-188 -28 -285 -47 -543 -106
-165 -38 -392 -89 -505 -114 -307 -66 -375 -98 -426 -202 -61 -124 0 -212 179
-260 159 -42 247 11 247 151 0 107 -40 155 -131 155 -42 0 -50 -4 -83 -40 -46
-51 -48 -90 -8 -130 16 -15 47 -34 70 -41 23 -7 42 -16 42 -20 0 -14 -79 -30
-115 -23 -79 15 -166 114 -146 167 48 125 476 258 1071 332 69 8 139 17 156
20 l31 5 -1 -88 c-1 -99 11 -128 67 -162 39 -24 122 -26 175 -4 44 18 97 67
119 108 32 61 9 164 -46 208 l-29 23 -8 841 -7 841 66 5 c76 5 112 25 140 79
23 43 18 142 -8 183 -31 48 -109 71 -187 56z m102 -80 c24 -13 41 -64 33 -101
-16 -81 -142 -94 -173 -18 -16 38 -5 95 23 114 24 17 89 20 117 5z m-2103 -25
c28 -19 39 -76 23 -114 -31 -76 -157 -63 -173 19 -7 35 7 79 30 98 23 17 94
15 120 -3z m1774 -1191 c7 -9 14 -34 14 -56 0 -48 -22 -68 -76 -68 -43 0 -69
27 -69 70 0 46 26 70 74 70 28 0 48 -6 57 -16z m-682 -560 c26 -33 28 -94 3
-124 -12 -15 -33 -24 -64 -27 -40 -5 -50 -2 -72 20 -20 20 -26 36 -26 72 0 62
24 85 89 85 42 0 53 -4 70 -26z m-1009 -216 c14 -15 20 -35 20 -65 0 -59 -33
-93 -90 -93 -57 0 -90 34 -90 91 0 61 29 89 91 89 37 0 53 -5 69 -22z m1879
-14 c30 -6 31 -8 31 -60 0 -66 -23 -127 -56 -149 -23 -15 -27 -15 -60 5 -61
38 -79 104 -50 175 14 32 18 35 59 35 25 0 59 -3 76 -6z"/>
<path d="M564 3379 c-51 -82 -63 -117 -51 -156 6 -19 21 -42 33 -50 20 -13 27
-12 67 6 53 24 134 44 148 36 5 -4 9 -14 9 -24 0 -12 -13 -22 -42 -30 -64 -19
-71 -28 -50 -63 18 -32 66 -63 82 -53 5 3 12 22 16 43 4 20 20 52 36 71 25 29
29 40 24 70 -15 94 -72 112 -187 56 -61 -29 -75 -33 -77 -20 -6 29 7 45 37 45
54 0 81 16 81 49 0 35 -17 50 -63 58 -33 5 -37 3 -63 -38z"/>
<path d="M1115 910 c-3 -6 -5 -21 -3 -33 4 -35 -77 -127 -113 -127 -15 0 -30
-4 -34 -9 -3 -5 19 -36 48 -67 39 -42 58 -56 71 -51 15 6 15 9 2 35 -15 28
-14 31 27 90 41 60 43 61 79 55 30 -4 39 -2 44 12 10 26 -5 44 -63 77 -33 19
-54 25 -58 18z"/>
<path d="M3255 853 c-50 -26 -66 -44 -54 -60 6 -7 21 -13 33 -13 28 0 81 -33
99 -62 15 -23 32 -88 24 -88 -3 0 -24 9 -48 19 -47 21 -59 20 -59 -8 0 -25 59
-111 76 -111 8 0 53 32 100 72 121 101 141 147 82 191 -91 68 -112 58 -81 -38
l21 -65 -21 0 c-16 0 -32 17 -59 63 -20 34 -42 74 -47 90 -12 31 -24 33 -66
10z"/>
</g>
</svg>
