<?xml version="1.0" standalone="no"?>
<!DOCTYPE svg PUBLIC "-//W3C//DTD SVG 20010904//EN"
 "http://www.w3.org/TR/2001/REC-SVG-20010904/DTD/svg10.dtd">
<svg version="1.0" xmlns="http://www.w3.org/2000/svg"
 width="439.378017pt" height="439.314705pt" viewBox="0 0 439.378017 439.314705"
 preserveAspectRatio="xMidYMid meet">
<metadata>
Created by potrace 1.16, written by Peter Selinger 2001-2019
</metadata>
<g transform="translate(-6.459356,445.559666) scale(0.100000,-0.100000)"
fill="#000000" stroke="none">
<path d="M2035 4449 c-460 -47 -838 -206 -1186 -497 -222 -186 -440 -458 -564
-702 -89 -176 -166 -425 -202 -650 -25 -160 -25 -519 0 -678 73 -465 258 -840
579 -1177 354 -371 756 -583 1253 -660 232 -37 577 -28 810 20 600 124 1126
508 1450 1060 287 487 362 1135 198 1720 -95 342 -285 657 -563 935 -342 340
-745 546 -1210 615 -128 19 -442 27 -565 14z m549 -85 c363 -50 707 -201 1001
-437 103 -83 303 -289 383 -394 213 -281 347 -603 398 -960 23 -162 24 -468 0
-626 -67 -463 -265 -854 -602 -1191 -343 -343 -730 -537 -1214 -607 -128 -19
-471 -16 -610 5 -460 69 -852 267 -1185 601 -263 262 -447 570 -543 910 -119
417 -104 898 40 1320 36 104 153 336 223 440 370 551 953 902 1586 954 141 12
379 5 523 -15z"/>
<path d="M2055 4339 c-197 -20 -358 -55 -522 -115 -483 -174 -925 -575 -1157
-1047 -282 -574 -272 -1329 25 -1885 196 -368 523 -695 891 -891 487 -260
1148 -303 1688 -109 569 203 1069 715 1260 1287 153 458 141 1006 -30 1445
-197 505 -620 943 -1120 1159 -304 132 -694 191 -1035 156z m585 -58 c430 -77
814 -289 1121 -621 313 -336 482 -695 539 -1145 16 -120 12 -427 -6 -556 -29
-208 -98 -438 -185 -611 -22 -43 -45 -78 -51 -78 -6 0 -21 9 -33 20 -12 12
-35 22 -50 23 -28 2 -29 1 -26 -48 1 -29 -3 -57 -11 -68 -13 -17 -17 -16 -76
13 -57 29 -112 81 -112 107 0 6 -6 16 -14 22 -11 10 -20 2 -44 -41 -30 -52
-33 -80 -6 -57 8 7 27 9 46 5 41 -8 122 -60 142 -91 16 -24 16 -25 -34 -50
-27 -14 -50 -32 -50 -40 0 -8 17 -23 38 -34 l37 -19 43 41 c23 23 42 38 42 34
0 -18 -170 -214 -266 -307 -335 -323 -728 -510 -1176 -559 -122 -14 -375 -14
-493 -1 -482 54 -894 261 -1245 626 -342 355 -535 792 -558 1266 -32 645 147
1139 573 1577 282 290 585 469 954 562 128 33 314 60 399 58 l57 -1 -42 -10
c-51 -11 -78 -46 -44 -55 20 -5 21 -12 21 -114 0 -91 -3 -109 -15 -109 -21 0
-30 -27 -16 -44 18 -22 177 -21 221 1 47 24 59 67 35 129 -9 25 -23 48 -31 51
-11 4 -11 10 1 33 8 16 15 36 15 45 0 21 -48 65 -71 65 -10 0 -20 3 -22 8 -9
13 277 -6 393 -27z m-352 -43 c4 -22 -32 -58 -58 -58 -17 0 -20 7 -20 41 l0
40 37 -3 c26 -2 39 -8 41 -20z m10 -148 c4 -40 -16 -60 -60 -60 -25 0 -28 3
-28 34 0 57 8 67 49 64 33 -3 36 -6 39 -38z"/>
<path d="M2076 3900 c-379 -44 -679 -183 -953 -444 -374 -356 -548 -817 -505
-1339 26 -306 117 -566 285 -804 79 -113 297 -331 410 -410 226 -159 482 -254
766 -282 610 -63 1148 176 1521 673 143 192 239 419 286 681 24 135 25 431 0
565 -64 359 -206 631 -466 890 -250 249 -530 396 -870 454 -115 20 -365 28
-474 16z m526 -59 c309 -67 566 -209 798 -441 138 -139 230 -264 309 -425 67
-135 101 -232 133 -379 20 -88 22 -131 22 -336 0 -207 -2 -247 -22 -339 -32
-145 -65 -238 -133 -376 -79 -161 -170 -286 -309 -425 -235 -235 -485 -371
-807 -440 -125 -27 -400 -38 -540 -21 -380 46 -694 206 -971 496 -206 216
-341 469 -403 753 -27 125 -37 436 -19 578 48 388 250 750 563 1013 230 193
454 297 752 352 142 26 485 21 627 -10z"/>
<path d="M2260 3212 c-50 -25 -72 -73 -67 -147 2 -33 7 -68 12 -77 6 -16 0
-18 -60 -18 -64 0 -66 1 -59 23 13 41 6 120 -14 146 -28 38 -60 51 -125 51
-67 0 -107 -17 -127 -56 -16 -29 -20 -118 -6 -146 7 -17 -1 -18 -104 -18 -103
0 -112 1 -105 18 12 28 14 93 3 124 -5 15 -23 39 -40 53 -25 21 -40 25 -91 25
-72 0 -121 -24 -138 -68 -12 -30 -14 -100 -4 -131 6 -20 2 -21 -75 -21 -80 0
-81 0 -74 23 14 43 7 118 -13 146 -32 42 -61 52 -137 49 -62 -3 -71 -7 -96
-35 -35 -39 -46 -96 -27 -150 14 -40 14 -40 -19 -62 -80 -55 -85 -192 -10
-261 24 -22 37 -25 99 -25 40 0 80 4 89 8 15 8 17 -25 20 -430 4 -408 6 -443
26 -515 44 -159 118 -254 282 -363 115 -75 142 -85 237 -85 238 0 428 110 531
307 46 89 88 222 97 310 3 32 8 74 10 93 2 19 4 183 4 363 1 321 1 327 20 317
11 -5 36 -10 56 -10 25 0 38 -5 42 -17 22 -61 104 -246 155 -351 l60 -124 -97
-276 c-152 -430 -130 -382 -177 -382 -91 0 -148 -62 -147 -160 1 -125 82 -186
213 -158 60 13 91 42 106 99 18 66 5 126 -37 168 l-35 35 107 275 c59 152 111
280 115 284 12 13 209 -442 245 -568 9 -33 23 -67 30 -75 7 -8 20 -30 29 -47
10 -20 24 -33 36 -33 42 0 102 125 133 280 12 61 26 111 31 111 5 0 17 -32 27
-71 35 -136 89 -206 177 -230 80 -21 151 10 244 107 77 82 153 201 180 284 26
83 15 111 -22 55 -30 -42 -118 -94 -168 -98 -35 -3 -38 0 -60 42 -19 37 -23
56 -19 110 6 90 57 211 113 266 38 38 48 43 95 46 83 5 77 17 -56 111 l-25 18
0 198 0 199 35 35 c35 35 41 54 35 127 -5 76 -54 120 -136 120 -41 0 -103 -26
-111 -47 -4 -9 -25 -13 -70 -13 l-65 0 8 28 c5 15 9 53 9 84 0 52 -3 61 -32
90 -28 28 -40 33 -96 36 -113 7 -163 -41 -154 -147 2 -31 8 -64 12 -73 6 -16
-1 -18 -84 -18 l-91 0 0 85 c0 84 0 85 28 91 52 11 56 14 44 26 -8 8 -63 12
-159 12 -125 1 -148 -1 -148 -14 0 -9 15 -19 38 -24 l38 -10 -3 -80 -3 -81
-129 -3 c-120 -2 -128 -1 -120 15 4 10 10 47 11 83 4 78 -18 123 -72 146 -47
19 -132 18 -175 -4z m155 -77 c28 -28 34 -97 11 -128 -36 -47 -132 -42 -155 9
-19 43 -14 92 14 119 34 35 96 35 130 0z m850 -15 c26 -29 23 -89 -5 -112 -29
-24 -61 -23 -94 3 -33 26 -36 79 -6 109 27 27 81 26 105 0z m-2162 -17 c33
-38 22 -108 -20 -124 -34 -13 -80 -2 -93 21 -15 29 -12 81 7 102 21 24 84 24
106 1z m422 -3 c23 -26 23 -86 1 -108 -23 -24 -94 -22 -112 3 -19 26 -18 84 3
107 23 25 84 24 108 -2z m479 -2 c9 -12 16 -37 16 -54 0 -61 -78 -93 -127 -53
-19 16 -17 89 4 111 24 27 87 24 107 -4z m1626 -158 c48 -48 16 -130 -50 -130
-44 0 -72 29 -72 75 0 28 6 44 22 57 29 24 75 23 100 -2z m-2580 -50 c28 -15
44 -74 31 -112 -15 -42 -38 -57 -88 -58 -86 0 -125 98 -63 160 22 22 88 27
120 10z m390 -35 l0 -45 -140 0 -140 0 0 45 0 45 140 0 140 0 0 -45z m470 0
l0 -45 -200 0 -200 0 0 45 0 45 200 0 200 0 0 -45z m300 0 l0 -45 -109 0 -109
0 -4 41 c-2 22 -2 42 1 45 2 2 53 4 113 4 l108 0 0 -45z m225 20 c19 -18 25
-35 25 -65 0 -56 -34 -90 -90 -90 -58 0 -90 33 -90 94 0 36 5 48 26 65 38 30
98 28 129 -4z m315 -50 c0 -66 -2 -75 -18 -75 -11 0 -26 -8 -35 -18 -25 -28
-3 -42 65 -42 32 0 58 -2 58 -5 0 -3 -8 -13 -18 -23 -11 -11 -47 -105 -82
-210 -35 -106 -68 -192 -74 -192 -9 0 -81 152 -179 378 -9 18 -6 27 15 50 14
15 31 37 37 49 14 27 14 103 1 137 l-10 26 120 0 120 0 0 -75z m334 58 c-4
-10 -10 -45 -12 -79 -3 -54 -1 -64 23 -92 44 -53 152 -65 213 -26 48 31 67
127 36 185 l-15 30 52 -3 51 -3 4 -37 c2 -21 8 -47 14 -58 15 -29 69 -60 103
-60 l27 0 0 -187 0 -188 -58 -1 c-102 -3 -181 -50 -247 -150 -53 -79 -76 -144
-160 -449 -41 -148 -80 -287 -86 -308 -7 -25 -15 -37 -25 -35 -9 2 -53 93
-108 223 -51 121 -120 280 -154 353 l-61 134 81 231 c44 128 87 253 95 280
l16 47 47 0 c74 0 88 34 23 54 -15 5 -23 15 -23 29 0 12 -3 46 -6 75 l-7 52
93 0 c84 0 91 -2 84 -17z m173 -11 c22 -14 33 -60 22 -89 -13 -35 -26 -43 -71
-43 -27 0 -41 6 -52 22 -37 52 -5 118 57 118 17 0 37 -4 44 -8z m-1047 -207
l0 -75 -525 0 -525 0 0 75 0 75 525 0 525 0 0 -75z m-772 -212 l3 -63 -141 0
-140 0 0 65 0 66 138 -3 137 -3 3 -62z m472 2 l0 -65 -200 0 -200 0 0 65 0 65
200 0 200 0 0 -65z m298 -2 l3 -63 -109 0 c-60 0 -111 2 -113 4 -2 2 -2 32 -1
65 l4 62 106 -3 107 -3 3 -62z m-884 -150 c-4 -10 -9 -45 -11 -78 -7 -116 48
-169 169 -163 99 5 139 41 151 133 3 22 0 56 -8 77 -14 42 -11 48 22 48 l23 0
0 -195 c0 -107 1 -198 3 -202 1 -5 -33 -9 -76 -11 l-79 -3 -65 56 c-36 31 -71
54 -77 52 -16 -5 -25 -70 -23 -174 2 -73 6 -96 20 -110 16 -16 20 -15 70 34
68 66 83 73 161 73 62 0 66 -1 66 -22 0 -40 -48 -127 -100 -182 -39 -41 -60
-55 -89 -60 -50 -8 -73 -33 -47 -51 29 -22 136 -35 277 -34 191 1 243 9 247
35 2 15 -10 28 -47 52 -27 18 -64 49 -81 69 -40 45 -80 128 -80 166 0 27 1 27
63 27 l62 0 34 -50 c18 -27 42 -57 53 -67 19 -17 20 -17 35 2 12 17 14 42 8
150 -3 71 -10 134 -15 139 -15 15 -38 -2 -72 -54 l-33 -50 -70 2 c-38 2 -69 6
-67 11 1 4 2 95 2 203 l0 195 28 -3 c18 -2 26 -8 23 -18 -17 -69 -19 -90 -12
-123 19 -81 68 -117 161 -117 113 0 163 51 157 160 -1 36 -7 73 -11 83 -8 16
-3 18 50 15 l59 -3 3 -120 c11 -457 -85 -718 -304 -826 -64 -32 -76 -34 -198
-39 l-130 -5 -76 45 c-142 84 -229 195 -286 363 -40 117 -54 223 -54 413 l0
174 86 0 c78 0 85 -2 78 -17z m2340 -9 c17 -12 13 -16 -51 -57 -67 -43 -72
-49 -102 -122 -44 -105 -64 -205 -58 -285 7 -79 35 -158 63 -177 20 -13 26
-10 80 37 54 47 98 70 111 57 10 -11 -61 -122 -108 -169 -80 -80 -155 -85
-274 -19 -36 20 -59 43 -82 81 -30 49 -33 62 -33 130 0 121 41 250 116 367 41
65 45 68 128 120 102 63 158 73 210 37z m-2220 -33 c3 -22 11 -43 18 -47 15
-10 38 24 38 58 0 18 5 28 14 28 24 0 46 -42 46 -86 0 -34 -5 -47 -26 -63 -32
-25 -90 -28 -121 -6 -31 22 -40 78 -19 121 21 46 42 44 50 -5z m476 5 c0 -34
21 -63 39 -52 5 3 12 24 16 46 8 48 28 52 50 10 19 -36 19 -63 0 -99 -16 -33
-33 -41 -79 -41 -52 0 -86 33 -86 84 0 44 22 86 46 86 9 0 14 -11 14 -34z
m494 -858 c23 -21 30 -48 27 -100 -1 -10 -10 -27 -21 -38 -25 -25 -95 -27
-127 -5 -42 30 -38 129 6 155 30 18 88 11 115 -12z"/>
<path d="M700 3518 c-11 -18 -25 -47 -31 -65 -9 -29 -7 -36 25 -78 20 -26 36
-52 36 -58 0 -9 -30 -12 -100 -12 -89 0 -102 -2 -121 -22 -26 -26 -20 -54 10
-46 26 7 154 -79 170 -114 6 -13 8 -35 5 -47 -10 -42 16 -41 57 3 53 56 52 61
-12 75 -27 6 -119 81 -119 97 0 16 54 9 115 -16 66 -27 105 -31 123 -13 23 23
13 54 -26 82 -21 14 -53 41 -71 60 -29 30 -33 41 -33 85 1 29 4 60 7 70 10 34
-14 33 -35 -1z"/>
<path d="M3810 3403 c-92 -27 -126 -33 -173 -30 -44 4 -60 2 -64 -9 -7 -19 40
-97 71 -117 31 -21 40 -9 32 39 l-7 34 40 0 c37 0 40 -3 51 -36 12 -37 15
-117 5 -133 -3 -5 -14 -7 -24 -4 -32 8 -33 -14 -1 -77 46 -91 43 -94 110 120
23 74 53 157 67 184 13 27 21 52 16 56 -4 4 -60 -8 -123 -27z m50 -38 c0 -14
-41 -85 -49 -85 -5 0 -12 7 -15 16 -13 33 -6 52 22 62 32 12 42 14 42 7z"/>
<path d="M762 1438 c-7 -7 -12 -26 -12 -42 0 -98 -134 -165 -200 -101 -25 24
-28 24 -41 9 -12 -15 -8 -27 33 -103 38 -70 50 -86 69 -86 20 0 24 6 27 37 3
40 27 64 126 127 l50 31 22 -21 c27 -25 38 -12 29 33 -9 45 -87 132 -103 116z"/>
<path d="M2350 525 c-14 -16 -6 -35 16 -35 17 0 19 -42 4 -71 -11 -19 -68 -27
-104 -13 -22 8 -22 70 0 78 13 5 14 9 3 22 -8 10 -26 14 -53 12 l-41 -3 5 -45
c3 -25 5 -73 5 -107 0 -51 -4 -66 -24 -86 -12 -14 -20 -30 -16 -36 7 -12 85
-13 123 -3 30 9 33 26 5 30 -19 3 -23 10 -23 43 l0 39 65 0 c64 0 65 0 65 -27
0 -18 -10 -35 -27 -48 -40 -32 -22 -45 61 -45 52 0 77 4 86 15 14 17 5 35 -19
35 -21 0 -31 51 -31 153 0 45 4 63 18 73 16 11 15 13 -11 23 -40 15 -92 14
-107 -4z"/>
</g>
</svg>
