<?xml version="1.0" standalone="no"?>
<!DOCTYPE svg PUBLIC "-//W3C//DTD SVG 20010904//EN"
 "http://www.w3.org/TR/2001/REC-SVG-20010904/DTD/svg10.dtd">
<svg version="1.0" xmlns="http://www.w3.org/2000/svg"
 width="439.281595pt" height="439.610931pt" viewBox="0 0 439.281595 439.610931"
 preserveAspectRatio="xMidYMid meet">
<metadata>
Created by potrace 1.16, written by Peter Selinger 2001-2019
</metadata>
<g transform="translate(-5.155985,444.828967) scale(0.100000,-0.100000)"
fill="#000000" stroke="none">
<path d="M2070 4443 c-256 -19 -538 -92 -754 -193 -415 -195 -799 -561 -1019
-970 -257 -477 -317 -1116 -157 -1673 103 -356 301 -674 593 -953 236 -225
483 -380 769 -479 226 -79 413 -113 678 -121 651 -22 1220 210 1666 679 333
350 518 736 585 1222 20 139 17 486 -5 630 -72 476 -273 870 -621 1219 -306
307 -684 516 -1074 596 -199 40 -466 58 -661 43z m504 -89 c438 -61 822 -253
1154 -578 424 -414 632 -887 646 -1466 16 -614 -193 -1140 -622 -1566 -335
-334 -717 -528 -1177 -600 -156 -24 -500 -24 -650 0 -237 38 -395 87 -591 181
-222 106 -410 240 -589 420 -180 180 -316 370 -420 589 -74 154 -106 247 -145
411 -42 179 -54 290 -54 505 0 302 34 499 131 760 172 467 565 903 1028 1141
378 195 831 266 1289 203z"/>
<path d="M2075 4333 c-156 -10 -381 -58 -541 -114 -481 -168 -935 -578 -1168
-1052 -217 -440 -265 -1001 -129 -1497 130 -472 455 -904 900 -1194 654 -428
1598 -420 2252 18 478 320 799 787 905 1318 130 648 -25 1282 -432 1769 -451
539 -1071 799 -1787 752z m435 -43 c441 -55 817 -233 1149 -546 348 -327 566
-747 626 -1203 20 -147 20 -434 0 -583 -56 -427 -237 -800 -542 -1118 -326
-341 -681 -533 -1138 -616 -122 -22 -441 -30 -586 -15 -464 49 -852 232 -1198
566 -343 332 -539 709 -606 1169 -21 146 -21 466 0 612 67 457 263 836 606
1169 325 316 698 501 1124 559 122 17 449 20 565 6z"/>
<path d="M2217 4266 c-49 -18 -76 -42 -94 -84 -16 -39 -10 -51 47 -87 66 -42
124 -114 106 -132 -15 -16 -88 20 -118 58 -27 34 -34 38 -46 25 -22 -22 -6
-72 32 -101 41 -31 108 -41 161 -23 35 12 41 18 49 55 13 60 -21 116 -96 161
-44 26 -58 40 -58 57 0 26 30 41 54 28 8 -4 25 -24 38 -42 13 -19 27 -35 33
-35 19 -2 33 48 26 89 -6 39 -7 40 -51 42 -25 2 -62 -4 -83 -11z"/>
<path d="M2115 3894 c-16 -2 -70 -9 -120 -15 -325 -41 -625 -188 -882 -433
-290 -276 -452 -597 -499 -986 -50 -424 47 -828 279 -1157 79 -113 297 -331
410 -410 168 -118 376 -210 568 -251 619 -133 1214 58 1619 521 244 278 369
572 402 950 20 226 -7 451 -78 667 -103 311 -307 589 -591 804 -193 146 -431
246 -688 291 -87 15 -359 28 -420 19z m477 -63 c309 -67 566 -209 798 -441
138 -138 229 -264 310 -425 66 -133 99 -229 132 -379 20 -88 22 -130 22 -336
0 -206 -3 -248 -22 -339 -70 -321 -209 -571 -452 -811 -131 -130 -259 -222
-415 -299 -215 -106 -389 -149 -645 -158 -177 -6 -318 5 -455 37 -517 120
-965 525 -1144 1033 -64 181 -75 265 -76 537 0 234 2 250 29 364 71 304 206
547 426 767 252 253 523 398 856 459 151 27 490 22 636 -9z"/>
<path d="M1664 3125 c-22 -13 -62 -52 -88 -85 -53 -67 -105 -197 -150 -378
-24 -93 -56 -301 -56 -363 l0 -29 -97 0 -98 0 0 208 c0 218 -10 296 -54 413
-40 107 -130 179 -205 165 -42 -8 -105 -76 -107 -115 -4 -87 8 -115 54 -130
46 -15 84 0 94 36 11 45 7 104 -10 120 -23 24 -37 7 -37 -46 0 -26 -6 -56 -14
-67 -15 -19 -15 -19 -37 3 -25 25 -22 67 11 121 17 27 25 32 59 32 34 0 44 -6
70 -39 85 -107 112 -223 114 -496 l2 -200 -107 -3 c-85 -2 -108 0 -108 11 0 7
-14 26 -31 43 -27 25 -38 29 -89 29 -51 0 -63 -4 -85 -26 -48 -47 -51 -147 -7
-191 53 -53 159 -40 201 25 l24 37 89 0 c85 0 88 -1 88 -23 0 -56 -42 -321
-59 -370 -35 -101 -90 -166 -153 -182 -22 -6 -29 -2 -41 22 -21 40 -37 102
-30 119 3 8 18 14 34 14 28 0 29 -2 29 -44 0 -82 49 -85 71 -4 18 68 -16 132
-76 144 -67 12 -105 -40 -105 -143 0 -72 16 -131 42 -159 61 -67 205 -9 262
105 37 74 45 106 74 317 l28 199 27 3 26 3 3 -173 c2 -95 1 -230 -2 -301 l-5
-127 -32 -20 c-58 -35 -66 -144 -14 -194 47 -45 164 -41 195 7 42 64 27 154
-32 191 l-37 23 3 297 3 296 33 0 34 0 7 -107 c11 -176 34 -391 46 -435 16
-61 67 -108 116 -108 48 0 133 39 160 74 42 53 38 171 -8 212 -16 15 -25 15
-58 5 -55 -16 -81 -40 -87 -81 -8 -47 19 -113 43 -108 13 2 21 19 28 63 9 52
14 60 34 63 23 4 24 2 17 -40 -4 -23 -15 -56 -25 -73 -15 -26 -23 -30 -61 -29
-36 1 -49 7 -76 36 -48 53 -58 116 -51 338 4 102 7 186 7 188 0 1 99 2 220 2
l220 0 0 -170 0 -169 -30 -16 c-43 -22 -63 -68 -57 -128 6 -71 38 -99 114
-104 76 -5 117 19 133 77 16 61 4 105 -41 144 l-39 33 0 166 0 167 125 0 125
0 0 -170 0 -169 -30 -16 c-65 -34 -81 -149 -27 -203 34 -33 118 -42 166 -18
38 20 51 50 51 118 0 46 -4 55 -40 89 l-39 37 -2 164 -1 163 106 3 105 3 3
-167 3 -167 -28 -18 c-40 -23 -56 -51 -63 -101 -6 -52 18 -106 56 -125 14 -7
49 -13 77 -13 43 0 58 5 83 28 59 52 50 165 -16 204 l-34 20 0 169 0 169 40 0
39 0 -5 -47 c-7 -64 18 -113 66 -130 40 -14 115 -8 147 12 28 19 47 78 39 126
l-6 39 50 0 c58 0 55 12 35 -147 -19 -141 -55 -306 -85 -385 -21 -57 -22 -58
-61 -58 -31 0 -47 7 -70 29 -42 42 -38 81 12 106 l28 15 3 -47 c2 -25 8 -48
15 -50 17 -6 43 50 43 92 0 50 -14 72 -50 80 -38 8 -69 -11 -109 -66 -29 -39
-29 -40 -16 -97 24 -103 28 -108 85 -122 69 -17 135 -8 167 21 43 40 55 84 64
244 10 148 32 274 63 348 14 33 20 37 51 37 l35 0 0 -272 0 -273 -40 -17 c-47
-19 -70 -62 -70 -128 0 -95 47 -140 145 -140 101 0 145 43 145 142 0 64 -24
109 -69 128 l-31 12 0 274 0 274 34 0 34 0 6 -152 c14 -317 29 -391 86 -443
18 -16 36 -20 92 -20 66 0 71 2 94 30 64 79 92 189 58 226 -26 29 -68 49 -100
49 -33 0 -100 -64 -110 -105 -8 -31 9 -71 38 -89 25 -15 38 2 45 55 9 68 18
81 49 67 25 -11 26 -16 20 -62 -6 -57 -30 -95 -70 -114 -25 -13 -30 -12 -51 8
-12 11 -35 44 -51 73 l-29 52 0 210 0 210 57 3 c54 3 58 2 64 -22 3 -14 22
-39 40 -56 31 -27 42 -30 100 -30 61 0 68 2 99 33 56 56 56 170 -2 223 -31 28
-96 39 -150 25 -44 -12 -66 -32 -82 -74 -10 -25 -14 -27 -70 -27 l-59 0 3 38
c2 20 6 114 10 207 9 234 34 336 106 426 34 44 47 47 79 21 16 -13 23 -31 26
-77 5 -56 -6 -98 -22 -83 -4 4 -12 31 -19 60 -13 60 -32 69 -53 25 -43 -90
-18 -137 73 -137 51 0 57 2 76 33 17 26 20 44 16 99 -6 91 -30 132 -81 136
-53 5 -90 -13 -136 -65 -70 -79 -101 -191 -125 -448 -9 -93 -18 -185 -21 -202
l-5 -33 -109 0 c-61 0 -110 3 -110 8 0 4 7 86 16 182 31 344 -15 593 -118 646
-37 19 -119 14 -165 -10 -48 -24 -69 -99 -53 -185 20 -105 91 -135 155 -65 29
31 33 41 28 73 -10 59 -21 83 -41 79 -14 -3 -18 -16 -20 -66 -3 -61 -3 -62
-32 -62 -23 0 -33 7 -45 30 -19 37 -9 85 30 136 23 30 32 34 70 34 38 0 46 -4
64 -34 66 -106 77 -209 51 -473 -11 -114 -22 -227 -26 -250 l-5 -43 -50 0 -50
0 7 34 c15 83 -40 146 -126 146 -86 0 -141 -63 -126 -146 7 -33 6 -34 -26 -34
l-33 0 5 174 5 173 43 46 c45 50 49 59 30 75 -29 22 -219 32 -244 11 -24 -20
-17 -57 14 -73 56 -29 60 -50 54 -298 l-2 -108 -112 0 -111 0 6 169 c6 175 10
195 54 242 21 23 23 30 13 48 -10 21 -17 21 -133 19 -106 -3 -122 -5 -125 -20
-2 -12 9 -23 34 -35 21 -10 49 -33 61 -52 22 -32 23 -44 23 -202 l0 -169 -125
0 -125 0 0 183 c0 164 2 185 20 215 11 18 31 37 44 42 36 13 40 29 11 40 -37
14 -258 13 -272 -1 -18 -18 -5 -36 42 -59 67 -33 75 -58 75 -254 l0 -166 -220
0 -219 0 4 28 c3 15 14 110 26 212 24 208 53 340 100 441 34 73 86 129 119
129 23 0 54 -31 71 -71 10 -25 9 -32 -6 -49 -26 -28 -40 -25 -64 16 -25 42
-54 43 -59 1 -5 -38 54 -97 96 -97 37 0 92 51 92 85 0 51 -23 127 -47 155 -31
38 -72 39 -129 5z m1170 -758 c21 -16 24 -60 6 -82 -16 -20 -64 -19 -84 1 -48
48 23 121 78 81z m883 -78 c18 -16 17 -94 -3 -113 -21 -22 -87 -21 -107 2 -31
34 -23 101 15 120 26 13 74 8 95 -9z m-2897 -19 c38 -38 18 -90 -33 -90 -40 0
-57 15 -57 51 0 54 52 77 90 39z m2005 -80 c23 -9 26 -14 23 -52 -3 -42 -4
-43 -43 -46 -61 -5 -87 46 -45 88 23 23 29 24 65 10z m-847 -412 c20 -20 15
-76 -9 -88 -52 -29 -107 26 -75 75 18 27 63 34 84 13z m330 0 c29 -29 4 -98
-36 -98 -48 0 -75 48 -52 91 12 22 68 27 88 7z m298 -16 c23 -47 -12 -90 -62
-78 -64 16 -46 110 19 104 21 -2 35 -11 43 -26z m659 -197 c34 -33 33 -77 -2
-105 -58 -45 -137 3 -117 72 17 57 78 75 119 33z m-1961 -46 c10 -9 11 -63 1
-79 -3 -5 -24 -10 -46 -10 -33 0 -41 4 -49 25 -12 31 2 72 27 78 21 5 54 -2
67 -14z"/>
<path d="M606 3458 c-47 -83 -42 -118 20 -144 39 -16 68 -12 136 22 53 27 78
23 78 -11 0 -30 -16 -41 -73 -49 -63 -9 -71 -30 -28 -68 39 -35 61 -33 80 7 8
17 29 47 48 69 31 34 34 42 28 75 -11 58 -31 74 -85 66 -25 -4 -68 -18 -96
-31 -55 -26 -70 -29 -78 -15 -8 13 33 61 53 61 9 0 22 5 29 12 19 19 -15 48
-54 48 -28 0 -37 -6 -58 -42z"/>
<path d="M3805 3330 c-88 -23 -129 -24 -145 -5 -21 25 -54 15 -58 -18 -3 -21
6 -40 33 -73 43 -52 65 -53 77 -6 11 41 21 40 53 -3 34 -44 30 -70 -10 -70
-26 0 -30 -4 -33 -32 -3 -26 4 -41 36 -74 42 -46 72 -48 72 -6 0 13 23 71 52
128 30 61 51 119 52 139 1 32 -1 35 -29 37 -16 0 -61 -7 -100 -17z m65 -34 c0
-1 -5 -17 -11 -35 l-11 -32 -25 23 -25 23 29 12 c29 12 43 16 43 9z"/>
<path d="M674 1266 c-80 -38 -94 -60 -94 -149 0 -47 3 -54 44 -93 34 -33 57
-45 98 -53 132 -27 216 41 206 167 -4 43 -11 59 -39 88 -37 39 -97 74 -126 74
-10 0 -50 -15 -89 -34z m163 -82 c9 -23 -18 -95 -48 -128 -31 -35 -62 -31
-108 15 -35 35 -39 59 -13 82 47 43 156 63 169 31z"/>
<path d="M3650 1232 c-35 -37 -77 -87 -93 -111 -26 -41 -27 -44 -12 -68 22
-33 42 -39 65 -18 14 13 20 31 20 61 0 42 1 44 40 55 l41 12 49 -48 c43 -42
49 -54 52 -94 2 -36 7 -46 21 -46 18 0 100 113 91 127 -3 4 -19 8 -36 8 -23 0
-47 14 -94 55 -58 51 -62 58 -52 80 12 27 5 55 -14 55 -7 0 -42 -31 -78 -68z"/>
<path d="M2175 491 c-36 -5 -41 -10 -49 -42 -17 -71 12 -89 68 -42 48 41 89
54 124 42 46 -16 69 -90 53 -172 -10 -57 0 -66 57 -51 l35 9 -2 103 c-2 90 0
106 16 117 12 9 15 17 8 23 -12 12 -254 22 -310 13z"/>
</g>
</svg>
