<?xml version="1.0" standalone="no"?>
<!DOCTYPE svg PUBLIC "-//W3C//DTD SVG 20010904//EN"
 "http://www.w3.org/TR/2001/REC-SVG-20010904/DTD/svg10.dtd">
<svg version="1.0" xmlns="http://www.w3.org/2000/svg"
 width="439.196766pt" height="439.252862pt" viewBox="0 0 439.196766 439.252862"
 preserveAspectRatio="xMidYMid meet">
<metadata>
Created by potrace 1.16, written by Peter Selinger 2001-2019
</metadata>
<g transform="translate(-4.212121,444.669260) scale(0.100000,-0.100000)"
fill="#000000" stroke="none">
<path d="M2065 4444 c-421 -44 -730 -147 -1021 -342 -671 -450 -1026 -1132
-1001 -1922 19 -574 212 -1039 598 -1445 381 -398 836 -622 1369 -674 136 -14
455 -6 580 14 486 77 901 296 1243 655 328 345 514 723 583 1190 21 141 24
481 6 620 -81 605 -379 1107 -886 1490 -269 204 -602 342 -956 395 -102 15
-434 27 -515 19z m499 -90 c224 -31 446 -102 643 -204 217 -113 372 -230 559
-421 322 -330 500 -681 575 -1134 33 -196 31 -515 -4 -715 -78 -444 -266 -805
-583 -1124 -344 -345 -726 -541 -1194 -612 -140 -22 -471 -24 -605 -6 -482 68
-873 262 -1217 604 -335 333 -536 727 -605 1185 -22 151 -22 499 1 648 72 465
271 851 614 1191 375 372 826 573 1362 608 98 6 342 -4 454 -20z"/>
<path d="M2020 4329 c-380 -39 -715 -168 -1022 -395 -117 -87 -345 -312 -430
-424 -280 -371 -416 -783 -416 -1260 0 -599 208 -1088 640 -1506 385 -373 820
-558 1363 -581 527 -22 1020 142 1413 471 231 192 461 486 573 732 148 325
213 722 179 1079 -48 491 -226 885 -560 1238 -334 352 -725 559 -1195 632
-125 19 -419 27 -545 14z m512 -44 c458 -60 873 -277 1203 -627 298 -317 479
-686 539 -1105 21 -144 21 -443 1 -595 -56 -427 -237 -800 -542 -1118 -342
-359 -739 -563 -1211 -625 -130 -17 -395 -20 -527 -5 -483 54 -891 259 -1246
626 -311 322 -495 706 -549 1148 -14 113 -14 419 0 533 47 376 193 720 433
1018 82 102 268 282 375 363 273 208 591 340 932 387 134 18 454 18 592 0z"/>
<path d="M2212 4260 c-99 -6 -131 -17 -118 -39 4 -6 25 -14 47 -17 38 -6 39
-7 39 -49 0 -23 -3 -69 -6 -103 -5 -48 -11 -61 -26 -65 -13 -4 -18 -12 -16
-24 4 -21 52 -28 113 -15 44 9 55 35 18 40 -23 3 -28 12 -23 42 3 20 19 30 53
30 31 0 97 31 116 54 11 13 11 22 1 46 -19 45 -68 110 -83 108 -6 0 -58 -4
-115 -8z m106 -83 c12 -11 22 -31 22 -43 0 -18 -8 -26 -40 -35 -22 -7 -42 -10
-45 -8 -2 3 -7 31 -11 63 l-7 57 29 -7 c16 -4 39 -16 52 -27z"/>
<path d="M2100 3893 c-303 -29 -522 -103 -750 -251 -395 -256 -658 -649 -735
-1097 -20 -117 -27 -363 -14 -485 41 -387 209 -725 496 -1001 141 -134 256
-215 418 -295 238 -116 428 -158 725 -158 267 0 445 34 663 128 371 161 719
516 866 886 144 362 157 788 35 1165 -144 441 -535 846 -979 1010 -217 81
-506 120 -725 98z m477 -61 c215 -47 424 -138 593 -259 122 -88 307 -272 392
-393 138 -194 229 -415 269 -653 18 -105 20 -150 16 -322 -7 -287 -42 -435
-158 -670 -79 -161 -170 -286 -309 -425 -230 -230 -469 -363 -785 -436 -112
-26 -135 -28 -345 -28 -196 -1 -240 2 -337 22 -158 32 -249 63 -398 137 -382
189 -692 550 -819 955 -53 167 -69 301 -63 535 7 296 40 434 162 680 230 461
673 787 1184 870 129 21 476 13 598 -13z"/>
<path d="M1657 3509 c-67 -36 -100 -160 -62 -233 8 -15 15 -31 15 -35 0 -3
-111 -6 -247 -6 -235 0 -251 -1 -313 -23 -36 -13 -75 -33 -87 -44 -27 -25 -47
-106 -40 -160 9 -70 34 -85 170 -102 125 -16 150 -25 167 -56 15 -29 12 -132
-5 -157 -18 -26 -49 -37 -189 -64 -61 -11 -121 -27 -135 -34 -36 -19 -105 -93
-126 -135 -20 -39 -23 -148 -6 -192 14 -38 56 -43 221 -29 170 14 238 14 278
0 36 -12 36 8 3 -194 l-16 -99 -55 -4 c-90 -5 -147 -52 -156 -128 -7 -52 28
-120 81 -156 l40 -28 68 16 c38 9 69 14 71 12 1 -1 23 -36 49 -75 26 -40 47
-75 47 -78 0 -3 -24 -5 -52 -5 -175 -2 -348 -72 -394 -162 -14 -27 -14 -32 4
-66 37 -72 52 -77 245 -77 172 0 172 0 238 31 l65 31 -4 -58 c-6 -75 1 -101
39 -143 51 -58 173 -71 249 -25 36 22 69 88 70 137 0 32 0 32 28 18 43 -22
120 -35 250 -42 111 -6 123 -5 154 14 48 30 77 64 84 99 5 26 0 37 -32 73 -54
59 -92 75 -236 95 -71 10 -128 23 -128 29 0 5 18 40 40 78 l41 68 62 0 c34 1
85 9 112 18 43 15 53 23 72 62 11 25 23 64 26 87 4 37 1 48 -30 88 -20 25 -33
48 -30 51 3 4 228 154 499 335 489 327 493 329 505 305 7 -13 26 -29 42 -34
27 -10 31 -16 37 -64 10 -73 41 -103 117 -112 56 -7 59 -6 147 44 87 50 130
88 130 117 0 40 -55 19 -143 -54 -56 -48 -102 -66 -144 -58 -29 5 -33 10 -33
36 0 39 47 89 125 132 67 37 110 96 87 119 -9 9 -22 7 -59 -11 -26 -13 -63
-35 -83 -51 -44 -34 -136 -51 -146 -26 -13 34 39 98 131 160 61 42 91 69 93
84 8 55 -74 33 -156 -42 -66 -61 -91 -76 -126 -76 -41 0 -56 10 -56 40 0 43
44 87 129 130 84 42 117 72 123 110 7 56 -86 25 -176 -60 -70 -65 -95 -76
-168 -71 -26 1 -23 38 7 98 37 74 97 137 157 165 63 30 93 60 84 84 -8 20 -55
15 -113 -12 -78 -37 -219 -206 -242 -291 -17 -62 16 -103 84 -103 20 0 26 -7
36 -42 6 -24 19 -52 29 -63 41 -44 38 -47 -228 -210 -140 -85 -257 -155 -262
-155 -5 0 -12 15 -15 33 -10 43 -48 117 -80 155 -43 52 -88 72 -201 92 -58 10
-113 25 -122 32 -47 37 -52 69 -22 135 22 49 30 53 162 81 164 35 200 64 193
157 -7 92 -24 124 -85 155 -67 34 -122 41 -380 49 -143 4 -262 9 -265 12 -3 3
3 21 12 40 24 46 22 137 -3 179 -34 58 -66 75 -152 78 -62 2 -84 -2 -115 -19z
m182 -76 c29 -27 35 -48 32 -111 -1 -13 -14 -37 -30 -53 -23 -23 -38 -29 -71
-29 -90 0 -134 61 -110 151 13 46 47 68 107 69 33 0 49 -6 72 -27z m-699 -383
l0 -90 -27 6 c-51 11 -84 27 -93 45 -30 55 18 129 84 129 l36 0 0 -90z m590
-308 l0 -399 -77 -9 c-106 -12 -107 -26 -4 -106 l81 -63 0 -51 c0 -33 -5 -54
-13 -57 -26 -10 -86 21 -146 74 -93 82 -96 79 -98 -76 -2 -159 6 -229 28 -233
10 -2 35 23 67 68 l52 70 55 0 c30 0 55 -4 55 -10 0 -27 -55 -143 -86 -178
-76 -89 -43 -116 146 -116 159 -1 164 1 145 54 -8 22 -32 62 -54 88 -42 50
-71 108 -71 142 0 20 1 20 38 5 20 -9 60 -40 87 -70 28 -31 58 -55 67 -55 29
0 58 49 58 96 0 58 -30 236 -43 252 -8 10 -18 6 -46 -21 -83 -79 -161 -119
-161 -82 0 43 35 98 87 136 52 39 97 95 88 110 -3 3 -38 10 -79 14 -41 3 -79
12 -84 18 -5 7 -7 177 -4 400 l5 387 256 -2 256 -3 8 -85 c4 -47 5 -94 2 -105
-3 -11 -25 -33 -50 -48 -112 -70 -141 -183 -68 -259 50 -52 89 -70 176 -79
105 -12 165 -41 194 -94 34 -61 45 -123 27 -157 l-14 -28 -256 -2 -256 -3 -2
-200 c-3 -213 -14 -310 -48 -415 -30 -93 -108 -170 -201 -199 -94 -29 -166
-30 -204 -3 -50 36 -156 154 -211 236 -57 86 -58 87 -53 271 2 55 8 108 13
118 12 24 47 227 39 231 -6 3 -33 5 -350 15 l-194 6 -10 28 c-5 15 -6 44 -2
63 11 62 48 89 190 138 239 84 288 123 289 230 1 62 -18 95 -80 139 l-44 31 0
93 0 93 250 0 250 0 0 -398z m802 361 c39 -35 34 -114 -12 -163 -25 -27 -31
-29 -53 -19 -29 13 -37 43 -37 134 0 39 4 65 12 67 20 7 73 -4 90 -19z m-65
-922 l61 -6 -99 -70 c-54 -38 -127 -84 -161 -103 l-63 -33 -6 23 c-3 13 -9 62
-13 111 l-7 87 113 -1 c62 -1 141 -4 175 -8z m-1212 -306 c25 -24 29 -37 26
-85 -3 -45 -21 -67 -59 -74 -40 -6 -46 0 -61 52 -11 37 0 85 25 113 23 25 40
24 69 -6z m1009 -35 c24 -9 26 -15 26 -64 0 -44 -5 -60 -26 -85 -14 -17 -34
-31 -43 -31 -27 0 -52 34 -58 79 -5 38 -2 44 31 76 43 40 37 38 70 25z m-757
-444 c29 -9 55 -21 58 -26 10 -17 -98 -60 -203 -82 -59 -13 -138 -21 -202 -22
l-105 -1 -3 32 c-4 40 37 88 93 109 54 20 288 13 362 -10z m710 -38 c55 -13
93 -48 93 -86 0 -65 -83 -79 -217 -37 -99 31 -133 46 -182 83 -31 23 -32 26
-15 35 11 6 35 14 54 18 43 10 210 1 267 -13z m-427 -94 c33 -32 36 -120 6
-153 -40 -44 -129 -46 -171 -4 -20 21 -25 36 -25 75 0 27 5 58 11 69 28 52
132 60 179 13z"/>
<path d="M690 3527 c-18 -9 -26 -22 -28 -48 -3 -31 3 -41 37 -72 23 -20 41
-39 41 -41 0 -2 -44 -7 -97 -11 -110 -8 -133 -21 -154 -82 -16 -49 1 -64 36
-29 14 14 29 26 32 26 4 0 37 -18 75 -40 68 -41 68 -41 68 -85 0 -24 4 -46 9
-49 15 -9 72 45 88 81 17 42 11 53 -31 53 -38 0 -76 32 -54 46 7 5 45 9 83 9
l70 0 0 39 c0 37 -4 42 -65 86 -61 43 -65 49 -65 85 0 43 -9 50 -45 32z"/>
<path d="M3777 3453 c-4 -3 -7 -17 -7 -30 0 -14 -15 -37 -40 -59 -45 -41 -77
-89 -90 -135 -29 -101 107 -139 251 -69 40 19 44 19 61 3 24 -21 43 -5 35 29
-9 36 -51 93 -67 93 -9 0 -17 -13 -20 -35 -4 -29 -12 -38 -45 -54 -22 -10 -68
-21 -103 -24 l-63 -5 7 29 c11 45 23 66 67 111 l40 42 35 -15 c43 -17 57 -8
48 34 -11 46 -88 107 -109 85z"/>
<path d="M627 1395 c-85 -30 -110 -84 -83 -179 13 -43 23 -59 46 -71 44 -23
100 -18 161 13 123 62 127 169 9 230 -50 25 -79 27 -133 7z m148 -61 c17 -18
15 -46 -8 -94 -9 -18 -26 -28 -71 -39 l-59 -14 -24 29 c-12 16 -23 36 -23 45
0 24 43 59 91 74 59 18 75 18 94 -1z"/>
<path d="M3708 1392 c-31 -34 -40 -62 -27 -78 6 -8 17 -14 24 -14 7 0 23 -8
35 -18 21 -17 21 -19 5 -32 -10 -8 -45 -17 -79 -20 -53 -4 -62 -8 -76 -32 -12
-23 -12 -30 -2 -40 11 -11 18 -8 36 15 17 21 30 27 63 27 39 0 42 -2 53 -37
19 -57 47 -83 91 -83 47 0 82 29 128 104 36 61 36 92 -1 83 -27 -7 -136 52
-194 105 -38 35 -42 37 -56 20z m180 -200 c-38 -45 -88 -33 -88 22 0 18 3 35
6 39 3 3 25 -6 49 -21 35 -21 42 -29 33 -40z"/>
<path d="M2310 561 c-7 -14 -21 -21 -41 -21 -45 0 -117 -20 -131 -37 -10 -12
-9 -27 4 -76 9 -34 13 -66 8 -72 -14 -18 -21 -95 -10 -115 9 -17 21 -20 75
-20 65 0 65 0 95 42 16 22 30 50 30 62 0 12 -25 46 -60 80 -52 52 -74 86 -55
86 12 0 84 -40 90 -50 4 -7 13 -7 26 1 17 9 20 19 17 72 -2 48 -7 62 -20 65
-9 2 -22 -6 -28 -17z m-42 -270 c3 -18 -2 -21 -33 -21 -29 0 -37 5 -45 26 -6
14 -10 34 -10 46 0 19 1 19 43 -5 24 -15 43 -34 45 -46z"/>
</g>
</svg>
