<?xml version="1.0" standalone="no"?>
<!DOCTYPE svg PUBLIC "-//W3C//DTD SVG 20010904//EN"
 "http://www.w3.org/TR/2001/REC-SVG-20010904/DTD/svg10.dtd">
<svg version="1.0" xmlns="http://www.w3.org/2000/svg"
 width="439.406548pt" height="439.504517pt" viewBox="0 0 439.406548 439.504517"
 preserveAspectRatio="xMidYMid meet">
<metadata>
Created by potrace 1.16, written by Peter Selinger 2001-2019
</metadata>
<g transform="translate(-5.014980,443.657196) scale(0.100000,-0.100000)"
fill="#000000" stroke="none">
<path d="M2080 4434 c-568 -51 -992 -246 -1386 -639 -259 -258 -422 -517 -530
-840 -201 -604 -133 -1299 178 -1825 136 -231 384 -505 603 -668 399 -296 866
-438 1380 -419 590 22 1057 223 1470 632 361 358 557 742 631 1235 22 140 24
479 6 620 -67 497 -269 907 -627 1265 -346 346 -745 549 -1215 620 -102 15
-419 27 -510 19z m489 -89 c465 -66 857 -269 1207 -627 322 -329 500 -679 575
-1133 33 -196 31 -515 -4 -715 -80 -454 -268 -810 -604 -1144 -307 -306 -664
-497 -1073 -575 -298 -57 -641 -50 -935 19 -729 170 -1364 796 -1545 1520 -49
196 -64 323 -64 550 0 234 15 361 69 565 92 351 272 659 546 933 380 380 814
582 1344 625 93 7 379 -3 484 -18z"/>
<path d="M2030 4318 c-459 -43 -873 -234 -1214 -559 -262 -250 -443 -527 -546
-837 -193 -577 -128 -1241 171 -1740 196 -326 510 -626 841 -801 495 -261
1134 -303 1684 -110 558 196 1063 703 1257 1264 167 483 150 1068 -44 1525
-187 440 -570 843 -1005 1059 -337 167 -740 237 -1144 199z m475 -38 c510 -57
980 -315 1327 -730 248 -296 398 -629 452 -1007 21 -144 21 -442 1 -596 -27
-209 -98 -443 -187 -622 -196 -390 -558 -747 -953 -939 -276 -135 -559 -196
-904 -196 -584 0 -1070 209 -1481 636 -316 328 -492 695 -550 1149 -14 105
-14 421 0 532 46 375 186 704 428 1011 131 166 370 377 557 492 366 225 836
322 1310 270z"/>
<path d="M2106 4257 l-29 -23 37 -22 c41 -24 40 -22 25 -109 -9 -52 -16 -67
-40 -84 -16 -11 -27 -25 -24 -30 9 -13 83 -11 91 3 4 7 11 42 14 78 6 63 7 64
19 34 49 -125 69 -131 114 -35 34 75 60 95 51 39 -11 -69 -16 -82 -31 -93 -26
-20 -5 -35 48 -35 33 0 51 5 55 14 3 7 0 59 -6 116 -9 94 -9 104 7 116 14 10
15 15 6 25 -10 9 -20 9 -50 -2 -29 -11 -45 -27 -68 -69 -17 -30 -37 -56 -45
-57 -9 -2 -41 31 -75 77 -33 44 -62 80 -65 80 -3 0 -18 -11 -34 -23z"/>
<path d="M2065 3880 c-178 -20 -366 -72 -513 -140 -456 -213 -805 -644 -912
-1125 -41 -181 -48 -489 -16 -670 61 -340 222 -643 473 -886 255 -247 518
-384 858 -445 140 -25 450 -25 590 0 346 63 623 211 880 471 187 189 315 395
388 621 47 146 64 233 79 397 34 396 -75 794 -303 1101 -269 362 -636 592
-1054 661 -113 19 -364 27 -470 15z m522 -58 c215 -47 421 -137 593 -259 121
-87 306 -272 393 -393 78 -110 175 -300 212 -414 59 -184 69 -262 69 -516 0
-254 -10 -330 -69 -515 -37 -115 -134 -305 -212 -415 -87 -122 -272 -306 -393
-392 -181 -128 -406 -223 -625 -264 -156 -29 -491 -27 -639 5 -159 33 -245 63
-391 136 -164 81 -308 188 -448 335 -227 237 -365 507 -419 825 -27 160 -22
487 11 632 84 380 296 706 617 950 205 156 440 256 700 298 132 21 478 14 601
-13z"/>
<path d="M3176 3186 c-80 -30 -139 -115 -140 -202 -1 -73 33 -121 118 -165 59
-31 65 -36 59 -59 -38 -158 -136 -460 -161 -496 -11 -17 -184 -143 -348 -256
-84 -57 -187 -130 -230 -163 -80 -60 -181 -125 -196 -125 -4 0 -8 113 -8 250
l0 250 118 0 117 0 20 -38 c51 -94 211 -96 257 -2 10 19 18 53 17 75 -1 99
-47 147 -142 148 -66 1 -109 -22 -131 -68 l-17 -35 -119 0 -120 0 0 359 c0
230 -4 362 -10 366 -37 23 -112 -15 -717 -354 l-618 -348 -32 28 c-18 16 -48
31 -66 34 -79 15 -165 -40 -168 -108 -6 -129 31 -178 133 -179 68 -1 114 22
135 67 l17 35 148 0 148 0 0 -322 0 -323 -76 0 c-72 0 -77 -1 -104 -32 -64
-72 -45 -198 37 -237 39 -19 42 -23 37 -53 -8 -49 13 -108 47 -137 61 -52 204
-27 229 40 6 14 10 49 10 78 0 50 2 54 30 66 17 7 42 26 55 42 21 24 25 40 25
89 0 74 -18 111 -66 134 -29 13 -51 16 -96 11 l-58 -6 0 324 0 323 92 7 c50 3
113 6 141 6 49 0 49 0 35 -22 -50 -77 -8 -198 69 -198 23 0 24 -3 17 -27 -22
-77 2 -154 52 -173 45 -17 119 -12 147 10 43 34 57 108 32 173 -6 14 -2 17 20
17 37 0 62 16 80 50 23 44 19 101 -10 144 l-24 36 119 0 120 0 2 -307 3 -308
35 1 c25 1 52 13 91 43 55 41 191 135 551 380 98 67 183 121 189 121 56 0 289
-258 305 -338 5 -26 1 -35 -36 -68 -58 -53 -80 -100 -80 -174 0 -34 6 -74 15
-89 33 -65 122 -109 194 -96 136 26 287 205 251 299 -5 14 -14 26 -19 26 -5 0
-29 -36 -53 -81 -76 -143 -132 -189 -213 -173 -44 8 -84 61 -92 123 -5 38 -3
43 55 104 48 49 71 65 104 73 24 5 43 14 42 19 -1 6 -17 19 -37 30 -23 12 -98
93 -196 211 l-160 192 9 93 c16 164 58 284 140 407 28 41 50 81 48 90 -2 10
-32 26 -81 43 -91 30 -153 82 -163 136 -5 27 -1 42 22 74 34 49 47 57 116 65
112 13 227 -43 266 -130 10 -21 16 -26 24 -18 31 31 -42 147 -126 199 -49 32
-170 41 -230 19z m-983 -463 c4 -91 7 -224 7 -294 l0 -127 -47 -6 c-27 -3
-280 -8 -563 -12 -462 -5 -513 -4 -500 10 17 17 1031 582 1058 589 9 3 22 5
28 6 7 1 13 -55 17 -166z m509 -410 c24 -28 28 -50 17 -83 -16 -45 -82 -57
-121 -23 -24 22 -23 78 2 103 25 25 81 27 102 3z m-1848 -19 c24 -23 21 -100
-3 -114 -30 -15 -82 -12 -103 7 -22 20 -24 71 -2 101 18 27 84 31 108 6z m866
-144 c38 -38 18 -90 -34 -90 -39 0 -58 19 -58 57 0 49 56 69 92 33z m200 0
c38 -38 18 -90 -33 -90 -40 0 -57 15 -57 50 0 29 9 45 30 53 27 10 40 7 60
-13z m-93 -216 c15 -24 15 -29 2 -53 -16 -29 -61 -40 -85 -20 -17 14 -19 70
-2 87 22 22 66 14 85 -14z m-613 -465 c34 -27 35 -71 1 -104 -48 -49 -119 -19
-119 50 0 67 64 96 118 54z m233 -6 c22 -29 16 -90 -9 -107 -32 -22 -81 -20
-103 4 -27 30 -23 89 6 113 28 23 87 17 106 -10z m-134 -184 c30 -16 37 -28
37 -71 0 -57 -57 -86 -111 -57 -45 24 -44 103 2 126 30 16 45 16 72 2z"/>
<path d="M616 3408 c-44 -76 -48 -96 -25 -109 15 -8 24 -8 32 0 20 20 27 11
27 -33 l0 -45 -55 -20 c-69 -26 -85 -26 -85 -2 0 41 -21 30 -47 -24 -25 -50
-26 -57 -12 -71 14 -14 22 -14 75 -1 32 9 78 18 101 22 54 8 56 3 57 -118 1
-108 14 -120 50 -48 30 58 32 87 10 119 -10 15 -13 32 -9 53 6 29 10 31 39 26
17 -3 38 -8 48 -12 19 -8 91 79 86 104 -4 17 -8 17 -135 5 -50 -5 -73 -3 -73
4 0 6 -5 46 -11 89 -16 114 -33 129 -73 61z"/>
<path d="M3975 3054 c-175 -35 -183 -36 -203 -25 -33 17 -35 -2 -7 -65 21 -47
27 -54 40 -44 8 6 17 20 20 30 5 16 72 49 79 38 1 -1 9 -26 18 -55 l16 -51
-31 -22 c-25 -19 -33 -21 -49 -11 -30 19 -33 -12 -7 -66 25 -51 55 -67 65 -36
15 46 34 73 107 149 78 82 105 132 84 153 -10 10 -89 13 -132 5z m65 -67 c0
-8 -15 -31 -33 -52 l-34 -39 -11 44 c-6 24 -9 47 -6 52 9 14 84 9 84 -5z"/>
<path d="M1106 932 c-10 -16 -9 -353 1 -363 21 -21 50 -12 126 40 88 59 151
90 184 91 33 0 39 21 13 42 -28 23 -58 18 -112 -18 -38 -24 -38 -24 -90 -6
-53 17 -53 17 -52 57 1 21 6 41 11 42 6 2 19 10 29 17 17 13 17 16 -16 46 -39
37 -87 63 -94 52z m113 -258 c5 -4 -22 -27 -51 -45 -15 -8 -18 -6 -18 19 0 16
3 32 7 36 7 7 53 -1 62 -10z"/>
<path d="M3217 880 c-26 -16 -47 -33 -47 -37 0 -5 7 -33 15 -63 8 -30 15 -58
15 -62 0 -14 -28 -8 -65 13 -43 26 -115 23 -158 -6 -25 -16 -28 -23 -25 -64 4
-63 28 -62 46 2 15 55 27 58 103 26 l49 -21 0 -58 c0 -62 11 -80 64 -100 27
-10 36 -6 115 44 91 57 122 95 101 122 -7 7 -27 14 -45 14 -27 0 -39 9 -79 59
-47 61 -55 87 -34 121 24 37 -4 43 -55 10z m53 -260 c0 -24 -6 -33 -26 -40
-33 -13 -31 -13 -37 11 -3 13 2 28 14 40 29 29 49 24 49 -11z"/>
</g>
</svg>
