<?xml version="1.0" standalone="no"?>
<!DOCTYPE svg PUBLIC "-//W3C//DTD SVG 20010904//EN"
 "http://www.w3.org/TR/2001/REC-SVG-20010904/DTD/svg10.dtd">
<svg version="1.0" xmlns="http://www.w3.org/2000/svg"
 width="439.633224pt" height="439.064586pt" viewBox="0 0 439.633224 439.064586"
 preserveAspectRatio="xMidYMid meet">
<metadata>
Created by potrace 1.16, written by Peter Selinger 2001-2019
</metadata>
<g transform="translate(-6.204658,443.562149) scale(0.100000,-0.100000)"
fill="#000000" stroke="none">
<path d="M2043 4430 c-528 -52 -960 -256 -1339 -635 -349 -349 -544 -730 -619
-1210 -23 -145 -30 -406 -16 -555 53 -543 250 -960 636 -1345 354 -354 732
-548 1215 -621 161 -25 521 -25 678 -1 420 66 766 223 1079 491 535 458 808
1079 779 1770 -24 583 -231 1059 -636 1466 -350 350 -747 554 -1220 625 -127
19 -430 27 -557 15z m541 -86 c365 -51 710 -202 1006 -441 99 -80 289 -276
371 -383 286 -371 423 -787 422 -1280 0 -289 -39 -516 -128 -755 -182 -487
-579 -922 -1058 -1160 -296 -147 -575 -209 -937 -209 -372 0 -652 64 -955 217
-566 286 -998 838 -1124 1433 -36 169 -49 316 -46 509 6 347 65 606 205 890
271 554 780 978 1353 1130 273 72 595 90 891 49z"/>
<path d="M2045 4319 c-138 -13 -337 -56 -468 -99 -437 -146 -841 -471 -1104
-888 -321 -508 -392 -1200 -186 -1797 172 -498 596 -965 1083 -1193 643 -301
1459 -243 2035 146 466 314 793 786 895 1290 135 669 -16 1300 -428 1793 -339
405 -785 659 -1287 735 -126 18 -408 25 -540 13z m598 -58 c384 -69 726 -244
1025 -526 360 -339 578 -767 632 -1240 15 -132 12 -417 -5 -547 -57 -433 -240
-805 -554 -1132 -342 -354 -760 -563 -1236 -616 -116 -13 -374 -13 -490 0
-483 54 -892 260 -1246 626 -311 323 -494 704 -549 1149 -14 112 -14 419 0
534 55 444 240 827 559 1155 387 397 836 602 1366 625 185 7 351 -2 498 -28z"/>
<path d="M2186 4243 c-4 -4 2 -14 12 -23 16 -12 21 -32 25 -116 5 -100 5 -102
-19 -113 -27 -12 -31 -29 -8 -38 23 -9 137 10 141 24 3 6 -10 19 -26 28 -31
15 -31 16 -31 95 0 76 1 81 30 106 16 15 27 31 24 35 -6 11 -138 12 -148 2z"/>
<path d="M2115 3883 c-385 -33 -715 -182 -992 -446 -325 -311 -490 -676 -510
-1127 -16 -373 84 -724 290 -1017 77 -109 295 -329 402 -405 102 -72 286 -168
396 -206 99 -35 248 -68 364 -81 113 -13 361 -6 485 14 127 20 335 87 446 143
314 158 601 450 754 766 222 461 208 1056 -35 1502 -134 245 -368 487 -620
640 -271 165 -640 246 -980 217z m486 -62 c143 -31 240 -65 374 -132 161 -79
286 -171 425 -309 318 -318 471 -688 470 -1135 -1 -368 -89 -656 -287 -932
-250 -350 -610 -583 -1018 -659 -139 -26 -478 -26 -615 -1 -554 105 -1031 516
-1219 1050 -63 181 -75 265 -76 537 0 269 10 336 74 530 147 438 531 829 971
988 107 39 150 50 275 73 142 26 486 21 626 -10z"/>
<path d="M1836 3544 c-144 -28 -172 -42 -212 -110 -43 -73 -58 -149 -43 -212
11 -48 11 -54 -8 -75 -31 -33 -55 -85 -53 -115 1 -15 2 -44 1 -64 l-1 -38
-110 0 -109 0 -15 29 c-51 97 -183 120 -264 46 -35 -31 -37 -37 -40 -107 -5
-125 42 -178 159 -178 67 0 114 27 144 83 l20 37 218 0 c192 0 217 -2 217 -16
0 -14 -101 -421 -130 -526 -11 -38 -11 -38 -63 -38 -64 0 -160 24 -203 50 -17
11 -44 38 -59 61 -20 31 -30 38 -38 30 -16 -16 -23 -366 -8 -375 11 -7 37 17
79 72 32 43 99 72 181 79 65 5 71 4 71 -13 0 -62 -88 -524 -146 -764 -34 -142
-37 -150 -62 -156 -54 -13 -80 -33 -96 -76 -25 -62 -14 -132 29 -175 30 -30
38 -33 97 -33 72 0 122 24 138 66 6 14 10 50 10 80 0 47 -4 59 -34 91 l-34 38
39 165 c21 91 50 226 64 300 14 74 30 157 36 184 6 26 19 105 28 175 l16 126
293 3 292 2 0 -185 0 -185 -248 0 -247 0 -35 48 c-22 28 -43 47 -55 47 -19 0
-20 -7 -18 -125 2 -185 30 -232 77 -126 38 87 36 86 298 86 l228 0 0 -120 0
-120 -178 0 -178 0 -26 28 c-13 15 -35 42 -48 60 -13 20 -26 30 -31 25 -5 -5
-8 -79 -7 -164 3 -135 5 -154 20 -157 11 -2 23 9 34 30 9 18 27 48 41 65 l24
33 175 0 174 0 0 -127 0 -128 -107 2 c-60 1 -117 2 -127 3 -11 0 -39 21 -63
46 -66 68 -73 59 -73 -90 0 -69 4 -127 9 -130 5 -3 22 9 38 27 66 72 42 68
344 68 l273 0 53 -53 c36 -36 56 -49 63 -42 18 18 30 163 18 217 -12 60 -33
71 -62 31 -51 -71 -59 -74 -177 -74 l-109 0 0 125 0 125 142 0 142 0 58 -61
c65 -67 83 -70 94 -14 10 54 0 217 -15 244 l-13 24 -35 -42 c-55 -66 -73 -71
-233 -71 l-140 0 0 120 0 120 200 0 c127 0 208 -4 224 -11 28 -13 52 -56 64
-115 6 -28 13 -39 26 -39 17 0 18 11 17 149 -1 82 -4 153 -7 158 -12 19 -44 6
-63 -26 -12 -19 -28 -37 -37 -40 -9 -3 -108 -6 -220 -6 l-204 0 0 185 0 185
272 -2 272 -3 107 -477 108 -478 -29 -28 c-54 -55 -52 -152 5 -209 30 -30 38
-33 94 -33 73 0 114 18 136 60 19 37 19 132 0 169 -15 31 -69 61 -107 61 -24
0 -26 6 -116 448 -51 246 -92 453 -92 460 0 9 27 12 103 12 l102 0 46 -40 c36
-30 48 -48 53 -78 6 -41 28 -68 46 -57 21 13 6 421 -15 419 -5 0 -32 -34 -60
-75 l-50 -74 -132 -3 -131 -3 -22 98 c-12 54 -43 184 -69 290 l-47 192 249 3
c137 2 252 1 257 -2 4 -3 15 -20 24 -38 25 -49 70 -72 139 -72 108 0 153 40
164 144 7 67 -22 138 -64 159 -101 51 -223 13 -254 -80 l-11 -33 -179 0 c-203
0 -188 -8 -169 89 9 48 7 57 -19 110 l-30 58 20 32 c18 29 19 38 8 92 -14 73
-55 140 -106 173 -59 39 -182 68 -288 68 -110 -1 -145 -12 -145 -46 0 -36 27
-46 108 -39 69 6 71 5 76 -18 3 -13 20 -87 36 -164 28 -129 73 -304 86 -340 5
-13 -46 -15 -426 -15 l-432 0 7 43 c22 133 87 492 90 498 3 3 38 10 79 14 77
7 103 21 92 50 -16 42 -114 49 -270 19z m-7 -166 c-11 -51 -24 -108 -30 -125
-10 -32 -13 -33 -64 -33 -29 0 -60 3 -69 6 -31 12 -14 156 22 197 17 19 92 45
133 46 l26 1 -18 -92z m916 43 c92 -44 124 -92 105 -159 -15 -53 -20 -59 -71
-66 -45 -7 -48 -6 -68 27 -20 33 -42 106 -56 185 -6 37 -4 42 12 42 10 0 45
-13 78 -29z m-987 -307 c15 -4 15 -41 1 -102 -14 -58 -24 -68 -71 -76 -32 -6
-39 -3 -52 17 -9 13 -19 45 -22 71 -6 42 -4 50 21 76 25 26 33 29 69 24 23 -3
47 -7 54 -10z m1116 -26 c19 -27 21 -78 4 -100 -13 -16 -77 -58 -89 -58 -11 0
-49 127 -49 165 0 5 40 12 82 14 28 1 41 -5 52 -21z m656 -128 c27 -27 34 -63
20 -105 -14 -41 -35 -55 -85 -55 -50 0 -71 14 -85 55 -15 44 1 98 33 113 37
18 95 14 117 -8z m-2322 -10 c17 -16 22 -32 22 -70 0 -41 -4 -52 -26 -69 -33
-26 -94 -28 -124 -3 -15 12 -24 33 -27 64 -5 40 -2 50 20 72 34 34 102 36 135
6z m1572 -395 l67 -290 -215 -3 c-118 -1 -217 -1 -219 1 -2 2 3 17 12 33 21
40 19 122 -3 163 -49 92 -221 97 -286 9 -27 -37 -29 -142 -3 -181 l17 -27
-238 0 -239 0 32 143 c35 153 76 315 98 387 l13 45 209 5 c116 3 318 6 450 5
l239 0 66 -290z m-440 -113 c15 -12 24 -33 27 -64 5 -40 2 -50 -20 -72 -28
-28 -90 -36 -127 -16 -24 13 -43 70 -34 104 14 59 105 87 154 48z m-907 -1273
c30 -16 37 -28 37 -71 0 -57 -57 -86 -111 -57 -45 24 -44 103 2 126 30 16 45
16 72 2z m1760 0 c30 -16 37 -28 37 -66 0 -68 -77 -97 -125 -48 -61 60 11 154
88 114z"/>
<path d="M405 2322 c-26 -39 -54 -73 -62 -76 -38 -15 -38 23 -1 77 28 39 17
59 -28 55 -48 -4 -59 -23 -50 -83 9 -60 50 -105 95 -105 25 0 36 9 72 60 45
64 79 78 104 43 17 -23 6 -43 -44 -78 -47 -32 -52 -51 -15 -65 26 -10 101 -3
109 10 2 3 -2 26 -9 51 -7 24 -11 67 -9 95 5 60 -5 71 -70 80 l-45 6 -47 -70z"/>
<path d="M3968 2384 c-12 -19 -13 -157 -1 -161 6 -2 14 1 18 6 3 6 26 11 49
11 40 0 45 -3 56 -32 41 -115 46 -123 68 -126 51 -8 102 81 102 178 0 82 -60
158 -68 86 -3 -28 -5 -28 -49 -22 -25 3 -68 6 -94 6 -34 0 -49 4 -49 13 0 19
-26 52 -32 41z m232 -172 c0 -38 -44 -62 -60 -32 -5 10 -10 28 -10 39 0 17 6
21 35 21 32 0 35 -3 35 -28z"/>
<path d="M2181 479 c-65 -89 -64 -166 5 -234 40 -40 70 -44 153 -19 39 11 57
23 71 46 42 69 33 163 -21 214 -24 23 -39 28 -102 32 l-74 4 -32 -43z m136
-10 c27 -9 31 -15 37 -65 3 -30 3 -72 0 -94 -6 -35 -10 -40 -40 -46 -18 -3
-49 0 -70 6 l-37 12 7 87 c4 47 12 91 18 98 13 16 45 17 85 2z"/>
</g>
</svg>
