<?xml version="1.0" standalone="no"?>
<!DOCTYPE svg PUBLIC "-//W3C//DTD SVG 20010904//EN"
 "http://www.w3.org/TR/2001/REC-SVG-20010904/DTD/svg10.dtd">
<svg version="1.0" xmlns="http://www.w3.org/2000/svg"
 width="439.378017pt" height="439.314705pt" viewBox="0 0 439.378017 439.314705"
 preserveAspectRatio="xMidYMid meet">
<metadata>
Created by potrace 1.16, written by Peter Selinger 2001-2019
</metadata>
<g transform="translate(-5.459356,444.559666) scale(0.100000,-0.100000)"
fill="#000000" stroke="none">
<path d="M2025 4439 c-460 -47 -838 -206 -1186 -497 -222 -186 -440 -458 -564
-702 -89 -176 -166 -425 -202 -650 -25 -160 -25 -519 0 -678 73 -465 258 -840
579 -1177 354 -371 756 -583 1253 -660 232 -37 577 -28 810 20 600 124 1126
508 1450 1060 287 487 362 1135 198 1720 -95 342 -285 657 -563 935 -342 340
-745 546 -1210 615 -128 19 -442 27 -565 14z m549 -85 c363 -50 707 -201 1001
-437 103 -83 303 -289 383 -394 213 -281 347 -603 398 -960 23 -162 24 -468 0
-626 -67 -463 -265 -854 -603 -1191 -342 -343 -729 -537 -1213 -607 -128 -19
-471 -16 -610 5 -460 69 -852 267 -1185 601 -263 262 -447 570 -543 910 -119
417 -104 898 40 1320 36 104 153 336 223 440 370 551 953 902 1586 954 141 12
379 5 523 -15z"/>
<path d="M2045 4329 c-513 -49 -937 -254 -1300 -631 -165 -171 -284 -336 -379
-531 -282 -574 -272 -1329 25 -1885 196 -368 523 -695 891 -891 487 -260 1148
-303 1688 -109 408 146 804 467 1055 857 381 591 417 1426 89 2066 -173 338
-499 677 -831 867 -365 208 -800 298 -1238 257z m360 -33 c497 -22 983 -255
1346 -646 313 -336 482 -695 539 -1145 16 -120 12 -427 -6 -556 -63 -456 -265
-846 -610 -1179 -335 -323 -728 -510 -1176 -559 -122 -14 -375 -14 -493 -1
-482 54 -892 260 -1246 626 -340 353 -534 793 -557 1266 -32 645 147 1139 573
1577 376 386 835 598 1355 623 57 3 77 3 275 -6z"/>
<path d="M2232 4278 c-6 -8 -27 -51 -46 -97 -43 -102 -73 -143 -133 -177 -43
-26 -44 -28 -27 -41 12 -9 40 -13 79 -11 l60 3 -3 41 -3 41 53 6 c104 13 127
10 138 -19 13 -34 14 -33 -15 -44 -14 -5 -25 -14 -25 -20 0 -29 140 -42 176
-15 18 14 18 15 -12 26 -24 9 -33 21 -42 53 -6 23 -30 70 -53 106 -23 36 -50
85 -60 110 -14 38 -22 45 -46 48 -16 2 -35 -3 -41 -10z m46 -115 c24 -65 24
-63 -18 -63 -36 0 -40 2 -40 26 0 60 40 85 58 37z"/>
<path d="M2066 3890 c-379 -44 -679 -183 -953 -444 -374 -356 -548 -817 -505
-1339 26 -306 117 -566 285 -804 79 -113 297 -331 410 -410 226 -159 482 -254
766 -282 610 -63 1148 176 1520 673 143 191 241 423 287 681 24 137 25 432 1
565 -65 360 -207 631 -467 890 -250 249 -530 395 -870 454 -114 20 -365 28
-474 16z m526 -59 c309 -67 566 -209 798 -441 138 -139 230 -264 309 -425 67
-135 101 -232 133 -379 20 -88 22 -131 22 -336 0 -205 -2 -248 -22 -336 -32
-147 -66 -244 -133 -379 -79 -161 -171 -286 -309 -425 -235 -235 -485 -371
-807 -440 -125 -27 -400 -38 -540 -21 -369 44 -692 206 -953 477 -199 207
-320 411 -394 666 -74 255 -76 635 -6 892 86 314 267 591 530 810 224 188 450
293 745 347 142 26 485 21 627 -10z"/>
<path d="M2074 3791 c-23 -10 -44 -26 -47 -34 -3 -9 -29 -20 -64 -27 -153 -32
-380 -121 -517 -204 -273 -167 -499 -443 -600 -738 -69 -200 -90 -367 -83
-636 5 -196 16 -282 56 -438 92 -360 316 -662 616 -830 165 -91 364 -154 493
-154 71 0 78 -2 108 -31 85 -82 230 -42 249 69 8 48 -9 116 -35 142 -26 26
-94 43 -143 34 -47 -7 -107 -59 -107 -92 0 -11 -8 -22 -20 -25 -20 -5 -109 0
-147 8 l-23 5 0 385 0 385 23 0 c75 0 157 -57 199 -138 10 -18 22 -30 28 -27
12 7 2 335 -10 349 -5 4 -15 -5 -24 -21 -24 -47 -75 -73 -173 -88 l-43 -7 0
251 0 251 290 0 290 0 0 -501 0 -501 -29 -34 c-54 -61 -50 -172 7 -227 49 -47
165 -54 227 -13 34 22 55 73 55 130 0 61 -14 96 -55 131 l-35 30 25 67 c70
193 113 448 122 726 6 178 14 227 29 168 3 -13 19 -36 35 -52 22 -21 41 -28
85 -32 72 -6 118 16 145 70 16 31 25 38 49 38 17 0 30 -2 30 -4 0 -2 -16 -37
-35 -78 -64 -134 -80 -286 -44 -409 21 -70 107 -149 191 -177 37 -12 93 -25
123 -28 49 -6 57 -10 75 -41 22 -38 54 -53 110 -53 81 0 120 41 120 124 0 91
-34 127 -119 128 -59 0 -93 -18 -116 -61 -14 -28 -16 -29 -56 -20 -104 24
-172 76 -211 163 -18 42 -22 69 -23 156 0 117 15 174 65 254 l30 47 107 -3
108 -3 0 -145 c0 -136 -2 -148 -25 -190 -15 -27 -40 -53 -65 -67 -73 -41 -56
-48 124 -51 99 -1 168 1 174 7 7 7 -5 27 -36 60 -25 27 -50 62 -54 78 -4 15
-8 91 -8 168 l0 140 37 3 c32 3 39 -1 53 -27 25 -50 56 -64 127 -59 82 6 108
34 108 114 0 69 -20 109 -61 123 -73 25 -146 5 -174 -49 -13 -26 -21 -30 -56
-30 l-41 0 4 153 c3 124 7 159 23 190 13 25 25 37 40 37 12 0 30 7 41 15 19
15 19 15 -1 30 -11 9 -26 12 -35 8 -8 -4 -80 -10 -159 -13 -153 -5 -179 -15
-122 -45 41 -21 79 -63 90 -100 5 -16 12 -85 15 -152 l5 -123 -119 0 -118 0
-43 53 c-111 139 -128 304 -43 439 29 46 99 93 168 113 l50 15 26 -29 c46 -50
146 -53 191 -5 28 30 37 124 17 164 -42 80 -201 73 -230 -11 -8 -22 -19 -31
-51 -39 -160 -41 -269 -130 -318 -260 -25 -65 -24 -136 2 -212 20 -59 95 -188
118 -202 20 -13 11 -26 -16 -26 -21 0 -32 8 -43 32 -21 45 -61 70 -117 75 -63
5 -112 -19 -136 -69 -39 -79 -44 -53 -51 242 -8 313 -32 451 -102 597 -19 41
-34 76 -32 77 2 1 16 10 31 20 79 49 76 216 -5 266 -27 18 -46 21 -110 18 -69
-3 -80 -6 -108 -33 -59 -57 -64 -167 -9 -229 l29 -34 0 -481 0 -481 -290 0
-290 0 0 258 0 257 63 -5 c75 -6 105 -24 147 -85 20 -29 38 -45 48 -43 15 3
18 24 23 148 8 190 -3 207 -72 115 l-41 -55 -84 0 -84 0 0 384 0 385 53 10
c134 26 123 28 145 -22 27 -61 59 -80 133 -80 95 1 140 44 143 136 2 97 -34
141 -126 152 -30 4 -55 0 -84 -14z m120 -77 c23 -22 21 -87 -3 -108 -25 -23
-76 -24 -100 -2 -25 23 -31 58 -15 95 12 28 17 31 58 31 27 0 51 -6 60 -16z
m-494 -514 l0 -360 -125 0 c-97 0 -125 3 -125 13 0 7 -14 26 -31 43 -27 26
-37 29 -90 29 -50 -1 -63 -5 -85 -27 -49 -48 -49 -148 0 -196 22 -22 35 -26
87 -27 55 0 63 3 89 31 15 17 29 36 31 42 4 9 100 15 217 13 l32 -1 0 -255 0
-255 -414 0 -414 0 5 48 c15 162 78 399 165 617 92 232 291 450 543 594 49 28
95 51 102 51 10 0 13 -72 13 -360z m855 215 c19 -18 25 -35 25 -65 0 -55 -34
-90 -88 -90 -71 0 -116 62 -91 127 14 38 38 52 87 53 32 0 49 -6 67 -25z m-45
-307 c63 -134 97 -344 107 -660 l6 -198 -76 0 -77 0 0 460 c0 253 2 460 6 460
3 0 18 -28 34 -62z m962 -154 c10 -21 9 -31 -3 -52 -28 -52 -99 -36 -99 21 0
42 15 57 57 57 26 0 36 -6 45 -26z m-2090 -129 c14 -31 -1 -70 -30 -77 -32 -9
-67 14 -70 45 -5 38 14 57 54 57 27 0 37 -5 46 -25z m1529 -555 l24 -19 -65 0
-65 0 24 19 c13 11 31 20 41 20 10 0 28 -9 41 -20z m843 -16 c19 -18 21 -65 4
-82 -31 -31 -98 -3 -98 40 0 49 61 76 94 42z m-2054 -324 l0 -250 -120 0 -119
0 -16 29 c-23 46 -52 61 -117 61 -45 0 -62 -5 -84 -23 -30 -26 -43 -82 -33
-141 10 -58 37 -79 109 -84 69 -5 100 9 125 58 l16 30 119 0 120 0 0 -370 c0
-203 -4 -370 -8 -370 -14 0 -128 48 -169 71 -301 168 -556 567 -623 978 -20
123 -31 247 -22 256 3 3 189 5 414 5 l408 0 0 -250z m907 98 c-7 -172 -30
-399 -53 -533 -25 -146 -65 -295 -79 -295 -3 0 -5 221 -5 490 l0 490 72 0 71
0 -6 -152z m323 142 c0 -13 -34 -30 -63 -30 -13 0 -32 9 -42 20 -18 20 -17 20
43 20 34 0 62 -4 62 -10z m-1558 -487 c38 -34 12 -93 -41 -93 -36 0 -51 17
-51 57 0 49 54 71 92 36z m2166 -125 c29 -29 4 -98 -36 -98 -48 0 -75 48 -52
91 12 22 68 27 88 7z m-983 -453 c30 -30 34 -92 8 -124 -25 -30 -71 -41 -113
-27 -45 14 -67 70 -50 122 14 42 33 53 88 54 32 0 49 -6 67 -25z m-353 -257
c4 -7 8 -30 8 -50 0 -27 -6 -41 -22 -52 -30 -21 -81 -20 -101 2 -33 37 -22
105 20 120 31 10 82 -1 95 -20z"/>
<path d="M3737 1458 c-46 -57 -77 -109 -77 -131 0 -28 29 -32 55 -7 l23 22 46
-32 c57 -38 81 -73 78 -113 -1 -16 3 -36 9 -43 9 -11 18 -7 48 24 21 20 51 61
67 89 27 48 28 54 13 69 -15 15 -19 15 -52 -1 -47 -22 -94 -8 -137 42 -25 28
-30 41 -25 62 19 70 0 78 -48 19z"/>
<path d="M645 1425 c-43 -68 -86 -91 -141 -76 -44 12 -53 -3 -32 -57 l14 -37
79 -1 80 -2 -4 -38 c-3 -36 -15 -66 -43 -106 -10 -14 -8 -26 10 -63 12 -25 28
-45 36 -45 20 0 39 27 32 46 -7 19 24 66 65 95 20 14 45 21 72 21 22 -1 44 1
49 4 13 8 -31 84 -55 93 -28 11 -37 5 -37 -24 0 -18 -7 -26 -25 -31 -35 -9
-39 -2 -25 41 16 49 8 65 -35 65 -24 0 -35 4 -35 15 0 11 12 15 44 15 25 0 48
4 51 10 8 13 -37 122 -52 127 -6 2 -28 -21 -48 -52z"/>
</g>
</svg>
