<?xml version="1.0" standalone="no"?>
<!DOCTYPE svg PUBLIC "-//W3C//DTD SVG 20010904//EN"
 "http://www.w3.org/TR/2001/REC-SVG-20010904/DTD/svg10.dtd">
<svg version="1.0" xmlns="http://www.w3.org/2000/svg"
 width="439.563562pt" height="439.091206pt" viewBox="0 0 439.563562 439.091206"
 preserveAspectRatio="xMidYMid meet">
<metadata>
Created by potrace 1.16, written by Peter Selinger 2001-2019
</metadata>
<g transform="translate(-5.250268,444.550563) scale(0.100000,-0.100000)"
fill="#000000" stroke="none">
<path d="M1990 4435 c-510 -58 -928 -261 -1295 -630 -378 -379 -575 -788 -631
-1313 -19 -170 -14 -426 11 -586 56 -366 187 -681 402 -968 102 -135 331 -364
466 -464 282 -211 602 -343 967 -401 160 -25 519 -25 678 0 413 65 742 212
1061 476 182 150 383 382 500 576 290 480 375 1107 230 1689 -92 370 -282 697
-574 991 -344 344 -745 549 -1215 620 -150 23 -447 27 -600 10z m584 -81 c436
-60 821 -253 1149 -573 204 -199 334 -374 442 -596 148 -304 208 -571 208
-930 1 -360 -59 -633 -203 -930 -260 -536 -749 -953 -1310 -1119 -339 -100
-770 -110 -1125 -25 -363 86 -708 282 -990 564 -179 178 -305 354 -416 580
-145 298 -203 560 -203 925 0 365 57 623 204 925 284 583 838 1024 1450 1153
90 19 224 38 335 46 89 7 347 -5 459 -20z"/>
<path d="M2030 4329 c-227 -23 -485 -93 -670 -182 -425 -204 -792 -567 -995
-982 -282 -577 -272 -1326 26 -1883 236 -442 654 -817 1099 -985 542 -205
1169 -178 1680 71 420 204 801 599 993 1027 187 417 226 938 106 1403 -105
407 -342 774 -689 1064 -291 245 -627 397 -1000 453 -131 19 -424 27 -550 14z
m607 -58 c413 -78 755 -262 1063 -571 310 -309 492 -650 572 -1065 26 -138 36
-496 18 -643 -58 -478 -266 -888 -626 -1232 -329 -315 -722 -500 -1166 -549
-122 -14 -374 -14 -493 -1 -488 55 -896 261 -1256 637 -300 312 -478 687 -539
1132 -15 108 -15 434 0 542 62 457 242 826 565 1158 332 341 720 542 1170 606
155 22 546 14 692 -14z"/>
<path d="M2349 4275 c-27 -14 -39 -48 -39 -106 0 -15 -4 -30 -9 -33 -4 -3 -44
28 -89 69 -44 41 -84 75 -90 75 -5 0 -16 -8 -26 -19 -16 -17 -15 -19 3 -32 16
-12 21 -31 26 -116 l7 -103 -25 0 c-30 0 -44 -17 -29 -32 8 -8 28 -8 64 -2 49
8 53 11 50 34 -5 46 -1 105 7 113 4 4 28 -24 51 -63 70 -117 94 -106 105 49 7
96 7 98 36 108 29 11 31 28 6 61 -12 15 -15 15 -48 -3z"/>
<path d="M2065 3890 c-376 -43 -685 -187 -953 -444 -246 -236 -404 -512 -473
-826 -28 -128 -34 -211 -33 -410 2 -145 6 -196 28 -301 67 -328 221 -606 467
-844 245 -237 531 -384 854 -440 265 -46 581 -23 835 61 112 37 303 135 410
211 121 86 315 281 402 403 72 102 172 294 208 400 167 494 91 1075 -193 1477
-268 380 -650 627 -1082 699 -112 18 -364 26 -470 14z m521 -59 c143 -30 241
-64 379 -132 161 -79 286 -171 425 -309 138 -139 230 -264 309 -425 67 -135
101 -232 133 -379 20 -88 22 -131 22 -336 0 -254 -11 -335 -70 -516 -37 -116
-135 -306 -211 -414 -76 -106 -245 -281 -343 -356 -285 -217 -608 -324 -977
-324 -471 0 -852 162 -1176 500 -212 221 -345 469 -409 763 -20 90 -22 131
-22 347 0 266 9 337 69 517 131 391 437 742 810 928 196 97 370 146 581 162
138 11 360 -1 480 -26z"/>
<path d="M1963 3773 c-74 -15 -115 -142 -71 -226 16 -32 70 -57 121 -57 55 0
97 19 123 55 l19 25 74 -35 c58 -28 94 -56 161 -123 146 -146 164 -205 154
-489 l-7 -193 -383 0 -384 0 0 179 0 180 128 3 c168 4 169 4 192 -42 15 -29
30 -42 66 -56 42 -16 51 -16 102 -3 67 17 90 44 98 114 12 109 -38 168 -141
168 -63 0 -97 -19 -127 -69 l-20 -34 -387 0 -386 0 -20 36 c-24 45 -65 66
-125 66 -96 0 -143 -47 -143 -141 0 -99 46 -145 142 -145 66 0 102 20 126 70
l16 34 204 0 205 0 0 -180 0 -180 -333 0 c-362 0 -419 -6 -507 -50 -107 -54
-197 -179 -188 -259 4 -37 31 -33 39 5 15 74 84 149 179 193 l55 26 378 3 377
3 0 -56 0 -55 -232 0 c-376 0 -541 -36 -693 -150 -65 -48 -128 -137 -123 -175
3 -31 37 -59 81 -69 34 -8 47 16 23 43 -9 10 -16 32 -16 49 0 26 9 38 53 71
64 48 181 105 262 126 88 23 235 34 453 35 l192 0 0 -89 0 -89 -292 -4 c-329
-4 -332 -5 -506 -91 -97 -48 -193 -141 -213 -206 -25 -85 27 -177 107 -188 25
-3 44 -1 48 6 10 16 -20 67 -53 90 -31 22 -33 39 -12 94 28 74 142 143 311
187 75 20 117 23 348 27 l262 5 0 -115 0 -115 -272 -5 c-291 -5 -339 -12 -437
-61 -57 -30 -135 -112 -151 -163 -24 -70 5 -188 45 -188 18 0 20 6 17 63 -2
55 1 67 27 105 38 56 104 115 149 134 43 18 357 39 515 35 l107 -3 0 -54 0
-55 -52 0 c-29 0 -136 -1 -238 -3 l-185 -2 -67 -33 c-77 -38 -135 -98 -173
-178 -36 -76 -39 -102 -20 -167 19 -66 46 -89 103 -91 31 -1 37 2 37 19 0 14
-13 26 -42 39 -50 23 -60 57 -43 144 10 47 20 65 59 102 70 68 91 73 374 77
l247 5 0 -335 0 -335 -23 -6 c-42 -10 -79 -60 -85 -114 -10 -109 36 -162 141
-162 102 0 147 43 147 140 0 66 -21 105 -70 130 l-40 21 2 327 3 327 383 3
382 2 0 -58 c0 -154 -102 -364 -225 -463 -35 -29 -60 -40 -112 -49 -55 -9 -68
-9 -72 2 -2 7 -21 30 -41 51 -35 34 -42 37 -94 37 -109 0 -151 -46 -144 -158
4 -57 8 -68 36 -93 62 -55 154 -51 212 10 29 30 46 39 86 44 73 10 165 60 232
126 70 69 136 156 162 213 l18 41 25 -49 c56 -111 156 -218 259 -277 28 -17
39 -31 47 -63 13 -49 37 -73 88 -85 57 -13 121 -1 156 31 28 25 32 34 35 96 5
111 -34 155 -139 156 -54 0 -85 -13 -116 -50 l-21 -25 -49 18 c-113 42 -187
163 -237 386 -40 180 -76 159 274 159 330 0 333 -1 384 -61 14 -17 38 -51 52
-75 l26 -45 -17 -54 c-14 -46 -15 -63 -5 -110 15 -72 42 -93 92 -72 54 24 117
75 124 101 8 33 -1 46 -63 95 -29 23 -53 47 -53 54 0 7 21 69 46 137 49 134
114 372 114 421 0 27 3 30 23 23 41 -13 120 -6 146 14 42 30 52 60 49 136 -3
62 -7 71 -35 96 -37 33 -104 47 -146 31 -36 -14 -47 -7 -47 26 0 28 -69 405
-75 412 -2 2 9 26 25 55 39 70 54 150 39 209 -14 58 -37 78 -91 84 -60 6 -89
-13 -111 -71 -39 -107 8 -146 131 -110 24 7 24 7 8 -24 -14 -28 -21 -31 -68
-34 l-52 -3 -51 -88 c-29 -49 -59 -95 -68 -104 -12 -13 -54 -17 -224 -22 -200
-6 -447 -1 -456 9 -11 12 14 234 36 320 45 175 112 286 198 331 60 30 81 25
101 -21 19 -47 62 -70 128 -70 96 0 140 47 140 147 0 105 -53 151 -163 140
-45 -4 -56 -10 -88 -45 -19 -22 -49 -44 -65 -48 -81 -19 -186 -103 -245 -195
-17 -27 -33 -49 -34 -49 -2 0 -21 33 -42 73 -46 89 -162 207 -252 257 -114 64
-155 95 -185 139 -41 61 -97 81 -183 64z m105 -79 c27 -19 31 -88 5 -116 -22
-24 -77 -24 -103 2 -23 23 -27 78 -7 102 24 30 71 36 105 12z m1062 -204 c45
-45 13 -130 -49 -130 -45 0 -75 30 -75 75 0 66 78 101 124 55z m-1926 -306
c21 -20 20 -83 -1 -106 -20 -23 -80 -24 -105 -1 -23 20 -24 80 -1 105 20 23
85 24 107 2z m1061 2 c27 -20 27 -92 0 -112 -26 -19 -84 -18 -107 3 -23 20
-24 80 -1 105 20 22 81 24 108 4z m1263 -78 c21 -21 13 -47 -17 -63 -27 -13
-31 -13 -45 1 -19 19 -21 60 -3 67 22 10 53 7 65 -5z m-50 -325 c46 -66 60
-162 68 -451 5 -224 4 -245 -20 -382 -22 -130 -78 -304 -105 -333 -4 -4 -25
14 -47 40 -21 26 -54 63 -73 81 l-35 32 -168 0 -168 0 0 220 0 220 91 0 92 0
-5 -85 c-4 -71 -9 -90 -31 -121 -14 -21 -24 -41 -21 -46 7 -11 201 -10 209 1
3 5 1 12 -5 16 -25 15 -52 91 -57 161 l-6 74 59 0 c57 0 60 -2 82 -36 13 -19
28 -34 35 -31 14 4 23 196 10 208 -14 13 -52 -10 -59 -36 -6 -23 -10 -25 -65
-25 -53 0 -59 2 -59 20 0 32 28 92 58 123 23 25 24 29 11 43 -18 17 -214 30
-224 14 -3 -5 9 -29 26 -54 22 -31 33 -60 37 -95 5 -57 13 -52 -88 -52 -101 0
-90 -22 -90 180 l0 179 28 7 c15 4 104 8 198 9 119 1 176 5 186 14 9 7 35 39
59 72 24 33 47 60 51 60 3 0 15 -12 26 -27z m-938 -188 l0 -55 -385 0 -385 0
0 55 0 55 385 0 385 0 0 -55z m310 -125 l0 -180 -120 0 -120 0 0 25 c0 24 2
25 71 25 55 0 75 -4 84 -17 21 -28 35 -5 35 57 0 62 -14 85 -35 57 -9 -13 -29
-17 -84 -17 l-71 0 0 115 0 115 120 0 120 0 0 -180z m-310 -25 c0 -24 -3 -25
-59 -25 -40 0 -63 5 -71 15 -20 25 -30 7 -30 -55 0 -62 10 -80 30 -55 8 10 31
15 71 15 56 0 59 -1 59 -25 l0 -25 -385 0 -385 0 0 90 0 90 385 0 385 0 0 -25z
m1214 -147 c9 -12 16 -34 16 -48 0 -43 -26 -70 -69 -70 -53 0 -76 29 -72 92 3
49 96 68 125 26z m-1214 -133 l0 -45 -58 0 c-47 0 -60 4 -70 20 -20 33 -32 13
-32 -55 0 -68 12 -88 32 -55 10 16 23 20 70 20 l58 0 0 -35 0 -35 -385 0 -385
0 0 115 0 115 385 0 385 0 0 -45z m310 -175 l0 -221 -117 3 -118 3 -3 138 -3
137 69 0 c60 0 71 -3 84 -22 23 -35 38 -13 38 57 0 70 -15 92 -38 57 -12 -19
-24 -22 -83 -22 l-69 0 0 45 0 45 120 0 120 0 0 -220z m-310 -152 l0 -63 -372
3 c-205 2 -379 5 -385 7 -8 3 -13 24 -13 60 l0 55 385 0 385 0 0 -62z m973
-420 c8 -12 6 -23 -6 -42 -21 -31 -57 -34 -81 -8 -15 17 -15 22 -1 55 15 36
16 37 47 24 17 -7 36 -20 41 -29z m-1469 -284 c38 -38 28 -104 -18 -125 -28
-13 -68 -6 -90 17 -23 22 -20 80 4 104 24 24 82 27 104 4z m1080 -16 c21 -30
20 -71 -2 -99 -22 -26 -86 -29 -111 -4 -23 23 -20 93 4 111 30 22 91 18 109
-8z m-1331 -175 c20 -19 23 -72 4 -96 -18 -26 -83 -34 -106 -13 -25 23 -33 58
-21 91 17 45 82 55 123 18z"/>
<path d="M3143 2610 c-27 -11 -39 -51 -23 -79 12 -24 68 -29 88 -9 20 20 14
65 -10 82 -25 18 -25 18 -55 6z"/>
<path d="M3453 2300 c-27 -11 -39 -51 -23 -79 12 -24 68 -29 88 -9 20 20 14
65 -10 82 -25 18 -25 18 -55 6z"/>
<path d="M3103 1894 c-15 -24 -15 -29 -2 -53 16 -29 61 -40 85 -20 21 18 18
76 -5 89 -33 17 -60 11 -78 -16z"/>
<path d="M868 3742 c-65 -47 -86 -94 -64 -147 16 -38 51 -65 85 -65 13 0 59
12 103 27 58 19 81 24 90 15 18 -18 -42 -70 -92 -78 -49 -8 -59 -24 -35 -60
26 -41 78 -28 132 31 71 78 66 148 -12 181 -48 20 -72 18 -143 -11 -57 -23
-92 -25 -92 -4 0 19 65 50 100 47 46 -4 52 23 14 63 -34 35 -39 35 -86 1z"/>
<path d="M3542 3615 c-87 -45 -118 -56 -148 -53 -33 3 -39 0 -42 -18 -3 -23
73 -107 92 -101 6 2 16 20 21 41 18 62 60 74 94 27 29 -40 20 -89 -18 -93 -38
-4 -40 -44 -2 -88 26 -31 31 -33 45 -20 15 15 82 258 88 319 2 19 -2 36 -8 38
-6 2 -61 -21 -122 -52z m64 -73 c-12 -13 -18 -13 -30 -2 -22 17 -20 23 12 42
26 16 27 16 30 -4 2 -11 -3 -27 -12 -36z"/>
<path d="M3942 2383 c-4 -10 -7 -54 -7 -98 0 -71 4 -85 29 -124 l28 -43 56 7
c32 3 83 6 114 5 32 -1 67 4 78 10 46 25 64 127 35 196 -16 39 -38 41 -43 4
-4 -22 -5 -23 -94 -16 -133 10 -145 14 -157 47 -11 33 -28 38 -39 12z m138
-147 c0 -27 -43 -61 -66 -52 -8 3 -14 19 -14 41 0 34 1 35 40 35 35 0 40 -3
40 -24z m124 15 c17 -6 16 -9 -9 -39 -35 -42 -45 -40 -45 8 0 42 11 48 54 31z"/>
<path d="M287 2343 c-9 -8 -9 -98 0 -106 3 -4 15 0 25 9 36 33 178 -5 186 -50
7 -37 -16 -47 -92 -40 -56 5 -75 11 -88 28 -27 33 -43 7 -43 -69 0 -68 14 -97
37 -77 8 6 47 18 88 28 41 9 94 25 117 35 37 16 43 22 43 48 0 48 -30 110 -60
126 -15 8 -58 22 -96 31 -38 9 -76 23 -85 30 -18 16 -23 17 -32 7z"/>
<path d="M3466 1017 c-53 -51 -96 -97 -96 -104 0 -15 48 -53 67 -53 15 0 19 8
28 63 4 24 15 43 31 53 23 16 26 16 49 -6 33 -31 31 -39 -6 -47 -17 -3 -33
-12 -36 -20 -7 -18 22 -49 58 -62 27 -9 31 -8 39 14 12 31 20 31 43 0 17 -24
17 -24 -16 -49 -27 -20 -41 -25 -65 -20 -28 6 -33 3 -42 -20 -12 -32 3 -71 23
-59 132 85 224 170 214 197 -4 9 -13 13 -21 10 -46 -18 -173 109 -160 160 12
47 -15 34 -110 -57z"/>
<path d="M977 1064 c-3 -3 -1 -19 5 -35 9 -27 7 -33 -29 -72 -21 -23 -46 -52
-55 -65 -13 -20 -23 -23 -59 -20 -42 3 -44 2 -44 -23 0 -21 13 -35 66 -72 74
-50 97 -48 74 7 -8 20 -10 39 -4 54 11 29 94 81 142 89 44 7 52 15 37 43 -12
22 -125 102 -133 94z"/>
<path d="M2088 509 c-22 -35 -30 -66 -19 -73 6 -4 18 5 27 19 10 15 26 25 40
25 19 0 26 -9 40 -55 17 -52 17 -57 1 -90 -9 -20 -17 -49 -17 -66 0 -25 6 -33
35 -45 73 -30 209 -10 178 28 -7 8 -13 58 -15 115 -3 92 -1 103 17 116 31 24
4 47 -55 47 -64 0 -73 -13 -56 -78 12 -44 12 -52 0 -52 -7 0 -25 22 -38 48
-30 58 -44 71 -88 78 -28 5 -37 2 -50 -17z m202 -214 c0 -28 -4 -35 -19 -35
-71 0 -65 66 7 69 7 1 12 -12 12 -34z"/>
</g>
</svg>
