<?xml version="1.0" standalone="no"?>
<!DOCTYPE svg PUBLIC "-//W3C//DTD SVG 20010904//EN"
 "http://www.w3.org/TR/2001/REC-SVG-20010904/DTD/svg10.dtd">
<svg version="1.0" xmlns="http://www.w3.org/2000/svg"
 width="439.464131pt" height="439.176845pt" viewBox="0 0 439.464131 439.176845"
 preserveAspectRatio="xMidYMid meet">
<metadata>
Created by potrace 1.16, written by Peter Selinger 2001-2019
</metadata>
<g transform="translate(-5.166542,444.689207) scale(0.100000,-0.100000)"
fill="#000000" stroke="none">
<path d="M2090 4444 c-19 -2 -78 -9 -130 -14 -620 -68 -1186 -423 -1560 -980
-244 -363 -365 -810 -347 -1285 23 -591 226 -1055 641 -1471 363 -362 721
-542 1251 -626 124 -19 504 -16 645 6 468 72 844 260 1193 595 292 280 501
634 597 1011 59 232 82 572 55 820 -56 510 -263 937 -631 1305 -348 347 -742
548 -1214 620 -101 15 -428 28 -500 19z m410 -79 c531 -71 916 -264 1291 -651
314 -324 501 -705 565 -1151 23 -160 23 -466 0 -626 -66 -461 -265 -853 -601
-1190 -306 -305 -650 -496 -1055 -582 -276 -58 -661 -54 -950 11 -283 64 -572
205 -815 398 -373 297 -646 711 -749 1136 -45 188 -60 318 -60 540 0 363 57
624 204 925 110 227 239 404 433 596 360 356 812 562 1322 602 59 5 363 -1
415 -8z"/>
<path d="M2080 4333 c-409 -33 -770 -169 -1090 -411 -93 -71 -318 -293 -394
-389 -217 -277 -356 -596 -411 -948 -19 -121 -27 -436 -14 -560 34 -326 152
-665 319 -911 247 -367 611 -667 980 -810 628 -242 1367 -174 1901 177 140 92
222 160 360 298 397 397 594 860 604 1421 4 194 -7 320 -40 487 -81 401 -262
731 -570 1038 -332 333 -701 522 -1151 590 -102 16 -394 26 -494 18z m535 -58
c387 -66 742 -246 1043 -530 357 -337 573 -758 632 -1235 15 -127 13 -417 -5
-551 -60 -459 -264 -854 -612 -1190 -308 -297 -641 -466 -1073 -546 -136 -25
-564 -25 -700 0 -383 71 -676 205 -957 441 -418 349 -669 801 -733 1320 -16
132 -13 445 5 573 63 430 245 798 549 1112 328 338 687 532 1125 607 200 34
524 33 726 -1z"/>
<path d="M2315 4262 c-6 -5 -36 -14 -67 -21 -94 -20 -138 -88 -125 -197 8 -76
71 -120 162 -112 38 3 40 5 48 47 5 24 18 52 30 61 32 26 16 46 -43 54 -60 8
-86 -5 -70 -34 6 -10 10 -28 10 -39 0 -16 -6 -21 -27 -21 -84 1 -93 93 -16
165 37 33 49 32 91 -12 l35 -37 18 23 c42 52 0 164 -46 123z"/>
<path d="M3070 4095 c-10 -12 -9 -20 2 -37 14 -20 13 -28 -2 -73 -32 -90 -50
-125 -65 -125 -48 0 2 -68 101 -136 44 -31 56 -34 88 -29 20 4 47 15 59 25 18
15 19 20 8 34 -7 9 -28 16 -47 16 -29 0 -144 36 -144 45 0 2 18 37 40 78 31
57 48 78 70 86 55 19 31 66 -57 110 -36 18 -43 19 -53 6z"/>
<path d="M1301 4061 c-22 -12 -44 -36 -62 -72 -36 -68 -37 -103 -4 -125 24
-16 49 -16 132 2 71 14 102 -15 67 -64 -13 -19 -24 -22 -89 -22 -41 0 -76 -3
-79 -8 -8 -13 23 -72 38 -72 9 0 30 9 48 20 18 11 45 20 60 20 16 0 42 13 63
31 34 30 35 34 29 78 -10 66 -19 78 -72 94 -38 11 -50 11 -62 1 -9 -7 -35 -16
-58 -20 -45 -7 -51 0 -31 37 9 17 19 20 57 18 40 -3 47 -1 49 16 2 11 -10 34
-25 52 l-27 31 -34 -17z"/>
<path d="M2070 3890 c-495 -52 -924 -315 -1210 -743 -66 -100 -151 -277 -184
-387 -105 -349 -99 -741 16 -1069 38 -110 134 -294 206 -396 76 -107 296 -325
405 -402 293 -206 644 -306 1017 -290 439 20 788 173 1095 481 255 256 402
538 462 886 23 134 23 431 -1 565 -63 349 -204 621 -456 874 -256 258 -544
410 -885 466 -112 19 -353 27 -465 15z m517 -58 c145 -32 248 -68 378 -132
161 -80 287 -172 425 -310 320 -320 471 -686 471 -1140 0 -453 -152 -822 -471
-1140 -189 -189 -397 -319 -630 -394 -179 -57 -277 -71 -515 -71 -179 0 -227
3 -322 23 -322 65 -602 219 -834 458 -245 253 -382 524 -434 859 -24 151 -16
477 14 613 94 423 353 787 737 1034 152 98 375 180 580 213 132 21 478 14 601
-13z"/>
<path d="M1893 3801 c-76 -19 -110 -72 -100 -157 6 -55 29 -90 72 -111 l35
-17 0 -213 0 -213 -502 -2 -503 -3 0 -680 0 -680 238 -3 237 -2 0 -254 0 -254
-23 -6 c-12 -3 -36 -19 -52 -36 -27 -28 -30 -38 -30 -94 0 -73 20 -111 70
-132 70 -29 152 -11 194 42 20 25 22 38 19 96 -4 74 -20 101 -75 125 l-33 13
0 250 0 250 268 2 267 3 3 393 2 392 75 0 74 0 -5 -47 c-7 -67 18 -114 71
-131 45 -15 108 -9 142 13 27 18 46 83 37 130 l-6 35 41 0 41 0 0 -379 c0
-474 -7 -520 -117 -800 -39 -99 -45 -124 -45 -188 1 -56 6 -86 26 -128 29 -65
106 -149 159 -177 97 -49 319 -81 402 -58 95 27 166 120 202 267 19 79 23 342
9 618 -5 114 -5 179 2 196 21 54 173 79 226 38 35 -28 51 -59 91 -187 59 -186
65 -217 68 -310 2 -70 6 -95 19 -108 26 -27 45 -3 63 79 14 63 15 176 13 892
l-3 820 -275 5 -275 5 -3 98 -3 97 65 0 64 0 37 -50 c20 -28 41 -48 46 -45 19
13 31 91 24 169 -10 108 -15 113 -73 69 -49 -37 -76 -50 -129 -63 l-32 -8 -11
70 c-14 80 -9 108 27 155 17 22 23 37 16 44 -5 5 -52 12 -104 16 -81 5 -96 3
-108 -11 -13 -15 -10 -20 23 -47 50 -42 67 -80 69 -152 l2 -61 -45 3 c-57 3
-121 38 -139 75 -12 25 -15 26 -28 13 -11 -11 -17 -51 -23 -143 -10 -167 -2
-178 61 -91 l46 63 64 -4 c35 -2 65 -5 66 -6 0 0 3 -44 5 -96 l3 -95 -477 -3
-478 -2 0 215 0 215 39 19 c84 43 89 192 8 245 -28 19 -93 27 -134 17z m102
-94 c19 -28 19 -67 -1 -95 -11 -16 -25 -22 -52 -22 -20 0 -42 4 -49 8 -18 12
-30 54 -24 87 5 23 14 33 40 41 42 14 67 8 86 -19z m-95 -1302 l0 -615 -465 0
-465 0 0 265 0 265 170 0 170 0 -5 -42 c-2 -24 -6 -66 -9 -95 -8 -86 -64 -167
-133 -194 -33 -12 -41 -39 -17 -56 24 -19 336 -15 355 4 18 18 -5 41 -47 49
-29 5 -36 12 -53 59 -18 47 -25 126 -22 248 l1 27 88 0 c106 0 118 -7 168 -95
34 -61 60 -81 69 -52 4 12 9 90 21 277 9 154 -16 204 -56 113 -50 -115 -96
-150 -201 -153 -93 -3 -86 -10 -77 80 10 106 34 151 104 196 43 28 55 40 52
57 -3 22 -5 22 -203 22 -198 0 -200 0 -203 -22 -3 -18 7 -27 47 -47 69 -35
100 -80 111 -158 5 -35 10 -80 10 -100 l0 -38 -170 0 -170 0 0 310 0 310 465
0 465 0 0 -615z m550 395 l0 -220 -38 0 -37 0 0 60 c0 52 -4 63 -28 87 -25 25
-34 28 -97 28 -63 0 -72 -3 -97 -28 -24 -24 -28 -35 -28 -87 l1 -60 -76 0 -75
0 0 220 0 220 238 0 237 0 0 -220z m1050 0 l0 -220 -205 0 -204 0 -3 83 -3 82
-185 0 -185 0 -3 -82 -3 -83 -94 0 -95 0 0 220 0 220 490 0 490 0 0 -220z
m-1203 -136 c15 -24 15 -29 2 -53 -9 -16 -25 -27 -42 -29 -34 -4 -53 10 -59
43 -12 60 65 90 99 39z m725 -71 l3 -78 235 -5 235 -5 3 -353 c1 -194 -2 -360
-6 -369 -7 -12 -20 2 -56 60 -51 81 -111 143 -149 152 -35 9 -164 -21 -213
-50 -69 -40 -78 -66 -82 -240 -3 -103 1 -186 12 -265 18 -127 21 -315 7 -401
-11 -67 -68 -162 -111 -184 -16 -8 -49 -15 -75 -15 l-45 0 0 550 c0 517 1 550
18 549 36 -1 56 -17 72 -59 20 -52 36 -61 49 -27 24 63 21 242 -4 242 -5 0
-20 -19 -33 -42 -21 -39 -27 -43 -63 -43 l-39 0 0 68 c0 73 6 86 58 122 51 35
29 45 -90 43 -130 -3 -143 -13 -88 -65 27 -26 40 -47 40 -66 0 -15 3 -44 6
-64 6 -36 5 -38 -19 -38 -17 0 -33 9 -44 25 -49 70 -49 70 -68 55 -16 -13 -17
-27 -11 -119 6 -97 17 -138 36 -126 5 3 18 25 30 50 18 38 26 45 51 45 l29 0
0 -551 0 -551 -37 6 c-63 11 -160 64 -213 116 -74 72 -92 119 -92 245 0 98 2
110 51 251 103 299 94 242 100 669 l6 380 125 5 125 5 3 78 3 77 119 0 119 0
3 -77z m-731 -104 c15 -15 19 -28 14 -47 -8 -32 -21 -42 -55 -42 -35 0 -50 17
-50 57 0 52 52 71 91 32z m-837 -1352 c9 -7 20 -31 23 -53 5 -36 2 -43 -22
-62 -32 -26 -62 -28 -92 -7 -39 27 -38 101 1 127 18 12 71 9 90 -5z"/>
<path d="M2454 1179 c-28 -31 -26 -102 4 -131 29 -29 102 -31 132 -3 28 25 28
107 0 135 -29 29 -110 28 -136 -1z"/>
<path d="M2821 1174 c-38 -48 -23 -122 28 -144 40 -16 96 -5 116 23 8 12 15
41 15 64 0 60 -25 83 -89 83 -42 0 -53 -4 -70 -26z"/>
<path d="M657 3493 c-7 -10 71 -325 84 -337 25 -27 73 70 49 99 -14 17 -5 81
14 108 8 10 28 22 45 27 29 8 33 6 41 -16 5 -13 16 -24 24 -24 23 0 103 110
90 123 -3 3 -43 3 -88 0 -76 -4 -200 7 -237 22 -10 3 -19 3 -22 -2z m96 -58
l36 -15 -22 -24 -22 -25 -17 32 c-28 52 -26 54 25 32z"/>
<path d="M3750 3428 c-30 -5 -81 -7 -112 -5 -32 3 -60 2 -62 -2 -3 -4 3 -21
14 -38 20 -34 58 -49 67 -27 8 22 41 17 69 -11 34 -34 29 -68 -11 -75 -38 -7
-41 -25 -12 -74 30 -53 44 -55 63 -9 9 21 26 49 39 63 32 33 89 156 81 175 -6
17 -50 18 -136 3z m67 -55 c-26 -27 -27 -27 -41 -8 -13 18 -13 21 2 27 9 4 28
7 42 7 l25 1 -28 -27z"/>
<path d="M523 2804 c-3 -8 -3 -48 1 -88 l6 -72 -95 15 c-93 15 -96 17 -103 46
-18 68 -64 13 -60 -70 l3 -50 74 -7 c136 -12 158 -17 164 -39 4 -13 12 -19 22
-17 13 2 25 32 46 117 31 125 28 154 -16 171 -34 13 -35 13 -42 -6z"/>
<path d="M4110 2725 c-7 -8 -29 -47 -49 -87 -41 -82 -63 -101 -86 -77 -21 21
-11 60 22 93 36 37 25 56 -27 46 -23 -4 -46 -12 -52 -18 -14 -14 -1 -70 31
-133 25 -51 29 -54 68 -57 41 -3 43 -2 73 50 17 29 33 65 37 81 4 20 11 27 30
27 35 0 39 -25 10 -69 -14 -21 -23 -42 -20 -45 11 -11 59 -6 77 7 28 21 6 115
-38 162 -36 38 -57 43 -76 20z"/>
<path d="M4189 2046 c-49 -46 -121 -73 -154 -58 -14 7 -30 23 -35 37 -20 53
-53 11 -48 -61 l3 -46 51 -2 c27 -2 62 -11 77 -20 30 -20 67 -90 67 -127 0
-14 6 -33 13 -43 13 -17 15 -16 36 19 l22 37 -31 62 c-16 35 -30 70 -30 78 0
18 34 30 48 16 5 -5 13 -4 19 4 14 17 21 130 8 134 -5 2 -26 -12 -46 -30z"/>
<path d="M322 1990 c-43 -27 -74 -93 -65 -144 4 -29 15 -43 47 -65 100 -69
131 -74 206 -36 42 21 51 31 61 67 22 83 -6 142 -86 179 -53 25 -121 24 -163
-1z m186 -86 c12 -8 22 -21 22 -27 0 -18 -63 -57 -110 -69 -37 -10 -43 -8 -65
12 -54 51 -13 97 85 99 26 1 55 -6 68 -15z"/>
<path d="M3785 1396 c-31 -31 -33 -76 -5 -101 11 -10 20 -26 20 -36 0 -22 -70
-119 -86 -119 -7 0 -15 16 -18 36 -8 39 -22 49 -55 36 -27 -9 -77 -121 -58
-127 7 -2 62 -6 122 -9 61 -3 128 -11 149 -17 36 -10 41 -9 58 13 10 12 15 30
12 38 -36 89 -76 212 -82 253 -8 59 -22 68 -57 33z m75 -273 c0 -9 -8 -9 -30
-2 -35 13 -36 16 -13 41 16 18 17 18 30 -4 7 -13 12 -28 13 -35z"/>
<path d="M816 1129 c-31 -34 -52 -49 -70 -49 -38 0 -47 -26 -35 -106 12 -79
27 -99 87 -126 50 -23 66 -16 58 23 -5 27 1 34 70 86 l75 56 30 -17 c55 -32
65 -1 19 62 -34 47 -86 84 -147 106 l-42 15 -45 -50z m127 -26 c4 -2 7 -15 7
-28 0 -17 -9 -29 -31 -40 -40 -21 -59 -13 -59 24 0 52 9 63 44 55 17 -3 34 -8
39 -11z m-125 -115 c2 -18 -4 -31 -19 -42 -30 -21 -39 -12 -39 35 0 38 2 40
28 37 21 -2 28 -9 30 -30z"/>
<path d="M1395 738 c-10 -31 -44 -217 -47 -258 l-3 -45 46 1 c37 0 66 11 147
57 74 42 109 57 133 55 71 -6 30 56 -45 67 -42 7 -49 4 -81 -24 -42 -36 -38
-35 -75 -16 -38 20 -40 57 -5 89 35 32 32 54 -10 72 -42 17 -54 18 -60 2z m54
-202 l24 -13 -33 -12 c-39 -13 -44 -10 -35 18 7 24 12 25 44 7z"/>
<path d="M3118 638 c-145 -74 -158 -82 -158 -107 0 -15 6 -35 13 -45 13 -18
18 -17 102 14 143 53 228 89 247 107 35 31 17 114 -25 112 -12 -1 -93 -38
-179 -81z"/>
<path d="M2265 520 l-130 -5 -6 -45 c-4 -25 -5 -48 -2 -52 10 -18 41 -6 73 27
32 33 38 35 98 35 l64 0 -6 -67 c-3 -38 -6 -84 -6 -105 0 -31 -4 -37 -31 -47
-18 -6 -29 -16 -26 -23 3 -9 26 -12 83 -10 85 2 109 13 75 34 -19 12 -21 22
-21 108 0 70 4 101 16 118 19 28 11 43 -24 40 -15 -1 -85 -5 -157 -8z"/>
</g>
</svg>
