<?xml version="1.0" standalone="no"?>
<!DOCTYPE svg PUBLIC "-//W3C//DTD SVG 20010904//EN"
 "http://www.w3.org/TR/2001/REC-SVG-20010904/DTD/svg10.dtd">
<svg version="1.0" xmlns="http://www.w3.org/2000/svg"
 width="439.399296pt" height="439.203342pt" viewBox="0 0 439.399296 439.203342"
 preserveAspectRatio="xMidYMid meet">
<metadata>
Created by potrace 1.16, written by Peter Selinger 2001-2019
</metadata>
<g transform="translate(-5.096873,444.673534) scale(0.100000,-0.100000)"
fill="#000000" stroke="none">
<path d="M2085 4444 c-364 -36 -612 -105 -865 -241 -353 -190 -701 -530 -895
-872 -220 -388 -311 -856 -260 -1331 57 -535 273 -969 670 -1348 336 -321 713
-507 1175 -579 160 -25 519 -24 680 1 494 76 909 294 1256 659 326 343 508
716 581 1187 24 160 24 501 0 660 -75 487 -277 882 -628 1230 -345 343 -745
546 -1209 615 -101 15 -423 27 -505 19z m340 -74 c531 -40 979 -255 1365 -656
318 -331 501 -702 566 -1151 23 -159 23 -465 0 -626 -65 -454 -260 -844 -587
-1177 -184 -186 -369 -321 -594 -430 -299 -146 -557 -203 -920 -204 -296 -1
-494 32 -755 126 -553 199 -1061 713 -1255 1268 -89 258 -118 433 -118 730 0
372 57 628 207 935 246 500 712 912 1227 1083 277 92 555 124 864 102z"/>
<path d="M2030 4329 c-384 -39 -733 -176 -1040 -407 -97 -73 -339 -315 -412
-412 -264 -351 -394 -719 -415 -1175 -19 -442 100 -882 333 -1227 328 -485
802 -808 1334 -908 516 -97 1044 -13 1463 234 301 177 596 471 772 771 292
496 355 1149 166 1725 -114 344 -345 676 -651 932 -296 248 -628 397 -1010
453 -132 20 -415 27 -540 14z m512 -44 c458 -60 873 -276 1203 -627 312 -332
487 -702 545 -1153 15 -117 12 -416 -5 -548 -56 -425 -239 -801 -545 -1120
-350 -365 -763 -573 -1245 -627 -116 -13 -374 -13 -490 0 -483 54 -892 260
-1246 626 -302 314 -479 673 -543 1107 -22 145 -22 468 -1 614 52 348 177 649
389 928 77 103 259 289 361 372 289 232 625 379 980 427 139 19 457 20 597 1z"/>
<path d="M2111 4281 c-40 -7 -53 -30 -22 -38 20 -5 21 -12 21 -108 0 -100 -1
-104 -22 -107 -13 -2 -23 -10 -23 -18 0 -24 221 -22 258 3 33 21 36 68 8 111
-13 20 -17 39 -14 67 5 33 1 42 -25 69 -27 27 -36 30 -89 29 -32 -1 -73 -4
-92 -8z m157 -60 c4 -29 -20 -51 -55 -51 -20 0 -23 5 -23 41 l0 40 38 -3 c31
-2 38 -7 40 -27z m-4 -110 c10 -10 14 -25 10 -35 -7 -17 -43 -36 -69 -36 -18
0 -30 70 -13 81 22 14 54 10 72 -10z"/>
<path d="M2110 3894 c-256 -30 -386 -64 -569 -150 -336 -158 -624 -446 -786
-788 -153 -320 -194 -713 -113 -1085 127 -591 638 -1102 1229 -1229 271 -59
582 -52 834 18 307 86 599 277 809 530 232 279 346 557 378 923 45 524 -156
1025 -552 1374 -243 214 -490 333 -805 388 -88 15 -355 27 -425 19z m468 -63
c314 -70 575 -213 803 -440 126 -126 201 -223 277 -358 l41 -73 -38 0 c-23 0
-48 -8 -64 -20 -24 -19 -28 -20 -50 -5 -22 14 -24 21 -19 61 4 37 1 49 -18 69
-33 36 -101 35 -137 -1 -22 -22 -25 -32 -20 -69 4 -39 1 -46 -20 -60 -22 -15
-26 -14 -50 5 -39 31 -106 28 -132 -6 -25 -32 -27 -81 -5 -112 15 -21 14 -22
-18 -22 -44 0 -124 22 -175 48 -45 24 -99 84 -132 149 -22 44 -62 66 -82 46
-6 -6 -17 -39 -25 -74 -8 -35 -16 -74 -19 -86 -5 -22 -6 -22 -48 -7 -98 35
-244 64 -323 64 -71 0 -89 -4 -136 -29 -55 -28 -55 -28 -200 -23 -150 5 -181
0 -264 -40 l-41 -20 -74 32 -74 32 -27 67 c-37 89 -89 154 -181 228 -78 63
-124 83 -185 83 -30 0 -102 -23 -102 -33 0 -3 33 -21 74 -40 88 -42 194 -137
262 -238 l48 -69 -20 -27 c-46 -61 -54 -60 -121 21 -100 119 -204 173 -322
164 -58 -4 -138 -36 -133 -53 1 -6 38 -10 85 -10 77 0 87 -3 134 -33 58 -37
123 -103 149 -153 14 -25 19 -56 19 -116 l0 -81 -81 -84 c-81 -83 -81 -83 -94
-157 -13 -78 -10 -180 10 -341 16 -131 9 -189 -35 -300 -48 -122 -85 -254 -85
-305 0 -48 22 -95 80 -169 68 -90 97 -104 230 -116 211 -18 433 18 572 92 65
35 243 182 482 399 87 79 170 153 183 163 l25 19 -6 -119 c-10 -171 -14 -197
-34 -189 -10 4 -24 9 -33 12 -10 3 -25 26 -34 51 -25 67 -30 69 -59 26 -47
-73 -55 -176 -19 -248 l15 -28 34 33 c19 18 36 41 40 51 4 13 15 18 40 18 l35
0 -3 -72 -3 -72 -52 -30 c-74 -44 -83 -54 -59 -72 35 -26 290 -14 319 15 16
16 -11 46 -62 71 l-51 23 0 64 0 63 70 0 c61 0 70 -2 70 -18 0 -10 6 -26 13
-36 19 -25 53 -6 62 34 7 30 -10 131 -27 163 -8 17 -12 16 -43 -12 -31 -27
-88 -51 -122 -51 -17 0 -18 396 -2 523 12 92 22 97 33 15 15 -104 58 -252 92
-323 67 -135 136 -208 195 -208 80 0 151 165 205 470 3 18 13 22 69 28 l65 7
46 -42 c79 -73 164 -97 243 -69 54 19 119 131 142 243 51 255 42 418 -28 498
-12 13 -12 24 -4 55 6 21 11 53 11 71 0 22 5 32 16 32 8 0 29 13 45 30 l30 29
10 -27 c21 -52 57 -180 76 -263 28 -130 26 -496 -5 -634 -33 -150 -67 -247
-132 -380 -225 -453 -654 -780 -1145 -871 -139 -26 -478 -26 -615 -1 -322 61
-617 222 -851 463 -246 255 -386 533 -435 867 -21 142 -15 471 11 586 93 416
313 747 660 996 192 137 395 221 640 266 141 26 477 20 613 -10z m892 -806
c10 -12 10 -21 2 -40 -13 -29 -34 -32 -56 -9 -19 18 -19 20 -6 45 13 23 43 25
60 4z m-219 -131 c17 -21 0 -49 -31 -49 -31 0 -48 28 -31 49 8 9 21 16 31 16
10 0 23 -7 31 -16z m439 1 c18 -21 3 -55 -24 -55 -33 0 -50 23 -36 49 12 24
42 27 60 6z m-159 -28 c79 -53 77 -198 -3 -247 -39 -24 -113 -27 -163 -6 -89
37 -96 205 -11 257 45 28 133 26 177 -4z m-709 -20 c26 -19 74 -46 108 -61
l60 -27 0 -75 c0 -41 1 -77 3 -81 5 -17 -48 -14 -111 6 -87 27 -92 31 -102 77
-14 62 -23 194 -14 194 5 0 30 -15 56 -33z m-255 -19 l113 -31 0 -52 0 -51
-112 -27 c-62 -14 -150 -31 -194 -37 -72 -11 -85 -10 -115 5 -19 9 -42 27 -51
39 -20 24 -23 88 -7 134 10 29 14 31 77 37 37 3 74 8 82 9 45 10 105 3 207
-26z m-507 2 c17 -9 18 -14 8 -35 -13 -29 -20 -30 -53 -9 -18 12 -37 14 -82 9
-80 -10 -95 -19 -91 -58 2 -21 8 -32 18 -31 9 1 57 4 107 8 l90 7 5 -24 c5
-24 2 -25 -69 -36 -92 -14 -128 -14 -175 0 -42 11 -45 21 -22 79 22 54 65 78
155 89 41 5 78 9 82 10 5 0 17 -4 27 -9z m-446 -63 c38 -20 41 -26 44 -68 l3
-46 -84 -17 c-139 -29 -189 -10 -203 76 -7 40 5 53 68 74 54 17 119 10 172
-19z m1574 -23 c22 -4 32 -13 37 -32 11 -46 -75 -112 -146 -112 -13 0 -18 14
-24 65 -3 35 -4 69 0 75 7 11 85 13 133 4z m-488 -118 c0 -9 -27 -23 -72 -38
-59 -18 -74 -27 -76 -45 -2 -16 5 -26 28 -38 29 -15 31 -20 26 -48 -8 -41 -11
-43 -56 -30 -22 5 -42 8 -45 5 -11 -11 -5 -141 7 -148 7 -5 26 9 48 34 19 23
39 42 43 42 4 0 7 -30 7 -66 l0 -65 -82 -39 c-46 -21 -95 -42 -110 -45 -25 -6
-28 -4 -28 18 0 32 -42 67 -81 67 -82 0 -116 -58 -84 -142 4 -11 -19 -23 -92
-46 -104 -33 -217 -62 -245 -62 -15 0 -18 10 -18 61 0 63 32 174 84 290 l24
54 7 -50 c10 -64 22 -81 44 -61 9 8 28 19 44 25 27 10 27 10 27 -30 0 -30 -6
-46 -22 -58 -30 -25 -15 -41 40 -41 84 0 133 46 77 72 -16 7 -24 17 -20 26 3
7 5 20 5 27 0 25 30 24 54 0 27 -27 54 -32 61 -12 3 6 -3 50 -13 97 -19 92
-39 111 -56 53 -7 -27 -14 -33 -36 -33 -36 0 -42 18 -34 92 4 32 7 58 8 58 0
1 60 5 131 10 72 5 153 16 180 24 28 8 79 24 115 35 79 24 110 26 110 7z
m-704 -39 c2 -7 -14 -53 -37 -102 -23 -50 -59 -137 -79 -195 l-38 -105 -55 -3
c-53 -3 -57 -1 -71 26 -41 79 -173 67 -196 -18 -23 -86 21 -150 102 -150 40 0
94 31 103 60 6 18 12 20 43 14 20 -4 38 -8 40 -9 2 -1 -5 -33 -14 -70 -16 -64
-19 -68 -59 -86 -23 -10 -80 -27 -126 -38 -91 -21 -403 -53 -436 -45 -18 5
-22 25 -43 194 -25 206 -23 232 24 335 54 119 127 164 254 157 17 -1 32 -7 32
-13 0 -6 -30 -77 -66 -159 -64 -145 -67 -148 -91 -139 -95 36 -171 -37 -144
-138 6 -22 18 -46 26 -53 24 -20 101 -25 128 -7 20 13 26 13 42 1 25 -18 79
-18 115 1 42 22 59 82 39 138 -12 37 -20 44 -60 57 l-46 16 42 94 c48 108 82
169 105 187 8 7 46 22 83 34 57 18 83 20 155 15 48 -3 112 -2 142 3 79 12 80
12 86 -2z m785 -16 c24 -10 77 -27 117 -37 l74 -17 -7 -36 c-11 -59 -51 -117
-104 -149 -42 -26 -136 -62 -163 -62 -4 0 -8 30 -8 66 0 63 1 65 23 59 12 -4
30 -18 41 -31 14 -20 21 -22 32 -13 16 13 19 101 4 129 -10 19 -12 18 -47 -5
-42 -29 -53 -31 -53 -8 0 23 34 123 41 123 4 0 26 -9 50 -19z m834 -54 c32
-108 -5 -417 -61 -502 -20 -30 -90 -65 -131 -65 -25 0 -38 9 -71 53 -62 82
-74 131 -62 262 15 157 30 269 39 278 4 4 23 1 43 -7 34 -15 35 -17 41 -83 4
-37 7 -92 7 -121 l0 -54 -33 21 c-40 25 -48 20 -37 -22 4 -18 20 -84 35 -147
15 -63 31 -119 37 -125 16 -17 65 48 83 112 9 32 28 84 42 115 14 32 23 64 19
73 -5 15 -9 15 -36 -1 -16 -10 -32 -15 -36 -11 -4 3 -9 57 -11 119 l-4 113 53
25 c29 14 56 24 60 22 4 -1 14 -26 23 -55z m-1520 -14 c11 -105 10 -113 -16
-113 -12 0 -34 14 -49 30 -25 27 -27 34 -19 65 9 31 50 75 70 75 4 0 10 -26
14 -57z m1120 -210 c-15 -125 -28 -229 -30 -231 -2 -2 -22 -6 -44 -9 -34 -5
-42 -2 -47 13 -19 58 -32 83 -62 117 -32 34 -34 41 -30 87 9 87 42 136 143
206 50 34 91 59 93 54 2 -5 -9 -112 -23 -237z m-278 -25 c-5 -46 -38 -157 -76
-252 -11 -27 -14 -28 -59 -23 -26 3 -54 7 -62 9 -25 5 -14 -49 28 -136 38 -79
98 -156 121 -156 28 0 42 69 36 174 -5 96 -4 104 22 162 15 33 32 62 38 65 28
12 50 -191 35 -320 -11 -94 -48 -186 -80 -196 -44 -14 -115 49 -153 135 -54
121 -107 322 -107 404 l0 43 118 70 c64 39 123 71 131 72 11 1 13 -10 8 -51z
m-1289 -90 c28 -28 1 -75 -38 -63 -14 4 -20 15 -20 35 0 37 33 53 58 28z
m-380 -10 c18 -18 14 -46 -7 -58 -11 -5 -22 -10 -25 -10 -8 0 -36 31 -36 40 0
13 30 40 44 40 6 0 17 -5 24 -12z m146 -4 c9 -8 16 -19 16 -24 0 -9 -28 -40
-36 -40 -17 0 -44 23 -44 38 0 38 37 53 64 26z m914 4 c17 -17 15 -43 -4 -59
-31 -26 -70 25 -44 56 15 18 32 19 48 3z m207 -103 c0 -27 -3 -30 -30 -30 -21
0 -31 5 -33 18 -6 33 6 49 35 45 24 -3 28 -8 28 -33z m-118 -25 c7 -36 37 -60
75 -60 16 0 28 -3 28 -7 0 -5 -23 -39 -51 -76 -56 -74 -428 -399 -567 -495
-115 -80 -258 -148 -349 -166 -43 -9 -107 -23 -143 -31 -96 -21 -240 -10 -301
22 -81 43 -112 107 -97 201 10 62 60 224 93 298 l23 51 76 12 c122 18 136 16
136 -16 -1 -77 -37 -105 -74 -58 -14 17 -29 26 -41 24 -20 -4 -26 -26 -39
-122 -8 -65 12 -72 61 -23 43 43 66 47 58 11 -3 -14 -7 -36 -10 -50 -4 -19
-14 -27 -36 -32 -37 -7 -48 -29 -25 -51 13 -14 33 -16 97 -14 45 1 85 5 90 8
5 3 -2 24 -15 47 -14 23 -28 59 -31 80 -7 36 -6 37 21 37 22 0 33 -8 46 -31
12 -19 24 -29 35 -27 22 4 44 66 46 128 2 39 -1 45 -20 48 -16 2 -26 -5 -38
-27 -13 -26 -22 -31 -50 -31 -39 0 -41 3 -24 80 10 49 11 50 47 50 40 0 187
24 240 39 44 13 42 -3 -9 -89 -27 -47 -39 -78 -37 -97 3 -26 6 -28 56 -31 61
-4 353 35 366 48 16 16 -16 70 -69 116 -45 38 -86 98 -74 108 2 1 30 9 62 18
l57 15 0 -24 c0 -68 116 -102 159 -47 12 15 21 33 21 40 0 10 7 10 36 -2 45
-19 87 -10 114 23 22 29 26 64 9 95 -9 16 -8 23 2 29 25 16 39 9 46 -21z
m-102 -45 c0 -27 -3 -30 -30 -30 -24 0 -31 5 -33 24 -4 27 13 42 43 39 15 -2
20 -11 20 -33z m-171 -28 c33 -24 1 -79 -38 -64 -19 8 -22 63 -3 70 19 8 22 8
41 -6z m-242 -146 c26 -29 46 -77 36 -86 -2 -3 -50 -8 -107 -11 l-102 -7 21
53 c37 93 37 93 83 87 30 -4 50 -15 69 -36z"/>
<path d="M3330 2805 c-23 -28 -8 -50 35 -50 30 0 41 4 43 18 5 25 -16 47 -43
47 -12 0 -28 -7 -35 -15z"/>
<path d="M3480 2805 c-23 -28 -8 -50 35 -50 30 0 41 4 43 18 5 25 -16 47 -43
47 -12 0 -28 -7 -35 -15z"/>
<path d="M3380 2685 c-24 -29 -4 -45 58 -45 32 0 62 3 65 7 4 3 -3 17 -15 30
-25 27 -88 32 -108 8z"/>
<path d="M2931 2726 c-16 -19 -7 -46 14 -46 22 0 30 29 13 46 -13 13 -16 13
-27 0z"/>
<path d="M2924 2645 c-4 -9 -2 -21 4 -27 15 -15 44 -1 40 19 -4 23 -36 29 -44
8z"/>
<path d="M2281 2786 c-14 -15 -21 -33 -19 -48 3 -22 6 -23 88 -23 98 1 268 24
276 37 12 19 -16 30 -112 44 -152 21 -206 19 -233 -10z"/>
<path d="M1433 2730 c-42 -17 -22 -74 28 -85 39 -9 154 13 170 31 22 27 2 41
-76 53 -88 13 -92 13 -122 1z"/>
<path d="M3090 2684 c-11 -12 -10 -18 3 -32 16 -15 18 -15 33 0 19 18 12 48
-9 48 -8 0 -20 -7 -27 -16z"/>
<path d="M228 2433 c-10 -12 -12 -54 -10 -166 1 -82 5 -153 8 -159 3 -5 14 -2
25 8 16 14 33 16 115 11 71 -4 101 -10 115 -23 32 -29 42 -6 40 98 -1 51 -5
125 -9 163 l-7 70 -35 3 c-19 2 -43 -3 -54 -11 -18 -13 -18 -15 -1 -48 10 -19
26 -45 36 -58 12 -15 19 -40 19 -67 0 -44 0 -44 -35 -44 l-35 0 15 37 c15 37
15 39 -6 56 -27 22 -78 19 -92 -5 -8 -12 -7 -24 3 -45 8 -15 16 -31 18 -35 2
-5 -14 -8 -36 -8 -43 0 -52 13 -52 75 0 48 10 72 34 83 25 11 40 48 25 58 -30
18 -69 22 -81 7z"/>
<path d="M4110 2396 c-58 -16 -88 -32 -122 -64 -23 -21 -28 -34 -28 -72 0 -83
23 -109 146 -163 60 -26 118 -46 129 -45 16 3 22 14 29 60 4 32 6 65 2 73 -7
19 -43 19 -102 -1 -65 -22 -118 -9 -122 30 -7 55 5 76 42 76 30 0 93 -16 139
-35 33 -14 65 113 35 143 -15 15 -89 14 -148 -2z"/>
<path d="M2330 521 l-45 -6 4 -45 c7 -90 6 -94 -9 -97 -10 -3 -28 20 -53 66
-21 39 -43 73 -49 77 -22 14 -38 -23 -43 -101 -10 -140 -11 -142 -50 -149 -40
-8 -51 -21 -35 -41 17 -21 74 -19 92 3 19 23 38 69 38 92 0 11 3 20 6 20 11 0
90 -59 121 -90 21 -22 38 -31 54 -28 28 4 37 33 16 56 -10 12 -16 47 -19 110
-4 81 -2 92 13 92 9 0 22 7 29 15 13 16 5 36 -13 33 -7 0 -32 -4 -57 -7z"/>
</g>
</svg>
