<?xml version="1.0" standalone="no"?>
<!DOCTYPE svg PUBLIC "-//W3C//DTD SVG 20010904//EN"
 "http://www.w3.org/TR/2001/REC-SVG-20010904/DTD/svg10.dtd">
<svg version="1.0" xmlns="http://www.w3.org/2000/svg"
 width="439.593045pt" height="439.175202pt" viewBox="0 0 439.593045 439.175202"
 preserveAspectRatio="xMidYMid meet">
<metadata>
Created by potrace 1.16, written by Peter Selinger 2001-2019
</metadata>
<g transform="translate(-5.199330,444.562791) scale(0.100000,-0.100000)"
fill="#000000" stroke="none">
<path d="M2033 4440 c-500 -49 -921 -239 -1288 -581 -185 -173 -369 -417 -478
-634 -83 -166 -160 -420 -192 -630 -23 -148 -30 -388 -16 -545 49 -556 268
-1009 676 -1399 361 -344 782 -538 1280 -590 130 -14 450 -6 580 14 622 94
1152 441 1515 992 290 437 400 1015 304 1588 -72 429 -282 824 -615 1155 -343
342 -741 544 -1209 615 -127 19 -430 27 -557 15z m541 -86 c439 -61 822 -253
1154 -578 360 -352 559 -737 628 -1212 23 -159 23 -487 0 -634 -73 -464 -263
-841 -589 -1170 -386 -390 -806 -586 -1347 -631 -547 -44 -1063 110 -1483 444
-348 277 -615 663 -727 1053 -125 430 -115 913 26 1326 224 654 813 1196 1479
1362 257 64 579 79 859 40z"/>
<path d="M2030 4328 c-302 -27 -624 -135 -875 -293 -145 -91 -231 -161 -376
-305 -199 -198 -347 -406 -445 -630 -242 -551 -230 -1229 30 -1765 196 -402
569 -775 971 -971 559 -271 1270 -271 1830 0 324 158 644 444 851 761 287 440
389 1012 279 1562 -60 296 -176 556 -359 801 -98 131 -308 343 -436 439 -418
316 -912 450 -1470 401z m607 -58 c402 -72 753 -260 1063 -570 349 -348 542
-748 594 -1227 10 -89 7 -394 -4 -483 -57 -450 -236 -826 -550 -1154 -347
-363 -763 -572 -1245 -626 -116 -13 -374 -13 -490 0 -482 54 -894 261 -1245
626 -305 316 -480 673 -545 1107 -18 126 -21 446 -5 577 48 383 202 739 444
1029 80 95 260 271 345 335 343 263 718 399 1141 414 201 8 338 0 497 -28z"/>
<path d="M2127 4284 c-14 -15 -7 -46 13 -51 17 -5 20 -12 16 -42 -3 -20 -5
-72 -5 -117 -1 -76 -2 -81 -26 -92 -45 -21 -27 -40 52 -55 28 -5 36 -2 49 18
12 18 13 29 6 38 -5 6 -12 27 -14 46 -5 53 19 50 43 -4 24 -53 66 -78 136 -78
50 0 103 36 123 83 19 46 0 59 -32 22 -24 -29 -76 -62 -97 -62 -6 0 -22 18
-37 39 l-25 39 22 44 c37 72 40 103 15 141 l-22 32 -104 3 c-58 2 -108 0 -113
-4z m177 -66 c9 -12 16 -35 16 -50 0 -26 -3 -28 -44 -28 -25 0 -47 4 -50 8
-11 17 7 81 23 85 32 9 40 7 55 -15z"/>
<path d="M2105 3893 c-297 -22 -587 -130 -835 -311 -105 -76 -293 -269 -373
-381 -289 -406 -372 -938 -225 -1445 39 -135 135 -331 220 -450 88 -125 253
-293 377 -387 430 -324 1023 -407 1556 -219 442 157 838 562 988 1011 111 333
111 735 1 1074 -106 325 -352 640 -662 848 -295 198 -656 288 -1047 260z m481
-62 c143 -30 241 -64 379 -132 161 -79 286 -171 425 -309 233 -233 373 -488
442 -804 20 -88 22 -130 22 -336 0 -254 -10 -330 -69 -515 -37 -115 -134 -305
-212 -415 -87 -122 -272 -307 -393 -392 -175 -124 -390 -217 -599 -259 -127
-26 -404 -36 -537 -20 -385 47 -695 206 -972 496 -223 233 -360 505 -413 816
-28 167 -24 481 9 632 98 448 384 835 786 1065 205 118 458 192 701 204 104 6
334 -11 431 -31z"/>
<path d="M1046 3231 c-15 -17 -19 -55 -27 -279 -11 -292 -9 -384 8 -389 6 -2
57 51 113 117 165 196 195 210 442 210 l158 0 0 -309 0 -309 -192 -5 c-217 -6
-260 -14 -402 -80 -75 -35 -96 -50 -138 -101 -68 -85 -148 -246 -154 -316 -8
-72 22 -153 79 -215 40 -44 46 -47 117 -56 152 -21 280 18 338 104 81 118 80
249 -1 325 -49 46 -158 37 -220 -18 -29 -26 -32 -34 -31 -85 0 -47 4 -60 27
-83 25 -24 34 -27 100 -27 39 0 82 4 95 8 20 8 21 6 12 -17 -40 -106 -101
-146 -231 -154 -85 -5 -85 -4 -123 28 -89 79 -101 177 -40 341 30 80 65 115
199 199 98 60 102 62 195 71 52 6 156 8 230 7 l135 -3 3 -220 2 -220 -42 -20
c-59 -28 -88 -74 -88 -142 0 -113 48 -163 158 -163 120 0 167 44 166 158 -1
70 -18 102 -72 137 l-31 20 -1 228 0 228 118 -3 117 -3 3 -85 c2 -85 2 -85
-27 -102 -29 -16 -55 -73 -46 -101 2 -7 6 -24 9 -39 8 -34 51 -58 106 -58 61
0 100 41 100 105 0 40 -5 52 -35 82 -34 34 -35 36 -35 119 l0 84 110 0 110 0
0 -223 0 -222 -42 -20 c-60 -29 -91 -89 -85 -166 9 -102 52 -139 165 -139 112
0 160 47 161 160 1 59 -26 110 -72 135 l-37 20 0 228 0 227 80 0 80 0 0 -86
c0 -82 -1 -87 -29 -113 -38 -36 -46 -70 -30 -123 16 -50 44 -68 107 -68 63 0
102 40 102 105 0 40 -5 52 -35 82 -34 34 -35 36 -35 119 l0 84 100 0 100 0 0
-269 0 -269 -51 -38 c-109 -83 -208 -238 -231 -362 -10 -53 -9 -70 6 -117 21
-69 86 -136 175 -184 61 -32 67 -33 141 -27 130 11 175 29 244 101 46 47 70
64 98 69 70 13 111 100 88 187 -14 51 -38 75 -91 89 -89 24 -172 -18 -189 -95
-11 -50 1 -110 29 -139 30 -32 27 -72 -8 -107 -27 -27 -35 -29 -100 -29 -124
0 -162 13 -224 79 -97 102 -110 173 -52 287 46 92 118 180 169 207 39 21 54
22 391 27 l350 5 0 670 0 670 -1120 5 c-1044 5 -1123 6 -1165 23 -106 42 -175
102 -245 212 -20 30 -37 55 -39 55 -1 0 -11 -9 -20 -19z m1314 -651 l0 -310
-110 0 -110 0 0 103 c0 101 1 104 25 115 30 14 45 48 45 101 0 76 -67 117
-151 92 -43 -13 -48 -19 -59 -68 -12 -50 6 -102 41 -121 l29 -17 0 -102 0
-103 -120 0 -120 0 0 310 0 310 265 0 265 0 0 -310z m530 0 l0 -310 -100 0
-100 0 0 104 c0 96 2 105 20 111 50 16 67 124 27 170 -29 35 -99 45 -145 21
-60 -31 -67 -137 -11 -178 29 -22 29 -23 29 -125 l0 -103 -80 0 -80 0 0 310 0
310 220 0 220 0 0 -310z m680 0 l0 -310 -110 0 -110 0 0 63 c0 73 21 153 50
189 11 14 36 33 56 43 22 10 33 20 27 26 -29 29 -251 35 -320 8 -30 -11 -24
-21 28 -47 53 -26 69 -70 69 -184 l0 -98 -150 0 -150 0 0 310 0 310 305 0 305
0 0 -310z m-1442 28 c28 -28 1 -75 -38 -63 -14 4 -20 15 -20 35 0 37 33 53 58
28z m556 -10 c23 -38 -35 -78 -61 -42 -17 23 -16 29 3 49 20 19 43 16 58 -7z
m574 -473 c3 -86 -15 -126 -78 -174 -79 -60 -68 -66 115 -66 140 0 160 2 163
16 2 10 -11 25 -33 39 -54 33 -75 84 -75 180 l0 80 110 0 110 0 0 -260 0 -260
-302 2 -303 3 -3 245 c-1 134 0 250 3 258 3 10 38 12 147 10 l143 -3 3 -70z
m-1130 -177 c28 -28 1 -75 -38 -63 -14 4 -20 15 -20 35 0 37 33 53 58 28z
m556 -10 c13 -21 -2 -51 -26 -56 -16 -3 -48 23 -48 38 0 15 32 41 48 38 8 -2
20 -11 26 -20z m-1377 -70 c12 -13 23 -30 25 -38 5 -24 -37 -70 -63 -70 -58 0
-80 72 -33 109 34 27 46 26 71 -1z m523 -198 c27 -15 43 -79 29 -119 -14 -39
-35 -51 -89 -51 -56 0 -90 34 -90 90 0 56 34 90 90 90 23 0 50 -5 60 -10z
m635 -15 c19 -18 25 -35 25 -65 0 -58 -33 -90 -95 -90 -62 0 -85 24 -85 90 0
66 23 90 85 90 35 0 52 -6 70 -25z m815 -364 c15 -30 12 -82 -7 -103 -21 -24
-84 -24 -106 0 -25 28 -26 82 -1 106 23 24 100 21 114 -3z"/>
<path d="M563 3393 c-54 -78 -96 -160 -88 -173 3 -5 17 -10 30 -10 35 0 112
-28 158 -57 37 -23 38 -26 32 -63 -8 -47 2 -54 41 -31 43 26 91 104 116 185
22 74 18 101 -18 101 -16 0 -20 -10 -25 -60 -3 -33 -9 -68 -13 -77 -11 -23
-71 -25 -80 -2 -9 23 -8 24 13 24 29 0 33 15 11 43 -20 25 -73 50 -84 40 -3
-3 -3 -17 0 -29 8 -33 -8 -30 -45 7 -35 34 -36 37 -18 61 9 11 31 18 68 20 50
3 54 5 54 27 0 19 -8 27 -35 37 -63 23 -74 18 -117 -43z"/>
<path d="M3840 3272 c-38 -20 -85 -94 -96 -150 -6 -31 -2 -38 42 -83 85 -87
155 -87 245 0 l49 47 -14 46 c-20 68 -58 131 -86 145 -36 18 -100 16 -140 -5z
m148 -71 c39 -69 27 -118 -38 -151 -47 -24 -71 -25 -110 -5 -33 17 -37 40 -19
96 15 45 46 77 83 88 52 15 62 12 84 -28z"/>
<path d="M457 1413 c-22 -21 27 -141 59 -144 8 -1 19 -2 26 -3 7 -1 15 10 18
24 6 27 0 26 135 22 46 -1 67 -6 71 -16 3 -8 -12 -44 -33 -80 -28 -48 -46 -67
-68 -73 -35 -11 -35 -25 -2 -91 25 -51 41 -66 62 -58 10 3 15 19 15 46 0 31
12 61 54 131 30 49 58 103 61 120 12 53 -6 61 -172 74 -120 10 -155 16 -184
33 -20 12 -39 19 -42 15z"/>
<path d="M3706 1361 c-28 -54 -23 -67 19 -51 24 9 27 7 40 -23 26 -63 28 -61
-65 -62 -110 0 -113 -12 -32 -98 66 -70 80 -103 58 -146 -25 -47 -4 -54 43
-15 42 35 39 61 -14 133 l-45 61 73 1 c39 1 77 2 82 4 6 1 25 3 42 3 26 2 36
9 49 35 9 17 23 36 31 40 7 5 11 12 8 18 -10 14 -47 11 -66 -7 -16 -14 -23
-15 -47 -5 -46 19 -116 96 -117 128 0 49 -31 41 -59 -16z"/>
<path d="M2211 567 c-13 -6 -33 -25 -45 -40 -46 -63 -11 -264 51 -288 53 -20
101 -11 154 28 40 31 52 47 64 87 19 64 19 71 -6 124 -30 61 -89 102 -148 102
-25 0 -57 -6 -70 -13z m147 -77 c40 -79 26 -132 -45 -165 l-37 -18 -22 29
c-50 62 -36 161 28 189 44 19 49 16 76 -35z"/>
</g>
</svg>
