<?xml version="1.0" standalone="no"?>
<!DOCTYPE svg PUBLIC "-//W3C//DTD SVG 20010904//EN"
 "http://www.w3.org/TR/2001/REC-SVG-20010904/DTD/svg10.dtd">
<svg version="1.0" xmlns="http://www.w3.org/2000/svg"
 width="439.341270pt" height="439.159615pt" viewBox="0 0 439.341270 439.159615"
 preserveAspectRatio="xMidYMid meet">
<metadata>
Created by potrace 1.16, written by Peter Selinger 2001-2019
</metadata>
<g transform="translate(-5.471589,444.643024) scale(0.100000,-0.100000)"
fill="#000000" stroke="none">
<path d="M2090 4444 c-19 -2 -78 -9 -130 -14 -611 -67 -1173 -415 -1542 -955
-183 -267 -292 -548 -344 -885 -25 -161 -26 -520 -1 -680 71 -460 258 -839
579 -1176 354 -370 762 -584 1258 -661 161 -24 520 -24 680 0 161 26 356 78
490 132 567 228 1052 736 1248 1305 156 456 160 989 11 1445 -101 306 -282
595 -529 844 -355 358 -777 569 -1260 631 -90 11 -401 21 -460 14z m484 -90
c435 -60 816 -250 1147 -571 364 -354 567 -743 635 -1220 21 -145 23 -457 5
-593 -64 -476 -259 -873 -595 -1212 -399 -403 -849 -604 -1416 -634 -242 -12
-566 31 -790 106 -207 69 -441 198 -625 344 -379 302 -649 717 -754 1158 -70
294 -77 637 -20 938 81 424 278 784 607 1105 378 369 816 563 1352 599 95 6
341 -5 454 -20z"/>
<path d="M2045 4329 c-511 -51 -907 -239 -1271 -603 -141 -141 -251 -281 -342
-435 -381 -647 -358 -1552 54 -2171 177 -267 440 -519 710 -682 566 -340 1365
-370 1971 -72 213 104 372 221 564 413 330 331 515 694 586 1151 24 159 24
482 -1 640 -74 475 -280 866 -633 1200 -294 278 -618 449 -996 525 -211 42
-443 54 -642 34z m617 -63 c381 -77 703 -246 996 -521 349 -329 567 -747 627
-1200 18 -137 20 -410 5 -550 -51 -466 -260 -881 -617 -1226 -299 -289 -644
-467 -1043 -541 -147 -26 -525 -35 -665 -14 -493 73 -865 267 -1215 632 -303
316 -485 699 -540 1134 -13 110 -13 430 0 540 40 318 145 601 318 858 87 130
168 226 298 353 365 354 799 543 1314 572 127 7 401 -13 522 -37z"/>
<path d="M2087 4259 c-21 -12 -13 -29 14 -29 17 0 19 -8 19 -95 l0 -96 -36
-21 c-32 -19 -34 -22 -20 -36 37 -38 216 -20 269 26 25 22 22 71 -8 102 -23
24 -24 28 -10 40 34 28 2 94 -53 109 -47 14 -152 14 -175 0z m167 -35 c39 -15
6 -64 -43 -64 -17 0 -21 6 -21 35 0 30 3 35 24 35 13 0 31 -3 40 -6z m24 -123
c6 0 12 -12 12 -25 0 -30 -15 -42 -62 -51 l-38 -7 0 40 c0 48 7 52 88 43z"/>
<path d="M2110 3894 c-281 -33 -439 -79 -637 -184 -243 -129 -476 -346 -626
-583 -226 -356 -301 -812 -205 -1256 41 -192 133 -400 251 -568 82 -116 298
-331 415 -413 294 -206 648 -305 1022 -287 432 22 781 177 1085 481 255 256
398 529 461 881 21 121 24 418 5 540 -55 354 -208 651 -466 910 -253 253 -534
400 -875 459 -93 16 -360 28 -430 20z m392 -49 c380 -54 724 -249 984 -556
177 -209 286 -431 346 -704 20 -87 22 -130 22 -335 0 -254 -10 -332 -69 -516
-37 -114 -134 -304 -212 -414 -87 -122 -272 -306 -393 -392 -181 -128 -406
-223 -625 -264 -138 -26 -477 -26 -615 0 -327 61 -620 222 -863 476 -227 237
-365 507 -419 825 -27 160 -22 487 11 633 44 197 119 375 229 539 l54 83 40
-78 c65 -128 98 -174 114 -161 8 6 14 19 14 28 0 40 69 111 108 111 10 0 52
-102 52 -125 0 -7 -26 -22 -58 -34 -131 -47 -245 -148 -307 -271 -116 -231
-82 -425 101 -573 35 -29 64 -59 64 -68 0 -20 -67 -112 -145 -199 -84 -94
-115 -140 -115 -170 0 -49 6 -50 285 -50 l260 0 22 -33 c37 -55 44 -83 25 -99
-28 -24 -53 -29 -89 -17 -25 8 -33 16 -33 35 0 21 3 23 26 14 34 -13 44 -6 35
28 -12 45 -77 67 -116 38 -14 -10 -19 -25 -18 -56 4 -82 53 -120 159 -123 61
-2 67 0 90 26 28 33 32 89 9 144 -8 19 -15 37 -15 39 0 2 78 4 173 4 l174 0 6
-102 c10 -155 44 -259 90 -278 12 -5 42 -15 67 -22 l45 -13 5 -75 5 -74 76
-12 c104 -16 154 -45 188 -111 20 -38 13 -52 -26 -58 -80 -14 -146 -37 -169
-60 -31 -31 -31 -81 -1 -126 21 -31 27 -34 74 -34 72 1 182 57 203 103 l15 33
75 -5 c246 -19 272 -19 320 6 36 19 57 41 106 118 34 52 90 135 125 184 61 86
65 90 153 132 114 55 137 58 150 22 14 -40 -6 -78 -42 -78 -15 0 -37 7 -48 15
-37 25 -49 -18 -14 -50 15 -14 30 -16 66 -12 94 10 127 89 80 188 -29 63 -26
99 9 99 36 0 55 -10 55 -29 0 -39 42 -54 60 -21 25 47 -29 90 -114 90 -64 0
-86 -21 -86 -81 0 -48 -1 -51 -37 -67 -61 -27 -493 -18 -670 14 l-33 6 0 79 0
79 28 0 c65 0 412 -54 402 -64 -5 -5 -40 -17 -77 -26 -78 -19 -92 -40 -44 -64
16 -9 38 -16 48 -16 26 0 133 53 170 84 31 26 32 29 19 54 -34 65 -110 112
-195 119 -44 4 -60 2 -70 -10 -18 -23 -7 -34 47 -46 26 -5 58 -14 72 -20 57
-23 -94 -10 -223 19 -74 16 -144 30 -156 30 -18 0 -21 6 -21 40 l0 40 454 0
454 0 12 -30 c16 -38 56 -60 109 -60 87 0 124 38 125 125 0 87 -38 125 -125
125 -53 0 -94 -22 -111 -60 l-13 -30 -452 0 c-249 0 -453 3 -453 8 0 4 42 7
93 8 97 1 160 16 252 62 80 39 110 67 191 173 l75 100 27 -21 c15 -11 42 -31
59 -43 18 -12 33 -27 33 -33 0 -11 -62 -44 -84 -44 -8 0 -20 -7 -27 -16 -12
-15 -8 -22 33 -59 44 -39 98 -62 119 -49 5 3 9 27 9 55 0 47 1 49 29 49 28 0
29 -3 40 -63 6 -35 11 -71 11 -80 0 -61 89 23 145 137 53 106 42 122 -52 79
-32 -15 -87 -11 -98 8 -8 11 31 49 75 72 l34 18 -54 50 c-30 27 -67 56 -83 64
-25 14 -28 14 -33 0 -4 -9 -4 -40 -2 -70 4 -49 3 -54 -16 -57 -23 -4 -106 56
-106 76 0 6 14 44 30 85 17 40 38 111 47 157 l16 84 54 0 c57 0 60 -4 40 -53
-22 -51 -40 -136 -33 -154 5 -13 13 -8 41 25 48 56 171 125 290 162 55 18 106
38 114 46 17 15 25 11 -95 49 -48 15 -112 45 -155 73 -104 68 -149 125 -174
221 -14 58 -31 62 -51 14 -32 -76 -6 -192 61 -272 l27 -31 -64 0 -63 0 -12 61
c-24 128 -121 277 -235 362 -21 15 -38 31 -38 35 0 4 22 31 49 61 48 54 48 55
80 41 43 -18 54 -42 52 -121 -1 -37 2 -70 6 -72 16 -10 87 22 120 55 39 37 59
71 64 107 4 23 0 25 -63 37 -142 27 -170 73 -83 140 36 27 44 27 144 8 8 -2
23 2 33 7 48 26 -6 125 -109 199 -100 71 -129 53 -118 -74 6 -77 5 -86 -14
-105 -14 -14 -34 -21 -60 -21 -33 0 -44 7 -80 45 -40 44 -41 45 -35 103 7 68
-2 80 -43 58 -58 -30 -153 -151 -139 -175 3 -5 25 -11 48 -14 48 -6 166 -64
181 -88 8 -13 -4 -33 -63 -98 l-74 -81 -149 0 -149 0 22 36 c28 45 25 141 -6
175 -43 49 -131 63 -194 31 -66 -32 -90 -130 -50 -205 l20 -37 -225 0 -225 0
20 33 c28 46 27 135 -2 172 -42 54 -132 71 -198 37 -65 -32 -91 -133 -50 -200
11 -18 20 -35 20 -38 0 -3 -69 -4 -152 -2 -133 3 -158 6 -188 24 -45 26 -80
78 -80 119 0 29 5 35 40 49 51 20 80 20 124 0 19 -9 41 -14 50 -11 13 5 14 12
2 50 -22 74 -78 188 -98 198 -28 15 -35 5 -42 -70 l-7 -69 -61 -17 c-59 -16
-62 -16 -75 1 -22 30 -15 69 17 102 32 34 39 69 16 78 -21 8 -140 -54 -176
-91 -36 -37 -34 -50 9 -58 41 -8 86 -49 78 -71 -13 -33 -119 -60 -143 -36 -5
5 -27 16 -48 23 l-39 13 60 70 c368 427 898 621 1475 539z m-598 -687 c37 -52
5 -118 -56 -118 -39 0 -51 7 -67 38 -13 25 -8 67 11 89 6 7 30 13 54 13 33 0
46 -5 58 -22z m660 0 c38 -53 5 -118 -59 -118 -64 0 -97 65 -59 118 12 17 25
22 59 22 34 0 47 -5 59 -22z m-754 -648 l0 -420 -27 -1 c-54 -1 -268 3 -293 5
l-25 3 0 134 0 134 82 3 82 3 25 -50 c30 -57 39 -66 55 -47 13 15 19 265 7
284 -11 18 -39 -8 -61 -54 l-16 -34 -84 0 -85 0 0 39 c0 31 7 45 38 74 20 20
52 47 71 59 19 13 34 28 33 33 -2 16 -99 26 -236 23 -142 -3 -160 -12 -101
-47 69 -41 115 -85 115 -111 0 -54 -10 -70 -46 -70 -49 0 -84 17 -130 62 -23
22 -44 36 -48 30 -3 -5 -7 -73 -8 -150 -3 -163 2 -176 54 -145 27 16 34 26 36
58 2 22 9 43 15 47 7 4 38 8 70 8 l57 0 0 -139 0 -138 -69 -17 c-80 -20 -93
-16 -191 49 -79 52 -149 125 -181 186 -34 67 -38 181 -9 262 42 118 105 201
194 259 106 68 196 84 509 87 l167 1 0 -420z m660 220 l0 -200 -91 0 -91 0 27
32 c24 28 27 38 23 87 -4 45 -10 59 -37 83 -26 23 -41 28 -82 28 -55 0 -103
-20 -119 -49 -18 -35 -12 -125 10 -154 11 -14 20 -27 20 -29 0 -1 -56 -2 -125
0 l-125 3 0 200 0 199 295 0 295 0 0 -200z m484 174 c121 -68 217 -201 232
-321 l7 -53 -122 0 c-120 0 -121 0 -101 20 44 44 39 139 -10 183 -51 46 -161
36 -196 -19 -26 -38 -24 -116 4 -153 l22 -30 -28 -3 c-15 -2 -71 -2 -124 0
l-98 3 0 200 0 199 184 0 c179 0 185 -1 230 -26z m-700 -230 c36 -35 9 -94
-43 -94 -35 0 -51 17 -51 55 0 17 5 36 12 43 17 17 64 15 82 -4z m660 0 c36
-35 9 -94 -43 -94 -36 0 -51 17 -51 57 0 49 59 72 94 37z m-734 -308 c0 -75
-2 -85 -20 -91 -10 -3 -31 -20 -45 -36 -30 -36 -35 -112 -10 -159 19 -37 75
-55 138 -46 62 9 89 41 94 108 5 63 -10 95 -54 123 -32 20 -32 21 -33 103 l0
82 110 0 110 0 0 -305 c0 -220 -3 -305 -11 -305 -16 0 -175 69 -294 127 -55
27 -142 62 -192 79 l-93 29 0 188 0 187 150 0 150 0 0 -84z m650 -1 c0 -82 -1
-85 -28 -99 -15 -8 -34 -27 -42 -42 -17 -31 -17 -111 -1 -143 19 -35 68 -54
128 -49 74 6 105 37 110 110 5 63 -10 95 -54 123 -32 20 -32 21 -33 103 l0 82
141 0 141 0 -6 -37 c-26 -146 -118 -317 -246 -456 -123 -133 -239 -182 -367
-153 l-33 8 0 319 0 319 145 0 145 0 0 -85z m-570 -176 c7 -11 9 -32 6 -45
-10 -40 -75 -53 -98 -20 -12 17 -9 61 4 74 20 20 76 15 88 -9z m660 0 c17 -30
8 -62 -21 -78 -24 -13 -29 -13 -53 2 -28 19 -36 63 -14 85 20 20 76 15 88 -9z
m-1110 -334 l0 -155 -204 0 -203 0 -47 59 c-25 33 -46 67 -46 75 0 20 46 39
76 32 14 -4 24 -16 27 -36 4 -16 16 -39 28 -51 20 -20 21 -20 41 -2 46 41 65
136 33 163 -18 15 -122 5 -178 -17 -75 -30 -97 -99 -57 -178 11 -22 20 -41 20
-42 0 -2 -79 -3 -175 -3 l-175 0 6 28 c18 74 75 158 137 201 95 65 175 78 480
80 l237 1 0 -155z m170 95 c30 -11 112 -49 183 -82 122 -59 127 -62 127 -92 0
-76 -1 -76 -120 -76 l-108 0 -36 40 c-50 56 -37 81 37 72 31 -3 37 -8 37 -28
0 -37 18 -38 40 -2 29 47 11 60 -90 66 -68 4 -84 2 -100 -13 -25 -22 -25 -39
0 -92 l19 -43 -44 0 -45 0 0 145 0 145 23 -9 c12 -5 47 -19 77 -31z m449 -211
c61 -18 53 -39 -14 -39 -55 0 -55 0 -55 31 0 23 4 30 14 26 8 -3 32 -11 55
-18z m1179 -31 c17 -17 15 -73 -2 -87 -24 -20 -69 -9 -85 20 -13 24 -13 29 2
53 19 28 63 36 85 14z m-1545 -98 c31 -24 47 -101 27 -125 -19 -23 -77 -19
-90 5 -19 36 14 56 40 25 18 -22 30 -9 30 34 0 70 -48 78 -115 20 -40 -36 -44
-64 -15 -102 27 -34 104 -71 134 -63 35 9 77 46 92 83 13 29 12 39 -4 88 l-19
55 64 0 c59 0 63 -1 63 -23 0 -33 -28 -125 -55 -177 -40 -79 -114 -130 -187
-130 -51 0 -114 28 -129 58 -13 28 -26 231 -15 257 9 25 146 21 179 -5z m407
-23 c0 -39 -3 -45 -34 -60 -41 -19 -81 -70 -93 -117 -8 -29 -14 -35 -40 -38
l-31 -3 28 73 c15 40 34 99 41 131 l12 57 59 0 58 0 0 -43z m0 -172 c0 -79 -7
-89 -45 -61 -27 19 -23 95 6 119 12 9 25 17 30 17 5 0 9 -34 9 -75z m-67 -112
l67 -6 0 -68 c0 -58 -3 -69 -20 -74 -10 -3 -31 -20 -46 -38 -23 -27 -26 -38
-22 -89 5 -67 24 -93 79 -109 51 -16 106 -3 141 31 52 52 33 173 -32 202 -28
12 -30 17 -30 65 0 42 3 53 16 53 27 0 133 -61 158 -91 32 -38 61 -147 51
-196 -20 -109 -196 -174 -340 -125 l-50 17 -7 59 c-15 121 -52 155 -193 178
l-80 13 -3 44 c-5 73 2 85 65 114 62 28 115 33 246 20z m577 -117 c-15 -23
-44 -73 -64 -113 -21 -39 -46 -79 -55 -87 -17 -16 -18 -13 -17 56 1 89 -25
145 -84 186 -22 15 -39 29 -40 32 0 3 65 -4 143 -14 l144 -20 -27 -40z m-431
-110 c20 -24 9 -69 -20 -85 -24 -13 -29 -13 -53 2 -28 19 -36 63 -14 85 17 17
73 15 87 -2z m-249 -280 c0 -17 -54 -64 -88 -77 -30 -11 -62 -3 -62 16 0 15
37 38 99 60 47 18 51 18 51 1z"/>
<path d="M636 3484 c-28 -42 -24 -54 25 -75 28 -11 31 -15 25 -48 -3 -19 -14
-44 -25 -55 -20 -19 -20 -19 -65 18 -25 20 -50 35 -54 32 -5 -3 -23 -28 -40
-56 -35 -56 -36 -53 43 -70 59 -13 107 -47 141 -102 l26 -41 36 37 37 36 -47
41 c-27 22 -48 44 -48 49 0 4 13 22 29 39 35 38 69 40 101 6 31 -33 44 -32 75
10 35 45 30 65 -20 80 -62 18 -123 53 -170 96 l-43 40 -26 -37z"/>
<path d="M3949 3212 c-19 -20 -61 -50 -92 -67 -49 -26 -59 -28 -77 -17 -25 15
-40 8 -40 -19 0 -20 76 -218 89 -230 3 -4 25 2 49 12 48 21 55 51 14 57 -12 2
-22 5 -22 6 0 2 -11 29 -25 60 l-25 56 30 15 c27 14 30 14 40 -4 5 -11 10 -31
10 -46 0 -33 19 -40 64 -21 45 19 46 38 1 65 -19 11 -35 24 -35 29 0 4 16 16
35 25 l35 17 29 -45 c25 -39 28 -51 20 -83 -9 -43 2 -62 28 -46 37 23 38 40 8
115 -31 76 -79 160 -92 158 -5 0 -24 -17 -44 -37z"/>
<path d="M618 1573 c-18 -37 -34 -53 -68 -70 -24 -13 -55 -23 -68 -23 -20 0
-22 3 -16 23 4 12 8 33 8 47 1 23 -2 25 -48 24 -51 0 -76 -19 -76 -55 0 -9 26
-68 58 -131 55 -109 58 -113 87 -110 17 2 49 12 73 22 52 23 56 52 12 75 -43
22 -37 41 21 70 43 23 55 25 82 16 17 -6 34 -8 39 -3 10 10 -27 119 -49 144
-24 26 -30 23 -55 -29z"/>
<path d="M3718 1389 c-23 -13 -79 -95 -71 -103 3 -3 12 -1 20 6 11 9 22 3 53
-27 50 -49 42 -64 -13 -26 l-42 29 -37 -19 c-44 -23 -68 -54 -68 -91 0 -38 20
-47 39 -17 9 13 24 31 33 41 17 17 20 17 53 1 28 -13 38 -26 46 -57 6 -23 17
-51 25 -64 13 -19 20 -22 52 -16 20 4 45 11 55 16 21 11 127 169 121 180 -3 4
-16 3 -29 -2 -32 -12 -85 7 -158 55 -50 33 -55 40 -51 65 7 32 -4 43 -28 29z
m131 -228 c35 -28 35 -28 12 -40 -47 -26 -86 6 -67 55 8 20 16 17 55 -15z"/>
<path d="M2167 494 c-4 -4 4 -19 16 -33 20 -24 22 -36 19 -114 -3 -77 -6 -87
-22 -87 -25 0 -35 -17 -19 -36 9 -11 30 -14 83 -12 59 3 71 6 74 21 3 12 -4
20 -17 24 -20 5 -22 11 -19 96 l3 91 31 7 c92 18 54 49 -61 49 -45 0 -85 -3
-88 -6z"/>
</g>
</svg>
