<?xml version="1.0" standalone="no"?>
<!DOCTYPE svg PUBLIC "-//W3C//DTD SVG 20010904//EN"
 "http://www.w3.org/TR/2001/REC-SVG-20010904/DTD/svg10.dtd">
<svg version="1.0" xmlns="http://www.w3.org/2000/svg"
 width="439.708784pt" height="439.488063pt" viewBox="0 0 439.708784 439.488063"
 preserveAspectRatio="xMidYMid meet">
<metadata>
Created by potrace 1.16, written by Peter Selinger 2001-2019
</metadata>
<g transform="translate(-5.065565,444.623161) scale(0.100000,-0.100000)"
fill="#000000" stroke="none">
<path d="M2070 4444 c-557 -51 -985 -250 -1376 -639 -383 -382 -587 -818 -635
-1355 -37 -424 51 -882 238 -1230 228 -425 638 -808 1062 -991 607 -261 1371
-232 1933 74 398 218 755 592 950 996 212 442 264 1007 138 1512 -92 372 -287
707 -581 999 -352 350 -770 558 -1249 620 -90 12 -404 21 -480 14z m498 -89
c445 -62 820 -249 1161 -580 358 -348 559 -736 627 -1212 21 -144 23 -456 5
-593 -64 -478 -260 -876 -603 -1220 -287 -288 -606 -472 -977 -565 -179 -45
-300 -58 -531 -58 -237 0 -352 13 -550 63 -427 107 -826 371 -1125 745 -188
234 -330 522 -395 800 -74 318 -74 716 0 1028 139 580 556 1104 1105 1388 375
194 829 266 1283 204z"/>
<path d="M2030 4329 c-128 -13 -319 -52 -438 -90 -659 -211 -1217 -812 -1373
-1477 -72 -311 -76 -676 -9 -985 78 -357 257 -686 525 -966 255 -265 528 -441
847 -545 242 -79 435 -106 718 -101 316 6 600 71 863 199 402 195 775 567 971
969 196 403 254 889 161 1354 -76 378 -247 702 -525 996 -331 350 -731 561
-1195 632 -125 19 -419 27 -545 14z m519 -44 c448 -66 822 -255 1151 -585 363
-362 562 -789 597 -1280 13 -173 -2 -435 -32 -585 -84 -416 -281 -769 -601
-1075 -306 -292 -637 -459 -1059 -536 -139 -25 -479 -30 -635 -10 -472 62
-866 264 -1210 622 -305 317 -480 672 -545 1109 -19 128 -21 437 -5 573 58
470 257 863 611 1207 326 317 677 491 1124 559 128 20 470 20 604 1z"/>
<path d="M2255 4259 c-84 -10 -123 -12 -150 -7 -33 5 -33 -39 -1 -52 26 -9 26
-11 26 -120 l0 -110 -30 -7 c-37 -7 -46 -19 -29 -40 11 -12 26 -14 84 -8 69 7
100 19 89 36 -3 5 -14 9 -25 9 -16 0 -19 7 -19 50 0 47 2 50 25 50 15 0 25 -6
25 -14 0 -19 29 -41 39 -30 5 5 11 40 13 78 4 79 -8 92 -45 52 -37 -39 -57
-34 -57 14 l0 40 58 0 58 0 22 -46 c13 -25 28 -44 35 -41 14 4 23 126 10 137
-15 14 -58 17 -128 9z"/>
<path d="M2065 3889 c-194 -20 -368 -70 -540 -154 -471 -229 -813 -682 -900
-1190 -47 -274 -21 -604 67 -854 41 -117 127 -282 201 -388 79 -113 297 -331
410 -410 428 -301 994 -375 1507 -198 219 76 414 201 595 380 270 267 417 552
477 925 16 98 15 403 -1 505 -56 357 -208 653 -472 915 -251 250 -527 394
-869 454 -110 20 -359 28 -475 15z m527 -58 c340 -74 640 -252 875 -519 186
-212 304 -446 365 -727 20 -87 22 -130 22 -335 0 -207 -2 -247 -22 -340 -33
-149 -64 -238 -132 -375 -78 -157 -170 -284 -300 -415 -321 -325 -693 -480
-1150 -480 -461 0 -847 162 -1160 486 -252 262 -391 543 -441 892 -16 114 -6
461 16 562 67 307 192 545 406 774 250 267 559 433 918 491 131 22 476 13 603
-14z"/>
<path d="M2125 3494 c-5 -1 -83 -4 -173 -7 -182 -5 -209 -13 -157 -51 79 -56
130 -133 110 -166 -3 -5 -21 -10 -38 -10 -27 0 -37 8 -70 56 -66 95 -85 64
-86 -138 -1 -67 3 -109 10 -114 6 -3 37 19 69 51 48 48 65 58 94 59 l36 1 0
-132 0 -132 -51 34 c-60 41 -105 55 -180 55 -116 0 -206 -48 -252 -134 -21
-39 -22 -56 -25 -308 l-3 -268 -60 0 c-56 0 -59 1 -55 23 8 34 -16 90 -44 104
-14 7 -42 13 -62 13 l-38 0 0 284 0 285 55 -2 c47 -2 58 2 81 25 23 23 25 29
14 42 -7 9 -19 16 -27 16 -55 0 -116 89 -128 185 -10 76 -12 81 -34 61 -12
-11 -19 -32 -19 -62 -2 -99 -57 -189 -119 -196 -22 -2 -27 -8 -25 -23 8 -42
33 -58 85 -52 l47 6 0 -284 0 -285 -45 0 c-35 0 -52 -6 -70 -24 -30 -30 -41
-87 -25 -125 9 -23 9 -37 -1 -64 -28 -79 16 -147 97 -147 l44 0 0 -285 0 -284
-29 -15 c-16 -9 -40 -29 -55 -46 -52 -62 -27 -195 42 -221 40 -15 126 -13 160
5 68 35 84 167 26 227 -15 16 -39 32 -51 35 l-23 6 0 289 0 289 43 0 c23 0 52
7 64 15 25 17 47 83 37 109 -5 14 3 16 54 16 l61 0 3 -322 c3 -292 5 -326 22
-358 47 -90 116 -131 226 -138 92 -5 143 8 209 53 l51 35 0 -93 0 -93 -35 -17
c-54 -26 -77 -70 -72 -140 4 -73 29 -107 88 -125 60 -17 124 -6 162 28 28 25
32 35 35 97 4 67 3 72 -27 105 -17 20 -42 39 -56 42 -23 6 -25 11 -25 67 0 33
3 59 8 57 4 -1 32 -15 62 -30 74 -36 165 -50 252 -38 64 9 152 42 164 61 3 5
11 9 17 9 8 0 11 -18 9 -60 -3 -55 -6 -60 -37 -79 -51 -30 -69 -65 -68 -128 2
-90 46 -134 136 -137 99 -2 145 36 153 127 7 66 -17 114 -68 142 l-38 20 0 92
0 93 48 -34 c68 -48 111 -59 207 -54 94 6 146 28 193 82 56 64 62 106 62 438
l0 298 61 0 c56 0 60 -1 54 -20 -9 -28 12 -87 38 -105 12 -8 41 -15 64 -15
l43 0 0 -287 0 -288 -32 -15 c-51 -24 -73 -63 -73 -129 0 -101 41 -142 140
-142 104 0 150 49 143 152 -5 63 -26 97 -80 125 l-28 15 0 284 0 285 46 0 c37
0 51 5 76 30 27 28 29 34 24 78 -4 26 -7 58 -7 72 0 14 3 46 7 72 5 44 3 50
-24 78 -25 25 -39 30 -76 30 l-46 0 0 289 0 290 49 -1 c55 -2 95 19 106 53 10
30 -16 52 -62 53 -41 2 -41 3 -107 170 -13 33 -18 37 -31 26 -8 -7 -15 -23
-15 -37 0 -32 -26 -93 -52 -120 -15 -16 -28 -21 -45 -17 -12 4 -29 4 -37 1
-20 -8 -1 -79 31 -113 20 -22 29 -25 58 -20 l35 7 0 -291 0 -290 -34 0 c-56 0
-86 -16 -102 -56 -9 -20 -13 -47 -10 -60 6 -23 4 -24 -54 -24 l-60 0 0 243 c0
287 -8 327 -74 393 -49 49 -119 74 -212 74 -74 0 -132 -19 -185 -61 l-39 -31
0 131 c0 146 -3 141 73 120 30 -8 41 -18 58 -54 11 -23 29 -51 40 -61 17 -16
21 -16 35 -3 27 28 39 130 26 226 -6 48 -16 91 -21 96 -17 17 -41 -1 -60 -46
-19 -43 -20 -44 -76 -51 -31 -3 -61 -4 -66 -1 -5 4 -8 20 -7 36 2 25 15 40 69
80 82 60 96 76 81 91 -31 31 -327 34 -369 3 -17 -13 -12 -19 60 -85 55 -51 77
-79 77 -96 0 -21 -4 -24 -38 -24 -34 0 -42 5 -70 46 -21 29 -39 44 -50 42 -41
-8 -57 -228 -19 -265 18 -17 20 -16 62 30 36 39 49 47 79 47 l36 0 0 -95 c0
-52 -3 -95 -6 -95 -3 0 -19 9 -34 20 -115 82 -325 74 -448 -16 l-23 -17 3 104
3 104 35 -3 c56 -5 66 -10 95 -52 30 -43 51 -55 70 -40 15 12 21 255 7 264 -5
3 -33 -12 -63 -33 -57 -41 -105 -57 -127 -42 -23 14 10 72 77 132 56 51 73 81
54 92 -5 2 -12 3 -18 1z m250 -525 c57 -14 115 -64 123 -106 4 -18 6 -73 4
-123 l-3 -90 -255 0 -254 0 0 88 c0 48 5 103 10 123 12 44 53 84 105 103 48
18 208 21 270 5z m-590 -50 c51 -14 110 -73 124 -124 6 -22 11 -64 11 -92 l0
-53 -220 0 -220 0 0 63 c0 107 49 180 138 207 40 12 121 11 167 -1z m1100 0
c51 -14 110 -73 124 -124 6 -22 11 -64 11 -92 l0 -53 -220 0 -220 0 0 53 c0
144 77 225 215 227 28 0 68 -5 90 -11z m-965 -724 l0 -385 -220 0 -220 0 0
385 0 385 220 0 220 0 0 -385z m580 0 l0 -385 -255 0 -255 0 0 385 0 385 255
0 255 0 0 -385z m520 0 l0 -385 -220 0 -220 0 0 385 0 385 220 0 220 0 0 -385z
m-1952 153 c7 -7 12 -22 12 -35 0 -20 -5 -23 -34 -23 -26 0 -36 5 -41 20 -12
39 35 66 63 38z m147 -23 c0 -27 -4 -30 -32 -33 -29 -3 -33 0 -33 20 0 30 19
50 45 46 15 -2 20 -11 20 -33z m2123 23 c7 -7 12 -23 12 -36 0 -20 -4 -23 -32
-20 -33 3 -46 23 -34 54 7 17 38 18 54 2z m152 -7 c16 -31 2 -51 -36 -51 -29
0 -34 4 -34 23 0 45 50 65 70 28z m-2410 -155 c0 -44 -50 -61 -73 -24 -15 23
8 48 44 48 24 0 29 -4 29 -24z m135 -11 c0 -24 -5 -31 -24 -33 -27 -4 -41 12
-41 46 0 20 4 23 33 20 28 -3 32 -6 32 -33z m2135 13 c0 -34 -15 -50 -41 -46
-47 6 -37 68 11 68 25 0 30 -4 30 -22z m139 8 c9 -11 10 -20 1 -35 -20 -39
-70 -20 -70 26 0 19 5 23 29 23 16 0 34 -6 40 -14z m-1569 -510 c0 -113 -48
-186 -139 -213 -62 -17 -154 -13 -199 11 -66 34 -102 104 -102 196 l0 60 220
0 220 0 0 -54z m580 -61 c0 -113 0 -115 -30 -149 -43 -48 -103 -66 -221 -66
-148 0 -226 38 -249 119 -11 40 -14 194 -3 204 3 4 118 7 255 7 l248 0 0 -115z
m520 63 c0 -115 -45 -187 -133 -213 -64 -19 -110 -19 -174 0 -88 26 -133 98
-133 213 l0 52 220 0 220 0 0 -52z m-1842 -302 c27 -55 -6 -106 -68 -106 -29
0 -43 6 -54 22 -19 26 -20 61 -5 89 24 46 105 43 127 -5z m2264 17 c22 -20 24
-71 2 -101 -11 -16 -25 -22 -52 -22 -43 0 -55 6 -71 38 -13 25 -8 67 11 89 15
19 88 16 110 -4z m-1428 -205 c36 -52 8 -118 -50 -118 -48 0 -71 14 -79 49 -6
30 7 69 29 83 6 4 28 8 48 8 27 0 41 -6 52 -22z m580 6 c16 -16 18 -20 19 -51
2 -52 -33 -82 -88 -74 -48 6 -71 74 -39 119 18 27 84 31 108 6z"/>
<path d="M2190 2937 c-90 -31 -94 -196 -6 -232 20 -8 49 -15 66 -15 41 0 96
24 108 47 33 60 20 159 -23 187 -34 22 -103 29 -145 13z m97 -75 c24 -15 26
-59 4 -81 -23 -23 -43 -26 -72 -11 -22 12 -27 68 -7 88 13 13 57 16 75 4z"/>
<path d="M1715 2513 c-64 -4 -85 -15 -85 -44 0 -31 34 -40 142 -37 l103 3 3
27 c4 33 -30 59 -73 56 -16 -1 -57 -3 -90 -5z"/>
<path d="M1523 2343 c-4 -10 -7 -67 -8 -128 0 -96 2 -110 17 -113 13 -2 24 10
40 44 l23 46 80 -6 c44 -3 95 -6 112 -6 26 0 36 -6 48 -31 12 -22 22 -29 38
-27 21 3 22 8 25 112 3 137 -4 147 -62 83 -24 -26 -49 -47 -56 -47 -7 0 -53 5
-102 12 -87 12 -90 12 -103 45 -15 36 -41 44 -52 16z"/>
<path d="M1610 2081 c-28 -8 -37 -39 -21 -70 10 -18 18 -20 99 -15 157 10 147
7 147 40 0 27 -3 29 -50 35 -99 13 -150 16 -175 10z"/>
<path d="M2186 2511 c-63 -13 -59 -67 5 -84 38 -10 208 8 224 24 14 14 -26 49
-71 59 -43 11 -114 11 -158 1z"/>
<path d="M2025 2356 c-14 -21 -17 -45 -13 -133 2 -60 7 -113 11 -120 13 -20
47 -1 67 37 21 41 21 41 151 55 63 7 137 -13 154 -41 6 -9 17 -26 27 -38 16
-20 16 -21 37 -2 15 14 21 31 21 61 0 23 -3 45 -7 49 -5 4 -8 35 -8 69 0 50
-3 62 -17 65 -11 2 -24 -10 -37 -36 l-20 -39 -126 -7 c-142 -8 -151 -5 -184
63 -21 44 -36 49 -56 17z"/>
<path d="M2190 2061 l-55 -6 0 -35 c0 -34 2 -35 50 -46 63 -15 166 -17 200 -4
22 8 26 15 23 42 -5 55 -56 66 -218 49z"/>
<path d="M2708 2474 c-14 -14 -8 -43 11 -54 11 -5 63 -10 115 -10 83 0 97 2
105 19 18 32 -11 44 -122 49 -56 2 -105 1 -109 -4z"/>
<path d="M2624 2355 c-14 -22 -16 -42 -10 -133 4 -59 12 -111 17 -117 10 -10
28 7 54 49 8 13 28 16 105 17 52 0 103 -3 113 -6 10 -4 24 -23 32 -41 15 -37
35 -43 55 -19 16 20 8 218 -10 240 -19 23 -26 19 -54 -29 -14 -24 -36 -46 -48
-50 -75 -20 -164 13 -205 75 -14 22 -27 39 -29 39 -2 0 -11 -11 -20 -25z"/>
<path d="M2658 2034 c-13 -12 -9 -51 6 -63 18 -15 121 -23 180 -14 59 10 80
33 53 60 -14 14 -39 18 -125 21 -59 2 -110 0 -114 -4z"/>
<path d="M2182 1685 c-53 -23 -76 -101 -51 -173 18 -53 89 -81 159 -62 73 20
106 92 78 175 -22 66 -107 94 -186 60z m108 -75 c23 -23 24 -30 9 -64 -14 -31
-47 -40 -76 -20 -46 30 -25 104 29 104 10 0 27 -9 38 -20z"/>
<path d="M715 3578 c-43 -49 -46 -56 -42 -97 3 -28 13 -52 28 -67 25 -24 38
-23 187 11 17 4 22 1 22 -14 0 -25 -10 -31 -68 -39 -44 -7 -47 -9 -50 -38 -4
-38 31 -81 67 -86 20 -2 29 5 45 36 12 21 38 50 59 64 46 31 55 60 30 109 -25
53 -78 71 -143 48 -76 -27 -120 -38 -127 -31 -4 3 2 19 14 34 15 20 30 28 59
30 47 4 58 13 49 42 -6 17 -57 50 -79 50 -2 0 -25 -24 -51 -52z"/>
<path d="M3551 3607 c-42 -21 -64 -62 -69 -128 -4 -56 -2 -63 24 -91 33 -34
81 -58 118 -58 83 0 166 77 166 154 0 53 -31 103 -75 122 -42 17 -131 18 -164
1z m159 -116 c0 -27 -39 -72 -77 -88 -39 -16 -48 -13 -69 29 -15 29 -15 32 3
57 11 14 37 36 59 48 l39 23 23 -26 c12 -14 22 -33 22 -43z"/>
<path d="M267 2154 c-12 -13 -8 -69 8 -90 15 -19 15 -19 32 3 23 29 68 38 124
23 70 -18 99 -31 99 -47 0 -25 -49 -60 -108 -77 -84 -23 -106 -21 -121 11
l-13 28 -20 -25 c-16 -19 -18 -33 -13 -64 9 -62 32 -80 64 -53 9 8 44 21 78
30 157 42 206 83 183 151 -22 66 -36 74 -155 90 -60 8 -119 17 -130 21 -11 3
-24 3 -28 -1z"/>
<path d="M3961 2056 c-7 -8 -16 -37 -20 -66 -9 -58 -2 -67 48 -57 38 8 73 -2
69 -20 -2 -9 -28 -23 -58 -32 -105 -33 -117 -51 -86 -125 27 -64 60 -60 43 5
-8 33 -7 43 4 50 23 15 68 10 118 -12 29 -12 64 -19 87 -17 33 3 41 8 56 38
27 56 32 111 14 154 -13 32 -19 36 -30 26 -11 -8 -41 -10 -107 -4 l-91 7 -14
33 c-16 39 -17 39 -33 20z m215 -169 c-12 -59 -56 -65 -56 -9 0 47 3 51 36 44
23 -4 25 -8 20 -35z"/>
<path d="M1217 848 c-9 -7 -17 -26 -19 -43 -3 -28 -1 -30 32 -28 50 2 92 -6
112 -20 14 -11 15 -20 6 -55 -8 -31 -16 -42 -29 -42 -13 0 -19 7 -19 24 0 13
-6 29 -14 35 -12 10 -21 3 -50 -35 -20 -26 -35 -52 -33 -58 2 -6 20 -10 40 -9
35 2 35 2 26 -30 -5 -17 -9 -33 -9 -34 0 -2 -10 -3 -22 -3 -38 0 -76 40 -85
89 -5 25 -14 46 -20 48 -16 6 -39 -34 -47 -78 l-6 -36 116 -67 c64 -36 123
-66 131 -66 22 0 33 42 16 62 -14 15 -13 22 6 60 12 24 34 58 49 76 26 31 29
32 60 21 28 -10 36 -9 50 4 24 25 2 62 -55 91 -26 13 -67 42 -90 65 -36 35
-47 41 -85 41 -24 0 -52 -6 -61 -12z"/>
<path d="M3150 820 c-74 -46 -82 -67 -31 -91 23 -11 39 -29 53 -63 12 -25 18
-49 14 -53 -8 -8 -110 40 -168 79 -31 20 -45 24 -55 16 -20 -17 -15 -64 11
-103 16 -23 27 -57 31 -98 6 -54 4 -68 -15 -100 -17 -28 -20 -41 -12 -49 13
-13 35 -3 82 32 24 18 24 20 12 77 -17 85 -16 107 6 98 58 -25 123 -37 165
-31 80 12 118 66 46 66 -27 0 -33 6 -61 66 l-31 66 22 51 c17 42 19 54 8 64
-10 10 -25 5 -77 -27z"/>
</g>
</svg>
