<?xml version="1.0" standalone="no"?>
<!DOCTYPE svg PUBLIC "-//W3C//DTD SVG 20010904//EN"
 "http://www.w3.org/TR/2001/REC-SVG-20010904/DTD/svg10.dtd">
<svg version="1.0" xmlns="http://www.w3.org/2000/svg"
 width="439.894127pt" height="439.690637pt" viewBox="0 0 439.894127 439.690637"
 preserveAspectRatio="xMidYMid meet">
<metadata>
Created by potrace 1.16, written by Peter Selinger 2001-2019
</metadata>
<g transform="translate(-4.978307,444.860036) scale(0.100000,-0.100000)"
fill="#000000" stroke="none">
<path d="M1995 4435 c-312 -35 -594 -125 -845 -272 -207 -121 -435 -315 -592
-502 -289 -346 -443 -706 -493 -1156 -67 -596 91 -1163 448 -1613 452 -569
1093 -865 1817 -839 269 10 509 57 730 144 159 63 246 108 385 201 271 180
484 395 666 669 402 608 450 1484 119 2151 -217 436 -576 795 -1012 1012 -361
179 -794 252 -1223 205z m580 -82 c367 -52 691 -192 992 -430 43 -34 135 -119
204 -190 333 -339 520 -714 585 -1170 18 -128 24 -418 11 -543 -60 -561 -319
-1039 -770 -1419 -223 -188 -512 -337 -792 -410 -372 -97 -816 -89 -1190 21
-587 173 -1142 693 -1358 1273 -93 248 -130 463 -131 750 -2 376 55 634 204
940 110 226 233 396 420 583 380 378 815 575 1365 616 91 7 348 -5 460 -21z"/>
<path d="M2085 4333 c-521 -37 -974 -253 -1350 -645 -437 -454 -632 -1042
-560 -1685 52 -465 234 -852 560 -1192 339 -353 714 -552 1186 -628 147 -24
503 -24 654 0 287 46 539 137 761 276 154 97 238 165 385 311 396 393 590 832
615 1395 15 329 -58 701 -191 978 -201 418 -559 781 -971 986 -315 157 -711
231 -1089 204z m425 -43 c477 -59 898 -275 1235 -632 315 -334 495 -717 546
-1162 13 -116 12 -379 -2 -504 -33 -298 -142 -605 -303 -851 -122 -185 -332
-409 -512 -544 -286 -215 -621 -347 -976 -386 -122 -14 -375 -14 -493 -1 -482
54 -894 261 -1245 626 -343 355 -535 792 -558 1269 -31 631 149 1136 558 1559
341 354 733 559 1185 620 122 17 449 20 565 6z"/>
<path d="M2074 4265 c-3 -8 4 -26 15 -41 13 -16 21 -41 21 -64 0 -61 -21 -153
-38 -166 -8 -6 -13 -18 -10 -26 5 -11 21 -13 69 -11 91 6 96 9 65 38 -21 19
-26 33 -26 70 0 52 24 63 40 19 7 -16 16 -24 28 -22 13 2 18 15 20 52 4 56
-12 81 -32 54 -22 -29 -44 -22 -52 16 -8 46 0 56 46 56 32 0 43 -6 68 -37 36
-45 55 -36 50 23 -4 48 -16 52 -156 53 -82 1 -104 -2 -108 -14z"/>
<path d="M2065 3890 c-404 -46 -730 -209 -1014 -505 -224 -235 -368 -515 -422
-824 -24 -132 -32 -370 -18 -501 40 -386 207 -723 496 -1000 226 -218 480
-357 764 -419 328 -71 684 -46 981 68 371 143 712 459 888 825 195 406 210
917 39 1345 -139 348 -450 680 -802 856 -112 57 -274 109 -418 135 -131 24
-373 33 -494 20z m526 -59 c212 -46 416 -135 589 -258 121 -87 306 -272 393
-393 77 -108 174 -298 211 -414 59 -181 70 -262 70 -516 0 -205 -2 -248 -22
-336 -32 -149 -66 -245 -132 -379 -79 -160 -171 -286 -310 -425 -235 -235
-494 -376 -810 -441 -124 -26 -401 -36 -537 -20 -375 45 -694 207 -966 491
-227 237 -365 507 -418 821 -18 108 -20 151 -16 334 7 296 40 433 162 680 227
459 674 788 1181 870 134 22 477 14 605 -14z"/>
<path d="M3144 3390 c-36 -14 -93 -91 -143 -190 -41 -81 -63 -150 -87 -267 -4
-22 -8 -23 -135 -23 l-131 0 4 130 c4 127 4 130 33 161 17 17 53 42 82 55 l52
23 -12 43 -13 43 -599 0 -600 0 -3 -32 c-3 -30 2 -36 52 -68 99 -63 125 -120
126 -272 l0 -83 -123 0 -123 0 -11 113 c-13 127 -44 219 -94 277 -28 33 -33
35 -85 33 -118 -4 -168 -58 -162 -175 5 -86 28 -122 83 -126 49 -4 88 13 125
55 25 28 30 42 30 86 l1 52 16 -29 c11 -21 17 -68 21 -158 l5 -128 -181 0
c-110 0 -190 4 -205 11 -13 6 -32 27 -41 46 -11 23 -22 33 -34 31 -15 -3 -17
-19 -20 -121 -2 -103 -1 -118 15 -124 11 -4 20 0 27 12 6 11 23 32 38 47 l26
28 186 0 186 0 0 -37 c0 -145 -46 -568 -82 -753 -26 -135 -71 -276 -102 -319
l-25 -33 -38 58 c-33 49 -38 65 -39 116 0 32 -4 61 -7 64 -4 4 -26 -1 -50 -10
-76 -29 -159 -136 -98 -128 42 6 80 -19 131 -88 27 -37 50 -72 50 -77 0 -14
-61 -69 -100 -88 -54 -27 -157 -31 -200 -7 -35 19 -57 58 -26 46 8 -3 32 0 52
6 70 23 91 134 34 185 -26 23 -89 24 -124 2 -89 -59 -85 -167 11 -259 100 -97
214 -91 357 18 26 20 49 34 50 32 2 -1 11 -17 20 -35 13 -26 14 -40 4 -88 -16
-79 -4 -87 66 -45 82 50 143 106 130 119 -5 6 -37 15 -69 19 -57 7 -61 9 -82
48 l-23 41 39 84 c115 252 163 490 176 879 3 91 8 184 11 208 l5 42 125 0 124
0 0 -95 0 -95 -47 0 c-64 0 -96 18 -109 60 -9 27 -17 35 -35 35 -24 0 -24 0
-24 -125 0 -121 1 -125 22 -128 17 -3 25 5 37 32 18 43 42 56 105 56 l51 0 0
-58 c0 -66 -12 -89 -55 -100 -23 -7 -30 -14 -30 -33 l0 -24 125 0 c125 0 125
0 125 24 0 18 -8 26 -35 35 -41 13 -58 51 -52 115 l4 41 50 0 c62 0 86 -13
104 -56 12 -27 20 -35 37 -32 21 3 22 7 22 128 l0 125 -24 0 c-19 0 -27 -7
-33 -30 -10 -40 -54 -65 -112 -65 l-46 0 0 95 0 95 165 0 165 0 0 -570 0 -570
-130 0 -130 0 0 69 c0 95 11 118 66 142 76 34 53 44 -101 44 -147 0 -178 -11
-113 -38 59 -25 73 -50 77 -138 l3 -79 -80 0 c-91 0 -126 18 -140 73 -5 18
-15 32 -23 32 -11 0 -14 -25 -14 -140 0 -112 3 -140 14 -140 7 0 18 16 25 35
16 50 62 71 146 68 l65 -3 3 -65 c3 -84 -18 -130 -68 -146 -19 -7 -35 -18 -35
-25 0 -11 28 -14 140 -14 115 0 140 3 140 14 0 8 -14 18 -32 23 -55 14 -73 49
-73 140 l0 79 128 -3 127 -3 3 -192 2 -193 -192 -2 -193 -3 -5 -185 c-3 -102
-9 -193 -14 -203 -5 -11 -29 -28 -53 -38 -78 -33 -52 -44 108 -44 117 0 144 3
144 14 0 8 -15 19 -34 26 -65 22 -71 39 -71 211 l0 155 153 -3 152 -3 0 -106
c0 -119 -8 -138 -73 -165 -59 -24 -27 -34 113 -34 141 0 172 10 112 35 -65 27
-77 54 -77 171 l0 104 155 0 155 0 0 -145 c0 -170 -8 -194 -70 -219 -24 -9
-40 -22 -37 -29 6 -18 279 -17 285 1 2 7 -11 18 -30 26 -70 30 -72 38 -78 245
l-5 186 -187 3 -188 2 0 195 0 195 125 0 125 0 0 -84 c0 -97 -14 -123 -70
-135 -21 -4 -35 -13 -35 -21 0 -13 25 -15 145 -15 119 0 145 3 145 14 0 8 -14
18 -32 23 -55 14 -73 49 -73 139 l0 79 65 0 c91 0 128 -17 149 -70 11 -28 20
-40 27 -33 12 12 7 278 -5 278 -5 0 -14 -15 -21 -34 -19 -57 -46 -71 -136 -71
l-79 0 0 69 c0 95 11 118 66 142 77 34 53 44 -107 44 -117 0 -144 -3 -144 -14
0 -8 16 -19 34 -26 35 -11 68 -47 72 -75 1 -8 1 -43 0 -77 l-1 -63 -125 0
-125 0 0 570 0 570 165 0 165 0 0 -95 0 -95 -53 0 c-62 0 -91 17 -112 66 -10
25 -20 35 -32 32 -16 -3 -18 -17 -18 -128 0 -118 1 -125 20 -125 13 0 25 11
34 32 17 38 47 53 111 53 l50 0 0 -54 c0 -60 -25 -102 -63 -108 -16 -2 -22
-10 -22 -28 l0 -25 120 0 c116 0 120 1 123 22 3 17 -5 26 -32 37 -41 17 -56
47 -56 112 l0 44 54 0 c72 0 83 -5 107 -52 13 -26 26 -38 37 -36 15 3 17 19
17 128 0 112 -2 125 -18 125 -10 0 -25 -15 -35 -35 -21 -43 -53 -60 -114 -60
l-48 0 0 95 0 95 130 0 130 0 0 -92 c2 -322 40 -672 95 -863 14 -49 43 -125
64 -168 l38 -77 -26 -36 -26 -35 -72 5 c-40 3 -74 2 -77 -2 -15 -25 107 -177
166 -208 43 -22 50 -11 43 64 -7 71 5 122 28 122 7 0 38 -21 68 -47 30 -25 81
-64 113 -85 51 -33 67 -38 115 -38 63 0 142 32 178 71 69 75 70 210 2 275 -27
26 -38 29 -109 33 -78 3 -80 3 -90 -24 -12 -33 -13 -86 -1 -118 13 -34 61 -51
121 -43 45 6 50 5 50 -13 0 -61 -66 -113 -145 -113 -86 0 -225 120 -225 194 0
32 60 116 88 123 13 3 42 17 64 31 39 25 40 26 21 46 -34 39 -146 127 -155
122 -4 -3 -8 -32 -8 -65 0 -64 -16 -115 -45 -139 -15 -13 -19 -12 -30 4 -22
30 -73 200 -101 337 -40 203 -61 389 -63 572 l-2 167 208 0 c227 0 245 -4 273
-55 10 -17 25 -30 36 -30 18 0 19 8 19 120 0 113 -1 120 -20 120 -13 0 -25
-11 -34 -32 -8 -17 -25 -36 -38 -42 -15 -7 -101 -11 -228 -11 l-205 0 0 28 c0
39 35 174 56 214 l17 33 16 -25 c35 -55 68 -80 106 -80 51 0 74 15 96 63 26
59 24 90 -13 159 -46 87 -81 110 -134 88z m63 -115 c32 -23 47 -84 26 -107
-24 -27 -45 -22 -70 17 -47 72 -17 133 44 90z m-1897 -139 c-16 -17 -23 -18
-45 -8 -14 6 -30 23 -37 36 -14 32 10 72 55 91 l32 13 7 -56 c7 -49 5 -59 -12
-76z m788 82 c14 -13 33 -41 43 -63 16 -37 39 -165 39 -221 l0 -24 -166 0
-167 0 6 83 c11 147 49 226 121 251 47 16 87 7 124 -26z m383 15 c54 -32 99
-159 99 -280 l0 -43 -166 0 -167 0 6 83 c11 158 72 257 158 257 23 0 54 -8 70
-17z m-1550 -1514 c25 -48 -24 -99 -76 -79 -21 8 -25 16 -25 50 0 33 4 42 22
49 30 11 67 2 79 -20z m2632 -18 c19 -19 2 -55 -28 -63 -36 -9 -52 4 -61 51
l-7 34 44 -7 c24 -4 48 -11 52 -15z"/>
<path d="M504 3253 c-12 -2 -36 -20 -55 -39 -31 -32 -34 -40 -33 -90 1 -43 7
-61 25 -80 30 -33 68 -31 150 7 71 33 99 33 99 1 0 -26 -17 -39 -62 -47 -48
-9 -63 -27 -48 -54 13 -26 51 -36 78 -22 35 19 82 101 82 143 0 43 -27 78 -62
78 -12 0 -59 -12 -104 -27 -93 -30 -120 -27 -109 15 3 15 13 34 20 41 13 13
19 13 49 -2 34 -16 36 -16 51 6 23 33 18 47 -20 63 -19 7 -36 13 -37 13 -2 -1
-12 -4 -24 -6z"/>
<path d="M3890 3151 c-42 -13 -104 -48 -123 -69 -10 -11 -21 -38 -24 -60 -5
-35 -1 -44 33 -82 72 -80 166 -102 224 -54 48 41 69 90 63 149 -6 58 -25 100
-52 115 -22 11 -84 12 -121 1z m104 -53 c55 -50 34 -118 -49 -158 -38 -18 -51
-20 -70 -12 -31 15 -57 65 -53 105 3 28 11 36 57 60 66 33 83 34 115 5z"/>
<path d="M1116 962 c-3 -5 -5 -33 -5 -63 1 -30 -6 -79 -15 -110 -23 -79 -25
-174 -4 -195 15 -15 17 -15 27 4 26 49 213 127 279 116 31 -5 41 -2 60 19 l23
24 -23 15 c-13 8 -52 30 -87 47 -73 37 -90 32 -72 -20 9 -27 8 -35 -5 -51 -23
-24 -43 -23 -90 8 -37 24 -39 28 -36 66 4 38 6 40 33 36 18 -3 34 1 41 10 10
12 7 18 -15 36 -44 35 -105 67 -111 58z m79 -254 c17 -3 15 -7 -13 -22 -40
-21 -45 -18 -36 18 4 18 10 24 18 17 6 -5 20 -11 31 -13z"/>
<path d="M3267 920 c-36 -28 -34 -44 8 -69 35 -20 64 -65 51 -78 -4 -4 -37 -1
-74 6 -125 24 -141 25 -164 5 -46 -43 -76 -140 -50 -166 18 -18 39 -1 47 39
13 68 18 73 93 73 83 0 96 -7 82 -44 -14 -39 -13 -61 8 -86 28 -35 97 -31 154
8 52 35 111 99 103 111 -2 5 -25 14 -50 20 -37 9 -52 20 -83 63 -20 29 -41 70
-47 93 -12 48 -38 56 -78 25z m132 -229 l20 -28 -22 -22 c-38 -35 -67 -23 -67
27 0 16 28 52 41 52 4 0 17 -13 28 -29z"/>
</g>
</svg>
