<?xml version="1.0" standalone="no"?>
<!DOCTYPE svg PUBLIC "-//W3C//DTD SVG 20010904//EN"
 "http://www.w3.org/TR/2001/REC-SVG-20010904/DTD/svg10.dtd">
<svg version="1.0" xmlns="http://www.w3.org/2000/svg"
 width="439.735367pt" height="439.484390pt" viewBox="0 0 439.735367 439.484390"
 preserveAspectRatio="xMidYMid meet">
<metadata>
Created by potrace 1.16, written by Peter Selinger 2001-2019
</metadata>
<g transform="translate(-5.074712,445.653159) scale(0.100000,-0.100000)"
fill="#000000" stroke="none">
<path d="M2070 4454 c-445 -41 -815 -180 -1138 -428 -331 -254 -584 -580 -726
-934 -181 -450 -205 -996 -65 -1479 188 -650 748 -1228 1396 -1441 368 -122
793 -143 1195 -62 550 112 1042 458 1379 967 302 457 409 1074 289 1663 -158
775 -815 1458 -1589 1650 -64 16 -163 36 -221 45 -103 15 -430 27 -520 19z
m504 -90 c364 -50 711 -203 1006 -441 107 -87 304 -292 386 -403 280 -377 407
-769 407 -1260 0 -287 -38 -514 -128 -755 -184 -492 -586 -931 -1070 -1165
-206 -100 -372 -151 -605 -186 -158 -24 -482 -24 -640 0 -462 70 -853 268
-1185 601 -340 340 -537 734 -606 1215 -19 131 -16 472 4 610 70 459 264 842
593 1173 376 379 810 584 1328 627 129 11 370 3 510 -16z"/>
<path d="M2036 4338 c-305 -26 -629 -134 -881 -293 -145 -91 -231 -161 -376
-305 -150 -149 -264 -295 -359 -460 -328 -574 -347 -1360 -45 -1955 231 -456
655 -844 1115 -1018 585 -222 1285 -170 1798 134 361 213 669 542 847 906 205
416 257 940 143 1428 -155 668 -720 1270 -1386 1479 -254 80 -565 110 -856 84z
m572 -52 c319 -57 605 -179 854 -366 461 -346 753 -831 823 -1366 17 -133 20
-430 5 -554 -60 -478 -261 -877 -617 -1221 -339 -327 -732 -512 -1193 -560
-143 -15 -465 -7 -585 15 -456 83 -808 272 -1135 612 -314 325 -494 701 -550
1144 -13 110 -13 430 0 540 57 448 238 822 560 1154 324 334 681 525 1120 602
195 34 525 34 718 0z"/>
<path d="M2196 4160 c-37 -55 -88 -118 -114 -139 -46 -40 -46 -40 -22 -49 14
-5 47 -12 73 -15 54 -8 69 7 47 47 -9 18 -9 29 -1 45 10 18 21 21 70 21 52 0
59 -2 65 -22 10 -39 7 -48 -18 -48 -13 0 -29 -6 -35 -14 -18 -22 11 -33 94
-37 65 -3 70 -2 67 16 -2 11 -15 30 -29 42 -30 29 -57 90 -74 168 -24 114 -37
112 -123 -15z m80 -37 c-2 -3 -11 -3 -19 -1 -12 2 -11 8 2 38 l15 35 4 -33 c2
-19 1 -36 -2 -39z"/>
<path d="M2065 3900 c-339 -39 -641 -169 -885 -382 -331 -290 -514 -626 -565
-1041 -53 -425 46 -836 278 -1163 87 -123 252 -292 375 -384 117 -88 293 -183
423 -228 352 -123 786 -120 1139 10 440 161 827 555 980 998 69 202 101 468
82 687 -15 166 -32 254 -78 393 -100 306 -315 597 -593 804 -207 154 -423 245
-686 291 -110 19 -362 27 -470 15z m521 -59 c145 -30 243 -64 379 -131 161
-81 287 -172 425 -310 234 -234 372 -486 442 -805 20 -87 22 -130 22 -335 0
-205 -2 -248 -22 -336 -45 -208 -114 -374 -225 -542 -247 -374 -625 -628
-1052 -708 -138 -26 -477 -26 -615 0 -328 61 -620 223 -863 476 -214 223 -345
469 -409 766 -21 97 -23 135 -23 349 1 265 11 334 76 525 155 458 556 855
1013 1004 254 83 585 101 852 47z"/>
<path d="M2116 3842 c-44 -10 -42 -27 8 -56 74 -43 86 -66 86 -161 l0 -82 -95
-12 c-124 -16 -369 -73 -434 -102 -60 -25 -110 -78 -112 -117 -3 -57 3 -116
16 -146 16 -38 60 -81 98 -95 50 -19 239 -31 384 -24 l143 6 0 -202 0 -202
-102 3 -102 3 -34 58 c-29 51 -37 58 -60 55 l-27 -3 0 -195 0 -195 26 -3 c23
-3 31 5 63 62 l37 66 99 0 100 0 0 -99 0 -100 -122 -3 c-68 -2 -137 0 -154 5
-49 12 -95 47 -135 107 -119 172 -191 169 -377 -16 -106 -107 -135 -124 -213
-124 -56 0 -124 28 -174 72 -38 33 -75 83 -75 101 0 2 19 9 43 16 56 17 127
59 127 75 0 20 -17 30 -103 61 -92 33 -145 68 -208 137 -69 76 -73 67 -65
-128 7 -162 21 -247 54 -314 26 -54 45 -45 55 25 4 33 10 66 13 74 3 10 34
-14 97 -76 111 -109 185 -167 231 -183 82 -27 166 31 267 185 62 93 99 124
152 125 46 0 67 -18 96 -84 32 -69 73 -110 129 -126 20 -5 110 -10 200 -10
l162 0 0 -100 0 -100 -100 0 -99 0 -37 66 c-32 57 -40 65 -63 62 l-26 -3 0
-195 0 -195 29 0 c25 0 34 8 64 63 l34 62 99 0 99 0 0 -155 0 -154 -63 6 c-74
7 -367 -13 -478 -32 -176 -30 -249 -118 -221 -265 14 -78 58 -135 139 -178 77
-41 159 -53 307 -45 67 3 165 2 219 -2 l97 -7 0 -117 c0 -90 -4 -122 -16 -139
-21 -30 -84 -61 -139 -69 -52 -7 -62 -15 -39 -33 11 -10 73 -15 217 -18 169
-3 205 -1 222 11 22 17 25 16 -77 52 -75 26 -86 49 -90 190 l-3 120 126 3 126
3 33 -31 c17 -16 55 -42 83 -57 44 -24 52 -33 55 -61 3 -25 -3 -39 -27 -62
-52 -52 -141 -34 -141 28 0 31 34 28 58 -5 22 -30 42 -24 42 14 0 15 -13 38
-34 59 -41 41 -68 36 -103 -16 -33 -48 -31 -101 7 -144 58 -66 133 -68 218 -6
49 35 63 59 64 109 1 75 -26 116 -114 172 -26 17 -50 39 -53 49 -14 45 51 130
100 130 13 0 37 -13 55 -30 26 -25 29 -32 20 -49 -6 -12 -24 -28 -41 -36 -33
-17 -34 -38 -3 -43 33 -5 85 59 91 112 5 40 2 48 -25 76 -33 33 -51 36 -116
19 -57 -14 -109 -58 -136 -114 l-22 -45 -129 0 -129 0 0 176 0 175 58 -6 c92
-11 93 -11 86 -54 -17 -105 84 -172 192 -126 46 19 69 70 60 137 -6 39 -4 48
9 48 11 0 15 -11 15 -40 0 -81 41 -120 125 -120 57 0 93 17 111 51 19 39 18
108 -4 144 l-18 30 75 43 c118 68 173 92 214 92 66 0 122 -42 152 -112 36 -88
8 -130 -90 -132 -39 0 -59 5 -74 18 -29 26 -27 67 4 96 23 22 27 23 41 8 19
-19 11 -38 -16 -38 -10 0 -21 -4 -24 -9 -10 -16 22 -32 56 -29 31 3 33 5 36
46 4 49 -7 67 -44 76 -39 10 -91 -21 -120 -70 -55 -94 13 -164 161 -164 76 0
116 25 138 85 43 115 -17 235 -140 281 -26 10 -49 19 -51 20 -2 1 16 31 40 67
24 36 48 73 54 83 10 17 12 17 34 1 16 -11 44 -17 77 -17 44 0 58 5 85 29 31
28 33 34 33 95 0 58 -3 69 -27 92 -19 20 -39 28 -77 32 -48 4 -50 6 -45 31 2
14 8 51 12 81 6 41 12 54 23 50 8 -3 40 -5 72 -5 54 0 61 3 88 33 24 27 29 41
29 83 0 55 -20 103 -50 119 -25 13 -87 17 -122 7 -29 -8 -28 -12 -42 98 l-5
40 51 2 c41 1 56 6 79 30 33 33 44 88 28 146 -19 71 -116 100 -188 56 -18 -11
-35 -18 -38 -16 -2 3 -19 41 -38 86 l-35 82 33 14 c51 21 88 55 108 99 47 105
-9 223 -119 251 -92 24 -148 -10 -166 -101 -11 -51 19 -78 87 -78 46 0 62 5
82 24 13 13 28 32 31 43 6 20 7 19 20 -4 7 -13 13 -45 14 -71 0 -39 -4 -50
-27 -67 -14 -12 -37 -24 -50 -26 -12 -3 -34 -7 -46 -10 -19 -4 -51 18 -153
104 -71 59 -137 118 -148 129 -18 21 -18 22 8 52 43 51 30 161 -22 189 -18 9
-68 15 -115 12 -45 -2 -87 -51 -87 -100 0 -31 -4 -41 -16 -41 -12 0 -14 5 -8
18 4 9 10 42 12 73 3 51 1 60 -25 88 -20 22 -40 33 -70 37 -90 12 -153 -37
-153 -120 l0 -39 -61 7 c-34 3 -75 6 -90 6 l-29 0 0 84 0 84 43 37 c23 20 54
39 69 42 38 8 53 27 32 44 -17 14 -267 23 -318 11z m526 -246 c12 -17 9 -61
-4 -74 -20 -20 -76 -15 -88 9 -16 29 -4 68 23 79 25 10 58 3 69 -14z m256 -68
c20 -20 14 -65 -10 -82 -44 -31 -88 -9 -88 43 0 35 17 51 55 51 17 0 36 -5 43
-12z m-688 -244 l0 -166 -222 4 c-251 4 -279 10 -316 71 -30 47 -28 80 7 120
73 83 234 133 434 136 l97 1 0 -166z m290 140 c109 -17 245 -49 298 -71 l35
-15 -50 -27 c-27 -15 -69 -43 -92 -62 -38 -30 -44 -32 -52 -16 -27 48 -142 65
-202 30 -24 -15 -37 -33 -52 -78 -20 -58 -22 -60 -58 -63 l-37 -3 0 165 0 166
58 -6 c31 -3 100 -12 152 -20z m774 -60 c9 -3 16 -17 16 -31 0 -39 -85 -65
-106 -32 -10 16 7 50 29 59 27 11 41 12 61 4z m-297 -133 c243 -201 363 -450
380 -783 6 -123 5 -128 -21 -181 -29 -60 -59 -86 -111 -94 l-33 -5 24 48 c39
76 28 171 -24 217 -33 30 -94 33 -135 8 -47 -29 -87 -89 -87 -132 0 -39 44
-122 90 -167 26 -27 29 -35 20 -52 -11 -20 -11 -20 -45 6 -39 29 -145 75 -157
68 -4 -3 -8 -61 -8 -130 l0 -124 -100 0 -100 0 0 65 0 64 78 3 c70 3 77 5 80
24 2 14 -6 27 -22 37 -23 16 -25 24 -28 104 l-3 88 -242 3 -243 2 0 101 0 100
62 -3 61 -3 37 -60 c29 -47 42 -60 61 -60 l24 0 0 195 c0 195 0 195 -22 198
-19 3 -30 -8 -60 -57 l-38 -60 -62 -3 -63 -3 0 203 0 202 56 0 c41 0 63 -5 81
-20 39 -30 96 -43 141 -30 44 11 74 40 95 90 26 64 184 189 239 190 9 0 43
-22 75 -49z m-397 -41 c24 -24 26 -67 4 -98 -12 -17 -25 -22 -59 -22 -49 0
-75 24 -75 70 0 14 7 36 16 48 20 29 85 31 114 2z m912 -352 c40 -33 20 -98
-30 -98 -36 0 -49 10 -57 42 -12 48 48 86 87 56z m66 -390 c17 -17 15 -64 -4
-82 -48 -49 -117 13 -84 75 12 22 68 27 88 7z m-413 -73 c31 -30 32 -75 4
-144 -24 -57 -36 -62 -67 -28 -37 39 -53 91 -40 129 23 70 61 86 103 43z
m-563 -352 l3 -198 170 0 170 0 3 133 c2 83 6 132 13 132 15 0 51 -20 75 -42
l21 -19 -20 -40 c-25 -51 -34 -124 -17 -144 16 -19 60 -19 88 1 47 32 66 112
41 168 -9 19 -9 32 1 56 11 25 18 30 49 30 20 1 61 9 91 20 30 10 57 17 59 15
6 -7 -38 -123 -74 -195 -85 -170 -218 -289 -373 -334 -86 -25 -315 -47 -457
-44 l-130 3 -3 158 -3 157 60 0 59 0 41 -66 c33 -53 45 -65 64 -62 22 3 22 4
22 198 l0 195 -24 0 c-19 0 -32 -13 -61 -60 l-37 -60 -61 -3 -62 -3 0 101 0
100 145 0 145 0 2 -197z m158 142 l0 -55 -35 0 -35 0 0 55 0 55 35 0 35 0 0
-55z m740 -125 c24 -24 25 -38 4 -68 -17 -24 -62 -30 -82 -10 -18 18 -15 75 6
87 26 16 50 13 72 -9z m-370 -95 c0 -28 -45 -51 -66 -34 -18 15 -18 18 7 58
19 32 21 33 40 16 10 -10 19 -28 19 -40z m-1049 -445 c168 -16 149 9 149 -202
l0 -181 -187 7 c-352 12 -404 20 -453 66 -39 37 -47 86 -25 165 17 63 17 63
79 94 123 60 222 72 437 51z m810 -20 c23 -13 26 -62 3 -84 -34 -34 -94 -9
-94 39 0 46 46 68 91 45z m-261 -81 c0 -44 -26 -65 -66 -55 -51 13 -55 87 -6
104 44 15 72 -4 72 -49z"/>
<path d="M2811 3078 c-32 -18 -29 -32 11 -40 48 -10 78 -49 78 -104 l0 -44
-59 0 c-58 0 -60 1 -99 46 -23 27 -44 44 -51 40 -25 -16 -9 -284 18 -300 4 -3
22 14 39 37 58 79 80 98 110 91 36 -9 35 -8 28 -49 -5 -26 -24 -53 -63 -92
-51 -51 -54 -57 -38 -69 21 -16 271 -12 288 5 7 7 -5 24 -40 58 -37 36 -52 58
-57 87 -4 21 -4 42 1 46 4 4 26 5 49 3 38 -5 42 -8 62 -56 21 -49 23 -50 40
-34 14 15 17 36 16 130 -2 153 -30 214 -59 128 -13 -38 -57 -81 -84 -81 -14 0
-20 10 -24 41 -5 37 -2 44 26 68 17 14 44 34 60 44 27 16 28 20 15 33 -21 22
-233 31 -267 12z"/>
<path d="M2328 3645 c-25 -55 39 -109 82 -70 22 20 26 65 8 83 -7 7 -27 12
-45 12 -26 0 -36 -6 -45 -25z"/>
<path d="M2322 1438 c-7 -7 -12 -27 -12 -45 0 -27 5 -35 25 -43 16 -6 34 -6
50 0 20 8 25 16 25 43 0 40 -15 57 -50 57 -14 0 -31 -5 -38 -12z"/>
<path d="M824 3661 c-21 -32 -24 -44 -15 -55 13 -16 18 -77 7 -94 -4 -7 -20
-12 -35 -12 -20 0 -31 7 -40 26 -6 14 -17 24 -23 22 -7 -3 -34 -30 -62 -61
-63 -72 -55 -88 32 -63 88 24 120 21 181 -20 45 -31 52 -39 47 -60 -5 -18 -2
-26 11 -31 12 -5 29 7 60 42 50 54 47 63 -23 83 -67 19 -78 39 -84 155 -3 65
-9 102 -17 104 -6 3 -24 -14 -39 -36z"/>
<path d="M3619 3622 c-37 -33 -43 -80 -15 -111 25 -27 34 -101 13 -101 -22 0
-46 38 -54 83 -8 50 -27 56 -64 21 -34 -32 -35 -41 -11 -67 9 -10 26 -37 37
-60 11 -22 32 -49 46 -60 30 -21 53 -18 93 14 32 25 35 73 6 129 -23 46 -27
108 -6 116 8 3 28 -2 46 -11 29 -15 31 -19 29 -65 -2 -27 0 -52 2 -55 3 -3 23
10 44 28 l39 34 -22 35 c-24 39 -83 82 -124 92 -21 5 -35 0 -59 -22z"/>
<path d="M495 2140 c-22 -23 -83 -68 -136 -100 -157 -97 -157 -112 2 -146 157
-33 183 -42 209 -69 29 -31 40 -24 33 23 -12 75 -16 80 -71 74 -43 -4 -51 -1
-66 19 -25 36 -20 66 14 84 28 14 30 14 41 -6 6 -12 15 -17 19 -13 13 14 17
167 5 171 -6 2 -29 -15 -50 -37z m-97 -175 c0 -26 -7 -29 -47 -18 -23 6 -23 6
10 24 19 10 35 18 35 19 1 0 2 -11 2 -25z"/>
<path d="M3933 2128 c-6 -7 -11 -38 -12 -69 -1 -41 2 -59 15 -70 14 -11 18
-11 29 4 7 10 19 15 26 13 8 -2 26 -7 42 -10 39 -9 34 -21 -15 -35 -61 -18
-73 -26 -73 -47 0 -12 15 -26 42 -39 47 -22 56 -45 19 -45 -41 0 -76 18 -76
39 0 11 -5 23 -10 26 -20 12 -38 -15 -54 -82 -21 -80 -11 -98 34 -65 28 21 34
22 93 12 34 -7 77 -18 95 -26 27 -11 32 -18 30 -41 -2 -19 2 -28 12 -28 18 0
37 38 46 91 6 40 5 41 -45 77 -51 37 -51 38 -37 64 8 15 38 44 67 63 48 31 54
40 57 74 4 52 -13 69 -39 37 -18 -23 -24 -24 -97 -18 -97 8 -112 13 -112 42 0
30 -23 50 -37 33z"/>
<path d="M3050 794 c-8 -4 -25 -16 -37 -27 -20 -18 -23 -30 -23 -96 0 -95 12
-140 48 -174 27 -26 99 -57 132 -57 9 0 42 32 73 71 52 66 57 76 57 123 0 105
-54 156 -168 162 -37 2 -74 1 -82 -2z m122 -91 c21 -19 38 -74 38 -125 0 -31
-5 -39 -36 -57 -19 -12 -39 -19 -43 -17 -15 10 -70 132 -75 169 -4 32 -2 39
17 47 29 12 76 4 99 -17z"/>
<path d="M1266 759 c-32 -25 -56 -69 -56 -104 0 -34 31 -93 67 -127 40 -39
122 -73 137 -58 8 9 5 16 -13 31 -23 19 -23 20 -7 60 9 23 30 61 47 85 26 39
33 43 57 38 41 -10 44 -10 49 3 6 16 -54 58 -111 77 -70 23 -137 21 -170 -5z
m139 -43 c17 -12 16 -17 -27 -87 -24 -41 -49 -74 -54 -73 -15 1 -74 84 -74
105 0 11 11 31 25 44 28 29 98 35 130 11z"/>
</g>
</svg>
