<?xml version="1.0" standalone="no"?>
<!DOCTYPE svg PUBLIC "-//W3C//DTD SVG 20010904//EN"
 "http://www.w3.org/TR/2001/REC-SVG-20010904/DTD/svg10.dtd">
<svg version="1.0" xmlns="http://www.w3.org/2000/svg"
 width="439.628689pt" height="439.396570pt" viewBox="0 0 439.628689 439.396570"
 preserveAspectRatio="xMidYMid meet">
<metadata>
Created by potrace 1.16, written by Peter Selinger 2001-2019
</metadata>
<g transform="translate(-6.153591,444.740743) scale(0.100000,-0.100000)"
fill="#000000" stroke="none">
<path d="M2043 4440 c-371 -36 -690 -147 -982 -341 -380 -252 -681 -613 -843
-1011 -180 -442 -206 -998 -71 -1473 184 -646 726 -1218 1364 -1440 235 -82
430 -115 699 -121 335 -7 589 37 883 153 507 199 987 671 1196 1175 212 511
225 1135 34 1648 -154 414 -473 808 -868 1072 -186 124 -484 250 -690 293
-222 45 -522 64 -722 45z m533 -85 c438 -58 828 -252 1163 -579 141 -138 216
-228 311 -371 227 -345 333 -708 333 -1150 1 -270 -27 -452 -104 -690 -188
-581 -714 -1120 -1288 -1319 -256 -89 -445 -120 -731 -120 -362 1 -622 57
-916 199 -222 106 -403 235 -586 417 -380 377 -579 814 -620 1355 -20 269 19
596 102 843 73 217 213 467 365 650 501 601 1187 867 1971 765z"/>
<path d="M2090 4333 c-510 -41 -936 -238 -1301 -602 -138 -138 -206 -220 -298
-360 -351 -535 -420 -1283 -176 -1903 213 -540 706 -1009 1257 -1197 373 -127
836 -145 1219 -46 370 95 657 262 945 549 373 373 564 787 606 1314 22 277
-16 585 -102 845 -202 606 -749 1136 -1358 1316 -241 71 -547 104 -792 84z
m556 -62 c468 -89 882 -334 1195 -709 253 -303 397 -627 454 -1016 20 -140 20
-434 0 -588 -56 -428 -238 -802 -545 -1121 -324 -339 -682 -531 -1135 -613
-122 -22 -442 -30 -586 -15 -484 51 -893 252 -1245 612 -321 330 -512 722
-564 1158 -14 117 -14 429 0 536 69 543 327 996 770 1352 277 223 613 370 945
413 50 6 97 13 105 15 8 2 123 2 255 1 193 -3 262 -8 351 -25z"/>
<path d="M2324 4262 c-5 -16 -12 -18 -54 -14 l-48 4 -41 -55 c-75 -99 -75
-164 -2 -230 30 -27 49 -35 95 -41 32 -3 61 -4 66 -1 5 3 12 22 16 41 5 27 16
41 45 60 55 34 53 44 -11 58 -24 5 -25 7 -25 98 0 82 -2 93 -18 96 -12 2 -20
-3 -23 -16z m-8 -127 c20 -49 18 -53 -23 -57 -21 -2 -37 -7 -36 -13 1 -5 4
-27 8 -47 9 -45 -14 -61 -45 -33 -23 21 -27 101 -9 154 10 28 15 31 50 31 36
0 41 -3 55 -35z"/>
<path d="M2041 3885 c-480 -61 -892 -320 -1168 -735 -238 -357 -319 -824 -221
-1279 64 -302 221 -577 459 -806 252 -243 521 -382 854 -440 109 -19 380 -27
490 -14 482 55 908 319 1187 733 198 295 293 676 259 1045 -36 413 -187 737
-476 1026 -252 253 -545 405 -880 460 -134 23 -369 27 -504 10z m502 -45 c330
-56 610 -203 857 -450 249 -249 394 -527 451 -863 18 -105 20 -150 16 -322 -7
-284 -44 -442 -157 -670 -81 -162 -172 -287 -310 -425 -236 -235 -486 -372
-807 -440 -126 -27 -400 -38 -540 -21 -356 44 -652 185 -912 435 -333 321
-490 691 -491 1154 -1 185 9 280 45 423 132 529 580 992 1103 1140 219 62 520
78 745 39z"/>
<path d="M1841 3727 c-84 -7 -156 -13 -160 -14 -19 -8 1 -32 49 -56 109 -56
165 -140 177 -263 l6 -64 -83 0 c-55 0 -93 5 -116 16 -42 20 -96 81 -125 141
-43 88 -56 72 -74 -93 -17 -151 -19 -302 -5 -339 16 -42 38 -26 78 55 53 106
100 135 250 147 l72 6 0 -197 0 -196 -472 0 -471 0 -42 -24 c-69 -41 -126
-143 -164 -293 -43 -170 -51 -313 -26 -477 34 -223 106 -380 195 -426 38 -19
60 -20 510 -20 l470 0 0 -215 0 -215 -52 1 c-81 1 -147 14 -175 36 -18 13 -35
44 -53 99 -29 87 -52 105 -71 57 -26 -64 -8 -411 24 -450 17 -22 25 -15 62 62
49 103 82 125 187 125 l78 0 0 -28 c0 -95 -64 -204 -156 -264 -35 -23 -64 -46
-64 -50 0 -22 186 -79 317 -98 86 -12 168 1 198 31 20 20 20 20 1 35 -11 8
-28 14 -38 14 -25 0 -89 33 -110 57 -34 37 -58 110 -66 202 -4 51 -6 94 -3 96
2 3 33 5 67 5 59 0 64 -2 87 -33 13 -17 35 -58 48 -90 27 -67 44 -86 62 -68 8
8 13 70 15 199 3 188 -4 262 -25 269 -7 3 -27 -28 -47 -69 -53 -111 -85 -138
-167 -138 l-39 0 0 215 0 215 259 0 260 0 -14 -33 c-25 -60 12 -179 69 -221
37 -28 92 -25 155 10 112 60 149 138 94 191 -34 32 -138 110 -155 116 -9 3 0
18 23 43 51 54 69 95 69 156 0 73 -24 118 -80 146 -80 40 -148 23 -206 -53
-21 -28 -29 -51 -32 -93 -3 -51 -1 -60 21 -80 20 -19 37 -24 84 -25 57 -2 58
-1 75 33 35 69 16 135 -36 128 -44 -5 -56 -32 -27 -62 17 -18 20 -29 14 -41
-8 -14 -12 -14 -36 5 -20 16 -27 31 -27 55 0 44 20 58 90 63 l58 4 11 -38 c17
-62 14 -76 -35 -150 -59 -88 -69 -98 -60 -59 4 16 8 34 9 39 1 5 -16 9 -38 10
l-40 1 3 -37 3 -38 -256 0 -255 0 0 255 0 255 349 0 349 0 5 -28 c14 -68 81
-112 171 -112 83 0 132 28 159 90 21 46 24 50 59 50 l37 0 3 -107 3 -108 235
0 235 0 3 61 3 62 37 -9 c48 -10 107 3 138 32 45 43 54 132 19 200 -26 49
-104 67 -185 44 -12 -4 -14 5 -12 45 6 81 10 80 -237 80 -155 0 -220 -3 -229
-12 -8 -8 -12 -47 -12 -110 l0 -98 -39 0 c-33 0 -40 4 -45 24 -9 36 -55 87
-93 102 -45 19 -121 17 -170 -5 -41 -19 -59 -40 -79 -96 -6 -16 -16 -30 -22
-29 -7 1 -163 2 -347 3 l-335 1 0 255 0 255 328 0 328 0 32 -42 c27 -36 32
-50 32 -98 0 -86 -48 -125 -124 -100 -44 14 -76 53 -76 91 0 22 5 29 20 29 11
0 23 -8 27 -17 32 -91 105 -56 84 40 -12 53 -35 70 -81 62 -108 -20 -146 -129
-83 -237 38 -65 123 -89 191 -54 51 26 111 94 123 138 18 70 -10 170 -62 219
l-29 27 35 6 c67 13 135 95 135 162 0 58 -116 125 -189 109 -17 -4 -45 -18
-62 -32 -58 -50 -73 -111 -44 -192 l14 -41 -299 0 -300 0 0 195 0 195 43 0
c24 0 62 -10 87 -22 39 -20 50 -34 82 -98 41 -83 63 -106 85 -89 10 9 13 56
12 213 -1 110 -4 212 -8 226 -13 47 -37 35 -88 -42 -54 -82 -108 -118 -176
-118 l-40 0 5 79 c8 139 79 242 179 259 28 5 44 13 44 22 0 42 -130 55 -374
37z m900 -674 c42 -25 47 -55 15 -103 -14 -22 -38 -47 -52 -57 -26 -17 -27
-16 -50 11 -39 44 -28 111 24 154 21 16 28 15 63 -5z m-831 -508 l0 -255 -560
0 -561 0 6 63 c22 217 82 381 158 427 31 19 53 20 495 20 l462 0 0 -255z
m1610 -295 l0 -180 -165 0 -165 0 0 180 0 180 165 0 165 0 0 -180z m-601 95
c24 -12 41 -33 41 -51 0 -2 -46 -4 -101 -4 l-101 0 14 23 c31 45 94 60 147 32z
m805 -41 c9 -9 16 -32 16 -54 0 -22 -7 -45 -16 -54 -20 -21 -83 -20 -106 1
-23 20 -24 80 -1 105 20 23 85 24 107 2z m-1814 -349 l0 -255 -460 0 c-508 0
-495 -2 -544 63 -50 65 -95 223 -111 385 l-6 62 561 0 560 0 0 -255z m1050
240 c0 -23 -60 -55 -101 -55 -39 0 -89 31 -89 56 0 11 19 14 95 14 78 0 95 -3
95 -15z m-259 -572 c69 -66 74 -91 28 -134 -40 -37 -75 -37 -119 0 -45 37 -47
89 -7 150 15 22 30 41 33 41 3 0 32 -25 65 -57z"/>
<path d="M1453 2676 c-41 -19 -61 -51 -69 -108 -8 -55 8 -107 41 -138 33 -31
124 -39 177 -17 52 22 71 64 66 144 -3 55 -8 68 -34 94 -26 26 -41 31 -90 35
-39 3 -70 0 -91 -10z m122 -81 c49 -48 20 -125 -47 -125 -39 0 -51 7 -67 38
-26 48 12 112 67 112 12 0 34 -11 47 -25z"/>
<path d="M3300 2367 c-48 -17 -73 -66 -66 -129 7 -63 21 -87 61 -104 62 -26
151 -9 173 33 31 60 19 161 -22 188 -32 21 -105 27 -146 12z m85 -67 c23 -9
26 -14 23 -52 -3 -43 -3 -43 -46 -46 -37 -3 -43 0 -52 22 -15 39 6 81 42 85 4
1 19 -3 33 -9z"/>
<path d="M1431 2075 c-16 -14 -35 -42 -42 -62 -14 -42 -6 -117 17 -151 47 -72
210 -67 249 9 19 37 19 132 0 169 -21 41 -63 60 -134 60 -49 0 -65 -4 -90 -25z
m149 -65 c45 -45 11 -124 -54 -124 -42 0 -63 17 -72 59 -13 68 77 114 126 65z"/>
<path d="M2155 2676 c-52 -23 -69 -51 -73 -120 -7 -114 40 -161 154 -154 90 6
134 53 134 145 0 109 -110 175 -215 129z m120 -81 c14 -13 25 -34 25 -45 0
-24 -18 -61 -34 -72 -22 -15 -76 -8 -96 12 -20 20 -27 74 -12 96 26 38 84 43
117 9z"/>
<path d="M2134 2081 c-42 -25 -57 -68 -52 -141 4 -52 9 -66 35 -92 57 -57 187
-47 228 16 41 62 27 165 -26 211 -26 21 -41 25 -92 25 -43 0 -71 -6 -93 -19z
m145 -77 c28 -35 26 -69 -4 -99 -30 -30 -64 -32 -99 -4 -33 26 -36 79 -6 109
30 30 83 27 109 -6z"/>
<path d="M4003 2434 c-8 -20 3 -108 17 -134 9 -17 14 -18 30 -8 25 16 29 11
32 -42 l3 -45 -35 0 c-34 0 -35 -1 -49 -58 -12 -51 -12 -60 1 -74 14 -13 20
-13 59 5 24 11 67 40 95 64 47 40 70 54 127 72 40 13 19 32 -123 109 -78 43
-98 59 -113 90 -18 39 -34 47 -44 21z m172 -166 c32 -15 32 -21 -4 -35 -34
-13 -41 -9 -41 24 0 26 8 28 45 11z"/>
<path d="M274 2375 c-32 -49 -46 -213 -23 -257 11 -21 12 -21 26 -2 12 16 29
19 123 22 109 4 110 4 119 -21 25 -66 51 -29 51 72 0 38 -4 72 -9 76 -5 3 -18
-8 -27 -25 -18 -30 -31 -35 -70 -24 -17 5 -23 16 -28 61 -8 68 -19 89 -56 108
-45 23 -87 19 -106 -10z m106 -110 l0 -55 -40 0 c-22 0 -40 1 -40 3 0 1 -4 17
-9 35 -8 27 -7 36 10 53 10 10 33 19 49 19 30 0 30 -1 30 -55z"/>
<path d="M2347 509 c-8 -19 -17 -42 -20 -52 -6 -15 -16 -18 -54 -15 -48 3 -48
3 -48 38 l0 35 -60 0 -60 0 1 -32 c2 -43 71 -177 117 -227 l37 -41 30 34 c16
19 41 65 56 103 20 54 36 77 77 112 60 52 57 65 -17 73 -45 5 -46 5 -59 -28z
m-76 -129 c15 0 17 -4 10 -22 -5 -13 -12 -32 -16 -43 -6 -18 -9 -16 -25 15
-24 44 -25 64 -4 56 9 -3 24 -6 35 -6z"/>
</g>
</svg>
