<?xml version="1.0" standalone="no"?>
<!DOCTYPE svg PUBLIC "-//W3C//DTD SVG 20010904//EN"
 "http://www.w3.org/TR/2001/REC-SVG-20010904/DTD/svg10.dtd">
<svg version="1.0" xmlns="http://www.w3.org/2000/svg"
 width="439.682483pt" height="439.091778pt" viewBox="0 0 439.682483 439.091778"
 preserveAspectRatio="xMidYMid meet">
<metadata>
Created by potrace 1.16, written by Peter Selinger 2001-2019
</metadata>
<g transform="translate(-5.117112,444.552044) scale(0.100000,-0.100000)"
fill="#000000" stroke="none">
<path d="M2025 4439 c-502 -52 -924 -245 -1286 -587 -435 -412 -663 -917 -686
-1517 -27 -707 250 -1329 795 -1786 308 -257 653 -412 1062 -476 160 -25 519
-25 680 0 390 60 735 211 1030 451 292 237 526 541 658 856 184 435 220 959
101 1434 -93 370 -285 702 -574 991 -344 344 -750 551 -1215 620 -129 19 -443
27 -565 14z m544 -84 c463 -65 855 -268 1202 -623 179 -182 291 -336 392 -538
162 -323 236 -722 207 -1109 -44 -596 -307 -1095 -784 -1493 -486 -405 -1144
-558 -1811 -420 -208 43 -471 151 -656 269 -389 250 -722 656 -867 1059 -200
555 -168 1190 85 1694 235 470 679 874 1156 1050 330 123 710 162 1076 111z"/>
<path d="M2034 4329 c-203 -18 -450 -82 -637 -165 -354 -157 -693 -452 -927
-809 -154 -236 -266 -565 -299 -880 -13 -125 -5 -440 14 -560 82 -516 342
-959 765 -1305 419 -343 975 -499 1547 -435 498 56 908 262 1268 637 370 385
556 835 570 1378 15 586 -171 1076 -566 1494 -456 482 -1057 706 -1735 645z
m466 -39 c463 -52 855 -244 1200 -590 333 -332 517 -694 584 -1151 21 -138 21
-456 1 -597 -66 -462 -265 -848 -612 -1183 -327 -315 -696 -494 -1143 -555
-123 -16 -396 -18 -525 -4 -477 54 -883 255 -1231 611 -315 324 -498 692 -559
1125 -18 126 -21 447 -5 569 49 385 183 703 427 1012 80 101 274 291 381 372
419 317 931 452 1482 391z"/>
<path d="M2061 4266 c-10 -12 -9 -17 6 -24 16 -9 18 -22 15 -116 -3 -104 -4
-106 -27 -106 -30 0 -39 -14 -20 -30 21 -17 157 -19 163 -2 2 8 -5 16 -17 19
-16 4 -21 13 -21 39 0 41 22 54 50 29 30 -27 43 -9 38 52 -5 61 -25 92 -34 55
-8 -30 -32 -28 -40 4 -4 17 -2 29 7 35 18 12 68 3 90 -17 23 -21 39 -10 39 27
0 40 -27 49 -144 49 -69 0 -97 -4 -105 -14z"/>
<path d="M2105 3894 c-436 -45 -763 -204 -1058 -514 -338 -356 -490 -816 -436
-1325 41 -379 208 -717 490 -990 272 -264 591 -415 954 -454 335 -35 642 17
930 160 158 78 285 170 420 304 324 322 478 677 490 1130 12 442 -123 815
-412 1140 -255 286 -577 466 -947 530 -89 15 -354 27 -431 19z m505 -67 c309
-74 550 -208 771 -427 243 -242 377 -483 451 -812 20 -92 23 -128 23 -338 0
-207 -3 -247 -23 -338 -33 -149 -65 -241 -132 -377 -80 -161 -172 -287 -310
-425 -235 -234 -485 -371 -810 -442 -93 -20 -132 -23 -335 -22 -257 0 -329 11
-533 79 -444 149 -832 535 -991 988 -63 179 -75 266 -76 532 0 257 6 310 62
495 147 496 612 942 1114 1070 162 42 242 49 469 46 187 -4 229 -7 320 -29z"/>
<path d="M1339 3027 c-43 -29 -120 -124 -156 -193 l-28 -53 -80 78 c-143 140
-231 148 -290 26 -36 -72 -30 -117 20 -162 47 -45 83 -44 124 2 36 42 39 76
11 123 -21 34 -38 39 -71 22 -15 -9 -17 -15 -9 -30 6 -11 17 -20 25 -20 9 0
15 -10 15 -25 0 -31 -40 -51 -71 -35 -26 14 -26 84 1 127 68 112 227 -28 285
-252 19 -73 20 -173 5 -433 -12 -221 -43 -439 -70 -492 -21 -42 -77 -75 -143
-84 -44 -7 -50 -5 -77 23 -54 54 -35 134 38 156 23 7 23 6 21 -57 -2 -57 -1
-63 17 -60 47 8 79 94 53 141 -30 53 -140 61 -181 14 -51 -57 -42 -172 18
-242 86 -100 242 -61 313 77 l18 36 12 -54 c13 -62 44 -136 69 -164 74 -83
280 -71 317 18 43 102 -19 238 -109 238 -62 0 -136 -63 -136 -116 0 -41 101
-116 127 -94 21 17 15 45 -18 83 -26 29 -29 38 -18 51 8 10 25 14 48 12 32 -3
37 -8 55 -49 18 -46 18 -47 0 -85 -16 -34 -26 -41 -69 -52 -77 -19 -113 -5
-152 60 -62 104 -73 158 -74 361 0 101 3 200 6 220 l7 37 134 0 134 0 20 -40
c25 -48 64 -70 127 -70 60 0 107 27 130 75 13 28 23 35 45 35 21 0 28 -5 28
-20 0 -42 -29 -89 -71 -116 l-43 -27 27 -23 c44 -37 150 -58 185 -35 9 5 38 1
74 -10 68 -22 113 -25 176 -15 l42 8 0 -91 0 -91 -149 0 c-83 0 -152 -4 -156
-9 -5 -9 55 -117 252 -456 39 -66 76 -120 83 -120 15 0 18 5 207 333 74 128
131 237 128 242 -4 6 -68 10 -151 10 l-144 0 0 96 0 95 58 -8 c31 -4 130 -8
219 -8 139 0 165 2 179 17 16 16 16 20 -9 75 -31 71 -48 141 -36 149 5 3 16
-11 24 -31 43 -101 218 -101 261 0 l14 35 74 0 73 0 6 -73 c4 -40 18 -140 33
-222 53 -303 7 -535 -106 -535 -44 0 -67 15 -89 58 -41 80 -36 142 10 142 28
0 62 -56 56 -90 -9 -41 14 -58 48 -36 20 13 25 25 25 59 0 87 -68 145 -155
131 -61 -9 -78 -32 -83 -110 -4 -57 -1 -72 28 -130 17 -35 43 -72 58 -82 44
-28 103 -21 167 22 82 54 134 145 135 236 l1 35 22 -30 c12 -16 43 -52 69 -80
l47 -50 63 2 c82 3 166 32 193 67 15 21 20 42 19 85 -2 112 -48 191 -111 191
-29 0 -45 -9 -84 -49 -27 -26 -49 -55 -49 -63 0 -9 10 -27 21 -42 18 -23 28
-27 63 -24 47 3 57 28 16 38 -47 12 -17 80 35 80 68 0 74 -123 9 -182 -31 -27
-100 -41 -139 -28 -99 33 -196 254 -211 480 -12 180 29 421 102 593 57 136
161 282 236 331 24 16 29 16 55 3 16 -9 35 -27 42 -40 12 -22 11 -30 -6 -59
-25 -42 -38 -38 -38 12 0 21 -6 45 -13 52 -11 11 -18 8 -38 -15 -50 -58 -11
-122 75 -122 26 0 55 6 64 14 25 20 22 97 -6 151 -55 109 -198 81 -297 -57
-42 -59 -45 -58 -53 14 -14 119 -117 199 -227 174 -58 -13 -88 -36 -112 -85
-30 -62 -20 -103 37 -155 49 -45 69 -47 131 -10 48 29 60 103 24 139 -37 37
-123 18 -106 -25 3 -8 16 -15 29 -15 32 0 57 -28 36 -41 -20 -13 -73 -11 -87
3 -19 19 -15 92 6 111 26 24 57 21 112 -9 71 -39 84 -70 78 -185 -5 -78 -15
-124 -61 -266 -31 -95 -59 -188 -63 -207 l-6 -36 -82 0 -81 0 -15 32 c-47 100
-208 104 -249 6 -29 -68 -41 -48 -41 68 0 114 6 136 53 175 33 29 30 44 -11
61 -31 13 -437 12 -460 -1 -9 -5 -27 -2 -46 8 -23 12 -58 16 -136 15 -58 0
-114 -1 -125 -2 -11 -1 -57 1 -103 4 -88 7 -112 -2 -112 -37 0 -11 11 -25 26
-31 43 -20 54 -55 54 -183 l0 -115 -29 0 c-24 0 -33 7 -48 38 -24 50 -73 74
-136 69 -56 -5 -96 -30 -117 -75 l-15 -32 -135 0 -135 0 12 203 c13 214 33
349 60 401 34 68 97 116 152 116 39 0 61 -23 61 -64 0 -58 -53 -80 -65 -27 -3
16 -13 35 -22 42 -13 11 -18 10 -34 -10 -23 -28 -24 -50 -5 -96 19 -43 48 -59
103 -52 84 9 149 104 123 182 -6 19 -29 50 -51 69 -35 33 -45 36 -98 36 -44 0
-66 -6 -92 -23z m1015 -625 c3 -37 6 -86 6 -109 l0 -43 -110 0 -110 0 0 118
c0 64 4 123 8 129 4 7 26 26 47 42 l39 29 57 -49 c56 -49 56 -50 63 -117z
m-325 79 c15 -42 21 -81 21 -145 l0 -86 -76 0 -76 0 4 128 c3 147 10 162 68
162 36 0 38 -1 59 -59z m522 40 c23 -18 24 -27 27 -145 l4 -126 -77 0 -77 0 4
121 c3 118 4 121 31 145 34 29 57 30 88 5z m-900 -251 l24 -19 -65 0 -65 0 24
19 c13 11 31 20 41 20 10 0 28 -9 41 -20z m1213 10 c43 -16 30 -30 -29 -30
-58 0 -70 10 -32 28 28 14 31 14 61 2z m-1204 -108 c0 -29 -54 -41 -91 -22
-34 19 -20 30 36 30 30 0 55 -4 55 -8z m387 -32 c-7 -51 -29 -85 -68 -105 -22
-12 -34 -13 -44 -5 -14 12 -35 85 -35 124 0 26 1 26 76 26 l77 0 -6 -40z m151
-43 c2 -61 0 -78 -10 -75 -22 7 -48 70 -48 116 0 41 1 43 28 40 27 -3 27 -4
30 -81z m162 65 c0 -60 -52 -162 -82 -162 -4 0 -8 41 -8 90 l0 90 45 0 c37 0
45 -3 45 -18z m220 -13 c0 -48 -20 -116 -41 -135 -44 -39 -90 13 -105 119 l-6
47 76 0 76 0 0 -31z m310 21 c0 -19 -49 -34 -77 -24 -50 17 -39 34 21 34 32 0
56 -4 56 -10z m-382 -460 c-7 -20 -273 -480 -278 -480 -4 1 -270 459 -278 481
-2 5 123 9 278 9 178 0 280 -4 278 -10z"/>
<path d="M2025 1671 c-6 -11 188 -354 203 -359 12 -4 215 346 207 358 -8 13
-402 13 -410 1z m355 -32 c0 -13 -142 -259 -150 -259 -7 0 -143 236 -148 257
-3 10 29 13 147 13 100 0 151 -4 151 -11z"/>
<path d="M2062 1888 c-18 -18 -14 -63 8 -83 43 -39 107 15 82 70 -9 19 -19 25
-45 25 -18 0 -38 -5 -45 -12z"/>
<path d="M2322 1888 c-19 -19 -15 -76 7 -87 18 -10 51 -8 71 4 14 9 13 68 -2
83 -7 7 -24 12 -38 12 -14 0 -31 -5 -38 -12z"/>
<path d="M493 3235 c-25 -18 -65 -83 -92 -153 -22 -54 -16 -71 15 -47 27 20
48 18 104 -10 46 -24 89 -68 104 -108 10 -30 29 -15 59 47 29 61 27 96 -3 56
-16 -22 -20 -22 -49 -10 -26 10 -31 18 -29 39 3 25 6 26 82 33 44 4 83 11 88
16 5 5 13 27 18 48 7 30 5 42 -7 56 -22 25 -33 13 -33 -34 l0 -41 -50 7 c-70
9 -73 11 -92 56 -23 55 -73 75 -115 45z m77 -109 c0 -25 -4 -47 -9 -50 -11 -7
-81 21 -81 33 0 21 43 61 66 61 22 0 24 -4 24 -44z"/>
<path d="M3974 3149 c-10 -11 -40 -33 -66 -49 -63 -39 -80 -68 -86 -148 -4
-68 -4 -68 30 -94 35 -27 36 -27 94 -13 32 8 80 14 105 15 56 0 71 15 63 61
-12 64 -56 78 -78 25 -24 -58 -86 -83 -138 -55 -17 9 -19 17 -14 52 10 63 29
84 92 104 63 20 72 31 54 73 -19 45 -34 53 -56 29z"/>
<path d="M3767 1432 c-20 -22 -39 -71 -31 -83 3 -5 20 -9 38 -9 37 0 60 -19
51 -43 -5 -11 -26 -16 -81 -19 -85 -4 -110 -21 -124 -82 -11 -51 5 -55 48 -12
32 33 40 37 81 34 41 -3 48 -7 62 -36 19 -42 35 -52 80 -52 30 0 43 7 72 39
19 21 47 60 62 86 26 43 27 48 11 63 -12 13 -18 13 -28 4 -19 -19 -38 -15
-110 28 -41 25 -74 53 -83 70 -18 35 -26 37 -48 12z m182 -188 c2 -2 -7 -17
-19 -34 -32 -45 -64 -38 -68 14 -5 64 2 71 45 45 21 -12 40 -24 42 -25z"/>
<path d="M644 1316 c-18 -8 -58 -19 -90 -26 -89 -18 -85 -16 -73 -47 13 -35
48 -73 66 -73 8 0 18 13 24 28 6 18 29 39 65 61 50 30 59 32 80 20 38 -20 31
-56 -28 -131 -26 -34 -31 -36 -60 -27 -48 13 -52 -2 -16 -57 38 -57 61 -62 86
-17 9 18 34 52 56 77 43 52 67 110 57 141 -8 22 -84 65 -116 65 -11 -1 -34 -7
-51 -14z"/>
<path d="M2280 531 c-47 -6 -68 -35 -36 -47 10 -4 16 -18 16 -41 0 -33 -1 -34
-37 -31 -38 3 -38 3 -41 -39 -2 -32 1 -44 15 -52 12 -6 25 -6 34 0 23 14 39
10 39 -11 0 -42 -79 -47 -111 -7 -22 27 -39 14 -39 -32 0 -59 9 -62 156 -48
103 9 129 15 129 27 0 8 -10 16 -21 18 -28 4 -34 27 -34 125 0 69 3 81 22 97
19 15 20 20 9 34 -14 16 -24 17 -101 7z"/>
</g>
</svg>
