<?xml version="1.0" standalone="no"?>
<!DOCTYPE svg PUBLIC "-//W3C//DTD SVG 20010904//EN"
 "http://www.w3.org/TR/2001/REC-SVG-20010904/DTD/svg10.dtd">
<svg version="1.0" xmlns="http://www.w3.org/2000/svg"
 width="439.196766pt" height="439.252862pt" viewBox="0 0 439.196766 439.252862"
 preserveAspectRatio="xMidYMid meet">
<metadata>
Created by potrace 1.16, written by Peter Selinger 2001-2019
</metadata>
<g transform="translate(-5.212121,445.669260) scale(0.100000,-0.100000)"
fill="#000000" stroke="none">
<path d="M2075 4454 c-421 -44 -730 -147 -1021 -342 -671 -450 -1026 -1132
-1001 -1922 19 -574 212 -1039 598 -1445 381 -398 836 -622 1369 -674 136 -14
455 -6 580 14 486 77 901 296 1243 655 328 345 514 723 583 1190 21 141 24
481 6 620 -81 605 -379 1107 -886 1490 -269 204 -602 342 -956 395 -102 15
-434 27 -515 19z m499 -90 c224 -31 446 -102 643 -204 217 -113 372 -230 559
-421 322 -330 500 -681 575 -1134 33 -196 31 -515 -4 -715 -78 -444 -266 -805
-583 -1124 -344 -345 -726 -541 -1194 -612 -140 -22 -471 -24 -605 -6 -482 68
-873 262 -1217 604 -335 333 -536 727 -605 1185 -22 151 -22 499 1 648 72 465
271 851 614 1191 375 372 826 573 1362 608 98 6 342 -4 454 -20z"/>
<path d="M2030 4339 c-380 -39 -715 -168 -1022 -395 -117 -87 -345 -312 -430
-424 -280 -371 -416 -783 -416 -1260 0 -599 208 -1088 640 -1506 385 -373 820
-558 1363 -581 527 -22 1020 142 1413 471 231 192 461 486 573 732 148 325
213 722 179 1079 -48 491 -226 885 -560 1238 -334 352 -725 559 -1195 632
-125 19 -419 27 -545 14z m512 -44 c458 -60 873 -277 1203 -627 298 -317 479
-686 539 -1105 21 -144 21 -443 1 -595 -57 -430 -239 -803 -547 -1123 -126
-132 -223 -213 -367 -310 -250 -166 -528 -269 -839 -310 -124 -16 -272 -20
-236 -5 38 15 83 81 94 137 13 59 2 107 -33 154 -22 30 -87 43 -141 28 -66
-18 -116 -104 -116 -198 0 -60 17 -92 60 -113 l35 -18 -50 0 c-27 0 -90 5
-140 10 -483 54 -891 259 -1246 626 -311 323 -494 705 -549 1148 -14 113 -14
419 0 533 58 472 258 866 614 1210 326 316 695 499 1126 558 134 18 454 18
592 0z m-230 -3825 c38 -38 40 -43 35 -86 -4 -37 -13 -54 -48 -90 -52 -53 -94
-58 -117 -14 -34 66 23 228 82 230 4 0 26 -18 48 -40z"/>
<path d="M2333 4238 c-6 -7 -23 -39 -38 -70 -16 -32 -33 -58 -39 -58 -7 0 -20
15 -31 33 -45 78 -67 97 -112 97 -45 0 -61 -11 -39 -29 17 -14 28 -133 18
-181 -6 -25 -14 -36 -32 -40 -14 -3 -25 -12 -25 -20 0 -11 16 -16 64 -18 88
-4 95 0 72 40 -19 33 -35 118 -22 118 3 0 21 -27 39 -60 46 -82 62 -80 107 13
l35 72 -4 -70 c-3 -38 -6 -79 -8 -90 -2 -15 6 -23 39 -34 39 -14 44 -14 60 2
16 15 16 18 -1 36 -18 20 -22 53 -18 162 2 58 5 67 23 72 12 3 19 12 17 19 -6
18 -92 23 -105 6z"/>
<path d="M1264 4035 c-3 -8 -24 -20 -47 -27 -85 -25 -137 -118 -105 -185 16
-35 44 -39 117 -20 51 15 97 21 129 18 6 -1 12 -10 12 -20 0 -22 -88 -69 -146
-78 -44 -7 -59 -25 -44 -52 9 -18 17 -20 58 -14 81 11 174 46 194 74 16 21 18
35 12 78 -4 29 -15 62 -24 73 -17 22 -17 22 -119 5 -78 -13 -107 -14 -126 -5
-30 13 -31 20 -7 41 29 27 89 47 119 41 20 -4 33 -1 43 10 11 14 9 21 -15 46
-32 34 -43 37 -51 15z"/>
<path d="M3279 3926 c-26 -12 -74 -40 -108 -61 -41 -24 -80 -40 -113 -44 -28
-3 -53 -11 -55 -17 -5 -14 105 -96 118 -89 5 4 9 16 9 28 1 71 31 85 101 45
38 -21 39 -23 39 -81 0 -54 -2 -58 -20 -52 -29 9 -37 -20 -14 -47 25 -27 64
-42 78 -28 11 11 39 348 30 362 -8 12 -14 10 -65 -16z m9 -77 c-4 -31 -24 -35
-39 -8 -10 19 -9 25 7 36 22 16 37 4 32 -28z"/>
<path d="M2110 3903 c-409 -40 -720 -180 -1003 -452 -129 -124 -261 -295 -314
-406 -20 -41 -25 -43 -38 -12 -14 30 -58 27 -248 -23 -115 -29 -155 -44 -166
-59 -17 -26 -10 -36 74 -95 70 -51 122 -105 140 -150 18 -41 25 -47 45 -36 22
12 43 61 38 92 -2 18 -10 24 -42 28 -52 7 -84 47 -70 87 9 27 66 73 90 73 6 0
17 -14 23 -30 5 -17 13 -30 18 -30 4 0 29 21 56 48 l48 47 -31 -70 c-86 -193
-124 -390 -124 -655 0 -302 42 -489 164 -735 86 -174 190 -315 337 -456 141
-134 256 -215 418 -295 238 -116 428 -158 725 -158 267 0 445 34 663 128 371
161 719 516 866 886 144 362 157 788 35 1165 -122 376 -442 745 -812 938 -247
129 -609 198 -892 170z m477 -61 c215 -47 424 -138 593 -259 122 -88 307 -272
392 -393 138 -194 229 -415 269 -653 28 -163 23 -468 -10 -621 -86 -393 -315
-737 -654 -979 -168 -121 -352 -202 -572 -253 -112 -26 -135 -28 -345 -29
-195 0 -240 3 -337 23 -158 32 -249 63 -398 137 -393 195 -708 569 -828 985
-47 161 -60 282 -54 509 7 292 40 431 162 676 230 461 673 787 1184 870 129
21 476 13 598 -13z m-2087 -929 c-1 -10 -26 -43 -33 -43 -12 0 -37 32 -32 41
7 11 65 12 65 2z"/>
<path d="M1482 3250 c-124 -19 -147 -82 -76 -206 46 -78 97 -107 140 -79 40
26 62 70 55 112 -5 32 -11 38 -50 51 -41 14 -45 13 -58 -4 -17 -24 -12 -38 15
-42 23 -3 31 -35 12 -47 -15 -9 -80 38 -80 58 0 32 28 85 48 91 44 14 135 -45
170 -109 23 -41 22 -187 -2 -290 -39 -170 -163 -451 -276 -624 -33 -51 -63
-92 -65 -90 -2 2 5 119 16 259 31 411 34 535 16 607 -33 125 -94 204 -196 251
-96 45 -155 31 -208 -48 -43 -62 -22 -141 50 -194 38 -28 116 -29 146 -2 26
23 29 100 5 134 -19 27 -63 29 -95 3 -20 -16 -21 -21 -10 -35 10 -12 18 -13
33 -5 16 8 24 7 36 -4 32 -33 -25 -77 -72 -56 -30 14 -46 48 -46 98 0 59 19
76 82 76 100 0 157 -72 195 -245 25 -118 25 -543 -1 -740 -26 -203 -5 -180
-164 -180 l-135 0 -34 39 c-39 46 -87 59 -148 39 -68 -22 -96 -112 -57 -188
20 -41 53 -60 105 -60 50 0 93 23 112 60 l16 30 133 0 133 0 -28 -167 c-32
-189 -48 -240 -92 -290 -36 -41 -101 -76 -127 -68 -46 15 -77 132 -47 178 35
54 94 34 75 -26 -18 -54 -16 -82 6 -82 26 0 69 81 61 115 -23 92 -145 97 -192
7 -40 -79 43 -247 123 -247 47 0 121 47 149 94 42 72 84 201 113 348 l28 139
22 -76 c22 -75 81 -205 141 -315 17 -30 31 -63 31 -73 0 -28 -24 -78 -63 -129
-37 -48 -49 -81 -32 -86 6 -1 59 24 119 55 114 61 225 150 212 171 -4 7 -31
12 -64 12 -31 0 -62 4 -68 8 -18 12 -122 168 -156 235 -27 55 -78 179 -78 192
0 3 101 5 225 5 l225 0 0 -430 0 -430 -42 21 c-55 29 -130 29 -167 2 -36 -27
-49 -94 -28 -145 12 -29 24 -39 57 -49 36 -11 48 -10 103 9 81 29 89 28 111
-9 26 -43 94 -73 149 -64 65 11 115 34 142 67 28 34 32 66 11 107 -20 38 -82
91 -107 91 -28 0 -77 -27 -89 -49 -15 -29 -12 -87 5 -101 20 -17 45 3 45 37 0
31 22 39 54 18 35 -23 35 -66 0 -94 -41 -33 -68 -27 -124 27 l-50 48 0 472 0
472 175 0 175 0 0 -295 0 -294 -30 -16 c-43 -22 -63 -68 -57 -129 4 -40 11
-55 37 -79 30 -27 37 -29 97 -25 86 5 106 25 111 113 l4 66 -41 39 -41 39 0
291 0 290 150 0 150 0 1 -432 c1 -238 0 -442 -1 -453 -3 -28 -27 -53 -85 -86
-57 -33 -100 -37 -113 -11 -14 26 3 60 34 68 21 5 31 2 44 -16 11 -15 23 -21
34 -17 15 6 15 9 2 35 -34 66 -91 75 -138 24 -22 -25 -28 -42 -28 -77 0 -64
24 -85 96 -85 65 0 102 15 164 69 l45 38 38 -25 c22 -15 57 -27 87 -30 44 -4
52 -2 80 26 26 26 30 38 30 82 0 93 -68 125 -167 80 l-43 -19 0 414 0 415 196
0 196 0 -43 -77 c-23 -43 -64 -113 -91 -155 l-50 -78 -77 0 c-43 0 -80 -3 -84
-6 -9 -9 16 -55 43 -79 12 -11 51 -57 87 -103 67 -85 116 -123 136 -103 8 8 4
26 -16 66 -22 46 -27 69 -27 134 l0 79 83 138 c72 122 82 135 84 109 14 -165
81 -473 121 -551 23 -45 57 -79 89 -88 35 -11 103 25 157 83 47 51 48 54 44
102 -6 55 -41 103 -84 113 -39 10 -112 -27 -120 -60 -10 -40 16 -109 41 -109
17 0 20 6 17 44 -3 44 17 81 43 81 22 0 45 -37 45 -73 0 -50 -62 -117 -109
-117 -101 0 -181 251 -181 571 l0 79 184 0 c171 0 185 -1 190 -18 27 -83 186
-96 227 -20 20 38 17 123 -7 155 -49 66 -166 63 -209 -4 l-20 -32 -181 -1
-181 0 4 133 c16 546 104 845 271 919 40 18 45 18 68 3 63 -41 47 -155 -23
-155 -23 0 -23 2 -17 49 6 43 4 50 -14 60 -52 28 -87 -102 -39 -147 59 -55
133 -52 172 7 45 68 49 98 18 159 -67 133 -163 135 -288 8 -124 -128 -171
-285 -212 -709 -11 -115 -22 -186 -28 -184 -24 8 -155 374 -186 520 -27 128
-30 288 -6 367 24 80 65 114 153 125 42 6 52 3 72 -15 31 -29 30 -89 -1 -118
-47 -44 -82 -19 -72 51 8 49 -2 63 -35 52 -29 -9 -41 -39 -34 -85 9 -57 43
-104 77 -108 54 -6 157 83 157 137 0 66 -83 141 -157 141 -164 0 -290 -227
-255 -457 17 -105 103 -361 195 -573 l75 -175 -385 -3 c-213 -1 -388 -1 -389
1 -2 2 -4 156 -4 343 l-1 339 89 3 89 3 27 -54 c39 -77 66 -106 101 -109 l30
-3 3 214 c2 133 -1 218 -7 224 -18 18 -54 -17 -101 -104 l-47 -84 -92 -3 -91
-3 1 103 0 103 105 95 c130 119 132 132 24 143 -86 9 -332 0 -367 -14 -13 -5
-23 -14 -23 -20 0 -6 41 -54 90 -107 l90 -97 0 -102 0 -103 -75 0 c-41 0 -78
-1 -82 -1 -5 -1 -34 45 -66 102 -46 84 -62 104 -80 104 l-22 0 -3 -215 c-2
-170 1 -220 11 -234 22 -30 39 -15 91 78 l48 86 89 0 89 0 0 -345 0 -345 -430
0 -431 0 24 43 c14 23 65 112 114 197 216 372 253 476 253 713 0 173 -27 255
-98 291 -37 19 -116 26 -180 16z m-604 -1262 c7 -7 12 -27 12 -45 0 -27 -5
-35 -27 -44 -54 -20 -100 30 -73 80 12 24 68 29 88 9z m2845 -8 c18 -26 10
-68 -15 -81 -48 -26 -98 23 -78 76 8 20 16 25 44 25 24 0 39 -7 49 -20z
m-1415 -742 c29 -29 4 -98 -36 -98 -48 0 -75 48 -52 91 12 22 68 27 88 7z
m542 -206 c0 -36 -26 -72 -52 -72 -21 0 -78 36 -78 49 0 11 83 51 108 51 17 0
22 -6 22 -28z m-1122 -12 c17 -11 32 -24 32 -29 0 -16 -87 -44 -115 -37 -31 8
-33 38 -5 66 25 25 46 25 88 0z"/>
<path d="M4022 3165 c-29 -30 -176 -105 -206 -105 -12 0 -27 5 -34 12 -9 9
-15 9 -23 1 -18 -18 32 -128 57 -128 14 0 18 8 18 35 1 26 7 38 28 49 22 13
29 13 42 2 31 -26 20 -76 -36 -152 -18 -26 10 -117 44 -142 37 -28 52 -14 28
26 -25 41 -26 89 -1 111 11 10 24 29 30 44 10 23 17 27 56 28 64 1 95 25 95
73 0 37 -53 171 -68 171 -4 0 -18 -11 -30 -25z m38 -115 c0 -41 -20 -62 -50
-52 -19 5 -40 32 -40 49 0 14 71 54 83 46 4 -2 7 -22 7 -43z"/>
<path d="M567 1874 c-4 -4 -7 -20 -7 -35 0 -34 -27 -50 -125 -75 l-67 -17 -23
29 c-32 40 -46 23 -35 -43 10 -59 30 -106 45 -106 6 0 16 12 23 26 15 31 57
45 160 54 40 3 75 9 77 13 2 4 -1 40 -8 80 -12 68 -23 90 -40 74z"/>
<path d="M3912 1690 c-43 -7 -68 -23 -74 -50 -2 -11 6 -13 34 -11 24 1 57 -6
90 -22 79 -36 96 -55 100 -107 3 -44 2 -45 -37 -56 -32 -9 -40 -15 -40 -34 0
-17 8 -26 28 -33 26 -8 32 -6 58 24 38 45 43 69 29 131 -32 133 -82 175 -188
158z"/>
<path d="M3805 1560 c-4 -6 -3 -16 3 -22 6 -6 12 -6 17 2 4 6 3 16 -3 22 -6 6
-12 6 -17 -2z"/>
<path d="M1083 933 c-12 -18 -19 -52 -22 -106 -3 -69 0 -83 18 -108 22 -30 21
-49 -4 -49 -23 0 -47 45 -54 100 -3 28 -10 51 -16 52 -16 3 -55 -62 -55 -91 0
-75 119 -134 205 -101 25 9 27 14 20 48 -3 20 -17 56 -31 79 -13 23 -24 52
-24 65 0 31 27 68 49 68 27 0 40 -21 47 -73 4 -26 12 -54 18 -62 10 -14 16
-11 45 19 35 36 37 66 4 66 -11 0 -27 18 -42 46 -40 75 -123 100 -158 47z"/>
<path d="M3212 878 c-22 -22 -15 -67 12 -80 43 -19 36 -108 -8 -108 -34 0 -45
13 -49 55 -2 21 -9 41 -16 43 -7 2 -30 -8 -52 -23 -45 -29 -49 -58 -9 -63 21
-3 32 -18 63 -85 22 -49 36 -94 35 -112 -4 -40 28 -45 69 -11 46 39 48 63 7
81 -42 17 -43 36 -3 70 41 34 60 29 74 -20 9 -33 15 -40 35 -37 68 7 106 63
47 70 -24 3 -34 17 -83 118 -51 103 -59 114 -83 114 -15 0 -32 -5 -39 -12z"/>
</g>
</svg>
