<?xml version="1.0" standalone="no"?>
<!DOCTYPE svg PUBLIC "-//W3C//DTD SVG 20010904//EN"
 "http://www.w3.org/TR/2001/REC-SVG-20010904/DTD/svg10.dtd">
<svg version="1.0" xmlns="http://www.w3.org/2000/svg"
 width="439.378017pt" height="439.314705pt" viewBox="0 0 439.378017 439.314705"
 preserveAspectRatio="xMidYMid meet">
<metadata>
Created by potrace 1.16, written by Peter Selinger 2001-2019
</metadata>
<g transform="translate(-5.459356,445.559666) scale(0.100000,-0.100000)"
fill="#000000" stroke="none">
<path d="M2025 4449 c-460 -47 -838 -206 -1186 -497 -222 -186 -440 -458 -564
-702 -89 -176 -166 -425 -202 -650 -25 -160 -25 -519 0 -678 73 -465 258 -840
579 -1177 354 -371 756 -583 1253 -660 232 -37 577 -28 810 20 600 124 1126
508 1450 1060 287 487 362 1135 198 1720 -95 342 -285 657 -563 935 -342 340
-745 546 -1210 615 -128 19 -442 27 -565 14z m549 -85 c363 -50 707 -201 1001
-437 103 -83 303 -289 383 -394 213 -281 347 -603 398 -960 23 -162 24 -468 0
-626 -67 -463 -265 -854 -603 -1191 -342 -343 -729 -537 -1213 -607 -128 -19
-471 -16 -610 5 -460 69 -852 267 -1185 601 -263 262 -447 570 -543 910 -119
417 -104 898 40 1320 36 104 153 336 223 440 370 551 953 902 1586 954 141 12
379 5 523 -15z"/>
<path d="M2045 4339 c-516 -49 -941 -256 -1308 -638 -327 -341 -510 -730 -562
-1194 -48 -429 30 -867 216 -1215 196 -368 523 -695 891 -891 487 -260 1148
-303 1688 -109 408 146 804 467 1055 857 381 591 417 1426 89 2066 -173 338
-499 677 -831 867 -365 208 -800 298 -1238 257z m585 -57 c432 -79 814 -291
1121 -622 313 -336 482 -695 539 -1145 16 -120 12 -427 -6 -556 -63 -457 -265
-845 -611 -1180 -333 -322 -728 -509 -1175 -558 -122 -14 -375 -14 -493 -1
-482 54 -894 261 -1245 626 -342 355 -535 792 -558 1266 -32 645 147 1139 573
1577 376 386 835 598 1355 623 120 6 389 -10 500 -30z"/>
<path d="M2260 4273 c-86 -28 -101 -36 -115 -63 -31 -60 18 -128 128 -173 57
-24 49 -47 -17 -47 -44 0 -60 5 -85 26 -44 37 -65 26 -58 -27 3 -23 11 -47 17
-53 16 -15 179 -14 208 3 13 7 30 28 38 47 12 30 12 39 0 69 -16 38 -78 74
-127 75 -26 0 -59 27 -59 48 0 16 34 32 70 32 24 0 33 -6 40 -26 6 -14 16 -24
23 -21 12 4 30 105 21 119 -7 11 -31 8 -84 -9z"/>
<path d="M2073 3900 c-378 -40 -685 -182 -960 -444 -374 -356 -548 -817 -505
-1339 26 -306 117 -566 285 -804 79 -113 297 -331 410 -410 367 -258 834 -351
1301 -257 380 76 729 306 986 648 193 258 298 574 305 921 11 482 -147 878
-485 1215 -251 250 -530 395 -870 454 -114 20 -354 28 -467 16z m519 -59 c309
-67 566 -209 798 -441 138 -139 230 -264 309 -425 67 -135 101 -232 133 -379
20 -88 22 -131 22 -336 0 -205 -2 -248 -22 -336 -32 -147 -66 -244 -133 -379
-79 -161 -171 -286 -309 -425 -235 -235 -485 -371 -807 -440 -125 -27 -400
-38 -540 -21 -380 46 -694 206 -971 496 -206 216 -341 469 -403 753 -27 125
-37 436 -19 578 49 393 249 750 570 1018 224 188 450 293 745 347 142 26 485
21 627 -10z"/>
<path d="M2968 3394 c-5 -4 -8 -103 -8 -221 l0 -213 -190 0 -190 0 -2 168 -3
167 -305 0 -305 0 -3 -167 -2 -168 -165 0 -165 0 -2 168 -3 167 -290 0 -290 0
-3 -789 -2 -788 -36 6 c-88 17 -204 -37 -204 -94 0 -67 41 -120 92 -120 44 0
126 40 162 79 34 35 47 38 81 15 37 -24 60 -67 108 -207 52 -148 78 -186 149
-221 123 -60 271 -37 359 54 83 88 130 207 145 368 7 71 7 72 35 72 l29 0 0
-265 0 -265 -39 0 c-60 0 -90 16 -107 56 -27 65 -39 37 -39 -91 0 -127 12
-156 38 -92 17 39 58 60 108 55 34 -3 34 -4 33 -52 0 -50 -14 -69 -69 -102
-11 -6 -15 -15 -11 -23 11 -18 221 -14 237 5 9 11 4 17 -24 29 -45 18 -57 40
-57 99 l0 46 38 0 c48 0 82 -18 101 -54 28 -50 36 -31 36 89 0 116 -8 141 -32
94 -21 -40 -52 -59 -99 -59 l-44 0 0 265 0 265 90 0 90 0 2 -207 3 -208 215 0
215 0 3 208 2 207 100 0 100 0 0 -175 c0 -202 -2 -197 95 -185 146 19 193 54
366 270 46 57 90 111 97 120 11 12 12 -5 7 -100 -8 -146 -9 -150 -45 -150 -71
0 -110 -45 -110 -125 0 -93 46 -131 146 -123 75 6 96 29 102 105 3 50 0 63
-23 97 l-26 39 16 131 c16 139 42 261 76 363 32 98 12 109 -60 33 -38 -40 -54
-50 -82 -51 -55 -2 -71 1 -127 23 -82 32 -94 73 -36 131 43 43 75 50 231 51
96 1 115 4 140 22 41 30 79 112 88 189 4 37 15 81 25 99 27 44 50 150 50 228
0 93 -28 164 -94 236 -46 50 -54 65 -64 120 -15 87 -44 143 -105 202 -60 59
-199 131 -297 154 -76 18 -242 31 -252 20z m276 -105 c78 -26 181 -80 230
-121 42 -34 86 -116 86 -160 0 -25 -3 -27 -28 -22 -77 16 -202 -67 -202 -134
0 -42 42 -89 91 -102 61 -17 110 1 159 58 l41 47 24 -30 c50 -61 68 -246 31
-314 l-18 -35 -20 27 c-25 34 -68 57 -105 57 -41 -1 -103 -32 -141 -73 -47
-49 -48 -95 -2 -142 34 -35 86 -65 112 -65 8 0 43 18 76 40 l62 40 0 -27 c0
-39 -35 -88 -89 -122 -51 -33 -84 -38 -126 -19 -19 9 -42 8 -97 -2 -88 -15
-116 -28 -156 -74 -26 -30 -30 -41 -26 -73 16 -113 73 -182 168 -204 31 -7 56
-15 56 -18 0 -19 -170 -228 -233 -287 -61 -58 -176 -134 -201 -134 -3 0 -7 78
-8 172 l-3 173 -170 0 -170 0 -3 -212 -2 -213 -145 0 -145 0 -2 213 -3 212
-225 0 -224 0 -13 -99 c-28 -230 -104 -369 -222 -411 -60 -21 -84 -19 -141 10
-84 43 -114 77 -184 213 -42 81 -84 148 -116 182 l-50 54 0 373 0 373 240 0
240 0 0 -384 0 -384 -35 -21 c-40 -23 -55 -54 -55 -112 0 -80 41 -119 125
-119 90 0 126 34 127 120 0 59 -21 96 -65 118 l-27 13 0 385 0 384 685 0 c586
0 685 -2 685 -14 0 -25 49 -74 86 -86 51 -17 119 -4 157 29 27 25 31 36 35 93
7 112 -35 161 -138 162 -68 1 -105 -20 -130 -72 l-15 -32 -352 0 -353 0 0 194
0 194 30 12 c40 17 60 57 60 119 0 41 -5 56 -27 81 -53 58 -177 47 -210 -20
-22 -44 -16 -115 12 -149 14 -16 35 -33 45 -36 19 -6 20 -17 20 -201 l0 -194
-570 0 -570 0 0 355 0 355 95 0 95 0 0 -100 0 -100 -29 0 c-35 0 -79 33 -83
63 -2 12 -10 22 -18 22 -13 0 -15 -20 -15 -122 0 -68 4 -124 9 -125 5 -2 19
15 30 37 17 31 29 42 58 49 21 5 41 6 45 2 4 -4 1 -26 -7 -49 -12 -34 -22 -44
-50 -53 -19 -7 -35 -18 -35 -25 0 -11 26 -14 124 -14 134 0 163 12 97 39 -38
16 -56 41 -56 80 0 53 80 22 106 -41 27 -64 39 -35 39 97 0 134 -12 163 -40
96 -17 -39 -40 -56 -79 -56 l-26 0 0 100 0 100 90 0 90 0 2 -172 3 -173 235 0
235 0 3 173 2 172 235 0 235 0 2 -172 3 -173 265 0 265 0 3 221 2 220 71 -8
c40 -5 99 -18 133 -29z m-915 -223 c20 -24 9 -69 -20 -85 -24 -13 -29 -13 -53
2 -28 19 -36 63 -14 85 17 17 73 15 87 -2z m1217 -171 c4 -9 -6 -34 -20 -56
-23 -35 -31 -40 -59 -37 -24 2 -34 9 -41 31 -15 42 12 62 107 76 4 0 10 -6 13
-14z m-322 -367 c9 -12 16 -34 16 -48 0 -44 -26 -70 -71 -70 -55 0 -83 30 -75
79 7 44 28 61 77 61 28 0 42 -6 53 -22z m324 -63 c29 -9 52 -21 52 -27 0 -17
-78 -90 -92 -86 -20 7 -58 68 -58 94 0 36 24 41 98 19z m-2548 -811 c0 -4 -9
-22 -21 -40 -27 -45 -66 -55 -91 -24 -22 28 -19 41 13 57 25 13 99 18 99 7z
m661 -64 c40 -22 17 -100 -31 -100 -35 0 -60 23 -60 55 0 46 46 68 91 45z
m1769 -229 c14 -28 12 -57 -6 -75 -34 -34 -94 -9 -94 39 0 13 7 31 16 39 22
23 71 20 84 -3z"/>
<path d="M571 3395 c-57 -66 -99 -170 -82 -204 19 -34 45 -33 160 8 99 35 111
37 111 21 0 -21 -54 -70 -76 -70 -8 0 -17 -7 -20 -15 -8 -20 34 -85 55 -85 10
0 32 21 50 48 17 26 41 59 53 74 24 31 28 108 7 134 -20 24 -81 10 -165 -37
-75 -41 -104 -43 -104 -5 0 32 28 66 67 82 36 16 35 31 -5 67 -19 17 -20 17
-51 -18z"/>
<path d="M3866 3310 c-37 -24 -47 -35 -44 -53 3 -19 10 -23 62 -27 59 -5 59
-5 41 -24 -11 -11 -44 -35 -74 -54 l-55 -35 -39 21 c-69 38 -74 14 -18 -85 46
-81 73 -91 81 -29 5 37 9 41 79 78 40 21 75 37 77 35 2 -1 -5 -30 -15 -62 -13
-42 -16 -64 -9 -72 15 -18 23 -16 69 13 l42 26 -6 61 c-6 79 -44 163 -91 205
-20 17 -40 32 -44 32 -5 0 -30 -14 -56 -30z"/>
<path d="M649 1503 c-12 -27 -29 -69 -40 -95 -10 -26 -37 -84 -60 -129 -35
-71 -39 -84 -26 -96 12 -12 25 -11 95 6 96 25 182 27 223 5 67 -34 79 16 24
101 -19 30 -41 55 -50 55 -16 0 -35 -30 -35 -57 0 -32 -15 -45 -43 -38 -40 10
-72 106 -48 144 8 12 12 12 25 2 9 -7 23 -11 31 -7 13 5 13 12 -4 56 -23 60
-47 100 -62 100 -5 0 -19 -21 -30 -47z m-25 -254 c-3 -5 -14 -9 -25 -9 -19 0
-19 1 -3 32 17 32 17 32 25 9 5 -12 7 -27 3 -32z"/>
<path d="M3742 1395 c-83 -26 -115 -77 -107 -171 7 -87 23 -130 56 -158 42
-35 98 -35 170 2 71 36 100 88 93 169 -12 146 -83 199 -212 158z m81 -86 c64
-45 102 -106 93 -145 -6 -22 -69 -64 -96 -64 -11 0 -60 52 -99 106 -21 29 -22
37 -12 65 14 40 38 79 50 79 4 0 33 -18 64 -41z"/>
<path d="M2031 576 c-7 -8 -13 -34 -14 -58 -2 -38 0 -43 18 -40 11 2 37 17 57
33 32 25 46 29 97 29 l61 0 1 -42 c0 -24 4 -63 8 -88 9 -56 -3 -86 -41 -99
-24 -9 -29 -15 -26 -38 l3 -28 90 0 c86 0 90 1 93 23 3 18 -3 25 -28 34 -30
10 -32 13 -26 47 3 20 6 71 6 113 0 72 1 77 23 80 14 2 22 10 22 23 0 19 -8
20 -166 23 -135 2 -168 0 -178 -12z"/>
</g>
</svg>
