<?xml version="1.0" standalone="no"?>
<!DOCTYPE svg PUBLIC "-//W3C//DTD SVG 20010904//EN"
 "http://www.w3.org/TR/2001/REC-SVG-20010904/DTD/svg10.dtd">
<svg version="1.0" xmlns="http://www.w3.org/2000/svg"
 width="439.831380pt" height="439.563781pt" viewBox="0 0 439.831380 439.563781"
 preserveAspectRatio="xMidYMid meet">
<metadata>
Created by potrace 1.16, written by Peter Selinger 2001-2019
</metadata>
<g transform="translate(-5.009564,444.681306) scale(0.100000,-0.100000)"
fill="#000000" stroke="none">
<path d="M2090 4444 c-19 -2 -78 -9 -130 -14 -487 -54 -948 -287 -1302 -659
-351 -368 -538 -768 -593 -1267 -64 -571 81 -1122 409 -1561 101 -136 330
-365 463 -466 361 -270 755 -406 1228 -424 544 -21 1031 135 1450 465 188 149
424 421 548 632 263 452 350 1027 237 1579 -80 393 -288 769 -595 1076 -345
345 -746 549 -1215 620 -101 15 -428 28 -500 19z m420 -80 c261 -25 581 -133
819 -276 197 -118 438 -327 584 -508 365 -452 517 -1002 446 -1615 -53 -456
-261 -875 -605 -1219 -428 -427 -937 -632 -1544 -621 -495 9 -908 155 -1280
453 -432 346 -706 815 -785 1340 -49 332 -19 698 85 1016 169 519 595 998
1104 1241 241 116 480 177 781 199 57 4 312 -3 395 -10z"/>
<path d="M2030 4328 c-207 -19 -466 -87 -655 -173 -342 -156 -677 -453 -905
-800 -317 -485 -398 -1185 -204 -1775 161 -491 541 -936 1016 -1189 595 -318
1402 -306 1988 29 289 166 570 433 755 719 278 430 378 1006 270 1548 -92 455
-337 858 -715 1175 -429 360 -957 518 -1550 466z m508 -43 c457 -58 875 -275
1207 -627 282 -300 459 -646 530 -1038 23 -125 32 -480 16 -621 -51 -445 -237
-836 -556 -1167 -340 -354 -730 -554 -1205 -618 -123 -16 -396 -18 -525 -4
-483 54 -893 260 -1245 626 -313 325 -495 705 -550 1148 -14 114 -14 419 0
533 59 472 258 866 611 1208 380 368 773 539 1329 578 80 5 273 -4 388 -18z"/>
<path d="M2171 4259 c-49 -9 -94 -35 -86 -49 3 -5 19 -11 35 -15 l30 -7 0 -98
c0 -98 0 -99 -30 -120 -46 -33 -28 -42 73 -37 96 5 121 20 68 38 -27 10 -31
16 -31 48 0 35 3 39 39 49 21 7 50 21 65 33 52 41 23 122 -54 153 -44 18 -46
18 -109 5z m130 -81 c10 -18 8 -24 -11 -40 -12 -10 -33 -18 -46 -18 -21 0 -24
4 -24 40 0 39 1 40 35 40 25 0 37 -6 46 -22z"/>
<path d="M2105 3893 c-294 -25 -583 -130 -814 -295 -114 -82 -311 -280 -395
-398 -262 -368 -356 -859 -255 -1329 42 -193 134 -400 252 -568 79 -113 297
-331 410 -410 416 -293 962 -371 1467 -212 401 127 770 448 959 834 69 139 94
210 127 355 70 306 49 657 -56 955 -109 309 -353 611 -653 811 -212 142 -453
226 -726 253 -97 10 -227 12 -316 4z m482 -61 c215 -47 421 -137 593 -259 121
-87 306 -271 393 -393 123 -173 220 -399 264 -615 28 -140 25 -512 -5 -651
-69 -317 -208 -570 -442 -804 -234 -234 -489 -373 -805 -440 -130 -27 -402
-38 -541 -21 -383 48 -693 205 -965 489 -227 236 -367 511 -420 823 -18 108
-20 151 -16 334 4 163 10 231 26 303 72 321 234 604 477 831 243 227 519 364
840 416 132 21 478 14 601 -13z"/>
<path d="M2414 3135 c-7 -18 12 -45 32 -45 29 0 54 -39 54 -85 0 -42 -2 -45
-25 -45 -44 0 -84 27 -93 63 -6 25 -14 32 -33 32 l-24 0 0 -125 c0 -121 1
-125 22 -128 17 -3 25 5 37 32 16 39 42 56 85 56 l31 0 0 -120 0 -120 -105 0
-105 0 -2 218 -3 217 -465 0 -465 0 -2 -170 c-1 -93 -2 -191 -2 -217 l-1 -48
-145 0 -144 0 -3 157 c-3 180 3 206 57 229 25 10 35 20 33 32 -3 15 -18 17
-128 17 -110 0 -125 -2 -128 -17 -2 -13 8 -22 37 -34 23 -9 42 -17 43 -18 1 0
4 -98 7 -216 l6 -215 73 -3 72 -3 0 -597 0 -597 -30 -17 c-79 -45 -77 -189 2
-222 44 -19 113 -14 146 11 68 50 62 169 -11 208 l-37 20 2 175 3 175 117 3
118 3 2 -173 3 -173 180 0 180 0 3 173 2 172 35 0 35 0 0 -315 0 -315 -55 0
c-81 0 -118 19 -139 69 -14 37 -20 42 -44 39 l-27 -3 0 -140 0 -140 29 0 c24
0 31 6 40 32 19 56 39 67 121 71 l75 4 0 -75 c0 -87 -15 -114 -70 -126 -32 -6
-35 -10 -35 -41 l0 -35 145 0 145 0 0 33 c0 30 -4 35 -38 47 -56 19 -66 39
-67 123 l0 72 60 0 c80 0 109 -15 131 -68 17 -38 22 -43 46 -40 l28 3 0 140 0
140 -28 3 c-23 3 -30 -2 -41 -30 -24 -57 -49 -72 -127 -76 l-69 -4 0 316 0
317 53 -3 52 -3 5 -170 5 -170 195 0 195 0 3 163 3 163 432 -3 c420 -3 487 -8
487 -36 0 -14 -127 -161 -169 -196 -23 -19 -55 -37 -71 -41 -25 -6 -35 -2 -58
23 -61 65 -148 79 -235 37 -91 -43 -82 -147 16 -184 41 -16 127 -13 177 4 24
8 44 14 45 13 2 -2 14 -25 28 -53 14 -27 39 -63 57 -80 28 -26 38 -30 88 -29
65 0 121 25 215 95 66 49 100 108 117 206 12 72 9 94 -32 185 l-31 67 61 93
c110 171 160 328 169 533 5 111 3 142 -15 212 -44 173 -137 306 -252 357 -149
67 -327 56 -493 -31 -83 -44 -140 -106 -168 -184 l-22 -59 -118 0 -119 0 0
120 0 120 36 0 c48 0 71 -14 89 -56 10 -25 20 -35 32 -32 16 3 18 17 18 128 0
110 -2 125 -17 128 -12 2 -22 -8 -31 -30 -18 -44 -38 -59 -87 -65 l-40 -6 0
37 c0 50 15 75 56 92 27 12 35 20 32 37 -3 21 -8 22 -126 25 -103 2 -123 0
-128 -13z m-202 -332 l3 -218 302 -3 301 -2 120 -153 c66 -83 155 -197 199
-252 78 -96 80 -100 71 -134 -12 -42 3 -99 31 -125 47 -42 146 -39 189 7 30
32 39 102 18 150 -24 59 -104 82 -178 52 -13 -5 -43 26 -130 137 -239 300
-248 314 -248 365 0 80 57 141 196 211 145 73 267 81 386 25 125 -59 179 -134
212 -295 40 -197 8 -372 -111 -613 -88 -176 -102 -198 -127 -190 -73 21 -183
25 -596 23 l-455 -3 -3 -162 -2 -163 -125 0 -125 0 -2 173 -3 172 -195 0 -195
0 -5 -180 -5 -180 -107 -3 -108 -3 -1 163 c-1 90 -2 172 -3 183 -1 19 -9 20
-158 23 l-158 3 0 384 0 384 108 3 107 3 3 88 3 87 204 0 205 0 0 -24 c0 -28
-25 -62 -60 -79 -14 -7 -25 -21 -25 -32 0 -19 7 -20 120 -20 106 0 120 2 123
17 2 12 -8 23 -31 34 -36 17 -57 49 -57 84 0 17 7 20 46 20 59 0 81 -12 99
-56 10 -25 20 -35 32 -32 16 3 18 17 18 128 0 111 -2 125 -18 128 -12 3 -22
-7 -32 -32 -18 -44 -40 -56 -99 -56 -39 0 -46 3 -46 20 0 35 21 67 57 84 23
11 33 22 31 34 -3 15 -19 17 -121 20 -103 2 -118 1 -124 -15 -4 -11 0 -20 12
-27 40 -23 75 -65 75 -90 l0 -26 -205 0 -205 0 0 90 0 90 395 0 395 0 2 -217z
m1159 -754 c15 -15 19 -28 14 -47 -8 -32 -21 -42 -55 -42 -35 0 -50 17 -50 57
0 52 52 71 91 32z m119 -434 c19 -20 25 -40 28 -89 10 -150 -73 -261 -210
-281 -56 -8 -92 9 -126 61 -31 48 -28 59 23 79 57 21 193 148 226 209 13 26
27 46 30 46 3 0 16 -11 29 -25z m-473 -171 c18 -14 33 -29 33 -33 0 -12 -75
-41 -106 -41 -41 0 -64 18 -64 48 0 38 17 52 64 52 27 0 50 -8 73 -26z m-1799
-176 c3 -30 -1 -40 -21 -53 -50 -32 -106 22 -77 75 9 17 19 21 53 18 41 -3 42
-4 45 -40z"/>
<path d="M651 3473 c-37 -45 -39 -70 -7 -83 18 -6 27 -20 32 -45 3 -20 5 -38
3 -40 -2 -2 -22 -5 -44 -7 -38 -3 -40 -1 -43 27 -7 66 -31 45 -96 -84 -25 -49
-26 -55 -12 -69 14 -15 21 -14 68 7 76 34 145 48 160 33 7 -7 12 -46 12 -98 1
-97 14 -116 42 -63 32 62 34 88 15 140 l-19 49 23 6 c13 3 37 -2 54 -10 l31
-16 35 47 c40 55 42 80 5 75 -14 -2 -60 -6 -102 -9 -88 -6 -83 -12 -96 106 -4
35 -12 66 -18 68 -7 2 -26 -13 -43 -34z"/>
<path d="M3912 3267 c-13 -30 -39 -59 -80 -90 -67 -52 -77 -55 -91 -28 -7 13
-18 17 -36 13 -14 -2 -28 -8 -30 -13 -7 -10 60 -145 76 -154 14 -10 31 8 43
47 7 19 24 40 43 51 32 18 32 18 46 -5 33 -51 30 -61 -22 -91 -27 -15 -56 -27
-65 -27 -29 0 -29 -28 -2 -75 31 -52 49 -56 73 -17 48 77 107 117 192 128 28
4 53 10 56 13 6 11 -30 84 -49 100 -15 13 -21 10 -51 -23 -19 -21 -40 -36 -47
-34 -6 2 -20 21 -31 41 -27 52 -11 78 46 75 31 -2 42 1 45 13 3 17 -72 119
-88 119 -5 0 -18 -20 -28 -43z"/>
<path d="M669 1484 l-24 -26 25 -17 c90 -60 112 -105 64 -136 -37 -24 -56 -13
-49 29 4 18 3 36 -2 39 -11 7 -83 -39 -83 -53 0 -5 14 -19 30 -32 35 -25 38
-43 11 -58 -28 -15 -62 -12 -82 6 -14 12 -16 26 -12 73 6 67 -5 81 -42 57 -32
-21 -31 -40 5 -134 55 -140 139 -224 132 -132 -2 33 2 38 79 94 77 55 84 58
115 48 44 -13 49 -4 20 39 -12 19 -39 64 -59 101 -38 68 -83 128 -96 128 -4 0
-18 -12 -32 -26z"/>
<path d="M3677 1315 c-97 -129 -109 -166 -61 -187 41 -19 59 -1 59 60 0 84 47
116 102 68 24 -20 25 -26 14 -40 -7 -9 -22 -16 -32 -16 -50 0 -17 -59 36 -63
28 -2 29 0 26 36 -3 43 0 44 45 16 49 -30 46 -60 -10 -99 -25 -16 -49 -30 -54
-30 -5 0 -15 -7 -22 -15 -10 -12 -6 -17 24 -32 24 -11 40 -13 46 -7 26 26 177
250 173 257 -2 4 -17 0 -32 -9 -28 -16 -30 -16 -87 16 -81 45 -94 58 -94 92 0
35 -16 68 -33 68 -7 0 -52 -52 -100 -115z"/>
<path d="M2355 573 c-43 -6 -52 -19 -31 -42 15 -17 17 -30 11 -76 -3 -30 -9
-55 -13 -55 -4 0 -41 37 -83 82 -67 73 -78 81 -93 69 -13 -11 -16 -33 -16
-110 0 -53 -3 -105 -6 -116 -3 -11 -26 -33 -52 -49 -44 -26 -45 -29 -27 -42
10 -8 38 -14 62 -14 52 0 57 9 68 118 4 39 11 74 15 77 4 2 34 -29 66 -71 71
-94 89 -106 148 -102 57 4 62 17 16 40 l-35 18 3 82 c4 124 8 136 49 153 30
13 33 17 23 30 -12 14 -42 17 -105 8z"/>
</g>
</svg>
