<?xml version="1.0" standalone="no"?>
<!DOCTYPE svg PUBLIC "-//W3C//DTD SVG 20010904//EN"
 "http://www.w3.org/TR/2001/REC-SVG-20010904/DTD/svg10.dtd">
<svg version="1.0" xmlns="http://www.w3.org/2000/svg"
 width="438.967795pt" height="439.191787pt" viewBox="0 0 438.967795 439.191787"
 preserveAspectRatio="xMidYMid meet">
<metadata>
Created by potrace 1.16, written by Peter Selinger 2001-2019
</metadata>
<g transform="translate(-5.536942,444.673776) scale(0.100000,-0.100000)"
fill="#000000" stroke="none">
<path d="M2080 4444 c-582 -52 -1037 -268 -1426 -678 -322 -338 -511 -720
-581 -1176 -21 -140 -24 -508 -5 -645 67 -476 256 -866 584 -1210 354 -371
760 -585 1258 -662 161 -24 520 -24 680 0 465 73 840 259 1185 589 368 351
587 781 657 1288 21 158 16 488 -11 659 -73 465 -276 857 -622 1201 -344 342
-747 547 -1209 615 -110 16 -416 27 -510 19z m345 -74 c531 -40 976 -254 1365
-656 316 -327 502 -705 566 -1151 21 -144 23 -456 5 -593 -64 -480 -264 -883
-609 -1226 -183 -182 -369 -315 -585 -419 -199 -95 -370 -147 -597 -181 -159
-24 -483 -24 -640 -1 -463 71 -853 269 -1185 602 -333 333 -527 715 -601 1180
-25 153 -25 497 0 650 73 461 263 837 590 1167 412 416 897 623 1491 637 33 0
123 -4 200 -9z"/>
<path d="M2035 4329 c-630 -57 -1196 -409 -1564 -973 -319 -489 -399 -1184
-205 -1776 184 -560 654 -1058 1203 -1275 536 -212 1192 -188 1696 60 492 242
898 701 1066 1205 160 482 139 1057 -58 1510 -191 441 -564 833 -999 1049
-333 166 -737 237 -1139 200z m582 -55 c192 -32 433 -114 593 -201 413 -224
773 -620 944 -1039 106 -260 147 -478 146 -786 0 -278 -38 -499 -125 -733
-182 -491 -622 -949 -1111 -1156 -261 -111 -507 -159 -814 -159 -252 0 -447
30 -665 101 -499 164 -962 575 -1196 1064 -92 193 -147 378 -175 588 -17 131
-19 443 -4 567 59 469 257 861 611 1206 310 301 652 478 1069 550 196 34 523
33 727 -2z"/>
<path d="M2110 4281 c-40 -7 -55 -39 -22 -48 27 -7 32 -30 32 -143 l0 -96 -31
-11 c-21 -8 -30 -17 -27 -30 3 -16 13 -18 88 -14 47 1 89 7 94 11 15 15 -3 40
-29 40 -23 0 -25 4 -25 44 l0 43 62 7 c34 3 62 5 64 4 1 -2 5 -24 9 -50 7 -44
6 -48 -13 -48 -12 0 -24 -5 -28 -11 -13 -22 22 -37 91 -41 64 -3 70 -1 70 17
0 11 -10 24 -21 29 -16 7 -23 22 -28 54 -10 76 -7 161 8 197 19 46 5 57 -68
53 -57 -3 -81 -20 -38 -26 19 -3 23 -8 18 -25 -3 -12 -6 -37 -6 -54 l0 -33
-55 0 -55 0 0 44 c0 36 4 45 21 49 17 5 19 9 9 26 -11 22 -45 25 -120 12z"/>
<path d="M2065 3889 c-395 -41 -734 -210 -1018 -508 -222 -234 -365 -515 -423
-836 -25 -140 -25 -450 0 -590 42 -232 140 -469 267 -650 84 -118 290 -324
409 -409 185 -132 419 -229 655 -272 136 -25 449 -25 585 0 379 68 696 249
951 540 327 372 458 829 388 1345 -88 645 -616 1211 -1259 1349 -181 39 -374
50 -555 31z m526 -58 c341 -74 641 -252 876 -519 243 -277 374 -599 391 -962
16 -317 -31 -557 -158 -816 -76 -153 -184 -301 -319 -434 -233 -229 -480 -362
-803 -432 -140 -30 -491 -33 -638 -5 -330 63 -621 224 -863 477 -228 237 -365
507 -419 825 -27 161 -22 488 11 633 85 382 297 706 617 949 214 161 433 254
703 298 131 22 476 13 602 -14z"/>
<path d="M1987 3434 c-12 -12 -8 -54 6 -58 6 -2 31 -9 54 -15 53 -15 73 -49
73 -126 l0 -55 -37 0 c-49 0 -108 17 -123 35 -6 7 -15 35 -18 62 -7 45 -9 48
-37 48 l-30 0 0 -180 0 -180 30 0 c28 0 30 2 36 49 8 70 40 96 120 96 l59 0 0
-145 0 -145 -165 0 -165 0 -2 243 -3 242 -315 0 -315 0 0 -295 0 -295 125 -5
125 -5 3 -348 2 -348 -66 -152 c-217 -497 -274 -633 -274 -657 0 -53 29 -64
174 -70 72 -3 139 -10 149 -14 26 -12 41 -45 47 -106 5 -51 7 -55 30 -55 l25
0 0 225 0 225 -25 0 c-24 0 -25 -3 -27 -63 -2 -68 -18 -103 -55 -123 -27 -15
-233 -25 -240 -13 -3 5 68 176 157 379 l163 370 106 3 106 3 2 -413 3 -413
350 0 350 0 3 218 2 217 175 0 175 0 2 -217 3 -218 320 0 320 0 0 455 0 455
-203 3 -202 2 2 238 3 237 225 5 225 5 0 385 0 385 -455 0 -455 0 -3 -242 -2
-243 -160 0 -160 0 0 145 0 145 56 0 c85 0 112 -23 123 -105 6 -37 9 -40 36
-40 l30 0 0 180 0 180 -30 0 c-27 0 -30 -4 -36 -38 -13 -80 -49 -107 -141
-107 l-38 0 0 64 c0 79 17 103 85 121 46 11 50 15 50 41 l0 29 -171 3 c-93 1
-173 -1 -177 -4z m-265 -436 l3 -243 435 0 435 0 3 243 2 242 385 0 385 0 0
-320 0 -320 -227 -2 -228 -3 0 -305 0 -305 198 -3 197 -2 0 -390 0 -390 -245
0 -245 0 -2 223 -3 222 -245 0 -245 0 -3 -222 -2 -223 -280 0 -280 0 -2 413
-3 412 -137 3 -138 3 -2 372 -3 372 -127 3 -128 3 0 229 0 230 250 0 250 0 2
-242z"/>
<path d="M1383 3091 c-30 -19 -35 -26 -47 -84 -8 -36 9 -99 33 -121 30 -28 92
-37 141 -23 49 14 80 59 80 117 0 46 -29 101 -60 117 -38 19 -110 16 -147 -6z
m123 -76 c16 -25 12 -63 -10 -77 -40 -27 -99 10 -89 55 12 50 72 63 99 22z"/>
<path d="M2975 3101 c-54 -22 -79 -103 -55 -175 19 -58 86 -86 160 -66 47 13
71 39 79 87 12 63 -6 121 -42 144 -33 20 -105 25 -142 10z m96 -71 c22 -12 27
-68 7 -88 -29 -29 -98 -4 -98 36 0 48 48 75 91 52z"/>
<path d="M698 3555 c-50 -34 -66 -86 -44 -138 16 -40 54 -62 90 -51 11 3 52
20 89 37 52 23 73 28 85 20 45 -28 9 -78 -62 -88 -26 -4 -49 -11 -52 -16 -8
-13 61 -83 74 -75 6 3 36 42 67 86 48 68 54 82 45 100 -23 44 -118 53 -191 20
-78 -35 -124 -23 -98 27 19 35 62 55 104 47 27 -5 36 -3 41 10 19 50 -84 64
-148 21z"/>
<path d="M3725 3558 c-16 -11 -63 -36 -104 -56 -70 -34 -76 -35 -118 -24 -48
13 -63 10 -63 -16 0 -22 80 -102 102 -102 19 0 22 5 32 53 8 34 28 34 61 0 40
-44 29 -107 -15 -83 -18 10 -25 9 -38 -4 -19 -18 -10 -39 43 -101 27 -33 37
-38 51 -30 17 11 123 302 124 341 0 22 -18 44 -34 43 -6 0 -24 -10 -41 -21z
m-16 -97 c-20 -37 -24 -39 -39 -26 -9 8 -23 15 -30 15 -9 0 -11 3 -4 10 13 13
88 49 93 45 1 -2 -7 -22 -20 -44z"/>
<path d="M521 2151 c-6 -11 -11 -26 -11 -33 -1 -7 -30 -31 -66 -53 -69 -42
-174 -135 -174 -155 0 -16 56 -37 159 -58 85 -17 94 -21 112 -51 14 -23 26
-31 41 -29 20 3 22 8 19 60 -4 82 -14 113 -37 113 -13 0 -20 -8 -22 -27 -6
-54 -56 -25 -71 40 -9 41 -8 44 16 55 18 8 29 8 43 -1 29 -18 39 4 37 83 -2
57 -5 70 -19 73 -9 2 -21 -6 -27 -17z m-88 -198 c3 -27 4 -49 2 -51 -5 -5 -70
9 -84 18 -11 6 -11 12 3 31 14 21 51 48 67 49 4 0 9 -21 12 -47z"/>
<path d="M3920 2050 c-12 -22 -14 -277 -2 -284 12 -7 90 -15 96 -9 7 7 -21 62
-45 88 -16 18 -17 27 -8 58 10 39 13 40 84 38 91 -3 114 -11 117 -39 2 -21 8
-27 28 -27 24 0 25 3 28 74 3 76 -7 106 -30 83 -8 -8 -47 -12 -108 -12 -88 0
-96 2 -105 22 -13 27 -42 32 -55 8z"/>
<path d="M3128 819 c-32 -16 -58 -33 -58 -38 0 -16 30 -33 50 -28 16 4 24 -2
36 -31 l15 -37 -36 -29 c-20 -16 -42 -41 -50 -57 -13 -25 -13 -33 1 -69 19
-46 38 -60 86 -60 60 0 198 80 198 115 0 7 -6 18 -14 24 -12 10 -20 9 -40 -4
l-25 -17 -50 100 c-41 82 -47 101 -35 106 19 7 15 50 -6 53 -8 1 -41 -11 -72
-28z m88 -224 c18 -44 19 -41 -15 -55 -33 -13 -66 -7 -75 15 -6 17 40 75 60
75 8 0 22 -16 30 -35z"/>
<path d="M1369 794 c-9 -11 -8 -18 5 -32 9 -10 16 -24 16 -30 0 -24 -80 -195
-102 -219 l-23 -25 30 -24 c40 -32 81 -48 102 -40 16 7 16 9 -5 24 -22 17 -22
18 -5 60 20 47 22 48 85 26 l46 -15 -16 -40 c-9 -24 -21 -39 -32 -39 -22 0
-46 -28 -34 -39 5 -5 37 -19 72 -31 73 -27 95 -19 72 24 -11 22 -10 33 10 88
51 139 56 148 88 142 19 -4 32 -1 42 11 17 21 10 26 -83 60 -61 21 -81 25 -90
16 -9 -10 -7 -17 12 -32 23 -18 23 -21 9 -57 -16 -42 -36 -46 -100 -19 l-36
15 11 47 c10 41 13 46 33 41 17 -5 26 -1 34 14 11 21 1 28 -92 71 -32 15 -38
16 -49 3z"/>
</g>
</svg>
