<?xml version="1.0" standalone="no"?>
<!DOCTYPE svg PUBLIC "-//W3C//DTD SVG 20010904//EN"
 "http://www.w3.org/TR/2001/REC-SVG-20010904/DTD/svg10.dtd">
<svg version="1.0" xmlns="http://www.w3.org/2000/svg"
 width="439.681201pt" height="439.704118pt" viewBox="0 0 439.681201 439.704118"
 preserveAspectRatio="xMidYMid meet">
<metadata>
Created by potrace 1.16, written by Peter Selinger 2001-2019
</metadata>
<g transform="translate(-5.071586,444.836607) scale(0.100000,-0.100000)"
fill="#000000" stroke="none">
<path d="M2000 4435 c-520 -57 -933 -256 -1305 -630 -375 -375 -576 -790 -630
-1303 -62 -579 79 -1116 408 -1557 90 -121 303 -341 413 -428 423 -331 905
-485 1454 -464 516 21 949 187 1328 512 246 211 442 461 574 735 234 486 271
1121 96 1658 -213 653 -806 1222 -1463 1405 -280 79 -588 104 -875 72z m570
-81 c452 -65 818 -248 1159 -579 198 -192 331 -373 442 -600 277 -567 274
-1306 -8 -1869 -242 -483 -698 -892 -1183 -1061 -258 -89 -436 -118 -735 -118
-178 0 -244 4 -345 21 -456 77 -820 265 -1149 592 -347 344 -544 739 -613
1225 -16 116 -16 454 0 570 69 489 266 880 620 1231 375 372 811 567 1357 608
90 7 348 -5 455 -20z"/>
<path d="M2030 4328 c-478 -45 -900 -246 -1251 -597 -139 -139 -206 -220 -299
-362 -284 -432 -385 -1007 -275 -1564 104 -520 439 -1003 915 -1318 573 -378
1375 -433 2015 -138 334 155 671 454 892 793 212 324 329 777 309 1198 -25
539 -211 973 -580 1358 -452 472 -1059 693 -1726 630z m631 -63 c266 -52 485
-142 710 -291 342 -228 631 -572 779 -929 107 -259 151 -492 151 -800 -1 -573
-190 -1034 -591 -1436 -175 -176 -314 -281 -510 -387 -168 -90 -417 -171 -630
-204 -130 -20 -549 -17 -670 5 -464 85 -806 269 -1136 609 -310 321 -484 673
-549 1112 -21 146 -21 466 0 613 45 305 148 575 312 820 85 128 168 226 299
354 369 358 806 547 1314 568 199 8 363 -3 521 -34z"/>
<path d="M2106 4261 c-3 -4 9 -21 26 -36 30 -27 30 -29 25 -91 -7 -76 -19
-102 -49 -106 -15 -2 -23 -10 -23 -23 0 -17 8 -20 48 -23 66 -4 79 8 71 68 -3
26 -2 55 3 65 8 14 15 8 42 -39 43 -77 61 -75 106 13 61 122 73 99 19 -36 -14
-35 -22 -67 -19 -73 7 -11 62 -12 109 -1 36 7 46 30 17 38 -23 6 -26 27 -15
144 6 61 9 66 36 77 40 15 27 32 -25 32 -54 0 -78 -17 -118 -84 -41 -68 -57
-65 -111 20 l-40 64 -48 0 c-27 0 -51 -4 -54 -9z"/>
<path d="M2065 3889 c-370 -39 -687 -187 -957 -447 -288 -278 -445 -590 -494
-980 -52 -420 48 -832 279 -1158 34 -48 109 -137 166 -197 245 -255 537 -415
876 -479 170 -32 459 -32 625 0 438 83 815 335 1072 716 355 529 355 1277 0
1811 -158 237 -403 455 -646 575 -278 137 -600 193 -921 159z m527 -58 c309
-67 566 -209 798 -441 138 -138 230 -264 309 -425 67 -135 101 -232 133 -379
20 -88 22 -131 22 -336 0 -205 -2 -248 -22 -336 -47 -215 -138 -425 -259 -594
-133 -186 -351 -381 -547 -489 -253 -140 -515 -199 -834 -188 -270 8 -441 50
-667 162 -436 216 -776 657 -859 1115 -51 278 -32 604 49 847 164 490 598 904
1087 1038 170 46 254 55 483 51 165 -3 231 -9 307 -25z"/>
<path d="M1293 3340 c-56 -3 -107 -10 -113 -16 -23 -23 -6 -48 45 -67 28 -10
65 -30 83 -43 55 -43 62 -67 62 -224 l0 -140 -47 0 c-112 0 -259 -58 -360
-141 -229 -186 -298 -515 -166 -786 82 -169 273 -313 449 -338 22 -3 50 -7 64
-10 14 -2 33 -4 43 -4 17 -1 18 -14 15 -213 -3 -201 -4 -215 -26 -253 -13 -22
-37 -48 -53 -58 -38 -21 -37 -58 1 -68 31 -9 245 -9 285 0 23 5 30 12 30 30 0
13 -7 27 -15 31 -147 69 -143 60 -148 328 l-4 202 406 0 406 0 0 -200 0 -200
-69 0 c-88 0 -121 23 -130 91 -5 39 -9 44 -31 44 l-25 0 0 -175 0 -175 25 0
c19 0 26 6 28 25 10 94 29 110 127 110 l75 0 0 -62 c0 -61 -1 -63 -33 -78 -92
-43 -105 -200 -21 -255 40 -26 139 -27 178 -2 64 42 75 170 20 228 -15 16 -39
32 -51 35 -21 6 -23 12 -23 70 l0 64 75 0 c67 0 79 -3 100 -25 15 -14 26 -37
26 -55 1 -16 2 -36 3 -42 0 -7 12 -13 26 -13 l25 0 0 175 0 175 -25 0 c-21 0
-25 -5 -28 -35 -6 -77 -37 -100 -137 -100 l-65 0 0 200 0 200 478 2 c373 2
477 6 478 16 1 6 2 147 3 312 l1 301 98 -3 97 -3 3 -109 3 -108 -35 -32 c-49
-43 -54 -119 -11 -161 20 -21 34 -25 80 -25 77 0 105 27 105 101 0 46 -4 55
-35 85 l-35 33 0 110 0 111 71 0 c102 0 116 -16 166 -189 3 -11 7 -11 15 -3
27 27 21 422 -8 459 -13 17 -15 17 -28 0 -8 -10 -17 -39 -21 -65 -4 -26 -15
-66 -25 -89 l-19 -43 -75 0 -76 0 0 115 c0 93 3 115 14 115 8 0 24 12 35 26
31 39 29 114 -3 151 -21 24 -31 28 -79 28 -44 0 -60 -5 -80 -23 -47 -44 -40
-135 13 -172 l30 -21 0 -110 0 -109 -100 0 -100 0 -2 288 -3 287 -371 3 -372
2 5 63 c6 76 -11 118 -59 143 -41 21 -139 15 -167 -10 -18 -16 -20 -16 -52 3
-41 25 -126 28 -168 6 -51 -26 -76 -115 -51 -179 l10 -26 -303 2 -302 3 -3
105 c-2 58 0 124 3 148 9 58 54 107 135 146 70 34 87 60 48 75 -30 11 -207 17
-335 11z m938 -361 c29 -29 23 -85 -13 -112 -73 -54 -157 53 -92 117 22 23 80
20 105 -5z m223 -1 c21 -30 20 -81 -2 -101 -10 -9 -32 -20 -49 -23 -65 -13
-110 79 -63 126 29 29 94 27 114 -2z m-1084 -763 l0 -565 -46 0 c-116 0 -260
66 -359 165 -170 170 -211 432 -103 653 82 169 290 308 466 311 l42 1 0 -565z
m880 0 l0 -565 -405 0 -405 0 0 565 0 565 405 0 405 0 0 -565z m950 0 l0 -565
-440 0 -440 0 0 565 0 565 440 0 440 0 0 -565z m331 415 c30 -16 25 -58 -8
-66 -43 -11 -66 43 -29 68 14 10 14 10 37 -2z m14 -765 c0 -27 -3 -30 -30 -30
-21 0 -31 5 -33 18 -6 33 6 49 35 45 24 -3 28 -8 28 -33z m-1201 -997 c9 -12
16 -34 16 -48 0 -46 -26 -70 -75 -70 -49 0 -75 24 -75 70 0 46 26 70 75 70 34
0 47 -5 59 -22z"/>
<path d="M1772 2609 c-71 -21 -94 -123 -46 -195 l27 -39 -69 -207 -68 -207
-42 -10 c-54 -14 -85 -56 -92 -122 -8 -81 45 -130 140 -131 47 0 74 21 100 80
23 51 18 89 -18 131 l-23 28 70 212 c39 117 75 209 79 204 10 -10 140 -400
140 -419 0 -8 -4 -14 -10 -14 -15 0 -40 -56 -40 -90 0 -38 19 -77 54 -109 47
-44 157 -16 195 50 35 63 -18 169 -91 183 l-34 6 -69 209 -68 208 20 29 c41
59 37 138 -10 182 -27 26 -97 36 -145 21z m96 -81 c20 -20 15 -76 -7 -88 -29
-15 -49 -12 -72 11 -22 22 -20 66 4 81 18 12 62 9 75 -4z m-220 -660 c17 -17
15 -64 -4 -82 -20 -20 -43 -20 -72 0 -25 17 -27 32 -10 69 8 19 19 25 43 25
17 0 36 -5 43 -12z m441 -2 c7 -8 13 -27 14 -42 3 -36 -42 -62 -78 -46 -31 14
-41 59 -19 83 20 22 67 25 83 5z"/>
<path d="M2683 2606 c-69 -31 -89 -133 -38 -195 l26 -30 -69 -207 -69 -208
-41 -14 c-52 -17 -87 -58 -96 -112 -11 -70 30 -122 109 -140 77 -17 134 30
142 118 4 38 0 54 -20 84 l-26 37 71 211 c38 116 72 209 74 207 3 -2 36 -98
74 -212 l69 -208 -24 -29 c-46 -55 -31 -154 30 -194 31 -21 112 -15 150 10 39
26 57 76 46 127 -12 51 -43 84 -95 101 l-39 13 -70 208 -69 208 22 24 c27 28
38 105 21 147 -5 15 -21 34 -34 42 -34 23 -106 29 -144 12z m105 -78 c20 -20
14 -65 -10 -82 -44 -31 -88 -9 -88 43 0 35 17 51 55 51 17 0 36 -5 43 -12z
m-220 -660 c29 -29 1 -98 -40 -98 -51 0 -73 43 -48 91 12 22 68 27 88 7z m442
-7 c18 -35 12 -67 -15 -79 -34 -16 -45 -15 -67 5 -23 21 -24 69 0 82 29 17 70
13 82 -8z"/>
<path d="M784 3626 c-74 -33 -100 -131 -48 -182 25 -26 27 -26 125 -19 l101 7
-16 -31 c-22 -42 -50 -56 -86 -41 -30 13 -50 7 -50 -14 0 -6 18 -29 39 -50 44
-43 78 -46 73 -7 -3 15 7 34 26 55 58 61 63 103 17 146 -21 20 -26 21 -81 9
-86 -17 -115 -17 -128 4 -21 33 4 51 80 57 56 4 69 8 72 23 9 48 -59 71 -124
43z"/>
<path d="M3745 3415 c-66 -24 -136 -44 -156 -44 -20 -1 -38 -4 -42 -7 -8 -8
27 -76 48 -94 15 -12 19 -12 31 5 8 10 14 27 14 36 0 20 67 47 80 33 4 -5 15
-30 25 -55 16 -44 16 -48 0 -73 -16 -24 -18 -24 -41 -10 -13 9 -31 13 -40 10
-13 -5 -10 -15 17 -67 18 -34 39 -63 46 -66 17 -7 43 15 43 34 0 8 27 85 60
170 54 141 62 174 42 172 -4 0 -61 -20 -127 -44z m70 -57 c-19 -29 -30 -38
-33 -28 -3 8 -9 20 -14 27 -7 8 2 18 29 31 21 11 40 18 42 16 2 -2 -9 -23 -24
-46z"/>
<path d="M547 2074 c-4 -4 -7 -16 -7 -26 0 -10 -3 -18 -7 -18 -5 0 -44 -31
-88 -70 -44 -38 -99 -79 -123 -91 -24 -12 -41 -26 -39 -33 2 -6 41 -19 86 -28
48 -10 114 -34 162 -58 91 -46 97 -43 82 38 -9 50 -35 66 -41 25 -4 -27 -10
-28 -40 -7 -32 22 -44 51 -37 85 5 23 12 29 34 29 51 0 61 17 53 89 -6 60 -18
81 -35 65z m-80 -250 c-2 -2 -25 3 -52 10 l-50 13 31 16 c17 8 37 23 45 33 12
15 15 13 21 -26 4 -24 6 -45 5 -46z"/>
<path d="M3943 2028 c-11 -14 -29 -128 -39 -245 -6 -66 -4 -72 15 -83 12 -6
36 -10 54 -8 29 3 32 6 29 32 -2 16 -12 46 -23 67 -10 21 -19 50 -19 64 l0 27
98 -4 c96 -3 97 -3 110 -32 18 -41 31 -24 43 58 12 76 7 105 -15 87 -9 -8 -50
-11 -117 -9 -95 3 -104 5 -107 23 -5 29 -17 38 -29 23z"/>
<path d="M3175 839 l-36 -32 36 -35 c56 -55 61 -69 27 -86 -16 -8 -36 -26 -46
-40 -37 -57 -4 -146 53 -146 33 0 160 61 186 89 20 24 14 51 -13 51 -21 0 -41
21 -96 98 -36 49 -44 75 -35 112 7 29 -38 22 -76 -11z m103 -208 l22 -30 -26
-20 c-34 -27 -60 -27 -74 -1 -14 27 -5 54 23 68 31 15 31 15 55 -17z"/>
<path d="M1345 810 c-6 -9 3 -77 12 -93 3 -4 10 -4 16 2 7 5 25 11 41 13 16 1
31 8 33 14 5 15 -94 77 -102 64z"/>
<path d="M1496 712 c-3 -3 -6 -14 -6 -26 0 -21 -40 -86 -53 -86 -5 0 -28 14
-53 30 l-44 31 -42 -43 c-24 -24 -58 -51 -76 -61 -37 -19 -38 -32 -1 -58 46
-33 58 -29 78 29 10 29 21 55 24 59 8 8 63 -15 78 -33 9 -12 4 -22 -29 -53
l-40 -39 28 -27 c17 -17 36 -25 51 -23 19 2 24 13 35 66 14 68 44 126 74 142
10 6 32 10 48 10 35 0 60 23 40 36 -33 21 -107 52 -112 46z"/>
</g>
</svg>
