<?xml version="1.0" standalone="no"?>
<!DOCTYPE svg PUBLIC "-//W3C//DTD SVG 20010904//EN"
 "http://www.w3.org/TR/2001/REC-SVG-20010904/DTD/svg10.dtd">
<svg version="1.0" xmlns="http://www.w3.org/2000/svg"
 width="439.196766pt" height="439.252862pt" viewBox="0 0 439.196766 439.252862"
 preserveAspectRatio="xMidYMid meet">
<metadata>
Created by potrace 1.16, written by Peter Selinger 2001-2019
</metadata>
<g transform="translate(-5.212121,445.669260) scale(0.100000,-0.100000)"
fill="#000000" stroke="none">
<path d="M2075 4454 c-421 -44 -730 -147 -1021 -342 -671 -450 -1026 -1132
-1001 -1922 19 -574 212 -1039 598 -1445 381 -398 836 -622 1369 -674 136 -14
455 -6 580 14 486 77 901 296 1243 655 328 345 514 723 583 1190 21 141 24
481 6 620 -81 605 -379 1107 -886 1490 -269 204 -602 342 -956 395 -102 15
-434 27 -515 19z m499 -90 c224 -31 446 -102 643 -204 217 -113 372 -230 559
-421 322 -330 500 -681 575 -1134 33 -196 31 -515 -4 -715 -78 -444 -266 -805
-583 -1124 -344 -345 -726 -541 -1194 -612 -140 -22 -471 -24 -605 -6 -482 68
-873 262 -1217 604 -335 333 -536 727 -605 1185 -22 151 -22 499 1 648 72 465
271 851 614 1191 375 372 826 573 1362 608 98 6 342 -4 454 -20z"/>
<path d="M2030 4339 c-380 -39 -715 -168 -1022 -395 -117 -87 -345 -312 -430
-424 -280 -371 -416 -783 -416 -1260 0 -599 208 -1088 640 -1506 385 -373 820
-558 1363 -581 527 -22 1020 142 1413 471 231 192 461 486 573 732 148 325
213 722 179 1079 -48 491 -226 885 -560 1238 -334 352 -725 559 -1195 632
-125 19 -419 27 -545 14z m585 -54 c360 -65 661 -206 947 -444 397 -332 650
-780 722 -1278 21 -144 21 -443 1 -595 -56 -427 -237 -800 -542 -1118 -349
-365 -770 -578 -1245 -629 -123 -14 -375 -14 -493 -1 -483 54 -891 259 -1246
626 -311 322 -495 706 -549 1148 -14 113 -14 419 0 533 47 376 193 720 433
1018 82 102 268 282 375 363 322 246 699 381 1122 405 94 5 389 -12 475 -28z"/>
<path d="M2026 4261 c-9 -14 1 -31 19 -31 9 0 16 -20 20 -65 9 -77 1 -124 -25
-157 -27 -35 -9 -48 66 -48 69 0 91 15 56 38 -14 9 -22 25 -22 43 0 41 39 40
62 0 25 -45 61 -64 122 -63 64 0 94 14 102 47 11 44 -6 48 -47 10 -43 -38 -50
-41 -82 -23 -22 11 -34 24 -64 66 -15 22 -14 24 9 50 38 41 41 60 14 87 -27
27 -77 43 -162 52 -41 4 -64 2 -68 -6z m178 -57 c30 -30 10 -74 -34 -74 -24 0
-30 4 -30 23 0 12 -3 32 -6 45 -6 19 -3 22 24 22 17 0 38 -7 46 -16z"/>
<path d="M2110 3904 c-331 -39 -521 -103 -750 -252 -395 -256 -658 -649 -735
-1097 -20 -117 -27 -363 -14 -485 41 -387 209 -725 496 -1001 139 -132 255
-215 414 -293 383 -190 862 -218 1277 -75 266 92 499 251 693 473 264 300 392
627 404 1031 15 472 -144 881 -470 1211 -256 259 -539 408 -890 469 -88 15
-355 27 -425 19z m494 -68 c320 -74 572 -219 817 -473 182 -188 307 -405 377
-653 37 -134 37 -153 -2 -71 -101 209 -296 386 -506 457 -79 27 -228 51 -253
41 -15 -6 -17 -29 -17 -212 l0 -205 -95 0 -95 0 0 83 c0 81 1 82 30 99 58 33
66 132 15 175 -37 33 -113 32 -152 -1 -25 -21 -28 -31 -28 -81 0 -52 3 -60 33
-84 31 -27 32 -29 32 -109 l0 -82 -100 0 -100 0 -2 208 -3 207 -325 0 -325 0
-3 -207 -2 -208 -155 0 -155 0 -2 208 -3 207 -250 0 -250 0 -3 -235 -2 -235
-203 -202 -202 -203 202 -202 203 -203 2 -235 3 -235 250 0 250 0 3 208 2 207
155 0 155 0 2 -207 3 -208 325 0 325 0 3 208 2 207 100 0 100 0 0 -70 c0 -67
-1 -70 -23 -70 -27 0 -51 23 -66 63 -8 21 -17 28 -34 25 -21 -3 -22 -6 -22
-128 0 -121 1 -125 22 -128 17 -3 25 5 37 32 14 35 41 56 70 56 12 0 16 -11
16 -48 0 -57 -14 -79 -55 -90 -23 -7 -30 -14 -30 -33 l0 -24 125 0 c125 0 125
0 125 24 0 18 -8 26 -35 35 -27 8 -38 19 -47 46 -19 57 -17 90 8 90 34 0 58
-19 74 -56 10 -25 20 -35 32 -32 16 3 18 17 18 128 0 110 -2 125 -17 128 -12
2 -22 -8 -31 -30 -17 -40 -34 -55 -67 -60 -24 -3 -25 -1 -28 70 l-3 72 95 0
96 0 2 -207 3 -208 66 3 c283 11 560 201 694 476 25 50 45 86 45 80 0 -7 -11
-55 -25 -107 -66 -255 -194 -482 -380 -676 -254 -264 -541 -424 -876 -488
-146 -28 -476 -25 -626 5 -158 32 -249 63 -398 137 -383 189 -692 549 -819
955 -53 167 -69 301 -63 535 7 296 40 434 162 680 179 359 514 659 885 793
204 74 328 92 590 88 180 -3 219 -6 324 -30z m-1082 -973 l3 -208 78 -3 77 -3
0 -174 0 -175 -155 0 -155 0 0 205 c0 136 4 205 10 205 6 0 22 11 35 25 34 33
35 112 2 150 -29 35 -99 45 -145 21 -63 -33 -64 -142 -1 -187 l29 -20 0 -199
0 -199 -236 -3 c-130 -2 -238 0 -240 4 -2 3 70 77 161 164 l165 158 0 223 0
223 185 0 185 0 2 -207z m970 0 l3 -208 133 -3 132 -3 0 -384 0 -384 -132 -3
-133 -3 -3 -212 -2 -213 -255 0 -255 0 -2 213 -3 212 -107 3 -108 3 0 384 0
384 108 3 107 3 3 208 2 207 255 0 255 0 2 -207z m776 161 l82 -26 0 -735 0
-734 -43 -19 c-54 -24 -152 -50 -189 -50 l-28 0 -2 208 -3 207 -128 3 -127 3
2 382 3 382 125 5 125 5 3 204 2 204 48 -7 c26 -3 84 -18 130 -32z m-443 -29
c0 -25 -4 -31 -27 -33 -19 -2 -28 2 -33 18 -8 27 12 52 39 48 16 -2 21 -10 21
-33z m745 -165 c79 -80 156 -192 175 -257 6 -23 5 -23 -84 -23 l-91 0 0 45 c0
45 12 65 56 91 37 23 2 35 -92 32 -94 -3 -114 -16 -64 -41 33 -16 47 -48 42
-91 -4 -35 -5 -36 -48 -36 l-44 0 0 201 0 200 32 -18 c18 -10 71 -56 118 -103z
m-2216 14 c21 -8 21 -60 0 -68 -30 -12 -54 3 -54 34 0 34 21 47 54 34z m2156
-584 l0 -220 -45 0 -45 0 0 220 0 220 45 0 45 0 0 -220z m100 0 c0 -213 -1
-220 -20 -220 -19 0 -20 7 -20 220 0 213 1 220 20 220 19 0 20 -7 20 -220z
m90 0 c0 -213 -1 -220 -20 -220 -19 0 -20 7 -20 220 0 213 1 220 20 220 19 0
20 -7 20 -220z m91 163 c27 -122 9 -383 -27 -383 -12 0 -14 36 -14 220 0 184
2 220 14 220 10 0 19 -20 27 -57z m-2491 -405 l0 -203 -29 -16 c-62 -35 -62
-152 -1 -184 49 -25 107 -20 141 14 24 24 29 38 29 76 0 40 -5 52 -35 82 l-35
35 0 199 0 199 155 0 155 0 0 -170 0 -169 -77 -3 -78 -3 -5 -210 -5 -210 -182
-3 -183 -2 0 222 1 223 -168 162 -168 162 243 1 242 0 0 -202z m2212 -84 c5
-43 -9 -75 -42 -91 -50 -25 -30 -38 64 -41 94 -3 130 9 92 32 -44 26 -56 46
-56 91 l0 45 91 0 c89 0 90 0 84 -22 -16 -52 -94 -176 -153 -239 -56 -61 -150
-139 -166 -139 -8 0 -8 385 1 393 3 4 23 7 44 7 35 0 37 -2 41 -36z m-2148
-206 c13 -21 -2 -51 -26 -56 -22 -4 -48 25 -41 46 13 36 47 40 67 10z"/>
<path d="M2229 2843 c-41 -6 -62 -37 -67 -96 -3 -42 0 -57 18 -79 12 -16 28
-28 36 -28 12 0 14 -29 14 -170 l0 -170 -110 0 -110 0 -29 33 c-26 29 -35 32
-85 32 -78 0 -101 -24 -101 -105 0 -76 21 -101 94 -108 48 -4 53 -2 87 32 l36
36 109 0 109 0 0 -170 c0 -112 -4 -170 -10 -170 -6 0 -22 -11 -35 -25 -28 -27
-34 -92 -12 -135 25 -50 128 -61 174 -18 45 42 34 157 -16 173 -20 6 -21 13
-21 166 0 87 -1 162 -2 167 -2 4 45 8 105 10 91 2 107 0 107 -13 0 -23 60 -55
102 -55 25 0 46 8 67 26 28 23 31 32 31 79 0 72 -27 105 -90 112 -50 5 -110
-24 -110 -52 0 -12 -18 -15 -105 -15 l-104 0 -3 162 -3 162 32 29 c60 55 53
156 -13 183 -33 14 -45 15 -95 7z m70 -87 c9 -11 10 -20 1 -36 -21 -39 -83 -7
-67 34 8 20 50 21 66 2z m-365 -478 c15 -25 -4 -53 -35 -53 -19 0 -25 6 -27
29 -5 45 38 61 62 24z m700 16 c21 -8 21 -60 0 -68 -42 -16 -74 30 -42 62 14
14 20 14 42 6z m-334 -489 c20 -24 3 -55 -30 -55 -20 0 -31 6 -35 20 -8 25 10
50 35 50 10 0 23 -7 30 -15z"/>
<path d="M2970 2375 l-115 -115 118 -118 117 -117 117 117 118 118 -115 115
c-63 63 -117 115 -120 115 -3 0 -57 -52 -120 -115z m190 -180 l-65 -65 -65 65
-64 65 64 65 65 65 65 -65 65 -65 -65 -65z"/>
<path d="M3964 2507 c-3 -8 -4 -36 -2 -63 3 -47 5 -50 50 -74 49 -26 58 -41
58 -102 0 -27 -6 -40 -19 -48 -31 -16 -40 -12 -43 23 -4 41 -29 43 -40 2 -10
-35 0 -153 13 -161 5 -3 28 11 51 30 22 19 88 58 145 86 77 37 104 54 101 66
-2 9 -56 47 -120 83 -114 64 -117 67 -135 116 -18 50 -48 71 -59 42z m206
-220 c0 -17 -20 -37 -37 -37 -7 0 -13 11 -13 25 0 20 5 25 25 25 14 0 25 -6
25 -13z"/>
<path d="M277 2423 c-4 -3 -7 -30 -7 -59 l0 -53 60 -43 c33 -23 60 -45 60 -48
0 -3 -20 -20 -44 -37 -46 -33 -64 -69 -62 -128 1 -35 18 -37 27 -3 5 22 9 23
89 22 82 -1 85 -2 112 -34 l27 -33 11 27 c13 35 13 67 0 102 -8 21 -14 24 -22
16 -14 -14 -84 -16 -92 -3 -3 5 12 20 34 35 22 14 40 32 40 40 0 7 -25 30 -56
50 -31 21 -53 40 -50 43 13 13 96 -9 106 -28 16 -29 27 -15 35 41 10 71 -6 89
-48 54 -27 -23 -37 -25 -75 -20 -25 3 -59 6 -77 6 -28 0 -35 5 -44 30 -10 31
-13 34 -24 23z"/>
<path d="M2220 521 c-37 -10 -67 -63 -80 -140 -18 -108 -13 -124 39 -134 26
-5 47 -5 53 1 5 5 5 34 -1 73 -15 87 -15 84 20 124 37 42 54 44 73 7 25 -48
29 -96 12 -137 -9 -20 -16 -39 -16 -42 0 -7 69 -33 90 -33 11 0 29 9 41 21 19
19 20 22 4 39 -14 16 -32 108 -35 178 0 6 -9 21 -20 32 -16 16 -32 20 -87 19
-38 -1 -79 -4 -93 -8z"/>
</g>
</svg>
