<?xml version="1.0" standalone="no"?>
<!DOCTYPE svg PUBLIC "-//W3C//DTD SVG 20010904//EN"
 "http://www.w3.org/TR/2001/REC-SVG-20010904/DTD/svg10.dtd">
<svg version="1.0" xmlns="http://www.w3.org/2000/svg"
 width="439.587049pt" height="439.435830pt" viewBox="0 0 439.587049 439.435830"
 preserveAspectRatio="xMidYMid meet">
<metadata>
Created by potrace 1.16, written by Peter Selinger 2001-2019
</metadata>
<g transform="translate(-4.125752,445.649217) scale(0.100000,-0.100000)"
fill="#000000" stroke="none">
<path d="M2080 4454 c-270 -29 -379 -50 -558 -109 -485 -162 -938 -537 -1205
-1000 -301 -522 -360 -1224 -155 -1829 173 -511 606 -994 1113 -1240 280 -137
548 -201 890 -212 655 -23 1227 210 1674 682 322 340 510 724 576 1176 37 256
27 561 -25 818 -129 626 -583 1203 -1182 1500 -197 98 -399 160 -633 195 -102
15 -414 27 -495 19z m484 -90 c460 -64 855 -270 1203 -627 328 -337 506 -693
579 -1157 23 -145 23 -495 0 -640 -61 -387 -203 -711 -439 -1005 -347 -430
-811 -700 -1347 -781 -156 -24 -480 -24 -640 0 -460 69 -840 261 -1180 597
-334 329 -538 728 -607 1186 -22 148 -22 498 1 647 54 360 187 673 411 965 96
126 280 310 406 406 341 262 699 395 1154 429 89 7 347 -5 459 -20z"/>
<path d="M2020 4338 c-369 -33 -714 -166 -1021 -394 -114 -85 -324 -289 -411
-400 -241 -306 -386 -666 -427 -1059 -14 -128 -6 -430 14 -559 65 -430 247
-791 559 -1114 171 -177 339 -305 536 -410 485 -259 1132 -304 1672 -116 293
102 523 250 769 494 361 358 552 752 604 1248 17 162 19 277 5 427 -48 521
-262 961 -647 1325 -452 427 -1008 615 -1653 558z m605 -56 c416 -80 755 -262
1065 -572 314 -313 494 -652 576 -1087 23 -123 29 -531 9 -665 -68 -462 -267
-846 -612 -1179 -336 -323 -725 -508 -1175 -558 -123 -14 -388 -14 -498 -1
-465 57 -842 238 -1183 569 -347 337 -549 736 -607 1201 -13 109 -13 430 0
540 56 444 240 825 560 1154 295 305 624 493 1013 580 174 39 239 45 502 42
193 -3 262 -8 350 -24z"/>
<path d="M2131 4271 c-32 -9 -37 -27 -12 -43 19 -11 21 -23 21 -104 0 -84 -2
-93 -22 -108 -23 -15 -23 -16 -3 -32 15 -12 35 -15 83 -11 81 6 97 20 59 51
-35 28 -52 106 -23 106 9 0 27 -12 40 -27 25 -29 46 -24 46 11 0 31 -18 46
-57 46 -29 0 -33 3 -33 26 0 27 0 27 58 21 31 -4 66 -8 77 -9 16 -2 20 3 20
27 0 25 -5 32 -35 42 -37 13 -179 15 -219 4z"/>
<path d="M2100 3904 c-343 -40 -579 -125 -815 -292 -106 -76 -316 -286 -394
-395 -70 -98 -145 -234 -190 -347 -137 -344 -145 -811 -19 -1169 41 -117 127
-282 201 -388 79 -113 297 -331 410 -410 418 -294 985 -373 1484 -207 117 39
306 136 413 211 121 86 315 281 402 403 72 102 172 294 208 400 163 483 94
1054 -176 1452 -268 395 -656 650 -1099 723 -89 15 -358 27 -425 19z m478 -64
c305 -62 568 -206 802 -440 296 -297 450 -638 468 -1045 14 -298 -28 -533
-139 -773 -186 -403 -562 -734 -978 -862 -177 -54 -256 -64 -491 -65 -184 0
-231 3 -327 23 -337 68 -603 217 -851 477 -223 233 -360 504 -413 816 -19 108
-21 151 -16 334 6 224 19 313 72 472 155 463 553 862 1015 1017 247 82 590
101 858 46z"/>
<path d="M1884 3011 c-16 -22 -81 -117 -144 -211 -63 -94 -146 -217 -184 -272
l-70 -102 -94 191 c-78 158 -95 201 -99 251 -6 59 -5 61 20 67 38 10 63 41 48
59 -20 24 -110 41 -211 39 -154 -2 -283 -41 -329 -99 -25 -32 -26 -62 -6 -111
14 -33 14 -38 -1 -54 -26 -29 -12 -66 34 -85 1 -1 -13 -17 -33 -37 -40 -40
-45 -77 -17 -105 18 -18 18 -20 1 -41 -27 -33 -36 -91 -17 -105 13 -10 12 -16
-8 -46 -27 -39 -31 -82 -10 -100 13 -10 12 -16 -5 -43 -24 -41 -24 -60 2 -106
l21 -38 -25 -37 c-44 -63 -21 -126 46 -126 30 0 30 0 12 -20 -29 -32 -33 -128
-7 -160 20 -24 23 -25 159 -25 l138 0 186 278 187 278 45 -83 c25 -46 67 -128
95 -183 27 -55 66 -129 86 -163 20 -35 36 -66 36 -67 0 -2 -26 -5 -57 -7 l-58
-3 0 -35 0 -35 618 -3 617 -2 0 -216 0 -216 -42 -38 c-42 -37 -43 -39 -43
-100 1 -57 3 -65 33 -91 28 -25 40 -29 92 -29 72 0 106 24 120 85 16 69 -16
138 -72 158 -16 6 -18 26 -18 227 l0 220 303 2 302 3 3 438 2 437 41 0 c56 0
77 -14 100 -66 17 -40 22 -45 46 -42 l28 3 3 134 c3 139 -3 161 -40 161 -13 0
-25 -14 -38 -44 -22 -52 -43 -66 -99 -66 l-41 0 0 53 c0 65 24 106 70 122 29
10 35 17 35 41 l0 29 -140 0 -140 0 -3 -27 c-3 -24 2 -30 39 -44 48 -20 69
-58 69 -129 l0 -45 -44 0 c-52 0 -85 23 -101 71 -10 28 -17 34 -41 34 l-29 0
0 -145 0 -145 29 0 c24 0 31 6 41 34 16 48 49 71 101 71 l44 0 0 -400 0 -400
-270 0 -270 0 -2 638 -3 637 -35 0 c-33 0 -39 -7 -244 -289 l-210 -289 -68 71
c-65 69 -67 72 -56 102 22 63 -26 142 -100 165 -34 10 -87 -12 -121 -51 -54
-61 -53 -100 6 -165 38 -42 82 -56 124 -40 24 9 31 4 80 -47 103 -108 114 -65
-87 -343 -97 -134 -188 -260 -203 -279 l-26 -35 -5 610 -5 610 -31 3 c-27 3
-36 -3 -60 -37z m-778 -77 c17 -7 36 -20 43 -28 7 -8 72 -138 146 -290 l133
-276 -189 -285 -189 -285 -97 0 c-76 0 -100 4 -115 17 -26 23 -22 48 13 80 84
76 99 92 99 107 0 28 -27 29 -89 1 -33 -15 -67 -25 -76 -22 -37 15 -5 59 108
150 26 21 45 43 42 48 -9 14 -18 11 -68 -22 -58 -38 -77 -33 -77 19 0 47 27
75 123 127 62 34 80 56 58 70 -5 3 -37 -9 -71 -26 -64 -32 -90 -33 -90 0 0 23
39 58 114 101 63 35 73 47 57 63 -8 8 -29 2 -80 -22 -78 -38 -95 -36 -79 9 11
32 60 71 146 114 50 25 66 51 39 62 -8 3 -47 -11 -88 -31 -80 -38 -99 -42 -99
-21 0 19 46 56 123 99 35 20 70 43 77 52 24 29 -19 30 -76 2 -30 -15 -61 -27
-70 -27 -30 0 -9 35 41 67 87 56 91 60 79 73 -9 9 -21 7 -52 -9 -47 -24 -87
-27 -95 -8 -8 22 4 65 23 82 36 32 168 37 236 9z m1756 -646 l-2 -538 -411 -2
c-226 -2 -413 0 -416 4 -2 5 89 136 203 294 l207 285 53 -52 53 -53 -5 -55
c-5 -48 -3 -61 18 -90 31 -45 88 -75 128 -66 38 8 97 63 105 98 13 49 -3 93
-47 132 -39 36 -43 37 -94 32 l-52 -5 -56 58 c-31 32 -56 61 -56 63 0 3 59 86
131 184 71 98 153 211 182 252 l52 73 5 -38 c3 -22 4 -281 2 -576z m-952 22
l0 -560 -29 0 c-27 0 -34 10 -139 213 -61 116 -127 246 -148 288 l-37 75 173
272 c94 150 174 272 176 272 2 0 4 -252 4 -560z m307 392 c21 -13 31 -55 20
-79 -19 -42 -107 -20 -107 26 0 44 52 75 87 53z m492 -518 c26 -33 26 -42 -1
-71 -27 -29 -45 -29 -75 -1 -29 27 -29 45 -1 75 28 30 52 29 77 -3z m228
-1036 c18 -24 21 -57 6 -78 -21 -30 -72 -24 -92 11 -13 24 -13 29 2 53 19 28
67 36 84 14z"/>
<path d="M732 3567 c-24 -26 -20 -37 13 -37 42 0 60 -42 28 -66 -26 -20 -44
-17 -73 11 l-26 25 -22 -22 -21 -23 82 -70 c73 -63 82 -75 82 -104 0 -46 17
-49 61 -8 39 36 42 67 6 67 -21 0 -62 39 -62 59 0 10 16 11 68 6 85 -8 114 9
116 71 1 50 -16 59 -29 16 -9 -31 -12 -33 -40 -27 -16 3 -40 7 -52 8 -19 2
-23 8 -23 39 0 28 -6 42 -26 57 -34 27 -55 26 -82 -2z"/>
<path d="M3644 3531 c-85 -40 -107 -71 -101 -141 2 -30 12 -72 20 -93 15 -35
19 -37 59 -37 111 0 193 60 223 162 15 53 15 59 0 82 -19 29 -72 56 -112 56
-15 0 -55 -13 -89 -29z m134 -61 c26 -25 26 -23 7 -60 -27 -53 -136 -128 -162
-112 -36 25 -17 107 37 156 46 41 85 47 118 16z"/>
<path d="M3979 2052 c-52 -27 -54 -30 -57 -72 -3 -59 14 -91 61 -114 53 -26
66 -10 37 42 -26 46 -22 68 15 82 48 18 85 12 116 -19 32 -33 31 -45 -8 -98
l-24 -32 21 -21 c20 -20 23 -21 40 -5 41 37 53 175 20 218 -42 53 -141 61
-221 19z"/>
<path d="M390 2031 c-90 -28 -130 -76 -130 -157 0 -58 5 -65 74 -88 64 -21 98
-20 145 3 37 19 100 81 120 119 17 32 -5 90 -42 112 -33 21 -117 26 -167 11z
m114 -57 c35 -13 6 -106 -36 -118 -30 -8 -87 -8 -127 0 -26 5 -31 11 -31 35 0
31 27 50 105 75 46 15 67 16 89 8z"/>
<path d="M3171 844 c-63 -32 -80 -57 -51 -77 19 -13 19 -15 2 -47 -9 -19 -32
-43 -50 -53 -33 -19 -33 -19 -56 2 -16 15 -22 29 -18 46 7 38 -21 41 -85 9
-61 -31 -76 -50 -46 -60 67 -23 128 -60 198 -118 44 -36 87 -65 95 -64 12 3
16 32 22 158 6 151 7 155 32 175 26 21 33 40 17 49 -4 3 -31 -6 -60 -20z m-36
-245 c4 -22 4 -43 1 -46 -4 -4 -22 9 -41 27 l-35 34 27 12 c40 18 41 18 48
-27z"/>
<path d="M1342 780 c-22 -16 -43 -33 -46 -38 -9 -15 21 -34 43 -27 19 6 138
-19 150 -31 3 -2 -15 -45 -39 -94 -35 -72 -48 -90 -66 -90 -12 0 -27 -6 -33
-14 -9 -11 -6 -18 16 -34 63 -44 144 -47 117 -4 -9 14 -2 35 34 108 l45 91 42
-5 c92 -10 53 34 -94 108 -128 64 -124 63 -169 30z"/>
</g>
</svg>
