<?xml version="1.0" standalone="no"?>
<!DOCTYPE svg PUBLIC "-//W3C//DTD SVG 20010904//EN"
 "http://www.w3.org/TR/2001/REC-SVG-20010904/DTD/svg10.dtd">
<svg version="1.0" xmlns="http://www.w3.org/2000/svg"
 width="439.909697pt" height="439.216460pt" viewBox="0 0 439.909697 439.216460"
 preserveAspectRatio="xMidYMid meet">
<metadata>
Created by potrace 1.16, written by Peter Selinger 2001-2019
</metadata>
<g transform="translate(-4.999475,445.688265) scale(0.100000,-0.100000)"
fill="#000000" stroke="none">
<path d="M2090 4454 c-19 -2 -78 -9 -130 -14 -614 -67 -1183 -422 -1552 -967
-376 -556 -463 -1322 -226 -1988 163 -457 549 -903 1002 -1158 205 -116 468
-204 726 -244 161 -24 520 -25 678 0 421 66 766 223 1081 493 607 519 875
1252 750 2059 -68 439 -282 849 -620 1185 -343 342 -742 545 -1209 615 -101
15 -428 28 -500 19z m479 -89 c447 -63 822 -251 1159 -580 359 -349 559 -736
628 -1212 21 -144 24 -455 5 -593 -40 -298 -138 -582 -281 -815 -115 -188
-299 -399 -482 -553 -223 -187 -512 -338 -791 -411 -186 -48 -321 -64 -552
-64 -285 0 -458 26 -695 103 -118 39 -330 140 -441 211 -251 161 -505 413
-669 664 -72 111 -181 339 -224 469 -116 352 -135 798 -50 1176 65 288 229
613 425 847 395 469 877 721 1484 776 87 8 376 -3 484 -18z"/>
<path d="M2080 4343 c-312 -23 -620 -118 -874 -267 -302 -178 -595 -471 -774
-775 -345 -588 -364 -1391 -45 -2001 192 -368 527 -705 895 -899 564 -298
1299 -308 1883 -26 207 100 373 221 566 414 301 301 484 637 563 1031 95 473
36 960 -165 1364 -255 513 -745 928 -1274 1080 -244 70 -523 98 -775 79z m469
-49 c436 -63 789 -236 1117 -546 350 -332 565 -755 624 -1228 15 -123 12 -421
-5 -552 -56 -428 -239 -805 -545 -1122 -351 -365 -763 -572 -1245 -626 -117
-13 -387 -13 -495 0 -460 56 -833 233 -1167 554 -201 193 -327 363 -438 591
-140 287 -196 543 -196 896 0 202 11 304 47 469 83 371 250 672 532 962 332
341 711 536 1166 603 131 19 473 19 605 -1z"/>
<path d="M2046 4271 c-38 -8 -44 -28 -13 -42 17 -8 50 -57 104 -153 71 -127
81 -141 106 -141 24 0 34 13 95 125 58 104 75 128 105 143 57 28 45 77 -18 77
-42 0 -75 -25 -75 -57 0 -24 -87 -183 -100 -183 -3 0 -23 32 -45 72 -35 65
-37 75 -28 109 7 26 7 41 -1 49 -11 11 -82 12 -130 1z"/>
<path d="M2110 3903 c-408 -40 -721 -181 -1002 -451 -383 -369 -554 -847 -497
-1387 29 -270 127 -532 282 -752 79 -113 297 -331 410 -410 331 -233 739 -331
1164 -278 478 59 885 315 1168 735 268 399 337 949 179 1435 -143 442 -535
846 -979 1010 -217 81 -506 120 -725 98z m477 -61 c216 -47 421 -137 593 -259
122 -87 306 -272 392 -393 213 -299 305 -629 286 -1025 -11 -237 -55 -408
-159 -620 -79 -160 -170 -286 -309 -425 -239 -239 -506 -382 -835 -447 -141
-28 -504 -25 -640 5 -156 35 -249 67 -390 137 -296 146 -570 417 -721 713 -24
47 -44 89 -44 94 0 4 12 3 26 -2 57 -22 114 -10 163 34 32 29 43 59 50 141 l6
69 47 -3 c26 -1 56 3 68 9 31 17 53 75 45 120 -8 47 -38 76 -91 87 l-41 8 31
140 31 140 47 3 47 3 3 -488 3 -488 52 -105 c181 -364 502 -542 988 -549 207
-3 397 42 550 130 129 73 268 215 344 350 76 135 137 392 156 654 4 50 8 104
10 120 2 17 4 67 4 113 l1 83 45 -36 c107 -88 217 -78 295 27 l30 42 0 -50
c-1 -27 -5 -94 -10 -149 -5 -55 -5 -104 0 -109 14 -14 70 5 106 37 45 38 74
95 81 157 7 59 -11 93 -62 117 l-35 17 0 135 c0 149 -22 282 -59 366 l-21 48
21 23 c29 31 30 98 2 126 -11 11 -38 22 -59 25 -47 6 -89 -22 -99 -66 -5 -23
-10 -27 -30 -23 -18 3 -25 12 -30 43 -11 62 -33 81 -98 87 -52 4 -58 2 -87
-26 -24 -25 -30 -39 -30 -74 0 -24 7 -53 15 -65 15 -21 13 -25 -19 -68 -20
-25 -41 -65 -47 -88 -11 -42 -7 -195 6 -229 13 -33 -33 -21 -50 12 -22 42 -59
63 -110 63 -52 0 -93 -24 -108 -64 -8 -21 -18 -29 -35 -29 -34 0 -26 19 83
200 109 181 170 301 179 349 9 49 -10 107 -51 151 -95 106 -193 116 -283 28
-72 -69 -87 -121 -125 -443 -8 -71 -20 -165 -26 -207 l-11 -78 -49 0 -49 0 0
205 c0 113 2 205 4 205 18 0 39 -17 47 -37 18 -47 34 -20 37 62 3 92 -9 115
-40 73 -29 -41 -48 -36 -48 12 0 29 6 45 26 64 39 35 24 46 -66 46 -89 0 -108
-12 -67 -42 22 -16 27 -28 27 -64 0 -51 -9 -55 -44 -18 -35 39 -46 24 -46 -66
0 -91 12 -107 47 -61 13 17 29 31 34 31 5 0 9 -86 9 -205 l0 -205 -50 0 -49 0
-16 53 c-29 94 -29 224 -2 402 16 102 24 197 23 262 -1 93 -3 104 -25 127 -41
44 -137 30 -188 -25 -59 -64 -66 -132 -44 -419 14 -183 14 -314 0 -362 -10
-38 -10 -38 -64 -38 l-55 0 0 205 c0 113 2 205 4 205 18 0 39 -17 47 -37 18
-47 34 -20 37 62 3 92 -9 115 -40 73 -29 -41 -48 -36 -48 12 0 38 5 47 44 74
35 24 9 36 -79 36 -97 0 -112 -11 -66 -47 25 -20 31 -32 31 -64 0 -46 -19 -52
-52 -14 -11 13 -25 22 -30 19 -11 -7 -11 -161 0 -168 5 -3 19 8 31 24 12 17
28 30 36 30 13 0 15 -31 15 -205 l0 -205 -45 0 c-43 0 -44 1 -57 43 -22 72
-16 426 10 573 12 67 22 148 22 180 0 137 -81 185 -175 103 -55 -49 -79 -141
-70 -270 5 -81 4 -99 -7 -99 -8 0 -24 -11 -36 -25 -32 -37 -52 -33 -52 11 0
27 7 43 31 65 17 16 28 33 24 39 -9 14 -162 13 -171 -1 -3 -6 5 -22 20 -35 20
-19 26 -35 26 -64 0 -48 -19 -53 -48 -12 -31 42 -43 19 -40 -73 3 -83 19 -109
38 -61 5 14 11 26 14 26 2 0 11 3 20 6 14 5 16 -16 16 -200 l0 -206 -84 0 -84
0 -11 63 c-14 79 -14 227 0 287 5 25 31 90 55 144 59 128 65 181 31 258 -47
105 -112 103 -215 -6 -91 -98 -98 -123 -94 -386 2 -181 0 -226 -16 -285 l-18
-70 -46 -3 -45 -3 -12 46 c-19 76 -100 107 -187 70 -71 -30 -86 -152 -24 -207
42 -39 124 -40 168 -3 22 19 41 25 76 25 25 0 46 -1 46 -3 0 -1 -9 -34 -20
-72 -49 -172 -71 -348 -55 -443 13 -79 -45 -162 -115 -162 -76 0 -101 44 -102
178 -1 54 2 116 6 140 11 58 33 55 41 -5 12 -87 19 -91 71 -39 23 23 34 43 34
63 0 15 14 75 30 133 31 109 36 145 21 154 -9 6 -239 -141 -257 -165 -24 -31
-24 -49 0 -60 22 -10 22 -13 10 -47 -7 -21 -14 -48 -14 -62 l-1 -25 -12 25
c-7 17 -11 108 -11 275 0 274 9 344 74 535 129 386 441 736 829 930 94 47 284
107 407 130 149 27 491 22 631 -8z m-771 -640 c-4 -32 -17 -122 -28 -202 -35
-234 -29 -422 18 -545 5 -13 -6 -15 -69 -15 l-75 0 30 78 c40 101 44 157 28
393 -12 180 -11 202 5 268 19 80 44 108 78 90 17 -10 18 -18 13 -67z m520 -13
c25 -28 24 -97 -4 -214 -37 -154 -51 -415 -27 -507 l7 -28 -55 0 -56 0 7 38
c10 51 8 366 -2 537 -8 136 -8 141 13 168 29 35 88 38 117 6z m-1041 -69 c25
-27 15 -105 -37 -284 -46 -161 -67 -268 -68 -343 l0 -53 -39 0 -40 0 10 33
c14 48 28 204 33 362 3 111 9 152 26 197 37 101 76 131 115 88z m1714 6 c15
-8 35 -30 46 -49 17 -32 17 -41 6 -90 -14 -62 -70 -184 -123 -267 -48 -75
-114 -208 -123 -247 -6 -29 -10 -33 -41 -33 -19 0 -34 4 -34 8 0 31 33 349 41
397 38 224 126 333 228 281z m391 -205 c7 -15 5 -24 -8 -41 -16 -19 -22 -21
-40 -11 -24 13 -29 40 -10 59 18 18 46 14 58 -7z m255 -22 c4 -5 4 -21 1 -35
-5 -20 -12 -25 -34 -22 -27 3 -39 25 -28 54 6 16 52 19 61 3z m-2009 -303
c-20 -113 -40 -156 -71 -156 l-25 0 0 199 c0 219 5 236 49 182 33 -40 50 -27
53 39 1 25 4 -6 5 -69 2 -69 -2 -145 -11 -195z m1900 179 c45 -27 89 -98 99
-161 l7 -39 -51 -18 c-50 -17 -81 -49 -95 -94 -7 -22 -12 -23 -120 -23 l-113
0 -7 38 c-22 132 29 283 107 318 43 19 120 10 173 -21z m104 -367 l-5 -123
-25 3 c-14 1 -38 16 -54 32 -26 25 -30 37 -30 84 -1 65 23 105 75 122 19 7 36
11 39 9 3 -2 3 -59 0 -127z m-2799 82 c22 -12 27 -68 7 -88 -21 -21 -66 -14
-83 12 -34 51 20 105 76 76z m2234 -40 c4 -6 -8 -10 -30 -10 -22 0 -34 4 -30
10 3 6 17 10 30 10 13 0 27 -4 30 -10z m-1549 -101 c-44 -64 -119 -77 -160
-28 -14 17 -26 35 -26 40 0 5 45 9 101 9 l100 0 -15 -21z m124 9 c1 -7 1 -78
0 -157 l-1 -143 -34 -33 c-28 -25 -35 -40 -35 -69 0 -46 23 -92 50 -101 18 -6
20 -15 20 -96 l0 -89 -73 0 c-70 0 -73 1 -90 30 -34 57 -144 61 -182 7 -15
-22 -20 -101 -9 -132 10 -24 58 -45 105 -45 35 0 47 6 75 35 31 34 36 35 103
35 l71 0 0 -96 c0 -55 -4 -93 -9 -90 -5 4 -21 2 -34 -3 -48 -19 -63 -146 -22
-191 22 -24 62 -26 85 -5 15 14 18 14 30 0 7 -8 28 -15 46 -15 47 0 69 36 69
112 -1 64 -22 98 -63 101 -21 1 -22 6 -22 94 l0 93 100 0 100 0 0 -80 c0 -72
-2 -80 -19 -80 -10 0 -26 11 -35 25 -26 39 -36 21 -36 -65 0 -89 12 -108 42
-67 29 40 48 35 48 -12 0 -32 -6 -44 -31 -64 -46 -36 -31 -47 66 -47 97 0 112
11 66 47 -25 20 -31 32 -31 64 0 46 19 52 52 14 11 -13 25 -22 30 -19 11 7 10
161 -2 169 -5 3 -17 -6 -26 -20 -9 -14 -25 -25 -35 -25 -17 0 -19 8 -19 80 l0
80 100 0 100 0 0 -95 c0 -76 -3 -93 -14 -89 -7 3 -26 -6 -42 -20 -26 -22 -29
-30 -29 -89 0 -50 4 -70 19 -86 22 -25 62 -27 86 -6 15 14 18 14 30 0 18 -22
73 -19 96 6 14 16 19 36 19 86 0 58 -3 67 -28 88 -15 14 -34 22 -42 19 -13 -5
-15 9 -15 90 l0 96 100 0 100 0 0 -80 c0 -69 -2 -80 -17 -80 -10 0 -27 12 -38
27 -12 14 -26 23 -32 20 -15 -10 -16 -164 -1 -173 6 -4 20 4 33 19 31 40 55
36 55 -10 0 -31 -6 -43 -31 -64 -19 -15 -29 -31 -25 -37 9 -15 162 -16 172 -1
3 6 -6 23 -20 38 -18 19 -26 38 -26 64 0 45 20 49 48 10 30 -41 42 -22 42 67
0 86 -10 104 -36 65 -9 -14 -25 -25 -35 -25 -17 0 -19 8 -19 80 l0 80 100 0
100 0 0 -96 c0 -55 -4 -93 -9 -90 -5 4 -21 2 -34 -3 -48 -19 -63 -146 -22
-191 22 -25 62 -26 88 -3 18 17 19 17 28 0 14 -25 71 -22 95 4 14 16 19 36 19
84 0 71 -18 102 -64 107 -26 3 -26 4 -29 96 l-3 92 35 0 c26 0 36 -5 41 -20 9
-28 56 -50 105 -50 59 0 100 42 100 102 0 61 -19 91 -65 106 -55 18 -110 2
-133 -39 -14 -24 -23 -29 -47 -27 l-30 3 -3 78 -3 77 41 38 c30 29 40 47 40
70 0 47 -17 81 -50 100 l-30 17 0 115 0 115 34 -50 c90 -131 223 -140 338 -22
l41 42 -6 -175 c-14 -381 -72 -569 -263 -857 -157 -236 -328 -356 -571 -398
-251 -44 -539 17 -745 156 -129 87 -272 250 -325 369 -63 142 -66 172 -71 584
l-4 379 36 -31 c63 -55 168 -69 227 -29 19 12 50 44 69 70 33 44 69 62 70 35z
m185 -9 c13 -39 75 -98 111 -105 43 -8 128 31 186 87 66 63 68 60 68 -118 l0
-157 -31 -25 c-54 -46 -47 -158 11 -176 18 -6 20 -15 20 -96 l0 -89 -70 0 -71
0 17 32 c11 22 15 48 12 86 -7 75 -36 102 -113 102 -66 0 -102 -15 -121 -51
-18 -36 -18 -106 0 -141 l15 -28 -70 0 -69 0 0 85 c0 84 1 86 33 114 28 26 32
35 32 81 0 46 -4 55 -32 79 -17 14 -32 33 -33 41 -1 8 -2 79 -1 158 l1 142 49
0 c42 0 51 -3 56 -21z m245 11 c0 -13 -71 -60 -92 -60 -10 0 -35 16 -56 35
l-37 34 93 1 c52 0 92 -4 92 -10z m260 -20 c15 -37 71 -87 106 -96 82 -21 211
24 253 89 45 68 51 53 51 -120 l0 -157 -31 -25 c-54 -46 -47 -158 11 -176 18
-6 20 -15 20 -96 l0 -89 -70 0 -71 0 16 30 c19 37 19 103 1 139 -18 34 -54 51
-111 51 -57 0 -90 -13 -111 -45 -22 -33 -21 -114 1 -149 l17 -26 -71 0 -71 0
0 84 c0 83 0 84 36 120 34 34 36 40 31 84 -4 37 -12 52 -36 73 l-31 25 0 157
0 157 24 0 c17 0 27 -9 36 -30z m290 21 c0 -20 -67 -61 -99 -61 -40 0 -64 12
-85 45 l-16 25 100 0 c56 0 100 -4 100 -9z m309 -26 c45 -77 175 -74 216 5 12
23 22 30 45 30 17 0 30 -2 30 -6 0 -15 -84 -125 -109 -143 -79 -57 -161 -20
-220 96 -26 51 -26 53 -2 53 11 0 28 -15 40 -35z m125 23 c-15 -7 -28 -7 -40
1 -16 9 -12 10 21 10 35 0 37 -2 19 -11z m443 -25 c10 -21 35 -49 56 -63 l39
-25 -26 -21 c-14 -13 -50 -28 -79 -34 -69 -16 -109 -4 -170 50 -39 34 -45 46
-49 85 l-3 45 107 0 106 0 19 -37z m263 -163 c11 -11 20 -31 20 -45 0 -21 -5
-25 -30 -25 -29 0 -30 2 -30 45 0 49 10 55 40 25z m15 -122 c-4 -13 -20 -36
-36 -53 l-29 -30 0 30 c0 58 10 75 42 75 26 0 29 -3 23 -22z m-2705 -84 c0
-28 -25 -42 -49 -27 -22 14 -25 38 -6 57 22 22 55 4 55 -30z m634 10 c19 -18
19 -20 6 -45 -6 -10 -19 -19 -30 -19 -16 0 -40 26 -40 44 0 8 31 36 40 36 5 0
16 -7 24 -16z m551 0 c19 -20 16 -43 -7 -58 -38 -23 -78 35 -42 61 23 17 29
16 49 -3z m539 10 c24 -9 21 -61 -4 -69 -41 -13 -69 43 -32 64 21 13 17 12 36
5z m-800 -180 c36 -36 9 -94 -44 -94 -31 0 -50 23 -50 59 0 27 26 51 55 51 13
0 31 -7 39 -16z m550 0 c36 -36 9 -94 -44 -94 -31 0 -50 23 -50 59 0 27 26 51
55 51 13 0 31 -7 39 -16z m-1121 -156 c8 -22 -13 -48 -38 -48 -33 0 -47 47
-20 66 19 14 50 5 58 -18z m1582 16 c19 -20 16 -43 -7 -58 -21 -13 -51 2 -56
26 -3 16 23 48 38 48 5 0 16 -7 25 -16z m-1365 -360 c0 -45 -24 -42 -28 4 -2
24 1 32 12 32 12 0 16 -10 16 -36z m110 1 c0 -37 -13 -46 -28 -19 -12 22 -4
54 14 54 9 0 14 -12 14 -35z m438 3 c-2 -18 -7 -33 -13 -33 -5 0 -11 15 -13
33 -3 24 1 32 13 32 12 0 16 -8 13 -32z m110 0 c-2 -18 -7 -33 -13 -33 -5 0
-11 15 -13 33 -3 24 1 32 13 32 12 0 16 -8 13 -32z m440 0 c-3 -35 -24 -49
-30 -21 -6 28 3 53 19 53 10 0 13 -9 11 -32z m110 0 c-4 -37 -23 -48 -31 -17
-7 27 1 49 20 49 10 0 13 -9 11 -32z"/>
<path d="M3429 2753 c-47 -7 -74 -47 -74 -110 0 -48 4 -58 28 -79 43 -37 118
-34 158 5 55 55 33 161 -39 180 -20 6 -39 10 -42 9 -3 0 -17 -3 -31 -5z m61
-94 c23 -41 -38 -68 -63 -27 -8 12 -7 21 2 32 19 22 48 20 61 -5z"/>
<path d="M3392 2334 c-16 -11 -22 -25 -22 -53 0 -47 24 -71 72 -71 44 0 68 25
68 73 0 41 -27 67 -70 67 -14 0 -36 -7 -48 -16z m72 -30 c27 -27 12 -64 -26
-64 -15 0 -38 27 -38 44 0 8 31 36 40 36 5 0 16 -7 24 -16z"/>
<path d="M3940 3200 c-28 -54 -81 -106 -125 -120 -33 -11 -39 -10 -59 9 -24
23 -41 27 -51 11 -6 -10 108 -245 125 -255 5 -3 31 3 56 15 45 19 46 21 30 39
-10 11 -25 16 -39 14 -26 -5 -39 8 -55 54 -10 29 -8 34 11 48 33 23 47 18 63
-20 16 -40 33 -44 59 -15 18 20 18 21 -8 48 -15 16 -27 31 -27 35 0 8 60 47
72 47 4 0 14 -26 23 -57 17 -57 17 -58 -4 -72 -24 -15 -28 -49 -7 -57 16 -6
51 10 82 38 l21 19 -39 107 c-59 159 -55 152 -83 152 -19 0 -29 -9 -45 -40z"/>
<path d="M735 3188 c-2 -7 -6 -29 -7 -48 -3 -33 -6 -35 -44 -40 -23 -4 -53
-13 -67 -23 -25 -16 -25 -16 -31 18 -12 60 -69 81 -139 51 -29 -11 -36 -23
-55 -80 -25 -74 -28 -111 -10 -122 6 -4 19 2 29 14 23 29 33 28 138 -15 77
-31 91 -40 91 -60 0 -12 9 -27 20 -33 16 -9 22 -6 34 18 18 35 30 97 22 111
-5 7 -12 7 -24 0 -22 -14 -87 2 -87 22 0 9 20 17 60 25 82 14 102 27 117 75
10 34 9 46 -3 67 -16 30 -37 39 -44 20z m-204 -98 c20 -11 24 -36 10 -58 -7
-11 -15 -11 -45 2 -41 17 -43 22 -19 48 19 21 27 22 54 8z"/>
<path d="M1073 1028 c-13 -20 -80 -348 -73 -353 4 -3 61 23 126 56 88 44 135
62 178 67 33 4 61 12 63 18 5 14 -136 116 -148 108 -14 -8 -10 -36 7 -55 33
-36 -20 -53 -75 -24 -30 15 -41 33 -41 67 0 17 4 19 30 13 19 -4 36 -2 45 5
13 11 9 20 -26 61 -40 48 -70 61 -86 37z m47 -238 c0 -3 -18 -16 -40 -29 l-39
-22 14 48 c8 26 15 50 15 52 0 7 50 -42 50 -49z"/>
<path d="M3305 964 c-16 -8 -43 -25 -59 -38 -25 -21 -27 -26 -16 -46 9 -17 18
-21 40 -17 20 5 33 0 47 -16 36 -39 36 -46 -1 -89 -47 -54 -49 -97 -7 -139 51
-51 88 -40 193 59 30 29 35 39 27 54 -8 15 -14 16 -30 7 -30 -16 -40 -8 -93
70 -43 64 -47 77 -44 119 4 54 -8 61 -57 36z m102 -240 l27 -36 -29 -24 c-17
-13 -38 -24 -47 -24 -18 0 -38 28 -38 53 0 12 46 67 56 67 2 0 15 -16 31 -36z"/>
</g>
</svg>
