<?xml version="1.0" standalone="no"?>
<!DOCTYPE svg PUBLIC "-//W3C//DTD SVG 20010904//EN"
 "http://www.w3.org/TR/2001/REC-SVG-20010904/DTD/svg10.dtd">
<svg version="1.0" xmlns="http://www.w3.org/2000/svg"
 width="439.752878pt" height="439.684946pt" viewBox="0 0 439.752878 439.684946"
 preserveAspectRatio="xMidYMid meet">
<metadata>
Created by potrace 1.16, written by Peter Selinger 2001-2019
</metadata>
<g transform="translate(-5.049243,444.825377) scale(0.100000,-0.100000)"
fill="#000000" stroke="none">
<path d="M2070 4443 c-87 -6 -266 -34 -365 -58 -513 -122 -986 -460 -1302
-930 -302 -448 -417 -1033 -318 -1612 78 -455 295 -852 649 -1191 400 -381
863 -576 1426 -599 547 -22 1034 134 1455 465 188 148 421 417 549 633 331
560 377 1352 114 1967 -202 471 -597 884 -1063 1113 -344 168 -723 239 -1145
212z m430 -79 c489 -61 870 -241 1214 -574 309 -299 497 -613 596 -994 85
-330 87 -735 6 -1071 -141 -580 -561 -1102 -1114 -1383 -293 -150 -587 -216
-952 -216 -366 0 -619 56 -925 203 -348 168 -669 455 -884 790 -69 108 -171
321 -210 438 -156 472 -143 1030 34 1478 221 561 739 1053 1300 1234 175 57
293 80 535 105 47 4 343 -2 400 -10z"/>
<path d="M2040 4328 c-216 -18 -471 -85 -665 -173 -413 -189 -811 -579 -1011
-992 -280 -577 -270 -1324 27 -1881 163 -307 412 -580 717 -786 583 -394 1410
-446 2058 -130 209 102 372 221 560 408 392 391 585 831 610 1391 28 614 -201
1177 -653 1605 -450 425 -1002 613 -1643 558z m580 -53 c352 -64 661 -210 940
-443 406 -339 659 -790 725 -1290 14 -107 21 -436 11 -502 -2 -14 -7 -52 -11
-85 -20 -182 -92 -420 -185 -610 -210 -427 -606 -804 -1036 -986 -286 -121
-540 -166 -888 -156 -369 10 -676 96 -964 268 -347 208 -644 529 -817 884
-140 286 -195 540 -195 895 -1 357 52 597 196 895 105 218 231 391 421 576
328 320 681 496 1127 564 130 20 547 14 676 -10z"/>
<path d="M2167 4279 c-22 -13 -47 -61 -47 -92 0 -37 35 -73 88 -93 57 -21 82
-41 82 -66 0 -24 -31 -24 -106 2 -75 26 -86 22 -82 -32 3 -42 4 -43 38 -41 19
1 61 2 93 2 127 0 156 20 138 89 -14 49 -52 83 -124 112 -48 19 -57 26 -55 44
2 17 11 22 49 24 41 3 46 0 58 -25 27 -61 40 -74 61 -63 26 14 26 55 1 96 -14
23 -31 34 -64 43 -56 14 -106 14 -130 0z"/>
<path d="M2115 3894 c-315 -28 -585 -125 -823 -296 -115 -82 -312 -280 -395
-397 -74 -104 -162 -269 -200 -376 -103 -290 -124 -640 -55 -954 127 -592 638
-1102 1229 -1229 253 -55 529 -53 776 4 385 89 747 346 984 698 164 243 248
506 265 827 15 286 -53 604 -178 839 -233 438 -659 762 -1123 854 -142 29
-348 41 -480 30z m471 -63 c308 -63 570 -207 804 -441 234 -234 372 -486 442
-805 20 -87 22 -130 22 -335 0 -254 -12 -345 -70 -520 -153 -459 -551 -855
-1014 -1010 -148 -50 -267 -70 -451 -77 -318 -11 -530 32 -794 162 -435 214
-775 656 -859 1115 -37 202 -36 494 3 673 81 379 294 709 617 954 241 183 525
290 829 312 132 9 355 -4 471 -28z"/>
<path d="M3072 3423 c-23 -8 -58 -30 -77 -48 -29 -27 -35 -39 -35 -74 0 -51
19 -99 53 -130 23 -21 33 -23 87 -19 77 6 103 28 103 89 0 46 -20 69 -59 69
-38 0 -47 -24 -19 -50 19 -17 22 -27 15 -41 -15 -27 -47 -33 -75 -15 -21 14
-25 24 -25 66 0 75 30 98 120 90 37 -3 59 -17 80 -53 30 -48 26 -102 -8 -137
-50 -50 -76 -53 -496 -57 -374 -4 -388 -4 -381 14 27 68 25 126 -9 177 -20 32
-77 49 -138 44 -66 -7 -100 -33 -117 -93 -13 -47 -10 -71 15 -132 5 -10 -51
-13 -260 -13 -146 0 -266 4 -266 8 0 4 6 14 12 20 20 20 16 123 -5 156 -51 77
-212 74 -252 -4 -17 -33 -18 -126 -1 -162 8 -17 -4 -18 -170 -18 -192 0 -212
-4 -247 -52 -28 -38 -29 -131 -1 -178 30 -53 60 -59 301 -59 l211 -1 4 -157
c3 -154 4 -160 35 -225 56 -119 181 -216 300 -234 l43 -6 0 -194 0 -194 -375
0 -375 0 0 128 c0 135 -5 152 -45 152 -27 0 -42 -17 -149 -164 -71 -98 -86
-125 -84 -150 l3 -31 513 -3 512 -2 0 -94 c0 -85 -2 -95 -20 -101 -10 -3 -31
-20 -45 -36 -20 -25 -25 -41 -25 -85 0 -45 5 -59 29 -86 28 -31 33 -33 96 -33
63 0 68 2 96 33 24 27 29 41 29 86 0 44 -5 60 -25 85 -14 16 -35 33 -45 36
-18 6 -20 16 -20 101 l0 94 305 0 305 0 0 -109 c0 -63 4 -112 10 -116 6 -3 74
46 151 109 l142 116 58 0 59 0 2 -217 3 -218 150 0 150 0 3 218 2 217 109 0
109 0 23 -46 c29 -62 87 -89 168 -81 100 11 145 68 138 176 -8 100 -61 151
-160 151 -79 0 -157 -56 -157 -114 0 -14 -16 -16 -115 -16 l-115 0 -2 218 -3
217 -150 0 -150 0 -3 -217 -2 -218 -58 0 -58 0 -146 119 c-80 66 -149 117
-152 114 -3 -4 -6 -57 -6 -120 l0 -113 -305 0 -305 0 0 194 0 194 43 6 c114
17 247 118 301 228 35 71 46 139 46 274 l0 114 208 1 c133 0 219 4 241 12 52
18 73 54 79 135 l5 70 201 5 c110 3 213 9 229 12 76 20 108 98 87 217 -26 145
-114 199 -248 151z m-1562 -161 c31 -25 31 -89 -1 -115 -25 -20 -78 -18 -105
4 -21 18 -18 85 6 109 25 25 71 26 100 2z m768 2 c30 -21 31 -85 1 -115 -17
-17 -29 -20 -58 -15 -43 7 -61 28 -61 73 0 62 65 94 118 57z m-1188 -244 c24
-24 27 -82 4 -104 -23 -24 -59 -29 -91 -14 -24 11 -28 20 -31 60 -3 39 1 49
20 62 31 22 74 20 98 -4z m338 -52 l-3 -73 -128 -3 -128 -3 8 28 c9 35 9 61 0
96 l-7 27 130 0 131 0 -3 -72z m762 -3 l0 -75 -345 0 -345 0 0 75 0 75 345 0
345 0 0 -75z m528 13 c-4 -87 -6 -88 -250 -88 l-198 0 0 75 0 75 225 0 226 0
-3 -62z m-530 -310 c-3 -137 -6 -158 -27 -197 -35 -66 -107 -137 -170 -168
-49 -24 -68 -28 -146 -28 -79 1 -97 4 -148 30 -75 37 -149 117 -176 190 -17
46 -21 79 -21 190 l0 135 346 0 346 0 -4 -152z m960 -525 l-3 -38 -80 0 -80 0
-3 38 -3 37 86 0 86 0 -3 -37z m2 -148 l0 -35 -85 0 -85 0 0 35 0 35 85 0 85
0 0 -35z m-2173 -182 c-3 -2 -30 -3 -62 -1 l-57 3 59 76 58 76 3 -75 c2 -41 1
-76 -1 -79z m1674 42 c21 -19 39 -37 39 -40 0 -3 -29 -5 -65 -5 l-65 0 0 61 0
60 26 -20 c14 -11 43 -36 65 -56z m1022 34 c42 -22 57 -51 57 -114 0 -63 -15
-92 -57 -114 -31 -16 -109 -14 -142 4 -70 35 -71 183 -2 220 31 17 114 19 144
4z m-523 -44 l0 -35 -85 0 -85 0 0 35 0 35 85 0 85 0 0 -35z m-486 -136 c-16
-17 -46 -44 -66 -61 l-38 -30 0 61 0 61 67 0 67 0 -30 -31z m484 -6 l-3 -38
-80 0 -80 0 -3 38 -3 37 86 0 86 0 -3 -37z m2 -148 l0 -35 -85 0 -85 0 0 35 0
35 85 0 85 0 0 -35z m-1262 -87 c17 -17 15 -64 -4 -82 -48 -49 -117 13 -84 75
12 22 68 27 88 7z m1260 -60 l3 -38 -85 0 -86 0 0 33 c0 19 3 37 7 41 4 4 41
5 83 4 l75 -3 3 -37z"/>
<path d="M3565 1861 c-34 -14 -47 -38 -47 -86 -1 -62 24 -89 87 -89 62 -1 90
28 89 90 -1 31 -7 52 -21 65 -22 22 -78 33 -108 20z m79 -47 c34 -34 9 -94
-39 -94 -30 0 -55 25 -55 55 0 30 25 55 55 55 13 0 31 -7 39 -16z"/>
<path d="M786 3641 c-46 -46 -47 -49 -28 -62 14 -11 21 -31 26 -84 l7 -70 -26
30 c-14 17 -25 35 -25 41 0 6 -9 19 -20 29 -19 17 -20 17 -51 -16 -44 -47 -62
-76 -54 -89 3 -5 28 -10 55 -10 43 0 54 -5 109 -51 44 -37 61 -57 61 -75 0
-40 30 -42 62 -4 15 19 28 38 28 43 0 4 -15 14 -34 22 -36 15 -53 50 -29 59 8
3 27 6 43 6 24 0 29 -5 32 -27 2 -16 7 -28 13 -27 5 0 34 29 64 64 48 57 52
65 37 76 -14 10 -25 9 -59 -6 -23 -10 -68 -22 -100 -25 l-59 -8 4 99 c2 55 6
105 9 113 10 31 -19 18 -65 -28z"/>
<path d="M3709 3526 c-19 -8 -55 -24 -80 -37 -25 -13 -70 -26 -103 -29 -33 -3
-61 -10 -63 -17 -2 -6 14 -30 36 -53 44 -46 63 -45 75 5 10 38 60 35 81 -5 20
-39 19 -60 -4 -60 -38 0 -42 -24 -12 -72 16 -25 34 -48 39 -52 19 -11 70 65
88 131 10 36 18 95 18 132 1 75 -8 82 -75 57z m31 -61 c-6 -14 -15 -37 -20
-51 l-10 -26 -19 24 c-19 23 -19 23 12 50 40 34 49 35 37 3z"/>
<path d="M3930 2074 c-13 -34 -13 -146 1 -181 27 -71 101 -104 143 -64 20 19
24 20 36 6 15 -18 53 -20 82 -4 40 22 90 188 68 229 -13 24 -27 25 -49 6 -11
-10 -44 -15 -105 -17 -87 -2 -89 -1 -103 25 -19 35 -60 36 -73 0z m137 -131
c-4 -20 -14 -44 -22 -52 -15 -15 -18 -14 -31 3 -8 11 -14 35 -14 53 0 31 2 33
36 33 37 0 37 0 31 -37z m109 29 c18 -6 19 -11 12 -39 -7 -26 -14 -33 -32 -33
-25 0 -36 17 -36 56 0 25 14 29 56 16z"/>
<path d="M456 2021 c-3 -5 8 -26 24 -46 46 -58 41 -65 -39 -65 l-70 0 -3 43
-3 42 -47 3 c-49 3 -93 -12 -83 -29 4 -5 15 -9 25 -9 16 0 19 -9 22 -57 3 -57
4 -58 43 -78 26 -13 67 -21 116 -23 74 -4 76 -3 101 27 55 65 45 139 -25 181
-35 22 -53 25 -61 11z"/>
<path d="M3168 833 c-38 -26 -51 -64 -27 -78 14 -9 69 -86 69 -97 0 -23 -54
-3 -114 43 -81 63 -102 61 -91 -8 4 -26 17 -68 30 -94 21 -41 23 -51 13 -85
-7 -22 -18 -47 -26 -56 -33 -40 30 -48 86 -12 25 17 26 31 6 116 -9 40 16 45
98 19 77 -25 132 -22 170 9 21 17 22 20 7 35 -13 13 -21 14 -44 5 -34 -13 -45
-2 -97 97 -29 55 -31 64 -19 86 14 26 8 47 -12 46 -7 0 -29 -12 -49 -26z"/>
<path d="M1142 820 c-62 -46 -85 -91 -80 -151 6 -55 27 -85 75 -105 64 -27 99
-19 158 36 92 88 94 131 9 210 -56 52 -101 54 -162 10z m112 -46 c25 -10 21
-84 -7 -125 -24 -36 -44 -44 -82 -35 -43 11 -36 78 14 134 30 32 45 37 75 26z"/>
</g>
</svg>
