<?xml version="1.0" standalone="no"?>
<!DOCTYPE svg PUBLIC "-//W3C//DTD SVG 20010904//EN"
 "http://www.w3.org/TR/2001/REC-SVG-20010904/DTD/svg10.dtd">
<svg version="1.0" xmlns="http://www.w3.org/2000/svg"
 width="439.434998pt" height="439.490387pt" viewBox="0 0 439.434998 439.490387"
 preserveAspectRatio="xMidYMid meet">
<metadata>
Created by potrace 1.16, written by Peter Selinger 2001-2019
</metadata>
<g transform="translate(-5.047533,445.562149) scale(0.100000,-0.100000)"
fill="#000000" stroke="none">
<path d="M2033 4450 c-510 -50 -932 -243 -1305 -598 -223 -213 -418 -496 -523
-760 -217 -550 -205 -1208 33 -1740 106 -238 248 -439 456 -648 220 -219 432
-365 687 -473 591 -250 1333 -223 1887 70 201 106 364 229 542 408 351 354
542 732 616 1221 25 160 25 502 1 660 -74 483 -274 876 -622 1225 -346 346
-745 549 -1215 620 -127 19 -430 27 -557 15z m507 -80 c451 -57 850 -253 1189
-584 141 -138 216 -228 311 -371 229 -347 333 -708 333 -1155 0 -218 -16 -360
-62 -543 -186 -731 -796 -1339 -1531 -1522 -379 -95 -840 -79 -1207 41 -130
42 -339 142 -454 215 -257 165 -513 421 -678 678 -455 711 -421 1704 82 2378
367 491 871 792 1442 862 173 22 405 22 575 1z"/>
<path d="M2036 4339 c-638 -61 -1195 -407 -1565 -973 -276 -423 -376 -1008
-265 -1551 83 -409 274 -749 596 -1061 384 -371 820 -557 1358 -581 504 -21
956 119 1355 420 96 73 310 284 389 384 298 379 445 837 432 1338 -16 550
-198 992 -574 1387 -337 354 -755 569 -1222 628 -123 15 -389 20 -504 9z m577
-53 c412 -78 742 -246 1045 -531 359 -339 573 -758 632 -1240 16 -128 13 -409
-5 -546 -60 -461 -268 -861 -621 -1199 -335 -320 -728 -503 -1185 -551 -164
-17 -474 -7 -614 21 -445 87 -784 273 -1106 606 -310 321 -495 707 -549 1146
-13 111 -14 430 0 533 38 299 125 550 273 793 157 257 390 498 654 674 227
152 521 262 808 303 138 19 545 14 668 -9z"/>
<path d="M2211 4276 c-43 -15 -81 -59 -81 -94 0 -21 18 -44 75 -98 41 -39 75
-76 75 -82 0 -32 -85 8 -115 54 -19 29 -58 30 -63 1 -5 -26 75 -103 121 -115
49 -14 107 -6 131 17 28 29 14 63 -46 113 -97 81 -110 96 -106 125 3 26 7 28
51 31 31 2 57 -2 72 -12 12 -8 25 -12 29 -9 10 11 7 58 -6 71 -15 15 -93 14
-137 -2z"/>
<path d="M2100 3903 c-303 -27 -587 -133 -829 -310 -106 -78 -294 -270 -375
-383 -263 -368 -356 -857 -254 -1329 41 -193 133 -400 251 -568 79 -113 297
-331 410 -410 114 -80 280 -165 409 -208 352 -117 786 -109 1132 21 410 155
775 514 939 924 148 370 153 827 12 1205 -160 429 -532 801 -960 960 -221 82
-496 119 -735 98z m491 -62 c211 -46 418 -137 589 -258 122 -87 307 -272 390
-391 204 -290 289 -566 290 -937 1 -346 -95 -655 -285 -920 -275 -384 -675
-623 -1127 -676 -128 -15 -392 -7 -513 16 -296 55 -591 210 -812 426 -255 250
-407 535 -464 870 -19 108 -21 150 -16 334 7 278 41 432 142 642 205 428 601
761 1039 874 157 40 241 48 461 45 167 -3 230 -8 306 -25z"/>
<path d="M2773 3351 c-39 -11 -90 -29 -113 -41 -56 -29 -123 -97 -154 -158
-23 -45 -32 -74 -51 -164 l-5 -28 -659 0 c-416 0 -688 -4 -737 -11 -161 -22
-248 -75 -304 -183 -32 -64 -35 -74 -35 -165 0 -84 4 -103 27 -154 50 -107
160 -193 278 -218 28 -6 50 -12 50 -15 0 -2 -12 -29 -26 -61 -52 -117 -70
-307 -38 -414 22 -75 121 -172 230 -225 72 -36 85 -39 159 -38 86 1 139 17
349 111 111 50 174 92 324 217 56 47 105 86 107 86 8 0 5 -132 -5 -180 -11
-58 -58 -100 -141 -127 l-62 -20 -35 24 c-21 14 -47 23 -62 21 -23 -3 -25 -6
-22 -53 3 -61 25 -87 75 -87 91 0 185 53 367 205 63 53 118 97 123 97 4 0 0
-14 -9 -31 -9 -17 -20 -72 -24 -121 -9 -92 -23 -126 -63 -153 -27 -17 -56 -19
-163 -10 -88 8 -101 3 -90 -40 9 -35 49 -52 141 -58 79 -6 80 -6 155 34 171
93 289 212 305 309 4 22 9 40 11 40 2 0 38 -12 81 -26 168 -56 358 -41 475 40
164 111 292 380 333 699 8 58 24 61 69 12 30 -31 39 -35 85 -35 41 0 57 5 75
23 33 34 41 89 19 135 -34 71 -137 77 -185 11 -34 -46 -55 -38 -63 24 -34 275
-108 462 -234 588 -107 108 -205 148 -376 155 -88 3 -124 0 -182 -15z m288
-97 c173 -51 300 -184 377 -393 27 -76 52 -195 52 -252 l0 -39 -80 0 -80 0 0
90 c0 56 4 90 10 90 6 0 22 11 35 25 34 33 35 112 2 150 -29 35 -99 45 -145
21 l-32 -17 0 41 c0 46 -21 94 -45 104 -9 3 -37 6 -62 6 -38 0 -50 -5 -80 -35
-35 -35 -36 -35 -123 -35 -95 0 -118 10 -143 60 -7 14 -21 25 -32 25 -19 0
-20 -7 -20 -120 0 -113 1 -120 20 -120 11 0 25 11 32 25 25 51 48 60 147 60
91 0 92 0 109 -30 30 -50 123 -60 175 -18 13 11 15 10 9 -13 -10 -41 11 -99
44 -117 28 -17 29 -18 29 -104 l0 -88 -33 0 c-26 0 -36 6 -45 26 -29 62 -143
65 -179 4 -17 -30 -18 -30 -109 -30 -99 0 -122 9 -147 60 -7 14 -21 25 -32 25
-19 0 -20 -7 -20 -120 0 -113 1 -120 20 -120 11 0 25 11 32 25 25 50 48 60
143 60 87 0 88 0 123 -35 30 -30 42 -35 81 -35 36 0 52 6 71 25 14 13 25 29
25 35 0 5 16 10 35 10 l35 0 0 -84 c0 -79 -1 -85 -26 -101 -81 -53 -56 -188
36 -195 57 -5 82 1 105 25 36 35 36 115 0 150 -13 14 -29 25 -35 25 -6 0 -10
34 -10 90 l0 90 80 0 80 0 0 -35 c0 -98 -56 -290 -127 -433 -58 -119 -131
-200 -219 -243 -155 -77 -408 -35 -510 85 -52 60 -73 131 -87 285 l-12 136
-93 3 c-50 1 -92 5 -92 7 0 3 7 24 16 47 24 63 36 69 84 46 51 -25 84 -18 110
25 41 67 13 131 -64 144 -29 5 -42 1 -60 -16 -14 -14 -29 -19 -40 -15 -18 7
-17 23 4 79 l10 27 31 -26 c35 -30 32 -29 82 -15 49 13 69 54 55 108 -17 67
-67 87 -130 55 -30 -16 -36 -15 -120 12 -81 27 -90 32 -107 66 l-18 38 151 0
c158 0 176 4 176 43 0 85 82 227 160 277 104 67 254 88 371 54z m64 -279 c0
-27 -3 -30 -30 -30 -21 0 -31 5 -33 18 -6 33 6 49 35 45 24 -3 28 -8 28 -33z
m205 -124 c0 -26 -25 -44 -50 -36 -26 8 -29 62 -2 68 25 5 52 -11 52 -32z
m-1263 11 c-10 -11 -17 -36 -17 -60 0 -37 4 -45 33 -62 39 -24 79 -25 113 -3
24 15 30 15 115 -12 49 -16 86 -32 82 -36 -5 -3 -46 -16 -93 -27 -84 -21 -85
-21 -106 -1 -30 28 -88 25 -119 -6 -55 -54 -18 -155 58 -155 18 0 42 7 53 15
10 8 26 15 33 15 30 0 183 -52 175 -59 -5 -5 -47 -17 -92 -29 -82 -20 -84 -20
-103 -1 -26 26 -88 25 -124 -2 -23 -19 -26 -28 -23 -63 3 -23 8 -49 12 -58 8
-17 -16 -18 -423 -18 -237 0 -431 1 -431 3 0 1 7 34 15 72 8 39 15 94 15 123
l0 52 100 0 99 0 3 -67 3 -68 136 -5 c143 -5 165 -12 171 -53 2 -12 10 -22 18
-22 12 0 15 18 15 104 0 75 -4 106 -12 108 -7 3 -16 -4 -20 -14 -16 -47 -31
-53 -135 -53 l-98 0 0 110 0 110 98 0 c53 0 102 -4 109 -8 6 -4 17 -20 22 -36
6 -15 17 -26 24 -23 8 2 12 34 12 108 0 86 -3 104 -15 104 -8 0 -16 -10 -18
-22 -6 -41 -28 -48 -171 -53 l-136 -5 -3 -67 -3 -68 -99 0 c-97 0 -100 1 -100
23 0 20 -3 58 -15 180 l-4 47 431 0 c417 0 431 -1 415 -18z m-918 -55 c6 -35
11 -89 11 -120 l0 -57 -44 0 c-40 0 -46 3 -64 34 -15 25 -32 38 -60 47 -81 24
-154 -13 -167 -85 -10 -51 2 -104 30 -131 51 -52 160 -41 197 21 18 31 24 34
65 34 l46 0 -7 -78 c-3 -43 -12 -98 -19 -123 -13 -43 -13 -44 -61 -47 -101 -7
-219 66 -267 166 -54 109 -17 280 73 339 57 38 134 62 199 63 l57 0 11 -63z
m1015 27 c20 -19 20 -25 2 -49 -12 -17 -18 -18 -40 -7 -14 6 -26 18 -26 26 0
16 26 46 40 46 5 0 16 -7 24 -16z m363 -130 c9 -24 -10 -49 -38 -49 -24 0 -36
23 -25 51 7 19 55 18 63 -2z m-1546 -64 c23 -13 26 -72 4 -90 -22 -18 -66 -15
-82 6 -19 25 -16 51 7 74 22 22 42 25 71 10z m1193 -32 c8 -13 8 -23 0 -35
-16 -26 -51 -28 -64 -4 -25 47 36 83 64 39z m166 -6 c0 -5 -6 -16 -13 -25 -10
-15 -17 -16 -45 -6 -34 12 -33 23 3 32 33 8 55 7 55 -1z m785 -67 c0 -25 -4
-30 -28 -33 -21 -3 -29 2 -36 20 -11 30 5 50 38 46 22 -2 26 -8 26 -33z m620
0 c0 -27 -3 -30 -30 -30 -21 0 -31 5 -33 18 -6 33 6 49 35 45 24 -3 28 -8 28
-33z m-1244 -25 c23 -13 25 -58 3 -67 -36 -13 -68 33 -44 62 15 18 16 18 41 5z
m-331 -119 c13 -25 13 -27 -6 -45 -22 -23 -43 -20 -56 9 -20 45 38 79 62 36z
m144 -23 c-20 -67 -22 -68 -67 -68 l-44 0 16 34 c10 22 27 38 46 44 49 16 57
15 49 -10z m1011 -143 c0 -27 -3 -30 -30 -30 -21 0 -31 5 -33 18 -6 33 6 49
35 45 24 -3 28 -8 28 -33z m-936 -41 c-64 -67 -313 -287 -443 -390 -180 -144
-320 -210 -500 -235 -69 -10 -91 -9 -143 4 -111 29 -186 99 -232 215 -35 89
-29 143 34 290 30 71 55 134 55 140 0 9 157 12 632 12 l632 0 -35 -36z m81
-71 c-1 -51 -34 -163 -62 -210 -31 -51 -133 -161 -141 -152 -3 2 2 58 9 124
l14 120 43 38 c55 50 118 97 129 97 4 0 8 -8 8 -17z m110 -295 c28 -46 25 -72
-17 -163 -28 -61 -47 -88 -80 -112 l-43 -33 0 38 c0 96 72 302 105 302 9 0 24
-15 35 -32z"/>
<path d="M2695 2208 c-3 -8 -4 -63 -3 -124 3 -101 4 -109 23 -109 11 0 25 11
32 25 25 51 48 60 149 60 59 0 94 -4 94 -10 0 -6 11 -22 25 -35 20 -20 34 -25
78 -25 76 0 99 20 104 91 5 69 -11 100 -61 117 -53 17 -109 1 -133 -38 -17
-30 -18 -30 -105 -30 -101 0 -130 10 -149 53 -15 34 -46 48 -54 25z m430 -113
c0 -27 -3 -30 -30 -30 -21 0 -31 5 -33 18 -6 33 6 49 35 45 24 -3 28 -8 28
-33z"/>
<path d="M1354 2190 c-40 -16 -38 -31 11 -73 70 -60 94 -126 54 -148 -20 -10
-28 -4 -85 56 -94 100 -99 95 -99 -90 0 -145 1 -150 21 -153 17 -2 28 8 49 45
15 26 29 49 29 50 1 1 27 6 57 11 l56 9 -5 -46 c-7 -70 -17 -88 -72 -127 -27
-20 -50 -39 -50 -44 0 -45 236 -68 277 -27 16 16 14 20 -31 60 -39 34 -49 50
-53 84 -3 23 -2 54 1 68 7 26 9 27 54 20 66 -10 96 -28 133 -80 36 -50 59 -55
70 -15 11 40 10 249 -1 271 -18 32 -46 23 -74 -26 -33 -55 -50 -65 -120 -65
-44 0 -55 3 -58 18 -7 29 11 65 59 114 25 25 43 51 39 56 -13 21 -227 47 -262
32z"/>
<path d="M271 2446 c-6 -8 -14 -36 -18 -64 -5 -48 -4 -51 24 -65 50 -26 56
-41 28 -67 -14 -13 -30 -20 -40 -16 -34 12 -57 -108 -36 -184 12 -43 33 -28
83 59 27 47 51 87 53 90 3 2 20 -3 39 -12 28 -13 37 -26 53 -73 36 -109 75
-98 81 22 5 83 -8 114 -32 82 -19 -26 -45 -22 -56 8 -15 39 -12 48 19 66 16 9
37 27 46 41 19 29 30 89 21 112 -5 14 -10 14 -38 -7 -18 -12 -54 -44 -80 -71
-28 -28 -53 -45 -59 -41 -6 4 -24 35 -40 70 -16 35 -31 64 -33 64 -2 0 -9 -6
-15 -14z"/>
<path d="M4188 2415 c-11 -24 -14 -25 -108 -25 -84 0 -99 3 -115 20 -26 28
-33 18 -34 -50 -1 -70 16 -86 53 -51 41 39 56 29 56 -39 l0 -60 -32 0 c-17 0
-40 7 -50 16 -16 15 -18 15 -23 1 -4 -8 -5 -30 -3 -49 3 -37 -10 -34 148 -26
51 2 72 -1 94 -16 23 -14 33 -16 52 -7 26 12 29 26 14 65 -9 24 -14 25 -74 25
-36 -1 -70 2 -76 6 -5 3 -10 31 -10 61 0 51 1 54 25 54 39 0 70 -19 83 -52 8
-23 16 -29 34 -26 22 3 23 6 19 83 -2 44 -5 83 -8 88 -9 15 -34 6 -45 -18z"/>
<path d="M2016 571 c-4 -7 5 -18 23 -29 21 -12 38 -34 53 -72 32 -80 81 -160
123 -200 36 -34 37 -35 51 -15 24 31 89 144 120 208 21 43 33 57 50 57 23 0
51 26 40 37 -3 4 -32 7 -63 7 l-56 1 -20 -49 -21 -48 -64 5 c-80 6 -102 23
-77 60 21 33 11 39 -80 45 -48 3 -75 1 -79 -7z m273 -157 c6 -6 -20 -62 -34
-74 -11 -9 -19 -1 -39 33 -14 24 -26 47 -26 51 0 7 90 -2 99 -10z"/>
</g>
</svg>
