<?xml version="1.0" standalone="no"?>
<!DOCTYPE svg PUBLIC "-//W3C//DTD SVG 20010904//EN"
 "http://www.w3.org/TR/2001/REC-SVG-20010904/DTD/svg10.dtd">
<svg version="1.0" xmlns="http://www.w3.org/2000/svg"
 width="439.754973pt" height="439.366360pt" viewBox="0 0 439.754973 439.366360"
 preserveAspectRatio="xMidYMid meet">
<metadata>
Created by potrace 1.16, written by Peter Selinger 2001-2019
</metadata>
<g transform="translate(-5.123003,444.831738) scale(0.100000,-0.100000)"
fill="#000000" stroke="none">
<path d="M2070 4443 c-266 -20 -552 -96 -781 -206 -493 -238 -925 -713 -1108
-1217 -170 -469 -173 -1037 -9 -1515 197 -572 704 -1094 1279 -1314 110 -42
315 -95 459 -117 161 -26 519 -26 680 -1 578 91 1059 380 1425 858 380 495
518 1148 383 1804 -109 533 -462 1039 -953 1367 -199 132 -478 249 -714 297
-198 41 -464 59 -661 44z m499 -89 c464 -64 857 -267 1205 -624 332 -341 516
-710 582 -1167 23 -160 23 -466 0 -626 -66 -457 -261 -847 -592 -1181 -338
-341 -724 -540 -1189 -612 -152 -24 -498 -24 -650 0 -432 67 -779 234 -1116
538 -302 272 -552 695 -634 1073 -46 213 -65 510 -45 710 55 539 290 999 704
1373 347 314 761 493 1230 532 127 11 369 3 505 -16z"/>
<path d="M2040 4330 c-228 -20 -500 -95 -705 -195 -365 -178 -706 -501 -915
-865 -324 -567 -347 -1335 -56 -1933 195 -404 569 -778 973 -973 555 -270
1262 -271 1818 -4 211 101 372 218 561 405 197 195 312 353 418 570 257 527
272 1198 40 1742 -188 440 -569 841 -1005 1055 -328 162 -728 232 -1129 198z
m575 -55 c202 -36 374 -92 546 -179 432 -217 809 -618 989 -1051 107 -259 151
-492 151 -799 0 -506 -151 -929 -465 -1303 -317 -378 -723 -622 -1183 -709
-170 -32 -457 -43 -634 -25 -488 51 -895 252 -1249 617 -390 401 -574 863
-572 1429 2 346 61 610 197 890 108 220 233 392 422 576 380 371 774 543 1333
582 79 5 381 -13 465 -28z"/>
<path d="M2309 4239 c-8 -16 -8 -27 1 -44 10 -19 7 -31 -19 -84 -17 -33 -37
-61 -45 -61 -17 0 -85 86 -93 118 -4 16 0 27 12 36 12 8 16 19 11 31 -6 16
-15 17 -89 10 -45 -4 -85 -9 -89 -11 -19 -12 -5 -34 33 -56 26 -14 60 -49 94
-98 70 -99 107 -134 134 -125 24 7 56 64 66 117 10 51 40 95 80 119 41 25 45
46 9 59 -45 17 -92 12 -105 -11z"/>
<path d="M2110 3893 c-325 -31 -593 -129 -825 -300 -115 -85 -293 -263 -378
-378 -76 -104 -162 -262 -207 -385 -84 -226 -116 -502 -89 -761 28 -284 123
-540 282 -766 79 -113 297 -331 410 -410 106 -74 271 -160 388 -201 305 -107
699 -120 1014 -32 296 83 573 260 785 503 266 303 394 631 405 1037 5 218 -16
379 -77 570 -153 478 -569 895 -1048 1048 -207 66 -460 95 -660 75z m481 -63
c302 -62 565 -206 799 -440 232 -231 373 -489 442 -804 20 -88 22 -131 22
-336 0 -254 -10 -332 -69 -516 -37 -114 -134 -304 -212 -414 -83 -117 -248
-284 -367 -372 -295 -220 -615 -317 -1006 -305 -278 8 -442 47 -675 162 -365
180 -670 524 -804 908 -64 182 -75 266 -75 537 0 265 10 339 69 518 155 463
549 857 1015 1015 245 83 590 102 861 47z"/>
<path d="M2166 3446 c-50 -19 -106 -73 -106 -103 0 -13 7 -53 16 -88 19 -76
13 -112 -22 -125 -30 -12 -84 -13 -100 -2 -40 26 -39 98 1 152 25 34 24 58 -7
103 -55 78 -169 74 -256 -10 l-44 -42 5 -58 c4 -32 9 -81 13 -109 5 -44 3 -54
-18 -78 -30 -36 -105 -48 -131 -21 -23 22 -21 45 8 115 32 76 32 120 2 148
-45 42 -152 56 -207 27 -34 -18 -70 -81 -70 -123 0 -18 16 -54 40 -90 46 -69
50 -95 15 -118 -20 -13 -30 -14 -58 -5 -48 16 -67 40 -76 100 -11 68 -41 101
-93 101 -34 0 -46 -7 -92 -52 -63 -65 -90 -118 -91 -180 0 -60 25 -95 92 -128
l52 -25 3 -235 3 -235 152 -3 153 -3 2 -172 3 -172 90 -1 90 -2 6 -203 c7
-216 27 -398 58 -540 58 -259 188 -450 364 -533 98 -46 164 -60 287 -59 199 0
315 47 445 178 93 94 139 172 189 326 57 175 96 461 96 711 l0 117 83 3 82 3
3 172 2 172 153 3 152 3 3 243 2 242 46 21 c92 44 134 153 90 237 -22 43 -89
99 -134 113 -79 23 -125 -10 -171 -121 -32 -78 -55 -88 -101 -41 -39 38 -38
60 5 111 21 25 35 53 35 68 -1 42 -34 104 -75 141 -36 31 -42 33 -97 29 -67
-5 -103 -27 -132 -80 -18 -33 -19 -40 -6 -107 13 -69 12 -73 -7 -92 -27 -28
-94 -36 -112 -15 -11 13 -11 33 4 120 15 94 15 107 1 133 -16 33 -95 73 -141
73 -66 0 -138 -60 -151 -124 -3 -19 2 -72 11 -121 12 -59 14 -90 7 -97 -16
-16 -92 2 -119 28 -28 28 -28 41 -3 124 24 74 20 107 -18 142 -62 58 -155 80
-226 54z m110 -71 c47 -19 64 -60 52 -128 -16 -99 7 -157 75 -188 45 -20 130
-25 171 -9 37 14 66 47 66 74 0 13 -13 54 -30 91 -16 37 -30 73 -30 81 0 40
125 59 160 24 26 -26 25 -49 -1 -100 -40 -76 -7 -146 79 -169 84 -24 151 1
178 64 19 46 18 74 -6 113 -27 44 -25 66 6 91 59 46 147 15 159 -57 7 -46 -6
-84 -46 -129 -21 -25 -28 -41 -24 -56 14 -48 139 -137 192 -137 31 0 60 43 84
122 24 79 44 96 86 74 46 -23 66 -52 71 -106 6 -66 -13 -95 -76 -113 l-47 -14
-3 -236 -2 -236 -148 -3 -147 -3 -3 -167 -2 -168 -185 0 -185 0 -2 168 -3 167
-212 3 -213 2 0 195 0 195 123 0 122 0 17 -29 c25 -45 71 -64 139 -59 69 5
103 30 120 89 15 47 4 120 -22 153 -25 32 -80 50 -135 43 -55 -6 -90 -29 -111
-72 l-17 -35 -276 0 -276 0 -17 35 c-21 44 -57 67 -115 73 -58 5 -114 -16
-137 -52 -23 -34 -30 -105 -16 -148 19 -57 53 -81 120 -86 68 -5 114 14 139
59 l17 29 123 0 122 0 0 -195 0 -195 -207 -2 -208 -3 -3 -170 -2 -170 -183 2
-182 2 -5 168 -5 168 -152 3 -153 3 -2 237 -3 237 -50 7 c-64 9 -95 42 -95
100 0 35 6 47 44 85 35 35 51 44 73 41 23 -3 35 -16 73 -86 63 -117 93 -129
187 -76 73 42 81 82 27 135 -69 66 -85 139 -39 184 26 27 89 34 126 14 40 -21
42 -55 8 -125 -25 -51 -30 -73 -26 -101 8 -47 43 -82 88 -89 54 -9 142 13 169
41 32 34 51 113 38 161 -5 22 -12 49 -15 61 -9 37 21 70 81 89 60 19 102 13
111 -15 3 -11 -3 -45 -15 -77 -30 -86 -27 -110 20 -157 39 -38 42 -40 90 -34
79 10 120 34 143 86 18 42 19 51 7 127 -7 45 -10 89 -7 98 8 21 84 22 133 1z
m-396 -445 c12 -12 20 -33 20 -55 0 -44 -29 -75 -72 -75 -46 0 -68 25 -68 76
0 33 5 46 22 58 31 22 74 20 98 -4z m838 4 c17 -12 22 -25 22 -59 0 -34 -5
-47 -22 -59 -53 -38 -118 -5 -118 59 0 63 66 96 118 59z m-706 -746 l3 -173
98 -3 97 -3 0 -296 0 -296 -73 5 c-94 6 -122 25 -158 103 -45 99 -88 121 -119
60 -19 -38 -20 -299 -2 -361 19 -65 34 -71 77 -33 20 18 50 52 66 76 37 53 75
74 151 80 l58 6 0 -118 c0 -100 -3 -126 -21 -162 -28 -57 -95 -111 -166 -132
-50 -15 -58 -21 -58 -42 l0 -24 285 0 285 0 0 24 c0 22 -8 27 -62 43 -46 14
-73 30 -108 63 -65 64 -75 93 -75 230 l0 115 38 0 c54 0 135 -26 158 -51 10
-11 30 -44 44 -72 28 -58 73 -98 91 -80 6 6 18 76 27 156 14 121 14 160 4 228
-6 46 -15 86 -20 91 -15 15 -58 -19 -89 -72 -65 -110 -98 -130 -210 -130 l-43
0 0 295 0 294 103 3 102 3 3 173 2 172 75 0 75 0 2 -172 3 -173 129 -3 129 -3
-6 -162 c-22 -565 -157 -912 -405 -1040 -88 -45 -148 -59 -257 -58 -194 2
-328 70 -434 222 -125 177 -186 437 -198 846 l-6 192 129 3 129 3 3 173 2 172
70 0 70 0 2 -172z m198 37 l0 -135 -70 0 -70 0 0 135 0 135 70 0 70 0 0 -135z
m220 -2 l0 -138 -70 3 -70 4 0 134 0 134 70 0 70 0 0 -137z"/>
<path d="M1199 2731 c-24 -25 -29 -38 -29 -78 0 -59 18 -88 66 -103 97 -32
171 40 144 140 -14 51 -42 70 -103 70 -40 0 -53 -5 -78 -29z m110 -58 c13 -25
-5 -53 -34 -53 -15 0 -26 7 -30 20 -13 41 43 70 64 33z"/>
<path d="M1496 2737 c-30 -30 -40 -84 -24 -133 11 -33 19 -41 57 -53 93 -29
159 23 148 118 -7 63 -41 91 -108 91 -39 0 -55 -5 -73 -23z m104 -62 c20 -24
3 -57 -28 -53 -27 3 -39 26 -28 54 7 18 40 18 56 -1z"/>
<path d="M2815 2737 c-34 -28 -43 -89 -22 -139 21 -50 78 -69 140 -47 49 16
67 46 67 107 0 35 -6 49 -29 73 -25 24 -38 29 -80 29 -37 0 -56 -6 -76 -23z
m108 -68 c16 -26 1 -49 -32 -49 -33 0 -46 22 -30 51 12 24 47 22 62 -2z"/>
<path d="M3113 2745 c-30 -21 -45 -80 -33 -126 15 -55 42 -74 107 -73 73 0
103 31 103 104 0 26 -3 56 -6 65 -16 41 -127 61 -171 30z m102 -90 c0 -27 -3
-30 -30 -30 -21 0 -31 5 -33 18 -6 33 6 49 35 45 24 -3 28 -8 28 -33z"/>
<path d="M276 2370 c-49 -9 -68 -34 -62 -80 3 -19 8 -81 12 -138 6 -105 15
-128 34 -93 9 19 22 21 143 23 l132 3 0 145 0 145 -43 3 c-57 4 -68 -21 -25
-57 27 -23 31 -34 35 -88 l4 -63 -33 -6 c-18 -3 -41 -3 -50 1 -16 5 -13 10 16
34 57 47 33 69 -69 61 -61 -4 -82 -41 -35 -62 23 -10 35 -37 18 -39 -74 -7
-83 -4 -83 24 0 31 21 76 57 124 26 34 27 67 3 69 -8 1 -33 -2 -54 -6z"/>
<path d="M3967 2330 c-9 -19 -12 -39 -9 -45 4 -5 5 -40 3 -77 -1 -37 0 -72 4
-78 11 -17 35 8 35 36 0 23 2 24 79 24 43 0 91 3 107 6 26 5 30 2 41 -26 20
-53 32 -25 30 72 -2 98 -16 123 -39 71 -17 -38 -25 -43 -83 -43 -90 0 -125 10
-125 34 0 12 -6 31 -14 42 -14 18 -15 17 -29 -16z"/>
<path d="M2127 533 c-3 -5 -8 -53 -12 -108 -7 -96 -9 -101 -39 -126 -26 -23
-29 -29 -17 -43 7 -9 28 -16 47 -16 37 0 54 20 54 67 0 43 11 73 26 73 8 0 14
-4 14 -8 0 -5 24 -34 53 -65 45 -50 57 -57 89 -57 44 0 91 16 84 29 -3 5 -22
12 -41 15 l-35 7 0 93 c0 90 1 93 26 105 14 6 24 17 22 24 -5 15 -97 22 -110
9 -6 -6 -6 -36 1 -82 7 -40 9 -75 6 -78 -10 -10 -48 34 -76 90 -32 64 -76 97
-92 71z"/>
</g>
</svg>
