<?xml version="1.0" standalone="no"?>
<!DOCTYPE svg PUBLIC "-//W3C//DTD SVG 20010904//EN"
 "http://www.w3.org/TR/2001/REC-SVG-20010904/DTD/svg10.dtd">
<svg version="1.0" xmlns="http://www.w3.org/2000/svg"
 width="439.310856pt" height="439.409469pt" viewBox="0 0 439.310856 439.409469"
 preserveAspectRatio="xMidYMid meet">
<metadata>
Created by potrace 1.16, written by Peter Selinger 2001-2019
</metadata>
<g transform="translate(-6.173735,444.566958) scale(0.100000,-0.100000)"
fill="#000000" stroke="none">
<path d="M2043 4440 c-459 -45 -844 -205 -1193 -498 -221 -184 -428 -439 -551
-677 -170 -329 -251 -707 -235 -1100 24 -608 243 -1095 683 -1515 437 -417
978 -620 1593 -597 576 22 1034 215 1449 612 355 339 572 760 648 1255 24 159
24 501 -1 660 -74 484 -273 877 -622 1225 -349 348 -749 552 -1218 620 -132
19 -426 27 -553 15z m547 -87 c364 -53 702 -201 995 -437 178 -143 385 -378
508 -576 363 -588 392 -1420 71 -2050 -162 -319 -430 -618 -741 -826 -111 -75
-341 -190 -454 -228 -236 -79 -435 -110 -709 -110 -357 0 -618 56 -910 195
-425 204 -780 550 -995 970 -101 197 -162 390 -201 634 -24 150 -24 495 0 650
60 387 211 726 451 1014 390 469 898 738 1475 781 137 11 378 3 510 -17z"/>
<path d="M2046 4328 c-372 -32 -718 -165 -1028 -394 -117 -87 -345 -312 -430
-424 -293 -389 -432 -835 -414 -1330 16 -457 140 -820 399 -1170 91 -122 325
-356 447 -446 349 -259 709 -382 1165 -401 599 -24 1123 183 1551 611 377 377
567 792 606 1323 37 510 -100 997 -392 1385 -462 615 -1135 914 -1904 846z
m504 -43 c420 -54 792 -234 1119 -541 350 -330 566 -745 627 -1207 20 -151 19
-444 -2 -587 -68 -472 -271 -859 -630 -1200 -264 -251 -592 -428 -927 -501
-215 -47 -508 -63 -722 -39 -457 51 -843 235 -1184 565 -351 340 -552 736
-611 1205 -13 108 -13 430 0 535 38 296 131 567 278 802 155 251 396 497 646
664 395 262 892 369 1406 304z"/>
<path d="M2087 4270 c-21 -13 -14 -30 13 -30 19 0 20 -5 34 -203 3 -46 2 -48
-31 -62 -58 -24 -29 -35 92 -35 107 0 115 1 144 26 45 38 41 93 -10 150 -19
20 -19 21 2 40 50 45 45 83 -13 104 -47 16 -209 23 -231 10z m187 -46 c35 -34
10 -84 -42 -84 -19 0 -32 33 -32 81 0 24 51 26 74 3z m35 -138 c17 -20 -1 -51
-42 -76 -50 -31 -57 -27 -57 35 l0 55 44 0 c26 0 48 -6 55 -14z"/>
<path d="M2120 3894 c-251 -30 -384 -64 -558 -145 -165 -76 -305 -173 -444
-307 -289 -279 -451 -604 -497 -997 -13 -112 -6 -383 13 -490 42 -231 142
-473 272 -656 78 -110 296 -328 407 -406 100 -70 268 -159 374 -196 447 -160
987 -116 1387 113 242 139 494 392 629 634 90 159 158 358 188 551 19 113 16
417 -4 535 -58 344 -210 634 -462 885 -254 254 -534 400 -875 459 -93 16 -360
28 -430 20z m481 -63 c212 -46 418 -137 589 -258 122 -87 306 -272 393 -393
212 -299 304 -631 286 -1030 -24 -506 -284 -955 -723 -1251 -165 -112 -338
-183 -558 -231 -139 -30 -490 -33 -638 -5 -329 63 -620 224 -863 477 -227 237
-364 507 -418 821 -19 108 -21 151 -16 334 4 161 10 232 26 303 79 355 264
656 551 896 223 188 478 304 766 351 135 22 478 14 605 -14z"/>
<path d="M2010 3280 c-220 -17 -359 -56 -545 -154 -139 -73 -396 -227 -440
-264 l-30 -25 -5 57 c-6 68 -24 86 -85 86 -52 0 -83 -22 -91 -65 -13 -70 26
-115 97 -115 16 0 29 -4 29 -10 0 -5 -18 -37 -40 -72 -23 -34 -43 -73 -47 -86
-4 -18 -10 -22 -28 -18 -84 21 -139 -83 -81 -151 20 -23 32 -28 71 -28 62 0
87 28 84 94 -2 50 15 92 63 154 25 30 33 35 44 26 10 -8 13 -23 10 -43 -7 -40
11 -75 47 -95 20 -11 36 -35 52 -73 13 -31 37 -77 54 -102 17 -24 31 -47 31
-50 0 -6 -366 -571 -397 -612 -29 -39 -29 -43 3 -106 76 -150 224 -348 260
-348 37 0 157 233 170 333 l6 43 -103 76 c-57 42 -116 89 -131 105 l-27 28
135 210 c75 116 137 212 139 213 5 5 140 -107 140 -116 0 -4 -17 -49 -39 -99
-37 -89 -40 -93 -75 -99 -20 -4 -44 -11 -53 -16 -27 -13 -48 -62 -48 -112 0
-87 39 -126 125 -126 88 0 125 39 125 130 0 37 -6 55 -24 77 l-24 29 36 81
c20 45 40 83 43 85 4 2 54 -25 112 -60 l105 -62 -30 -93 c-16 -50 -87 -265
-158 -477 l-128 -385 31 -28 c48 -42 308 -137 376 -137 15 0 28 14 45 48 42
82 59 167 60 296 l1 119 -70 24 c-38 13 -106 33 -150 45 -44 12 -81 22 -83 23
-2 2 168 525 173 532 0 1 28 -9 60 -22 33 -13 97 -34 142 -47 46 -14 84 -26
87 -29 5 -5 -40 -245 -49 -259 -3 -5 -15 -10 -26 -10 -11 0 -34 -13 -50 -29
-26 -26 -29 -36 -29 -91 0 -54 3 -65 28 -90 56 -55 165 -48 202 13 35 56 20
145 -30 180 -20 14 -20 14 0 123 28 149 29 156 39 150 4 -3 59 -12 121 -20 61
-8 114 -17 116 -19 3 -2 -29 -213 -70 -468 -41 -255 -76 -477 -78 -494 -3 -25
2 -32 37 -50 34 -17 57 -20 160 -18 66 1 134 6 150 11 28 8 30 12 38 78 4 38
16 138 27 223 12 85 17 158 12 163 -4 4 -60 15 -123 23 -62 9 -123 18 -135 20
-21 5 -21 5 13 217 18 117 37 231 41 253 l8 40 124 -3 c69 -2 127 -6 129 -8 4
-4 -15 -168 -26 -224 -3 -17 -16 -30 -44 -42 -75 -32 -91 -148 -29 -210 25
-25 36 -28 89 -28 53 0 65 4 93 29 31 27 33 34 33 91 0 58 -2 63 -37 95 l-36
34 17 128 16 128 80 7 c43 4 81 6 83 4 3 -3 -3 -81 -23 -306 -12 -130 -46
-531 -52 -602 -7 -91 -1 -97 73 -79 62 16 191 80 226 113 l29 27 -3 143 -3
143 -107 3 -108 3 0 27 c0 15 6 95 14 177 8 83 18 193 21 245 4 52 10 98 14
102 7 7 168 28 220 28 l33 0 -6 -67 c-3 -38 -8 -111 -11 -164 -6 -93 -7 -95
-35 -106 -90 -34 -92 -192 -3 -229 50 -21 120 -12 151 20 52 52 46 145 -13
193 l-35 29 10 129 c5 72 10 143 10 159 l0 29 59 -6 c135 -14 251 -88 251
-159 0 -121 -107 -170 -153 -72 -22 44 -21 60 1 73 14 8 22 4 43 -21 34 -40
59 -33 59 17 0 25 -8 44 -26 62 -22 22 -32 25 -77 20 -70 -6 -91 -33 -84 -105
7 -62 42 -131 77 -150 32 -17 98 -9 151 18 69 36 101 150 65 233 -34 79 -147
139 -289 153 l-68 7 2 99 c1 54 5 101 10 104 5 2 50 -12 101 -34 l92 -38 1
-56 c2 -93 38 -128 134 -128 61 0 97 26 111 82 17 59 4 113 -33 144 -26 22
-38 25 -86 23 -46 -3 -74 4 -161 38 -58 23 -118 45 -133 48 -27 7 -28 9 -23
64 3 31 8 100 12 154 l7 99 29 -54 c83 -152 183 -186 305 -102 64 44 89 88 99
175 7 67 -6 103 -48 129 -74 45 -212 45 -252 1 -40 -44 -27 -153 22 -191 22
-18 35 -21 71 -16 62 8 91 38 91 91 0 57 -27 83 -67 63 -33 -16 -41 -43 -19
-67 12 -13 13 -20 4 -29 -19 -19 -45 -14 -62 10 -35 50 -8 111 56 128 88 24
146 -31 135 -129 -14 -123 -201 -165 -250 -57 -8 17 -20 49 -27 71 -93 296
-496 607 -926 716 -103 26 -325 52 -404 48 -14 -1 -68 -5 -120 -9z m-19 -109
c-31 -55 -276 -231 -324 -231 -20 0 -105 95 -113 127 -8 28 -8 28 37 47 l36
15 -5 -47 c-6 -67 18 -95 82 -96 41 -1 51 3 72 27 30 35 31 85 4 120 -11 14
-17 28 -13 30 5 3 42 10 83 17 103 16 102 16 127 12 17 -3 20 -8 14 -21z m342
9 c82 -12 264 -54 274 -63 10 -11 -78 -119 -186 -228 -103 -103 -166 -149
-181 -132 -4 4 -28 69 -54 143 -41 119 -47 144 -44 205 3 64 5 70 28 76 38 10
81 10 163 -1z m-267 -67 c24 -107 69 -281 90 -351 14 -46 24 -86 21 -88 -11
-11 -106 20 -192 63 -104 52 -230 134 -230 150 0 11 283 251 297 252 4 1 10
-11 14 -26z m-325 -19 c17 -21 0 -49 -31 -49 -31 0 -48 28 -31 49 8 9 21 16
31 16 10 0 23 -7 31 -16z m1174 -89 c50 -25 100 -53 112 -62 l23 -18 -29 -61
c-30 -63 -131 -224 -141 -224 -8 0 -160 361 -184 437 l-7 23 68 -25 c37 -14
109 -45 158 -70z m-1455 11 c0 -8 22 -38 48 -68 l49 -53 -136 -211 c-75 -117
-143 -222 -152 -235 -15 -23 -16 -22 -63 44 l-48 67 21 43 c37 77 7 140 -67
140 -28 0 -42 5 -52 20 -11 18 -8 24 26 53 67 58 178 132 260 173 84 43 114
50 114 27z m1330 -340 c36 -106 50 -98 -182 -94 -210 4 -236 9 -307 55 l-24
15 179 179 179 180 67 -138 c37 -76 77 -165 88 -197z m-1862 242 c28 -28 1
-75 -38 -63 -14 4 -20 15 -20 34 0 15 3 31 7 34 10 11 38 8 51 -5z m2238 -63
c40 -33 134 -148 134 -165 0 -12 -140 -71 -219 -91 -68 -17 -141 -25 -141 -15
0 10 70 167 86 193 25 39 84 113 91 113 3 0 25 -16 49 -35z m-1496 -50 c0 -19
-223 -525 -232 -525 -13 0 -89 54 -111 78 -18 20 -18 21 1 49 22 31 211 321
257 395 l29 47 28 -17 c15 -9 28 -21 28 -27z m230 -126 c0 -7 -162 -506 -175
-541 -6 -16 -19 -12 -107 33 -55 29 -102 57 -104 63 -3 7 41 115 97 241 55
127 107 245 114 263 l14 32 81 -42 c44 -23 80 -45 80 -49z m-765 -24 c0 -24
-5 -31 -24 -33 -32 -5 -54 23 -40 50 7 13 19 18 37 16 23 -2 27 -8 27 -33z
m940 -42 c49 -20 91 -37 92 -37 3 -2 -107 -580 -112 -584 -7 -8 -265 91 -265
101 0 4 39 126 86 270 47 144 87 268 89 275 6 17 8 16 110 -25z m1225 -55 c0
-52 -20 -341 -23 -344 -1 -2 -20 1 -42 6 -22 5 -73 11 -114 14 -41 3 -76 7
-77 9 -6 5 23 267 29 273 3 3 41 18 84 33 43 15 87 32 98 39 36 21 45 15 45
-30z m-2459 -14 c17 -21 0 -49 -31 -49 -31 0 -48 28 -31 49 8 9 21 16 31 16
10 0 23 -7 31 -16z m1481 -13 c40 -11 90 -22 111 -26 35 -6 38 -8 33 -33 -3
-15 -24 -144 -46 -286 -22 -143 -43 -262 -45 -265 -7 -6 -184 25 -220 39 -18
7 -25 15 -21 28 2 9 25 134 51 277 48 271 51 285 60 285 2 0 37 -9 77 -19z
m663 -128 c-8 -106 -11 -117 -27 -107 -19 12 -80 5 -104 -11 -23 -15 -24 -14
-23 7 0 13 6 61 12 108 l12 85 50 6 c97 11 88 21 80 -88z m-206 71 c2 -1 -13
-126 -33 -277 -20 -150 -36 -279 -36 -286 0 -10 -29 -12 -124 -9 -69 2 -127 5
-130 9 -3 3 15 132 39 288 25 155 45 283 45 285 0 3 234 -6 239 -10z m166
-279 c0 -25 -4 -31 -27 -33 -19 -2 -28 2 -33 18 -8 27 12 52 39 48 16 -2 21
-10 21 -33z m255 -48 l65 -12 1 -95 c0 -52 -1 -102 -3 -111 -4 -13 -25 -17
-121 -22 -64 -3 -120 -2 -123 1 -3 4 -1 62 5 130 l9 122 51 0 c28 -1 80 -6
116 -13z m-291 -57 l41 0 0 -49 c0 -26 -3 -69 -6 -95 l-7 -46 -79 0 -80 0 6
33 c3 17 11 73 17 124 l12 92 27 -29 c22 -24 36 -30 69 -30z m808 -86 c15 -24
15 -29 2 -53 -16 -29 -61 -40 -85 -20 -17 14 -19 70 -2 87 22 22 66 14 85 -14z
m-2369 -116 c20 -20 15 -76 -7 -88 -59 -31 -112 22 -81 81 12 22 68 27 88 7z
m-335 -157 c40 -26 91 -59 115 -72 43 -24 43 -25 38 -67 -8 -61 -42 -134 -80
-171 l-33 -32 -94 121 c-52 67 -98 129 -103 140 -6 14 2 31 34 74 23 31 44 56
47 56 2 0 36 -22 76 -49z m1035 -219 c15 -20 16 -54 0 -70 -7 -7 -26 -12 -43
-12 -38 0 -55 16 -55 51 0 52 65 72 98 31z m671 -46 c17 -20 10 -77 -10 -89
-24 -15 -68 0 -81 28 -23 52 55 104 91 61z m589 -38 c7 -7 12 -27 12 -45 0
-27 -5 -35 -27 -44 -54 -20 -100 30 -73 80 12 24 68 29 88 9z m-1592 -129 l96
-30 -7 -52 c-4 -29 -21 -96 -39 -149 l-31 -96 -138 50 c-108 40 -137 54 -133
67 2 9 19 67 36 129 l33 112 43 0 c24 0 87 -14 140 -31z m850 -103 c4 -4 -18
-165 -32 -239 l-17 -89 -103 4 c-58 2 -108 8 -114 14 -8 8 -6 50 10 155 12 79
23 150 26 158 3 11 26 12 117 6 61 -4 113 -8 113 -9z m544 -70 c0 -118 -3
-122 -93 -167 -44 -22 -82 -37 -84 -35 -3 3 0 59 6 124 6 66 11 125 11 131 0
7 29 11 80 11 l80 0 0 -64z"/>
<path d="M2249 3091 c-20 -16 -24 -29 -24 -70 0 -62 17 -81 76 -88 35 -4 50 0
72 17 23 18 27 29 27 71 0 64 -23 89 -84 89 -28 0 -52 -7 -67 -19z m89 -43
c17 -17 15 -43 -4 -59 -31 -26 -70 25 -44 56 15 18 32 19 48 3z"/>
<path d="M1902 2977 c-33 -35 -31 -109 4 -136 34 -27 94 -28 125 -2 20 16 24
29 24 71 0 42 -4 55 -24 71 -34 28 -101 26 -129 -4z m82 -33 c24 -9 21 -61 -4
-69 -39 -12 -66 35 -38 63 14 14 20 14 42 6z"/>
<path d="M2831 2934 c-27 -34 -28 -94 -2 -125 16 -20 29 -24 71 -24 65 0 90
25 90 91 0 61 -25 84 -89 84 -42 0 -53 -4 -70 -26z m102 -45 c16 -26 1 -49
-32 -49 -21 0 -32 6 -36 20 -14 43 44 67 68 29z"/>
<path d="M2514 2831 c-56 -24 -71 -100 -30 -148 21 -24 31 -28 72 -27 36 1 52
6 66 24 24 29 24 100 1 129 -20 24 -77 35 -109 22z m71 -86 c0 -24 -5 -31 -24
-33 -32 -5 -54 23 -40 50 7 13 19 18 37 16 23 -2 27 -8 27 -33z"/>
<path d="M3072 2810 c-44 -18 -56 -100 -21 -144 17 -22 28 -26 70 -26 64 0 89
23 89 84 0 58 -23 86 -75 92 -22 2 -50 -1 -63 -6z m83 -70 c14 -43 -44 -69
-65 -31 -15 29 -2 51 30 51 20 0 31 -6 35 -20z"/>
<path d="M728 3553 c-66 -45 -95 -121 -64 -168 20 -30 59 -33 151 -10 68 16
125 19 125 6 0 -20 -42 -60 -69 -66 -16 -3 -35 -13 -41 -21 -25 -29 45 -90 80
-69 7 4 9 19 5 36 -4 18 -2 29 4 29 6 0 26 14 46 31 29 25 35 38 35 69 0 29
-6 43 -22 54 -29 21 -57 20 -148 -4 -84 -22 -130 -25 -130 -9 0 6 10 24 21 41
20 28 24 29 68 23 40 -5 50 -3 66 15 17 19 17 22 3 36 -25 25 -98 29 -130 7z"/>
<path d="M3758 3554 c-3 -3 -1 -20 5 -39 11 -39 9 -42 -90 -111 -47 -33 -56
-36 -78 -26 -23 11 -27 9 -34 -11 -6 -16 -3 -29 9 -47 38 -52 86 -99 105 -102
18 -3 21 4 26 65 5 56 10 72 34 97 35 37 88 49 114 26 20 -18 37 -21 46 -6 7
11 -30 65 -84 123 -35 37 -43 42 -53 31z"/>
<path d="M284 2116 c-3 -8 -6 -36 -7 -63 l-2 -48 73 1 c39 0 72 -4 72 -9 0
-13 -36 -73 -71 -117 -22 -28 -28 -49 -31 -95 -3 -54 -1 -60 17 -60 15 0 21 8
23 30 5 42 11 46 94 61 105 19 111 18 130 -17 10 -17 22 -27 28 -24 13 8 13
86 0 119 -12 32 -22 32 -59 5 -16 -12 -50 -24 -76 -26 l-46 -6 16 39 c18 44
65 96 113 126 29 18 32 23 20 35 -12 12 -24 11 -82 -2 -98 -23 -126 -18 -155
28 -25 38 -48 47 -57 23z"/>
<path d="M3929 2013 c-12 -32 -15 -135 -5 -152 13 -20 27 -12 42 24 12 29 19
35 44 35 25 0 30 -4 30 -24 0 -13 -7 -29 -15 -36 -9 -7 -15 -23 -13 -34 2 -16
11 -22 41 -24 52 -4 68 10 56 51 -16 56 -13 63 26 59 28 -3 35 -9 35 -26 0
-35 -20 -96 -32 -96 -6 0 -26 -10 -45 -21 -32 -20 -33 -23 -18 -38 19 -20 111
-19 130 1 20 21 49 237 36 271 -13 32 -20 33 -63 7 -48 -29 -131 -27 -183 5
-50 31 -53 31 -66 -2z"/>
<path d="M3073 768 c-24 -16 -43 -31 -43 -34 0 -3 11 -27 25 -54 38 -75 29
-93 -20 -44 -24 24 -32 26 -86 22 -67 -5 -104 -30 -114 -80 -11 -49 8 -52 44
-8 35 44 53 48 105 23 33 -15 34 -18 20 -37 -23 -33 -18 -93 11 -122 21 -21
32 -24 62 -19 37 6 146 70 176 103 15 16 13 20 -31 52 -50 38 -69 75 -79 162
-8 66 -20 72 -70 36z m74 -230 l23 -32 -23 -13 c-31 -17 -74 -16 -81 3 -7 19
8 50 32 63 24 14 24 14 49 -21z"/>
<path d="M1364 721 c-51 -23 -85 -70 -92 -126 -6 -61 3 -89 45 -136 35 -39 39
-41 81 -35 56 8 135 50 173 93 41 48 41 109 -1 157 -50 57 -139 77 -206 47z
m151 -75 c15 -22 15 -28 2 -53 -9 -15 -30 -42 -49 -60 -77 -74 -122 -57 -123
45 0 55 1 58 35 74 19 10 54 18 77 18 34 0 46 -5 58 -24z"/>
</g>
</svg>
