<?xml version="1.0" standalone="no"?>
<!DOCTYPE svg PUBLIC "-//W3C//DTD SVG 20010904//EN"
 "http://www.w3.org/TR/2001/REC-SVG-20010904/DTD/svg10.dtd">
<svg version="1.0" xmlns="http://www.w3.org/2000/svg"
 width="439.735367pt" height="439.484390pt" viewBox="0 0 439.735367 439.484390"
 preserveAspectRatio="xMidYMid meet">
<metadata>
Created by potrace 1.16, written by Peter Selinger 2001-2019
</metadata>
<g transform="translate(-5.074712,441.653159) scale(0.100000,-0.100000)"
fill="#000000" stroke="none">
<path d="M2070 4414 c-445 -41 -815 -180 -1138 -428 -331 -254 -584 -580 -726
-934 -181 -450 -205 -996 -65 -1479 188 -650 748 -1228 1396 -1441 368 -122
793 -143 1195 -62 550 112 1042 458 1379 967 302 457 409 1074 289 1663 -158
775 -815 1458 -1589 1650 -64 16 -163 36 -221 45 -103 15 -430 27 -520 19z
m504 -90 c364 -50 711 -203 1006 -441 107 -87 304 -292 386 -403 280 -377 407
-769 407 -1260 0 -287 -38 -514 -128 -755 -184 -492 -586 -931 -1070 -1165
-206 -100 -372 -151 -605 -186 -158 -24 -482 -24 -640 0 -462 70 -853 268
-1185 601 -340 340 -537 734 -606 1215 -19 131 -16 472 4 610 70 459 264 842
593 1173 376 379 810 584 1328 627 129 11 370 3 510 -16z"/>
<path d="M2036 4298 c-305 -26 -629 -134 -881 -293 -145 -91 -231 -161 -376
-305 -150 -149 -264 -295 -359 -460 -328 -574 -347 -1360 -45 -1955 231 -456
655 -844 1115 -1018 589 -223 1287 -170 1804 138 360 214 663 539 841 902 205
416 257 940 143 1428 -155 668 -720 1270 -1386 1479 -254 80 -565 110 -856 84z
m404 -33 c356 -24 728 -164 1022 -385 461 -346 753 -831 823 -1366 17 -133 20
-430 5 -554 -60 -478 -261 -877 -617 -1221 -339 -327 -732 -512 -1193 -560
-143 -15 -465 -7 -585 15 -456 83 -809 273 -1135 612 -314 325 -494 701 -550
1144 -13 110 -13 430 0 540 57 448 238 822 560 1154 456 469 989 668 1670 621z"/>
<path d="M2325 4236 c-20 -16 -20 -16 4 -34 l23 -19 -27 -61 c-20 -45 -33 -62
-47 -62 -35 0 -55 18 -77 71 -21 47 -21 52 -6 69 14 15 14 18 0 30 -17 14
-183 6 -199 -10 -16 -16 1 -36 42 -48 48 -14 89 -59 126 -134 15 -31 40 -68
56 -83 29 -28 30 -28 50 -10 24 22 98 132 129 193 12 23 32 47 45 52 56 21 36
46 -45 56 -41 4 -59 2 -74 -10z"/>
<path d="M2065 3859 c-332 -35 -641 -168 -885 -381 -331 -290 -514 -626 -565
-1041 -25 -201 -16 -399 27 -596 128 -594 642 -1106 1234 -1230 457 -96 916
-16 1274 224 519 347 795 914 742 1523 -21 235 -69 410 -167 607 -137 275
-414 560 -689 710 -278 152 -635 219 -971 184z m405 -40 c345 -39 653 -193
920 -459 234 -234 372 -486 442 -805 20 -87 22 -130 22 -335 0 -254 -10 -332
-69 -516 -37 -114 -134 -304 -212 -414 -76 -106 -245 -281 -343 -356 -221
-168 -463 -269 -744 -310 -135 -20 -413 -15 -549 10 -320 59 -619 224 -860
476 -214 223 -345 469 -409 766 -21 97 -23 135 -23 349 1 208 4 253 22 335 74
331 238 616 483 843 366 338 799 475 1320 416z"/>
<path d="M965 3133 c-59 -15 -89 -91 -61 -157 17 -41 46 -56 107 -56 29 0 47
7 64 25 14 13 25 29 25 35 0 5 20 10 45 10 l45 0 2 -382 3 -383 227 -3 227 -2
3 -153 3 -152 160 0 160 0 3 153 3 152 114 0 115 0 0 -440 0 -440 -60 0 c-79
0 -113 18 -134 70 -14 36 -20 41 -44 38 l-27 -3 0 -140 0 -140 27 -3 c24 -3
30 2 44 37 20 49 61 71 138 71 l56 0 0 -122 c0 -139 -9 -168 -58 -184 -42 -13
-54 -27 -50 -55 3 -24 3 -24 143 -24 l140 0 0 34 c0 31 -4 36 -32 43 -55 14
-63 37 -63 181 l0 129 69 -4 c78 -4 103 -19 127 -76 11 -28 18 -33 41 -30 l28
3 0 140 0 140 -27 3 c-24 3 -30 -2 -44 -38 -21 -52 -55 -70 -134 -70 l-60 0 0
550 0 550 25 0 25 0 2 -427 3 -428 95 0 95 0 3 428 2 427 30 0 30 0 2 -427 3
-428 185 0 185 0 5 124 5 125 58 -78 c66 -87 91 -96 116 -38 8 17 20 32 27 32
7 0 30 -20 52 -45 22 -25 45 -45 51 -45 6 0 12 -12 12 -27 3 -74 -19 -96 -97
-97 -37 -1 -59 -6 -62 -14 -5 -15 88 -133 124 -157 39 -25 54 -13 54 42 0 93
60 143 110 93 17 -17 20 -33 20 -109 0 -141 35 -147 137 -21 64 79 80 114 64
134 -10 12 -17 13 -45 1 -41 -17 -91 -6 -130 30 -26 24 -31 42 -20 82 6 20 13
22 83 25 74 3 76 4 73 28 -4 36 -46 93 -109 146 -61 52 -79 50 -61 -8 9 -31 8
-42 -12 -82 -15 -32 -28 -46 -42 -46 -21 0 -178 154 -178 174 0 6 7 29 16 53
l16 42 62 3 61 3 3 112 3 112 107 3 107 3 0 435 0 435 -310 0 -310 0 -3 -162
-2 -163 -190 0 -190 0 -2 163 -3 162 -315 0 -315 0 -3 -162 -2 -163 -175 0
-175 0 -2 163 -3 162 -242 3 c-192 2 -243 5 -243 15 0 38 -81 74 -135 60z m73
-105 c3 -23 -2 -29 -24 -34 -35 -9 -59 18 -43 48 16 30 63 21 67 -14z m484
-200 l3 -163 240 0 240 0 3 163 2 162 110 0 110 0 0 -65 0 -65 -34 0 c-39 0
-83 31 -88 63 -2 16 -10 22 -28 22 l-25 0 0 -120 c0 -113 1 -120 20 -120 11 0
25 11 32 25 19 38 51 60 89 60 34 0 34 0 34 -46 0 -58 -13 -82 -56 -100 -24
-10 -34 -20 -32 -32 3 -15 18 -17 123 -17 106 0 120 2 120 17 0 9 -16 27 -35
40 -37 25 -48 52 -42 105 3 25 9 33 24 33 33 0 59 -20 74 -56 12 -27 20 -35
37 -32 21 3 22 7 22 123 0 116 -1 120 -22 123 -17 3 -25 -5 -37 -32 -15 -36
-41 -56 -75 -56 -19 0 -21 6 -21 65 l0 65 95 0 c84 0 95 -2 95 -17 1 -10 2
-83 3 -163 l2 -145 265 0 265 0 2 145 c1 80 2 153 3 163 0 16 18 17 235 17
l235 0 0 -365 0 -364 -107 -3 -108 -3 -3 -117 -3 -118 -49 0 c-58 0 -58 1 -91
-122 -13 -49 -28 -88 -32 -88 -5 0 -18 12 -30 26 -56 69 -131 144 -143 144
-26 0 -34 -41 -34 -184 l0 -146 -120 0 -120 0 -2 428 -3 427 -95 0 -95 0 -3
-428 -2 -428 -28 3 -27 3 -5 425 -5 425 -95 0 -95 0 -3 -107 -3 -107 -152 -3
-152 -3 -3 -152 -3 -153 -89 0 -89 0 -3 153 -3 152 -227 3 -228 2 0 350 0 350
130 0 130 0 2 -162z"/>
<path d="M408 2414 c-16 -16 -7 -34 25 -50 40 -21 43 -26 51 -85 4 -27 9 -56
13 -64 5 -14 -10 -15 -108 -13 -109 3 -113 4 -119 26 -11 48 -25 25 -28 -47
-4 -95 3 -114 28 -83 16 20 31 23 115 28 90 6 98 5 120 -16 22 -21 25 -22 31
-5 10 25 -3 286 -15 298 -12 12 -103 22 -113 11z"/>
<path d="M4184 2396 c-4 -10 -18 -12 -49 -8 -66 7 -108 -5 -153 -44 -50 -42
-54 -75 -19 -144 21 -43 27 -47 110 -76 48 -18 97 -40 107 -49 34 -31 50 -13
50 59 0 76 -14 91 -45 52 -24 -30 -41 -30 -126 6 -35 14 -48 26 -52 44 -9 50
41 66 163 53 34 -4 35 -3 44 42 9 49 4 79 -14 79 -6 0 -13 -6 -16 -14z"/>
<path d="M2076 537 c-19 -14 -19 -16 16 -56 45 -53 96 -149 118 -220 14 -48
20 -56 42 -59 24 -3 31 4 68 79 51 102 70 131 133 196 61 63 57 78 -21 68 -31
-4 -67 -11 -81 -17 -24 -9 -25 -10 -8 -22 41 -31 10 -74 -61 -85 -49 -8 -56
-6 -83 16 -36 31 -38 60 -3 73 43 17 23 35 -42 38 -39 2 -66 -2 -78 -11z m214
-180 c0 -7 -10 -24 -21 -36 -23 -25 -29 -21 -43 27 -7 20 -4 22 28 22 23 0 36
-5 36 -13z"/>
</g>
</svg>
