<?xml version="1.0" standalone="no"?>
<!DOCTYPE svg PUBLIC "-//W3C//DTD SVG 20010904//EN"
 "http://www.w3.org/TR/2001/REC-SVG-20010904/DTD/svg10.dtd">
<svg version="1.0" xmlns="http://www.w3.org/2000/svg"
 width="439.810315pt" height="439.544394pt" viewBox="0 0 439.810315 439.544394"
 preserveAspectRatio="xMidYMid meet">
<metadata>
Created by potrace 1.16, written by Peter Selinger 2001-2019
</metadata>
<g transform="translate(-5.075455,444.570293) scale(0.100000,-0.100000)"
fill="#000000" stroke="none">
<path d="M2030 4440 c-689 -72 -1251 -417 -1643 -1010 -431 -652 -450 -1604
-45 -2290 165 -280 427 -554 707 -741 697 -464 1699 -465 2396 -1 669 444
1035 1154 1002 1938 -25 582 -234 1060 -642 1469 -346 345 -745 549 -1215 620
-125 19 -441 27 -560 15z m544 -86 c361 -50 692 -193 993 -431 43 -34 135
-119 204 -190 333 -339 520 -713 585 -1170 21 -144 23 -456 5 -593 -73 -546
-326 -1000 -764 -1369 -171 -144 -444 -300 -638 -365 -239 -80 -428 -109 -709
-109 -231 0 -346 13 -540 60 -567 137 -1098 569 -1372 1118 -151 301 -211 570
-211 945 0 372 55 624 203 925 286 585 837 1024 1450 1153 90 19 224 38 335
46 89 7 347 -5 459 -20z"/>
<path d="M2030 4328 c-481 -45 -899 -246 -1256 -602 -261 -261 -437 -550 -529
-870 -171 -595 -80 -1248 242 -1736 163 -247 386 -469 633 -633 620 -409 1503
-437 2150 -67 312 179 614 477 795 784 320 544 363 1279 109 1873 -103 240
-242 442 -449 648 -206 207 -408 346 -648 449 -316 135 -681 189 -1047 154z
m480 -38 c445 -56 820 -234 1156 -552 351 -333 565 -753 624 -1228 15 -124 12
-421 -5 -553 -56 -425 -238 -800 -545 -1121 -347 -363 -763 -572 -1245 -626
-116 -13 -374 -13 -490 0 -484 54 -892 260 -1245 626 -313 325 -494 702 -550
1144 -13 109 -13 430 0 540 45 358 174 675 391 962 80 105 260 291 364 375
287 232 624 379 980 427 122 17 449 20 565 6z"/>
<path d="M2200 4249 c-44 -18 -69 -50 -81 -104 -21 -92 21 -161 114 -186 101
-28 157 -7 157 57 0 45 -15 50 -59 20 -50 -35 -73 -33 -110 9 -40 46 -48 78
-27 111 20 30 54 44 106 44 32 0 39 -4 44 -25 3 -13 15 -29 26 -35 15 -8 21
-6 30 10 30 56 -16 100 -111 106 -35 2 -75 -1 -89 -7z"/>
<path d="M2065 3889 c-491 -51 -920 -315 -1205 -742 -257 -385 -328 -908 -188
-1391 39 -134 134 -330 219 -451 82 -116 298 -332 414 -414 427 -300 1004
-373 1520 -191 443 157 843 567 989 1015 117 360 110 771 -19 1120 -115 310
-348 600 -640 796 -310 208 -696 299 -1090 258z m526 -58 c212 -46 416 -135
589 -258 121 -87 306 -272 393 -393 78 -110 175 -300 212 -414 59 -184 69
-262 69 -516 0 -207 -2 -247 -22 -340 -33 -149 -64 -238 -132 -375 -81 -161
-172 -287 -310 -425 -138 -138 -263 -229 -425 -309 -212 -105 -388 -148 -645
-158 -317 -11 -535 33 -795 162 -367 182 -668 522 -804 908 -64 181 -75 265
-75 537 0 216 2 257 21 343 74 328 234 607 479 836 244 228 518 364 841 416
133 22 477 14 604 -14z"/>
<path d="M2054 3640 l-189 -200 -127 0 -128 0 0 40 c0 52 -21 103 -51 124 -15
10 -44 16 -82 16 -51 0 -62 -4 -87 -28 -34 -35 -47 -90 -31 -141 16 -55 41
-73 113 -80 l63 -6 5 -645 6 -645 26 -95 c15 -52 41 -135 58 -184 17 -48 30
-90 28 -92 -9 -8 -68 37 -101 77 -48 59 -104 172 -117 234 -16 84 -39 369 -45
585 -12 384 -66 502 -247 546 l-67 17 -44 -26 c-59 -35 -65 -45 -78 -113 -6
-33 -19 -68 -30 -79 -10 -12 -24 -35 -30 -53 -10 -28 -8 -39 14 -84 23 -47 24
-54 12 -79 -8 -15 -19 -48 -25 -75 -10 -44 -9 -49 15 -74 l25 -26 -20 -39
c-27 -52 -25 -77 6 -114 21 -26 25 -38 20 -66 -4 -19 -18 -48 -31 -64 -14 -16
-25 -33 -25 -37 0 -4 14 -22 31 -40 l31 -32 -17 -52 c-23 -69 -22 -116 4 -151
17 -22 21 -43 21 -96 0 -79 14 -106 64 -123 l34 -11 -29 -52 c-16 -29 -29 -64
-29 -78 0 -26 36 -69 58 -69 7 0 23 -24 36 -53 13 -29 35 -63 50 -74 14 -12
26 -31 26 -42 0 -43 32 -97 99 -166 37 -38 80 -90 95 -113 37 -59 98 -87 175
-79 65 7 91 30 91 83 0 55 -63 81 -148 60 -32 -7 -32 -7 -22 19 14 38 6 44
-44 32 -77 -17 -100 12 -50 64 38 40 24 51 -60 47 -52 -2 -71 0 -70 10 1 6 2
18 3 26 0 8 13 28 27 45 40 47 27 62 -46 54 l-60 -6 0 35 c0 26 9 42 40 73 21
21 36 43 33 48 -6 9 -97 4 -148 -9 -43 -11 -30 30 30 96 30 33 55 67 55 75 0
8 0 18 0 23 1 4 -34 12 -77 17 l-78 10 3 33 c3 25 17 47 60 87 69 67 63 82
-24 66 -36 -7 -62 -7 -67 -2 -18 18 5 64 61 123 46 49 54 62 45 76 -7 12 -24
17 -53 17 -27 0 -45 5 -48 13 -9 29 10 81 52 137 25 32 42 63 40 67 -3 4 -32
8 -65 8 -33 0 -59 4 -59 10 0 6 27 38 60 72 47 47 60 68 58 87 -3 24 -6 25
-60 22 -55 -2 -58 -1 -58 21 0 15 23 44 73 91 69 66 71 68 52 83 -15 12 -34
14 -78 9 l-58 -7 7 28 c9 37 0 31 80 58 68 22 69 23 72 61 3 28 -2 43 -20 62
-23 24 -23 25 -4 39 25 18 50 18 84 0 49 -26 73 -62 99 -152 23 -83 26 -115
38 -444 15 -404 23 -456 90 -595 87 -181 253 -327 455 -400 84 -30 202 -55
261 -55 21 0 39 -3 38 -7 0 -5 -103 -152 -228 -328 -126 -176 -226 -323 -224
-327 5 -9 1097 -11 1105 -2 3 3 -94 150 -217 327 -122 177 -221 324 -219 326
1 1 39 7 84 12 264 30 499 205 645 482 76 144 97 234 156 651 l54 378 45 23
c50 25 110 41 110 29 0 -4 -7 -34 -16 -66 -19 -67 -12 -83 40 -96 25 -7 32
-14 34 -40 4 -43 -12 -68 -58 -92 -51 -26 -55 -62 -11 -85 34 -17 73 -63 65
-76 -3 -5 -21 -9 -40 -9 -52 0 -54 -24 -7 -73 58 -60 69 -85 49 -106 -13 -12
-32 -15 -76 -13 -32 1 -61 -2 -65 -8 -3 -5 13 -43 35 -84 23 -42 38 -81 35
-87 -5 -7 -22 -9 -47 -5 -53 9 -60 -13 -19 -69 53 -74 34 -120 -47 -113 -44 4
-44 -7 -6 -88 37 -79 34 -91 -28 -101 -63 -10 -72 -29 -33 -74 33 -40 29 -63
-10 -67 -54 -5 -56 -8 -35 -54 25 -55 25 -90 0 -113 -17 -15 -23 -16 -50 -5
-44 18 -52 3 -28 -52 33 -78 8 -120 -53 -88 -30 17 -41 3 -24 -30 8 -16 15
-41 15 -56 0 -27 -8 -29 -80 -12 -9 2 -14 -3 -11 -12 2 -8 6 -33 9 -54 l5 -39
-34 8 c-19 5 -52 9 -73 9 -39 1 -40 0 -54 -46 -14 -43 -14 -49 2 -73 28 -42
79 -59 138 -45 66 16 82 42 75 119 l-5 59 39 6 c43 7 59 28 59 75 0 29 3 31
35 31 46 0 60 25 44 82 -10 40 -10 43 19 68 42 35 55 66 48 110 -5 32 -2 40
28 69 39 38 50 69 37 103 -6 17 -3 30 13 53 22 31 28 95 14 146 -6 19 -4 27 5
26 40 -1 58 6 73 28 16 25 12 66 -12 129 -4 10 -1 16 9 16 22 0 47 39 47 73 0
15 -7 41 -15 58 -16 29 -16 29 15 36 58 11 73 61 44 147 -16 46 -16 48 5 70
28 30 26 71 -4 125 l-26 44 23 24 c22 24 23 31 20 155 -4 175 -26 227 -102
248 -45 12 -115 -6 -163 -43 -59 -45 -72 -94 -127 -467 -68 -462 -97 -571
-185 -705 -35 -51 -123 -140 -132 -131 -2 2 10 55 26 117 62 231 64 259 70
919 l6 605 63 6 c72 7 97 25 112 81 15 52 2 107 -31 140 -24 24 -35 28 -88 28
-52 0 -65 -4 -92 -28 -26 -23 -31 -36 -36 -90 l-6 -62 -127 0 -126 0 -189 200
c-104 110 -192 200 -195 200 -4 0 -92 -90 -196 -200z m335 -55 l130 -140 -134
-3 c-74 -1 -196 -1 -270 0 l-135 3 132 143 c73 78 136 141 140 140 4 -2 66
-66 137 -143z m-869 -50 c6 -8 14 -32 17 -55 l6 -40 -45 0 c-52 0 -68 13 -68
55 0 17 5 36 12 43 17 17 63 15 78 -3z m1538 3 c7 -7 12 -27 12 -45 0 -38 -21
-53 -74 -53 -34 0 -36 2 -36 33 0 45 25 77 59 77 15 0 32 -5 39 -12z m-848
-268 l0 -100 -300 0 -300 0 0 100 0 100 300 0 300 0 0 -100z m680 0 l0 -100
-300 0 -300 0 0 100 0 100 300 0 300 0 0 -100z m-680 -305 l0 -125 -300 0
-300 0 0 125 0 125 300 0 300 0 0 -125z m680 0 l0 -125 -300 0 -300 0 0 125 0
125 300 0 300 0 0 -125z m-680 -460 l0 -255 -97 0 c-132 0 -141 6 -173 106
-42 135 -70 144 -91 29 -16 -89 -8 -320 12 -340 15 -15 19 -14 46 9 17 14 48
48 69 76 l38 50 99 0 99 0 -4 -58 c-6 -83 -54 -182 -109 -221 -23 -17 -49 -31
-59 -31 -19 0 -40 -19 -40 -38 0 -7 17 -20 38 -30 53 -23 448 -21 471 3 18 18
12 25 -96 102 -76 54 -113 119 -121 209 l-5 64 86 0 c47 0 98 -5 114 -11 33
-12 96 -71 124 -116 20 -32 52 -43 64 -23 4 6 12 58 17 115 16 154 -8 315 -45
302 -5 -1 -42 -45 -81 -97 l-71 -95 -102 -3 -103 -3 0 256 0 255 300 0 300 0
0 -225 c0 -124 -5 -269 -10 -323 -53 -488 -272 -725 -655 -709 -127 5 -189 24
-285 89 -138 92 -253 297 -306 548 -11 54 -17 153 -21 348 l-5 272 301 0 301
0 0 -255z m269 -1401 l209 -299 -224 -3 c-123 -1 -325 -1 -448 0 l-224 3 221
302 c166 228 224 302 238 300 12 -2 99 -118 228 -303z m-911 0 c32 -22 27 -40
-18 -58 -46 -18 -90 -6 -90 25 0 21 37 49 65 49 11 0 31 -7 43 -16z m1400 -30
c15 -10 22 -24 20 -37 -2 -18 -11 -23 -45 -25 -35 -3 -44 1 -58 21 -8 13 -13
32 -9 41 8 21 62 21 92 0z"/>
<path d="M3706 3633 c-3 -4 -6 -15 -6 -25 0 -30 -83 -105 -133 -120 -25 -7
-45 -16 -46 -20 -4 -25 3 -39 35 -77 41 -47 60 -49 56 -3 -2 21 3 37 18 52 20
20 24 21 38 7 13 -13 14 -28 6 -96 -10 -81 -10 -81 18 -108 32 -31 113 -40
113 -13 0 10 -12 16 -32 18 -48 5 -56 21 -48 99 l7 68 44 -3 c33 -3 45 0 50
12 11 30 -6 84 -46 144 -39 58 -61 77 -74 65z m84 -131 c0 -40 -55 -57 -81
-26 -11 13 -8 19 17 39 32 25 64 19 64 -13z"/>
<path d="M667 3484 c-50 -62 -64 -86 -53 -90 8 -3 24 0 36 6 18 10 29 4 90
-52 69 -62 69 -64 64 -104 -4 -25 -2 -44 5 -48 5 -4 47 37 91 91 79 95 82 99
77 142 -3 23 -12 50 -20 59 -26 25 -44 0 -50 -69 -7 -85 -22 -97 -70 -62 -20
16 -53 48 -73 72 -32 37 -36 46 -26 62 14 21 16 65 4 73 -4 2 -38 -34 -75 -80z"/>
<path d="M470 2051 c-41 -11 -39 -52 5 -82 19 -13 37 -33 40 -44 11 -57 14
-85 7 -85 -4 0 -45 -5 -91 -10 -61 -7 -88 -6 -98 2 -21 17 -27 3 -24 -60 3
-72 12 -82 51 -54 37 28 177 59 193 43 17 -17 45 -13 57 8 15 30 11 76 -18
186 l-27 100 -35 2 c-19 1 -46 -2 -60 -6z"/>
<path d="M3953 1960 c-39 -23 -75 -90 -75 -138 0 -66 56 -111 164 -133 l56
-11 56 42 c42 32 57 50 62 76 8 45 -2 96 -26 127 -42 53 -177 74 -237 37z
m123 -59 c45 -20 84 -67 84 -100 0 -25 -38 -46 -104 -55 -86 -13 -130 23 -124
100 3 33 8 42 38 56 44 22 55 22 106 -1z"/>
<path d="M1273 818 c-5 -7 -13 -25 -17 -41 -8 -33 8 -42 48 -27 23 8 34 7 62
-11 36 -22 54 -63 36 -81 -11 -11 -12 -11 -27 37 -9 31 -43 16 -70 -32 -35
-59 -26 -79 34 -75 25 2 41 -1 41 -8 0 -9 -27 -68 -36 -78 -1 -2 -23 10 -48
27 -37 25 -46 39 -53 73 -5 23 -14 43 -21 46 -16 5 -32 -39 -32 -88 0 -39 0
-39 101 -95 98 -56 140 -65 124 -27 -20 45 -16 71 24 150 35 69 45 81 68 84
20 2 28 9 28 22 0 15 -26 35 -93 74 -100 57 -151 73 -169 50z"/>
<path d="M3022 733 c-45 -22 -84 -70 -80 -100 5 -37 20 -32 46 15 23 41 25 42
73 42 46 0 49 -2 68 -39 32 -61 46 -128 31 -146 -18 -21 -34 -19 -70 11 -42
36 -54 23 -40 -43 6 -28 17 -59 24 -68 15 -20 36 -12 36 13 0 10 19 27 46 41
25 13 57 38 71 55 34 40 28 101 -14 154 -63 78 -123 99 -191 65z"/>
</g>
</svg>
