<?xml version="1.0" standalone="no"?>
<!DOCTYPE svg PUBLIC "-//W3C//DTD SVG 20010904//EN"
 "http://www.w3.org/TR/2001/REC-SVG-20010904/DTD/svg10.dtd">
<svg version="1.0" xmlns="http://www.w3.org/2000/svg"
 width="439.810315pt" height="439.544394pt" viewBox="0 0 439.810315 439.544394"
 preserveAspectRatio="xMidYMid meet">
<metadata>
Created by potrace 1.16, written by Peter Selinger 2001-2019
</metadata>
<g transform="translate(-5.075455,444.570293) scale(0.100000,-0.100000)"
fill="#000000" stroke="none">
<path d="M2030 4440 c-689 -72 -1251 -417 -1643 -1010 -431 -652 -450 -1604
-45 -2290 165 -280 427 -554 707 -741 697 -464 1699 -465 2396 -1 669 444
1035 1154 1002 1938 -25 582 -234 1060 -642 1469 -346 345 -745 549 -1215 620
-125 19 -441 27 -560 15z m544 -86 c361 -50 692 -193 993 -431 43 -34 135
-119 204 -190 333 -339 520 -713 585 -1170 21 -144 23 -456 5 -593 -73 -546
-326 -1000 -764 -1369 -171 -144 -444 -300 -638 -365 -239 -80 -428 -109 -709
-109 -231 0 -346 13 -540 60 -567 137 -1098 569 -1372 1118 -151 301 -211 570
-211 945 0 372 55 624 203 925 286 585 837 1024 1450 1153 90 19 224 38 335
46 89 7 347 -5 459 -20z"/>
<path d="M2030 4328 c-481 -45 -899 -246 -1256 -602 -261 -261 -437 -550 -529
-870 -171 -595 -80 -1248 242 -1736 163 -247 386 -469 633 -633 620 -409 1503
-437 2150 -67 312 179 614 477 795 784 320 544 363 1279 109 1873 -103 240
-242 442 -449 648 -206 207 -408 346 -648 449 -316 135 -681 189 -1047 154z
m480 -38 c445 -56 820 -234 1156 -552 351 -333 565 -753 624 -1228 15 -124 12
-421 -5 -553 -56 -425 -238 -800 -545 -1121 -347 -363 -763 -572 -1245 -626
-116 -13 -374 -13 -490 0 -484 54 -892 260 -1245 626 -313 325 -494 702 -550
1144 -13 109 -13 430 0 540 45 358 174 675 391 962 80 105 260 291 364 375
287 232 624 379 980 427 122 17 449 20 565 6z"/>
<path d="M2203 4250 c-89 -5 -120 -20 -84 -39 19 -11 21 -20 21 -112 0 -98 0
-100 -26 -109 -46 -18 -22 -35 53 -38 53 -2 73 1 82 12 11 13 9 17 -13 27 -21
10 -26 19 -26 51 0 43 4 45 44 19 17 -11 33 -18 38 -15 12 8 10 92 -2 99 -6 4
-22 0 -35 -9 -41 -27 -55 -21 -55 23 0 35 3 39 31 45 71 14 94 8 107 -26 13
-35 26 -30 37 12 13 55 -29 69 -172 60z"/>
<path d="M2065 3889 c-491 -51 -920 -315 -1205 -742 -257 -385 -328 -908 -188
-1391 39 -134 134 -330 219 -451 82 -116 298 -332 414 -414 427 -300 1004
-373 1520 -191 443 157 843 567 989 1015 117 360 110 771 -19 1120 -115 310
-348 600 -640 796 -310 208 -696 299 -1090 258z m526 -58 c212 -46 416 -135
589 -258 121 -87 306 -272 393 -393 78 -110 175 -300 212 -414 59 -184 69
-262 69 -516 0 -207 -2 -247 -22 -340 -33 -149 -64 -238 -132 -375 -81 -161
-172 -287 -310 -425 -138 -138 -263 -229 -425 -309 -212 -105 -388 -148 -645
-158 -317 -11 -535 33 -795 162 -367 182 -668 522 -804 908 -64 181 -75 265
-75 537 0 216 2 257 21 343 74 328 234 607 479 836 244 228 518 364 841 416
133 22 477 14 604 -14z"/>
<path d="M1855 3500 c-82 -33 -106 -175 -44 -254 l20 -26 -208 0 -209 0 4 63
c7 110 -37 157 -146 157 -97 0 -153 -73 -137 -177 9 -59 47 -100 104 -109 l41
-7 -2 -741 -3 -741 -35 -5 c-68 -12 -102 -42 -120 -108 -26 -100 19 -189 106
-211 95 -24 191 19 210 94 7 29 1 113 -10 138 -8 16 1 17 113 17 l121 0 0
-121 0 -122 -41 6 c-46 6 -76 29 -81 61 -2 15 -10 21 -28 21 l-25 0 0 -120 0
-120 25 0 c18 0 26 6 28 21 5 32 35 55 81 61 l41 6 0 -47 c0 -61 -12 -83 -56
-101 -25 -10 -35 -20 -32 -32 3 -16 17 -18 128 -18 111 0 125 2 128 18 3 12
-7 22 -32 32 -44 18 -56 40 -56 101 l0 47 41 -6 c46 -6 76 -29 81 -61 2 -15
10 -21 28 -21 l25 0 0 120 0 120 -25 0 c-18 0 -26 -6 -28 -21 -5 -32 -35 -55
-81 -61 l-41 -6 0 122 0 121 235 0 235 0 0 -190 0 -190 -195 -231 c-107 -128
-192 -236 -189 -241 7 -10 841 -11 848 0 2 4 -83 112 -190 239 l-194 232 0
190 0 191 235 0 235 0 0 -120 0 -120 -34 0 c-38 0 -70 22 -89 60 -7 14 -21 25
-32 25 -19 0 -20 -7 -20 -120 0 -112 1 -120 19 -120 11 0 26 13 36 30 19 35
53 55 93 55 26 0 27 -2 27 -46 0 -59 -12 -81 -56 -99 -25 -10 -35 -20 -32 -32
3 -16 17 -18 128 -18 111 0 125 2 128 18 2 12 -7 22 -31 32 -45 19 -56 34 -63
88 -8 55 6 66 65 51 28 -7 40 -18 55 -47 14 -29 23 -37 40 -35 20 3 21 8 21
123 0 116 -1 120 -22 123 -17 3 -26 -5 -37 -32 -16 -38 -47 -56 -97 -56 l-29
0 0 120 0 120 126 0 c117 0 126 -1 118 -17 -5 -10 -9 -50 -9 -90 0 -66 2 -74
29 -102 58 -60 186 -62 248 -4 46 44 56 153 19 221 -17 32 -70 62 -108 62
l-33 0 0 744 0 743 38 7 c59 9 89 38 102 99 14 66 -3 131 -42 160 -36 27 -122
34 -170 14 -58 -24 -87 -103 -65 -179 l7 -28 -210 0 -209 0 24 36 c20 29 25
50 25 96 0 109 -48 158 -158 158 -99 0 -146 -33 -161 -114 -10 -56 0 -109 29
-148 l21 -28 -201 0 -201 0 23 30 c30 41 37 143 14 189 -26 50 -70 71 -146 70
-36 0 -74 -4 -85 -9z m150 -85 c19 -18 25 -35 25 -65 0 -80 -89 -120 -154 -69
-35 27 -37 101 -4 136 31 33 100 32 133 -2z m622 3 c17 -16 23 -32 23 -65 0
-59 -33 -93 -90 -93 -56 0 -90 34 -90 90 0 57 34 90 91 90 30 0 50 -6 66 -22z
m-1290 -75 c20 -26 16 -80 -7 -103 -25 -25 -71 -26 -101 -1 -32 25 -30 88 2
114 28 23 87 17 106 -10z m1940 6 c7 -6 13 -31 13 -55 0 -33 -5 -46 -22 -58
-53 -37 -118 -8 -118 53 0 38 14 64 40 74 20 8 70 0 87 -14z m-1377 -944 l0
-745 -275 0 -275 0 0 745 0 745 275 0 275 0 0 -745z m620 0 l0 -745 -270 0
-270 0 0 745 0 745 270 0 270 0 0 -745z m628 3 l-3 -743 -272 -3 -273 -2 0
745 0 745 275 0 275 0 -2 -742z m-1796 -848 c25 -30 23 -91 -3 -124 -17 -22
-28 -26 -70 -26 -36 0 -54 5 -69 20 -15 15 -20 33 -20 69 0 42 4 53 28 71 35
29 107 23 134 -10z m1933 5 c19 -18 25 -35 25 -70 0 -62 -24 -85 -89 -85 -42
0 -53 4 -70 26 -23 29 -28 83 -10 115 23 44 107 52 144 14z m-895 -587 c74
-89 137 -165 138 -170 2 -4 -123 -8 -278 -8 -155 0 -280 4 -278 9 5 13 272
331 278 330 3 0 66 -73 140 -161z"/>
<path d="M1571 2630 c-107 -26 -146 -191 -66 -279 30 -33 38 -35 102 -39 94
-5 137 13 163 70 38 83 14 200 -47 231 -37 20 -110 28 -152 17z m108 -80 c46
-24 51 -125 8 -155 -32 -22 -99 -19 -125 5 -31 29 -31 104 0 137 23 25 83 32
117 13z"/>
<path d="M2190 2629 c-70 -21 -100 -69 -100 -161 0 -111 48 -158 162 -158 115
0 164 55 156 177 -4 68 -26 109 -69 130 -36 17 -110 23 -149 12z m125 -94 c19
-18 25 -35 25 -65 0 -30 -6 -47 -25 -65 -18 -19 -35 -25 -65 -25 -30 0 -47 6
-65 25 -19 18 -25 35 -25 65 0 30 6 47 25 65 18 19 35 25 65 25 30 0 47 -6 65
-25z"/>
<path d="M2823 2630 c-78 -18 -113 -69 -113 -162 0 -113 55 -161 177 -156 63
3 76 7 102 32 40 38 55 102 41 171 -13 62 -46 98 -105 114 -45 12 -56 12 -102
1z m111 -91 c21 -17 26 -29 26 -67 0 -63 -27 -92 -87 -92 -59 0 -93 33 -93 90
0 80 89 120 154 69z"/>
<path d="M664 3501 c-64 -47 -97 -88 -97 -119 0 -37 45 -97 82 -110 30 -10 29
-11 120 50 34 23 89 24 98 1 10 -26 -67 -91 -117 -99 -22 -4 -42 -10 -45 -14
-10 -16 27 -50 54 -50 33 0 145 69 161 101 17 30 7 109 -16 126 -27 20 -91 15
-168 -12 -73 -26 -86 -25 -86 4 0 25 24 43 68 51 34 5 37 8 35 38 -1 35 -18
62 -38 62 -6 0 -30 -13 -51 -29z"/>
<path d="M3757 3457 c-14 -24 -46 -70 -71 -103 -74 -100 -78 -135 -20 -189 35
-32 75 -32 170 1 55 19 85 24 114 19 23 -4 41 -2 45 4 3 6 -8 41 -25 77 -36
76 -58 82 -75 20 -9 -31 -20 -44 -49 -59 -45 -24 -130 -34 -140 -18 -12 18 29
93 72 135 37 35 44 38 65 29 18 -9 28 -8 36 0 18 18 13 31 -26 68 -70 65 -68
65 -96 16z"/>
<path d="M703 1438 c-16 -26 -76 -175 -96 -240 -30 -96 -30 -96 145 -75 79 9
153 14 164 11 12 -3 24 -2 27 3 9 14 -28 85 -57 112 l-26 25 -16 -42 c-9 -22
-24 -43 -33 -45 -9 -1 -40 17 -68 41 -47 39 -51 46 -41 66 16 31 29 37 65 31
17 -3 34 -1 37 4 9 14 -61 121 -79 121 -7 0 -17 -6 -22 -12z m11 -237 l28 -29
-46 -7 c-26 -4 -49 -5 -52 -2 -7 7 24 67 34 67 5 0 21 -13 36 -29z"/>
<path d="M3698 1379 c-9 -5 -24 -29 -34 -54 -19 -50 -12 -68 31 -79 18 -5 25
-13 25 -31 0 -29 -13 -31 -90 -13 l-53 12 -29 -33 c-18 -20 -28 -41 -26 -54 4
-29 30 -28 43 1 11 24 29 27 108 16 39 -6 46 -10 50 -33 8 -37 45 -81 68 -81
50 0 102 47 178 159 45 66 40 86 -12 47 -19 -15 -43 -26 -54 -26 -11 0 -46 18
-79 41 -87 61 -102 76 -97 103 6 28 -6 38 -29 25z m128 -199 c49 -34 53 -48
25 -74 -25 -23 -52 -17 -68 14 -13 25 -18 90 -7 90 3 0 25 -14 50 -30z"/>
<path d="M2137 524 c-44 -24 -28 -39 43 -42 36 -2 70 -8 77 -14 14 -11 18
-123 7 -165 -6 -20 -13 -23 -58 -23 -47 0 -53 3 -74 36 -13 19 -28 33 -35 31
-20 -7 -9 -59 17 -86 33 -33 132 -42 172 -17 39 26 84 104 84 146 0 100 -143
183 -233 134z"/>
</g>
</svg>
