<?xml version="1.0" standalone="no"?>
<!DOCTYPE svg PUBLIC "-//W3C//DTD SVG 20010904//EN"
 "http://www.w3.org/TR/2001/REC-SVG-20010904/DTD/svg10.dtd">
<svg version="1.0" xmlns="http://www.w3.org/2000/svg"
 width="438.987967pt" height="439.681909pt" viewBox="0 0 438.987967 439.681909"
 preserveAspectRatio="xMidYMid meet">
<metadata>
Created by potrace 1.16, written by Peter Selinger 2001-2019
</metadata>
<g transform="translate(-5.457202,444.822059) scale(0.100000,-0.100000)"
fill="#000000" stroke="none">
<path d="M2090 4443 c-320 -31 -514 -78 -743 -179 -422 -187 -822 -562 -1050
-985 -103 -190 -185 -444 -224 -689 -25 -161 -25 -519 0 -680 72 -459 258
-837 577 -1173 454 -478 1029 -710 1690 -684 517 22 954 190 1331 514 437 376
680 820 761 1388 19 134 16 474 -5 620 -70 481 -272 879 -622 1230 -384 383
-817 586 -1360 635 -103 9 -276 11 -355 3z m484 -89 c344 -48 667 -183 951
-398 100 -75 307 -276 388 -376 247 -306 395 -653 448 -1050 18 -137 16 -449
-5 -593 -65 -456 -261 -847 -590 -1179 -187 -189 -365 -318 -591 -428 -302
-148 -559 -204 -930 -204 -274 0 -461 29 -708 111 -103 34 -326 144 -432 213
-319 208 -599 519 -765 849 -151 302 -213 577 -213 951 -1 230 12 345 58 530
75 299 215 575 410 810 399 478 924 750 1520 784 106 6 347 -4 459 -20z"/>
<path d="M2009 4325 c-485 -53 -881 -245 -1235 -599 -334 -335 -517 -691 -589
-1141 -20 -122 -27 -435 -14 -565 42 -407 202 -787 461 -1095 423 -503 975
-764 1614 -765 559 0 1046 194 1446 579 386 370 594 803 639 1331 36 426 -53
847 -253 1202 -174 308 -490 626 -795 800 -374 213 -822 302 -1274 253z m621
-53 c388 -71 729 -246 1028 -527 358 -338 573 -758 632 -1237 16 -134 14 -425
-5 -557 -66 -463 -268 -851 -615 -1185 -309 -296 -643 -465 -1065 -542 -122
-22 -442 -30 -586 -15 -490 51 -903 257 -1259 627 -378 392 -561 850 -561
1404 0 359 55 615 196 905 110 225 236 396 436 590 363 351 797 539 1309 568
108 5 383 -12 490 -31z"/>
<path d="M2120 4265 c-14 -16 -6 -35 16 -35 11 0 14 -16 14 -74 0 -40 3 -100
6 -133 l7 -60 -33 -11 c-45 -16 -33 -36 25 -40 79 -5 185 17 212 44 36 36 31
85 -12 123 -36 31 -36 31 -13 40 61 23 60 69 -2 125 -39 35 -42 36 -124 36
-61 0 -87 -4 -96 -15z m161 -55 c28 -15 25 -58 -5 -72 -39 -17 -56 -4 -56 42
0 34 3 40 21 40 11 0 29 -5 40 -10z m7 -150 c41 -25 51 -49 28 -65 -18 -14
-85 -29 -93 -22 -9 9 10 107 21 107 6 0 26 -9 44 -20z"/>
<path d="M2110 3894 c-265 -31 -424 -76 -611 -170 -240 -120 -476 -333 -636
-574 -237 -355 -319 -828 -221 -1279 64 -300 226 -583 465 -812 326 -311 693
-457 1148 -456 486 0 905 189 1229 553 247 277 375 577 408 957 25 294 -29
595 -152 852 -170 353 -500 667 -851 810 -109 44 -231 79 -349 99 -92 16 -359
29 -430 20z m481 -63 c142 -31 240 -65 374 -132 162 -80 287 -171 425 -309
319 -321 471 -686 472 -1135 0 -344 -82 -624 -260 -891 -244 -364 -604 -609
-1022 -695 -141 -29 -420 -37 -570 -15 -374 54 -668 208 -938 491 -223 233
-360 505 -414 820 -27 161 -22 487 11 633 82 371 282 683 596 934 204 162 449
268 724 313 131 22 476 13 602 -14z"/>
<path d="M2027 3535 c-15 -9 -32 -27 -37 -41 -13 -34 -13 -110 0 -135 9 -16
-7 -47 -101 -195 -70 -108 -115 -170 -120 -162 -8 15 -36 161 -45 235 -6 45
-4 52 15 62 61 33 68 153 12 203 -26 23 -41 28 -82 28 -94 0 -129 -35 -129
-130 0 -38 6 -55 26 -79 14 -17 32 -31 39 -31 8 0 16 -4 20 -10 9 -15 57 -351
51 -358 -8 -8 -120 70 -247 172 l-105 85 4 58 c3 48 0 63 -18 85 -43 56 -161
57 -207 3 -31 -36 -33 -130 -3 -168 26 -33 80 -50 128 -42 30 5 44 2 67 -17
81 -61 229 -180 306 -244 l85 -72 17 -238 c10 -132 17 -321 17 -421 l0 -183
-123 0 c-122 0 -124 0 -135 25 -27 58 -115 81 -182 47 -61 -30 -76 -136 -29
-196 24 -30 84 -49 128 -40 35 7 91 57 91 80 0 11 23 14 120 14 l120 0 0 -42
c0 -38 -19 -169 -25 -176 -2 -2 -17 4 -34 12 -16 9 -51 16 -76 16 -38 0 -52
-5 -75 -28 -72 -73 -32 -222 61 -222 40 0 37 -21 -11 -63 -82 -75 -172 -118
-247 -118 -89 -1 -195 72 -239 166 -20 41 -32 95 -21 95 1 0 24 -7 51 -15 57
-17 102 -19 111 -5 4 6 -25 41 -64 78 -81 77 -82 82 -51 202 10 41 16 78 12
82 -5 5 -28 -2 -52 -15 -60 -30 -112 -102 -157 -216 -35 -91 -36 -94 -17 -108
18 -13 48 -13 86 2 13 5 18 -4 28 -52 28 -138 103 -238 201 -267 172 -51 363
36 478 219 51 80 75 162 97 324 l18 131 33 0 c23 0 36 -6 40 -17 20 -57 89
-89 158 -73 61 14 85 48 85 120 0 51 -4 64 -27 90 -53 59 -166 50 -205 -16
-15 -26 -27 -34 -49 -34 l-29 0 0 68 c0 37 -3 101 -5 142 -28 445 -32 575 -15
585 5 3 77 -49 158 -117 81 -68 212 -175 290 -238 l141 -115 1 -237 0 -238
-30 0 c-45 0 -76 18 -94 57 -11 23 -22 33 -34 31 -15 -3 -17 -17 -17 -123 0
-106 2 -120 17 -123 12 -2 23 8 34 31 18 39 49 57 94 57 28 0 30 -2 30 -40 0
-55 -16 -84 -57 -104 -23 -11 -33 -22 -31 -34 3 -15 19 -17 121 -20 103 -2
118 -1 124 15 4 11 0 20 -12 27 -11 6 -32 23 -47 38 -23 21 -28 35 -28 72 0
45 1 46 30 46 45 0 86 -25 99 -60 7 -22 16 -31 28 -28 16 3 18 16 18 123 0
104 -2 120 -17 123 -11 2 -22 -9 -33 -31 -18 -38 -50 -57 -95 -57 l-30 0 0
206 c0 161 3 204 13 198 31 -19 197 -156 244 -201 28 -27 72 -64 97 -80 43
-28 56 -32 161 -38 63 -4 121 -5 130 -1 23 9 28 -15 20 -99 -7 -74 -7 -74 -31
-64 -73 27 -177 -4 -190 -56 -8 -31 19 -105 46 -130 42 -38 81 27 41 69 -11
12 -21 25 -21 29 0 10 77 47 99 47 22 0 51 -35 51 -62 0 -10 -20 -33 -46 -51
-95 -67 -113 -178 -34 -206 57 -20 99 15 138 114 19 47 21 49 63 52 101 7 165
47 205 129 22 45 26 64 22 112 -5 69 -28 107 -93 150 l-46 30 30 7 c54 12 117
89 145 178 4 13 17 17 60 17 51 0 57 -2 71 -30 29 -56 121 -78 186 -45 37 19
49 50 49 120 0 67 -26 102 -87 115 -61 14 -111 -5 -142 -53 -24 -37 -26 -38
-80 -35 l-55 3 -8 39 c-12 59 -46 106 -90 126 l-38 17 39 26 c77 51 106 148
72 249 -28 84 -149 145 -296 148 -18 0 -20 7 -20 58 -1 127 -93 185 -171 107
-20 -20 -23 -31 -18 -62 3 -21 10 -45 15 -54 9 -17 65 -68 93 -84 15 -8 16
-15 6 -40 -19 -49 -69 -95 -105 -95 -33 0 -65 25 -65 52 0 8 9 23 21 34 21 18
21 18 41 -9 16 -22 23 -25 34 -16 21 17 17 56 -8 73 -34 24 -66 19 -99 -13
-25 -25 -29 -37 -29 -84 0 -66 19 -87 76 -87 71 1 134 41 181 116 12 20 11
-109 -3 -554 -7 -209 8 -184 -127 -202 l-78 -10 -207 162 c-114 88 -219 173
-234 186 l-28 26 0 238 0 238 89 0 c51 0 93 4 96 10 8 13 -216 404 -225 393
-25 -28 -220 -385 -215 -393 3 -6 46 -10 96 -10 l89 0 0 -210 c0 -172 -2 -210
-13 -203 -37 22 -567 448 -567 455 0 19 120 206 209 325 96 127 96 128 142
133 56 7 74 20 90 67 17 53 6 120 -24 151 -33 32 -126 42 -170 17z m111 -71
c43 -30 21 -94 -31 -94 -40 0 -57 15 -57 51 0 52 44 74 88 43z m-441 -12 c7
-4 15 -22 19 -38 10 -51 -37 -80 -87 -54 -22 12 -27 68 -7 88 14 14 57 16 75
4z m-442 -213 c0 -26 -6 -37 -26 -48 -24 -13 -29 -13 -53 2 -62 41 -4 130 59
92 14 -9 20 -23 20 -46z m1188 -256 c72 -122 76 -113 -47 -113 -58 0 -106 3
-106 6 0 8 100 184 105 184 2 0 24 -35 48 -77z m627 -39 c12 -31 13 -101 2
-108 -14 -8 -72 32 -73 51 -2 32 3 58 13 71 18 21 48 14 58 -14z m210 -230
c80 -37 130 -89 130 -134 0 -57 -55 -103 -147 -122 l-73 -16 0 52 c0 112 13
246 24 246 6 0 36 -12 66 -26z m20 -404 c49 -25 74 -72 75 -142 0 -42 -5 -64
-21 -85 -25 -33 -96 -71 -143 -75 l-34 -3 2 159 c1 88 4 163 7 168 7 12 71 -1
114 -22z m454 -96 c51 -50 -23 -125 -76 -77 -36 33 -13 93 37 93 13 0 31 -7
39 -16z m-2364 -274 c38 -38 18 -90 -33 -90 -42 0 -57 15 -57 57 0 51 52 71
90 33z m622 3 c37 -34 15 -93 -35 -93 -40 0 -57 15 -57 51 0 52 54 77 92 42z
m1242 -84 c126 -35 130 -176 7 -238 -20 -10 -46 -22 -58 -25 l-23 -7 0 140 c0
158 -3 152 74 130z m-1623 -270 c33 -33 8 -89 -40 -89 -36 0 -51 17 -51 57 0
52 52 71 91 32z m1449 -117 c0 -16 -7 -37 -15 -48 -15 -19 -15 -19 -30 0 -20
26 -19 53 3 65 29 18 42 12 42 -17z"/>
<path d="M592 3387 c-19 -22 -42 -85 -42 -112 0 -14 14 -55 30 -92 17 -36 28
-68 26 -71 -3 -2 -38 -8 -79 -12 -99 -11 -140 -30 -156 -69 -11 -25 -11 -34
-1 -46 16 -19 29 -19 69 1 30 15 35 15 72 -2 38 -17 99 -75 99 -94 0 -5 10
-15 22 -21 19 -10 25 -8 50 22 20 24 28 43 26 64 -3 28 -6 30 -51 33 -43 3
-46 5 -37 23 6 11 21 19 36 19 32 0 38 18 26 75 -5 25 -7 45 -3 45 14 0 29
-17 45 -47 18 -35 19 -36 54 -27 26 7 47 43 57 96 7 39 -7 57 -30 38 -16 -13
-48 1 -127 53 -44 30 -48 35 -48 73 0 47 -20 73 -38 51z"/>
<path d="M4056 3122 c-3 -6 -31 -20 -62 -32 -73 -27 -197 -30 -224 -5 -22 20
-50 13 -50 -12 0 -10 11 -42 25 -71 18 -39 29 -53 42 -50 14 3 17 12 15 39 -2
34 -1 35 28 31 24 -3 35 -14 50 -43 l20 -38 -29 -16 c-17 -8 -37 -15 -45 -15
-23 0 -25 -12 -15 -60 23 -107 73 -116 113 -19 24 59 130 215 152 223 18 7 18
37 1 61 -9 12 -16 14 -21 7z m-90 -118 c-37 -34 -40 -35 -53 -18 -20 27 -17
32 30 42 64 15 65 14 23 -24z"/>
<path d="M3325 961 c-16 -10 -41 -31 -55 -46 -14 -15 -46 -38 -71 -50 -73 -38
-98 -94 -63 -143 26 -38 56 -25 77 33 17 47 60 99 77 93 4 -2 30 -32 59 -67
35 -44 49 -70 46 -85 -12 -55 -10 -69 11 -76 17 -7 34 2 83 42 71 59 75 79 16
92 -32 8 -51 23 -92 72 -50 60 -51 64 -42 98 10 35 6 56 -9 56 -4 0 -20 -8
-37 -19z"/>
<path d="M1136 881 c-4 -5 0 -33 7 -61 12 -45 11 -63 -2 -126 -16 -80 -9 -139
21 -157 20 -13 78 11 153 62 40 28 60 35 100 35 44 1 50 4 53 23 3 18 -8 28
-58 53 -73 37 -95 34 -86 -11 7 -37 -11 -47 -55 -29 -69 29 -81 82 -26 114
l32 18 -50 44 c-48 42 -78 54 -89 35z m106 -237 c30 -15 30 -16 12 -34 -11
-10 -30 -21 -43 -25 -21 -7 -23 -5 -18 16 4 13 7 32 7 42 0 21 3 21 42 1z"/>
</g>
</svg>
