<?xml version="1.0" standalone="no"?>
<!DOCTYPE svg PUBLIC "-//W3C//DTD SVG 20010904//EN"
 "http://www.w3.org/TR/2001/REC-SVG-20010904/DTD/svg10.dtd">
<svg version="1.0" xmlns="http://www.w3.org/2000/svg"
 width="439.526801pt" height="439.679949pt" viewBox="0 0 439.526801 439.679949"
 preserveAspectRatio="xMidYMid meet">
<metadata>
Created by potrace 1.16, written by Peter Selinger 2001-2019
</metadata>
<g transform="translate(-5.116833,444.821631) scale(0.100000,-0.100000)"
fill="#000000" stroke="none">
<path d="M2025 4439 c-366 -35 -682 -146 -980 -344 -386 -256 -692 -630 -849
-1035 -145 -378 -184 -834 -105 -1250 78 -409 262 -762 561 -1076 417 -436
908 -657 1514 -681 569 -22 1082 152 1502 511 502 431 763 977 778 1631 14
630 -198 1166 -636 1605 -320 320 -691 523 -1105 604 -219 42 -467 55 -680 35z
m549 -85 c295 -41 579 -148 831 -314 143 -95 233 -170 371 -311 335 -344 522
-726 585 -1199 18 -137 16 -449 -5 -593 -65 -455 -262 -848 -590 -1179 -342
-345 -728 -543 -1196 -614 -158 -24 -482 -24 -640 -1 -463 71 -854 269 -1185
602 -341 343 -529 715 -601 1185 -24 158 -25 482 -1 640 71 467 274 861 617
1199 376 370 813 565 1355 605 89 7 347 -5 459 -20z"/>
<path d="M2045 4329 c-526 -53 -940 -255 -1310 -641 -297 -309 -481 -674 -545
-1078 -6 -41 -14 -86 -16 -100 -13 -71 -16 -347 -5 -460 47 -489 229 -888 566
-1239 473 -493 1087 -714 1765 -635 489 56 875 245 1230 603 144 145 214 231
305 376 387 614 405 1479 43 2116 -185 328 -496 635 -824 817 -351 194 -795
283 -1209 241z m570 -55 c383 -63 741 -245 1043 -529 357 -337 573 -758 632
-1235 15 -124 12 -421 -5 -553 -60 -457 -266 -856 -615 -1191 -337 -322 -724
-505 -1175 -556 -129 -14 -402 -12 -525 4 -478 65 -863 262 -1211 622 -310
321 -495 708 -549 1148 -16 134 -13 445 5 573 66 439 242 795 555 1117 231
238 469 398 743 500 216 80 393 115 637 124 191 8 311 1 465 -24z"/>
<path d="M2238 4275 c-18 -10 -45 -50 -84 -125 -37 -72 -69 -119 -91 -136 -18
-14 -31 -30 -28 -35 9 -14 89 -11 109 4 16 12 17 16 5 35 -21 33 -1 43 92 45
74 2 84 0 87 -16 2 -11 -6 -29 -17 -41 -30 -31 -10 -46 60 -46 66 0 80 12 51
43 -11 12 -32 58 -47 102 -32 95 -50 132 -78 163 -24 26 -24 26 -59 7z m73
-128 c6 -15 10 -29 8 -31 -2 -2 -35 -6 -72 -9 l-68 -5 24 42 c13 22 30 52 37
65 l13 25 23 -29 c13 -17 29 -42 35 -58z"/>
<path d="M2070 3890 c-394 -41 -732 -207 -1012 -498 -136 -141 -226 -271 -307
-444 -149 -314 -189 -711 -110 -1077 100 -458 434 -881 869 -1099 224 -113
426 -161 695 -167 222 -5 396 19 580 80 495 165 921 614 1053 1110 128 482 45
1005 -221 1382 -269 381 -649 627 -1082 698 -113 19 -353 26 -465 15z m521
-59 c142 -31 240 -65 374 -132 161 -79 286 -171 425 -309 234 -234 372 -485
443 -805 19 -87 22 -129 22 -335 0 -208 -3 -247 -23 -340 -32 -147 -64 -236
-133 -375 -79 -161 -171 -286 -309 -425 -244 -244 -506 -384 -835 -446 -179
-34 -475 -29 -672 12 -265 55 -549 209 -756 412 -260 255 -411 536 -469 877
-27 161 -22 487 11 633 71 319 235 605 477 831 246 230 516 363 843 416 131
22 476 13 602 -14z"/>
<path d="M2094 3536 c-11 -30 2 -49 41 -63 66 -22 75 -41 75 -154 l0 -99 -474
0 -473 0 -6 41 c-8 63 -35 84 -107 84 -72 0 -99 -21 -107 -83 -10 -75 34 -132
102 -132 l25 0 0 -420 0 -420 -75 -1 c-171 -2 -180 -1 -206 19 -14 12 -24 34
-28 63 -6 43 -7 44 -41 44 l-35 0 0 -160 0 -160 35 0 c27 0 35 4 38 20 13 86
31 95 192 95 l120 0 0 -440 0 -440 -25 -6 c-40 -10 -65 -50 -65 -103 0 -56 19
-86 64 -101 55 -18 113 2 133 45 l17 35 458 0 458 0 0 -150 c0 -117 -3 -150
-13 -150 -7 0 -26 -14 -43 -31 -25 -27 -29 -38 -29 -89 0 -51 4 -63 26 -85 51
-51 150 -52 197 -2 28 30 39 111 20 147 -8 14 -28 34 -45 45 l-32 20 -1 148 0
147 458 0 458 0 11 -30 c23 -62 128 -76 179 -25 49 50 23 163 -41 179 l-25 6
0 440 0 440 121 0 c72 0 129 -5 142 -12 30 -15 46 -39 47 -64 0 -28 23 -46 52
-42 23 3 23 4 23 163 l0 160 -35 0 c-33 0 -35 -2 -38 -37 -2 -23 -13 -46 -29
-62 -25 -25 -29 -26 -154 -26 l-129 0 0 419 0 418 41 6 c63 8 84 35 84 107 0
82 -23 105 -105 105 -72 0 -99 -21 -107 -84 l-6 -41 -473 0 -474 0 0 99 c0
113 9 132 75 154 34 12 40 18 40 43 l0 29 -153 3 c-127 2 -153 0 -158 -12z
m-920 -272 c20 -19 20 -25 2 -49 -12 -17 -18 -18 -40 -7 -14 6 -26 18 -26 26
0 16 26 46 40 46 5 0 16 -7 24 -16z m2200 0 c19 -18 19 -20 6 -45 -6 -10 -19
-19 -28 -19 -39 0 -57 50 -24 69 23 14 28 14 46 -5z m-1944 -259 c0 -112 -3
-147 -13 -151 -23 -9 -65 14 -79 43 -8 17 -21 28 -33 28 -18 0 -20 -8 -23
-103 -2 -89 0 -103 14 -109 11 -4 23 2 36 18 35 46 39 49 68 49 33 0 36 -10
23 -84 -5 -31 -12 -41 -39 -52 -26 -11 -33 -19 -30 -37 3 -21 7 -22 107 -22
100 0 104 1 107 22 2 17 -3 26 -20 32 -36 14 -46 31 -49 89 -4 48 -2 52 18 52
35 0 53 -11 69 -42 11 -21 21 -28 37 -26 21 3 22 8 22 108 0 100 -1 105 -22
108 -16 2 -26 -5 -38 -27 -16 -32 -42 -51 -69 -51 -14 0 -16 21 -16 150 l0
150 100 0 100 0 0 -554 c0 -542 0 -555 -20 -561 -10 -3 -31 -20 -46 -38 -23
-28 -26 -37 -22 -91 4 -48 9 -63 31 -82 54 -46 159 -37 199 17 42 56 18 164
-42 189 l-30 12 0 554 0 554 220 0 220 0 0 -79 c0 -69 -3 -84 -23 -106 -12
-15 -38 -30 -57 -34 -32 -6 -35 -10 -35 -41 l0 -35 155 0 155 0 0 35 c0 31 -3
35 -33 41 -67 14 -89 56 -84 159 l4 60 214 0 214 0 0 -552 0 -553 -35 -22
c-39 -26 -58 -77 -48 -135 11 -71 90 -110 173 -88 50 13 80 57 80 115 0 52
-18 85 -57 110 l-32 20 -1 553 0 552 100 0 100 0 0 -150 c0 -86 -4 -150 -9
-150 -28 0 -62 23 -76 50 -12 23 -22 30 -38 28 -21 -3 -22 -8 -22 -108 0 -100
1 -105 22 -108 16 -2 26 5 37 26 16 31 34 42 67 42 16 0 19 -7 19 -53 0 -55
-12 -76 -53 -90 -12 -5 -17 -15 -15 -29 3 -22 7 -23 108 -23 105 0 105 0 105
25 0 17 -7 26 -25 30 -31 7 -50 43 -50 98 0 39 2 42 28 42 35 0 48 -9 61 -43
8 -21 17 -28 34 -25 21 3 22 7 22 108 0 105 0 105 -25 105 -18 0 -26 -7 -30
-25 -6 -27 -52 -55 -76 -46 -11 4 -14 33 -14 151 l0 145 95 0 95 0 0 -430 0
-430 -27 -1 c-88 -4 -117 14 -136 79 -13 42 -17 47 -43 47 l-29 0 0 -160 0
-160 28 0 c25 0 31 6 43 40 19 57 46 75 110 75 l54 0 0 -442 c0 -440 0 -442
-22 -465 -21 -22 -27 -23 -175 -23 l-153 0 0 155 c0 169 -9 211 -52 239 -40
26 -112 31 -163 11 -70 -26 -78 -50 -83 -242 l-4 -163 -159 0 -159 0 0 450 0
450 89 0 c115 0 130 -11 138 -98 8 -85 27 -99 53 -39 51 114 55 327 6 327 -8
0 -26 -20 -40 -44 -44 -74 -47 -76 -152 -76 -106 0 -97 -9 -94 95 2 90 26 118
125 140 39 9 51 16 53 33 6 37 -36 46 -218 46 -182 0 -224 -9 -218 -46 2 -17
14 -24 53 -33 105 -24 125 -49 125 -157 l0 -78 -98 0 c-111 0 -125 8 -157 83
-40 96 -84 -5 -64 -148 12 -84 35 -159 53 -174 19 -16 31 2 49 72 23 89 34 97
134 97 l83 0 0 -450 0 -450 -165 0 -165 0 0 163 c0 174 -5 195 -52 230 -38 29
-123 33 -168 10 -60 -31 -70 -66 -70 -245 l0 -158 -152 0 c-142 0 -153 1 -175
22 l-23 21 0 444 0 443 54 0 c64 0 90 -18 109 -75 12 -34 18 -40 43 -40 l29 0
0 160 0 160 -29 0 c-26 0 -30 -5 -43 -47 -17 -60 -43 -78 -110 -78 l-53 0 0
430 0 430 95 0 95 0 0 -145z m338 -1041 c24 -17 30 -62 10 -82 -7 -7 -26 -12
-43 -12 -38 0 -55 16 -55 51 0 27 30 59 55 59 6 0 21 -7 33 -16z m1040 -6 c15
-13 16 -60 0 -76 -7 -7 -26 -12 -43 -12 -38 0 -55 16 -55 51 0 49 56 70 98 37z
m-1023 -353 c24 -23 25 -28 25 -175 l0 -150 -75 0 -75 0 0 139 c0 151 7 187
42 201 38 15 58 11 83 -15z m1023 9 c21 -15 22 -21 22 -175 l0 -159 -70 0 -70
0 0 153 c0 83 4 157 8 163 22 34 75 42 110 18z m-1593 -389 c0 -24 -5 -31 -24
-33 -31 -5 -45 11 -37 43 5 21 12 26 34 23 23 -2 27 -8 27 -33z m2133 6 c5
-32 -23 -54 -49 -40 -19 10 -26 49 -12 63 4 4 19 6 33 4 18 -2 26 -10 28 -27z
m-1058 -411 c24 -24 25 -38 4 -68 -17 -24 -62 -30 -82 -10 -18 18 -15 75 6 87
26 16 50 13 72 -9z"/>
<path d="M3707 3603 c-2 -5 -10 -25 -16 -45 -15 -47 -68 -94 -123 -109 -70
-20 -75 -30 -40 -81 92 -134 164 -173 217 -118 34 35 32 74 -5 78 -58 6 -100
23 -100 40 0 10 21 42 48 71 37 42 56 55 86 60 22 3 41 12 44 19 2 7 -14 30
-36 52 -37 38 -65 50 -75 33z"/>
<path d="M704 3571 c-34 -21 -74 -92 -74 -133 0 -61 91 -88 157 -47 38 24 143
33 150 13 2 -6 -17 -25 -42 -43 -33 -24 -53 -31 -69 -27 -28 7 -73 -24 -62
-42 4 -7 20 -19 37 -27 25 -14 32 -14 57 -1 40 21 122 112 122 136 0 11 -15
37 -34 57 -42 47 -82 48 -158 5 -60 -34 -78 -32 -78 7 0 36 17 51 56 51 44 0
50 15 20 45 -30 30 -41 31 -82 6z"/>
<path d="M3932 1978 c-6 -8 -20 -61 -32 -118 -12 -58 -27 -126 -35 -153 l-14
-47 34 -14 c29 -13 74 -20 97 -17 5 1 -1 25 -12 54 -20 53 -25 93 -14 121 9
24 64 22 212 -10 20 -4 22 -9 17 -33 -7 -34 5 -46 29 -28 16 12 38 113 33 150
-4 20 -22 24 -22 5 0 -26 -32 -23 -206 23 -29 7 -38 16 -45 41 -10 35 -26 45
-42 26z"/>
<path d="M491 1946 c-20 -24 -9 -51 20 -49 22 1 27 -5 36 -40 7 -23 15 -49 18
-59 5 -12 -1 -18 -24 -23 -42 -9 -46 -6 -46 40 0 37 -2 40 -25 37 -39 -4 -46
-18 -27 -51 23 -40 22 -48 -12 -65 -35 -19 -49 -7 -58 49 -5 28 -1 41 17 60
42 45 6 84 -46 50 -29 -19 -29 -27 0 -188 15 -87 35 -119 60 -97 9 7 16 20 16
30 0 12 18 24 61 40 59 22 63 23 112 7 69 -22 77 -11 44 55 -27 55 -45 118
-49 178 -3 33 -5 35 -44 38 -27 2 -45 -2 -53 -12z"/>
<path d="M1305 747 c-61 -19 -53 -41 17 -45 46 -2 61 -7 73 -25 23 -32 19
-109 -6 -141 -18 -23 -27 -27 -67 -24 -42 3 -47 6 -54 34 -4 17 -15 38 -24 45
-14 11 -19 10 -35 -10 -27 -33 -24 -57 14 -85 77 -58 156 -54 228 11 44 40 46
52 21 142 -27 94 -79 125 -167 98z"/>
<path d="M3005 753 c-32 -8 -56 -34 -81 -88 -62 -131 -25 -228 101 -265 64
-18 104 4 149 85 l37 65 -13 61 c-10 50 -18 66 -48 88 -58 46 -104 63 -145 54z
m76 -93 c42 -23 66 -125 37 -162 -7 -9 -34 -18 -60 -21 -46 -4 -46 -4 -64 35
-31 69 -16 125 41 149 26 10 24 10 46 -1z"/>
</g>
</svg>
