<?xml version="1.0" standalone="no"?>
<!DOCTYPE svg PUBLIC "-//W3C//DTD SVG 20010904//EN"
 "http://www.w3.org/TR/2001/REC-SVG-20010904/DTD/svg10.dtd">
<svg version="1.0" xmlns="http://www.w3.org/2000/svg"
 width="439.341270pt" height="439.159615pt" viewBox="0 0 439.341270 439.159615"
 preserveAspectRatio="xMidYMid meet">
<metadata>
Created by potrace 1.16, written by Peter Selinger 2001-2019
</metadata>
<g transform="translate(-6.471589,444.643024) scale(0.100000,-0.100000)"
fill="#000000" stroke="none">
<path d="M2100 4444 c-19 -2 -78 -9 -130 -14 -611 -67 -1173 -415 -1542 -955
-183 -267 -292 -548 -344 -885 -25 -161 -26 -520 -1 -680 71 -460 258 -839
579 -1176 354 -370 762 -584 1258 -661 161 -24 520 -24 680 0 161 26 356 78
490 132 567 228 1052 736 1248 1305 156 456 160 989 11 1445 -101 306 -282
595 -529 844 -355 358 -777 569 -1260 631 -90 11 -401 21 -460 14z m484 -90
c435 -60 816 -250 1147 -571 364 -354 567 -743 635 -1220 21 -145 23 -457 5
-593 -64 -476 -259 -873 -595 -1212 -399 -403 -849 -604 -1416 -634 -242 -12
-566 31 -790 106 -207 69 -441 198 -625 344 -379 302 -649 717 -754 1158 -70
294 -77 637 -20 938 81 424 278 784 607 1105 378 369 816 563 1352 599 95 6
341 -5 454 -20z"/>
<path d="M2055 4329 c-511 -51 -907 -239 -1271 -603 -256 -256 -419 -519 -518
-836 -133 -430 -126 -911 20 -1347 36 -108 142 -321 210 -423 178 -267 440
-519 710 -682 566 -340 1365 -370 1971 -72 213 104 372 221 564 413 330 331
515 694 586 1151 24 159 24 482 -1 640 -74 475 -280 866 -633 1200 -294 278
-618 449 -996 525 -211 42 -443 54 -642 34z m617 -63 c385 -79 704 -246 996
-521 349 -329 567 -747 627 -1201 15 -116 21 -414 10 -514 -56 -502 -255 -907
-622 -1261 -299 -289 -644 -467 -1043 -541 -147 -26 -525 -35 -665 -14 -488
72 -861 265 -1205 622 -312 324 -494 703 -550 1144 -13 110 -13 430 0 540 40
317 144 600 317 857 254 380 649 689 1053 821 249 82 394 102 710 98 217 -3
259 -6 372 -30z"/>
<path d="M2294 4255 c-39 -7 -84 -19 -99 -26 -37 -18 -68 -79 -73 -144 -4 -44
0 -55 22 -81 14 -17 46 -39 72 -49 47 -18 47 -18 91 6 24 13 51 32 60 41 14
16 14 18 -2 24 -9 4 -41 0 -69 -10 -29 -9 -60 -16 -68 -16 -36 0 -37 81 -2
160 l25 57 44 -10 c35 -8 46 -16 54 -39 12 -33 22 -35 45 -10 12 14 14 28 10
53 -7 34 -21 60 -33 58 -3 0 -38 -7 -77 -14z"/>
<path d="M2120 3893 c-366 -35 -630 -142 -905 -364 -82 -66 -212 -199 -276
-284 -291 -382 -394 -876 -287 -1374 41 -192 133 -400 251 -568 83 -117 298
-332 415 -413 295 -206 648 -305 1022 -287 438 22 784 178 1095 492 282 286
430 606 466 1013 21 224 -6 458 -77 672 -157 474 -566 884 -1033 1034 -215 69
-469 99 -671 79z m392 -48 c255 -37 498 -137 708 -294 107 -79 283 -260 363
-371 78 -110 175 -300 212 -415 59 -185 69 -261 69 -515 0 -254 -10 -332 -69
-516 -37 -114 -134 -304 -212 -414 -87 -122 -272 -306 -393 -392 -181 -128
-406 -223 -625 -264 -139 -26 -478 -26 -615 0 -328 62 -620 223 -863 476 -227
237 -365 507 -419 825 -17 104 -19 148 -15 330 6 229 20 315 75 482 146 435
523 824 957 986 252 95 538 123 827 82z"/>
<path d="M1865 3431 c-56 -24 -82 -110 -51 -172 9 -17 16 -34 16 -36 0 -1
-123 -3 -272 -3 l-273 0 0 44 c0 81 -78 126 -158 93 -44 -19 -57 -42 -57 -102
0 -38 5 -52 29 -76 17 -17 40 -29 55 -29 l26 0 0 -255 0 -255 -114 0 -114 0
-20 34 c-37 63 -144 72 -197 16 -54 -56 -40 -170 25 -203 68 -35 166 -6 186
55 5 16 17 18 120 18 l114 0 0 -230 0 -230 -49 0 c-86 0 -133 -67 -112 -161
14 -64 39 -82 114 -87 60 -4 67 -2 97 25 27 24 33 38 38 81 l5 52 108 0 c60 0
109 -4 109 -8 0 -22 -68 -110 -172 -222 -169 -183 -163 -179 -237 -143 -29 13
-59 22 -67 19 -25 -10 -35 -57 -32 -160 2 -84 0 -106 -16 -132 -25 -42 -16
-64 26 -64 64 -1 300 44 305 58 8 19 -24 96 -57 138 -18 22 -27 42 -22 49 4 8
94 115 201 239 l193 226 139 0 139 0 0 -110 0 -110 -27 0 c-16 0 -55 -12 -88
-25 -33 -14 -61 -25 -61 -25 -9 0 -44 107 -44 134 0 19 -3 37 -8 40 -12 7 -72
-22 -72 -36 0 -8 -13 -19 -30 -25 -41 -15 -40 -48 1 -71 17 -9 50 -29 74 -44
l43 -26 -31 -61 c-28 -57 -32 -61 -63 -61 -19 0 -34 5 -34 10 0 6 -11 22 -25
35 -19 20 -34 25 -72 25 -61 0 -89 -20 -103 -69 -33 -124 102 -199 187 -105
41 46 73 44 86 -6 5 -19 17 -44 28 -56 25 -27 24 -35 -9 -67 -24 -23 -31 -25
-67 -17 -81 18 -71 -31 17 -90 34 -22 69 -39 77 -38 11 2 18 19 22 53 9 69 18
95 34 95 8 0 48 -5 90 -11 l75 -11 0 -93 0 -94 -109 -187 c-61 -103 -108 -192
-105 -196 7 -10 501 -11 508 0 2 4 -45 92 -105 195 l-109 188 0 93 0 93 53 7
c87 10 83 12 102 -61 10 -38 21 -71 24 -75 3 -4 35 19 70 51 64 57 73 81 30
81 -28 0 -75 26 -83 45 -3 8 9 42 26 75 26 51 35 60 58 60 19 0 33 -8 45 -26
36 -55 127 -65 175 -18 21 20 25 34 25 80 0 49 -4 59 -28 80 -40 34 -118 34
-152 -1 -14 -13 -25 -29 -25 -35 0 -5 -15 -10 -33 -10 -30 0 -36 5 -50 38 -9
20 -26 54 -39 74 -29 46 -20 64 42 87 66 24 65 48 -5 95 -31 20 -60 34 -65 31
-5 -3 -14 -29 -20 -59 -15 -75 -27 -89 -65 -76 -16 5 -42 12 -57 15 l-28 5 0
105 0 104 108 3 c59 2 121 2 137 0 31 -3 48 -24 344 -409 l65 -84 -57 -54
c-78 -74 -77 -93 7 -140 108 -60 185 -88 250 -89 57 -1 60 0 67 27 4 15 11 94
14 175 10 210 -3 231 -109 177 -96 -48 -93 -50 -279 174 -92 109 -168 204
-169 210 -2 9 42 12 173 11 164 -1 176 1 193 19 15 17 18 30 12 73 -3 29 -9
62 -12 73 -4 16 4 26 36 44 34 19 44 21 58 10 53 -41 65 -85 36 -140 -8 -17
-16 -49 -17 -72 l-2 -42 70 -7 c146 -15 244 -28 259 -34 13 -5 16 -27 16 -125
l0 -119 -32 0 c-56 1 -88 22 -122 80 -55 93 -61 80 -61 -120 0 -174 0 -175 22
-175 15 0 34 17 60 55 37 52 41 55 87 58 l48 3 -7 -68 c-9 -84 -20 -111 -78
-190 -63 -85 -58 -88 137 -88 145 0 151 1 154 20 2 15 -10 30 -41 53 -55 39
-86 106 -94 203 -5 62 -4 69 12 69 47 0 103 -27 149 -73 71 -71 76 -64 76 98
0 156 -8 171 -62 116 -34 -34 -88 -55 -133 -49 l-30 3 3 95 c1 52 5 96 8 99
18 18 262 -145 346 -230 37 -38 69 -66 71 -62 15 24 29 187 23 268 -22 318
-171 564 -390 647 l-59 22 34 25 c61 46 160 144 220 219 93 116 110 210 60
343 -25 65 -93 181 -107 181 -5 0 -23 -38 -40 -83 -46 -128 -71 -166 -126
-195 -43 -22 -81 -17 -144 21 -60 37 -153 75 -181 75 -9 0 -32 19 -51 41 -60
70 -55 69 -497 69 -217 0 -395 2 -395 4 0 2 7 20 16 41 19 47 11 106 -20 142
-19 22 -33 27 -82 30 -32 1 -68 -1 -79 -6z m105 -81 c24 -24 25 -38 4 -68 -17
-24 -62 -30 -82 -10 -18 18 -15 75 6 87 26 16 50 13 72 -9z m-762 -92 c-2 -27
-7 -33 -27 -33 -28 0 -47 25 -38 49 4 10 18 16 37 16 29 0 31 -2 28 -32z m682
-253 c0 -161 1 -159 -64 -125 -22 10 -43 17 -47 14 -12 -7 -12 -171 0 -178 4
-3 23 6 41 19 35 26 66 32 72 15 2 -5 2 -156 0 -335 l-3 -325 -319 0 -320 0 0
530 0 530 320 0 320 0 0 -145z m887 134 c52 -11 96 -38 76 -46 -34 -12 -134
-85 -148 -107 -25 -38 -30 -97 -11 -134 24 -47 82 -87 127 -87 71 0 153 107
154 202 0 32 4 53 11 53 24 0 100 -32 146 -61 l48 -31 0 -174 0 -173 -37 -10
c-21 -6 -58 -14 -82 -20 -79 -17 -80 -43 -3 -60 26 -5 64 -17 85 -26 l37 -15
0 -215 c0 -198 -1 -215 -17 -215 -10 1 -60 11 -112 23 l-95 23 -11 51 c-16 71
-58 137 -99 157 -34 16 -121 21 -164 10 -34 -9 -62 -72 -62 -139 l0 -55 -325
0 -325 0 0 335 0 335 50 0 c35 0 67 -8 102 -26 l52 -26 18 22 c27 33 25 126
-4 157 -27 29 -36 29 -69 -3 -21 -20 -41 -27 -88 -31 l-61 -6 0 152 0 151 380
0 c227 0 398 -4 427 -11z m743 -130 c0 -78 -22 -145 -78 -231 -48 -73 -112
-136 -164 -164 l-28 -15 0 154 0 154 60 37 c33 20 88 69 122 107 l63 70 12
-28 c7 -15 12 -53 13 -84z m-619 -6 c4 -56 -33 -149 -63 -159 -31 -9 -64 3
-76 31 -20 43 7 97 62 125 50 25 76 26 77 3z m-2031 -368 c30 -36 4 -95 -42
-95 -31 0 -61 38 -53 68 4 15 12 30 18 34 20 13 64 9 77 -7z m2460 -257 c30
-17 83 -60 118 -96 113 -116 202 -336 202 -499 l0 -73 -81 69 c-82 72 -175
137 -267 187 l-52 29 0 208 c0 159 3 207 13 207 6 0 37 -14 67 -32z m-2141
-379 c13 -24 13 -29 -2 -53 -19 -28 -63 -36 -85 -14 -18 18 -15 75 6 87 28 18
65 8 81 -20z m702 -349 c-1 -30 -4 -56 -6 -58 -1 -1 -46 -1 -100 0 l-98 3 28
33 c29 35 72 61 120 73 55 13 59 9 56 -51z m145 45 c48 -14 95 -52 107 -87 6
-16 -2 -18 -82 -18 l-89 0 -4 56 c-4 74 -7 72 68 49z m-553 -126 c15 -24 1
-49 -27 -49 -31 0 -48 27 -34 53 11 22 46 19 61 -4z m932 -14 c0 -27 -3 -30
-30 -30 -21 0 -31 5 -33 18 -5 25 17 49 42 45 16 -2 21 -10 21 -33z m-525
-100 l0 -66 -37 7 c-66 11 -121 41 -143 76 -11 18 -20 36 -20 41 0 4 45 7 100
7 l100 0 0 -65z m240 56 c0 -19 -53 -72 -91 -91 -62 -32 -69 -29 -69 40 l0 60
80 0 c44 0 80 -4 80 -9z m-238 -598 l0 -78 -52 -3 -52 -3 31 53 c18 29 39 68
48 85 9 18 18 31 21 29 2 -3 4 -40 4 -83z m142 -16 l38 -68 -51 5 c-28 4 -51
8 -51 11 0 3 0 40 0 82 0 88 -1 88 64 -30z"/>
<path d="M1627 3113 c-21 -6 -47 -53 -47 -86 0 -29 29 -57 58 -57 29 0 36 17
12 30 -31 17 -24 80 9 80 28 0 62 -45 68 -89 11 -78 -37 -92 -137 -40 -33 18
-81 34 -107 36 -86 9 -184 -33 -170 -70 6 -16 11 -15 57 3 68 27 81 25 180
-15 104 -43 156 -46 191 -9 20 21 24 36 24 82 -1 36 -8 72 -20 97 -18 36 -24
40 -60 42 -22 0 -48 -1 -58 -4z"/>
<path d="M1455 2720 l-100 -100 105 -105 105 -105 102 102 103 103 -102 102
c-57 57 -105 103 -108 103 -3 0 -50 -45 -105 -100z m160 -155 l-48 -56 -54 53
-53 52 52 53 53 53 49 -49 49 -49 -48 -57z"/>
<path d="M1654 2390 c-31 -12 -54 -49 -54 -87 0 -26 6 -36 31 -48 32 -17 59
-14 59 6 0 6 -9 13 -19 16 -26 7 -32 25 -18 53 17 33 33 35 61 7 45 -45 47
-120 3 -136 -26 -10 -75 8 -122 43 -49 38 -107 52 -155 37 -47 -14 -62 -38
-58 -89 4 -43 23 -49 41 -12 18 35 49 36 120 2 91 -44 149 -46 196 -6 42 35
53 81 36 146 -7 29 -21 58 -31 65 -20 15 -58 16 -90 3z"/>
<path d="M2447 3108 c-36 -33 -44 -81 -18 -107 38 -38 86 -23 49 16 -18 19
-20 27 -10 48 24 52 81 15 89 -58 6 -54 -7 -77 -44 -77 -29 0 -50 10 -122 59
-47 32 -60 36 -114 35 -46 -1 -63 -5 -74 -19 -21 -29 -10 -40 35 -37 30 3 50
-2 71 -17 49 -35 134 -71 169 -71 77 0 129 63 119 148 -7 64 -34 96 -84 100
-31 2 -47 -2 -66 -20z"/>
<path d="M2458 2635 c-27 -15 -44 -62 -36 -101 4 -23 53 -48 76 -39 15 6 14 9
-5 25 -26 21 -30 62 -8 80 13 10 19 9 36 -6 48 -44 63 -109 31 -137 -29 -26
-53 -21 -123 28 -113 80 -198 89 -266 30 -41 -35 -21 -49 41 -30 27 8 55 15
61 15 7 0 50 -25 96 -55 104 -68 141 -72 195 -22 55 50 63 136 20 202 -19 29
-74 34 -118 10z"/>
<path d="M573 3295 c-56 -24 -98 -119 -75 -170 16 -35 81 -104 113 -121 61
-31 146 -9 174 45 8 16 17 53 21 83 l6 53 -60 63 c-56 58 -63 62 -103 62 -24
-1 -59 -7 -76 -15z m96 -74 c69 -47 90 -85 69 -128 -7 -15 -20 -29 -29 -31
-24 -4 -173 101 -177 125 -3 21 42 73 65 73 8 0 40 -18 72 -39z"/>
<path d="M3717 3149 c-22 -30 -22 -28 14 -107 l30 -67 20 24 c10 13 19 34 19
47 0 19 5 24 25 24 29 0 61 -44 71 -98 9 -48 -7 -59 -50 -34 -29 17 -37 18
-46 7 -14 -17 -2 -60 30 -113 34 -56 56 -42 114 68 27 52 66 121 87 153 62 93
51 112 -49 86 -37 -10 -98 -18 -135 -18 -62 -1 -70 2 -91 26 l-23 26 -16 -24z
m252 -109 c-19 -27 -37 -50 -40 -50 -4 0 -10 11 -13 24 -3 13 -9 31 -12 40 -4
11 6 18 43 29 26 8 50 13 52 11 2 -2 -11 -26 -30 -54z"/>
<path d="M1135 948 c-3 -8 -1 -27 4 -41 9 -24 5 -37 -40 -107 l-51 -80 -46 3
c-67 3 -62 -20 15 -76 67 -50 76 -49 87 13 3 20 25 60 47 90 40 53 43 55 97
60 30 3 57 10 59 17 4 10 -72 74 -139 117 -23 15 -29 16 -33 4z"/>
<path d="M3334 921 c-35 -22 -66 -60 -58 -73 3 -4 18 -8 34 -8 20 0 31 -6 35
-21 9 -29 4 -31 -49 -19 -26 6 -51 8 -57 5 -5 -4 -8 -30 -8 -58 1 -29 1 -63 0
-77 l-2 -25 -24 28 c-23 26 -30 54 -26 99 3 27 -13 28 -68 3 -43 -21 -52 -29
-49 -47 2 -17 14 -26 43 -36 22 -7 50 -24 62 -39 28 -35 39 -98 22 -129 -19
-36 0 -50 38 -31 46 24 55 41 60 124 3 43 8 81 12 85 3 3 57 -2 119 -11 107
-16 113 -16 128 1 24 26 11 49 -24 42 -56 -11 -147 99 -140 169 4 38 -8 42
-48 18z"/>
</g>
</svg>
