<?xml version="1.0" standalone="no"?>
<!DOCTYPE svg PUBLIC "-//W3C//DTD SVG 20010904//EN"
 "http://www.w3.org/TR/2001/REC-SVG-20010904/DTD/svg10.dtd">
<svg version="1.0" xmlns="http://www.w3.org/2000/svg"
 width="439.593045pt" height="439.175202pt" viewBox="0 0 439.593045 439.175202"
 preserveAspectRatio="xMidYMid meet">
<metadata>
Created by potrace 1.16, written by Peter Selinger 2001-2019
</metadata>
<g transform="translate(-5.199330,444.562791) scale(0.100000,-0.100000)"
fill="#000000" stroke="none">
<path d="M2033 4440 c-500 -49 -921 -239 -1288 -581 -185 -173 -369 -417 -478
-634 -83 -166 -160 -420 -192 -630 -23 -148 -30 -388 -16 -545 49 -556 268
-1009 676 -1399 361 -344 782 -538 1280 -590 130 -14 450 -6 580 14 622 94
1152 441 1515 992 290 437 400 1015 304 1588 -72 429 -282 824 -615 1155 -343
342 -741 544 -1209 615 -127 19 -430 27 -557 15z m541 -86 c439 -61 822 -253
1154 -578 360 -352 559 -737 628 -1212 23 -159 23 -487 0 -634 -73 -464 -263
-841 -589 -1170 -386 -390 -806 -586 -1347 -631 -547 -44 -1063 110 -1483 444
-348 277 -615 663 -727 1053 -125 430 -115 913 26 1326 224 654 813 1196 1479
1362 257 64 579 79 859 40z"/>
<path d="M2030 4328 c-307 -29 -624 -135 -875 -293 -145 -91 -231 -161 -376
-305 -199 -198 -347 -406 -445 -630 -242 -551 -230 -1229 30 -1765 196 -402
569 -775 971 -971 559 -271 1270 -271 1830 0 324 158 644 444 851 761 287 440
389 1012 279 1562 -81 401 -262 731 -570 1038 -191 192 -361 314 -585 422
-314 151 -723 218 -1110 181z m607 -58 c402 -72 753 -260 1063 -570 349 -348
542 -748 594 -1227 10 -89 7 -394 -4 -483 -58 -454 -236 -827 -555 -1159 -344
-358 -761 -567 -1240 -621 -116 -13 -374 -13 -490 0 -484 54 -896 262 -1250
631 -302 315 -475 669 -540 1102 -18 126 -21 446 -5 577 49 384 201 737 445
1030 78 94 259 270 344 334 343 263 718 399 1141 414 201 8 338 0 497 -28z"/>
<path d="M2035 4260 c-10 -16 4 -30 31 -30 35 0 45 -36 42 -139 l-3 -86 -29
-5 c-67 -11 -18 -36 76 -39 57 -1 67 11 32 36 -26 19 -26 22 -20 86 7 61 9 66
26 57 10 -6 31 -34 47 -63 22 -40 33 -52 52 -52 19 0 27 10 45 54 31 79 46 77
46 -4 0 -57 -3 -69 -22 -85 -20 -16 -21 -20 -8 -35 11 -13 23 -15 59 -10 58 8
69 19 48 43 -14 15 -17 39 -17 118 0 104 4 116 33 127 10 4 17 13 15 20 -6 15
-41 21 -85 12 -30 -5 -38 -13 -60 -63 -14 -31 -27 -59 -29 -60 -5 -7 -89 56
-123 92 -32 33 -39 36 -92 36 -32 0 -61 -4 -64 -10z"/>
<path d="M2105 3893 c-311 -27 -586 -129 -835 -311 -102 -74 -302 -278 -377
-385 -391 -554 -389 -1348 3 -1897 91 -127 245 -285 374 -382 428 -323 1022
-406 1555 -218 442 157 838 562 988 1011 136 409 105 903 -82 1273 -227 448
-659 784 -1131 880 -149 30 -349 42 -495 29z m481 -62 c143 -30 241 -64 379
-132 161 -79 286 -171 425 -309 233 -233 373 -488 442 -804 20 -88 22 -130 22
-336 0 -254 -10 -330 -69 -515 -37 -115 -134 -305 -212 -415 -87 -122 -272
-307 -393 -392 -175 -124 -390 -217 -599 -259 -127 -26 -404 -36 -537 -20
-385 47 -695 206 -972 496 -223 233 -360 505 -413 816 -18 108 -20 151 -16
334 5 228 19 312 76 485 138 410 495 792 900 961 152 64 368 113 536 121 104
6 334 -11 431 -31z"/>
<path d="M1098 3316 c-42 -37 -40 -46 9 -46 25 0 52 -13 96 -44 34 -25 262
-245 507 -490 l445 -446 -320 -1 c-176 -1 -327 0 -335 1 -21 3 -27 15 -33 69
-10 87 -46 162 -106 221 -64 64 -125 96 -225 117 -146 31 -297 -10 -391 -107
-37 -38 -39 -42 -23 -54 10 -7 48 -16 84 -19 70 -7 163 -43 202 -80 88 -82 95
-262 15 -358 -47 -55 -161 -99 -260 -99 -28 0 -55 -4 -58 -10 -3 -5 15 -32 40
-59 47 -51 136 -104 194 -116 90 -19 237 2 324 47 98 50 184 167 202 273 3 22
9 52 11 68 l6 27 336 0 337 0 -455 -455 c-409 -410 -462 -459 -524 -490 -38
-19 -77 -35 -87 -35 -32 0 -28 -15 11 -48 l39 -32 248 2 248 3 0 25 c0 22 -5
26 -47 32 -96 13 -177 80 -164 135 5 19 131 152 397 418 l389 390 0 -302 0
-303 -62 0 c-82 0 -129 23 -144 70 -10 31 -16 35 -45 35 l-34 0 0 -140 c0
-139 0 -140 23 -143 28 -4 52 14 52 38 0 10 14 30 31 44 27 23 39 26 105 26
l74 0 0 -72 c0 -121 -41 -172 -149 -185 -54 -6 -88 -31 -78 -58 6 -13 42 -15
267 -15 225 0 261 2 267 15 10 27 -24 52 -78 58 -66 8 -99 25 -126 66 -19 28
-23 47 -23 114 l0 79 79 -3 c67 -4 83 -8 105 -28 14 -13 26 -35 28 -50 3 -23
8 -26 38 -26 l35 0 0 140 0 140 -34 0 c-30 0 -36 -4 -43 -31 -13 -52 -39 -67
-128 -72 l-80 -5 0 304 0 304 389 -390 c213 -214 391 -400 394 -412 9 -40 -24
-86 -82 -115 -30 -16 -69 -28 -87 -28 -35 0 -59 -22 -50 -45 5 -13 42 -15 259
-15 l253 0 32 33 c36 37 33 47 -13 47 -54 0 -135 74 -600 539 l-440 441 336 0
336 0 15 -77 c36 -183 129 -281 308 -328 165 -43 319 -2 419 111 22 26 39 50
36 54 -2 4 -40 10 -84 13 -186 12 -291 109 -291 267 0 81 19 130 70 180 51 51
115 78 216 90 92 12 97 21 41 75 -122 117 -296 144 -481 75 -120 -46 -212
-165 -236 -311 l-12 -69 -336 0 -337 0 460 459 c417 416 466 461 525 489 36
16 74 33 84 36 18 6 16 10 -14 41 l-34 35 -256 -2 -255 -3 0 -25 c0 -22 5 -25
53 -32 62 -9 125 -39 146 -70 9 -12 16 -38 16 -57 0 -33 -26 -62 -412 -448
l-413 -413 -406 407 c-437 438 -439 441 -403 502 20 34 95 72 157 80 37 5 42
9 42 31 l0 25 -250 2 -250 2 -37 -33z m77 -722 c242 -119 287 -447 88 -640
-64 -63 -156 -105 -226 -105 -55 0 -120 22 -162 55 -20 15 -20 15 6 16 103 1
212 79 250 179 18 48 20 70 16 156 -6 126 -27 184 -86 246 -46 47 -116 78
-180 79 -24 1 -23 3 12 21 83 43 184 41 282 -7z m2412 14 l58 -22 -62 -13
c-77 -15 -109 -31 -149 -75 -59 -62 -86 -149 -87 -278 -1 -101 17 -160 64
-214 43 -48 91 -72 168 -82 28 -4 51 -10 51 -14 0 -4 -24 -19 -53 -33 -108
-55 -237 -24 -346 82 -169 165 -158 455 23 591 107 81 221 101 333 58z"/>
<path d="M1764 3335 c-10 -26 2 -40 37 -43 39 -3 49 -15 49 -63 0 -52 28 -137
62 -191 57 -90 158 -159 255 -174 l43 -6 0 -64 0 -64 -33 0 c-38 0 -64 17 -69
45 -2 14 -11 20 -28 20 -25 0 -25 -1 -28 -103 -2 -89 0 -103 14 -109 11 -4 23
2 36 18 10 13 23 30 28 37 6 6 26 12 45 12 l35 0 0 -53 c0 -55 -12 -76 -53
-90 -12 -5 -17 -15 -15 -29 3 -22 7 -23 108 -23 101 0 105 1 108 23 2 14 -3
24 -15 29 -41 14 -53 35 -53 90 l0 53 33 0 c41 0 53 -8 66 -43 8 -21 17 -28
34 -25 21 3 22 7 22 108 0 102 -1 105 -23 108 -18 3 -25 -3 -33 -27 -8 -21
-19 -33 -37 -37 -67 -14 -62 -18 -62 55 l0 67 59 12 c70 15 164 73 209 130 44
55 81 138 88 198 10 92 11 93 52 96 32 3 37 6 37 28 l0 25 -120 0 -120 0 0
-25 c0 -20 5 -25 26 -26 50 -2 59 -11 59 -57 0 -84 -44 -188 -100 -235 -25
-22 -112 -59 -152 -66 l-38 -7 0 175 c0 189 0 191 55 191 25 0 30 4 30 25 l0
25 -125 0 -125 0 0 -25 c0 -22 5 -26 40 -30 l40 -5 3 -178 2 -178 -37 6 c-72
12 -164 66 -199 118 -35 51 -57 133 -52 194 3 36 5 38 43 43 35 4 40 8 40 30
l0 25 -118 3 c-98 2 -118 0 -123 -13z"/>
<path d="M3872 3402 c-4 -11 -41 -46 -82 -79 -105 -84 -114 -96 -114 -148 2
-103 79 -154 167 -109 37 20 25 35 -22 28 -100 -16 -93 93 12 178 62 50 63 50
97 22 39 -33 53 -22 35 29 -14 41 -39 73 -68 88 -13 8 -19 5 -25 -9z"/>
<path d="M558 3350 c-29 -22 -85 -106 -90 -134 -2 -14 6 -22 29 -30 18 -6 64
-36 102 -66 66 -51 70 -57 65 -86 -3 -18 -2 -34 3 -37 17 -11 74 33 89 69 20
48 15 70 -16 67 -52 -4 -70 6 -70 37 0 25 4 30 25 30 13 0 43 -7 65 -16 32
-13 47 -14 65 -6 49 22 76 102 54 159 -10 27 -11 27 -25 9 -8 -11 -14 -34 -14
-51 0 -19 -8 -39 -19 -49 -18 -16 -23 -16 -73 -1 -51 14 -55 17 -55 47 0 64
-83 100 -135 58z m82 -71 c13 -23 7 -54 -14 -82 -14 -18 -16 -17 -55 9 -23 14
-41 29 -41 31 0 3 9 18 21 34 25 36 72 40 89 8z"/>
<path d="M3977 3224 c-4 -4 -7 -15 -7 -25 0 -10 -13 -34 -30 -52 -34 -40 -31
-49 13 -36 18 5 44 9 59 9 37 0 39 8 14 59 -21 44 -36 58 -49 45z"/>
<path d="M3745 1408 c-33 -38 -66 -108 -58 -121 3 -5 16 -6 30 -2 39 9 63 -3
63 -32 0 -25 -1 -26 -52 -20 -73 9 -137 -9 -149 -41 -14 -36 -7 -87 11 -87 10
0 16 12 18 39 l3 39 54 -7 c70 -8 85 -14 85 -36 0 -10 9 -28 19 -41 18 -23 20
-23 92 -11 40 7 81 20 90 28 10 9 27 40 40 70 20 50 20 57 7 71 -13 12 -19 12
-35 3 -23 -15 -57 0 -135 58 -52 40 -52 39 -39 76 7 18 6 27 -3 36 -11 8 -20
3 -41 -22z m130 -210 c31 -14 32 -41 3 -60 -45 -29 -93 23 -56 60 15 15 21 15
53 0z"/>
<path d="M695 1373 c-11 -2 -38 -11 -60 -20 -22 -8 -65 -18 -95 -22 -48 -5
-55 -9 -58 -29 -5 -34 16 -80 48 -102 32 -23 43 -15 54 37 6 25 16 35 47 47
68 27 139 19 139 -15 0 -21 -57 -89 -102 -120 -28 -20 -30 -20 -48 -4 -28 25
-52 13 -44 -22 8 -39 36 -76 68 -91 35 -18 56 -9 56 22 0 17 16 40 51 73 73
68 113 159 89 203 -9 16 -99 53 -119 49 -3 -1 -15 -3 -26 -6z"/>
<path d="M2054 546 c-7 -19 12 -46 32 -46 11 0 14 -23 14 -109 l0 -108 -31 -9
c-50 -15 -34 -29 36 -32 l64 -3 43 75 c24 42 49 76 55 76 7 0 19 -13 28 -29 8
-17 37 -56 64 -89 49 -58 49 -59 92 -53 38 5 44 9 44 30 0 19 -7 27 -32 33
l-33 9 0 102 0 102 33 15 c50 23 38 35 -37 38 -75 3 -104 -10 -74 -32 17 -12
29 -108 16 -122 -4 -3 -23 19 -44 50 -56 86 -72 79 -108 -45 -9 -31 -25 -64
-36 -74 -20 -18 -20 -17 -20 26 1 72 18 128 48 154 37 33 22 44 -71 51 -66 6
-77 5 -83 -10z"/>
</g>
</svg>
