<?xml version="1.0" standalone="no"?>
<!DOCTYPE svg PUBLIC "-//W3C//DTD SVG 20010904//EN"
 "http://www.w3.org/TR/2001/REC-SVG-20010904/DTD/svg10.dtd">
<svg version="1.0" xmlns="http://www.w3.org/2000/svg"
 width="439.692785pt" height="439.450303pt" viewBox="0 0 439.692785 439.450303"
 preserveAspectRatio="xMidYMid meet">
<metadata>
Created by potrace 1.16, written by Peter Selinger 2001-2019
</metadata>
<g transform="translate(-5.077105,444.616687) scale(0.100000,-0.100000)"
fill="#000000" stroke="none">
<path d="M2070 4444 c-533 -49 -966 -243 -1343 -603 -505 -483 -738 -1130
-662 -1843 42 -400 177 -746 412 -1061 101 -133 330 -362 466 -463 397 -297
871 -440 1392 -421 424 16 792 131 1117 348 382 254 698 641 852 1042 150 392
184 854 95 1292 -62 303 -218 627 -425 884 -366 454 -867 739 -1424 811 -91
12 -405 21 -480 14z m499 -89 c446 -63 821 -250 1159 -580 358 -348 562 -741
628 -1210 21 -146 23 -458 5 -595 -73 -548 -331 -1008 -771 -1375 -132 -109
-251 -186 -415 -265 -304 -148 -560 -204 -925 -204 -288 0 -515 38 -740 121
-649 241 -1172 826 -1329 1485 -41 174 -55 304 -55 518 0 365 57 622 204 926
265 547 781 978 1353 1129 271 72 595 90 886 50z"/>
<path d="M2030 4329 c-490 -50 -900 -247 -1256 -603 -309 -309 -491 -644 -573
-1055 -89 -441 -29 -937 159 -1326 159 -330 432 -640 754 -855 621 -416 1527
-440 2177 -58 423 249 776 669 928 1102 147 419 158 907 30 1338 -94 317 -264
594 -524 853 -331 332 -700 521 -1146 590 -129 19 -422 27 -549 14z m632 -63
c409 -84 734 -261 1038 -566 330 -329 520 -704 584 -1150 22 -149 22 -447 1
-600 -60 -428 -240 -795 -545 -1114 -346 -361 -753 -567 -1240 -626 -108 -13
-378 -13 -495 0 -479 54 -883 255 -1230 611 -326 335 -508 710 -565 1159 -16
130 -13 451 5 577 32 217 88 398 180 588 110 225 235 395 429 582 278 270 582
440 936 523 178 41 270 49 530 46 218 -3 259 -6 372 -30z"/>
<path d="M2211 4237 c-19 -7 -44 -25 -55 -40 -30 -41 -29 -135 3 -201 28 -57
64 -76 144 -76 85 0 114 44 124 185 5 76 4 81 -20 103 -42 39 -130 52 -196 29z
m123 -57 c46 -51 53 -80 32 -135 -21 -55 -35 -66 -90 -72 -42 -5 -46 -4 -65
28 -26 43 -29 133 -5 169 42 63 78 66 128 10z"/>
<path d="M2110 3894 c-267 -32 -393 -66 -585 -159 -166 -80 -279 -160 -423
-299 -314 -303 -479 -672 -499 -1116 -16 -373 84 -724 290 -1017 79 -113 297
-331 410 -410 294 -207 648 -307 1022 -289 381 18 670 127 962 363 340 275
558 669 601 1086 11 109 7 351 -7 447 -51 351 -206 655 -466 915 -253 253
-534 400 -875 459 -93 16 -360 28 -430 20z m422 -54 c344 -59 612 -201 868
-460 130 -131 222 -259 299 -415 67 -135 101 -232 133 -379 19 -88 22 -132 22
-336 1 -209 -2 -247 -22 -340 -33 -150 -64 -238 -132 -375 -81 -161 -172 -287
-310 -425 -239 -239 -506 -382 -835 -447 -128 -25 -480 -25 -615 0 -554 105
-1031 516 -1219 1050 -64 182 -75 265 -75 537 0 265 10 339 69 518 166 497
611 915 1109 1043 206 53 501 65 708 29z"/>
<path d="M3040 3488 c-62 -32 -83 -65 -83 -130 0 -112 41 -172 117 -171 54 1
94 21 135 68 37 42 39 64 9 92 -54 47 -126 54 -148 13 -16 -29 -4 -40 41 -40
35 0 39 -3 39 -25 0 -42 -72 -62 -104 -29 -42 41 -31 104 24 140 69 46 150 26
223 -55 32 -36 37 -48 37 -90 0 -239 -266 -495 -548 -527 l-62 -7 0 137 0 136
119 0 c68 0 122 4 126 10 5 8 -238 310 -249 310 -1 0 -50 -56 -107 -125 -100
-120 -105 -125 -143 -125 -33 0 -37 2 -30 18 5 9 9 41 9 69 0 64 -23 92 -83
100 -102 14 -158 -67 -117 -169 6 -16 1 -18 -41 -18 l-49 1 -84 104 c-47 58
-94 114 -106 125 l-21 20 -103 -125 -104 -125 -64 0 -65 0 8 28 c10 35 7 97
-6 122 -14 25 -79 44 -124 36 -51 -10 -79 -49 -74 -106 3 -25 8 -53 12 -62 7
-16 3 -18 -31 -18 -39 0 -43 4 -143 123 -57 67 -106 122 -110 122 -12 0 -258
-299 -253 -307 2 -5 42 -8 89 -8 l84 0 -2 -607 -3 -607 -47 3 c-50 3 -101 -17
-117 -47 -9 -18 -15 -68 -12 -115 2 -44 51 -87 99 -87 38 0 39 -1 45 -40 7
-51 30 -88 65 -101 39 -15 128 -6 152 16 25 23 43 88 35 126 l-7 29 620 0 620
0 0 -53 c-1 -63 12 -91 52 -112 35 -18 109 -20 145 -3 33 15 55 56 55 103 0
34 1 35 40 35 30 0 48 7 72 29 31 28 33 34 33 95 0 58 -3 69 -28 93 -24 25
-35 28 -92 28 l-65 0 0 78 0 78 38 -6 c71 -13 157 -38 219 -66 260 -115 412
-379 347 -600 -48 -160 -148 -279 -235 -279 -32 0 -47 8 -84 43 -50 49 -59 88
-27 127 20 25 106 39 132 21 12 -8 11 -14 -9 -35 -12 -13 -38 -27 -56 -30 -19
-4 -37 -12 -41 -18 -20 -32 85 -51 135 -25 51 25 45 124 -8 152 -94 48 -221
12 -236 -68 -13 -66 60 -197 121 -217 62 -21 167 17 244 87 54 48 115 172 130
264 18 108 4 179 -65 315 -119 234 -207 301 -502 379 l-103 28 0 73 0 74 250
0 250 0 1 -27 c0 -28 2 -44 14 -136 14 -111 85 -289 141 -357 61 -72 185 -100
263 -60 50 25 77 60 96 123 24 81 20 113 -21 163 -47 57 -87 60 -141 11 -31
-29 -37 -41 -41 -88 -4 -58 10 -83 53 -91 18 -3 20 4 25 69 3 39 8 74 11 77 3
4 18 -3 32 -15 21 -16 27 -29 27 -62 0 -48 -34 -123 -62 -138 -30 -16 -91 -5
-142 25 -39 23 -48 35 -85 123 -32 77 -43 119 -51 196 -12 118 -24 261 -25
302 l0 30 108 3 107 3 0 -105 c0 -85 -3 -105 -16 -110 -10 -4 -14 -15 -12 -33
3 -27 5 -28 68 -31 83 -4 138 17 185 70 66 73 80 117 80 253 0 109 -2 125 -27
177 -19 41 -38 65 -69 85 -39 26 -50 28 -138 28 l-96 0 -3 -28 c-2 -18 2 -29
12 -33 13 -5 16 -24 16 -105 l0 -99 -110 0 -111 0 6 63 c22 228 52 360 101
444 35 60 68 83 121 83 38 0 50 -5 79 -34 19 -19 34 -44 34 -55 0 -39 -80 -95
-109 -76 -6 3 -11 23 -11 44 0 20 -6 46 -14 57 -15 19 -15 19 -37 -3 -36 -36
-24 -109 22 -134 28 -14 99 -15 126 -1 30 16 63 90 63 141 0 56 -37 94 -113
116 -68 20 -120 9 -159 -32 -47 -51 -148 -288 -163 -383 -13 -88 15 -80 -276
-80 l-259 0 0 58 0 59 86 21 c232 57 488 242 566 408 42 89 49 194 19 258 -25
51 -111 134 -164 159 -51 24 -133 22 -187 -5z m-1849 -340 c71 -83 73 -78 -45
-78 -58 0 -106 4 -106 9 0 11 90 121 99 121 4 0 27 -24 52 -52z m814 -8 c25
-30 45 -58 45 -62 0 -5 -47 -8 -105 -8 -58 0 -105 3 -105 6 0 11 104 124 112
122 4 -2 28 -28 53 -58z m768 1 c26 -32 47 -61 47 -65 0 -3 -47 -6 -105 -6
-58 0 -105 3 -105 6 0 9 101 124 108 124 4 0 28 -27 55 -59z m-1225 10 c5 -31
-11 -45 -42 -37 -19 5 -26 13 -26 30 0 30 9 38 40 34 18 -2 26 -10 28 -27z
m829 13 c9 -24 -10 -49 -38 -49 -20 0 -25 6 -27 33 -3 30 -1 32 28 32 19 0 33
-6 37 -16z m-457 -329 l0 -165 -148 0 -149 0 -67 85 c-37 47 -71 85 -76 85
-20 0 -29 -33 -40 -143 -13 -126 -10 -225 8 -270 11 -27 13 -27 41 -12 17 8
54 51 86 100 l57 85 144 0 144 0 0 -355 c0 -240 -3 -355 -10 -355 -6 0 -22
-11 -35 -25 -20 -19 -25 -34 -25 -72 0 -60 20 -89 69 -103 86 -23 144 17 145
101 1 47 -2 54 -37 84 l-37 32 2 344 3 344 156 3 155 2 38 -96 c27 -67 45 -98
60 -104 11 -4 24 -5 27 -1 8 7 26 136 35 249 7 92 -6 160 -37 188 -23 21 -25
19 -63 -59 -26 -51 -39 -66 -76 -85 -41 -20 -57 -22 -170 -20 l-125 3 -3 163
-2 162 330 0 330 0 0 -675 0 -675 -760 0 -760 0 0 675 0 675 395 0 395 0 0
-165z m1780 -285 c38 -27 61 -90 67 -186 10 -141 -35 -234 -121 -254 l-36 -8
0 240 0 241 31 -7 c17 -3 43 -15 59 -26z m-470 -112 c0 -7 -3 -23 -6 -35 l-6
-23 -249 0 -249 0 0 35 0 35 255 0 c197 0 255 -3 255 -12z m-10 -168 l0 -40
-250 0 -250 0 0 33 c0 19 3 37 7 40 3 4 116 7 250 7 l243 0 0 -40z m-1235
-475 c0 -27 -3 -30 -30 -30 -24 0 -31 5 -33 24 -4 27 13 42 43 39 15 -2 20
-11 20 -33z m-945 -95 c38 -38 18 -90 -33 -90 -42 0 -57 15 -57 57 0 51 52 71
90 33z m1771 10 c22 -12 27 -68 7 -88 -21 -21 -66 -14 -83 12 -34 51 20 105
76 76z m-1618 -160 c18 -26 10 -68 -15 -81 -51 -27 -104 29 -73 77 20 31 68
32 88 4z m1487 1 c32 -61 -37 -123 -84 -75 -19 18 -21 65 -4 82 20 20 76 15
88 -7z"/>
<path d="M1380 2223 c-43 -17 -43 -26 -1 -63 38 -32 42 -40 48 -99 6 -59 5
-64 -11 -58 -10 4 -25 7 -34 7 -9 0 -39 25 -68 56 -32 36 -57 55 -66 51 -26
-10 -39 -248 -15 -281 21 -29 64 -6 77 43 5 21 17 42 26 45 23 9 94 7 94 -2 0
-34 -35 -115 -60 -139 -17 -15 -30 -35 -30 -43 0 -33 23 -40 122 -40 90 0 98
2 109 22 10 19 8 25 -25 52 -34 29 -36 35 -36 89 l0 57 53 0 c54 0 54 0 70
-40 16 -41 59 -72 77 -54 5 5 14 42 20 81 13 82 -1 180 -26 190 -8 3 -32 -11
-55 -31 -43 -40 -77 -56 -115 -56 -22 0 -24 4 -24 44 0 40 4 47 48 84 47 41
47 41 27 60 -16 16 -39 21 -105 26 -47 3 -92 2 -100 -1z"/>
<path d="M2270 2202 c-44 -9 -50 -35 -17 -70 32 -36 47 -65 47 -96 0 -45 -55
-32 -116 26 -18 17 -40 28 -50 26 -17 -3 -19 -14 -19 -118 0 -108 1 -115 20
-115 12 0 29 14 43 35 22 34 24 36 70 30 44 -5 47 -7 50 -37 3 -26 -5 -41 -38
-77 -65 -71 -57 -80 74 -84 66 -2 113 1 120 8 7 7 -3 23 -31 53 -28 28 -42 52
-43 72 -4 63 -3 65 43 65 53 0 61 -6 81 -53 30 -74 53 -32 55 99 1 64 -3 84
-15 95 -14 11 -19 10 -35 -11 -36 -47 -40 -50 -69 -50 -52 0 -60 8 -60 61 0
43 3 50 28 63 78 40 61 76 -39 81 -35 2 -80 0 -99 -3z"/>
<path d="M3864 3395 c-4 -8 -1 -22 6 -30 10 -12 7 -20 -19 -44 -61 -57 -151
-87 -179 -59 -8 8 -15 9 -22 2 -12 -12 76 -147 93 -141 7 2 11 20 9 44 -2 35
1 41 25 52 24 11 29 10 41 -6 15 -20 12 -47 -12 -110 -30 -80 5 -138 78 -131
47 4 48 19 2 41 -20 10 -39 24 -42 32 -4 8 4 38 16 68 21 51 23 52 59 49 24
-2 41 1 49 11 34 40 16 164 -28 209 -31 31 -67 37 -76 13z m84 -144 c-3 -22
-9 -26 -40 -29 -28 -2 -39 1 -47 17 -9 16 -6 24 21 45 30 23 34 24 51 9 10
-10 17 -27 15 -42z"/>
<path d="M579 3393 c-1 -5 0 -18 1 -30 1 -13 -7 -26 -19 -33 -28 -15 -42 -43
-48 -101 -5 -44 -2 -51 25 -79 44 -43 88 -44 142 -1 64 51 98 61 130 41 21
-13 -11 -45 -82 -81 -32 -16 -58 -34 -58 -39 0 -5 17 -18 38 -29 l37 -19 44
50 c142 159 88 245 -106 168 -41 -17 -79 -28 -84 -24 -5 3 -9 23 -9 45 0 37 2
39 31 39 40 0 68 16 65 37 -4 28 -104 79 -107 56z"/>
<path d="M696 1468 c-2 -7 -9 -33 -16 -57 -6 -25 -32 -80 -57 -122 -34 -59
-45 -88 -46 -126 l-2 -48 56 2 c31 1 91 13 134 28 67 22 82 24 112 14 56 -18
60 0 16 77 -46 81 -69 90 -65 26 3 -43 2 -43 -30 -40 -24 2 -38 12 -55 37 -30
44 -29 61 3 61 29 0 64 16 64 30 0 5 -19 36 -42 69 -40 59 -65 75 -72 49z m20
-280 c-6 -4 -26 -8 -45 -8 -31 0 -33 2 -26 28 3 15 13 38 22 51 l15 24 23 -44
c15 -30 19 -46 11 -51z"/>
<path d="M3690 1331 c-34 -9 -79 -79 -86 -133 -4 -33 0 -51 15 -75 25 -40 110
-89 179 -104 63 -13 74 -6 114 69 23 42 25 53 18 103 -10 68 -20 89 -61 123
-26 22 -40 26 -92 25 -34 -1 -73 -4 -87 -8z m68 -45 c44 -23 102 -113 102
-160 0 -24 -32 -56 -56 -56 -20 0 -102 60 -128 95 l-27 35 21 39 c16 33 42 59
58 61 2 0 15 -6 30 -14z"/>
<path d="M2195 548 c-15 -12 -35 -35 -45 -51 -16 -26 -17 -34 -5 -66 9 -27 10
-49 2 -87 -13 -66 -7 -81 47 -105 38 -16 57 -18 131 -13 47 4 88 11 91 16 3 5
-2 18 -12 30 -15 16 -19 41 -22 129 l-4 109 26 0 c34 0 46 28 21 46 -13 10
-49 14 -111 14 -78 0 -95 -3 -119 -22z m105 -73 c0 -29 -5 -37 -27 -46 -38
-14 -73 3 -73 35 0 20 7 27 33 35 59 17 67 14 67 -24z m7 -141 c8 -21 -15 -42
-53 -50 -26 -5 -32 -2 -42 21 -16 34 -16 33 11 38 50 10 78 7 84 -9z"/>
</g>
</svg>
