<?xml version="1.0" standalone="no"?>
<!DOCTYPE svg PUBLIC "-//W3C//DTD SVG 20010904//EN"
 "http://www.w3.org/TR/2001/REC-SVG-20010904/DTD/svg10.dtd">
<svg version="1.0" xmlns="http://www.w3.org/2000/svg"
 width="439.765870pt" height="439.054119pt" viewBox="0 0 439.765870 439.054119"
 preserveAspectRatio="xMidYMid meet">
<metadata>
Created by potrace 1.16, written by Peter Selinger 2001-2019
</metadata>
<g transform="translate(-5.019252,445.541963) scale(0.100000,-0.100000)"
fill="#000000" stroke="none">
<path d="M2033 4450 c-541 -53 -1008 -281 -1380 -674 -401 -424 -603 -931
-603 -1516 0 -589 202 -1096 604 -1518 352 -368 756 -580 1256 -658 161 -25
519 -25 680 -1 495 78 913 297 1258 662 386 407 576 867 598 1442 24 626 -198
1185 -646 1633 -351 350 -771 558 -1250 620 -117 15 -406 21 -517 10z m541
-86 c365 -51 693 -194 996 -434 97 -78 304 -286 372 -375 296 -389 431 -792
432 -1290 0 -211 -10 -308 -51 -494 -132 -604 -571 -1151 -1148 -1431 -199
-97 -371 -150 -600 -186 -152 -24 -498 -24 -650 0 -236 37 -397 87 -600 186
-228 111 -399 234 -584 419 -181 181 -301 349 -411 576 -146 297 -204 564
-204 925 0 266 28 454 100 675 216 657 795 1205 1457 1380 274 73 593 90 891
49z"/>
<path d="M2030 4339 c-412 -42 -799 -203 -1105 -461 -505 -424 -763 -972 -763
-1618 0 -567 188 -1037 573 -1439 400 -417 856 -623 1430 -648 508 -21 981
129 1369 434 92 73 297 278 370 371 81 103 177 256 235 377 268 555 265 1276
-9 1827 -272 546 -800 975 -1365 1106 -217 51 -526 72 -735 51z m607 -59 c402
-72 754 -260 1063 -570 329 -328 519 -703 585 -1151 20 -138 20 -441 0 -591
-56 -427 -238 -802 -541 -1118 -347 -361 -735 -561 -1214 -626 -123 -16 -396
-18 -525 -4 -484 54 -891 259 -1246 627 -309 320 -493 704 -549 1143 -13 109
-13 430 0 538 58 453 239 827 564 1161 387 396 835 599 1371 620 189 7 339 -2
492 -29z"/>
<path d="M2294 4276 c-4 -11 -20 -16 -53 -16 -57 0 -81 -21 -105 -93 -38 -112
-12 -166 87 -187 83 -17 100 -12 115 33 6 22 22 47 35 57 35 29 11 41 -74 38
-66 -3 -74 -5 -74 -23 0 -14 8 -21 30 -25 36 -6 46 -35 15 -45 -53 -17 -110
22 -110 75 0 70 83 123 120 77 26 -31 40 -12 40 53 0 57 -14 87 -26 56z"/>
<path d="M2110 3903 c-247 -24 -398 -66 -605 -169 -147 -72 -269 -159 -398
-283 -285 -274 -444 -590 -492 -974 -67 -544 105 -1037 492 -1408 139 -132
255 -215 414 -293 216 -107 423 -156 684 -161 227 -5 386 17 580 80 460 150
878 569 1029 1030 110 338 112 715 4 1055 -150 474 -574 898 -1048 1048 -207
66 -462 95 -660 75z m476 -62 c318 -65 571 -205 814 -451 312 -314 463 -685
461 -1133 -1 -356 -93 -652 -285 -921 -253 -353 -612 -586 -1021 -662 -153
-29 -480 -27 -632 4 -155 31 -247 63 -398 137 -164 81 -307 188 -448 335 -228
237 -365 507 -419 825 -27 161 -22 488 10 632 124 549 537 1011 1062 1187 246
82 592 101 856 47z"/>
<path d="M1143 3389 c-18 -5 -39 -19 -48 -31 -15 -22 -21 -102 -9 -133 9 -21
56 -45 91 -45 27 0 37 -14 140 -192 l111 -193 -44 -7 c-60 -9 -105 -37 -127
-78 -15 -28 -17 -51 -14 -117 8 -147 64 -208 183 -200 100 7 139 48 139 143 0
42 -5 58 -25 79 -29 32 -71 55 -98 55 -31 0 -71 -38 -83 -81 -11 -34 -10 -42
3 -56 23 -23 64 -9 83 27 9 17 19 30 24 30 10 0 36 -30 44 -51 22 -62 -119
-97 -173 -43 -21 21 -25 33 -23 79 1 29 9 67 17 84 30 57 44 61 233 61 l173 0
0 -310 0 -309 -32 -5 c-18 -3 -53 -8 -78 -11 -193 -26 -309 -197 -312 -458 -1
-160 41 -258 160 -367 68 -62 72 -69 54 -79 -53 -28 -68 -152 -25 -209 43 -59
166 -66 224 -14 22 19 32 39 36 70 3 23 8 42 10 42 3 0 45 -14 95 -30 95 -32
235 -60 299 -60 35 0 39 -3 39 -24 0 -15 -7 -27 -18 -30 -55 -18 -85 -100 -62
-170 16 -50 49 -69 120 -70 52 -1 63 3 89 28 58 56 48 166 -19 204 -18 10 -30
25 -30 38 0 19 7 22 73 28 84 7 218 38 295 66 61 23 72 20 72 -20 0 -40 43
-87 91 -100 50 -14 122 -4 153 21 57 45 60 158 7 213 l-32 33 60 51 c69 60
124 140 152 220 18 49 20 74 16 182 -5 126 -18 183 -57 259 -46 92 -149 162
-255 176 -27 3 -62 9 -77 11 l-28 6 0 309 0 309 168 0 c187 0 207 -6 234 -60
24 -46 24 -131 1 -159 -34 -42 -121 -44 -164 -5 -25 23 -24 37 6 71 25 27 26
27 38 9 24 -38 49 -57 69 -54 38 6 43 31 18 82 -38 80 -93 86 -162 17 -32 -33
-38 -45 -38 -82 0 -92 59 -149 155 -149 104 0 159 62 172 193 11 122 -36 189
-142 205 l-44 7 111 193 c110 191 110 192 145 192 50 0 93 45 93 99 0 82 -28
112 -107 114 -83 1 -132 -69 -100 -145 l15 -35 -84 -144 c-47 -79 -94 -163
-106 -187 -12 -23 -25 -41 -29 -40 -4 2 -51 56 -104 121 l-97 118 -25 -23
c-14 -13 -48 -51 -76 -85 -28 -35 -54 -63 -58 -63 -4 0 -33 32 -64 70 l-58 71
-31 -38 c-17 -21 -45 -53 -62 -72 l-31 -34 -72 87 c-40 47 -76 86 -80 86 -3 0
-37 -38 -75 -85 -39 -47 -73 -85 -77 -85 -4 0 -31 29 -59 65 -28 36 -55 65
-58 65 -4 0 -34 -30 -68 -66 l-60 -67 -74 87 c-40 48 -76 85 -80 84 -4 -2 -51
-55 -105 -118 -54 -63 -100 -116 -104 -118 -3 -1 -54 82 -113 184 l-106 186
15 36 c38 90 -44 170 -144 141z m77 -105 c0 -28 -25 -42 -49 -27 -23 15 -26
45 -6 59 25 18 55 0 55 -32z m2125 1 c0 -27 -3 -30 -30 -30 -21 0 -31 5 -33
18 -6 33 6 49 35 45 24 -3 28 -8 28 -33z m-1556 -461 l-35 -35 -112 3 -112 3
86 102 85 103 61 -71 61 -71 -34 -34z m524 104 c26 -31 47 -63 47 -70 0 -8
-13 -26 -28 -41 -24 -23 -37 -27 -85 -27 -52 0 -58 2 -82 35 -16 21 -24 39
-19 47 21 35 108 128 114 121 3 -5 27 -33 53 -65z m580 -35 c42 -50 77 -94 77
-97 0 -3 -51 -6 -114 -6 l-114 0 -26 35 c-16 20 -24 40 -20 48 21 34 108 127
114 120 4 -5 41 -49 83 -100z m-869 17 l38 -49 -27 -36 c-36 -47 -70 -47 -114
-1 l-34 35 43 50 c23 28 45 51 49 51 4 0 24 -22 45 -50z m557 -12 l31 -38 -29
-34 c-37 -46 -69 -46 -112 -2 l-34 35 43 51 c47 56 47 56 101 -12z m-711 -98
c0 -5 -7 -10 -15 -10 -8 0 -15 5 -15 10 0 6 7 10 15 10 8 0 15 -4 15 -10z
m245 0 c3 -5 -3 -10 -15 -10 -12 0 -18 5 -15 10 3 6 10 10 15 10 5 0 12 -4 15
-10z m305 0 c0 -5 -7 -10 -15 -10 -8 0 -15 5 -15 10 0 6 7 10 15 10 8 0 15 -4
15 -10z m245 0 c3 -5 -3 -10 -15 -10 -12 0 -18 5 -15 10 3 6 10 10 15 10 5 0
12 -4 15 -10z m25 -398 l0 -319 -39 -11 c-56 -17 -107 -77 -120 -144 -13 -60
-3 -133 23 -172 47 -73 204 -85 255 -19 16 19 21 40 21 85 0 52 -3 63 -29 89
-57 56 -143 37 -154 -34 -9 -57 37 -79 67 -32 14 21 20 24 36 15 24 -13 27
-62 6 -79 -20 -16 -88 -16 -114 0 -45 28 -57 120 -22 176 31 52 70 66 170 61
142 -7 228 -62 279 -180 49 -112 54 -294 10 -382 -95 -193 -410 -367 -726
-401 l-63 -7 0 586 0 586 60 0 c65 0 116 -16 139 -44 8 -9 20 -38 26 -64 12
-44 14 -47 46 -47 l34 0 0 195 0 195 -35 0 c-32 0 -35 -3 -41 -37 -13 -82 -65
-118 -169 -118 l-60 0 0 100 c0 137 23 178 112 204 38 12 43 17 43 42 l0 29
-195 0 -195 0 0 -29 c0 -25 5 -30 43 -42 89 -26 112 -67 112 -204 l0 -100 -67
0 c-102 0 -148 35 -163 120 -5 32 -8 35 -40 35 l-35 0 0 -195 0 -195 23 -3
c29 -4 52 14 52 42 0 35 38 86 75 102 19 8 62 14 95 14 l60 0 0 -586 0 -586
-62 7 c-259 29 -506 140 -649 291 -93 99 -121 187 -107 335 14 145 71 248 167
302 46 26 65 31 150 34 84 4 100 2 129 -17 65 -41 83 -146 34 -201 -23 -26
-35 -31 -71 -31 -54 1 -73 16 -69 56 4 38 33 47 55 16 9 -13 23 -20 36 -18 17
2 23 11 25 39 6 72 -54 102 -127 65 -40 -21 -53 -48 -53 -107 0 -89 59 -137
155 -125 65 7 108 33 131 79 21 45 25 135 7 189 -14 43 -80 104 -122 113 l-29
7 0 319 0 319 440 0 440 0 0 -318z m-1015 -1287 c59 -58 -2 -145 -79 -115 -48
18 -59 86 -20 124 23 24 71 20 99 -9z m1242 17 c18 -12 30 -54 24 -87 -16 -79
-141 -61 -141 21 0 53 73 94 117 66z m-644 -271 c31 -12 41 -40 27 -75 -9 -24
-14 -27 -52 -24 -43 3 -43 3 -46 46 -3 42 0 46 45 61 1 1 13 -3 26 -8z"/>
<path d="M772 3650 c-18 -11 -37 -30 -41 -43 -10 -26 3 -57 24 -57 10 0 15
-10 15 -27 0 -41 -14 -56 -54 -60 -30 -3 -36 0 -36 16 0 11 -4 22 -8 25 -15 9
-61 -48 -68 -82 -9 -43 12 -50 66 -22 34 17 51 20 96 14 65 -8 80 -21 95 -80
6 -24 14 -46 18 -48 3 -2 33 20 66 49 51 46 57 55 46 69 -7 9 -23 16 -34 16
-36 0 -97 23 -121 45 -22 20 -23 28 -19 100 2 43 5 83 6 88 4 18 -18 17 -51
-3z"/>
<path d="M3634 3574 c-44 -66 -71 -86 -138 -99 -27 -5 -51 -15 -53 -21 -2 -7
16 -25 40 -42 l45 -30 36 30 36 30 -1 -64 c-2 -79 20 -135 55 -144 40 -10 49
3 27 39 -11 18 -23 55 -26 83 l-7 51 51 5 c61 6 98 35 107 85 6 32 2 39 -42
84 -64 65 -83 64 -130 -7z m94 -40 c48 -33 13 -95 -43 -74 -36 14 -42 37 -15
66 28 28 29 29 58 8z"/>
<path d="M3964 2105 c-4 -9 -17 -64 -29 -123 -25 -116 -23 -122 26 -148 37
-19 44 -4 20 43 -17 34 -18 42 -6 71 12 26 20 32 45 32 36 0 41 -27 10 -55
-11 -10 -20 -22 -20 -27 0 -13 70 -40 86 -34 16 6 19 52 4 61 -22 14 3 35 42
35 l41 0 -7 -37 c-3 -21 -6 -43 -6 -50 0 -7 -16 -15 -35 -19 -70 -13 -64 -64
7 -64 28 0 41 6 52 23 24 37 47 133 44 184 -3 45 -5 48 -28 44 -47 -7 -151 -1
-170 9 -11 6 -27 24 -35 40 -17 33 -32 38 -41 15z"/>
<path d="M487 2073 c-4 -3 -7 -15 -7 -25 0 -15 -42 -112 -55 -126 -2 -2 -18 6
-36 17 -44 27 -65 26 -94 -3 -41 -41 -42 -99 -4 -197 47 -122 70 -139 84 -61
l6 39 112 34 112 35 -2 33 c-2 48 -13 54 -67 39 -40 -11 -48 -10 -56 2 -17 26
-11 65 14 99 32 43 50 87 42 106 -5 15 -37 21 -49 8z m-67 -231 l23 -18 -54
-22 c-41 -18 -54 -20 -61 -10 -9 16 -10 52 -1 61 13 14 71 7 93 -11z"/>
<path d="M1184 865 c-100 -30 -154 -74 -154 -126 0 -31 52 -139 80 -164 10 -9
40 -20 64 -22 39 -5 51 -1 82 22 57 44 74 106 58 207 -5 28 -16 43 -48 65 -39
28 -43 29 -82 18z m59 -92 c9 -5 -2 -79 -19 -120 -10 -25 -19 -33 -38 -33 -62
0 -103 41 -85 87 26 68 87 97 142 66z"/>
<path d="M3205 819 c-11 -7 -35 -25 -52 -42 -24 -23 -30 -34 -22 -43 8 -10 16
-10 35 -2 32 15 56 -6 48 -40 -5 -19 -13 -22 -50 -22 -49 0 -57 -10 -69 -82
-7 -43 -14 -46 -39 -19 -14 15 -16 29 -11 64 9 56 -3 64 -60 43 -55 -22 -72
-40 -55 -61 7 -8 20 -15 29 -15 10 0 31 -28 53 -71 36 -67 37 -71 21 -95 -28
-43 -2 -49 53 -12 49 33 49 33 57 103 5 39 10 71 12 73 1 2 48 -6 104 -18
l102 -21 32 27 c31 26 42 51 22 47 -5 -1 -26 -4 -46 -8 -35 -6 -36 -6 -68 54
-17 33 -35 80 -39 103 -8 46 -23 55 -57 37z"/>
</g>
</svg>
