<?xml version="1.0" standalone="no"?>
<!DOCTYPE svg PUBLIC "-//W3C//DTD SVG 20010904//EN"
 "http://www.w3.org/TR/2001/REC-SVG-20010904/DTD/svg10.dtd">
<svg version="1.0" xmlns="http://www.w3.org/2000/svg"
 width="439.526801pt" height="439.679949pt" viewBox="0 0 439.526801 439.679949"
 preserveAspectRatio="xMidYMid meet">
<metadata>
Created by potrace 1.16, written by Peter Selinger 2001-2019
</metadata>
<g transform="translate(-5.116833,444.821631) scale(0.100000,-0.100000)"
fill="#000000" stroke="none">
<path d="M2025 4439 c-366 -35 -682 -146 -980 -344 -386 -256 -692 -630 -849
-1035 -145 -378 -184 -834 -105 -1250 78 -409 262 -762 561 -1076 417 -436
908 -657 1514 -681 569 -22 1082 152 1502 511 502 431 763 977 778 1631 14
630 -198 1166 -636 1605 -320 320 -691 523 -1105 604 -219 42 -467 55 -680 35z
m549 -85 c295 -41 579 -148 831 -314 143 -95 233 -170 371 -311 335 -344 522
-726 585 -1199 18 -137 16 -449 -5 -593 -65 -455 -262 -848 -590 -1179 -342
-345 -728 -543 -1196 -614 -158 -24 -482 -24 -640 -1 -463 71 -854 269 -1185
602 -341 343 -529 715 -601 1185 -24 158 -25 482 -1 640 71 467 274 861 617
1199 376 370 813 565 1355 605 89 7 347 -5 459 -20z"/>
<path d="M2045 4329 c-526 -53 -940 -255 -1310 -641 -297 -309 -481 -674 -545
-1078 -6 -41 -14 -86 -16 -100 -13 -71 -16 -347 -5 -460 47 -489 229 -888 566
-1239 473 -493 1087 -714 1765 -635 489 56 875 245 1230 603 144 145 214 231
305 376 387 614 405 1479 43 2116 -185 328 -496 635 -824 817 -351 194 -795
283 -1209 241z m391 -33 c359 -24 730 -164 1026 -386 471 -354 758 -840 828
-1400 15 -124 12 -421 -5 -553 -60 -457 -266 -856 -614 -1190 -338 -323 -724
-506 -1176 -557 -129 -14 -402 -12 -525 4 -478 65 -864 263 -1211 622 -310
321 -495 708 -549 1148 -16 134 -13 445 5 573 66 439 242 795 555 1117 287
296 586 473 959 567 223 57 433 73 707 55z"/>
<path d="M2186 4280 c-68 -21 -100 -77 -100 -180 -1 -56 4 -83 17 -103 22 -34
85 -66 149 -76 46 -8 52 -6 92 25 55 41 71 81 71 171 0 85 -17 116 -85 151
-45 23 -93 27 -144 12z m128 -80 c6 -6 13 -47 15 -91 3 -87 -7 -111 -57 -130
-29 -11 -86 11 -101 39 -27 51 -5 166 36 192 21 12 91 6 107 -10z"/>
<path d="M2070 3890 c-394 -41 -732 -207 -1012 -498 -136 -141 -226 -271 -307
-444 -149 -314 -189 -711 -110 -1077 120 -553 577 -1042 1120 -1200 155 -46
266 -62 444 -66 171 -4 263 4 409 34 382 80 720 304 978 649 397 530 408 1345
25 1889 -268 380 -652 628 -1082 698 -113 19 -353 26 -465 15z m521 -59 c142
-31 240 -65 374 -132 161 -79 286 -171 425 -309 234 -234 372 -485 443 -805
19 -87 22 -129 22 -335 0 -208 -3 -247 -23 -340 -32 -147 -64 -236 -133 -375
-79 -161 -171 -286 -309 -425 -244 -243 -505 -383 -835 -446 -128 -25 -408
-30 -545 -10 -369 53 -668 209 -933 486 -227 237 -364 507 -418 821 -19 108
-21 151 -16 334 6 230 20 318 78 488 167 487 612 903 1100 1027 162 42 242 49
464 46 165 -3 231 -9 306 -25z"/>
<path d="M2104 3516 c-11 -29 1 -50 33 -58 58 -15 73 -47 73 -159 l0 -99 -440
0 -440 0 0 25 c0 66 -49 105 -132 105 -84 0 -124 -49 -116 -140 5 -46 3 -50
-23 -59 -15 -5 -46 -26 -69 -47 -73 -66 -88 -122 -46 -170 l23 -28 -31 -21
c-38 -26 -47 -72 -18 -99 17 -14 18 -22 9 -46 -8 -21 -8 -35 1 -55 10 -21 9
-30 -2 -48 -19 -31 -27 -70 -17 -86 6 -8 1 -30 -11 -57 -16 -38 -17 -49 -7
-78 10 -28 9 -37 -4 -57 -24 -33 -22 -88 5 -116 l21 -23 -22 -24 c-33 -35 -38
-85 -11 -119 12 -15 28 -27 37 -27 11 0 6 -10 -16 -35 -36 -41 -39 -72 -11
-108 l21 -26 -30 -16 c-54 -27 -65 -76 -32 -132 19 -31 19 -32 1 -69 -22 -43
-18 -80 12 -106 11 -10 29 -18 40 -18 15 0 18 -4 13 -17 -19 -46 -17 -63 13
-93 17 -16 37 -30 44 -30 10 0 12 -11 10 -40 -4 -35 0 -44 31 -75 19 -19 42
-35 50 -35 9 0 16 -14 20 -41 3 -23 14 -51 25 -61 41 -42 141 -41 186 1 21 20
33 21 288 21 l266 0 197 -235 c108 -129 200 -235 205 -235 4 0 96 106 205 235
l196 235 266 0 265 0 30 -25 c29 -24 51 -29 113 -25 69 5 100 52 92 139 -3 38
0 65 10 85 8 16 13 44 11 64 -3 27 1 40 20 59 22 22 24 31 19 75 -4 32 -14 60
-27 73 l-21 23 26 6 c46 12 52 85 12 140 -12 17 -11 22 16 46 38 34 42 94 11
137 l-22 29 39 33 c53 44 51 79 -10 145 -19 21 -23 30 -12 34 7 2 22 13 32 23
17 17 17 22 4 66 -19 62 -19 71 3 69 14 -1 17 7 16 39 0 23 -8 56 -17 75 -15
30 -15 35 -2 50 21 23 18 80 -5 110 -25 32 -25 35 5 48 36 17 34 62 -6 107
-17 19 -26 35 -20 35 6 0 19 16 28 35 13 28 14 39 5 60 -10 22 -9 30 7 51 16
21 18 30 9 62 -16 59 -34 87 -83 130 -38 34 -45 45 -45 77 0 29 -8 45 -34 71
-28 28 -41 34 -79 34 -88 0 -137 -37 -137 -105 l0 -25 -440 0 -440 0 0 98 c0
111 10 135 67 158 29 12 34 19 31 42 l-3 27 -138 3 c-113 2 -138 0 -143 -12z
m-860 -272 c19 -18 21 -65 4 -82 -17 -17 -64 -15 -82 4 -34 34 -9 94 39 94 13
0 31 -7 39 -16z m2090 0 c23 -22 20 -71 -3 -84 -31 -16 -69 -12 -81 9 -23 45
-1 91 45 91 13 0 31 -7 39 -16z m-1124 -339 c0 -164 -3 -225 -12 -225 -6 0
-26 -11 -43 -25 -43 -32 -59 -92 -42 -160 16 -66 58 -95 134 -95 99 0 143 44
143 142 0 64 -24 109 -69 128 l-31 12 0 224 0 224 422 0 423 0 -443 -442 -442
-443 -442 443 -443 442 423 0 422 0 0 -225z m1239 150 c38 -44 40 -65 5 -65
-28 0 -64 -16 -64 -29 0 -5 23 -23 50 -41 28 -18 50 -37 50 -44 0 -25 -17 -37
-43 -31 -38 10 -49 -21 -16 -47 56 -43 69 -58 69 -77 0 -17 -6 -21 -35 -21
-51 0 -54 -22 -12 -69 19 -21 38 -49 42 -61 10 -30 -7 -45 -35 -30 -41 22 -40
-5 1 -53 51 -59 51 -93 1 -89 -45 3 -48 -14 -12 -83 16 -33 30 -63 30 -67 0
-4 -17 -6 -37 -5 -36 2 -38 0 -36 -26 1 -16 17 -45 37 -67 37 -41 53 -81 41
-100 -4 -7 -28 -10 -57 -9 -73 4 -76 -12 -22 -95 24 -38 44 -74 44 -81 0 -6
-17 -16 -37 -21 -52 -13 -53 -36 -3 -85 53 -53 52 -80 -5 -92 -22 -5 -46 -10
-53 -13 -9 -3 2 -22 32 -56 56 -64 61 -101 17 -116 -27 -10 -29 -13 -24 -51 3
-22 3 -51 -1 -65 -6 -25 -9 -26 -61 -20 -45 6 -60 3 -91 -15 l-38 -22 -425
425 -426 426 247 0 246 0 4 -51 c4 -61 -9 -87 -53 -108 -22 -10 -34 -23 -34
-36 0 -19 7 -20 125 -20 118 0 125 1 125 20 0 11 -11 25 -25 32 -44 22 -60 51
-60 109 l0 54 73 0 73 0 17 -35 c26 -55 70 -77 144 -73 71 4 105 27 124 86 14
43 7 114 -16 148 -23 36 -79 57 -137 52 -58 -6 -94 -29 -115 -73 l-17 -35 -73
0 -73 0 0 50 c0 65 14 94 57 114 23 11 33 22 31 34 -3 15 -18 17 -128 17 -111
0 -125 -2 -128 -17 -2 -12 6 -22 25 -30 55 -23 63 -36 63 -105 l0 -63 -247 0
-248 0 437 437 c410 410 438 436 460 426 43 -21 73 -22 113 -4 46 21 59 17
104 -34z m-1727 -382 c236 -236 428 -431 428 -435 0 -5 -110 -8 -245 -8 l-245
0 0 48 c0 62 17 93 63 115 26 12 37 23 35 35 -3 15 -18 17 -128 17 -110 0
-125 -2 -128 -17 -2 -12 8 -23 31 -34 43 -20 57 -49 57 -114 l0 -50 -75 0 -75
0 -14 34 c-18 43 -54 67 -110 73 -55 7 -110 -11 -135 -43 -26 -33 -37 -106
-22 -153 18 -60 51 -85 124 -89 75 -4 120 19 143 73 l14 35 75 0 75 0 0 -54
c0 -58 -16 -87 -60 -109 -14 -7 -25 -21 -25 -32 0 -19 8 -20 123 -23 103 -2
123 0 128 13 8 19 -13 45 -36 45 -31 0 -52 36 -57 99 l-6 61 254 0 254 0 -426
-426 -426 -426 -34 21 c-57 35 -156 21 -173 -25 -6 -15 -9 -14 -32 7 -20 19
-25 32 -22 63 2 39 2 40 -47 56 -56 19 -66 40 -41 88 17 33 13 42 -20 42 -25
0 -54 24 -54 45 0 8 13 29 29 48 l30 33 -30 26 c-55 49 -32 106 56 135 22 7
30 16 30 34 0 19 -7 26 -37 33 -21 5 -38 14 -38 18 0 18 23 54 57 90 20 20 32
41 29 47 -4 6 -27 11 -50 11 -79 0 -90 64 -17 93 40 16 75 53 65 69 -3 4 -20
8 -38 8 -39 0 -56 15 -56 52 0 22 10 36 50 64 51 37 59 61 14 44 -41 -16 -54
-12 -54 16 0 26 28 59 85 100 23 17 27 25 19 34 -9 9 -19 8 -43 -5 -37 -18
-51 -13 -51 20 0 17 13 31 49 54 78 48 90 91 21 76 -17 -4 -30 -3 -30 2 0 5
21 32 46 61 51 58 45 72 -22 53 -21 -6 -40 -8 -43 -5 -3 4 20 30 52 59 62 57
69 81 17 63 -32 -11 -60 -5 -60 11 0 22 65 82 116 107 38 19 64 25 87 21 17
-2 48 1 67 8 19 7 39 13 45 14 5 0 202 -191 437 -426z m585 -80 c22 -29 16
-90 -9 -107 -47 -33 -113 -12 -118 39 -4 39 0 55 21 76 17 17 29 20 58 15 20
-3 42 -13 48 -23z m-950 -350 c7 -9 13 -32 13 -50 0 -93 -128 -98 -146 -6 -5
26 -1 37 21 59 22 22 32 25 63 20 20 -3 43 -13 49 -23z m1894 8 c52 -42 17
-131 -52 -131 -40 0 -69 32 -69 75 0 66 69 98 121 56z m-1041 -386 l0 -235
-67 0 c-101 0 -154 41 -166 126 -3 21 -9 29 -23 29 -16 0 -21 -12 -30 -65 -7
-36 -12 -94 -12 -130 0 -36 5 -94 12 -130 9 -54 14 -65 31 -65 15 0 21 9 25
35 15 85 61 120 163 120 l67 0 0 -57 c0 -40 -6 -68 -20 -91 -18 -30 -34 -40
-113 -71 -16 -6 -27 -17 -25 -23 8 -22 62 -30 198 -30 141 0 195 9 195 32 0 8
-13 18 -30 23 -90 27 -125 70 -125 158 l0 59 68 0 c50 0 76 -5 100 -20 33 -20
62 -71 62 -109 0 -27 19 -37 36 -19 33 33 33 343 0 376 -17 18 -36 8 -36 -19
0 -38 -29 -89 -62 -109 -24 -15 -50 -20 -100 -20 l-68 0 0 237 0 238 435 -435
c239 -239 435 -438 435 -442 0 -5 -409 -8 -910 -8 -500 0 -910 3 -910 7 0 7
861 873 867 873 2 0 3 -106 3 -235z m-966 -601 c20 -20 21 -68 1 -84 -22 -18
-66 -15 -82 6 -41 56 32 127 81 78z m2090 0 c19 -18 21 -65 4 -82 -20 -20 -76
-15 -88 7 -32 61 37 123 84 75z m-1124 -271 c0 -154 0 -157 -18 -138 -18 19
-200 239 -231 278 -13 16 -6 17 118 17 l131 0 0 -157z m328 139 c-42 -58 -242
-291 -247 -288 -3 2 -5 72 -3 155 l3 151 130 0 c124 0 129 -1 117 -18z"/>
<path d="M1700 1530 c-78 -14 -110 -57 -110 -148 0 -97 69 -151 175 -136 37 5
58 15 82 39 30 30 33 38 33 94 0 61 -15 106 -43 129 -20 17 -96 29 -137 22z
m94 -92 c38 -54 6 -120 -58 -120 -50 0 -71 21 -71 73 0 49 22 69 76 69 28 0
42 -6 53 -22z"/>
<path d="M2669 1507 c-26 -17 -37 -34 -46 -72 -21 -85 10 -160 77 -184 40 -14
125 -7 155 13 75 49 71 212 -6 251 -45 24 -140 19 -180 -8z m145 -63 c24 -23
24 -89 1 -112 -19 -21 -81 -19 -105 3 -24 22 -26 71 -4 103 18 27 84 31 108 6z"/>
<path d="M702 1450 c-53 -22 -28 -77 36 -82 32 -3 38 -7 46 -36 7 -24 6 -36
-4 -45 -9 -9 -14 -9 -17 -1 -15 42 -26 45 -73 22 -52 -26 -66 -63 -30 -76 21
-8 21 -8 2 -32 -13 -16 -24 -21 -37 -16 -16 6 -17 15 -12 76 3 38 2 72 -3 75
-5 3 -23 -1 -40 -10 -29 -15 -30 -18 -30 -83 0 -60 4 -74 38 -132 30 -52 42
-65 62 -65 21 0 25 5 28 35 2 19 13 45 24 57 23 25 97 58 151 68 21 4 41 13
44 21 6 17 -27 91 -78 169 -43 67 -57 74 -107 55z"/>
<path d="M3695 1358 c-7 -18 -27 -46 -44 -62 -56 -53 -49 -125 14 -152 43 -18
70 -12 156 34 70 36 99 37 99 3 0 -25 -32 -43 -89 -51 -25 -3 -46 -10 -48 -16
-2 -7 16 -23 40 -36 l44 -25 42 48 c49 57 59 94 37 137 -34 66 -82 68 -147 7
-48 -45 -81 -55 -123 -39 -28 11 -18 30 46 89 l62 57 -23 19 c-33 27 -50 24
-66 -13z"/>
</g>
</svg>
