<?xml version="1.0" standalone="no"?>
<!DOCTYPE svg PUBLIC "-//W3C//DTD SVG 20010904//EN"
 "http://www.w3.org/TR/2001/REC-SVG-20010904/DTD/svg10.dtd">
<svg version="1.0" xmlns="http://www.w3.org/2000/svg"
 width="439.775698pt" height="439.692012pt" viewBox="0 0 439.775698 439.692012"
 preserveAspectRatio="xMidYMid meet">
<metadata>
Created by potrace 1.16, written by Peter Selinger 2001-2019
</metadata>
<g transform="translate(-5.033011,444.801996) scale(0.100000,-0.100000)"
fill="#000000" stroke="none">
<path d="M1995 4435 c-666 -77 -1214 -417 -1602 -995 -334 -498 -433 -1205
-256 -1825 189 -660 746 -1238 1402 -1454 513 -169 1121 -142 1611 73 447 196
865 601 1086 1053 285 584 283 1356 -7 1935 -248 496 -698 905 -1200 1092
-300 111 -708 159 -1034 121z m579 -81 c365 -51 710 -202 1006 -441 109 -88
305 -293 387 -403 219 -296 346 -611 394 -980 18 -140 16 -451 -5 -593 -76
-528 -330 -975 -759 -1336 -173 -146 -447 -302 -642 -366 -247 -81 -423 -108
-705 -108 -232 0 -347 13 -540 60 -576 140 -1113 582 -1381 1138 -147 306
-203 561 -203 925 0 366 57 622 205 927 266 548 780 977 1352 1128 274 73 593
90 891 49z"/>
<path d="M2034 4329 c-369 -33 -718 -168 -1029 -398 -114 -84 -343 -310 -427
-421 -265 -352 -396 -725 -415 -1180 -27 -678 249 -1280 787 -1720 462 -378
1094 -528 1725 -409 530 100 1031 447 1345 931 403 620 426 1488 58 2140 -174
308 -491 626 -795 800 -366 208 -798 297 -1249 257z m579 -53 c434 -82 774
-262 1087 -576 344 -343 531 -724 590 -1196 16 -126 13 -409 -5 -545 -60 -460
-268 -861 -621 -1199 -334 -319 -723 -500 -1182 -550 -143 -16 -463 -8 -587
14 -459 83 -812 274 -1145 622 -313 326 -503 739 -545 1184 -10 96 -9 345 0
441 46 479 250 897 612 1250 182 177 346 294 548 390 183 87 414 154 610 178
125 15 533 6 638 -13z"/>
<path d="M2197 4226 c-13 -14 -31 -51 -41 -83 -24 -75 -48 -109 -97 -134 -22
-11 -37 -24 -34 -29 4 -6 30 -10 59 -10 56 0 83 17 72 45 -13 34 4 45 70 45
60 0 65 -2 74 -26 13 -33 13 -34 -4 -34 -24 0 -30 -22 -11 -37 26 -18 119 -17
135 2 9 11 5 20 -23 48 -29 30 -63 96 -107 211 -13 35 -62 36 -93 2z m73 -107
c0 -5 -13 -9 -30 -9 -33 0 -41 25 -17 49 10 10 15 8 30 -10 9 -11 17 -25 17
-30z"/>
<path d="M2065 3889 c-394 -41 -731 -208 -1012 -502 -302 -317 -450 -692 -451
-1142 0 -277 55 -513 175 -747 73 -144 156 -259 282 -391 322 -336 720 -505
1191 -505 488 0 910 190 1234 554 292 327 435 735 412 1172 -22 399 -152 721
-410 1014 -361 408 -870 604 -1421 547z m525 -59 c408 -83 771 -334 1016 -700
156 -235 239 -492 252 -785 15 -316 -31 -551 -158 -810 -79 -160 -171 -286
-310 -425 -219 -219 -441 -347 -723 -420 -162 -42 -282 -54 -475 -47 -198 6
-306 24 -463 77 -256 85 -456 214 -657 425 -211 221 -348 483 -409 782 -28
137 -25 532 4 665 125 556 536 1016 1067 1192 251 83 585 101 856 46z"/>
<path d="M1565 3438 c-45 -24 -139 -118 -223 -225 l-57 -72 -40 23 c-22 14
-48 40 -59 61 -17 33 -18 44 -9 89 10 44 9 53 -5 64 -9 7 -20 11 -25 9 -4 -1
-44 -80 -88 -176 -74 -159 -80 -175 -65 -189 15 -15 20 -13 59 26 24 24 57 46
73 51 31 8 100 -1 114 -15 5 -5 -14 -47 -42 -94 -78 -131 -350 -606 -394 -687
-21 -40 -44 -73 -51 -73 -7 0 -28 -14 -48 -31 -38 -33 -60 -92 -49 -133 12
-48 88 -96 151 -96 33 0 91 59 99 99 4 17 11 31 16 31 7 0 107 -47 116 -55 1
-1 -34 -79 -78 -174 -44 -95 -80 -178 -80 -186 0 -39 392 -232 523 -257 13 -2
29 23 72 117 31 66 63 126 72 133 9 6 33 12 54 12 38 0 66 21 54 40 -8 13
-191 100 -210 100 -7 0 -18 -7 -25 -15 -10 -13 -8 -19 13 -39 42 -39 42 -58
-3 -158 -23 -51 -43 -94 -45 -96 -11 -11 -374 155 -408 187 -6 6 112 278 129
300 4 4 91 -35 228 -100 39 -18 71 -28 75 -23 5 5 62 123 126 262 65 138 122
252 127 252 9 0 428 -196 436 -204 2 -3 -69 -160 -158 -351 -89 -190 -160
-351 -157 -358 7 -18 528 -260 538 -250 4 4 36 71 72 148 36 77 85 183 109
235 25 52 59 127 77 166 l33 72 89 -42 c49 -22 88 -45 88 -51 0 -5 -26 -66
-58 -135 -44 -94 -65 -128 -86 -140 -62 -34 -90 -118 -66 -193 14 -43 96 -121
154 -147 50 -23 124 -26 171 -6 73 30 170 145 221 261 76 170 100 314 125 745
11 194 31 286 124 585 98 318 100 321 192 313 37 -3 39 -5 48 -46 13 -63 -2
-114 -37 -126 -19 -7 -34 -7 -45 0 -26 17 -27 42 -1 46 55 8 48 73 -7 73 -25
0 -33 -7 -53 -48 -20 -40 -22 -52 -12 -73 22 -50 120 -61 170 -18 54 45 50
141 -8 207 -31 34 -70 40 -158 24 -42 -7 -43 -7 -43 20 0 35 -31 87 -64 108
-64 42 -136 27 -194 -39 -54 -62 -66 -139 -28 -183 21 -24 32 -28 95 -31 59
-4 76 -1 91 13 24 22 26 74 5 115 -13 25 -21 30 -54 30 -41 0 -67 -20 -57 -45
3 -9 18 -15 36 -15 27 0 31 -3 28 -22 -3 -20 -8 -23 -46 -21 -78 4 -93 39 -41
98 18 20 45 43 61 51 26 14 32 14 53 0 38 -25 68 -118 68 -211 -1 -181 -136
-464 -286 -602 -104 -94 -176 -109 -243 -51 -51 45 -68 88 -54 138 12 45 133
179 225 250 30 23 55 49 55 58 0 9 16 46 35 84 29 55 33 69 21 74 -13 5 -161
-18 -208 -32 -26 -8 -23 18 10 75 38 69 28 75 -84 56 -49 -8 -101 -18 -116
-21 -36 -7 -36 6 -2 80 41 90 29 93 -123 36 -59 -22 -110 -40 -114 -40 -4 0 4
36 17 81 14 45 23 87 20 95 -6 17 -32 9 -119 -37 -32 -17 -61 -29 -64 -26 -2
3 5 27 16 53 13 29 18 51 12 57 -5 5 -49 -1 -109 -17 -136 -35 -143 -35 -131
6 22 79 6 90 -80 55 l-61 -25 0 33 c0 73 -71 68 -159 -11 l-50 -45 -6 28 c-16
76 -28 104 -56 127 -38 33 -97 34 -154 4z m131 -79 c12 -14 19 -40 22 -85 4
-56 1 -68 -16 -87 -46 -48 -68 -159 -42 -208 35 -65 121 46 138 178 7 54 10
59 62 102 l55 45 3 -35 c5 -59 7 -60 57 -38 55 24 75 15 75 -36 0 -17 2 -34 5
-37 3 -3 40 5 81 18 83 27 124 30 124 11 0 -15 -82 -117 -105 -129 -15 -9 -21
-43 -7 -51 4 -3 61 20 126 49 66 30 121 52 123 50 11 -10 -14 -63 -49 -103
-44 -51 -47 -80 -8 -75 14 2 83 32 153 67 123 62 157 75 157 57 0 -22 -61
-100 -98 -126 -40 -27 -54 -58 -32 -71 6 -4 45 7 88 23 86 34 193 57 216 49
24 -9 2 -57 -49 -107 -41 -41 -58 -81 -37 -93 4 -3 36 9 72 25 36 17 93 41
128 54 61 24 62 24 62 3 0 -38 -29 -77 -124 -163 -76 -70 -99 -99 -121 -149
-39 -85 -40 -159 -3 -214 38 -58 84 -76 177 -71 99 6 167 36 226 99 38 41 45
45 45 26 0 -58 -62 -565 -80 -662 -37 -191 -92 -345 -125 -345 -6 0 -29 25
-49 55 -42 61 -85 92 -150 109 l-44 11 69 149 c38 83 66 153 62 157 -5 4 -73
37 -152 74 -117 53 -147 63 -157 53 -7 -7 -74 -147 -150 -310 -75 -164 -140
-298 -144 -298 -3 0 -96 42 -206 93 -144 68 -198 98 -196 109 1 9 35 84 75
167 l72 151 103 -50 c128 -63 145 -86 139 -178 -6 -73 6 -87 40 -46 49 61 143
270 143 318 0 32 -23 25 -64 -18 -40 -43 -46 -46 -94 -46 -39 0 -73 10 -142
41 -49 23 -90 45 -90 50 0 4 16 43 36 86 99 212 103 223 91 230 -16 10 -69 35
-336 159 -178 83 -227 102 -236 92 -6 -7 -63 -124 -126 -260 -63 -137 -119
-248 -125 -248 -6 0 -59 23 -117 50 l-106 50 44 96 c25 53 45 98 45 99 0 2 18
-4 40 -12 59 -23 80 -48 80 -92 0 -46 23 -73 44 -50 8 8 34 58 59 111 45 97
46 98 25 112 -19 14 -23 13 -48 -15 -16 -16 -37 -29 -49 -29 -24 0 -111 40
-111 52 0 16 71 157 85 168 8 7 33 12 55 12 29 -1 43 4 50 18 11 20 1 32 -40
49 -14 5 -60 25 -102 45 -76 34 -78 35 -88 15 -9 -16 -6 -25 14 -50 14 -17 26
-40 26 -53 0 -17 -62 -161 -74 -174 -7 -6 -73 28 -90 47 -14 15 -17 30 -13 56
5 28 2 37 -15 46 -11 6 -24 7 -28 2 -4 -4 -29 -55 -56 -112 -46 -99 -47 -104
-29 -117 17 -12 22 -11 45 11 34 32 102 32 149 -2 2 -1 -15 -46 -39 -99 -38
-83 -46 -95 -64 -90 -40 10 -217 97 -212 104 2 4 106 189 231 412 125 223 228
406 230 408 9 9 68 -33 86 -61 16 -25 19 -46 17 -97 -3 -55 0 -65 15 -68 14
-3 34 30 98 165 44 92 81 172 82 176 1 5 -6 14 -15 20 -15 10 -24 5 -58 -31
-22 -23 -52 -45 -66 -48 -26 -7 -101 0 -111 10 -8 8 55 101 111 163 80 88 190
128 232 82z m-874 -1216 c24 -21 23 -58 -2 -83 -16 -16 -24 -18 -47 -9 -46 17
-57 57 -26 91 20 22 51 23 75 1z m1948 -722 c126 -48 183 -134 135 -207 -32
-49 -137 -20 -222 61 -46 44 -55 83 -32 128 23 43 45 46 119 18z"/>
<path d="M3714 1356 c-46 -46 -42 -67 17 -83 26 -8 54 -22 64 -33 20 -22 20
-23 -60 -36 -49 -9 -50 -9 -48 -44 1 -19 -1 -49 -3 -67 l-5 -32 -34 21 c-33
19 -35 22 -29 59 5 30 3 40 -10 45 -21 8 -42 -10 -77 -66 -31 -49 -29 -65 7
-56 38 10 121 -50 134 -96 13 -44 23 -52 49 -38 18 9 21 22 23 118 l3 107 93
-3 93 -3 25 56 c13 31 22 60 19 65 -3 5 -21 2 -40 -6 -47 -19 -45 -20 -109 28
-39 29 -56 48 -56 64 0 38 -18 38 -56 0z"/>
<path d="M791 1347 c-6 -16 -11 -35 -11 -43 0 -8 -21 -25 -47 -36 -43 -19 -55
-20 -113 -10 -65 11 -116 7 -126 -9 -7 -11 19 -60 45 -83 18 -16 26 -17 65 -7
62 15 63 15 71 -25 4 -26 2 -41 -9 -53 -33 -36 -30 -66 9 -110 48 -53 61 -43
70 52 8 83 37 166 66 193 19 17 21 17 48 1 25 -14 30 -15 41 -3 9 12 4 25 -27
65 -21 27 -45 60 -55 73 l-16 23 -11 -28z"/>
</g>
</svg>
