<?xml version="1.0" standalone="no"?>
<!DOCTYPE svg PUBLIC "-//W3C//DTD SVG 20010904//EN"
 "http://www.w3.org/TR/2001/REC-SVG-20010904/DTD/svg10.dtd">
<svg version="1.0" xmlns="http://www.w3.org/2000/svg"
 width="439.353507pt" height="439.117544pt" viewBox="0 0 439.353507 439.117544"
 preserveAspectRatio="xMidYMid meet">
<metadata>
Created by potrace 1.16, written by Peter Selinger 2001-2019
</metadata>
<g transform="translate(-5.052854,444.650149) scale(0.100000,-0.100000)"
fill="#000000" stroke="none">
<path d="M1995 4435 c-497 -56 -906 -248 -1274 -600 -204 -195 -392 -462 -495
-701 -227 -533 -234 -1182 -19 -1719 230 -574 749 -1062 1332 -1254 232 -77
431 -106 716 -106 298 1 518 37 762 125 599 218 1117 749 1318 1352 80 240
109 435 109 718 0 379 -62 656 -214 965 -277 566 -808 1006 -1396 1160 -242
64 -587 88 -839 60z m610 -86 c440 -71 796 -253 1123 -573 190 -186 321 -359
426 -566 170 -333 246 -728 216 -1125 -39 -523 -243 -966 -616 -1339 -337
-337 -719 -532 -1184 -602 -141 -22 -470 -24 -610 -5 -542 73 -1002 333 -1365
771 -250 301 -400 648 -456 1055 -19 135 -17 466 5 605 70 461 269 853 604
1187 371 368 803 570 1317 613 141 12 398 2 540 -21z"/>
<path d="M2036 4328 c-290 -25 -595 -123 -847 -272 -196 -116 -472 -363 -611
-546 -217 -288 -347 -602 -400 -965 -19 -134 -16 -484 5 -620 75 -473 274
-850 628 -1190 395 -379 858 -566 1424 -574 466 -6 904 137 1275 417 94 71
318 293 395 390 391 499 528 1169 369 1812 -112 451 -390 858 -792 1160 -403
302 -902 436 -1446 388z m600 -56 c414 -80 755 -262 1064 -572 255 -255 425
-533 520 -853 58 -195 81 -366 81 -602 0 -557 -184 -1017 -566 -1413 -411
-427 -897 -633 -1495 -632 -555 1 -1010 183 -1407 564 -364 350 -564 740 -623
1220 -16 132 -13 445 5 573 63 433 244 796 555 1117 334 345 711 541 1174 611
143 22 548 14 692 -13z"/>
<path d="M2223 4276 c-5 -6 -34 -25 -66 -40 -68 -33 -97 -72 -97 -131 0 -22 8
-56 19 -75 22 -42 88 -89 136 -97 47 -8 118 14 146 44 32 34 38 138 12 206
-16 43 -24 50 -80 77 -47 22 -64 26 -70 16z m71 -98 c42 -66 22 -142 -49 -184
l-40 -23 -24 20 c-24 20 -25 22 -13 88 19 111 25 121 72 121 30 0 43 -5 54
-22z"/>
<path d="M2065 3890 c-367 -42 -685 -189 -946 -437 -297 -283 -466 -620 -508
-1008 -57 -538 115 -1019 496 -1385 321 -309 692 -458 1143 -458 493 0 918
193 1241 562 286 325 418 698 404 1141 -14 445 -171 805 -490 1120 -250 247
-526 390 -865 449 -114 20 -365 28 -475 16z m405 -41 c345 -40 655 -194 920
-459 233 -232 373 -488 442 -804 20 -88 22 -130 22 -336 0 -205 -2 -248 -22
-336 -32 -146 -66 -243 -132 -379 -79 -159 -170 -285 -310 -425 -234 -234
-497 -377 -810 -441 -139 -29 -409 -36 -566 -15 -366 48 -671 207 -942 491
-206 216 -341 469 -403 753 -26 123 -37 443 -20 577 42 313 171 596 381 834
373 422 864 606 1440 540z"/>
<path d="M2115 3543 c-59 -16 -57 -51 5 -73 59 -21 90 -66 90 -131 l0 -48 -32
6 c-63 12 -94 42 -107 106 -9 44 -46 50 -62 10 -15 -36 -15 -279 0 -316 16
-42 54 -34 62 13 3 19 10 45 17 56 13 24 69 54 101 54 21 0 21 -3 21 -215 0
-118 -1 -215 -3 -215 -1 0 -77 106 -167 235 l-165 235 -282 0 -283 0 0 29 c0
17 -10 42 -23 56 -41 48 -155 52 -200 6 -28 -28 -36 -130 -13 -166 25 -39 72
-58 123 -51 l43 6 0 -205 0 -204 -115 -3 c-126 -3 -135 -2 -135 16 0 7 -14 25
-31 42 -27 26 -37 29 -91 29 -55 -1 -63 -3 -89 -33 -25 -28 -29 -40 -29 -92 0
-52 4 -64 29 -92 26 -30 34 -32 89 -33 54 0 64 3 91 29 17 17 31 36 31 43 0
10 28 13 125 13 l125 0 0 -200 0 -200 -40 0 c-52 0 -103 -21 -124 -51 -33 -47
-13 -164 32 -187 53 -28 140 -19 176 18 15 15 22 38 26 83 l5 62 313 3 312 2
0 -140 0 -140 -154 0 -154 0 -7 40 c-9 56 -46 97 -94 105 -53 9 -117 -10 -137
-40 -36 -55 -25 -161 19 -190 12 -8 41 -17 64 -21 l43 -7 2 -336 3 -336 98 -3
97 -3 0 -70 c0 -64 -3 -73 -28 -97 -15 -15 -36 -32 -47 -38 -12 -7 -16 -16
-12 -27 6 -16 21 -17 124 -15 102 3 118 5 121 20 2 12 -8 23 -31 34 -45 21
-57 49 -57 129 l0 64 98 3 97 3 3 163 2 162 255 0 255 0 2 -162 3 -163 103 -3
102 -3 0 -64 c0 -83 -13 -110 -62 -130 -28 -11 -38 -20 -36 -33 3 -15 18 -17
128 -17 110 0 125 2 128 17 2 12 -8 23 -31 34 -45 21 -57 49 -57 129 l0 64 98
3 97 3 3 336 2 336 43 7 c23 4 52 13 64 21 44 29 55 135 19 190 -20 30 -85 49
-139 40 -52 -9 -84 -44 -93 -101 l-6 -44 -154 0 -154 0 0 140 0 140 309 0 308
0 7 -60 c5 -40 14 -68 29 -86 35 -40 123 -51 179 -22 43 21 63 123 35 178 -16
33 -72 60 -124 60 l-43 0 0 200 0 200 119 0 119 0 20 -34 c39 -66 156 -74 207
-15 21 25 25 41 25 91 0 52 -4 63 -28 88 -58 57 -166 49 -204 -16 l-20 -34
-119 0 -119 0 0 203 0 202 60 0 c52 1 64 5 87 27 51 52 40 177 -19 209 -12 6
-46 11 -76 11 -79 -1 -105 -23 -128 -109 -3 -10 -68 -13 -282 -13 l-279 0
-164 -236 -164 -235 -3 212 c-1 117 0 214 2 217 3 2 21 2 39 -2 46 -9 84 -49
94 -99 7 -32 13 -42 28 -42 35 0 45 41 45 182 0 145 -8 183 -40 183 -21 0 -24
-4 -35 -54 -3 -16 -19 -41 -35 -56 -30 -28 -90 -45 -101 -28 -3 5 -2 32 2 60
10 61 38 94 91 109 45 12 58 33 34 57 -13 13 -41 17 -149 19 -72 1 -141 -1
-152 -4z m-887 -245 c17 -17 15 -64 -4 -82 -47 -48 -116 14 -84 75 12 22 68
27 88 7z m2126 -4 c22 -21 20 -50 -4 -74 -22 -22 -42 -25 -71 -10 -22 12 -27
68 -7 88 17 17 64 15 82 -4z m-174 -579 l0 -465 -342 -2 -343 -3 0 -205 0
-205 208 -3 207 -2 0 -320 0 -320 -65 0 -65 0 0 99 c0 121 9 147 56 167 27 11
35 20 32 37 -3 21 -7 22 -128 22 -118 0 -125 -1 -125 -20 0 -13 13 -26 38 -38
49 -23 57 -47 57 -167 l0 -98 -65 -4 -65 -3 -2 165 -3 165 -82 3 -83 3 0 488
0 488 143 204 142 204 60 6 c50 6 64 12 88 39 27 30 29 37 25 98 -3 55 -8 68
-30 87 -51 44 -151 41 -193 -5 -27 -30 -36 -88 -20 -134 l15 -41 -62 -90 c-35
-49 -102 -146 -150 -214 l-88 -124 0 -504 0 -503 -90 0 -90 0 0 501 0 501 -84
121 c-145 209 -168 241 -193 275 -22 29 -24 38 -14 58 6 14 11 48 11 75 0 42
-5 55 -28 78 -33 33 -88 46 -140 31 -58 -15 -75 -40 -80 -114 -4 -58 -2 -66
25 -96 24 -27 38 -33 87 -39 l59 -6 143 -205 144 -204 0 -488 0 -487 -82 -3
-83 -3 -3 -162 -2 -163 -65 0 -65 0 0 106 c0 58 5 114 11 126 6 11 26 26 45
34 27 12 35 20 32 37 -3 21 -7 22 -123 22 -116 0 -120 -1 -123 -22 -3 -17 5
-26 32 -37 47 -20 56 -46 56 -167 l0 -99 -65 0 -65 0 0 320 0 320 208 2 207 3
0 205 0 205 -347 3 -348 2 0 465 0 465 267 -2 267 -3 197 -280 c108 -153 201
-281 207 -283 5 -1 99 124 207 280 109 156 201 285 206 288 4 3 122 4 263 2
l256 -3 0 -464z m-1380 356 c32 -61 -37 -123 -84 -75 -19 18 -21 65 -4 82 20
20 76 15 88 -7z m988 7 c30 -30 1 -98 -41 -98 -29 0 -57 29 -57 60 0 34 17 50
55 50 17 0 36 -5 43 -12z m-1880 -344 c24 -17 30 -62 10 -82 -7 -7 -26 -12
-43 -12 -38 0 -55 16 -55 51 0 27 30 59 55 59 6 0 21 -7 33 -16z m2752 -4 c22
-22 25 -42 10 -71 -12 -22 -68 -27 -88 -7 -20 20 -14 65 10 82 30 21 44 20 68
-4z m-2436 -566 c19 -18 21 -65 4 -82 -20 -20 -76 -15 -88 7 -16 31 -12 59 12
75 29 20 52 20 72 0z m2126 -4 c38 -38 18 -90 -33 -90 -42 0 -57 15 -57 57 0
51 52 71 90 33z m-1808 -204 c4 -6 8 -25 8 -43 0 -25 -5 -33 -28 -41 -52 -18
-93 18 -77 69 12 36 77 46 97 15z m1483 18 c24 -9 36 -49 25 -79 -7 -20 -16
-25 -42 -25 -51 0 -63 15 -59 73 1 25 45 42 76 31z"/>
<path d="M594 3390 c-25 -10 -82 -74 -95 -107 -10 -27 14 -84 49 -116 27 -25
62 -17 146 34 36 21 67 39 70 39 10 0 7 -50 -4 -70 -5 -10 -31 -26 -57 -36
-61 -22 -67 -28 -55 -51 17 -31 58 -49 77 -33 8 7 15 19 15 28 0 8 18 32 40
52 37 34 40 41 40 88 0 39 -5 57 -21 73 -26 26 -57 20 -151 -27 -80 -40 -98
-42 -98 -11 0 30 27 55 68 63 40 8 45 15 33 47 -11 29 -29 37 -57 27z"/>
<path d="M3945 3258 c-2 -7 -5 -26 -7 -42 -3 -25 -11 -32 -77 -58 -65 -25 -78
-28 -103 -17 -52 21 -55 0 -15 -93 30 -70 39 -83 59 -83 21 0 23 5 26 51 3 45
6 52 27 56 34 7 42 -43 15 -87 -28 -45 -26 -90 5 -121 36 -35 50 -26 51 32 0
27 4 66 8 87 7 36 8 37 29 22 30 -21 50 -19 75 8 28 30 28 79 1 153 -29 78
-81 129 -94 92z m60 -159 c0 -29 -4 -34 -26 -37 -15 -2 -32 4 -40 14 -12 14
-10 19 16 40 38 30 50 26 50 -17z"/>
<path d="M1025 1097 c-4 -10 -3 -29 4 -43 17 -38 14 -52 -34 -154 -41 -87 -56
-155 -39 -173 4 -3 43 12 87 35 99 49 158 68 219 68 26 0 49 4 52 8 6 10 -32
47 -81 81 l-33 22 -17 -35 c-9 -20 -20 -36 -24 -36 -13 0 -59 61 -59 80 0 10
10 20 22 23 20 6 20 8 -18 49 -21 24 -46 54 -56 68 -15 23 -17 23 -23 7z m52
-226 l22 -28 -45 -21 c-24 -12 -44 -19 -44 -15 0 15 33 93 39 92 3 0 16 -13
28 -28z"/>
<path d="M3315 934 c-46 -38 -56 -51 -53 -73 3 -23 8 -26 49 -29 44 -3 50 -7
89 -59 33 -45 41 -62 38 -91 -1 -19 2 -37 8 -39 14 -5 90 51 104 77 11 21 11
21 -57 45 -6 2 -30 28 -53 58 -39 52 -40 56 -31 98 5 24 8 47 5 51 -12 18 -46
5 -99 -38z"/>
</g>
</svg>
