<?xml version="1.0" standalone="no"?>
<!DOCTYPE svg PUBLIC "-//W3C//DTD SVG 20010904//EN"
 "http://www.w3.org/TR/2001/REC-SVG-20010904/DTD/svg10.dtd">
<svg version="1.0" xmlns="http://www.w3.org/2000/svg"
 width="439.909697pt" height="439.216460pt" viewBox="0 0 439.909697 439.216460"
 preserveAspectRatio="xMidYMid meet">
<metadata>
Created by potrace 1.16, written by Peter Selinger 2001-2019
</metadata>
<g transform="translate(-4.999475,444.688265) scale(0.100000,-0.100000)"
fill="#000000" stroke="none">
<path d="M2090 4444 c-19 -2 -78 -9 -130 -14 -614 -67 -1183 -422 -1552 -967
-376 -556 -463 -1322 -226 -1988 163 -457 549 -903 1002 -1158 205 -116 468
-204 726 -244 161 -24 520 -25 678 0 421 66 766 223 1081 493 607 519 875
1252 750 2059 -68 439 -282 849 -620 1185 -343 342 -742 545 -1209 615 -101
15 -428 28 -500 19z m479 -89 c447 -63 822 -251 1159 -580 359 -349 559 -736
628 -1212 21 -144 24 -455 5 -593 -40 -298 -138 -582 -281 -815 -115 -188
-299 -399 -482 -553 -223 -187 -512 -338 -791 -411 -186 -48 -321 -64 -552
-64 -285 0 -458 26 -695 103 -118 39 -330 140 -441 211 -251 161 -505 413
-669 664 -72 111 -181 339 -224 469 -120 365 -136 828 -41 1206 75 298 221
586 416 817 395 469 877 721 1484 776 87 8 376 -3 484 -18z"/>
<path d="M2085 4333 c-306 -20 -623 -117 -879 -267 -302 -178 -595 -471 -774
-775 -345 -588 -364 -1391 -45 -2001 158 -302 421 -594 713 -790 355 -239 782
-355 1234 -337 462 19 851 160 1200 435 183 143 410 401 525 595 264 449 345
1002 225 1546 -103 462 -389 891 -801 1200 -390 293 -873 429 -1398 394z m464
-49 c436 -63 789 -236 1117 -546 350 -332 565 -755 624 -1228 15 -123 12 -421
-5 -552 -56 -428 -237 -801 -545 -1122 -346 -362 -753 -567 -1240 -626 -109
-13 -391 -13 -500 0 -486 59 -881 257 -1230 616 -322 332 -505 709 -560 1158
-14 113 -14 419 0 533 26 209 88 426 174 608 101 212 215 373 394 557 332 341
711 536 1166 603 131 19 473 19 605 -1z"/>
<path d="M2375 4231 c-43 -6 -39 1 -75 -138 -9 -35 -15 -43 -34 -43 -36 0 -87
83 -83 136 l2 39 -75 0 c-68 0 -75 -2 -75 -20 0 -12 8 -21 20 -23 11 -2 35
-26 54 -54 18 -29 58 -85 88 -126 l55 -74 30 29 c17 15 48 65 70 110 37 78 42
84 94 108 94 45 57 74 -71 56z"/>
<path d="M2110 3893 c-408 -40 -721 -181 -1002 -451 -263 -253 -422 -549 -484
-897 -19 -108 -26 -379 -13 -490 32 -277 128 -533 282 -752 79 -113 297 -331
410 -410 331 -233 739 -331 1164 -278 262 33 479 112 689 254 310 209 549 517
658 846 111 339 111 727 0 1070 -143 442 -535 846 -979 1010 -217 81 -506 120
-725 98z m477 -61 c216 -47 421 -137 593 -259 122 -87 306 -272 392 -393 213
-299 305 -629 286 -1025 -11 -237 -55 -408 -159 -620 -79 -160 -170 -286 -309
-425 -239 -239 -506 -382 -835 -447 -141 -28 -504 -25 -640 5 -343 76 -598
220 -843 477 -223 233 -360 505 -414 820 -27 162 -22 477 11 628 104 482 425
889 880 1117 94 47 284 107 407 130 149 27 491 22 631 -8z"/>
<path d="M2019 3507 c-68 -36 -94 -96 -93 -212 2 -200 74 -338 228 -441 l56
-37 0 -88 0 -89 -155 0 -155 0 -2 233 -3 232 -195 3 -195 3 -20 42 c-42 88
-156 129 -295 108 -84 -13 -133 -36 -176 -83 -57 -61 -70 -149 -32 -226 l21
-45 -22 -16 c-33 -25 -61 -73 -61 -103 0 -19 10 -35 35 -55 l34 -28 -26 -27
c-20 -21 -27 -41 -31 -81 -4 -46 -1 -57 21 -82 24 -29 24 -29 6 -55 -23 -31
-39 -109 -28 -138 5 -12 19 -27 33 -33 l24 -11 -44 -42 c-31 -30 -44 -51 -44
-70 0 -32 20 -74 49 -100 l20 -18 -24 -48 c-47 -93 -45 -169 5 -195 l30 -15
-20 -33 c-11 -17 -20 -44 -20 -58 0 -26 27 -59 48 -59 15 0 16 1 -8 -45 -28
-56 -26 -91 9 -126 24 -23 38 -29 74 -29 l44 0 -5 -48 c-7 -78 35 -145 111
-177 83 -34 159 -10 216 69 46 64 51 119 21 215 l-23 72 38 39 c37 37 43 40
96 40 l58 0 -6 -54 c-12 -112 34 -166 140 -166 110 0 153 47 144 157 l-5 63
159 0 159 0 0 -151 0 -152 -58 6 c-100 9 -129 33 -159 132 -12 42 -35 37 -52
-10 -21 -59 -20 -278 2 -328 19 -44 38 -44 51 -1 31 102 56 124 152 132 l64 5
0 -97 c0 -54 -5 -107 -11 -119 -22 -42 -53 -67 -91 -73 -49 -8 -69 -31 -44
-49 30 -22 153 -38 239 -31 78 7 147 27 147 43 0 16 -24 33 -45 33 -28 0 -81
34 -96 62 -8 13 -16 69 -19 126 l-5 102 43 0 c86 0 131 -35 156 -122 17 -55
32 -59 53 -11 24 52 25 293 3 338 -21 41 -41 38 -55 -10 -6 -22 -17 -51 -24
-63 -16 -30 -85 -61 -133 -62 l-38 0 0 150 0 150 160 0 160 0 -6 -54 c-13
-112 32 -166 141 -166 109 0 154 54 141 166 l-6 54 58 0 c54 0 60 -3 96 -39
l38 -39 -21 -63 c-36 -107 -25 -180 36 -245 46 -49 89 -67 144 -62 102 10 178
101 164 193 l-6 45 44 0 c88 0 129 70 88 152 -14 29 -17 44 -10 47 23 7 49 42
49 64 0 12 -9 36 -20 52 -25 38 -25 42 5 49 53 13 59 100 13 193 l-26 51 20
19 c61 55 60 123 -2 176 l-40 34 25 11 c14 7 30 23 35 37 12 33 -1 99 -28 135
-20 26 -20 26 4 53 36 42 34 115 -5 160 l-30 33 35 27 c49 40 47 74 -11 136
l-44 47 26 26 c35 35 43 118 18 169 -42 83 -112 131 -219 150 -145 25 -257
-16 -307 -113 l-19 -38 -193 -2 -192 -3 -3 -232 -2 -233 -155 0 -155 0 0 89 0
89 38 23 c165 100 245 248 247 454 0 117 -17 163 -74 200 -40 27 -107 41 -146
31 -14 -4 -44 -23 -66 -43 l-40 -36 -32 31 c-59 57 -126 67 -198 29z m148 -66
c21 -14 37 -36 51 -73 11 -29 26 -53 33 -53 8 0 26 23 41 50 51 95 110 120
161 68 35 -37 53 -83 65 -168 18 -121 -7 -195 -97 -278 -32 -29 -83 -66 -114
-82 l-57 -30 -66 34 c-81 42 -158 115 -187 178 -44 97 -16 283 53 346 36 32
72 35 117 8z m-844 -245 c51 -19 76 -42 99 -93 18 -40 19 -77 18 -705 l0 -663
-62 -62 -62 -63 21 -28 c33 -45 62 -107 68 -149 12 -75 -67 -173 -140 -173
-75 0 -143 130 -105 201 16 28 95 27 110 -2 16 -28 -2 -47 -48 -51 -29 -2 -37
-7 -37 -23 0 -15 8 -21 34 -23 50 -5 79 5 97 34 32 47 -16 144 -71 144 -13 0
-49 -12 -79 -27 -50 -24 -58 -26 -96 -14 -74 22 -71 74 8 131 32 23 42 37 40
53 -2 12 -8 21 -13 21 -6 -1 -27 -5 -48 -8 -37 -7 -38 -7 -31 21 4 15 25 48
46 72 21 25 37 49 35 55 -2 6 -29 11 -62 11 -49 0 -59 3 -66 20 -17 44 -9 71
36 124 74 86 77 101 23 101 -48 0 -68 16 -68 56 0 39 24 67 99 117 57 37 53
61 -11 65 -106 7 -86 82 47 178 41 29 25 44 -46 44 -55 0 -59 2 -58 23 0 15
15 31 47 52 47 30 95 90 89 109 -2 6 -28 14 -58 17 -110 12 -122 45 -38 106
54 38 60 60 28 89 -12 10 -28 33 -35 50 -32 75 36 158 156 190 59 16 87 16
133 0z m2045 -22 c111 -57 135 -153 56 -220 -32 -26 -25 -44 36 -88 83 -60 71
-97 -34 -106 -46 -4 -62 -9 -64 -22 -4 -21 57 -89 102 -113 25 -14 36 -26 36
-42 0 -22 -4 -23 -64 -23 -36 0 -67 -4 -70 -9 -3 -5 25 -33 61 -63 105 -83
111 -138 17 -148 -70 -7 -69 -28 3 -82 66 -49 79 -64 88 -97 9 -34 -19 -59
-68 -63 -22 -2 -42 -8 -44 -14 -2 -6 21 -39 52 -73 56 -63 64 -88 46 -136 -7
-17 -17 -20 -66 -20 -33 0 -60 -5 -62 -11 -2 -6 14 -30 35 -55 21 -24 42 -56
46 -72 6 -25 4 -27 -16 -23 -60 13 -73 11 -76 -11 -3 -17 8 -30 42 -55 49 -34
61 -56 52 -93 -4 -17 -18 -28 -46 -36 -37 -11 -45 -10 -93 14 -29 15 -65 27
-80 27 -36 0 -73 -39 -81 -86 -13 -69 13 -94 98 -94 50 0 59 6 45 31 -6 13
-21 19 -43 19 -42 0 -62 21 -46 49 8 16 20 21 53 21 52 0 67 -13 67 -59 -1
-80 -63 -161 -124 -161 -44 0 -100 49 -122 106 -22 58 -11 109 42 191 l36 56
-61 61 -61 62 0 664 c0 627 2 667 19 706 46 101 167 130 289 68z m-1538 -461
c0 -186 -4 -343 -10 -364 -13 -48 -49 -79 -107 -94 -56 -14 -62 -33 -18 -55
47 -24 298 -21 343 3 40 22 31 41 -23 51 -45 9 -90 53 -104 102 -6 21 -11 76
-11 122 l0 82 350 0 350 0 0 -87 c0 -148 -25 -195 -117 -218 -56 -14 -62 -33
-18 -55 23 -11 65 -15 170 -15 105 0 147 4 170 15 43 22 38 41 -17 55 -58 14
-76 29 -99 80 -17 36 -19 73 -19 373 l0 332 155 0 155 0 0 -660 0 -660 -730 0
-730 0 0 660 0 660 155 0 155 0 0 -327z m-17 -1095 c39 -46 7 -118 -54 -118
-45 0 -67 16 -75 55 -15 79 76 124 129 63z m992 -1 c37 -52 3 -117 -60 -117
-64 0 -97 65 -60 117 26 36 95 36 120 0z"/>
<path d="M629 3453 c-9 -10 -5 -32 18 -91 43 -110 52 -140 61 -207 6 -52 10
-60 30 -63 19 -3 27 6 48 52 27 59 25 76 -7 76 -23 0 -24 11 -5 49 23 44 82
64 106 36 13 -15 55 -12 75 6 15 15 34 88 24 95 -5 3 -24 0 -42 -7 -29 -10
-48 -7 -165 28 -110 33 -134 38 -143 26z m116 -81 l50 -17 -37 -36 -37 -36
-16 45 c-14 43 -18 62 -12 62 1 0 25 -8 52 -18z"/>
<path d="M3895 3349 c-16 -5 -78 -18 -137 -30 -100 -19 -109 -19 -138 -4 -44
23 -57 9 -41 -44 11 -40 64 -95 84 -88 6 2 11 19 11 38 1 28 4 33 21 31 29 -5
67 -35 88 -70 24 -41 9 -74 -31 -70 -38 4 -40 -27 -8 -97 35 -78 75 -75 90 5
3 20 24 67 47 105 69 119 88 183 61 213 -14 16 -23 18 -47 11z"/>
<path d="M3708 1342 c-22 -26 -58 -88 -58 -100 0 -6 21 -20 46 -31 40 -18 45
-23 38 -43 -17 -53 -20 -85 -12 -115 9 -35 50 -73 79 -73 28 0 89 60 128 124
38 64 36 89 -6 80 -22 -4 -44 5 -106 45 -71 47 -77 53 -77 85 0 41 -12 52 -32
28z m136 -215 c14 -10 17 -21 12 -40 -7 -31 -34 -41 -70 -28 -30 12 -34 40
-10 76 17 26 25 25 68 -8z"/>
<path d="M753 1305 c-54 -23 -40 -57 30 -70 37 -7 57 -28 57 -59 0 -8 -25 -39
-56 -68 -50 -47 -59 -52 -95 -49 -30 2 -41 -2 -46 -15 -5 -13 8 -31 51 -71 31
-29 62 -51 67 -48 5 4 9 22 9 41 0 29 10 45 51 89 46 48 56 54 97 57 63 4 61
18 -16 123 -69 93 -83 99 -149 70z"/>
<path d="M2192 503 c-11 -16 -30 -57 -42 -93 -13 -36 -36 -79 -52 -96 l-29
-31 27 -22 c31 -24 81 -27 110 -7 19 14 19 15 -5 46 -19 26 -22 39 -17 73 14
85 59 137 107 122 45 -15 52 -169 9 -203 -38 -30 -17 -45 53 -39 70 6 88 18
65 44 -9 10 -19 40 -22 66 -16 108 -66 167 -141 167 -36 0 -47 -5 -63 -27z"/>
</g>
</svg>
