<?xml version="1.0" standalone="no"?>
<!DOCTYPE svg PUBLIC "-//W3C//DTD SVG 20010904//EN"
 "http://www.w3.org/TR/2001/REC-SVG-20010904/DTD/svg10.dtd">
<svg version="1.0" xmlns="http://www.w3.org/2000/svg"
 width="439.353507pt" height="439.117544pt" viewBox="0 0 439.353507 439.117544"
 preserveAspectRatio="xMidYMid meet">
<metadata>
Created by potrace 1.16, written by Peter Selinger 2001-2019
</metadata>
<g transform="translate(-5.052854,444.650149) scale(0.100000,-0.100000)"
fill="#000000" stroke="none">
<path d="M1995 4435 c-497 -56 -906 -248 -1274 -600 -204 -195 -392 -462 -495
-701 -227 -533 -234 -1182 -19 -1719 230 -574 749 -1062 1332 -1254 232 -77
431 -106 716 -106 298 1 518 37 762 125 599 218 1117 749 1318 1352 80 240
109 435 109 718 0 379 -62 656 -214 965 -277 566 -808 1006 -1396 1160 -242
64 -587 88 -839 60z m610 -86 c440 -71 796 -253 1123 -573 190 -186 321 -359
426 -566 170 -333 246 -728 216 -1125 -39 -523 -243 -966 -616 -1339 -337
-337 -719 -532 -1184 -602 -141 -22 -470 -24 -610 -5 -542 73 -1002 333 -1365
771 -250 301 -400 648 -456 1055 -19 135 -17 466 5 605 70 461 269 853 604
1187 371 368 803 570 1317 613 141 12 398 2 540 -21z"/>
<path d="M2036 4328 c-290 -25 -595 -123 -847 -272 -189 -112 -450 -342 -591
-522 -227 -288 -366 -616 -420 -989 -19 -134 -16 -484 5 -620 75 -473 274
-850 628 -1190 395 -379 858 -566 1424 -574 466 -6 904 137 1275 417 94 71
318 293 395 390 391 499 528 1169 369 1812 -112 451 -390 858 -792 1160 -403
302 -902 436 -1446 388z m600 -57 c414 -78 755 -261 1064 -571 255 -255 425
-533 520 -853 58 -195 81 -366 81 -602 0 -554 -183 -1014 -561 -1409 -341
-356 -745 -563 -1215 -621 -138 -17 -402 -20 -525 -5 -487 59 -881 257 -1230
616 -324 333 -504 707 -560 1158 -16 132 -13 445 5 573 63 433 244 796 555
1117 336 346 721 546 1180 611 148 22 543 14 686 -14z"/>
<path d="M2135 4241 c-61 -5 -70 -9 -73 -27 -3 -20 32 -74 48 -74 4 0 17 16
29 35 18 32 24 35 66 35 63 0 59 -20 -16 -67 -33 -21 -75 -49 -91 -63 -34 -27
-64 -88 -51 -101 11 -11 138 -27 248 -31 l80 -3 3 47 c3 52 -10 88 -34 88 -8
0 -32 -13 -52 -29 -38 -30 -82 -48 -82 -34 0 26 47 77 95 104 63 35 88 66 83
101 -3 22 -7 23 -93 24 -49 0 -121 -2 -160 -5z"/>
<path d="M2065 3890 c-367 -42 -685 -189 -946 -437 -344 -328 -519 -734 -519
-1203 0 -463 174 -872 507 -1191 324 -309 692 -457 1143 -457 492 0 918 193
1240 561 287 326 419 698 405 1142 -14 444 -172 806 -490 1120 -251 247 -526
390 -865 449 -114 20 -365 28 -475 16z m405 -41 c345 -40 655 -194 920 -459
233 -233 372 -486 442 -805 20 -87 22 -130 22 -335 0 -205 -2 -248 -22 -336
-32 -146 -66 -243 -132 -379 -79 -159 -170 -285 -310 -425 -234 -234 -497
-377 -810 -441 -139 -29 -409 -36 -566 -15 -366 48 -671 207 -942 491 -256
268 -406 601 -429 953 l-6 96 31 -35 c28 -32 35 -34 91 -34 52 0 63 4 90 29
17 17 31 36 31 43 0 9 37 13 158 15 l157 3 3 218 2 217 140 0 140 0 2 -217 3
-218 190 0 190 0 3 218 2 217 60 0 60 0 0 -365 0 -365 -51 0 c-63 0 -87 13
-105 56 -12 27 -20 35 -37 32 -21 -3 -22 -7 -22 -123 0 -117 1 -120 23 -123
18 -3 25 3 33 28 14 38 54 60 114 60 l45 0 0 -80 c0 -117 -28 -160 -117 -178
-46 -10 -49 -31 -8 -52 42 -20 254 -26 315 -8 59 18 63 48 7 60 -86 18 -117
66 -117 182 l0 76 45 0 c60 0 100 -22 114 -60 8 -25 15 -31 33 -28 22 3 23 6
23 123 0 116 -1 120 -22 123 -17 3 -25 -5 -37 -32 -18 -43 -42 -56 -105 -56
l-51 0 0 365 0 365 45 0 45 0 2 -217 3 -218 32 -3 c31 -3 35 1 140 159 l108
162 5 -159 5 -159 128 -3 127 -3 0 -192 0 -192 -29 -17 c-16 -9 -37 -28 -46
-42 -23 -35 -22 -112 3 -145 40 -54 145 -63 199 -17 21 18 27 34 30 77 5 64
-9 96 -54 124 l-32 20 -1 192 0 192 128 3 127 3 3 218 2 217 110 0 110 0 2
-217 3 -218 133 -3 132 -3 0 -58 c0 -47 -4 -61 -22 -78 -13 -12 -32 -23 -43
-25 -14 -2 -20 -11 -20 -28 l0 -25 125 0 125 0 0 25 c0 17 -7 26 -22 30 -48
11 -63 36 -63 100 l0 60 38 0 c43 -1 63 -14 83 -55 9 -18 22 -30 34 -30 19 0
20 7 20 125 l0 125 -24 0 c-19 0 -26 -7 -33 -30 -10 -39 -33 -55 -80 -55 l-38
0 0 58 c0 64 11 82 63 101 21 8 28 17 25 34 -3 21 -6 22 -128 22 -122 0 -125
-1 -128 -22 -3 -17 4 -26 25 -34 52 -19 63 -37 63 -101 l0 -58 -100 0 -100 0
-2 218 -3 217 -180 0 -180 0 -3 -217 -2 -218 -90 0 -90 0 0 80 c0 71 2 80 18
80 20 0 45 -24 55 -53 5 -12 15 -17 29 -15 22 3 23 7 23 108 0 101 -1 105 -22
108 -17 3 -26 -4 -34 -25 -12 -31 -26 -43 -51 -43 -14 0 -18 8 -18 36 0 45 15
73 46 84 19 7 25 16 22 33 -3 21 -7 22 -108 22 l-105 0 0 -25 c0 -18 6 -26 22
-28 31 -5 53 -39 53 -84 0 -30 -4 -38 -17 -38 -25 0 -43 13 -57 41 -6 13 -20
24 -31 24 -18 0 -20 -8 -23 -103 -2 -89 0 -103 14 -109 11 -4 23 2 36 18 34
45 39 49 58 49 18 0 20 -7 20 -80 l0 -80 -95 0 -95 0 -2 218 -3 217 -31 3
c-29 3 -35 -4 -140 -160 l-109 -163 -5 160 -5 160 -205 0 -205 0 -3 -217 -2
-218 -130 0 -130 0 -2 218 -3 217 -205 0 -205 0 -3 -217 -2 -218 -117 0 -116
0 -34 40 c-39 46 -85 59 -143 41 -22 -6 -48 -23 -59 -38 l-21 -26 0 54 c0 30
5 86 10 124 44 309 173 589 380 824 373 422 864 606 1440 540z m-1672 -1555
c26 -18 30 -65 7 -84 -8 -7 -26 -12 -40 -12 -35 0 -55 19 -55 53 0 27 30 59
55 59 6 0 21 -7 33 -16z m1990 -556 c17 -14 15 -63 -3 -78 -8 -7 -26 -12 -40
-12 -35 0 -55 19 -55 53 0 49 55 70 98 37z"/>
<path d="M626 3476 c-14 -25 -26 -49 -26 -54 0 -5 23 -31 51 -57 28 -26 49
-49 46 -51 -2 -2 -50 -9 -106 -16 -109 -13 -126 -23 -119 -71 2 -18 9 -21 31
-19 17 2 59 -11 106 -33 l79 -37 -5 -39 c-7 -47 16 -62 49 -33 25 23 61 100
53 114 -3 6 -28 10 -54 10 -52 0 -62 5 -54 26 3 9 21 14 53 14 120 0 130 36
30 110 -73 55 -88 77 -71 109 13 24 -2 71 -23 71 -8 0 -26 -20 -40 -44z"/>
<path d="M3900 3184 c-58 -13 -126 -24 -151 -24 -25 0 -48 -3 -52 -6 -3 -4 1
-20 10 -37 14 -28 17 -29 28 -14 7 9 24 17 39 17 23 0 31 -8 51 -52 36 -76 32
-93 -16 -67 -12 6 -27 8 -35 5 -11 -4 -8 -20 15 -83 26 -72 31 -78 57 -78 26
0 31 8 69 90 22 50 59 126 83 169 41 76 47 107 20 105 -7 -1 -60 -12 -118 -25z
m40 -66 c0 -23 -18 -41 -34 -35 -9 4 -16 16 -16 27 0 15 7 20 25 20 14 0 25
-6 25 -12z"/>
<path d="M1043 1029 c-6 -6 -9 -27 -6 -47 3 -24 -3 -56 -17 -91 -34 -88 -52
-175 -40 -206 l10 -26 126 66 c82 42 138 65 159 65 19 0 37 4 40 10 3 5 -14
31 -39 57 l-45 48 -11 -30 c-25 -65 -58 -79 -111 -48 -22 13 -29 25 -29 48 0
39 9 51 44 64 35 14 31 25 -25 67 -32 23 -49 30 -56 23z m50 -235 l31 -17 -48
-24 c-26 -13 -49 -23 -51 -21 -4 4 26 78 32 78 2 0 18 -7 36 -16z"/>
<path d="M3288 950 c-47 -39 -53 -58 -32 -110 15 -36 15 -48 5 -77 -19 -52 1
-68 34 -28 93 111 97 121 49 109 -26 -7 -30 7 -17 55 5 20 10 22 41 18 56 -10
93 -54 107 -130 6 -29 3 -42 -9 -56 -15 -17 -21 -17 -61 -6 -69 21 -76 -10
-16 -69 41 -40 65 -43 78 -9 4 9 21 29 39 45 45 40 59 78 44 122 -24 75 -135
166 -201 166 -13 0 -41 -14 -61 -30z"/>
</g>
</svg>
