<?xml version="1.0" standalone="no"?>
<!DOCTYPE svg PUBLIC "-//W3C//DTD SVG 20010904//EN"
 "http://www.w3.org/TR/2001/REC-SVG-20010904/DTD/svg10.dtd">
<svg version="1.0" xmlns="http://www.w3.org/2000/svg"
 width="439.682483pt" height="439.091778pt" viewBox="0 0 439.682483 439.091778"
 preserveAspectRatio="xMidYMid meet">
<metadata>
Created by potrace 1.16, written by Peter Selinger 2001-2019
</metadata>
<g transform="translate(-5.117112,444.552044) scale(0.100000,-0.100000)"
fill="#000000" stroke="none">
<path d="M2025 4439 c-502 -52 -924 -245 -1286 -587 -435 -412 -663 -917 -686
-1517 -27 -707 250 -1329 795 -1786 308 -257 653 -412 1062 -476 160 -25 519
-25 680 0 390 60 735 211 1030 451 292 237 526 541 658 856 184 435 220 959
101 1434 -93 370 -285 702 -574 991 -344 344 -750 551 -1215 620 -129 19 -443
27 -565 14z m544 -84 c463 -65 855 -268 1202 -623 179 -182 291 -336 392 -538
162 -323 236 -722 207 -1109 -44 -596 -307 -1095 -784 -1493 -486 -405 -1144
-558 -1811 -420 -208 43 -471 151 -656 269 -389 250 -722 656 -867 1059 -144
400 -169 853 -71 1267 172 723 782 1348 1502 1538 273 72 594 90 886 50z"/>
<path d="M2034 4329 c-203 -18 -450 -82 -637 -165 -354 -157 -693 -452 -927
-809 -154 -236 -266 -565 -299 -880 -13 -125 -5 -440 14 -560 82 -516 342
-959 765 -1305 419 -343 975 -499 1547 -435 498 56 908 262 1268 637 370 385
556 835 570 1378 15 586 -171 1076 -566 1494 -456 482 -1057 706 -1735 645z
m476 -40 c466 -57 848 -246 1190 -589 333 -332 517 -694 584 -1151 21 -138 21
-456 1 -597 -66 -462 -265 -848 -612 -1183 -327 -316 -695 -494 -1143 -555
-123 -16 -396 -18 -525 -4 -477 54 -883 255 -1231 611 -315 324 -498 692 -559
1125 -18 126 -21 447 -5 569 58 456 240 831 564 1164 176 179 347 309 545 410
184 94 419 167 626 195 122 17 449 20 565 5z"/>
<path d="M2050 4266 c-43 -9 -55 -15 -55 -31 0 -12 10 -21 30 -27 24 -6 44
-29 101 -120 71 -113 100 -139 137 -125 9 3 48 53 86 111 44 65 83 112 101
121 30 16 56 50 43 58 -5 3 -53 6 -107 8 -114 5 -125 -3 -77 -51 l30 -31 -26
-54 c-38 -78 -74 -72 -113 18 -24 58 -25 73 -5 81 21 8 19 33 -4 46 -24 12
-69 11 -141 -4z"/>
<path d="M2105 3894 c-436 -45 -763 -204 -1058 -514 -338 -356 -490 -816 -436
-1325 41 -379 208 -717 490 -990 272 -263 583 -411 954 -454 111 -13 382 -6
490 13 194 35 411 117 571 218 259 163 506 438 628 699 221 475 202 1070 -49
1514 -34 60 -38 72 -17 47 29 -35 42 -34 42 4 0 16 9 25 31 33 28 10 34 8 60
-18 21 -22 29 -39 29 -65 0 -34 -1 -35 -29 -30 -16 3 -32 1 -35 -5 -7 -10 38
-134 56 -158 8 -9 15 -10 30 -2 17 9 19 18 14 48 -5 33 1 49 49 130 91 152
106 186 92 204 -11 15 -24 12 -132 -23 -66 -22 -132 -40 -146 -40 -14 0 -43
12 -64 26 -25 17 -47 24 -64 21 -18 -4 -30 2 -45 22 -262 336 -623 556 -1030
626 -89 15 -354 27 -431 19z m505 -67 c309 -74 550 -208 771 -427 266 -264
413 -550 465 -903 12 -86 15 -156 11 -302 -7 -277 -44 -432 -157 -660 -80
-161 -172 -287 -310 -425 -235 -234 -485 -371 -810 -442 -93 -20 -132 -23
-335 -22 -257 0 -329 11 -533 79 -444 149 -832 535 -991 988 -63 179 -75 266
-76 532 0 257 6 310 62 495 147 496 612 942 1114 1070 162 42 242 49 469 46
187 -4 229 -7 320 -29z m1318 -684 c-24 -55 -38 -74 -38 -51 0 9 -14 28 -31
42 -32 27 -32 27 31 45 59 16 60 15 38 -36z"/>
<path d="M1681 3312 c-46 -25 -71 -74 -71 -140 0 -79 23 -120 82 -146 l48 -21
0 -222 0 -221 -32 -7 c-18 -4 -55 -19 -82 -32 l-49 -25 -133 133 c-74 74 -133
138 -131 144 2 5 25 25 51 43 61 40 108 42 161 6 38 -25 65 -26 65 -1 0 19
-51 97 -97 148 -48 53 -149 129 -173 129 -27 0 -43 -25 -26 -39 8 -7 22 -32
32 -56 20 -53 8 -98 -39 -151 l-30 -35 -29 28 c-64 60 -75 125 -32 188 24 36
26 65 4 65 -45 0 -196 -126 -249 -208 -51 -80 -34 -114 34 -68 53 36 109 35
163 -3 59 -44 61 -50 17 -88 -68 -59 -126 -62 -195 -13 -24 17 -29 18 -40 5
-42 -51 234 -327 285 -285 12 10 11 17 -11 46 -41 53 -42 108 -5 167 17 26 38
50 47 54 11 4 55 -33 149 -127 l133 -133 -29 -55 c-16 -30 -29 -65 -29 -78 l0
-23 -226 -3 -225 -3 -18 40 c-24 53 -47 72 -103 84 -79 18 -156 -7 -183 -59
-38 -74 -27 -175 25 -225 27 -26 39 -30 103 -33 88 -4 130 17 155 78 l17 40
228 0 227 0 0 -24 c0 -13 13 -49 29 -79 l29 -55 -133 -132 c-94 -94 -138 -131
-149 -127 -24 10 -76 97 -76 129 0 30 22 81 46 109 13 14 12 18 0 28 -12 10
-21 9 -48 -5 -87 -45 -205 -161 -239 -236 -9 -21 -9 -31 0 -42 11 -13 17 -11
47 9 71 48 134 41 194 -20 l34 -35 -34 -35 c-60 -62 -118 -68 -194 -19 -89 59
-62 -36 44 -149 123 -132 240 -174 176 -64 -15 24 -26 56 -26 71 0 34 30 94
63 124 l25 24 36 -47 c50 -66 55 -103 22 -167 -35 -67 -23 -82 40 -49 111 59
256 233 222 267 -11 12 -19 10 -49 -12 -50 -35 -107 -35 -159 1 -74 51 -77 43
72 192 l136 136 33 -21 c19 -11 55 -26 82 -32 l47 -12 0 -218 0 -219 -42 -23
c-61 -34 -88 -78 -88 -147 0 -108 54 -161 163 -161 93 0 149 41 162 121 15 88
-31 178 -101 195 l-24 6 0 223 0 222 43 12 c23 7 57 21 75 32 23 13 38 16 50
10 34 -19 264 -259 258 -269 -3 -6 -27 -24 -53 -41 -60 -40 -114 -42 -167 -6
-39 27 -56 25 -56 -4 0 -60 211 -271 271 -271 29 0 31 17 4 56 -43 63 -31 136
33 197 l29 28 25 -33 c57 -76 64 -132 23 -192 -43 -63 -9 -75 68 -26 65 41
170 149 195 201 19 37 20 46 8 57 -12 12 -19 11 -48 -11 -65 -50 -128 -44
-187 17 -37 39 -34 58 18 95 58 42 117 40 170 -5 25 -21 34 -24 46 -14 36 30
-107 209 -220 275 -41 25 -48 26 -61 13 -14 -13 -12 -19 10 -53 38 -55 35
-111 -6 -166 -18 -23 -38 -44 -43 -46 -6 -2 -70 57 -142 129 l-133 133 30 59
c17 32 30 67 30 77 0 18 12 19 223 19 l222 0 20 -41 c12 -26 33 -49 55 -60 42
-23 124 -25 164 -4 15 8 30 15 31 15 2 0 6 -26 10 -57 20 -183 48 -309 97
-431 16 -41 31 -60 62 -79 113 -71 176 -135 191 -196 14 -54 -50 -136 -95
-122 -36 11 -80 56 -106 107 -14 27 -30 47 -37 45 -7 -3 -10 -11 -7 -18 2 -8
4 -40 4 -71 0 -74 -25 -112 -76 -116 -32 -3 -37 0 -47 29 -16 47 -14 100 7
141 23 45 13 85 -17 68 -34 -18 -109 -12 -131 10 -45 45 -34 106 25 135 40 19
40 19 59 -1 25 -25 20 -53 -11 -60 -42 -10 -56 -24 -42 -40 18 -22 46 -16 84
17 42 37 48 86 14 120 -18 18 -30 21 -75 17 -61 -5 -89 -25 -111 -77 -36 -84
44 -185 133 -168 20 4 24 1 18 -12 -3 -9 -9 -37 -11 -62 -18 -161 149 -236
203 -92 10 27 18 49 20 51 1 2 19 -8 39 -22 86 -59 174 -54 202 12 31 73 -18
237 -87 296 -17 14 -30 26 -28 26 2 1 39 3 83 5 472 28 657 216 657 670 0 335
-104 506 -347 569 -82 21 -213 36 -312 36 -46 0 -83 4 -83 8 0 5 18 33 40 63
23 29 43 65 46 79 3 14 8 31 10 39 9 30 -17 91 -53 120 -65 54 -132 53 -186
-1 -18 -17 -33 -26 -35 -19 -8 24 -63 43 -105 36 -60 -10 -85 -29 -97 -76 -14
-50 1 -103 35 -125 l24 -15 -39 -35 c-49 -44 -80 -108 -80 -163 0 -37 6 -49
39 -82 53 -54 98 -51 159 11 26 25 32 40 32 73 0 55 -31 107 -64 107 -49 0
-123 -87 -96 -114 8 -8 20 0 45 29 28 34 36 38 52 29 25 -16 27 -53 3 -91 -16
-27 -26 -33 -55 -33 -22 0 -43 8 -56 21 -18 18 -21 29 -16 71 10 83 51 121
165 154 24 7 11 23 -39 50 -52 29 -83 71 -73 99 8 20 56 45 88 45 32 0 52 -30
67 -99 13 -61 30 -88 49 -76 8 5 10 22 6 51 -11 83 23 124 102 124 99 0 81
-94 -47 -238 -64 -72 -94 -127 -135 -240 -20 -58 -66 -248 -66 -276 0 -4 -13
3 -29 15 -22 16 -44 22 -85 22 -70 0 -114 -25 -141 -81 l-20 -42 -221 0 -221
0 -12 43 c-7 23 -22 57 -33 76 l-19 35 135 135 135 135 25 -23 c60 -56 72
-135 30 -196 -21 -31 -23 -40 -12 -51 21 -21 92 20 180 107 86 84 127 154 103
178 -11 11 -18 10 -47 -11 -18 -14 -46 -28 -61 -32 -34 -8 -102 20 -136 58
l-25 26 34 35 c60 62 127 67 195 13 21 -16 28 -18 40 -8 13 11 11 19 -12 61
-43 79 -179 208 -245 232 -9 3 -22 0 -28 -8 -9 -11 -6 -22 14 -52 36 -52 35
-105 -3 -165 -16 -25 -33 -48 -39 -52 -5 -3 -29 15 -52 40 -41 44 -42 48 -38
98 3 33 13 65 27 84 23 33 21 52 -5 52 -42 0 -191 -128 -248 -214 -47 -70 -29
-104 33 -62 63 44 133 32 193 -31 l28 -29 -135 -134 -134 -134 -53 27 c-29 14
-65 29 -80 33 l-28 6 0 222 1 221 41 20 c65 31 83 63 82 145 0 80 -18 113 -75
142 -46 24 -134 23 -178 0z m152 -72 c34 -27 42 -69 23 -114 -17 -42 -55 -60
-103 -51 -59 11 -88 74 -63 140 17 46 98 60 143 25z m1455 -471 c234 -25 337
-81 407 -220 38 -75 55 -167 55 -309 1 -321 -112 -484 -378 -544 -60 -14 -259
-35 -334 -36 -47 0 -167 383 -168 533 0 15 14 17 154 17 l154 0 4 -30 c5 -35
2 -40 -37 -62 -45 -25 -69 -73 -69 -135 2 -96 53 -138 161 -131 52 3 68 9 89
29 55 55 52 170 -6 222 -17 15 -37 27 -45 27 -11 0 -15 11 -15 40 l0 40 103 0
c86 0 110 -4 152 -24 79 -37 109 -80 124 -176 4 -30 11 -45 21 -45 13 0 15 39
15 285 0 245 -2 285 -15 285 -10 0 -17 -16 -22 -53 -20 -138 -99 -192 -279
-192 l-99 0 0 38 c0 32 5 39 32 52 52 24 73 62 72 128 0 32 -6 68 -13 80 -33
62 -155 84 -222 39 -40 -27 -62 -90 -52 -151 7 -44 58 -106 87 -106 12 0 16
-10 16 -40 l0 -40 -155 0 c-141 0 -155 2 -155 18 0 9 5 58 11 107 13 110 48
219 97 303 l36 62 88 0 c49 0 132 -5 186 -11z m-20 -205 c35 -24 27 -114 -10
-114 -4 0 -8 8 -8 19 0 10 -7 24 -15 31 -15 13 -35 6 -35 -13 0 -7 -4 -18 -9
-26 -16 -25 -41 6 -41 50 0 43 26 69 70 69 14 0 36 -7 48 -16z m-1528 -156 l0
-72 -50 49 c-27 27 -50 53 -50 58 0 10 58 36 83 37 15 0 17 -10 17 -72z m135
55 c19 -9 35 -19 35 -23 0 -3 -22 -28 -50 -55 l-50 -49 0 72 c0 81 4 84 65 55z
m-243 -120 c21 -20 38 -40 38 -44 0 -4 -29 -9 -65 -11 -48 -2 -65 0 -65 10 0
25 29 82 42 82 6 0 29 -17 50 -37z m361 -7 l15 -44 -36 -4 c-21 -1 -52 -2 -71
0 l-34 3 44 45 c24 24 49 44 55 44 7 0 19 -20 27 -44z m-1075 -16 c63 -59 26
-160 -59 -160 -54 0 -75 13 -89 55 -13 41 -2 89 27 111 28 21 96 17 121 -6z
m1837 -5 c19 -18 25 -35 25 -65 0 -56 -34 -90 -90 -90 -56 0 -90 34 -90 90 0
56 34 90 90 90 30 0 47 -6 65 -25z m-1120 -155 c-26 -27 -53 -47 -58 -43 -10
6 -37 66 -37 83 0 6 29 10 72 10 l72 0 -49 -50z m369 28 c-7 -25 -33 -78 -37
-78 -2 0 -25 23 -52 50 l-49 50 73 0 c70 0 72 -1 65 -22z m-264 -103 c0 -59
-2 -65 -20 -65 -23 0 -80 27 -80 37 0 10 82 93 92 93 4 0 8 -29 8 -65z m128
22 c23 -23 42 -46 42 -50 0 -10 -63 -37 -85 -37 -12 0 -15 13 -15 65 0 36 4
65 8 65 4 0 27 -19 50 -43z m1331 -87 c5 -16 14 -30 18 -30 15 0 33 23 33 42
0 21 11 23 28 6 17 -17 15 -78 -5 -100 -20 -23 -80 -24 -105 -1 -30 27 -20
113 13 113 4 0 12 -13 18 -30z m-1353 -621 c24 -26 23 -102 -1 -129 -39 -43
-131 -34 -154 16 -25 56 2 129 52 136 42 6 86 -4 103 -23z"/>
<path d="M511 3287 c-6 -8 -8 -17 -5 -20 4 -4 -9 -24 -29 -46 -44 -49 -53 -81
-38 -130 27 -90 101 -149 200 -159 40 -4 52 0 79 23 45 37 62 75 62 133 0 35
-6 57 -20 73 -20 24 -20 24 -35 5 -9 -11 -15 -40 -15 -67 0 -47 -1 -48 -36
-55 -41 -7 -71 4 -126 47 -28 23 -38 38 -38 60 0 33 18 41 90 37 42 -3 45 -1
45 22 0 42 -110 105 -134 77z"/>
<path d="M1045 1011 c-3 -6 0 -31 6 -57 11 -42 9 -63 -11 -164 -24 -122 -23
-156 8 -148 10 3 63 32 118 64 85 51 106 59 149 59 34 0 50 4 50 13 0 16 -125
113 -136 106 -5 -3 -9 -20 -9 -39 0 -40 -22 -51 -66 -35 -47 18 -53 27 -41 60
9 25 17 30 44 30 17 0 34 4 37 9 6 9 -116 111 -133 111 -5 0 -12 -4 -16 -9z
m98 -251 c4 -4 -11 -19 -34 -35 l-42 -27 6 23 c4 13 7 34 7 46 0 21 2 22 28
11 15 -7 31 -15 35 -18z"/>
<path d="M3247 898 c-17 -22 -69 -64 -115 -94 -45 -30 -85 -61 -88 -69 -3 -8
1 -34 8 -57 12 -35 20 -44 41 -46 16 -2 29 2 31 10 17 58 42 114 58 130 18 18
20 18 49 1 17 -10 53 -44 80 -77 44 -52 49 -62 43 -92 -10 -56 17 -55 79 2 28
27 52 56 52 64 0 8 -14 17 -35 21 -34 7 -53 25 -105 100 -18 25 -26 51 -28 89
-3 69 -24 75 -70 18z"/>
</g>
</svg>
