<?xml version="1.0" standalone="no"?>
<!DOCTYPE svg PUBLIC "-//W3C//DTD SVG 20010904//EN"
 "http://www.w3.org/TR/2001/REC-SVG-20010904/DTD/svg10.dtd">
<svg version="1.0" xmlns="http://www.w3.org/2000/svg"
 width="439.775698pt" height="439.692012pt" viewBox="0 0 439.775698 439.692012"
 preserveAspectRatio="xMidYMid meet">
<metadata>
Created by potrace 1.16, written by Peter Selinger 2001-2019
</metadata>
<g transform="translate(-5.033011,444.801996) scale(0.100000,-0.100000)"
fill="#000000" stroke="none">
<path d="M1995 4435 c-666 -77 -1214 -417 -1602 -995 -334 -498 -433 -1205
-256 -1825 189 -660 746 -1238 1402 -1454 513 -169 1121 -142 1611 73 447 196
865 601 1086 1053 285 584 283 1356 -7 1935 -248 496 -698 905 -1200 1092
-300 111 -708 159 -1034 121z m579 -81 c365 -51 710 -202 1006 -441 109 -88
305 -293 387 -403 219 -296 346 -611 394 -980 18 -140 16 -451 -5 -593 -76
-528 -330 -975 -759 -1336 -173 -146 -447 -302 -642 -366 -247 -81 -423 -108
-705 -108 -232 0 -347 13 -540 60 -576 140 -1113 582 -1381 1138 -147 306
-203 561 -203 925 0 366 57 622 205 927 266 548 780 977 1352 1128 274 73 593
90 891 49z"/>
<path d="M2034 4329 c-369 -33 -718 -168 -1029 -398 -114 -84 -343 -310 -427
-421 -265 -352 -396 -725 -415 -1180 -23 -584 172 -1102 572 -1519 418 -436
915 -648 1515 -649 593 0 1094 213 1505 640 335 346 520 740 569 1206 49 463
-34 888 -246 1264 -174 308 -491 626 -795 800 -366 208 -798 297 -1249 257z
m579 -53 c326 -62 603 -181 849 -366 422 -318 712 -766 802 -1239 41 -214 49
-501 21 -712 -60 -460 -268 -861 -621 -1199 -334 -319 -723 -500 -1182 -550
-143 -16 -463 -8 -587 14 -459 83 -812 274 -1145 622 -313 326 -503 739 -545
1184 -10 96 -9 345 0 441 46 479 251 898 612 1250 182 177 346 294 548 390
183 87 414 154 610 178 125 15 533 6 638 -13z"/>
<path d="M2218 4263 c-21 -25 -95 -150 -115 -195 -11 -24 -27 -41 -44 -47 -35
-12 -67 -57 -51 -73 15 -15 148 -16 162 -2 9 9 8 20 -4 43 -15 29 -15 33 0 56
11 17 25 25 44 25 15 0 41 3 58 6 29 6 31 4 43 -37 9 -29 10 -44 3 -46 -6 -2
-20 -10 -30 -18 -15 -11 -17 -18 -8 -32 9 -14 26 -19 78 -21 78 -3 90 10 56
57 -11 17 -27 55 -35 86 -19 72 -80 191 -104 205 -27 14 -36 13 -53 -7z m50
-95 c6 -17 10 -33 8 -36 -2 -2 -20 -2 -40 0 l-35 3 20 33 c12 17 24 32 28 32
4 0 12 -14 19 -32z"/>
<path d="M2065 3889 c-296 -31 -582 -143 -810 -318 -130 -100 -287 -265 -379
-400 -38 -56 -51 -50 -16 7 39 64 19 182 -30 182 -11 0 -58 -20 -106 -45 -47
-25 -87 -45 -90 -45 -2 0 -10 13 -18 29 -20 38 -6 57 54 75 72 21 66 70 -13
104 -26 11 -28 9 -52 -29 -51 -80 -68 -122 -68 -165 0 -51 14 -71 68 -95 54
-25 59 -24 102 14 51 45 88 67 112 67 16 0 18 -4 12 -27 -5 -20 -17 -29 -45
-37 -22 -6 -44 -19 -50 -29 -9 -14 -6 -22 19 -42 17 -14 39 -27 51 -30 19 -6
17 -12 -33 -110 -166 -324 -214 -731 -132 -1119 125 -593 637 -1107 1230
-1234 616 -133 1205 55 1613 514 292 327 435 735 412 1172 -22 399 -152 721
-410 1014 -361 408 -870 604 -1421 547z m525 -59 c408 -83 771 -334 1016 -700
156 -235 239 -492 252 -785 15 -316 -31 -551 -158 -810 -79 -160 -171 -286
-310 -425 -319 -318 -686 -470 -1135 -470 -480 0 -853 160 -1183 505 -211 221
-348 483 -409 782 -28 137 -25 532 4 665 125 557 536 1016 1067 1192 251 83
585 101 856 46z"/>
<path d="M1967 3383 c-4 -3 -7 -78 -7 -165 l0 -158 -309 0 -309 0 27 28 c53
52 46 172 -12 216 -23 17 -43 21 -97 21 -85 0 -119 -21 -138 -86 -17 -59 -7
-116 28 -151 l28 -28 -42 0 c-34 0 -46 6 -67 29 -30 34 -65 46 -112 37 -53
-10 -79 -45 -79 -107 0 -47 3 -56 31 -81 49 -44 142 -32 171 22 8 15 21 20 50
20 l40 0 0 -145 0 -145 -78 0 c-76 0 -77 0 -90 30 -17 38 -58 60 -112 60 -74
0 -117 -37 -121 -105 -4 -65 2 -87 30 -116 25 -24 38 -29 80 -29 68 0 98 13
122 55 l21 36 72 -3 71 -3 3 -182 2 -183 -77 0 c-77 0 -78 0 -91 30 -24 53
-97 75 -170 49 -53 -18 -78 -81 -62 -155 13 -56 49 -84 110 -84 67 0 97 14
121 55 l21 36 72 -3 71 -3 6 -290 c4 -164 12 -310 18 -335 40 -154 93 -273
141 -314 66 -55 170 -26 273 76 66 65 109 147 133 255 23 103 46 109 60 15 9
-57 29 -64 66 -24 24 28 28 40 28 96 0 76 -27 162 -83 271 -43 81 -118 172
-135 161 -5 -3 -12 -36 -15 -73 -4 -53 -15 -89 -52 -168 -45 -94 -48 -106 -49
-185 -1 -78 1 -85 18 -85 13 0 28 16 45 50 18 34 33 51 49 53 29 4 28 -4 -8
-113 -57 -171 -117 -244 -208 -252 -100 -9 -177 69 -202 206 -6 29 -10 190
-10 357 l0 304 79 0 c44 0 83 -4 86 -10 12 -20 -20 -65 -55 -76 -27 -9 -35
-17 -35 -35 0 -24 0 -24 125 -24 l125 0 0 25 c0 17 -6 26 -20 28 -30 6 -65 43
-65 69 l0 23 365 0 365 0 0 -130 0 -130 -61 0 c-104 0 -157 39 -169 124 -4 32
-9 41 -24 41 -61 0 -75 -330 -17 -389 25 -25 37 -15 44 35 10 76 76 118 185
119 l42 0 0 -326 0 -326 -215 -217 c-118 -120 -212 -221 -208 -224 9 -9 918
-9 927 0 3 4 -91 106 -211 227 l-218 221 3 324 3 324 70 -6 c100 -8 145 -44
158 -125 8 -49 31 -48 56 3 27 54 28 269 2 328 -21 49 -49 47 -58 -3 -15 -91
-65 -130 -167 -130 l-61 0 -3 120 c-2 66 -1 125 0 130 2 6 139 10 368 10 349
0 364 -1 364 -19 0 -26 -37 -69 -63 -73 -16 -2 -22 -10 -22 -28 l0 -25 120 0
120 0 0 25 c0 18 -6 26 -21 28 -28 4 -53 32 -56 63 -3 24 -2 24 77 24 l80 0
-1 -175 c-2 -184 -24 -418 -50 -516 -30 -118 -85 -168 -184 -166 -101 1 -191
60 -205 135 -3 18 -5 77 -3 132 4 117 20 133 48 49 24 -71 38 -94 56 -94 56 0
37 185 -52 518 -7 26 -43 11 -74 -30 -61 -83 -126 -240 -154 -373 -11 -55 -11
-66 0 -76 18 -15 48 10 74 61 l18 34 6 -64 c4 -36 9 -87 12 -115 9 -83 26
-127 69 -171 63 -65 197 -95 278 -60 79 33 191 188 216 301 18 80 20 116 20
371 l1 241 54 6 c70 7 130 39 160 85 49 74 55 227 12 310 -33 65 -121 112
-206 112 -19 0 -20 8 -20 145 l0 145 37 0 c29 0 42 -7 64 -32 24 -30 32 -33
82 -33 45 0 60 5 81 24 22 21 26 33 26 81 0 48 -4 60 -26 81 -21 19 -36 24
-81 24 -50 0 -58 -3 -82 -32 -23 -28 -34 -33 -71 -33 l-43 0 25 20 c45 35 54
133 19 198 -36 68 -202 68 -244 0 -38 -59 -27 -160 20 -197 l26 -21 -311 0
-312 0 -2 163 -3 162 -281 3 c-154 1 -283 -1 -287 -5z m505 -235 l3 -163 35
-2 c19 -1 43 -2 54 -2 15 -1 13 -6 -12 -29 -38 -35 -47 -69 -44 -151 2 -24 13
-44 41 -72 l39 -39 -341 0 -340 0 27 21 c39 31 56 71 56 133 0 50 -4 60 -36
96 -22 24 -31 40 -23 41 8 0 32 1 54 2 l40 2 3 163 2 162 220 0 220 0 2 -162z
m-1164 96 c17 -12 22 -25 22 -59 0 -49 -24 -75 -70 -75 -46 0 -70 26 -70 75 0
49 24 75 70 75 14 0 36 -7 48 -16z m1982 -4 c29 -29 27 -94 -2 -114 -30 -21
-71 -20 -97 2 -31 25 -32 89 -2 114 30 24 76 23 101 -2z m-2286 -186 c21 -8
21 -60 0 -68 -30 -12 -54 3 -54 34 0 34 21 47 54 34z m2534 -6 c28 -28 1 -75
-38 -63 -14 4 -20 15 -20 35 0 37 33 53 58 28z m-1829 -97 c-64 -65 -57 -185
15 -243 20 -17 9 -18 -231 -18 l-253 0 0 145 0 145 238 2 c130 2 242 2 248 0
6 -2 -1 -16 -17 -31z m1551 -116 l0 -145 -251 0 -251 0 36 40 c33 37 36 45 36
101 0 66 -18 112 -51 130 -13 6 -17 14 -11 18 5 3 118 5 251 3 l241 -3 0 -144z
m-1361 71 c10 -11 16 -34 16 -67 0 -42 -4 -54 -25 -71 l-25 -20 -10 40 c-5 22
-14 44 -18 49 -12 11 -37 -26 -37 -54 0 -27 -16 -30 -42 -6 -29 26 -25 97 8
130 22 22 32 25 71 20 25 -2 52 -12 62 -21z m836 -1 c29 -29 34 -88 9 -123
-22 -32 -39 -27 -50 16 -5 22 -15 37 -24 37 -9 0 -19 -15 -24 -37 -5 -21 -15
-38 -22 -38 -22 0 -44 42 -44 83 0 78 99 118 155 62z m-1801 -217 c31 -44 9
-88 -43 -88 -36 0 -51 17 -51 57 0 52 64 74 94 31z m856 -113 c0 -37 -3 -45
-18 -45 -20 0 -45 24 -55 53 -5 12 -15 17 -29 15 -22 -3 -23 -8 -26 -96 -3
-95 4 -122 35 -122 7 0 16 8 20 18 10 28 35 52 55 52 15 0 18 -8 18 -42 0 -50
-8 -65 -41 -82 -13 -6 -24 -20 -24 -31 0 -18 8 -20 103 -23 89 -2 103 0 109
15 4 11 0 21 -11 27 -50 30 -58 42 -58 85 1 24 3 45 6 48 11 12 47 -11 62 -38
9 -19 21 -29 32 -27 15 3 17 18 17 108 0 89 -2 105 -16 108 -10 2 -25 -11 -37
-33 -13 -22 -29 -35 -42 -35 -17 0 -20 6 -20 45 l0 45 379 0 c269 0 380 -3
383 -11 2 -6 2 -26 0 -45 -6 -47 -36 -46 -64 2 -15 25 -26 34 -42 32 -20 -3
-21 -9 -21 -108 0 -100 1 -105 22 -108 16 -2 26 5 37 26 14 27 34 42 57 42 5
0 9 -20 9 -45 0 -45 -13 -66 -55 -91 -12 -7 -16 -16 -12 -27 6 -15 20 -17 109
-15 95 3 103 5 103 23 0 11 -11 25 -24 31 -13 7 -28 18 -32 26 -12 19 -11 98
2 98 22 0 50 -22 60 -46 6 -16 15 -24 27 -22 15 3 17 16 17 108 0 92 -2 105
-18 108 -10 2 -20 -4 -24 -15 -10 -29 -35 -53 -55 -53 -15 0 -18 8 -18 45 l0
45 273 -2 272 -3 3 -182 2 -183 -85 0 -85 0 0 65 c0 79 18 119 60 134 25 8 31
15 28 33 -3 22 -6 23 -123 23 -116 0 -120 -1 -123 -22 -3 -17 5 -25 32 -37 46
-19 56 -41 56 -125 l0 -71 -318 0 -318 0 4 69 c4 67 3 70 -29 105 -29 32 -42
38 -90 43 -98 10 -156 -35 -162 -124 -1 -21 2 -50 6 -65 l7 -28 -320 0 -320 0
0 71 c0 84 10 106 56 125 27 12 35 20 32 37 -3 21 -7 22 -128 22 l-125 0 0
-24 c0 -20 7 -27 33 -33 42 -11 62 -55 62 -138 l0 -60 -85 0 -85 0 0 185 0
185 275 0 275 0 0 -45z m1605 34 c45 -12 80 -40 101 -81 20 -39 18 -155 -4
-198 -19 -39 -88 -80 -134 -80 l-28 0 0 185 c0 203 -4 193 65 174z m-1088
-236 c22 -29 16 -90 -9 -107 -47 -33 -113 -12 -118 39 -4 39 0 55 21 76 17 17
29 20 58 15 20 -3 42 -13 48 -23z m-1373 -125 c31 -44 9 -88 -43 -88 -36 0
-51 17 -51 57 0 52 64 74 94 31z m1476 -1273 l155 -155 -315 0 -315 0 155 155
c85 85 157 155 160 155 3 0 75 -70 160 -155z"/>
<path d="M3717 3534 c-3 -3 -4 -18 -1 -33 5 -22 -2 -34 -41 -70 -26 -23 -66
-52 -91 -62 -43 -20 -44 -20 -30 -47 31 -59 86 -81 86 -33 0 11 12 34 28 52
l27 33 5 -105 c5 -104 5 -104 30 -101 14 1 43 21 65 42 50 49 94 64 124 43 25
-17 43 -9 34 15 -13 35 -64 102 -79 102 -8 0 -19 -12 -25 -27 -19 -49 -26 -58
-44 -62 -16 -3 -17 4 -13 83 5 75 3 92 -16 129 -20 39 -44 56 -59 41z"/>
<path d="M729 1448 c0 -2 -11 -55 -24 -118 -15 -72 -37 -140 -58 -184 -28 -55
-33 -75 -26 -93 11 -30 15 -29 161 39 l107 50 34 -21 c34 -21 34 -21 52 -1 17
19 16 22 -35 90 -29 39 -58 69 -64 67 -9 -3 -19 -25 -32 -74 -5 -20 -39 -15
-61 10 -32 35 -44 64 -37 93 6 23 10 25 40 19 53 -9 53 15 2 75 -37 43 -56 58
-59 48z m61 -278 c0 -8 -111 -62 -116 -57 -3 2 7 32 22 66 l27 62 34 -32 c18
-18 33 -36 33 -39z"/>
<path d="M3681 1343 c-40 -48 -71 -131 -71 -188 0 -58 34 -99 94 -114 88 -22
108 -17 165 44 29 31 51 61 48 68 -2 6 -18 14 -35 17 -21 3 -56 26 -97 63 -63
56 -65 60 -59 96 9 53 -8 58 -45 14z m77 -164 c28 -28 52 -54 52 -58 0 -3 -13
-15 -30 -24 -42 -25 -78 -13 -97 31 -16 39 -10 102 10 102 7 0 36 -23 65 -51z"/>
<path d="M2040 527 c-27 -14 -36 -55 -10 -48 8 2 33 5 55 8 38 4 41 3 64 -38
22 -40 23 -42 5 -52 -11 -6 -34 -25 -52 -43 -26 -26 -31 -36 -24 -56 19 -51
123 -95 201 -84 88 12 154 66 92 74 -23 4 -23 5 -17 85 5 58 13 90 27 110 31
43 19 57 -45 57 -30 0 -58 -4 -61 -10 -3 -5 -2 -24 3 -42 12 -45 6 -58 -29
-58 -23 0 -32 7 -49 39 -11 22 -30 47 -42 55 -27 19 -84 20 -118 3z m240 -197
l0 -40 -44 0 c-77 0 -86 48 -12 69 53 15 56 14 56 -29z"/>
</g>
</svg>
