<?xml version="1.0" standalone="no"?>
<!DOCTYPE svg PUBLIC "-//W3C//DTD SVG 20010904//EN"
 "http://www.w3.org/TR/2001/REC-SVG-20010904/DTD/svg10.dtd">
<svg version="1.0" xmlns="http://www.w3.org/2000/svg"
 width="439.708784pt" height="439.488063pt" viewBox="0 0 439.708784 439.488063"
 preserveAspectRatio="xMidYMid meet">
<metadata>
Created by potrace 1.16, written by Peter Selinger 2001-2019
</metadata>
<g transform="translate(-5.065565,444.623161) scale(0.100000,-0.100000)"
fill="#000000" stroke="none">
<path d="M2070 4444 c-557 -51 -985 -250 -1376 -639 -383 -382 -587 -818 -635
-1355 -37 -424 51 -882 238 -1230 228 -425 638 -808 1062 -991 607 -261 1371
-232 1933 74 398 218 755 592 950 996 212 442 264 1007 138 1512 -92 372 -287
707 -581 999 -352 350 -770 558 -1249 620 -90 12 -404 21 -480 14z m498 -89
c445 -62 820 -249 1161 -580 358 -348 559 -736 627 -1212 21 -144 23 -456 5
-593 -64 -478 -260 -876 -603 -1220 -287 -288 -606 -472 -977 -565 -179 -45
-300 -58 -531 -58 -237 0 -352 13 -550 63 -427 107 -826 371 -1125 745 -188
234 -330 522 -395 800 -75 320 -74 727 1 1030 128 515 453 970 909 1273 418
278 943 390 1478 317z"/>
<path d="M2030 4329 c-490 -50 -899 -246 -1256 -603 -395 -395 -587 -833 -611
-1392 -20 -491 117 -943 401 -1324 260 -348 627 -617 1018 -744 242 -79 435
-106 718 -101 316 6 600 71 863 199 402 195 775 567 971 969 196 403 254 889
161 1354 -76 378 -247 702 -525 996 -331 350 -731 561 -1195 632 -125 19 -419
27 -545 14z m583 -53 c435 -82 773 -262 1087 -576 310 -309 498 -661 570
-1065 61 -344 35 -732 -71 -1050 -203 -609 -745 -1132 -1354 -1305 -208 -59
-363 -80 -602 -80 -585 0 -1070 207 -1484 636 -253 263 -430 581 -509 919 -37
160 -51 294 -51 488 1 308 33 494 128 747 103 275 262 510 499 740 321 312
668 484 1119 555 125 20 545 14 668 -9z"/>
<path d="M2369 4259 c-26 -4 -56 -12 -68 -18 -23 -13 -20 -31 5 -31 10 0 14
-12 14 -40 0 -40 0 -40 -39 -40 -22 0 -46 3 -55 6 -22 8 -21 63 2 80 26 19 4
34 -60 41 -54 5 -98 -7 -98 -27 0 -5 14 -16 30 -25 l30 -16 0 -104 0 -105 -34
0 c-37 0 -66 -24 -49 -41 5 -5 47 -9 94 -7 76 3 84 5 87 24 2 11 -4 27 -13 34
-19 16 -20 59 -1 66 14 5 55 8 89 5 12 -1 17 -10 17 -31 0 -16 -5 -30 -10 -30
-20 0 -29 -44 -12 -62 16 -20 57 -24 67 -8 3 6 17 10 30 10 33 0 38 14 15 35
-18 16 -20 31 -20 125 0 104 1 107 25 118 51 24 20 51 -46 41z"/>
<path d="M2065 3890 c-375 -43 -689 -189 -957 -448 -320 -308 -484 -672 -504
-1117 -18 -375 83 -729 289 -1022 82 -116 288 -323 406 -406 328 -233 725
-331 1151 -285 361 39 686 197 955 463 270 267 417 552 477 925 16 98 15 403
-1 505 -56 357 -208 653 -472 915 -252 251 -528 395 -869 454 -114 20 -365 28
-475 16z m527 -59 c340 -74 640 -252 875 -519 186 -212 304 -446 365 -727 20
-87 22 -130 22 -335 0 -253 -12 -343 -70 -520 -37 -112 -135 -303 -211 -410
-134 -186 -350 -380 -547 -489 -201 -111 -492 -191 -691 -191 -39 0 -39 1 -15
13 64 32 77 142 24 198 -15 16 -34 29 -41 29 -10 0 -13 32 -13 145 l0 145 155
0 154 0 16 -29 c22 -43 53 -61 106 -61 33 0 57 7 84 25 33 23 41 25 71 15 44
-15 101 3 116 35 l11 24 27 -20 c40 -31 100 -36 130 -11 23 19 25 19 54 1 43
-26 63 -24 99 13 27 27 39 32 81 33 46 0 52 3 73 34 13 19 21 42 18 50 -12 31
-10 35 29 42 60 10 69 29 61 127 l-7 82 29 0 c42 0 73 26 73 60 0 15 -9 57
-20 91 l-19 64 24 25 c40 41 38 95 -5 143 -29 34 -29 34 -10 52 35 32 21 110
-32 178 -21 27 -25 37 -13 37 8 0 24 9 35 20 19 19 19 20 -5 75 -14 31 -25 59
-25 63 0 4 14 15 30 24 26 15 30 23 30 58 0 42 -33 120 -76 177 -29 38 -29 38
-4 70 31 39 25 57 -35 108 l-54 47 24 36 c35 51 32 66 -19 96 -50 29 -93 100
-75 123 17 20 1 80 -31 117 -34 38 -119 79 -218 104 -37 10 -90 32 -118 49
-130 82 -180 92 -282 54 -93 -35 -147 -121 -122 -195 6 -19 29 -50 50 -70 65
-58 146 -60 213 -5 43 35 47 61 17 119 -25 48 -52 64 -96 56 -32 -6 -68 -41
-59 -56 3 -4 23 -10 45 -14 36 -6 40 -9 40 -36 0 -27 -3 -30 -29 -30 -44 0
-81 37 -88 87 l-6 43 48 21 c95 42 209 18 275 -58 38 -42 80 -177 87 -273 12
-182 -73 -354 -258 -522 -183 -166 -375 -288 -519 -327 -41 -12 -76 -21 -77
-21 -2 0 -3 182 -3 405 l0 405 78 0 c42 0 94 -5 114 -10 45 -13 84 -60 96
-116 11 -54 33 -50 55 11 22 63 20 272 -4 319 -16 33 -37 45 -43 24 -31 -107
-44 -126 -105 -147 -19 -6 -69 -11 -112 -11 l-79 0 -1 83 c-2 115 1 138 18
174 18 38 49 60 100 71 46 10 49 31 8 52 -42 20 -254 26 -315 8 -59 -18 -63
-48 -7 -60 94 -19 117 -63 117 -217 l0 -111 -77 0 c-137 0 -185 27 -208 117
-7 26 -17 49 -23 51 -6 2 -19 -12 -29 -30 -24 -45 -27 -296 -3 -343 22 -44 41
-38 55 18 23 90 71 117 208 117 l77 0 0 -405 c0 -223 -2 -405 -4 -405 -28 0
-174 25 -216 37 -249 70 -486 265 -596 488 -51 104 -74 209 -74 334 0 184 39
300 125 380 42 38 42 38 98 30 93 -15 107 -23 107 -64 0 -20 -6 -50 -14 -68
-12 -31 -16 -33 -55 -29 -32 3 -41 8 -39 21 2 10 15 17 36 19 38 4 49 21 32
51 -14 28 -54 27 -110 -1 -44 -22 -45 -24 -48 -75 -2 -29 2 -62 8 -73 16 -30
69 -60 106 -60 64 0 164 126 164 207 0 46 -22 96 -55 121 -54 43 -229 17 -308
-46 -25 -20 -72 -38 -159 -61 -67 -18 -131 -37 -141 -43 -29 -15 -57 -70 -57
-112 0 -33 -8 -47 -50 -92 -56 -59 -65 -103 -31 -145 18 -23 18 -23 -34 -73
-35 -35 -57 -67 -68 -100 -23 -66 -21 -90 7 -123 l24 -27 -43 -48 c-57 -64
-63 -90 -30 -139 14 -22 29 -39 33 -39 4 -1 17 -9 30 -20 l22 -19 -25 -25
c-39 -39 -65 -104 -65 -164 0 -47 4 -57 31 -83 30 -28 30 -29 20 -85 -18 -96
-14 -177 10 -208 11 -14 29 -26 39 -26 17 0 18 -4 10 -26 -13 -34 -13 -100 1
-126 6 -11 26 -26 45 -34 l34 -14 -26 -51 c-14 -28 -24 -60 -22 -72 3 -19 9
-22 56 -22 28 1 52 -1 52 -3 0 -2 -7 -25 -16 -53 -21 -63 -9 -81 46 -74 l37 5
7 -48 c3 -26 13 -58 22 -70 19 -28 63 -29 97 -2 l25 20 12 -35 c20 -60 82 -74
126 -30 23 23 27 24 47 10 26 -18 81 -20 95 -2 6 7 33 12 69 11 51 -1 62 -4
90 -32 26 -27 39 -32 77 -32 63 0 93 14 117 55 l21 35 154 0 154 0 0 -145 c0
-113 -3 -145 -13 -145 -7 0 -26 -14 -43 -31 -25 -26 -29 -38 -29 -89 0 -61 17
-93 60 -111 30 -12 -41 -11 -150 2 -360 43 -685 206 -945 475 -252 262 -391
543 -441 892 -16 114 -6 461 16 562 67 307 192 545 406 774 250 267 559 433
918 491 131 22 476 13 603 -14z m-1324 -546 c3 -2 -5 -35 -17 -73 -17 -54 -21
-92 -21 -187 1 -197 37 -342 122 -493 48 -87 219 -267 301 -317 26 -17 45 -34
43 -40 -3 -9 -157 -230 -201 -288 l-20 -27 -59 39 -60 40 0 52 c-1 47 -5 54
-39 84 -62 54 -127 55 -173 4 -33 -36 -44 -64 -44 -107 0 -33 6 -45 39 -75 49
-44 87 -53 137 -32 38 16 38 16 91 -21 30 -20 56 -41 59 -45 3 -5 -16 -38 -41
-74 -46 -64 -47 -65 -94 -65 -40 0 -52 -5 -79 -33 -66 -68 -64 -142 6 -191 75
-51 139 -41 182 29 24 39 29 100 11 134 -9 17 -4 31 35 85 25 36 48 66 51 66
2 0 30 -18 61 -40 54 -39 56 -41 56 -89 1 -58 21 -85 84 -113 72 -32 130 -2
167 85 19 46 13 71 -28 115 -41 43 -87 55 -141 37 -40 -14 -41 -14 -94 23 -29
20 -55 39 -58 43 -3 5 191 295 216 323 5 5 47 -7 97 -26 95 -38 192 -63 291
-74 l62 -7 0 -393 0 -394 -155 0 -154 0 -16 30 c-25 49 -56 63 -127 58 -51 -4
-65 -9 -85 -32 -14 -17 -23 -40 -23 -60 0 -28 -4 -35 -26 -40 -19 -5 -33 -1
-49 14 l-21 20 -24 -25 c-29 -31 -73 -31 -78 0 -7 37 -20 39 -57 6 -56 -49
-95 -39 -95 24 0 37 -12 37 -67 -2 -31 -21 -58 -33 -67 -30 -25 10 -39 57 -28
94 5 18 7 34 5 37 -3 3 -23 -4 -44 -14 -47 -24 -49 -24 -49 -2 0 9 18 39 40
66 45 54 48 77 10 86 -41 10 -54 50 -36 117 8 32 12 61 9 65 -2 5 -17 8 -32 8
-15 0 -35 6 -44 13 -16 11 -16 17 -2 85 9 40 13 77 10 82 -3 4 -31 6 -63 3
-81 -7 -93 8 -62 79 12 29 40 81 61 115 20 35 35 64 31 66 -4 3 -20 7 -37 11
-39 10 -55 24 -55 47 0 22 56 136 94 192 15 21 24 42 21 47 -3 4 -24 11 -47
15 -26 5 -53 18 -70 35 -25 25 -27 31 -17 60 8 21 35 49 80 83 69 51 77 67 34
67 -32 0 -73 19 -80 38 -11 30 36 102 94 144 31 22 60 44 65 49 5 4 -10 29
-33 55 -22 26 -41 54 -41 62 0 8 37 50 82 92 59 56 80 81 75 93 -4 10 -16 17
-27 17 -43 0 -4 54 55 75 35 13 90 13 103 0z m2070 -135 l36 -35 -54 -5 c-29
-3 -55 -10 -57 -16 -2 -6 22 -28 54 -49 89 -59 133 -95 133 -111 0 -8 -16 -22
-35 -30 -19 -8 -35 -21 -35 -29 0 -8 23 -36 51 -62 82 -78 100 -127 49 -138
-16 -4 -32 -10 -35 -15 -3 -5 18 -38 46 -75 52 -68 88 -137 89 -167 0 -10 -2
-18 -4 -18 -2 0 -27 4 -56 10 -29 5 -56 7 -61 4 -6 -3 10 -23 33 -44 50 -43
84 -100 75 -123 -3 -9 -21 -20 -39 -25 -47 -12 -46 -36 1 -87 56 -61 79 -109
61 -130 -7 -8 -25 -15 -41 -15 -15 0 -30 -4 -33 -9 -3 -5 19 -39 49 -76 30
-37 55 -71 55 -76 0 -5 -15 -19 -34 -30 l-34 -20 25 -55 c33 -73 26 -99 -32
-124 -42 -18 -44 -21 -35 -45 15 -38 12 -102 -5 -135 -11 -21 -27 -32 -58 -41
-23 -6 -48 -13 -55 -15 -9 -3 -11 -11 -7 -25 4 -11 4 -32 0 -46 -6 -26 -4 -26
-89 -11 -16 2 -22 -5 -29 -34 -11 -48 -33 -49 -82 -7 -43 38 -68 33 -63 -13 3
-31 1 -33 -29 -36 -26 -3 -41 5 -76 37 -24 23 -47 38 -50 34 -4 -3 -7 -22 -7
-40 0 -71 -34 -92 -84 -52 -18 14 -26 30 -26 50 0 42 -26 88 -56 99 -33 13
-96 13 -129 0 -14 -5 -35 -26 -46 -45 l-21 -35 -154 0 -154 0 0 393 0 394 88
13 c105 15 185 40 274 85 l68 34 43 -62 c99 -140 184 -263 190 -273 4 -7 -18
-28 -51 -52 l-58 -41 -47 16 c-46 15 -49 15 -94 -8 -62 -32 -91 -84 -75 -138
6 -20 28 -52 47 -71 29 -28 43 -34 73 -34 81 2 136 55 137 131 1 41 4 46 56
83 30 22 57 40 61 40 4 0 28 -30 52 -66 44 -66 44 -66 29 -102 -36 -87 45
-194 134 -177 43 8 110 67 118 105 15 68 -56 150 -130 150 -42 0 -45 2 -90 65
-25 36 -44 69 -41 74 3 4 29 25 59 45 52 36 54 36 89 21 50 -20 92 -10 139 35
33 31 39 43 39 77 0 51 -33 102 -82 126 -50 25 -104 10 -148 -39 -26 -30 -31
-43 -28 -77 3 -41 1 -43 -56 -85 -32 -24 -62 -40 -67 -35 -4 4 -60 80 -123
168 l-114 160 31 24 c68 52 195 189 240 259 58 88 111 206 139 310 25 91 30
294 10 380 -7 30 -10 58 -6 63 8 13 97 -38 142 -81z m-2068 -1130 c26 -26 25
-46 -4 -75 -26 -26 -46 -25 -78 3 -22 19 -23 36 -2 67 20 31 56 33 84 5z
m2026 12 c6 -4 16 -17 23 -30 10 -19 10 -28 -3 -47 -25 -38 -56 -42 -83 -11
-29 34 -29 60 -1 80 24 17 47 20 64 8z m-1510 -377 c14 -21 15 -31 6 -51 -14
-30 -33 -38 -67 -30 -62 16 -49 106 15 106 21 0 35 -8 46 -25z m1018 3 c21
-30 20 -43 -6 -68 -29 -26 -63 -26 -82 2 -20 29 -20 47 1 70 23 25 68 23 87
-4z m-1472 -85 c35 -32 13 -93 -34 -93 -49 0 -74 56 -41 92 20 22 51 23 75 1z
m1912 -5 c9 -12 16 -29 16 -37 0 -25 -32 -51 -61 -51 -31 0 -49 23 -49 64 0
46 67 63 94 24z m-1420 -341 c17 -48 -23 -88 -71 -71 -22 7 -29 17 -31 42 -5
45 13 64 57 60 29 -2 38 -8 45 -31z m944 21 c7 -7 12 -27 12 -45 0 -26 -6 -36
-24 -44 -57 -26 -103 20 -77 77 8 18 18 24 44 24 18 0 38 -5 45 -12z m-471
-454 c15 -24 15 -29 2 -53 -16 -29 -61 -40 -85 -20 -17 14 -19 70 -2 87 22 22
66 14 85 -14z"/>
<path d="M632 3463 c-42 -45 -44 -50 -38 -92 13 -94 49 -122 105 -80 32 23
122 51 133 40 3 -3 4 -19 1 -34 -4 -22 -16 -33 -49 -48 -24 -10 -44 -25 -44
-33 0 -22 66 -69 86 -62 12 5 14 13 9 33 -5 21 1 33 31 64 89 92 10 188 -109
135 -39 -17 -107 -28 -107 -16 0 18 40 55 71 66 25 8 33 16 31 30 -12 61 -61
59 -120 -3z"/>
<path d="M3715 3423 c-70 -22 -85 -24 -123 -14 -24 6 -48 9 -53 6 -19 -12 -8
-56 23 -91 l32 -37 32 37 c29 34 34 36 58 25 32 -15 53 -46 65 -99 9 -39 8
-40 -12 -34 -40 13 -62 10 -61 -9 2 -19 73 -127 84 -127 13 0 26 24 39 70 7
25 28 75 47 112 18 37 38 88 44 115 10 41 9 49 -6 60 -26 19 -79 15 -169 -14z
m95 -60 c0 -10 -5 -25 -10 -33 -13 -20 -44 -2 -48 29 -3 18 2 21 27 21 23 0
31 -5 31 -17z"/>
<path d="M719 1397 c-14 -8 -25 -23 -27 -39 -3 -22 3 -29 32 -43 19 -9 42 -28
52 -43 16 -25 16 -26 -11 -49 -29 -25 -41 -22 -47 12 -5 28 -33 30 -58 5 l-22
-22 21 -22 c27 -29 26 -40 -3 -60 -24 -15 -25 -15 -35 17 -5 17 -13 49 -17 70
-8 47 -18 53 -51 32 -22 -15 -25 -22 -20 -55 7 -52 35 -107 78 -152 47 -50 72
-48 79 5 4 34 12 43 60 73 37 23 66 34 92 34 25 0 41 5 44 15 12 29 -85 203
-125 224 -11 7 -25 6 -42 -2z"/>
<path d="M3661 1315 c-17 -20 -33 -46 -37 -60 -10 -39 15 -94 67 -148 41 -42
49 -57 49 -88 0 -21 5 -41 10 -44 17 -10 59 23 77 60 19 40 9 59 -35 70 -43
11 -91 53 -115 101 -29 60 -17 79 47 78 69 -1 100 -28 135 -118 11 -26 13 -27
34 -14 27 18 69 78 64 92 -2 6 -19 12 -38 14 -19 2 -41 10 -49 17 -21 19 -142
75 -161 75 -10 0 -31 -16 -48 -35z"/>
<path d="M2037 542 c-38 -42 -12 -64 50 -44 44 15 47 14 57 -2 6 -10 21 -34
34 -54 l23 -35 -35 -29 c-20 -16 -36 -37 -36 -47 0 -41 84 -84 160 -83 101 1
181 49 105 62 -29 5 -30 7 -33 70 -5 93 4 127 35 142 43 21 27 33 -44 33 -76
0 -73 4 -59 -86 7 -41 7 -41 -21 -34 -15 3 -29 10 -31 15 -10 28 -66 92 -88
100 -42 16 -99 12 -117 -8z m263 -197 c0 -43 -1 -44 -37 -51 -29 -5 -39 -3
-50 11 -7 11 -13 25 -13 32 0 23 39 53 70 53 29 0 30 -2 30 -45z"/>
</g>
</svg>
