<?xml version="1.0" standalone="no"?>
<!DOCTYPE svg PUBLIC "-//W3C//DTD SVG 20010904//EN"
 "http://www.w3.org/TR/2001/REC-SVG-20010904/DTD/svg10.dtd">
<svg version="1.0" xmlns="http://www.w3.org/2000/svg"
 width="439.311492pt" height="439.477005pt" viewBox="0 0 439.311492 439.477005"
 preserveAspectRatio="xMidYMid meet">
<metadata>
Created by potrace 1.16, written by Peter Selinger 2001-2019
</metadata>
<g transform="translate(-5.091095,444.553501) scale(0.100000,-0.100000)"
fill="#000000" stroke="none">
<path d="M2025 4439 c-500 -52 -922 -244 -1282 -583 -400 -378 -621 -821 -679
-1364 -35 -319 1 -660 100 -963 162 -495 571 -973 1056 -1232 459 -246 1070
-313 1600 -176 388 100 689 276 990 578 357 358 557 763 621 1261 19 144 16
481 -4 620 -73 478 -271 871 -617 1219 -177 179 -345 303 -560 414 -206 107
-421 176 -660 212 -129 19 -443 27 -565 14z m549 -85 c350 -49 677 -187 971
-413 85 -65 296 -272 368 -361 239 -297 385 -629 443 -1010 23 -156 24 -471 0
-633 -67 -463 -263 -852 -602 -1191 -184 -184 -355 -306 -579 -416 -77 -38
-174 -80 -216 -94 -363 -121 -764 -146 -1154 -70 -621 121 -1186 565 -1474
1157 -147 301 -205 561 -205 922 0 281 29 471 110 707 221 645 793 1180 1447
1353 273 72 595 90 891 49z"/>
<path d="M2119 4336 c-2 -2 -44 -6 -93 -10 -376 -27 -776 -192 -1091 -451
-510 -419 -784 -1002 -774 -1644 9 -565 196 -1026 574 -1420 415 -432 924
-651 1515 -651 463 0 875 135 1241 406 118 87 346 312 431 424 276 366 416
789 416 1260 0 639 -262 1197 -758 1612 -320 269 -676 418 -1100 463 -123 13
-351 20 -361 11z m386 -46 c473 -55 901 -273 1240 -632 313 -332 489 -706 545
-1154 16 -126 13 -409 -5 -545 -60 -460 -266 -857 -615 -1193 -338 -323 -721
-504 -1180 -557 -171 -19 -485 -7 -649 26 -422 83 -769 276 -1081 601 -303
314 -486 687 -545 1106 -18 133 -21 443 -5 574 29 236 86 428 189 639 223 454
652 847 1116 1020 127 47 302 92 430 109 121 17 436 20 560 6z"/>
<path d="M2235 4261 c-3 -6 -12 -28 -20 -50 -7 -22 -33 -80 -56 -130 -35 -76
-46 -91 -65 -91 -35 0 -79 -19 -68 -30 12 -12 147 -25 170 -16 15 6 15 8 1 24
-14 15 -15 25 -6 56 l11 38 45 -7 c80 -12 90 -23 51 -55 -32 -25 -12 -44 63
-60 52 -11 62 -11 75 2 14 13 11 20 -24 61 -23 26 -51 77 -67 119 -43 113 -63
148 -85 148 -10 0 -21 -4 -25 -9z m45 -131 c0 -25 -4 -30 -25 -30 -28 0 -28 0
-15 34 14 37 40 34 40 -4z"/>
<path d="M3046 4052 c-3 -6 3 -17 15 -26 l22 -15 -23 -56 c-22 -53 -57 -89
-126 -131 -17 -10 -14 -14 26 -43 50 -36 59 -32 79 37 10 37 68 118 77 109 2
-2 12 -54 23 -116 11 -62 24 -118 30 -124 19 -19 59 10 103 77 l43 66 62 0
c36 0 65 5 69 12 12 19 -43 58 -81 58 -28 0 -41 -8 -77 -50 -61 -71 -71 -67
-86 30 -12 88 -31 132 -65 155 -31 20 -83 30 -91 17z"/>
<path d="M1161 3956 c-13 -20 -37 -40 -60 -49 -45 -18 -53 -35 -45 -87 11 -67
27 -74 154 -68 99 5 111 4 108 -11 -4 -20 -65 -40 -146 -48 -34 -3 -65 -9 -67
-13 -8 -12 95 -92 110 -86 8 3 15 17 15 31 0 22 4 25 33 25 42 1 105 30 137
64 23 25 24 29 10 54 -9 15 -35 37 -60 50 -41 21 -53 23 -137 17 -88 -7 -93
-6 -93 13 0 26 17 39 74 54 58 15 66 31 36 64 -31 32 -44 30 -69 -10z"/>
<path d="M2110 3894 c-349 -41 -578 -124 -820 -297 -113 -81 -310 -280 -393
-396 -266 -375 -358 -853 -255 -1330 48 -225 151 -441 303 -636 82 -106 249
-265 360 -344 413 -292 975 -370 1480 -206 459 150 878 569 1029 1030 99 303
110 649 31 960 -70 279 -213 524 -430 740 -256 255 -533 400 -875 459 -92 16
-359 28 -430 20z m482 -63 c310 -67 564 -208 798 -441 231 -231 373 -489 441
-799 33 -150 38 -456 10 -618 -57 -336 -202 -614 -451 -863 -235 -235 -485
-371 -810 -442 -91 -19 -134 -22 -325 -23 -239 0 -345 14 -520 70 -131 42
-329 146 -445 233 -351 265 -574 630 -635 1039 -18 123 -21 380 -4 500 63 462
335 875 755 1145 154 99 372 179 580 213 134 22 478 14 606 -14z"/>
<path d="M1310 3224 c-41 -18 -77 -49 -95 -84 -18 -35 -42 -157 -50 -257 l-7
-83 -42 0 -41 0 2 42 c1 24 2 51 2 61 1 10 17 27 37 39 28 16 34 26 32 47 l-3
26 -140 0 -140 0 -3 -26 c-2 -20 5 -32 32 -53 l36 -27 0 -200 c0 -214 0 -213
-55 -245 -12 -7 -16 -16 -12 -27 6 -16 22 -17 144 -15 122 3 138 5 141 21 2
10 -4 20 -15 24 -48 17 -53 30 -53 150 l0 113 38 0 39 0 6 -137 c13 -289 69
-483 167 -581 l42 -42 -70 0 c-131 0 -249 -40 -354 -118 -161 -122 -169 -262
-22 -391 81 -71 158 -77 236 -18 121 92 145 236 57 332 -61 66 -114 68 -201 9
-44 -31 -63 -72 -55 -121 8 -47 38 -78 93 -93 37 -11 47 -10 68 3 32 22 40 62
22 122 -9 27 -14 51 -12 52 9 9 56 -19 67 -38 24 -45 -5 -154 -52 -198 -86
-80 -249 26 -249 162 0 54 36 107 108 160 98 72 197 96 330 80 l64 -8 23 -74
c53 -165 171 -273 370 -337 l70 -22 3 -61 3 -61 -50 0 c-64 0 -79 6 -97 42
-11 21 -21 28 -37 26 -21 -3 -22 -8 -22 -108 0 -101 1 -105 22 -108 17 -3 25
5 37 32 16 39 40 49 102 44 l39 -3 0 -80 0 -80 -125 -3 c-68 -1 -128 -6 -132
-10 -8 -8 277 -357 292 -357 15 0 301 345 295 355 -4 6 -60 10 -131 10 l-124
0 0 85 0 85 48 0 c53 0 76 -12 95 -50 7 -14 21 -25 32 -25 18 0 20 8 23 103 3
123 -8 137 -62 78 -30 -32 -39 -36 -85 -36 l-51 0 0 53 0 52 98 1 c53 0 115 6
137 12 34 10 42 9 60 -8 56 -52 188 -71 360 -51 164 19 286 55 503 148 9 4 12
-20 12 -101 l0 -106 -42 0 c-58 0 -89 18 -113 64 -11 21 -24 38 -30 37 -6 -1
-10 -53 -10 -136 0 -83 4 -135 10 -136 6 -1 19 16 30 37 24 46 55 64 113 64
l42 0 0 -66 c0 -90 -19 -122 -80 -134 -14 -3 -25 -12 -25 -20 0 -13 23 -15
140 -15 112 0 140 3 140 14 0 7 -16 18 -35 25 -48 15 -71 63 -68 136 l3 55 62
0 c69 0 95 -16 119 -73 24 -59 34 -27 34 113 0 140 -10 172 -34 113 -23 -55
-50 -72 -122 -76 l-64 -4 0 128 0 129 71 44 c95 59 224 167 289 243 240 283
307 645 168 911 -50 97 -182 222 -288 275 -96 47 -222 80 -325 84 l-70 3 -3
-182 -2 -183 -185 0 -185 0 -2 183 -3 182 -490 0 -490 0 -3 -182 -2 -183 -220
0 c-202 0 -220 1 -221 18 -3 46 3 132 12 182 21 103 70 170 125 170 59 0 64
-6 64 -79 0 -80 -15 -105 -76 -131 -88 -38 -45 -58 133 -62 125 -3 128 -3 131
19 3 17 -9 31 -46 58 -56 40 -62 50 -55 87 3 14 -2 52 -11 83 -15 51 -21 58
-59 75 -50 23 -80 24 -127 4z m810 -490 l0 -357 -40 6 c-57 7 -97 40 -111 90
-6 23 -13 48 -15 55 -5 18 -32 15 -43 -6 -31 -58 -31 -305 -1 -362 17 -32 44
-21 51 22 11 68 51 107 127 121 l32 7 0 -70 c0 -117 -33 -171 -117 -188 -46
-10 -52 -26 -17 -49 36 -23 257 -31 324 -11 59 18 63 48 7 60 -87 18 -115 59
-118 174 l-2 79 32 -3 c53 -4 91 -30 112 -75 10 -23 19 -50 19 -59 0 -23 18
-32 34 -19 40 33 49 310 12 366 -23 35 -37 28 -53 -27 -15 -54 -58 -94 -109
-104 -19 -3 -37 -5 -38 -3 -8 8 -8 49 -7 377 l1 332 190 0 190 0 2 -177 3
-178 250 0 250 0 3 179 2 179 85 -6 c213 -15 398 -138 469 -313 34 -84 50
-206 43 -338 -11 -227 -89 -379 -294 -577 -68 -66 -190 -159 -208 -159 -3 0
-5 88 -3 195 3 186 4 195 25 217 15 14 40 24 70 28 43 4 48 8 48 30 l0 25
-180 0 -180 0 0 -25 c0 -23 5 -26 55 -32 90 -11 90 -12 90 -269 l0 -219 -67
-31 c-88 -40 -344 -126 -430 -144 -38 -8 -91 -15 -119 -15 -54 0 -179 33 -189
50 -4 6 12 31 34 56 51 58 76 121 67 169 -9 47 -69 113 -124 137 -97 43 -155
-23 -156 -177 -1 -44 1 -93 4 -110 l5 -30 -130 1 c-114 0 -139 4 -208 27 -81
28 -172 83 -219 133 -27 29 -60 96 -72 146 -5 24 -3 28 21 34 120 26 237 87
283 147 33 41 30 90 -6 128 -58 62 -147 85 -219 55 -69 -29 -165 -140 -165
-191 0 -54 -86 36 -124 129 -44 111 -75 311 -76 484 l0 82 219 0 219 0 4 -82
c2 -47 -1 -85 -7 -90 -61 -46 -77 -66 -82 -104 -7 -58 12 -111 47 -129 16 -8
54 -15 85 -15 49 0 60 4 85 28 56 56 47 156 -18 197 l-31 20 -1 268 0 267 190
0 190 0 0 -356z m-395 -250 c27 -11 38 -53 20 -80 -32 -49 -111 -17 -97 39 10
44 35 57 77 41z m10 -346 c14 -16 25 -37 25 -47 0 -20 -32 -52 -75 -74 -45
-22 -155 -57 -182 -57 -57 0 -8 124 68 175 77 51 123 52 164 3z m551 -339 c55
-34 69 -81 40 -138 -18 -33 -81 -91 -100 -91 -8 0 -21 18 -30 40 -35 87 -7
208 48 210 5 0 24 -9 42 -21z m-1192 -106 c11 -53 3 -73 -28 -73 -51 0 -77 86
-33 108 37 18 51 10 61 -35z m890 -743 c-42 -49 -80 -90 -84 -90 -8 0 -128
140 -144 168 -6 9 27 12 149 12 l156 0 -77 -90z"/>
<path d="M3987 3243 c-4 -3 -7 -17 -7 -30 0 -17 -14 -32 -52 -57 -63 -39 -138
-69 -164 -64 -16 2 -19 -4 -21 -37 -4 -62 59 -173 115 -204 39 -21 48 -22 80
-12 62 18 102 49 122 94 26 56 25 81 -6 190 -35 122 -46 142 -67 120z m24
-190 c22 -58 -4 -119 -64 -150 -25 -13 -31 -13 -54 2 -27 18 -67 95 -54 108 8
8 142 66 154 67 4 0 12 -12 18 -27z"/>
<path d="M469 3114 c-31 -45 -31 -48 -14 -61 11 -7 25 -13 33 -13 7 0 38 -23
68 -51 47 -45 54 -57 54 -90 0 -37 -1 -39 -33 -39 -37 0 -135 27 -154 42 -6 5
-13 21 -15 34 -2 14 -7 26 -13 27 -11 2 -76 -114 -69 -124 2 -4 23 -10 46 -14
23 -4 71 -17 107 -30 86 -29 137 -18 163 35 37 73 15 147 -68 227 -30 29 -54
61 -54 72 0 37 -19 31 -51 -15z"/>
<path d="M501 2053 c-12 -23 -99 -45 -188 -47 -56 -1 -58 -2 -61 -29 -5 -45
11 -56 63 -44 25 6 47 8 49 6 2 -2 7 -25 11 -50 l7 -46 -41 -7 c-50 -8 -55
-17 -41 -64 17 -50 28 -61 44 -40 27 37 164 71 191 48 8 -7 22 -9 31 -6 13 5
15 15 9 54 -4 26 -10 51 -14 55 -4 4 -31 -4 -59 -19 -28 -14 -55 -23 -61 -19
-14 8 -14 102 -1 110 6 4 33 1 60 -5 27 -6 53 -9 58 -6 15 9 -6 88 -27 110
-19 18 -19 18 -30 -1z"/>
<path d="M3912 1978 c-17 -21 -26 -114 -12 -123 6 -4 17 -2 23 4 12 12 46 14
71 5 14 -5 14 -9 1 -34 -10 -20 -29 -33 -65 -45 -54 -18 -73 -41 -68 -83 5
-46 39 -35 93 31 l47 58 19 -30 c10 -16 27 -35 38 -40 31 -17 76 -13 95 8 24
27 56 115 56 156 0 41 -25 59 -45 32 -15 -20 -73 -22 -160 -4 -52 11 -60 16
-63 37 -5 33 -16 44 -30 28z m195 -128 c35 0 35 -1 29 -32 -3 -18 -10 -36 -15
-41 -15 -15 -50 3 -66 33 -19 37 -19 54 1 46 9 -3 32 -6 51 -6z"/>
<path d="M3423 1053 c-21 -26 -62 -72 -90 -103 -55 -59 -69 -104 -40 -129 20
-16 41 5 57 56 7 23 25 56 39 73 25 29 27 30 49 15 30 -22 28 -41 -8 -54 -35
-12 -37 -24 -10 -68 20 -34 42 -36 67 -5 11 13 15 13 38 -2 30 -20 30 -24 4
-55 -17 -21 -25 -23 -65 -17 -32 4 -46 2 -50 -7 -9 -24 15 -67 42 -77 22 -9
34 -6 74 20 84 54 158 136 147 164 -3 7 -18 16 -34 20 -31 7 -112 100 -144
166 -10 21 -23 41 -28 45 -5 3 -27 -16 -48 -42z"/>
<path d="M1028 1044 c-4 -3 -5 -16 -2 -28 2 -14 -4 -30 -16 -41 -19 -17 -21
-17 -59 8 -22 14 -50 29 -64 32 -33 9 -95 -19 -108 -49 -15 -32 7 -69 89 -149
59 -58 81 -63 63 -14 -9 24 -4 29 65 82 63 47 80 55 104 50 42 -9 43 6 2 61
-36 46 -60 62 -74 48z m-113 -94 l29 -30 -31 -32 -31 -31 -26 26 c-28 28 -34
65 -14 85 20 20 42 14 73 -18z"/>
<path d="M1626 617 c-22 -33 -32 -92 -17 -102 7 -4 32 8 57 28 38 30 49 34 74
27 16 -5 34 -11 39 -14 9 -6 -31 -183 -46 -197 -4 -4 -21 -9 -38 -11 -22 -2
-30 -8 -30 -23 0 -16 15 -23 84 -43 62 -17 87 -20 95 -12 8 8 6 15 -6 24 -24
17 -23 46 4 133 l23 73 48 6 c26 4 50 11 53 16 8 12 -15 38 -32 38 -8 0 -54
15 -103 34 -48 19 -110 38 -138 42 -47 6 -52 4 -67 -19z"/>
<path d="M2800 627 c-26 -13 -28 -25 -16 -64 6 -18 0 -26 -31 -46 -58 -37 -81
-42 -104 -21 -22 20 -25 44 -7 62 9 9 9 15 1 23 -14 14 -135 -1 -140 -18 -2
-6 15 -20 39 -31 60 -26 103 -65 144 -129 46 -73 64 -63 99 55 15 48 40 105
56 126 15 21 26 43 23 48 -7 12 -35 10 -64 -5z m-50 -165 c0 -5 -6 -17 -14
-27 -12 -16 -16 -17 -30 -6 -23 19 -20 29 12 34 15 2 28 5 30 6 1 0 2 -3 2 -7z"/>
</g>
</svg>
