<?xml version="1.0" standalone="no"?>
<!DOCTYPE svg PUBLIC "-//W3C//DTD SVG 20010904//EN"
 "http://www.w3.org/TR/2001/REC-SVG-20010904/DTD/svg10.dtd">
<svg version="1.0" xmlns="http://www.w3.org/2000/svg"
 width="439.001053pt" height="439.527684pt" viewBox="0 0 439.001053 439.527684"
 preserveAspectRatio="xMidYMid meet">
<metadata>
Created by potrace 1.16, written by Peter Selinger 2001-2019
</metadata>
<g transform="translate(-5.517233,444.680364) scale(0.100000,-0.100000)"
fill="#000000" stroke="none">
<path d="M2090 4444 c-19 -2 -78 -9 -130 -14 -451 -49 -870 -247 -1217 -574
-381 -359 -601 -784 -675 -1301 -19 -137 -16 -504 6 -645 56 -363 189 -685
400 -967 104 -140 332 -367 471 -471 399 -296 866 -438 1380 -419 519 19 936
175 1322 494 433 358 696 821 780 1373 26 176 24 501 -6 689 -73 466 -275 857
-622 1201 -343 342 -743 545 -1209 615 -101 15 -428 28 -500 19z m474 -88
c357 -51 649 -171 946 -390 113 -82 326 -289 413 -399 240 -304 378 -626 433
-1004 21 -143 23 -454 5 -593 -62 -469 -257 -867 -588 -1205 -366 -374 -786
-578 -1303 -634 -117 -13 -424 -5 -545 13 -599 92 -1106 418 -1460 940 -164
242 -274 531 -322 846 -23 157 -23 481 1 640 35 234 86 402 186 605 107 220
232 394 412 575 376 377 807 577 1343 623 89 7 377 -3 479 -17z"/>
<path d="M2030 4328 c-481 -45 -900 -246 -1256 -602 -341 -341 -525 -706 -596
-1181 -17 -118 -17 -472 1 -590 68 -459 242 -817 556 -1144 124 -129 248 -233
385 -324 585 -386 1405 -435 2046 -121 404 197 771 564 968 969 258 526 273
1203 39 1745 -104 240 -243 441 -448 645 -294 295 -614 475 -991 560 -218 49
-476 65 -704 43z m605 -56 c351 -67 650 -210 925 -440 441 -369 699 -864 738
-1417 12 -170 -3 -433 -33 -580 -79 -390 -248 -710 -530 -1004 -348 -363 -767
-571 -1253 -622 -145 -15 -466 -7 -587 15 -431 78 -759 246 -1074 551 -354
342 -553 736 -611 1208 -14 114 -14 420 0 534 55 448 238 825 560 1157 287
296 586 473 958 567 196 50 282 58 552 55 198 -3 266 -7 355 -24z"/>
<path d="M2239 4263 c-35 -5 -102 -64 -123 -107 -26 -56 -21 -107 18 -162 33
-49 34 -49 87 -48 77 1 136 20 156 50 15 23 15 26 0 41 -15 15 -20 15 -65 -6
-27 -12 -61 -21 -78 -19 -27 3 -29 6 -32 50 -2 25 1 61 6 80 7 27 13 34 40 36
27 3 34 -2 57 -38 22 -35 28 -39 45 -30 16 9 20 21 20 65 0 85 -28 104 -131
88z"/>
<path d="M2066 3890 c-380 -44 -686 -187 -960 -450 -353 -339 -527 -779 -503
-1270 16 -324 114 -618 288 -865 81 -115 298 -332 412 -412 331 -233 739 -331
1164 -278 324 40 582 153 840 368 228 190 419 464 506 728 61 185 93 425 83
620 -24 438 -181 788 -491 1094 -250 247 -527 391 -865 449 -114 20 -365 28
-474 16z m521 -58 c215 -47 421 -137 593 -259 122 -88 307 -272 392 -393 192
-271 289 -577 289 -917 0 -374 -86 -653 -291 -945 -83 -119 -268 -304 -390
-390 -186 -132 -415 -227 -645 -267 -152 -27 -473 -23 -619 8 -302 63 -572
206 -789 419 -265 260 -418 549 -472 896 -24 152 -17 479 14 613 57 258 165
478 333 679 243 291 558 483 907 553 141 29 147 29 376 26 164 -2 230 -7 302
-23z"/>
<path d="M1307 3033 c-4 -3 -7 -86 -7 -184 l0 -179 -182 -2 -183 -3 0 -675 0
-675 225 0 225 0 3 193 2 192 90 0 90 0 2 -192 3 -193 270 0 270 0 3 193 2
192 185 0 185 0 2 -192 3 -193 270 0 270 0 3 193 2 192 43 0 c43 0 43 0 66
-55 56 -134 208 -198 364 -151 136 41 164 119 143 390 -9 108 -9 108 12 97 25
-13 82 -14 115 -2 52 20 56 105 7 131 -33 18 -111 12 -135 -10 l-22 -20 -46
20 c-26 12 -47 25 -47 29 0 12 39 68 110 158 64 80 98 139 120 206 10 32 10
46 -3 80 -8 23 -15 65 -15 92 0 98 -94 231 -195 276 -44 20 -68 24 -157 24
-147 0 -183 -26 -200 -143 -16 -112 -69 -180 -130 -167 -16 4 -30 10 -30 13 0
4 -1 88 -3 187 l-2 180 -290 0 -290 0 -3 -182 -2 -183 -220 0 -220 0 -2 183
-3 182 -346 3 c-190 1 -348 -1 -352 -5z m633 -218 c0 -80 -4 -145 -8 -145 -5
0 -17 9 -27 20 -26 29 -35 16 -35 -55 0 -71 9 -84 35 -55 17 19 32 20 327 20
305 0 310 0 327 -22 27 -33 41 -14 41 57 0 71 -12 87 -41 56 -11 -12 -24 -21
-29 -21 -6 0 -10 59 -10 145 l0 145 95 0 c94 0 95 0 90 -22 -104 -441 -174
-756 -170 -765 3 -10 67 -13 273 -13 148 0 271 2 274 6 6 5 2 20 -146 480 -53
166 -96 305 -96 308 0 3 27 6 60 6 l60 0 0 -164 c0 -91 4 -176 9 -189 10 -26
73 -57 117 -57 64 0 129 64 163 161 13 35 30 84 38 108 22 62 45 81 96 81 123
0 267 -95 267 -176 0 -20 -4 -21 -105 -16 -124 5 -161 -5 -181 -54 -19 -46
-18 -134 2 -163 46 -65 177 -68 268 -6 20 14 39 25 41 25 8 0 -16 -64 -39
-104 -58 -100 -179 -261 -199 -267 -12 -4 -58 -12 -102 -19 -126 -19 -175 -45
-202 -108 -19 -46 -1 -114 40 -148 25 -21 38 -25 66 -20 44 7 148 77 223 150
l57 56 37 -13 38 -12 1 -95 c0 -52 5 -128 9 -167 16 -137 -31 -202 -154 -211
-61 -4 -73 -2 -120 24 -61 33 -101 87 -109 147 l-6 42 -125 0 -125 0 -3 -197
-2 -198 -80 0 -80 0 0 139 0 139 35 21 c43 25 58 61 52 125 -6 69 -47 106
-117 106 -97 0 -134 -35 -134 -128 0 -52 2 -57 42 -92 l42 -38 0 -136 0 -136
-80 0 -80 0 -2 198 -3 197 -250 0 -250 0 -3 -187 -2 -188 -85 0 -85 0 0 128 0
127 29 17 c16 9 37 28 46 42 20 30 23 112 6 144 -17 32 -64 52 -122 52 -45 0
-55 -4 -86 -35 -34 -34 -35 -38 -31 -95 4 -63 23 -95 66 -111 21 -8 22 -13 22
-138 l0 -129 -80 -4 -80 -3 -2 190 -3 190 -155 0 -155 0 -3 -187 -2 -188 -65
0 -65 0 0 128 0 127 29 17 c44 24 65 63 64 118 0 26 -6 57 -12 68 -30 56 -147
71 -200 27 -59 -51 -51 -168 15 -207 l34 -20 0 -129 0 -129 -65 0 -65 0 0 605
0 605 188 0 187 0 165 -151 c236 -215 215 -192 200 -229 -10 -24 -18 -30 -34
-26 -30 7 -165 10 -172 4 -23 -24 107 -183 179 -220 60 -30 69 -21 61 64 -5
65 -4 76 16 101 12 15 27 27 35 27 17 0 29 -93 20 -160 -3 -27 -3 -54 0 -60 4
-6 51 20 111 61 101 69 168 133 161 154 -2 5 -46 13 -99 16 -101 7 -138 19
-138 47 1 39 11 42 114 31 112 -13 126 -7 103 38 -29 54 -190 185 -207 167 -4
-5 -17 -40 -27 -78 -16 -56 -24 -71 -44 -78 -22 -7 -45 12 -236 201 l-213 208
0 122 0 121 285 0 285 0 0 -145z m929 -273 c39 -139 71 -258 71 -263 0 -5 -63
-9 -146 -9 -121 0 -145 2 -141 14 3 8 31 130 62 272 31 143 59 266 62 274 7
18 -1 40 92 -288z m730 77 l51 -11 -31 -44 c-53 -78 -106 -83 -153 -16 -28 41
-27 68 2 75 32 9 81 7 131 -4z m166 -569 c0 -19 -6 -26 -25 -28 -14 -2 -34 4
-44 11 -19 14 -19 15 10 30 39 22 59 17 59 -13z m-364 -9 c-19 -35 -102 -111
-129 -118 -38 -9 -76 16 -80 53 -2 19 3 36 13 44 23 19 102 39 158 39 44 1 47
-1 38 -18z m-2200 -221 c22 -12 27 -68 7 -88 -29 -29 -98 -4 -98 36 0 48 48
75 91 52z m683 -6 c19 -18 21 -65 4 -82 -20 -20 -76 -15 -88 7 -32 61 37 123
84 75z m920 0 c35 -35 12 -94 -37 -94 -40 0 -57 15 -57 51 0 34 24 59 55 59
13 0 31 -7 39 -16z"/>
<path d="M681 3523 c-54 -60 -59 -79 -40 -146 17 -62 38 -64 159 -19 58 22
107 38 108 36 2 -1 1 -15 -2 -31 -5 -23 -18 -34 -66 -55 -33 -14 -60 -31 -60
-36 0 -17 41 -62 57 -62 8 0 17 9 20 19 3 11 19 25 36 31 55 19 87 58 87 106
0 36 -5 47 -35 73 -44 38 -58 39 -115 1 -32 -21 -57 -30 -87 -30 -39 0 -43 2
-43 25 0 21 6 26 40 31 22 4 43 10 46 15 7 12 -32 99 -45 99 -5 0 -32 -26 -60
-57z"/>
<path d="M3710 3533 c-18 -52 -35 -76 -82 -116 -45 -38 -48 -39 -83 -27 -20 6
-43 9 -51 6 -13 -5 -10 -14 19 -45 19 -21 47 -59 62 -85 15 -25 30 -46 34 -46
17 0 31 27 31 60 0 39 22 66 95 114 32 22 46 26 76 21 20 -4 40 -2 43 3 6 10
-110 142 -125 142 -5 0 -14 -12 -19 -27z"/>
<path d="M3931 2047 c-6 -8 -12 -36 -13 -63 l-3 -49 53 -3 c68 -4 68 -22 0
-59 -29 -15 -54 -35 -56 -43 -1 -10 24 -35 63 -64 91 -67 84 -84 -20 -47 -42
15 -51 22 -55 47 -3 16 -10 28 -15 27 -11 -2 -47 -131 -40 -143 2 -4 33 -10
67 -12 84 -7 157 -43 165 -81 3 -15 9 -29 13 -32 8 -5 50 38 74 76 16 26 16
27 -39 97 -30 39 -60 72 -67 75 -16 6 12 29 96 77 65 38 73 53 75 132 1 58
-13 68 -49 33 -27 -25 -30 -26 -101 -19 -64 6 -77 11 -98 36 -29 32 -34 33
-50 15z"/>
<path d="M457 2003 c-16 -15 -5 -50 23 -73 29 -24 63 -96 53 -112 -2 -5 -20
-8 -39 -8 -35 0 -36 1 -32 38 3 36 2 37 -26 34 -17 -2 -38 -8 -48 -13 -18 -10
-18 -11 2 -43 18 -30 18 -34 4 -40 -60 -23 -84 18 -53 90 28 63 15 76 -46 46
-42 -20 -44 -23 -39 -54 12 -64 66 -213 84 -232 23 -23 42 -12 34 20 -7 27 14
40 125 70 l62 18 23 -28 c14 -18 29 -27 41 -24 25 5 25 31 -5 172 -21 100 -26
110 -54 127 -30 18 -96 26 -109 12z"/>
<path d="M2995 736 c-16 -7 -55 -28 -85 -47 -31 -19 -64 -39 -75 -45 -27 -15
-30 -40 -11 -69 23 -36 43 -31 66 16 21 40 61 66 112 72 19 2 23 -3 23 -28 0
-29 -1 -30 -42 -27 -56 5 -63 -13 -32 -75 29 -58 46 -65 62 -24 13 35 19 37
41 15 30 -30 19 -48 -38 -65 -45 -13 -55 -13 -62 -2 -13 21 -48 21 -52 1 -2
-10 6 -32 18 -48 19 -27 26 -30 58 -25 68 11 162 48 197 78 40 32 41 49 4 57
-34 8 -82 100 -89 170 -5 53 -6 55 -35 57 -16 2 -43 -3 -60 -11z"/>
<path d="M1536 723 c-11 -11 -6 -39 11 -73 16 -34 16 -34 -23 -108 -21 -41
-44 -76 -51 -79 -6 -2 -27 0 -47 5 -20 6 -38 7 -40 3 -9 -14 44 -80 75 -97 59
-30 105 -42 122 -32 24 13 21 27 -10 60 l-26 28 37 75 37 75 54 0 c62 0 73 10
48 45 -24 35 -173 112 -187 98z"/>
</g>
</svg>
