<?xml version="1.0" standalone="no"?>
<!DOCTYPE svg PUBLIC "-//W3C//DTD SVG 20010904//EN"
 "http://www.w3.org/TR/2001/REC-SVG-20010904/DTD/svg10.dtd">
<svg version="1.0" xmlns="http://www.w3.org/2000/svg"
 width="439.319767pt" height="439.090559pt" viewBox="0 0 439.319767 439.090559"
 preserveAspectRatio="xMidYMid meet">
<metadata>
Created by potrace 1.16, written by Peter Selinger 2001-2019
</metadata>
<g transform="translate(-5.483409,444.562149) scale(0.100000,-0.100000)"
fill="#000000" stroke="none">
<path d="M2033 4440 c-538 -52 -1005 -280 -1375 -669 -327 -343 -512 -718
-585 -1181 -24 -160 -24 -519 0 -680 74 -482 269 -864 621 -1215 356 -355 731
-547 1216 -622 160 -25 519 -24 680 1 247 38 507 123 701 229 396 215 754 590
946 986 239 496 278 1127 102 1667 -102 310 -283 597 -541 855 -338 339 -742
544 -1208 614 -127 19 -430 27 -557 15z m541 -86 c296 -41 578 -147 826 -311
148 -98 237 -172 376 -314 274 -281 444 -579 535 -936 47 -185 62 -324 62
-553 -1 -212 -13 -328 -54 -500 -119 -509 -452 -975 -919 -1285 -475 -315
-1107 -413 -1702 -265 -421 105 -825 372 -1120 740 -243 304 -382 629 -439
1030 -19 129 -16 472 5 610 70 466 270 855 614 1196 172 170 349 297 556 400
242 120 494 185 801 208 89 7 347 -5 459 -20z"/>
<path d="M2030 4328 c-373 -35 -714 -167 -1022 -394 -117 -87 -345 -312 -430
-424 -212 -282 -340 -583 -394 -930 -19 -125 -26 -429 -13 -555 53 -506 258
-921 635 -1285 420 -405 934 -600 1524 -577 559 23 1001 216 1396 611 188 188
322 375 424 591 225 479 250 1111 63 1615 -190 513 -613 961 -1120 1189 -303
135 -696 194 -1063 159z m600 -57 c420 -75 795 -279 1100 -597 l75 -78 -85
-12 c-47 -6 -97 -15 -112 -19 -16 -4 -28 -3 -28 1 0 5 -5 50 -9 99 -11 109
-24 145 -50 145 -25 0 -37 -18 -22 -33 6 -6 11 -23 11 -38 0 -21 -15 -40 -62
-81 -53 -45 -68 -53 -102 -53 -56 0 -59 -26 -10 -83 33 -39 38 -42 52 -28 9 9
21 30 26 47 6 18 26 43 44 57 l34 26 -4 -65 -3 -64 35 0 c19 1 50 4 68 9 46
11 41 -11 -11 -51 -30 -22 -50 -30 -65 -26 -12 3 -29 2 -39 -1 -14 -6 -6 -18
42 -66 58 -59 78 -68 68 -30 -4 14 13 40 62 95 73 81 105 94 140 55 27 -30 38
-14 31 46 -3 30 -4 54 -2 54 3 0 34 -37 69 -82 226 -289 361 -617 407 -988 15
-127 13 -418 -5 -550 -57 -431 -237 -802 -545 -1124 -347 -363 -772 -576
-1245 -626 -119 -13 -389 -13 -495 0 -489 59 -888 261 -1241 626 -310 322
-495 707 -549 1147 -14 114 -14 420 0 534 55 446 239 827 559 1157 322 331
687 527 1120 602 209 35 530 33 741 -5z"/>
<path d="M2176 4191 c-47 -80 -119 -163 -165 -192 -36 -23 -18 -39 43 -39 63
0 93 19 121 79 l20 41 55 -2 c50 -3 56 -6 64 -30 8 -23 6 -31 -9 -42 -11 -8
-16 -19 -12 -30 5 -13 21 -16 81 -16 44 0 78 5 82 11 3 6 -15 32 -41 57 -54
54 -92 115 -117 187 -14 43 -20 50 -46 53 -27 3 -33 -3 -76 -77z m103 -58 c1
-8 -11 -13 -29 -13 -35 0 -36 4 -14 56 l17 39 13 -35 c7 -19 13 -41 13 -47z"/>
<path d="M2110 3893 c-329 -32 -591 -129 -840 -311 -101 -74 -292 -268 -367
-372 -145 -204 -233 -414 -279 -665 -19 -107 -26 -377 -13 -490 45 -390 210
-722 496 -996 229 -219 482 -357 764 -417 477 -103 952 -12 1329 256 116 82
293 256 382 376 183 245 288 531 312 851 3 33 5 61 5 62 1 1 26 -23 57 -53 65
-63 108 -78 179 -65 57 11 94 36 118 82 15 28 17 48 12 117 -3 46 -10 95 -15
108 l-9 24 -37 -25 c-32 -22 -48 -25 -125 -25 -48 0 -91 5 -94 10 -9 14 -42
13 -51 -2 -4 -7 -13 -35 -19 -63 l-12 -50 -7 100 c-29 400 -158 713 -409 995
-286 322 -646 507 -1066 550 -97 9 -233 11 -311 3z m481 -62 c212 -46 416
-135 589 -258 121 -87 306 -271 393 -393 123 -173 220 -399 264 -615 28 -140
25 -512 -5 -651 -45 -206 -119 -384 -230 -550 -243 -362 -608 -611 -1021 -695
-127 -26 -404 -36 -537 -20 -379 47 -692 205 -959 482 -242 251 -375 516 -430
854 -18 107 -20 403 -4 508 62 414 269 763 614 1039 179 143 413 251 644 297
141 29 147 29 376 26 167 -3 230 -7 306 -24z m1609 -1601 c0 -48 -30 -86 -80
-101 -74 -22 -114 7 -126 94 l-7 46 89 3 c121 4 124 3 124 -42z"/>
<path d="M3353 3240 c-81 -19 -183 -107 -202 -177 -15 -51 -14 -73 4 -124 20
-56 60 -97 101 -105 46 -9 142 23 183 62 30 27 34 37 34 76 -2 75 -38 128 -87
128 -42 0 -88 -30 -117 -76 l-24 -39 -3 32 c-7 67 56 138 132 150 43 7 93 -30
125 -92 26 -49 26 -50 29 -352 l4 -303 -221 0 -221 0 0 264 c0 146 -4 267 -8
270 -5 3 -127 -114 -273 -260 l-264 -264 -67 0 -68 0 0 75 0 75 30 0 c18 0 39
-10 54 -25 19 -19 36 -25 69 -25 60 0 79 17 84 76 6 64 -15 93 -74 101 -37 5
-45 2 -73 -26 -42 -41 -90 -44 -90 -5 0 15 13 41 31 62 27 31 30 41 26 76 -7
51 -36 76 -89 76 -54 0 -88 -34 -88 -90 0 -30 6 -47 25 -66 15 -15 25 -36 25
-54 0 -27 -3 -30 -30 -30 -18 0 -33 6 -37 15 -16 44 -112 55 -145 17 -33 -38
-26 -122 12 -142 36 -19 95 -12 120 15 14 15 35 25 52 25 l28 0 0 -75 0 -76
-116 3 -116 3 -17 55 c-22 70 -64 152 -108 213 l-35 47 51 0 c96 0 152 41 171
124 20 88 -7 174 -67 213 -41 27 -181 26 -219 -3 -56 -41 -69 -70 -69 -147 l0
-72 -82 42 c-113 57 -208 77 -342 70 -58 -3 -113 -8 -121 -11 -14 -6 -16 5
-15 73 0 86 -12 113 -69 155 -40 31 -182 30 -223 0 -48 -36 -66 -78 -66 -155
0 -57 4 -75 26 -107 14 -22 40 -45 59 -52 18 -7 34 -14 36 -15 1 -1 -38 -42
-87 -92 -74 -73 -98 -105 -131 -174 -95 -199 -93 -422 6 -627 78 -161 227
-290 402 -347 l52 -17 -49 -44 c-169 -152 -148 -438 42 -568 109 -74 255 -84
374 -26 168 83 239 270 177 463 -17 51 -109 161 -145 172 -21 7 -26 25 -6 25
7 0 45 16 85 35 174 83 289 215 348 400 l22 70 76 3 c42 2 76 -1 76 -5 0 -4
-20 -42 -45 -83 l-44 -75 26 -44 c14 -25 50 -86 78 -135 29 -50 59 -91 66 -91
11 0 87 121 149 236 l19 36 -45 77 c-24 43 -44 80 -44 82 0 2 28 4 63 4 l62 0
264 -264 c146 -146 268 -263 273 -260 4 3 8 126 8 275 l0 269 110 0 110 0 2
-357 3 -358 134 -3 c97 -2 137 1 149 10 14 12 15 95 9 783 -7 857 -4 826 -76
921 -54 71 -113 99 -178 84z m-2205 -115 c54 -45 50 -150 -8 -180 -100 -52
-198 25 -168 132 20 72 116 98 176 48z m896 -95 c35 -13 57 -50 58 -102 1 -72
-34 -108 -108 -108 -52 0 -90 24 -104 64 -33 102 53 185 154 146z m1351 -21
c14 -21 -5 -55 -40 -72 -20 -9 -38 -17 -40 -17 -13 0 -3 59 15 88 17 28 23 31
39 22 11 -5 23 -15 26 -21z m-2005 -340 l0 -241 -118 3 c-91 3 -124 8 -145 22
-35 23 -59 60 -66 105 -14 82 -58 32 -70 -81 -9 -83 1 -223 19 -257 17 -33 43
-21 52 25 18 86 74 115 223 115 l105 0 0 -120 0 -120 -38 -19 c-54 -27 -76
-73 -70 -145 4 -48 10 -63 37 -89 30 -30 36 -32 105 -32 65 0 78 3 100 24 33
31 50 83 43 138 -5 47 -32 85 -79 109 l-28 15 0 119 0 120 105 0 c149 0 193
-22 219 -112 18 -60 45 -59 64 2 17 58 17 242 0 300 -19 63 -46 62 -63 -3 -24
-93 -69 -117 -227 -117 l-98 0 0 241 0 241 53 -7 c314 -42 555 -337 533 -655
-9 -141 -49 -244 -134 -353 -159 -202 -444 -284 -696 -199 -177 60 -336 227
-390 412 -80 270 42 573 289 718 68 40 190 80 248 81 l27 1 0 -241z m1004 165
c24 -9 21 -61 -4 -69 -39 -12 -66 35 -38 63 14 14 20 14 42 6z m626 -545 l0
-511 -222 216 -223 216 -227 0 -228 0 0 75 0 75 228 0 227 0 220 220 c121 121
221 220 222 220 2 0 3 -230 3 -511z m-795 326 c0 -27 -3 -30 -30 -30 -21 0
-31 5 -33 18 -6 33 6 49 35 45 24 -3 28 -8 28 -33z m370 15 c4 -12 1 -27 -5
-35 -27 -33 -78 -5 -65 35 4 14 15 20 35 20 20 0 31 -6 35 -20z m935 -345 l0
-55 -220 0 -220 0 0 55 0 55 220 0 220 0 0 -55z m0 -355 l0 -231 -72 3 c-40 2
-72 6 -70 11 1 4 2 106 2 227 l0 220 70 0 70 0 0 -230z m-1144 113 l38 -66
-35 -65 c-19 -35 -38 -66 -42 -69 -10 -6 -24 13 -60 81 l-29 54 38 66 c21 36
42 66 46 66 4 0 24 -30 44 -67z m-911 -18 c14 -13 25 -36 25 -50 0 -14 -11
-37 -25 -50 -13 -14 -36 -25 -50 -25 -14 0 -37 11 -50 25 -14 13 -25 36 -25
50 0 14 11 37 25 50 13 14 36 25 50 25 14 0 37 -11 50 -25z m2055 -450 l0 -55
-70 0 -70 0 0 55 0 55 70 0 70 0 0 -55z m-1925 -9 c113 -47 169 -179 144 -335
-25 -159 -110 -225 -289 -225 -84 -1 -101 2 -153 27 -96 47 -138 127 -138 262
0 160 63 251 198 285 54 13 191 5 238 -14z"/>
<path d="M1024 2149 c-53 -15 -69 -42 -69 -119 0 -79 16 -104 77 -120 52 -15
107 -2 140 31 24 24 28 35 28 86 0 68 -17 99 -66 119 -37 16 -64 16 -110 3z
m84 -75 c26 -18 30 -65 7 -84 -22 -18 -66 -15 -82 6 -19 25 -16 51 7 74 24 24
38 25 68 4z"/>
<path d="M1723 2153 c-12 -2 -34 -18 -48 -34 -21 -25 -25 -41 -25 -91 0 -52 4
-63 28 -87 54 -55 166 -48 202 12 24 38 26 94 5 143 -21 51 -81 73 -162 57z
m87 -83 c39 -39 18 -92 -35 -92 -14 0 -32 5 -40 12 -23 19 -19 66 7 84 30 21
44 20 68 -4z"/>
<path d="M2784 2439 l-149 -149 149 -149 c83 -83 153 -148 158 -145 4 3 8 135
8 294 0 159 -4 291 -8 294 -5 3 -75 -62 -158 -145z m96 -156 l0 -137 -70 69
-70 69 67 68 c37 38 69 68 70 68 2 0 3 -62 3 -137z"/>
<path d="M1390 1502 c-20 -15 -36 -18 -77 -15 -44 4 -54 2 -60 -12 -3 -10 -1
-26 5 -35 16 -25 18 -226 2 -244 -6 -8 -10 -25 -8 -38 3 -21 9 -24 78 -29 41
-3 106 -10 144 -14 56 -7 71 -5 80 7 6 8 33 18 61 21 61 9 72 19 57 52 -16 36
-15 168 2 209 21 50 6 66 -58 66 -37 0 -56 4 -59 14 -3 7 -27 17 -54 20 -26 4
-57 10 -68 12 -12 3 -32 -3 -45 -14z m34 -129 c11 -132 8 -200 -9 -207 -9 -3
-24 3 -35 14 -27 27 -32 199 -7 247 27 51 43 33 51 -54z m147 38 c19 -24 21
-34 15 -116 -7 -94 -22 -125 -58 -125 -17 0 -18 11 -18 139 0 135 1 139 20
134 11 -3 30 -17 41 -32z"/>
<path d="M865 3726 c-16 -7 -45 -25 -62 -40 -43 -36 -46 -94 -8 -131 34 -35
114 -35 170 0 48 29 75 31 105 7 l22 -17 -21 -19 c-13 -12 -39 -20 -72 -22
-30 -1 -58 -9 -67 -18 -14 -14 -14 -17 3 -35 21 -24 73 -36 112 -26 37 9 103
77 103 106 0 13 -11 42 -23 64 -22 39 -24 40 -80 43 -47 2 -68 -2 -113 -25
-42 -21 -58 -25 -72 -17 -49 31 -4 91 60 79 41 -8 60 9 47 43 -10 26 -55 30
-104 8z"/>
<path d="M459 2418 c-24 -19 -71 -49 -103 -67 -69 -40 -126 -88 -126 -106 0
-23 81 -85 170 -130 60 -31 92 -54 109 -79 20 -30 26 -34 43 -25 16 9 18 20
16 87 -3 69 -5 77 -23 77 -13 0 -21 -8 -23 -22 -4 -27 -13 -28 -51 -9 -33 18
-51 54 -51 107 0 81 36 98 86 40 36 -42 47 -19 37 75 -10 94 -20 100 -84 52z
m-64 -217 c10 -32 -18 -27 -61 11 l-36 32 38 35 39 36 6 -47 c4 -25 10 -56 14
-67z"/>
<path d="M969 1114 c-11 -14 -10 -19 8 -34 12 -9 21 -24 19 -32 -1 -8 -29 -45
-62 -82 -57 -63 -62 -66 -88 -56 -33 12 -46 6 -46 -23 0 -34 110 -140 141
-135 22 3 24 7 21 47 -4 39 0 47 35 83 21 21 52 48 70 59 30 19 34 19 63 4 60
-31 72 21 13 59 -21 13 -60 47 -88 75 -53 55 -65 60 -86 35z"/>
<path d="M3515 1118 c-46 -25 -85 -72 -85 -102 0 -50 18 -102 56 -157 31 -47
34 -55 24 -83 -9 -25 -7 -33 8 -49 19 -18 20 -17 72 30 65 60 63 79 -15 118
-58 28 -105 78 -105 112 0 12 8 31 19 44 l18 23 56 -29 c68 -34 84 -50 89 -90
3 -28 5 -30 46 -29 24 0 50 8 58 16 22 21 31 96 13 102 -66 19 -112 42 -147
71 -41 36 -72 43 -107 23z"/>
<path d="M2361 572 l-21 -29 -57 13 c-32 8 -82 14 -111 14 -46 0 -54 -3 -64
-25 -8 -17 -8 -37 -2 -63 8 -33 16 -41 71 -67 74 -36 108 -67 99 -90 -4 -12
-17 -15 -53 -13 -43 3 -50 7 -72 41 -21 32 -27 36 -39 24 -19 -20 -6 -80 24
-108 15 -14 40 -23 73 -27 101 -9 161 19 161 78 0 31 -14 44 -120 118 -107 73
-60 102 51 31 81 -53 93 -47 97 46 4 81 -7 98 -37 57z"/>
</g>
</svg>
