<?xml version="1.0" standalone="no"?>
<!DOCTYPE svg PUBLIC "-//W3C//DTD SVG 20010904//EN"
 "http://www.w3.org/TR/2001/REC-SVG-20010904/DTD/svg10.dtd">
<svg version="1.0" xmlns="http://www.w3.org/2000/svg"
 width="439.754973pt" height="439.366360pt" viewBox="0 0 439.754973 439.366360"
 preserveAspectRatio="xMidYMid meet">
<metadata>
Created by potrace 1.16, written by Peter Selinger 2001-2019
</metadata>
<g transform="translate(-5.123003,444.831738) scale(0.100000,-0.100000)"
fill="#000000" stroke="none">
<path d="M2070 4443 c-266 -20 -552 -96 -781 -206 -493 -238 -925 -713 -1108
-1217 -170 -469 -173 -1037 -9 -1515 197 -572 704 -1094 1279 -1314 110 -42
315 -95 459 -117 161 -26 519 -26 680 -1 578 91 1059 380 1425 858 380 495
518 1148 383 1804 -109 533 -462 1039 -953 1367 -199 132 -478 249 -714 297
-198 41 -464 59 -661 44z m499 -89 c464 -64 857 -267 1205 -624 332 -341 516
-710 582 -1167 23 -160 23 -466 0 -626 -66 -457 -261 -847 -592 -1181 -338
-341 -724 -540 -1189 -612 -152 -24 -498 -24 -650 0 -432 67 -779 234 -1116
538 -302 272 -552 695 -634 1073 -46 213 -65 510 -45 710 55 539 290 999 704
1373 347 314 761 493 1230 532 127 11 369 3 505 -16z"/>
<path d="M2040 4330 c-228 -20 -500 -95 -705 -195 -365 -178 -706 -501 -915
-865 -324 -567 -347 -1335 -56 -1933 195 -404 569 -778 973 -973 555 -270
1262 -271 1818 -4 211 101 372 218 561 405 197 195 312 353 418 570 257 527
272 1198 40 1742 -188 440 -569 841 -1005 1055 -328 162 -728 232 -1129 198z
m575 -55 c202 -36 374 -92 546 -179 432 -217 809 -618 989 -1051 107 -259 151
-492 151 -800 -1 -561 -184 -1018 -571 -1418 -306 -318 -664 -515 -1077 -593
-170 -32 -457 -43 -634 -25 -488 51 -895 252 -1249 617 -172 177 -287 340
-387 551 -129 270 -184 531 -183 873 0 350 57 612 195 895 108 220 233 392
422 576 380 371 774 543 1333 582 79 5 381 -13 465 -28z"/>
<path d="M2115 4273 c-56 -7 -62 -13 -39 -32 16 -13 23 -36 32 -104 13 -103 6
-130 -38 -146 -18 -6 -30 -16 -28 -22 3 -8 46 -11 137 -10 150 2 196 14 206
54 8 29 -18 95 -40 103 -12 5 -10 10 10 26 29 22 31 38 10 77 -27 53 -114 72
-250 54z m160 -58 c36 -36 31 -45 -25 -45 l-50 0 0 35 c0 31 3 35 25 35 14 0
37 -11 50 -25z m26 -131 c11 -6 12 -61 2 -67 -5 -3 -29 -8 -55 -12 l-48 -7 0
52 0 53 46 -7 c25 -3 50 -8 55 -12z"/>
<path d="M2110 3893 c-409 -40 -719 -180 -1004 -453 -187 -180 -323 -384 -407
-614 -150 -404 -125 -927 61 -1297 36 -70 38 -78 27 -117 -19 -70 -70 -69
-112 2 -29 49 -29 54 -11 79 12 15 18 17 36 7 12 -6 28 -9 35 -6 22 8 -25 140
-52 144 -24 4 -34 -9 -56 -69 -10 -25 -46 -92 -81 -149 -63 -102 -63 -104 -51
-139 7 -21 18 -35 26 -33 8 2 65 17 128 33 94 24 122 28 162 21 27 -5 51 -7
53 -4 3 2 -6 28 -20 56 -14 29 -17 40 -7 26 100 -140 153 -202 257 -305 67
-66 161 -148 209 -182 366 -258 834 -350 1302 -257 536 107 1034 551 1208
1076 103 311 111 693 20 1008 -145 506 -565 939 -1063 1098 -207 66 -460 95
-660 75z m481 -63 c302 -62 565 -206 799 -440 137 -137 229 -263 309 -425 67
-136 101 -233 133 -379 20 -88 22 -131 22 -336 0 -254 -10 -334 -69 -516 -141
-431 -515 -824 -940 -988 -212 -81 -394 -110 -645 -103 -276 7 -441 47 -675
162 -365 180 -670 524 -804 908 -64 182 -75 266 -75 537 0 265 10 339 69 518
136 406 461 768 857 951 299 139 679 180 1019 111z m-1951 -2446 c11 -21 17
-40 13 -44 -4 -5 -27 -11 -50 -15 -33 -5 -43 -4 -43 7 0 13 47 88 54 88 2 0
14 -16 26 -36z"/>
<path d="M1287 3274 c-4 -4 -7 -63 -7 -132 l0 -125 -167 -168 c-92 -93 -170
-169 -175 -169 -14 0 -9 43 8 61 27 30 8 39 -91 39 -99 0 -118 -9 -91 -39 24
-26 24 -336 0 -362 -28 -31 -8 -39 92 -39 79 0 96 3 101 16 4 10 -1 22 -10 29
-11 8 -17 26 -17 51 l0 39 155 -155 154 -154 3 -91 3 -90 225 0 225 0 3 78 3
77 154 0 155 0 0 -47 c-2 -264 -246 -464 -515 -423 -143 22 -251 100 -312 224
l-27 56 22 39 c30 54 30 130 0 166 -28 32 -89 47 -142 35 -59 -13 -79 -39 -83
-107 -5 -70 10 -102 54 -123 l33 -15 0 -177 0 -178 -26 0 c-39 0 -64 18 -80
56 -26 63 -39 37 -42 -89 -2 -83 1 -118 10 -123 7 -4 16 0 22 11 24 41 53 65
84 71 30 6 32 5 32 -23 0 -37 -32 -81 -63 -85 -12 -2 -22 -10 -22 -18 0 -12
20 -15 120 -15 130 0 150 10 85 43 -24 12 -37 27 -44 50 -13 46 1 58 49 42 27
-9 41 -21 51 -47 27 -64 39 -35 39 93 0 99 -3 119 -15 119 -8 0 -16 -10 -18
-22 -4 -30 -48 -63 -83 -63 l-29 0 0 135 c0 74 2 135 3 135 2 0 21 -25 41 -55
72 -104 163 -167 286 -198 l55 -14 3 -151 c2 -143 1 -151 -17 -157 -11 -3 -32
-20 -46 -36 -20 -25 -25 -41 -25 -85 0 -45 5 -59 29 -86 28 -31 33 -33 96 -33
63 0 68 2 96 33 24 27 29 41 29 86 0 44 -5 60 -25 85 -14 16 -35 33 -45 36
-19 6 -20 16 -20 156 l0 149 31 0 c42 0 144 27 191 51 l38 19 2 -217 3 -218
188 -3 187 -2 0 -70 0 -70 -34 0 c-44 0 -76 27 -85 70 -5 25 -12 35 -26 35
-26 0 -33 -30 -34 -151 -1 -85 2 -106 17 -124 22 -27 42 -19 42 16 0 33 42 71
85 76 l35 4 0 -47 c0 -51 -33 -99 -68 -99 -28 0 -46 -24 -29 -39 19 -15 151
-24 217 -14 45 7 55 12 55 28 0 13 -10 21 -31 27 -39 10 -61 42 -66 94 -3 38
-2 39 32 42 45 3 80 -24 89 -69 9 -45 43 -48 52 -4 9 40 9 204 0 235 -11 39
-44 33 -52 -10 -9 -43 -41 -70 -85 -70 l-34 0 0 70 0 70 188 2 187 3 3 213 c1
116 5 212 9 212 3 0 34 -11 67 -24 34 -14 89 -28 124 -32 l62 -7 0 -146 0
-146 -29 -17 c-43 -24 -63 -60 -63 -114 0 -85 52 -128 142 -120 45 4 60 10 83
36 22 25 27 40 27 84 0 44 -5 60 -25 85 -14 16 -35 33 -46 36 -18 6 -19 14
-17 157 l3 150 78 23 c46 13 101 38 134 61 50 35 75 61 150 160 l22 29 0 -137
1 -138 -33 0 c-36 0 -72 30 -79 65 -2 11 -10 20 -18 20 -12 0 -15 -20 -15
-120 0 -130 10 -150 43 -85 12 24 27 37 50 44 47 13 59 -2 41 -51 -11 -29 -23
-41 -49 -49 -19 -7 -35 -18 -35 -25 0 -11 26 -14 125 -14 104 0 125 2 125 15
0 8 -10 16 -22 18 -30 4 -63 48 -63 83 0 32 10 35 58 18 19 -7 36 -23 47 -45
29 -62 40 -38 40 91 0 128 -12 156 -39 91 -16 -38 -41 -56 -80 -56 l-26 0 0
175 0 174 30 16 c56 29 78 121 45 185 -20 39 -49 53 -112 53 -87 0 -125 -38
-126 -125 -1 -35 5 -56 22 -78 15 -21 20 -38 15 -53 -14 -47 -66 -126 -110
-167 -146 -135 -403 -141 -571 -13 -91 70 -163 214 -163 329 l0 54 155 0 154
0 3 -77 3 -78 225 0 225 0 3 90 3 91 154 154 155 155 0 -39 c0 -25 -6 -43 -17
-51 -9 -7 -14 -19 -10 -29 5 -13 22 -16 101 -16 99 0 120 8 92 38 -12 14 -15
49 -16 180 -2 141 0 166 15 182 29 32 9 40 -90 40 -99 0 -118 -9 -91 -39 9
-10 16 -31 16 -47 0 -26 -15 -14 -175 146 l-174 174 -3 131 -3 130 -140 0
-140 0 -3 -117 -3 -118 -74 0 -74 0 -3 118 -3 117 -140 0 -140 0 -3 -107 -3
-108 -54 0 -54 0 -3 108 -3 107 -125 0 -125 0 -3 -107 -3 -108 -54 0 -54 0 -3
108 -3 107 -140 0 -140 0 -3 -117 -3 -118 -74 0 -74 0 -3 118 -3 117 -136 3
c-74 1 -138 -1 -142 -4z m1863 -182 l0 -107 207 -207 208 -208 -194 -194
c-150 -151 -192 -199 -191 -217 1 -13 2 -43 1 -66 l-1 -43 -155 0 -154 0 -3
78 -3 77 -225 0 -225 0 -3 -54 c-8 -141 44 -292 136 -392 l52 -57 0 -200 c0
-123 -4 -202 -10 -204 -5 -1 -75 -2 -155 0 l-145 3 0 111 0 111 32 -7 c48 -9
76 -32 86 -69 11 -43 44 -45 53 -2 9 40 9 194 0 225 -8 30 -39 39 -47 13 -18
-56 -28 -71 -50 -82 -38 -17 -74 -14 -75 7 -4 66 11 99 56 118 88 36 47 64
-96 64 -90 0 -110 -3 -130 -19 l-24 -19 47 -21 c54 -23 68 -44 68 -100 0 -37
-2 -41 -26 -41 -49 0 -84 29 -94 80 -7 35 -37 38 -50 5 -13 -34 -13 -206 0
-240 14 -36 41 -29 52 12 10 37 38 60 86 69 l32 7 0 -112 0 -111 -155 0 -155
0 0 203 0 203 31 30 c95 91 149 223 152 375 l2 94 -225 0 -225 0 -3 -77 -3
-78 -159 0 -160 0 0 72 0 73 -187 187 -188 188 208 208 207 207 0 108 0 107
75 0 74 0 3 -107 3 -108 140 0 140 0 3 108 3 107 74 0 74 0 3 -107 3 -108 125
0 125 0 3 108 3 107 54 0 54 0 3 -107 3 -108 120 0 120 0 3 108 3 107 74 0 74
0 3 -107 3 -108 140 0 140 0 3 105 c1 57 7 107 11 110 5 3 39 3 75 2 l66 -4 0
-106z m-2032 -984 c30 -30 3 -98 -39 -98 -25 0 -59 34 -59 59 0 42 68 69 98
39z m2346 -4 c22 -21 20 -50 -4 -74 -24 -24 -53 -26 -74 -4 -19 18 -21 65 -4
82 17 17 64 15 82 -4z m-1884 -903 c17 -32 12 -60 -15 -77 -25 -16 -63 -12
-77 10 -12 17 -9 61 4 74 20 20 76 15 88 -7z m1428 7 c20 -20 14 -65 -10 -82
-29 -20 -47 -20 -70 1 -20 18 -24 63 -6 81 16 16 70 16 86 0z"/>
<path d="M3835 3390 c-37 -58 -139 -130 -185 -130 -20 0 -39 -3 -43 -6 -11
-11 129 -264 154 -280 6 -3 28 6 50 21 30 19 39 32 37 48 -2 17 -13 23 -58 32
l-55 10 -9 53 c-10 57 -2 72 37 72 14 0 16 -4 7 -19 -14 -28 -12 -61 5 -67 17
-7 105 35 113 54 8 22 -16 63 -35 60 -21 -4 -30 31 -11 43 62 40 129 -46 83
-107 -19 -25 -19 -53 1 -61 16 -6 53 23 86 70 l20 27 -30 38 c-16 20 -51 70
-77 110 -26 39 -52 72 -56 72 -5 0 -20 -18 -34 -40z"/>
<path d="M788 3298 c-14 -10 -16 -20 -9 -50 6 -28 4 -46 -10 -77 -10 -23 -23
-41 -29 -41 -6 0 -46 18 -90 40 -79 39 -79 40 -82 82 -2 35 -7 43 -23 43 -15
0 -30 -19 -57 -75 -21 -41 -36 -79 -35 -85 2 -5 26 -14 53 -18 27 -5 77 -22
111 -38 60 -29 62 -30 56 -62 -5 -34 16 -65 36 -53 8 5 145 196 174 243 5 9
-7 29 -35 59 -38 39 -45 43 -60 32z"/>
<path d="M3703 1408 c-72 -92 -113 -154 -113 -173 0 -9 16 -33 36 -53 35 -35
37 -36 51 -17 10 14 12 33 8 62 -9 65 35 133 61 92 3 -6 37 -31 75 -55 38 -25
69 -47 69 -50 0 -3 -9 -18 -21 -32 l-20 -27 23 -18 c26 -22 20 -28 95 92 40
65 41 66 23 85 -16 17 -23 18 -45 8 -40 -18 -49 -15 -109 34 -49 40 -55 48
-45 65 14 27 5 49 -20 49 -12 0 -38 -24 -68 -62z"/>
<path d="M2126 521 c-8 -12 13 -28 47 -36 l27 -7 0 -98 0 -98 -31 -11 c-18 -6
-29 -16 -26 -23 3 -10 29 -12 98 -10 52 2 98 7 102 12 5 4 -5 16 -22 26 l-31
18 0 91 0 91 33 15 c17 8 32 19 32 24 0 13 -221 19 -229 6z"/>
</g>
</svg>
