<?xml version="1.0" standalone="no"?>
<!DOCTYPE svg PUBLIC "-//W3C//DTD SVG 20010904//EN"
 "http://www.w3.org/TR/2001/REC-SVG-20010904/DTD/svg10.dtd">
<svg version="1.0" xmlns="http://www.w3.org/2000/svg"
 width="439.667710pt" height="439.680279pt" viewBox="0 0 439.667710 439.680279"
 preserveAspectRatio="xMidYMid meet">
<metadata>
Created by potrace 1.16, written by Peter Selinger 2001-2019
</metadata>
<g transform="translate(-5.162984,444.820480) scale(0.100000,-0.100000)"
fill="#000000" stroke="none">
<path d="M1995 4435 c-407 -46 -752 -182 -1069 -423 -114 -87 -325 -292 -408
-397 -330 -419 -484 -900 -465 -1445 12 -317 67 -564 185 -829 218 -487 660
-918 1152 -1124 517 -216 1172 -221 1690 -12 576 232 1061 745 1255 1327 150
451 151 974 4 1423 -195 592 -702 1124 -1286 1349 -315 122 -706 170 -1058
131z m576 -81 c440 -61 824 -252 1152 -573 385 -376 589 -790 644 -1301 13
-125 7 -415 -11 -543 -65 -458 -262 -850 -599 -1187 -188 -189 -356 -310 -582
-420 -304 -148 -560 -204 -925 -204 -283 0 -466 29 -704 111 -335 115 -649
327 -893 604 -357 406 -524 845 -527 1384 -1 202 6 291 35 444 79 417 276 779
597 1097 375 372 812 567 1357 608 92 7 344 -4 456 -20z"/>
<path d="M2075 4333 c-87 -6 -257 -34 -357 -59 -339 -85 -636 -251 -902 -505
-356 -340 -563 -731 -632 -1190 -18 -127 -26 -432 -13 -554 35 -340 146 -653
329 -926 172 -255 433 -503 694 -659 573 -343 1362 -373 1972 -74 209 102 372
221 560 408 375 374 565 789 606 1319 49 641 -179 1232 -649 1677 -439 415
-979 605 -1608 563z m535 -57 c356 -62 668 -208 950 -444 414 -346 665 -801
730 -1322 15 -127 13 -417 -5 -551 -60 -455 -261 -849 -607 -1185 -332 -323
-732 -514 -1180 -563 -122 -14 -375 -14 -493 -1 -457 51 -842 235 -1184 565
-351 339 -551 734 -611 1205 -16 130 -13 451 6 577 51 348 174 644 381 921 72
95 253 283 353 367 330 275 753 438 1185 457 111 5 379 -10 475 -26z"/>
<path d="M2143 4275 c-36 -16 -53 -42 -53 -83 0 -38 52 -86 138 -126 57 -27
62 -32 62 -62 0 -24 -5 -33 -22 -38 -36 -9 -36 -9 -93 45 -39 36 -60 50 -77
47 -20 -3 -23 -9 -23 -48 0 -42 2 -46 40 -64 52 -24 173 -33 216 -16 37 16 63
68 54 110 -7 31 -43 59 -144 109 -51 26 -62 36 -59 54 2 16 11 23 31 25 22 3
36 -5 63 -34 26 -29 37 -35 46 -26 17 17 -19 90 -53 108 -35 18 -84 17 -126
-1z"/>
<path d="M2110 3893 c-405 -39 -717 -179 -996 -446 -340 -324 -514 -729 -514
-1195 0 -350 102 -678 297 -953 83 -118 290 -324 406 -406 330 -233 731 -329
1157 -278 375 44 680 195 955 470 262 261 406 545 467 915 18 112 15 415 -5
530 -65 357 -208 632 -462 885 -232 232 -484 373 -785 441 -166 37 -373 52
-520 37z m476 -62 c146 -30 244 -64 379 -131 161 -81 287 -172 425 -310 296
-296 450 -639 468 -1045 24 -497 -127 -894 -468 -1235 -235 -235 -494 -376
-810 -441 -127 -27 -395 -36 -538 -19 -372 43 -694 207 -965 490 -225 235
-364 505 -417 816 -24 134 -28 393 -9 531 56 415 280 790 634 1059 252 192
543 296 880 317 91 5 327 -13 421 -32z"/>
<path d="M2263 3571 c-26 -12 -48 -32 -58 -51 -36 -70 18 -174 97 -186 36 -6
41 -11 64 -63 22 -48 23 -57 10 -66 -8 -5 -62 -39 -120 -74 -57 -35 -139 -95
-181 -133 -41 -37 -79 -68 -83 -68 -4 0 -36 25 -72 56 -36 30 -90 72 -121 93
l-56 38 41 47 c39 45 43 47 82 41 95 -16 182 92 140 173 -38 74 -129 106 -184
65 -59 -44 -78 -96 -59 -163 6 -21 -1 -34 -39 -74 l-46 -50 -91 32 c-51 17
-111 36 -134 42 -35 9 -44 16 -48 38 -17 81 -59 114 -144 114 -90 0 -133 -34
-145 -115 -9 -56 -40 -111 -102 -178 -58 -63 -68 -97 -38 -130 15 -17 13 -20
-21 -50 -71 -62 -97 -159 -55 -204 20 -21 20 -22 2 -46 -50 -64 -65 -127 -38
-164 12 -16 10 -25 -11 -64 -19 -36 -24 -59 -22 -102 2 -44 -2 -63 -20 -87
-30 -43 -51 -96 -51 -130 0 -32 20 -55 62 -71 26 -10 27 -11 13 -38 -8 -15
-15 -50 -15 -76 0 -41 5 -54 28 -75 26 -25 27 -29 14 -55 -19 -40 0 -96 39
-111 22 -8 29 -17 29 -38 0 -69 54 -111 114 -88 52 19 53 17 40 -62 -21 -115
-18 -214 7 -265 27 -56 131 -151 176 -159 46 -9 90 12 120 57 l25 38 49 -53
c106 -116 202 -115 311 2 73 78 84 142 43 269 -30 95 -86 188 -221 365 -56 73
-107 144 -115 158 -9 17 -13 55 -12 115 1 106 36 228 82 288 l29 38 12 -35
c13 -40 77 -102 115 -112 40 -10 88 4 123 35 38 35 41 65 16 172 -9 39 -14 72
-12 74 2 3 32 12 66 20 50 13 68 14 102 4 l40 -12 0 -77 c0 -146 -78 -375
-170 -496 -42 -56 -122 -104 -172 -104 -53 0 -98 68 -84 126 8 30 67 59 103
49 34 -8 29 -57 -7 -65 -16 -4 -25 -13 -25 -25 0 -16 8 -21 38 -23 43 -4 82
16 92 47 16 50 -55 131 -115 131 -38 -1 -104 -34 -128 -65 -28 -35 -29 -95 -3
-152 27 -57 66 -76 148 -71 62 4 63 4 63 -22 0 -44 42 -113 80 -132 43 -22
111 -23 150 -3 34 18 60 62 60 102 -1 66 -70 159 -108 146 -55 -19 -111 -107
-92 -143 17 -32 59 -26 73 10 13 35 35 46 54 27 11 -11 11 -20 3 -43 -26 -66
-75 -82 -138 -44 -40 24 -46 39 -37 87 5 27 24 54 74 104 53 52 79 88 114 161
73 150 141 388 123 433 -8 23 56 19 106 -6 49 -25 124 -101 156 -158 l23 -40
-100 -66 c-54 -36 -110 -65 -124 -65 -13 0 -36 9 -51 21 -25 20 -28 20 -46 4
-18 -16 -16 -20 53 -121 67 -98 72 -103 91 -90 12 8 19 20 17 28 -12 42 -12
60 2 82 14 21 149 120 181 132 30 12 66 -260 38 -288 -6 -6 -23 -6 -48 1 -22
6 -67 11 -101 11 -55 0 -64 -3 -83 -27 -18 -24 -21 -38 -18 -87 4 -49 9 -63
32 -83 35 -30 86 -30 151 1 101 47 149 132 148 261 0 70 -20 175 -48 247 -5
12 2 21 24 32 41 22 80 20 106 -4 19 -18 23 -18 42 -5 22 15 21 16 -34 98 -31
45 -65 92 -76 104 -19 21 -22 22 -38 7 -14 -12 -16 -21 -9 -35 6 -10 10 -26
10 -37 0 -23 -37 -72 -53 -72 -7 1 -33 32 -59 70 -40 58 -68 83 -182 164 -120
86 -137 101 -159 148 -14 29 -28 76 -32 104 l-6 50 66 71 c68 74 148 136 247
191 32 18 60 32 62 32 2 0 20 -39 40 -86 l36 -85 -20 -27 c-32 -43 -34 -81 -8
-131 34 -66 65 -85 124 -76 37 5 57 16 86 45 44 43 48 73 19 135 -23 51 -39
64 -91 73 -41 7 -42 8 -78 90 -30 70 -34 85 -21 92 30 19 164 42 251 44 l91 1
12 -34 c16 -49 54 -74 113 -75 58 -1 96 21 119 70 14 28 22 34 43 32 39 -5 39
-43 0 -83 -23 -24 -31 -40 -28 -61 4 -36 34 -42 109 -20 64 19 59 20 59 -3 0
-11 -13 -29 -30 -41 -57 -40 -33 -65 65 -69 33 -2 66 -7 72 -13 17 -14 17 -59
0 -82 -11 -15 -17 -16 -40 -5 -23 11 -30 10 -43 -3 -27 -27 1 -70 56 -86 86
-26 102 -35 118 -68 8 -19 13 -36 11 -39 -3 -2 -22 0 -43 6 -75 21 -68 -34 11
-81 90 -54 112 -98 77 -149 -14 -19 -23 -22 -49 -18 -18 3 -36 3 -39 0 -3 -3
14 -28 37 -55 65 -77 97 -120 97 -133 0 -6 -6 -20 -14 -30 -12 -16 -18 -17
-40 -7 -56 25 -37 -47 33 -123 47 -52 81 -119 67 -133 -4 -3 -31 6 -61 21 -30
14 -56 23 -59 19 -5 -9 23 -59 78 -137 36 -50 38 -57 24 -71 -20 -21 -46 -8
-110 53 -25 25 -51 42 -57 39 -26 -16 -6 -142 38 -241 13 -30 22 -70 22 -100
0 -51 -35 -165 -51 -165 -11 0 -26 47 -41 130 -7 36 -18 78 -26 93 -13 25 -16
27 -33 15 -10 -7 -39 -52 -64 -100 -53 -104 -138 -238 -166 -263 -20 -18 -20
-18 -15 11 33 182 54 327 49 335 -3 5 -16 9 -29 9 -17 0 -30 -12 -51 -47 -78
-136 -222 -279 -338 -339 -41 -21 -78 -35 -82 -31 -17 16 124 200 277 362 85
90 111 140 117 230 3 56 -1 84 -21 144 -25 75 -25 75 -6 118 10 24 24 74 30
111 6 37 21 86 31 110 42 91 30 321 -23 426 -12 25 -40 62 -61 83 -38 37 -41
38 -112 38 -63 0 -79 -4 -122 -30 -59 -37 -94 -86 -94 -132 0 -46 13 -68 62
-103 50 -37 96 -39 126 -7 31 33 62 107 62 150 0 58 45 44 82 -26 20 -37 23
-56 22 -152 -1 -153 -60 -444 -97 -472 -6 -6 -32 -13 -56 -16 -53 -7 -177 -66
-210 -101 -32 -34 -32 -85 2 -129 57 -75 116 -66 217 33 l70 69 10 -41 c19
-68 -13 -175 -81 -275 -18 -26 -105 -122 -194 -213 -89 -91 -167 -174 -173
-185 -6 -12 -7 -35 -3 -55 l7 -35 55 3 c107 7 227 60 353 158 38 30 80 54 92
54 26 0 26 -8 -2 -121 -24 -97 -15 -139 27 -139 16 0 217 245 274 333 l18 28
29 -60 c16 -34 39 -66 51 -72 19 -11 26 -6 68 39 67 73 83 126 75 255 -4 56
-10 115 -13 131 -5 25 -3 28 13 22 82 -33 124 -11 124 63 0 27 -7 56 -16 70
-15 21 -15 23 6 38 19 13 22 23 18 62 -3 25 -17 73 -32 106 -26 58 -26 62 -11
98 20 48 10 89 -37 155 -32 45 -33 49 -22 87 20 64 17 158 -5 186 -12 16 -16
30 -10 44 23 59 1 118 -59 154 -38 23 -39 25 -26 50 34 64 -3 162 -72 196 -36
17 -42 25 -47 58 -7 51 -32 77 -73 77 -31 0 -33 2 -44 54 -15 71 -46 101 -106
101 -32 0 -46 5 -49 16 -24 73 -164 91 -209 27 -13 -18 -28 -20 -143 -23 -93
-2 -149 -9 -207 -24 -43 -12 -79 -21 -81 -19 -1 2 -12 29 -24 60 l-23 57 21
27 c13 17 21 41 21 66 0 45 -31 113 -59 128 -30 15 -81 12 -128 -9z m97 -71
c23 -23 26 -62 7 -78 -6 -6 -24 -13 -37 -17 -57 -14 -83 76 -30 102 33 17 37
16 60 -7z m-440 -130 c11 -11 20 -29 20 -40 0 -22 -36 -60 -57 -60 -17 0 -63
44 -63 60 0 16 47 60 65 60 8 0 24 -9 35 -20z m-606 -76 c21 -20 20 -83 -1
-106 -33 -37 -117 -16 -123 32 -9 61 14 90 70 90 22 0 45 -7 54 -16z m1714
-42 c28 -36 2 -82 -47 -82 -34 0 -51 17 -51 51 0 52 65 72 98 31z m-1485 -127
c37 -15 67 -32 67 -37 0 -6 -30 -43 -66 -83 l-65 -74 -50 6 c-48 6 -50 5 -94
-39 -40 -41 -45 -50 -45 -91 0 -39 5 -52 34 -81 19 -19 51 -39 71 -46 30 -10
41 -9 73 8 67 34 97 102 73 165 -9 23 -2 34 66 111 41 47 77 86 80 86 11 0
171 -111 192 -134 14 -15 53 -90 88 -169 l62 -142 -121 -17 c-79 -11 -126 -14
-133 -8 -7 6 -20 28 -30 51 -19 40 -19 42 0 55 31 23 61 17 89 -18 31 -40 46
-30 53 36 5 43 4 46 -23 56 -118 45 -234 -1 -234 -94 0 -35 17 -77 43 -104
l22 -24 -25 -19 c-80 -62 -104 -88 -157 -167 -99 -146 -140 -279 -121 -385 13
-67 27 -93 114 -209 143 -191 222 -348 231 -459 10 -122 -27 -177 -112 -166
-91 13 -149 58 -207 162 -19 33 -40 60 -48 60 -17 0 -17 -1 -19 -84 -1 -76
-28 -113 -82 -113 -91 0 -131 61 -130 198 0 94 18 181 59 281 25 61 27 74 16
84 -11 9 -27 -1 -79 -50 -74 -69 -106 -82 -135 -56 -27 24 -25 35 12 95 38 62
30 80 -28 62 -69 -21 -72 7 -9 101 25 37 43 72 40 77 -3 5 -32 -4 -64 -20 -97
-49 -108 -37 -51 52 63 100 66 106 48 124 -13 13 -22 14 -54 5 -55 -15 -64
-14 -64 9 0 37 37 94 104 160 36 35 66 70 66 77 0 24 -22 24 -69 -1 -43 -22
-50 -23 -55 -9 -13 33 15 83 70 123 56 42 81 74 64 85 -5 3 -23 -1 -39 -10
-42 -21 -61 -19 -61 8 0 32 32 80 80 118 46 37 77 86 63 100 -5 5 -31 -2 -58
-15 -56 -27 -65 -26 -65 10 0 45 29 83 98 128 73 49 101 81 83 99 -7 7 -18 7
-36 -1 -38 -18 -45 -15 -45 17 0 28 38 95 68 119 22 16 57 15 72 -3 7 -8 31
-20 53 -26 52 -14 103 0 138 37 21 23 30 25 70 21 25 -3 75 -18 112 -32z
m1079 -232 c38 -35 12 -93 -42 -93 -46 0 -66 55 -33 92 20 22 51 23 75 1z
m-1165 -45 c28 -27 29 -48 3 -76 -26 -28 -48 -28 -77 0 -28 26 -29 38 -2 72
25 32 45 33 76 4z m1407 -204 c-1 -48 -30 -111 -54 -119 -26 -8 -77 20 -85 46
-5 14 0 30 12 47 21 28 100 75 117 69 6 -2 11 -22 10 -43z m-1084 -233 c12
-27 23 -62 23 -77 0 -37 -35 -64 -84 -64 -32 0 -46 7 -79 40 -22 22 -40 44
-40 49 0 23 110 99 146 101 6 0 21 -22 34 -49z m1088 -552 c-25 -46 -81 -99
-103 -99 -19 0 -45 28 -45 49 0 9 6 25 13 35 13 18 107 55 140 56 17 0 16 -3
-5 -41z m-465 -15 c26 -9 47 -22 47 -29 0 -21 -78 -85 -103 -85 -30 0 -55 27
-63 68 -12 61 29 77 119 46z"/>
<path d="M450 3089 c-19 -4 -42 -16 -51 -27 -23 -30 -75 -250 -62 -263 8 -8
16 -4 28 15 22 33 32 32 127 0 l77 -27 3 -61 c2 -34 8 -61 13 -60 6 0 39 58
75 128 72 141 80 184 44 233 -24 32 -71 43 -80 18 -4 -8 3 -38 15 -65 24 -55
21 -88 -10 -116 -16 -14 -24 -15 -44 -6 -30 14 -31 23 -5 47 28 25 26 32 -20
55 -72 37 -106 20 -75 -39 15 -29 14 -31 -3 -31 -9 0 -27 7 -39 15 -20 14 -20
18 -9 62 11 43 17 50 53 63 47 18 77 40 66 50 -14 13 -67 17 -103 9z"/>
<path d="M4123 2904 c-13 -17 -45 -34 -106 -55 -48 -16 -93 -29 -99 -29 -6 0
-26 14 -45 30 -19 17 -39 28 -45 24 -16 -10 0 -90 43 -203 54 -145 59 -151
117 -151 95 0 107 46 18 69 -49 12 -54 20 -63 101 l-6 57 41 10 c36 9 41 8 50
-11 8 -18 4 -26 -26 -53 l-37 -31 27 -11 c17 -6 51 -7 85 -3 49 6 58 10 61 29
2 15 -6 26 -27 39 -38 22 -42 60 -8 73 34 13 52 -3 65 -59 17 -72 15 -84 -13
-118 -22 -26 -23 -31 -10 -42 9 -7 32 -13 53 -14 l37 -1 -1 65 c-1 36 -14 112
-29 170 -40 151 -47 162 -82 114z"/>
<path d="M1094 925 c-9 -23 5 -35 44 -35 54 0 69 -12 54 -45 -7 -14 -12 -43
-12 -64 0 -38 -1 -39 -45 -45 -50 -8 -75 -34 -75 -78 0 -33 45 -79 124 -127
63 -37 91 -36 83 5 -3 19 9 42 55 102 56 72 62 77 104 82 24 3 46 9 47 14 1 5
-34 31 -77 58 -84 52 -111 53 -88 3 16 -35 15 -46 -9 -75 l-21 -25 -24 28
c-18 21 -24 40 -24 75 0 26 4 53 9 61 12 18 -11 66 -34 75 -32 12 -105 7 -111
-9z m134 -256 l23 -9 -21 -40 c-23 -46 -30 -48 -76 -19 -72 44 -66 96 10 83
23 -3 51 -10 64 -15z"/>
<path d="M3250 908 c-25 -17 -84 -62 -131 -100 l-86 -70 7 -38 c7 -40 34 -90
48 -90 20 0 32 28 32 76 l0 52 53 27 c59 31 76 30 96 -8 27 -51 -12 -77 -55
-36 -13 13 -30 19 -39 15 -19 -7 -13 -40 18 -106 28 -57 57 -61 73 -10 16 49
40 61 65 31 32 -39 27 -46 -80 -102 -30 -16 -36 -17 -63 -3 -16 8 -33 12 -38
9 -15 -9 -12 -68 4 -90 13 -18 17 -17 97 24 91 45 232 140 233 156 1 6 -14 15
-32 21 -19 6 -50 31 -73 59 -68 82 -82 124 -57 164 13 21 5 51 -14 51 -7 0
-33 -15 -58 -32z"/>
</g>
</svg>
