<?xml version="1.0" standalone="no"?>
<!DOCTYPE svg PUBLIC "-//W3C//DTD SVG 20010904//EN"
 "http://www.w3.org/TR/2001/REC-SVG-20010904/DTD/svg10.dtd">
<svg version="1.0" xmlns="http://www.w3.org/2000/svg"
 width="439.526801pt" height="439.679949pt" viewBox="0 0 439.526801 439.679949"
 preserveAspectRatio="xMidYMid meet">
<metadata>
Created by potrace 1.16, written by Peter Selinger 2001-2019
</metadata>
<g transform="translate(-5.116833,444.821631) scale(0.100000,-0.100000)"
fill="#000000" stroke="none">
<path d="M2025 4439 c-366 -35 -682 -146 -980 -344 -386 -256 -692 -630 -849
-1035 -145 -378 -184 -834 -105 -1250 78 -409 262 -762 561 -1076 417 -436
908 -657 1514 -681 569 -22 1082 152 1502 511 502 431 763 977 778 1631 14
630 -198 1166 -636 1605 -320 320 -691 523 -1105 604 -219 42 -467 55 -680 35z
m549 -85 c295 -41 579 -148 831 -314 143 -95 233 -170 371 -311 335 -344 522
-726 585 -1199 18 -137 16 -449 -5 -593 -65 -455 -262 -848 -590 -1179 -342
-345 -728 -543 -1196 -614 -158 -24 -482 -24 -640 -1 -463 71 -854 269 -1185
602 -341 343 -529 715 -601 1185 -24 158 -25 482 -1 640 71 467 274 861 617
1199 376 370 813 565 1355 605 89 7 347 -5 459 -20z"/>
<path d="M2045 4329 c-526 -53 -940 -255 -1310 -641 -297 -309 -481 -674 -545
-1078 -6 -41 -14 -86 -16 -100 -13 -71 -16 -347 -5 -460 47 -489 229 -888 566
-1239 473 -493 1087 -714 1765 -635 489 56 875 245 1230 603 144 145 214 231
305 376 387 614 405 1479 43 2116 -185 328 -496 635 -824 817 -351 194 -795
283 -1209 241z m590 -57 c391 -75 726 -248 1023 -527 350 -330 567 -746 627
-1203 19 -146 19 -438 0 -585 -60 -457 -266 -856 -615 -1191 -337 -322 -724
-505 -1175 -556 -129 -14 -402 -12 -525 4 -478 65 -864 263 -1211 622 -311
322 -495 707 -549 1148 -16 134 -13 445 5 573 76 509 316 932 730 1283 277
235 631 393 1000 445 154 22 546 14 690 -13z"/>
<path d="M2133 4263 c-44 -8 -55 -53 -14 -53 14 0 20 -11 25 -52 12 -102 8
-146 -14 -158 -18 -10 -27 -40 -15 -51 8 -9 210 17 233 30 31 16 60 79 68 145
6 53 5 57 -27 89 -47 47 -159 69 -256 50z m207 -73 c41 -41 15 -138 -44 -166
-58 -28 -66 -17 -66 84 0 49 3 92 7 95 15 15 83 7 103 -13z"/>
<path d="M1205 3961 c-16 -4 -40 -13 -52 -20 l-23 -12 46 -90 c25 -50 44 -93
42 -94 -2 -2 -46 7 -98 19 -52 13 -116 26 -142 30 l-47 7 -41 -52 c-22 -28
-39 -57 -37 -63 7 -20 39 -18 68 3 46 34 75 28 112 -24 58 -82 67 -103 55
-137 -16 -44 4 -59 35 -26 14 14 39 34 57 43 l33 17 -50 47 c-52 46 -73 81
-50 81 7 -1 52 -16 100 -34 l88 -34 27 23 27 23 -23 44 c-13 23 -39 65 -58 93
-31 43 -34 54 -28 85 15 77 12 83 -41 71z"/>
<path d="M2070 3890 c-199 -21 -417 -85 -588 -175 -308 -161 -576 -440 -727
-758 -152 -320 -194 -717 -114 -1086 120 -553 577 -1042 1120 -1200 155 -46
266 -62 444 -66 222 -5 396 19 580 80 435 145 826 515 998 945 200 500 134
1122 -165 1546 -270 382 -651 628 -1083 699 -113 19 -353 26 -465 15z m521
-59 c142 -31 240 -65 374 -132 161 -79 286 -171 425 -309 234 -234 372 -485
443 -805 19 -87 22 -129 22 -335 0 -208 -3 -247 -23 -340 -32 -147 -64 -236
-133 -375 -79 -161 -171 -286 -309 -425 -248 -248 -519 -390 -860 -452 -115
-20 -470 -17 -590 5 -304 58 -592 208 -813 425 -260 254 -411 536 -468 873
-19 108 -21 151 -16 334 6 230 20 318 78 488 165 481 604 895 1085 1023 169
45 252 54 479 50 165 -3 231 -9 306 -25z"/>
<path d="M1769 3625 c-36 -19 -53 -65 -47 -125 5 -53 27 -86 66 -101 21 -8 22
-14 22 -114 l0 -105 -137 0 -138 0 -17 29 c-23 42 -60 63 -112 63 -89 0 -126
-38 -126 -129 0 -43 5 -58 28 -83 52 -59 165 -50 204 16 l20 34 139 0 139 0 0
-220 0 -220 -247 -2 -248 -3 -3 -337 -2 -338 -105 0 c-183 0 -254 31 -297 128
-16 34 -24 43 -41 40 -21 -3 -22 -10 -28 -113 -4 -60 -7 -163 -8 -227 -1 -111
0 -118 21 -133 21 -14 24 -14 36 2 7 10 15 35 19 56 9 57 74 152 113 166 18 6
91 11 161 11 l129 0 0 -139 0 -139 -34 -20 c-51 -30 -67 -62 -67 -127 0 -97
46 -140 147 -139 76 1 115 25 132 82 16 54 15 80 -7 128 -13 28 -30 46 -55 58
l-36 17 0 139 0 140 135 0 135 0 0 -39 c0 -60 -14 -85 -90 -166 -66 -70 -84
-105 -59 -120 21 -14 288 -25 341 -15 89 17 88 25 -9 155 -50 67 -61 89 -66
133 -7 59 -3 61 59 33 48 -22 82 -64 118 -143 43 -100 78 -70 69 59 -4 63 -1
103 17 181 25 110 22 154 -11 197 -15 18 -29 25 -47 23 -22 -3 -27 -10 -37
-53 -21 -90 -71 -156 -132 -171 -36 -9 -44 5 -34 59 6 36 20 60 65 107 82 89
85 97 42 115 -47 20 -105 21 -270 5 -98 -10 -140 -18 -143 -28 -7 -16 76 -104
127 -134 49 -29 60 -46 60 -90 l0 -38 -135 0 -135 0 0 305 0 305 506 0 506 0
-7 -27 c-3 -16 -65 -246 -136 -513 -71 -266 -127 -490 -125 -497 4 -10 79 -13
358 -13 194 0 379 4 411 10 136 22 287 139 433 333 42 56 80 106 84 110 4 5
26 -2 49 -15 l40 -23 3 -99 c2 -64 7 -101 15 -103 16 -6 160 185 178 236 30
88 19 101 -57 66 -62 -29 -117 -32 -147 -7 l-21 17 44 58 c25 32 57 87 72 122
26 60 30 64 68 71 78 13 116 82 101 181 -13 86 -94 130 -191 104 -63 -17 -87
-50 -92 -124 -3 -54 0 -67 22 -100 14 -21 26 -43 26 -48 0 -21 -72 -148 -104
-186 -32 -37 -34 -37 -58 -21 -34 23 -67 77 -87 146 -22 74 -40 78 -96 18 -53
-57 -78 -109 -79 -161 l-1 -40 50 1 c28 1 62 3 77 4 30 3 108 -27 108 -41 0
-15 -177 -214 -255 -287 -46 -43 -103 -85 -143 -104 l-67 -33 -328 -3 c-287
-2 -329 -1 -324 12 3 8 10 32 16 53 5 21 64 242 131 492 67 249 119 459 116
467 -4 12 -59 14 -306 14 l-300 0 0 220 0 220 143 0 142 0 14 -31 c30 -67 150
-79 203 -20 23 25 28 41 28 81 0 95 -34 132 -120 132 -58 0 -93 -19 -115 -62
l-16 -31 -137 3 -137 3 -3 100 -2 100 29 17 c44 25 65 63 64 119 -1 56 -22 95
-59 109 -37 14 -115 11 -145 -5z m115 -71 c34 -34 9 -94 -39 -94 -30 0 -55 25
-55 55 0 30 25 55 55 55 13 0 31 -7 39 -16z m-436 -366 c29 -29 4 -98 -36 -98
-48 0 -75 48 -52 91 12 22 68 27 88 7z m880 0 c17 -17 15 -64 -4 -82 -47 -48
-116 14 -84 75 12 22 68 27 88 7z m1347 -662 c27 -20 27 -92 0 -112 -30 -22
-91 -18 -109 8 -37 53 -8 118 53 118 20 0 46 -6 56 -14z m-2271 -972 c19 -18
22 -94 4 -112 -18 -18 -94 -15 -112 4 -21 20 -20 83 1 106 20 23 85 24 107 2z"/>
<path d="M1403 3550 c-36 -22 -48 -52 -47 -123 0 -38 6 -53 28 -76 50 -53 145
-50 196 4 19 20 23 36 23 82 0 32 -5 69 -12 81 -27 50 -130 68 -188 32z m100
-59 c28 -11 39 -43 27 -77 -8 -20 -17 -24 -49 -24 -42 0 -51 10 -51 60 0 17 7
33 18 39 21 13 25 13 55 2z"/>
<path d="M2141 3557 c-36 -21 -50 -56 -51 -120 0 -51 4 -62 28 -87 37 -36 88
-46 144 -29 57 18 81 62 75 137 -5 76 -36 104 -114 109 -37 2 -67 -2 -82 -10z
m107 -73 c43 -30 21 -94 -31 -94 -40 0 -57 15 -57 50 0 29 9 45 30 53 25 9 34
8 58 -9z"/>
<path d="M1410 2967 c-65 -32 -77 -152 -20 -209 24 -23 37 -28 79 -28 27 0 61
4 75 10 78 29 83 189 6 227 -32 16 -108 16 -140 0z m110 -72 c7 -8 13 -26 13
-40 0 -34 -20 -55 -52 -55 -35 0 -51 17 -51 55 0 17 5 36 12 43 17 17 63 15
78 -3z"/>
<path d="M2141 2966 c-34 -19 -50 -54 -51 -108 0 -92 36 -128 129 -128 42 0
56 5 83 29 31 28 33 33 33 96 0 63 -2 68 -33 96 -27 24 -41 29 -85 29 -28 -1
-63 -7 -76 -14z m113 -72 c36 -35 9 -94 -43 -94 -35 0 -51 17 -51 55 0 17 5
36 12 43 17 17 64 15 82 -4z"/>
<path d="M3525 3724 c-95 -66 -149 -87 -203 -79 -38 5 -51 3 -62 -10 -12 -14
-7 -22 35 -65 59 -60 81 -63 101 -15 15 37 24 41 55 25 29 -16 24 -57 -11 -89
l-31 -28 46 -42 c39 -36 49 -40 62 -30 10 9 13 23 9 47 -4 25 4 55 33 120 61
140 66 160 45 183 -9 10 -20 19 -23 18 -3 0 -28 -16 -56 -35z m1 -93 c-15 -28
-19 -29 -41 -19 l-25 11 37 23 c21 12 39 21 41 19 2 -2 -4 -17 -12 -34z"/>
<path d="M346 2709 c-15 -4 -36 -15 -47 -25 -26 -23 -49 -99 -52 -170 -2 -49
2 -65 22 -93 31 -43 81 -63 158 -63 122 1 165 46 178 185 l7 77 -36 35 c-49
46 -164 73 -230 54z m150 -98 c68 -31 94 -90 60 -137 -18 -24 -87 -24 -170 0
-63 19 -71 30 -62 82 13 66 91 92 172 55z"/>
<path d="M4177 2704 c-4 -4 -7 -15 -7 -24 0 -13 -20 -20 -92 -33 -91 -16 -93
-16 -114 4 -12 11 -24 16 -27 12 -7 -12 22 -155 33 -167 5 -5 15 7 24 27 11
28 23 38 53 46 21 6 46 11 57 11 16 0 15 -4 -9 -37 -16 -21 -46 -57 -68 -80
-36 -37 -39 -45 -30 -66 10 -22 14 -23 69 -16 110 14 130 12 142 -16 9 -20 15
-23 34 -16 20 7 22 14 19 62 -1 29 -5 57 -7 61 -3 4 -21 1 -41 -7 -19 -8 -44
-15 -54 -15 -19 0 -19 2 2 43 12 23 32 55 45 70 14 17 24 41 24 60 0 51 -33
101 -53 81z"/>
<path d="M724 1435 c-4 -9 -2 -33 5 -53 l12 -37 -58 -52 c-61 -56 -69 -59
-120 -44 -38 11 -53 -1 -53 -45 0 -27 12 -45 66 -99 76 -78 97 -80 87 -10 -7
54 3 67 91 127 l58 40 30 -22 c24 -17 32 -19 44 -9 13 10 12 15 -8 36 -12 13
-45 58 -72 100 -54 80 -72 96 -82 68z"/>
<path d="M3699 1375 c-31 -69 -34 -103 -8 -96 39 10 68 1 122 -39 31 -23 57
-49 57 -56 0 -25 -39 -36 -101 -29 -51 6 -60 5 -66 -11 -4 -12 2 -24 23 -42
37 -30 112 -65 128 -59 7 3 18 25 25 48 7 24 40 89 72 145 32 55 59 106 59
111 0 22 -70 73 -101 73 -43 0 -45 -22 -9 -85 38 -66 31 -68 -65 -17 -72 38
-79 49 -64 102 2 9 -4 16 -19 18 -19 3 -27 -6 -53 -63z"/>
<path d="M1511 666 c-7 -8 -15 -30 -18 -50 -7 -47 12 -54 80 -29 52 19 53 19
100 0 26 -11 47 -22 47 -26 0 -3 -13 -40 -29 -81 l-30 -75 -42 0 c-29 0 -45
-5 -53 -17 -15 -24 -5 -31 101 -66 79 -26 94 -28 104 -16 9 11 8 18 -5 32 -21
24 -20 35 7 117 22 63 26 70 58 78 84 21 63 41 -104 101 -131 47 -196 57 -216
32z"/>
<path d="M2881 649 c-63 -29 -64 -29 -45 -50 16 -17 22 -74 9 -87 -1 -1 -28
-12 -60 -23 -55 -19 -58 -19 -77 -2 -16 14 -18 25 -13 60 8 53 1 56 -85 40
-75 -14 -83 -30 -32 -62 69 -42 133 -97 169 -145 38 -51 70 -64 90 -37 6 6 20
46 32 87 12 41 39 110 58 153 22 46 33 81 27 86 -5 5 -37 -4 -73 -20z m-55
-205 c-3 -9 -9 -27 -12 -41 l-7 -24 -28 27 c-36 34 -36 42 -1 47 52 8 54 7 48
-9z"/>
</g>
</svg>
