<?xml version="1.0" standalone="no"?>
<!DOCTYPE svg PUBLIC "-//W3C//DTD SVG 20010904//EN"
 "http://www.w3.org/TR/2001/REC-SVG-20010904/DTD/svg10.dtd">
<svg version="1.0" xmlns="http://www.w3.org/2000/svg"
 width="439.217949pt" height="439.165198pt" viewBox="0 0 439.217949 439.165198"
 preserveAspectRatio="xMidYMid meet">
<metadata>
Created by potrace 1.16, written by Peter Selinger 2001-2019
</metadata>
<g transform="translate(-5.250497,444.649429) scale(0.100000,-0.100000)"
fill="#000000" stroke="none">
<path d="M2070 4443 c-557 -45 -1037 -276 -1420 -680 -344 -364 -533 -771
-586 -1268 -19 -175 -14 -427 12 -595 67 -444 260 -834 575 -1164 354 -371
761 -585 1259 -663 160 -24 519 -24 680 0 413 63 767 225 1079 493 428 367
674 806 758 1354 24 159 24 501 0 660 -73 479 -272 873 -617 1219 -344 346
-732 547 -1200 622 -119 19 -427 32 -540 22z m504 -89 c343 -48 667 -183 951
-398 103 -77 319 -288 398 -389 307 -390 450 -805 450 -1312 1 -270 -27 -453
-104 -690 -202 -626 -774 -1178 -1408 -1359 -440 -126 -961 -107 -1373 50
-595 226 -1094 759 -1277 1364 -115 381 -117 848 -5 1241 94 328 275 628 540
893 382 382 816 579 1369 620 89 7 347 -5 459 -20z"/>
<path d="M2080 4333 c-523 -39 -974 -256 -1346 -646 -228 -239 -373 -477 -469
-772 -187 -571 -120 -1229 175 -1721 194 -325 506 -623 841 -803 477 -257
1130 -302 1669 -116 289 100 533 257 776 499 392 392 586 833 611 1395 7 162
-8 349 -42 518 -81 400 -262 731 -570 1038 -210 210 -400 342 -655 452 -281
122 -656 181 -990 156z m425 -43 c460 -54 850 -245 1191 -585 345 -344 539
-734 594 -1195 15 -131 13 -417 -5 -552 -58 -437 -239 -805 -560 -1137 -341
-352 -755 -558 -1230 -611 -116 -13 -374 -13 -490 0 -482 54 -894 261 -1245
626 -306 317 -489 693 -546 1117 -20 149 -19 464 1 605 54 364 188 673 422
969 147 187 399 403 603 519 371 210 817 296 1265 244z"/>
<path d="M2216 4229 c-27 -53 -98 -152 -149 -206 -40 -43 -29 -56 41 -47 71 8
77 12 57 34 -34 38 12 70 101 70 31 0 34 -3 34 -29 0 -23 -6 -31 -31 -40 -49
-17 -31 -36 39 -39 47 -2 64 1 68 11 6 17 -82 254 -104 280 -22 25 -28 22 -56
-34z m57 -66 l15 -38 -47 -5 c-25 -3 -47 -5 -49 -4 -5 3 52 83 59 84 4 0 14
-17 22 -37z"/>
<path d="M1270 4004 c-102 -54 -126 -77 -135 -126 -6 -33 -3 -41 22 -67 40
-39 90 -48 155 -27 71 23 118 22 118 -3 0 -17 -16 -23 -101 -42 -57 -13 -103
-29 -106 -36 -8 -20 17 -72 39 -84 16 -9 21 -6 30 19 9 24 26 35 88 61 122 49
143 87 89 155 l-22 28 -124 -7 c-119 -7 -142 -2 -110 22 6 5 34 18 61 28 42
15 53 16 87 5 58 -19 67 -4 35 58 -14 28 -29 53 -34 56 -4 2 -46 -16 -92 -40z"/>
<path d="M3216 3992 c-11 -13 -14 -28 -10 -49 5 -25 -2 -42 -38 -96 -38 -58
-47 -66 -78 -69 -30 -3 -35 -7 -38 -30 -2 -20 5 -32 30 -51 45 -33 96 -59 101
-49 13 22 17 66 7 77 -9 11 -5 25 17 62 l28 48 5 -117 c3 -67 10 -122 16 -128
9 -9 22 1 50 36 111 135 139 156 181 133 27 -15 41 -5 45 30 2 18 -8 32 -41
58 -24 19 -47 32 -52 31 -4 -2 -25 -28 -46 -57 -21 -30 -42 -53 -48 -50 -5 2
-17 40 -26 84 -21 102 -33 131 -58 144 -25 14 -25 14 -45 -7z"/>
<path d="M2105 3893 c-388 -33 -719 -183 -998 -452 -285 -274 -445 -591 -492
-974 -52 -423 46 -834 278 -1164 80 -114 297 -331 412 -412 535 -377 1306
-388 1845 -26 256 172 464 408 590 670 178 372 207 827 78 1235 -150 475 -573
898 -1048 1048 -209 66 -451 94 -665 75z m481 -62 c343 -70 641 -246 882 -521
244 -279 373 -597 390 -965 18 -380 -62 -688 -252 -975 -244 -366 -610 -617
-1025 -701 -142 -29 -422 -36 -571 -15 -341 49 -619 184 -868 421 -276 263
-436 563 -488 918 -23 154 -15 471 15 604 84 381 295 705 618 951 196 148 424
248 673 293 170 30 450 26 626 -10z"/>
<path d="M2398 3369 c-10 -5 -29 -26 -43 -47 l-25 -36 -119 3 c-94 2 -125 -1
-150 -13 -68 -36 -108 -149 -81 -231 7 -21 28 -55 47 -76 l35 -39 -346 0 -347
0 3 86 c3 80 5 88 29 106 14 11 45 22 68 25 48 7 62 26 38 51 -25 24 -379 24
-403 0 -22 -22 -11 -48 21 -48 31 0 96 -26 107 -43 4 -7 8 -49 8 -94 l0 -83
-50 0 c-39 0 -50 3 -50 16 0 9 -15 31 -33 49 -59 59 -155 59 -214 0 -30 -30
-33 -38 -33 -94 0 -107 41 -151 142 -151 64 0 115 28 131 70 10 28 15 30 59
30 l48 0 0 -62 c0 -35 -4 -68 -8 -75 -11 -17 -76 -43 -107 -43 -32 0 -43 -26
-21 -48 14 -15 42 -17 201 -17 159 0 187 2 201 17 25 25 11 45 -40 52 -24 4
-56 16 -70 27 -23 18 -26 28 -26 85 l0 64 395 0 c347 0 399 -2 420 -16 24 -16
25 -19 25 -145 0 -71 -2 -129 -5 -129 -19 0 -121 49 -169 81 -32 21 -62 37
-66 34 -17 -10 -18 -69 -4 -156 22 -138 41 -151 98 -64 20 30 42 52 49 50 6
-2 31 -9 55 -15 l42 -11 0 -204 0 -205 -135 0 -134 0 -3 108 -3 107 -512 3
-513 2 -15 29 c-8 16 -16 44 -17 63 -3 29 0 33 24 36 20 2 33 -5 55 -32 32
-41 50 -44 87 -15 34 26 34 62 0 88 -63 50 -167 50 -216 1 -22 -23 -28 -37
-28 -74 0 -65 13 -91 85 -165 68 -71 87 -105 78 -142 -13 -52 -82 -91 -123
-69 -28 15 -25 33 10 53 59 35 47 97 -26 132 -49 23 -66 12 -78 -49 -8 -38 -6
-55 10 -94 46 -112 180 -125 262 -26 41 50 42 87 1 142 l-31 42 441 0 440 0 3
-107 3 -108 168 -3 167 -2 0 -165 0 -165 -382 2 -383 3 -3 72 c-3 80 12 107
65 118 58 12 78 21 81 38 6 31 -43 39 -225 35 -123 -2 -176 -7 -185 -16 -19
-19 2 -46 38 -50 44 -4 85 -23 92 -43 4 -10 6 -49 4 -88 l-4 -71 -108 0 -108
0 -12 29 c-23 56 -54 75 -130 79 -68 4 -71 3 -104 -30 -42 -42 -55 -106 -35
-169 19 -57 55 -82 126 -86 70 -5 114 18 140 72 l17 35 108 0 108 0 0 -120 c0
-134 -2 -138 -84 -149 -50 -8 -70 -36 -41 -57 27 -20 376 -17 397 4 17 17 -2
46 -33 50 -49 6 -70 13 -89 32 -18 18 -20 34 -20 130 l0 110 385 0 385 0 0
-302 -1 -303 -31 -20 c-52 -33 -71 -67 -71 -127 0 -30 7 -67 16 -85 22 -42 89
-68 152 -60 86 12 115 49 115 147 0 52 -4 64 -31 94 -16 19 -39 38 -50 41 -18
6 -19 18 -19 311 l0 304 385 0 385 0 0 -99 c0 -55 -4 -111 -9 -124 -10 -25
-46 -44 -95 -50 -36 -4 -56 -31 -38 -49 19 -19 385 -19 404 0 17 17 -2 46 -33
50 -49 6 -70 13 -89 32 -18 18 -20 34 -20 130 l0 110 113 0 113 0 17 -35 c32
-67 121 -94 202 -61 50 21 70 58 69 133 0 101 -43 143 -146 143 -50 0 -62 -4
-92 -30 -18 -17 -37 -42 -40 -55 l-7 -26 -112 3 -112 3 -3 71 c-4 89 11 112
82 122 54 8 80 32 58 54 -9 9 -59 14 -165 16 -174 4 -235 -2 -244 -25 -8 -19
22 -43 53 -43 68 0 97 -43 92 -136 l-3 -59 -382 -3 -383 -2 0 165 0 165 168 2
167 3 3 108 3 107 439 0 440 0 -30 -42 c-40 -55 -40 -96 2 -144 57 -64 142
-83 205 -44 46 27 67 74 67 143 -1 68 -18 93 -57 83 -34 -8 -87 -60 -87 -85 0
-21 24 -51 54 -68 20 -11 12 -40 -14 -48 -10 -3 -36 2 -58 11 -31 12 -44 24
-52 50 -16 47 -7 68 67 146 71 76 93 118 93 178 0 81 -87 127 -186 100 -43
-12 -94 -49 -94 -69 0 -5 12 -23 26 -40 34 -40 68 -41 88 -2 16 30 34 41 67
41 25 0 26 -52 1 -98 l-17 -33 -510 -2 -510 -2 -3 -107 -3 -108 -134 0 -135 0
0 195 0 195 81 0 c44 0 89 5 101 11 29 15 48 70 48 136 0 75 -12 116 -55 187
-19 32 -35 59 -35 60 0 0 157 0 350 -2 l350 -3 0 -63 c0 -76 -14 -93 -92 -111
-46 -10 -53 -15 -53 -36 0 -21 6 -25 50 -31 64 -8 233 -8 305 0 50 6 55 9 55
31 0 21 -7 26 -52 36 -76 17 -83 26 -83 106 l0 69 50 0 c38 0 50 -4 50 -15 0
-8 13 -29 29 -47 25 -28 35 -32 93 -36 117 -7 163 39 156 156 -4 57 -8 68 -35
93 -70 62 -200 44 -232 -32 -15 -37 -18 -39 -63 -39 l-48 0 -1 73 c-2 118 1
123 83 141 46 11 53 16 53 37 0 23 -4 24 -85 31 -117 10 -306 0 -321 -18 -19
-23 -3 -41 42 -47 23 -3 54 -14 68 -25 24 -18 26 -26 29 -106 l3 -86 -402 0
-401 0 -62 37 c-143 86 -176 120 -176 181 0 17 9 40 19 53 17 21 27 24 83 23
78 -2 134 -28 189 -87 32 -35 41 -40 56 -31 21 13 28 111 16 209 -8 62 -21 75
-55 54z m1155 -427 c24 -21 22 -77 -3 -102 -22 -22 -69 -26 -100 -10 -27 15
-36 74 -16 104 23 37 81 40 119 8z m-2503 8 c24 -13 35 -63 19 -92 -16 -31
-28 -38 -66 -38 -62 0 -94 66 -57 118 17 24 70 30 104 12z m1346 -302 c22 -42
18 -85 -12 -114 -19 -20 -31 -24 -52 -19 -15 3 -31 10 -35 15 -8 7 -10 63 -8
200 l1 34 46 -44 c25 -25 52 -57 60 -72z m-1396 -968 c19 -19 26 -63 14 -94
-9 -23 -66 -39 -98 -26 -31 11 -49 51 -40 86 13 52 86 72 124 34z m2598 4 c19
-13 23 -23 20 -62 -3 -40 -7 -49 -31 -60 -55 -26 -107 4 -109 62 -1 30 4 44
21 58 28 22 69 23 99 2z m-1296 -791 c18 -17 25 -77 10 -100 -12 -19 -61 -34
-88 -27 -46 12 -63 87 -28 125 21 24 81 25 106 2z"/>
<path d="M504 3263 c-9 -21 -17 -51 -18 -68 -1 -30 0 -30 44 -27 44 3 47 1 93
-52 47 -54 52 -70 41 -113 -5 -19 -13 -23 -46 -23 -58 0 -97 24 -119 76 -11
24 -22 44 -25 44 -15 0 -65 -33 -78 -52 -34 -48 -11 -117 35 -105 11 3 35 -3
54 -14 81 -48 145 -42 206 20 36 36 37 38 28 84 -14 75 -49 131 -111 173 -24
17 -41 39 -46 58 -12 46 -39 46 -58 -1z"/>
<path d="M3927 3273 c-13 -12 -7 -31 18 -61 14 -17 23 -37 19 -45 -3 -8 -35
-27 -71 -42 l-65 -28 -17 22 c-14 18 -21 20 -43 12 -40 -15 -41 -52 -1 -132
71 -142 160 -170 261 -83 75 64 74 130 -3 277 -40 74 -76 103 -98 80z m83
-215 c0 -33 -35 -85 -69 -102 -29 -15 -30 -15 -51 14 -32 45 -23 62 45 87 76
27 75 27 75 1z"/>
<path d="M532 2132 c-12 -12 -24 -36 -27 -55 l-7 -35 -86 -4 c-109 -5 -126 -2
-137 25 -6 12 -17 22 -25 22 -21 0 -23 -42 -8 -145 12 -81 14 -85 38 -85 20 0
26 6 30 29 4 26 12 31 53 42 26 7 74 15 106 19 l58 7 7 -35 c9 -49 28 -62 55
-40 l21 18 -20 119 c-10 65 -23 123 -28 128 -7 7 -17 3 -30 -10z"/>
<path d="M3936 1982 c-3 -5 -9 -27 -14 -50 -12 -50 1 -73 41 -75 22 -2 27 -7
27 -28 0 -20 -9 -29 -45 -47 -56 -27 -77 -59 -79 -119 -1 -58 15 -71 30 -24 6
19 29 51 50 70 36 34 39 35 42 15 5 -33 46 -65 91 -71 35 -5 46 -2 67 18 34
32 55 111 57 220 2 101 -10 123 -38 69 l-16 -31 -85 2 c-83 2 -85 3 -100 30
-15 31 -20 34 -28 21z m194 -167 c0 -45 -35 -95 -66 -95 -6 0 -5 72 2 98 5 16
14 22 35 22 24 0 29 -4 29 -25z"/>
<path d="M774 1290 c-52 -21 -29 -71 42 -89 55 -14 104 -59 104 -94 0 -27 -78
-105 -133 -134 -27 -14 -32 -13 -57 6 -29 21 -40 19 -40 -8 0 -24 119 -166
138 -166 13 0 16 9 14 42 -3 40 0 45 70 118 l73 75 38 -10 c20 -6 42 -8 47 -5
6 4 -24 43 -65 88 -41 46 -90 105 -108 132 -27 43 -37 50 -67 52 -19 1 -44 -2
-56 -7z"/>
<path d="M3485 1116 c-51 -22 -58 -38 -53 -124 8 -133 54 -189 167 -200 45 -4
49 -2 83 37 39 45 58 98 58 158 0 35 -6 46 -44 81 -63 58 -145 77 -211 48z
m139 -113 c60 -76 61 -103 4 -132 l-43 -22 -48 53 c-44 48 -48 57 -44 91 7 48
22 67 57 67 22 0 38 -12 74 -57z"/>
<path d="M1505 708 c-6 -16 22 -334 30 -349 4 -5 17 -9 31 -9 18 0 52 26 117
88 62 58 107 92 137 103 24 8 45 20 47 26 2 5 -6 22 -18 37 -31 39 -80 31
-121 -19 -31 -37 -54 -42 -105 -24 -23 7 -32 18 -37 41 -9 44 -8 48 12 48 48
0 29 45 -23 54 -20 4 -43 10 -51 13 -7 3 -16 -1 -19 -9z m142 -213 c3 -9 -2
-22 -13 -30 -27 -20 -31 -19 -36 15 -4 26 -1 30 19 30 13 0 26 -7 30 -15z"/>
<path d="M2885 650 c-51 -17 -71 -45 -41 -56 15 -6 60 -93 53 -101 -2 -2 -23
11 -46 28 -28 20 -52 29 -69 27 -23 -3 -28 -9 -34 -47 -11 -68 -23 -68 -43 -1
l-18 61 21 15 c37 25 16 37 -52 29 -83 -9 -113 -35 -62 -55 23 -8 29 -22 72
-172 3 -9 -3 -29 -12 -43 -23 -35 -8 -49 37 -34 52 18 66 35 85 105 9 36 20
67 23 69 4 2 35 -19 70 -46 35 -27 71 -49 80 -49 25 0 83 39 78 53 -2 7 -14
14 -28 15 -39 6 -47 19 -59 94 -10 56 -10 76 0 91 18 30 0 36 -55 17z"/>
</g>
</svg>
