<?xml version="1.0" standalone="no"?>
<!DOCTYPE svg PUBLIC "-//W3C//DTD SVG 20010904//EN"
 "http://www.w3.org/TR/2001/REC-SVG-20010904/DTD/svg10.dtd">
<svg version="1.0" xmlns="http://www.w3.org/2000/svg"
 width="331.874529pt" height="329.955010pt" viewBox="0 0 331.874529 329.955010"
 preserveAspectRatio="xMidYMid meet">
<metadata>
Created by potrace 1.16, written by Peter Selinger 2001-2019
</metadata>
<g transform="translate(-2.089615,334.374866) scale(0.100000,-0.100000)"
fill="#000000" stroke="none">
<path d="M1540 3339 c-52 -5 -120 -14 -150 -21 -30 -6 -59 -12 -65 -14 -103
-21 -232 -60 -249 -76 -6 -4 -17 -8 -26 -8 -20 0 -114 -45 -152 -72 -16 -11
-28 -17 -28 -14 0 6 -182 -116 -245 -165 -77 -58 -305 -303 -305 -327 0 -5 -7
-16 -17 -23 -9 -8 -23 -27 -30 -44 -8 -16 -30 -57 -49 -90 -50 -87 -91 -178
-119 -260 -28 -84 -74 -308 -72 -348 3 -37 22 -39 24 -2 1 17 9 62 18 100 9
39 20 86 24 105 5 19 16 55 25 80 8 25 16 52 16 61 0 9 6 29 14 45 8 16 24 52
35 79 12 28 28 61 37 75 8 14 33 61 55 105 22 44 51 91 63 105 12 14 34 41 48
61 35 47 230 238 288 282 67 50 196 137 204 137 3 0 52 23 108 50 275 135 650
185 968 130 30 -5 73 -12 95 -15 72 -9 279 -83 390 -140 215 -109 395 -262
519 -439 15 -23 43 -57 61 -76 26 -28 105 -175 105 -196 0 -3 11 -30 25 -60
14 -30 25 -59 25 -65 0 -5 7 -24 17 -42 19 -38 68 -211 89 -317 29 -150 11
-550 -25 -550 -4 0 -4 28 1 62 35 248 21 479 -37 652 -9 26 -18 58 -21 70 -8
43 -57 172 -75 198 -11 14 -19 35 -19 46 0 10 -11 36 -25 56 -14 20 -25 38
-25 40 0 12 -124 184 -182 253 -85 102 -208 208 -323 278 -18 11 -50 31 -71
45 -22 14 -73 40 -114 59 -41 19 -92 42 -113 52 -22 11 -46 19 -56 19 -9 0
-51 11 -94 25 -99 31 -201 40 -442 39 -203 0 -292 -12 -442 -60 -42 -13 -81
-24 -87 -24 -7 0 -27 -11 -46 -25 -18 -13 -37 -22 -42 -19 -4 3 -34 -10 -66
-28 -31 -18 -60 -32 -63 -31 -3 1 -29 -16 -59 -39 -29 -22 -59 -41 -66 -42
-40 -6 -354 -282 -354 -312 0 -4 -15 -24 -33 -44 -61 -64 -176 -266 -223 -388
-57 -150 -81 -247 -91 -367 -2 -33 -9 -76 -14 -95 -27 -102 18 -491 67 -582 8
-14 14 -32 14 -39 0 -23 52 -152 72 -180 11 -14 20 -32 21 -40 2 -8 14 -33 27
-54 14 -22 27 -44 29 -50 9 -22 105 -155 112 -155 4 0 11 -9 14 -20 4 -11 58
-72 121 -135 83 -83 147 -136 227 -188 95 -62 268 -156 302 -163 6 -1 44 -15
85 -29 41 -15 86 -29 100 -32 14 -2 43 -9 65 -15 73 -19 269 -36 387 -33 65 2
121 6 125 8 5 3 35 8 68 12 59 6 117 19 225 48 54 15 81 25 138 49 15 6 29 12
32 13 17 6 69 28 90 39 70 36 132 73 226 136 66 45 202 173 292 275 36 41 47
49 33 26 -26 -45 -204 -228 -261 -268 -113 -80 -237 -161 -257 -167 -12 -4
-27 -13 -33 -21 -7 -8 -19 -15 -27 -15 -9 0 -48 -16 -87 -35 -68 -33 -142 -57
-234 -76 -24 -5 -48 -12 -54 -15 -6 -4 -23 -8 -37 -9 -14 -2 -62 -8 -106 -14
-44 -6 -111 -12 -150 -14 -38 -1 -71 -6 -72 -12 -3 -13 236 -9 286 5 20 5 52
12 71 14 19 3 65 14 103 25 74 22 77 23 92 26 6 1 33 9 60 19 28 9 55 18 60
20 58 15 273 134 350 193 17 13 41 31 54 40 49 36 195 180 250 248 56 68 191
266 191 278 0 4 16 41 36 84 33 70 92 244 108 318 20 88 45 289 46 354 1 236
-75 565 -174 751 -16 30 -38 73 -49 95 -11 22 -31 54 -44 72 -12 17 -23 35
-23 39 0 17 -121 166 -199 245 -111 111 -248 211 -386 281 -112 57 -224 105
-260 112 -11 2 -74 16 -140 31 -66 15 -140 29 -165 31 -111 9 -273 10 -360 3z
m424 -113 c54 -9 133 -28 175 -42 42 -14 81 -27 86 -28 34 -7 137 -51 146 -62
6 -8 19 -14 28 -14 9 0 43 -18 76 -40 33 -22 65 -40 70 -40 19 0 36 -40 29
-68 -10 -41 -75 -119 -109 -132 l-30 -11 70 -66 c104 -97 110 -101 140 -73 31
29 24 40 -24 40 -28 0 -47 8 -75 33 l-38 32 27 25 c20 19 29 22 43 14 9 -6 17
-22 17 -35 0 -31 23 -27 52 8 26 32 22 43 -17 43 -35 0 -44 22 -21 51 l18 22
41 -23 c32 -18 44 -21 55 -12 11 9 26 -2 73 -55 171 -194 270 -357 344 -568
23 -66 43 -129 44 -140 2 -11 10 -42 18 -70 8 -27 12 -58 9 -69 -6 -15 -12 -9
-32 30 -33 65 -76 93 -134 90 -59 -3 -90 -32 -98 -91 -5 -34 -2 -53 15 -85 30
-56 65 -87 80 -72 9 9 3 20 -25 46 -29 27 -37 41 -37 69 0 52 26 76 87 84 49
5 52 4 66 -23 18 -36 13 -50 -24 -70 -44 -22 -26 -35 46 -31 49 2 66 -1 70
-12 10 -24 7 -302 -4 -381 -12 -88 -62 -293 -90 -366 -34 -89 -99 -224 -108
-224 -5 0 -19 27 -32 60 -13 33 -34 71 -45 84 -29 32 -57 82 -50 89 4 3 3 14
-1 24 -6 16 -8 16 -26 -6 -26 -31 -24 -61 6 -90 30 -28 31 -50 4 -85 -23 -30
-69 -35 -89 -11 -11 14 -15 14 -32 -2 -42 -38 -48 -86 -8 -60 16 9 30 8 71 -6
63 -23 84 -27 132 -28 26 -1 37 -6 37 -17 0 -43 -263 -328 -380 -411 -168
-119 -445 -252 -555 -266 -11 -1 -45 -7 -75 -13 -30 -7 -77 -16 -105 -21 -67
-13 -421 -8 -465 7 -19 6 -63 16 -97 23 -43 8 -63 16 -63 26 0 32 144 193 172
193 29 0 30 19 1 33 -41 20 -66 16 -68 -11 -1 -12 -7 -28 -13 -34 -16 -16 -81
0 -109 28 -23 24 -24 26 -8 38 16 11 13 15 -29 40 -55 32 -70 28 -51 -17 7
-17 16 -48 19 -67 3 -19 14 -64 23 -100 24 -85 23 -96 -7 -92 -22 2 -147 57
-220 97 -14 8 -43 23 -65 34 -22 11 -49 29 -59 40 -11 12 -24 21 -31 21 -7 0
-20 9 -30 20 -10 11 -21 20 -25 20 -18 0 -221 191 -271 255 -22 28 -55 69 -74
93 -43 54 -48 93 -5 43 27 -32 55 -36 43 -6 -7 21 11 41 74 81 63 40 66 40 92
13 28 -30 47 -14 21 18 -11 14 -20 30 -20 35 0 16 -53 88 -65 88 -7 0 -18 7
-25 15 -23 28 -104 -7 -98 -43 2 -9 -8 -18 -25 -23 -57 -15 -67 -45 -40 -115
3 -8 1 -14 -4 -14 -9 0 -113 197 -117 223 -1 6 -9 26 -18 43 -9 17 -24 61 -33
98 -8 38 -18 73 -22 79 -3 6 -7 22 -9 36 -1 14 -4 37 -7 51 -17 84 -27 233
-23 345 4 128 6 139 76 413 4 18 15 43 24 57 9 13 16 30 16 38 0 12 62 139
126 257 49 91 243 306 342 379 190 140 389 237 602 292 227 58 407 65 654 25z
m1286 -1938 c-14 -59 -60 -163 -60 -136 0 9 5 20 10 23 6 3 10 19 10 35 0 32
39 144 47 136 3 -3 0 -29 -7 -58z m-79 -224 c-12 -21 -21 -44 -21 -50 0 -6
-19 -44 -41 -85 -23 -41 -47 -83 -53 -94 -22 -40 -58 -85 -67 -85 -5 0 9 28
31 63 22 34 67 118 101 187 34 69 64 120 66 113 2 -6 -5 -28 -16 -49z m-2621
-50 c0 -17 -57 -47 -76 -40 -21 8 -17 53 7 77 l21 21 24 -23 c13 -12 24 -28
24 -35z m2407 -68 c-5 -15 -47 -20 -60 -7 -7 7 -4 18 8 37 l18 28 19 -24 c10
-13 17 -28 15 -34z m-2521 8 c7 -28 -7 -44 -38 -44 -13 0 -18 8 -18 28 0 33 7
42 31 42 12 0 21 -10 25 -26z m864 -612 c0 -4 -9 -18 -20 -32 -21 -28 -34 -22
-45 22 -5 20 -3 27 12 30 19 5 53 -8 53 -20z"/>
<path d="M1575 3211 c-39 -8 -40 -35 -1 -39 l28 -4 -6 -71 c-3 -40 -5 -75 -6
-80 0 -4 -12 -12 -26 -17 -40 -16 -18 -30 44 -28 146 4 248 91 211 179 -20 49
-62 69 -144 68 -38 -1 -83 -4 -100 -8z m155 -31 c22 -12 44 -72 36 -98 -4 -10
-19 -30 -34 -44 -21 -20 -34 -25 -58 -21 -31 5 -31 6 -23 41 5 21 6 52 3 69
-4 18 -4 40 0 48 6 17 48 20 76 5z"/>
<path d="M1575 2949 c-92 -7 -243 -38 -329 -68 -209 -73 -453 -262 -596 -461
-70 -97 -130 -201 -130 -225 0 -7 -7 -16 -16 -19 -8 -3 -12 -11 -8 -17 3 -6 2
-21 -4 -32 -64 -139 -96 -466 -61 -637 5 -25 12 -61 15 -80 3 -19 12 -48 20
-64 8 -16 14 -36 14 -44 0 -8 11 -38 24 -66 13 -28 33 -71 44 -96 12 -25 40
-73 64 -106 108 -153 158 -220 180 -239 76 -65 173 -137 243 -181 82 -51 257
-124 298 -124 13 0 37 -7 54 -15 16 -8 59 -19 94 -24 86 -13 396 -6 434 9 17
6 41 13 55 14 30 2 164 49 238 82 29 13 55 24 57 24 14 0 148 90 200 133 83
70 195 180 195 191 0 5 7 18 17 28 9 10 21 27 27 37 6 10 29 45 51 77 40 58
115 209 115 231 0 6 5 24 12 40 6 15 12 33 13 38 2 6 10 35 18 65 37 129 40
304 8 480 -20 112 -23 126 -38 175 -37 125 -146 351 -182 375 -4 3 -24 27 -44
53 -21 27 -76 81 -125 121 -48 41 -98 85 -111 100 -14 14 -28 26 -33 26 -4 0
-29 15 -55 34 -89 62 -217 116 -321 136 -30 5 -57 12 -60 14 -29 17 -242 25
-377 15z m350 -65 c39 -9 79 -18 90 -19 11 -2 42 -13 68 -24 27 -12 53 -21 59
-21 20 0 155 -73 246 -133 90 -60 119 -94 67 -81 -32 8 -90 -28 -111 -69 -11
-20 -15 -45 -11 -76 6 -57 -6 -78 -84 -149 -33 -29 -170 -166 -306 -305 -137
-138 -256 -254 -267 -255 -13 -3 -106 85 -327 309 -169 172 -311 319 -313 326
-3 8 1 30 9 50 22 52 19 68 -20 101 -43 38 -94 49 -146 32 -22 -7 -41 -11 -44
-8 -6 5 127 118 138 118 3 0 27 14 53 32 60 40 193 108 213 108 9 0 36 9 60
20 24 11 54 22 67 24 13 3 29 8 36 13 51 32 397 37 523 7z m606 -360 c32 -29
8 -105 -38 -122 -35 -12 -65 -1 -86 32 -39 59 3 124 73 111 19 -4 42 -13 51
-21z m-1731 2 c0 -3 -5 -17 -11 -33 -25 -63 -22 -90 17 -129 36 -36 38 -36 93
-29 31 4 66 7 77 7 15 0 88 -67 233 -213 191 -193 209 -214 196 -229 -8 -9
-28 -41 -43 -70 -15 -30 -43 -66 -62 -81 -31 -24 -46 -27 -135 -32 -55 -3
-106 -2 -113 2 -7 4 -19 33 -26 63 -35 149 -126 224 -272 222 -72 -1 -87 -4
-128 -30 -45 -28 -86 -80 -86 -109 0 -22 20 -28 38 -13 79 65 155 49 193 -38
46 -108 0 -262 -84 -285 -43 -11 -88 -8 -130 9 -58 24 -63 -10 -10 -69 48 -53
93 -71 175 -71 85 1 132 15 188 56 49 36 120 145 120 183 0 13 1 23 3 23 1 1
36 3 78 7 62 4 90 1 147 -17 73 -23 99 -43 123 -95 14 -28 54 -44 54 -20 0 6
-4 72 -8 148 -6 114 -5 142 8 167 9 17 21 27 28 24 8 -3 48 -43 91 -90 l78
-85 -134 -132 c-74 -73 -192 -188 -262 -256 -70 -69 -156 -156 -191 -194 l-64
-70 -60 2 c-91 3 -151 -39 -151 -104 0 -14 -6 -25 -12 -25 -31 1 -149 192
-198 320 -12 30 -28 69 -35 85 -8 17 -23 75 -34 130 -26 124 -28 345 -5 450 8
39 18 84 21 100 2 17 11 44 18 60 8 17 28 65 44 107 42 107 68 152 181 311 29
40 50 58 50 43z m159 -22 c31 -39 27 -78 -10 -105 -37 -26 -67 -27 -102 -4
-37 24 -36 65 4 104 39 40 79 41 108 5z m1679 -54 c12 -11 29 -35 38 -53 9
-18 22 -39 29 -47 12 -14 50 -88 73 -140 74 -166 125 -399 110 -505 -3 -27 -7
-78 -7 -111 -1 -63 -31 -226 -51 -279 -6 -16 -11 -31 -11 -33 1 -1 -12 -29
-29 -62 -17 -33 -28 -60 -25 -60 7 0 -35 -79 -46 -86 -5 -3 -15 -20 -23 -37
-13 -32 -81 -119 -97 -125 -5 -2 -9 6 -9 18 0 35 -37 86 -73 101 -17 8 -58 13
-89 12 l-58 -1 -72 66 c-39 37 -94 91 -122 121 -28 29 -145 148 -260 263
l-209 209 79 80 c43 45 114 115 157 157 43 43 159 157 258 254 179 176 180
176 207 162 28 -14 90 -17 129 -6 31 10 66 59 66 93 0 34 6 36 35 9z m-1835
-495 c54 -23 143 -114 156 -161 16 -57 14 -87 -11 -166 -31 -96 -73 -138 -159
-161 -48 -13 -79 -15 -123 -10 -71 9 -89 33 -26 33 23 0 57 7 74 15 31 15 118
95 103 95 -4 0 0 11 9 25 9 14 13 25 10 25 -4 0 0 12 8 28 11 22 11 36 2 72
-18 68 -57 133 -91 149 -26 13 -44 16 -103 20 -24 2 -7 24 29 37 47 17 80 17
122 -1z m1189 -610 c172 -173 316 -322 321 -330 5 -10 4 -28 -2 -47 -25 -70
-6 -141 45 -168 15 -8 49 -15 76 -14 27 0 47 -3 46 -7 -9 -25 -301 -199 -334
-199 -7 0 -25 -7 -41 -14 -24 -13 -56 -26 -73 -31 -49 -13 -167 -35 -205 -39
-27 -3 -77 -8 -110 -12 -52 -5 -194 9 -310 31 -116 23 -307 109 -423 192 -40
29 -82 57 -92 63 -32 17 -23 30 23 30 48 0 97 26 123 65 15 23 15 29 0 74 -9
28 -16 56 -16 64 0 15 637 657 652 657 5 0 149 -142 320 -315z m-1040 -375
c25 -26 29 -36 24 -62 -9 -44 -24 -58 -63 -58 -36 0 -109 34 -116 54 -9 23 13
56 50 75 52 28 70 26 105 -9z m1560 -3 c13 -20 9 -94 -5 -106 -41 -33 -105
-18 -135 31 -14 24 -14 30 -2 54 8 14 24 30 35 35 26 11 97 2 107 -14z"/>
<path d="M1593 2670 c-105 -32 -182 -108 -202 -201 -34 -157 0 -283 103 -376
66 -60 108 -75 204 -72 52 1 80 8 124 31 98 52 172 128 153 159 -3 5 -30 -5
-59 -21 -42 -24 -61 -29 -100 -26 -41 3 -55 11 -96 50 -58 56 -86 130 -70 187
15 50 41 102 59 116 28 22 90 34 135 28 42 -7 71 -27 100 -70 12 -16 16 -17
30 -6 14 12 13 18 -4 63 -23 62 -39 79 -93 106 -65 31 -76 34 -158 41 -54 4
-90 2 -126 -9z m212 -50 c11 -4 28 -11 38 -14 18 -6 24 -26 7 -27 -5 0 -31 -1
-57 -1 -27 0 -60 -7 -75 -14 -15 -8 -31 -14 -35 -13 -13 3 -82 -104 -93 -143
-14 -48 -4 -104 29 -164 35 -64 95 -102 179 -110 35 -4 61 -11 59 -17 -1 -5
-25 -21 -52 -35 -47 -25 -79 -29 -172 -20 -46 5 -104 57 -151 136 -36 60 -42
79 -43 130 -3 141 86 263 221 302 29 9 115 2 145 -10z"/>
<path d="M2165 2018 c-24 -14 -18 -25 28 -57 69 -47 96 -90 100 -156 2 -31 1
-58 -3 -60 -4 -3 -41 -5 -81 -6 -103 -2 -155 32 -195 126 -10 25 -20 35 -32
33 -15 -3 -17 -23 -20 -189 -2 -154 0 -188 12 -198 21 -17 35 -6 34 27 -1 32
21 79 49 104 34 31 91 48 162 48 l69 0 7 -80 c6 -68 4 -85 -11 -108 -38 -59
-87 -112 -104 -112 -23 0 -46 -28 -34 -40 5 -5 87 -11 182 -13 135 -3 175 -1
183 9 18 22 4 39 -40 54 -39 12 -59 28 -103 79 -12 14 -17 40 -18 93 -3 130
-10 118 72 118 67 0 76 -3 134 -41 72 -46 83 -58 89 -90 7 -33 32 -56 46 -42
9 9 23 159 19 198 0 6 -2 53 -4 106 -2 53 -6 101 -10 108 -14 23 -35 10 -57
-36 -32 -67 -57 -99 -100 -129 -33 -23 -48 -26 -110 -25 -39 0 -75 3 -80 7
-13 7 -11 64 2 105 14 41 75 119 93 119 8 0 19 7 26 15 10 12 10 18 0 30 -10
12 -38 15 -151 13 -76 -1 -145 -6 -154 -10z"/>
<path d="M1655 1367 c-22 -5 -51 -14 -65 -20 -14 -6 -28 -10 -32 -9 -14 3
-126 -110 -139 -140 -11 -27 -10 -32 6 -44 17 -12 22 -10 45 18 23 28 34 32
88 36 104 7 185 -38 223 -126 14 -32 17 -55 13 -85 -17 -106 -91 -160 -197
-143 -23 4 -52 9 -63 11 -12 1 -30 7 -40 12 -30 15 -68 10 -72 -9 -10 -49 88
-146 155 -154 13 -1 29 -7 36 -12 7 -5 48 -10 93 -11 142 -4 257 63 319 185
27 53 30 69 30 150 0 86 -2 95 -40 169 -45 89 -109 150 -165 160 -19 3 -49 10
-66 16 -34 10 -67 9 -129 -4z m157 -43 c41 -13 87 -55 117 -108 62 -111 71
-275 20 -348 -11 -14 -19 -31 -19 -36 0 -15 -57 -60 -99 -79 -46 -20 -191 -26
-224 -8 -13 6 -35 15 -49 18 -34 9 -78 45 -78 64 0 11 6 14 23 9 67 -20 142
-28 192 -20 86 12 174 132 161 220 -7 58 -73 174 -98 174 -6 0 -20 7 -30 17
-12 11 -43 18 -96 21 -42 2 -79 6 -82 9 -3 3 8 15 24 28 53 43 168 62 238 39z"/>
<path d="M677 2842 c-14 -15 -13 -26 14 -117 22 -75 27 -106 19 -122 -15 -36
4 -35 41 3 33 34 33 35 11 41 -33 8 -29 52 7 87 36 34 76 30 91 -9 5 -14 12
-25 16 -25 3 0 24 14 45 31 40 31 44 51 10 42 -11 -3 -57 13 -103 34 -111 52
-131 57 -151 35z m71 -88 c-15 -15 -17 -15 -28 6 -6 12 -9 29 -5 38 5 14 9 13
28 -6 20 -20 20 -23 5 -38z"/>
<path d="M2715 2821 c-3 -6 -4 -11 -1 -11 3 0 1 -11 -4 -25 -13 -34 6 -43 33
-16 17 16 19 25 11 38 -13 21 -30 27 -39 14z"/>
<path d="M176 1960 c-12 -37 -26 -123 -20 -131 3 -6 17 2 30 16 17 19 31 25
47 22 12 -3 45 -9 72 -13 28 -4 55 -14 62 -23 17 -23 29 -5 36 51 7 50 -3 67
-23 43 -16 -19 -170 -19 -170 0 0 6 -6 20 -14 31 -12 16 -15 16 -20 4z"/>
<path d="M2156 490 c-44 -28 -53 -50 -22 -50 22 0 26 -37 6 -55 -16 -15 -19
-13 -46 20 -39 48 -93 62 -130 33 -33 -26 -17 -49 18 -26 28 19 48 12 81 -28
22 -26 24 -34 14 -50 -16 -23 -14 -58 3 -79 16 -20 90 -20 137 0 63 26 65 31
34 78 -15 23 -35 61 -46 84 l-18 43 23 18 c13 11 20 24 16 30 -10 17 -17 15
-70 -18z m35 -157 c8 -9 12 -19 11 -22 -2 -3 -8 -14 -13 -23 -15 -27 -75 -24
-82 4 -7 26 -1 37 27 48 31 13 42 12 57 -7z"/>
<path d="M2301 326 c-7 -8 -8 -17 -3 -20 6 -3 15 1 21 8 7 8 8 17 3 20 -6 3
-15 -1 -21 -8z"/>
<path d="M25 1798 c-9 -24 -1 -188 10 -191 14 -3 19 183 6 196 -7 7 -12 5 -16
-5z"/>
<path d="M35 1510 c-8 -13 2 -90 16 -128 18 -48 29 -10 17 58 -12 69 -21 89
-33 70z"/>
<path d="M65 1330 c-8 -12 1 -48 37 -155 38 -110 82 -210 97 -219 6 -4 11 -13
11 -20 0 -13 74 -140 119 -206 141 -203 383 -408 616 -522 50 -24 95 -46 100
-47 6 -2 21 -7 34 -12 13 -5 31 -11 40 -12 9 -2 25 -8 36 -13 41 -22 135 -38
147 -26 13 13 16 11 -80 37 -34 9 -66 14 -71 11 -5 -3 -14 1 -21 9 -7 8 -18
15 -25 15 -32 0 -313 155 -398 219 -93 70 -268 248 -320 325 -16 22 -37 50
-48 62 -10 11 -19 25 -19 31 0 6 -7 16 -15 23 -9 7 -25 34 -37 59 -11 25 -29
58 -40 74 -11 15 -28 51 -38 80 -10 28 -30 78 -44 110 -14 32 -26 66 -26 76 0
21 -36 111 -44 111 -3 0 -7 -4 -11 -10z"/>
<path d="M1345 90 c-7 -11 -5 -12 65 -30 49 -12 115 -9 115 5 0 5 -20 11 -45
12 -25 2 -58 8 -74 13 -37 13 -53 13 -61 0z"/>
<path d="M1555 60 c-3 -5 -2 -10 2 -12 13 -7 33 -3 36 6 3 12 -31 17 -38 6z"/>
</g>
</svg>
