<svg id="svg" xmlns="http://www.w3.org/2000/svg" xmlns:xlink="http://www.w3.org/1999/xlink" width="400" height="621.875" viewBox="0, 0, 400,621.875" version="1.1"><g id="svgg"><path id="path0" d="M190.625 11.641 C 127.073 19.800,70.511 68.945,55.663 128.906 C 54.386 134.063,52.423 141.797,51.301 146.094 C 41.565 183.368,56.601 243.980,83.843 277.275 C 182.357 397.678,368.328 336.808,373.992 182.305 C 377.779 79.000,291.494 -1.307,190.625 11.641 M239.844 16.255 C 368.460 41.991,415.190 207.958,318.527 295.713 C 207.651 396.372,32.325 299.852,55.263 150.781 C 62.343 104.768,89.089 62.917,126.618 39.126 C 160.693 17.525,203.240 8.930,239.844 16.255 M218.359 20.566 C 213.570 22.315,212.850 25.173,216.446 28.158 C 218.582 29.930,218.582 30.409,216.446 32.769 C 213.259 36.290,213.441 37.923,217.286 40.324 C 221.453 42.926,220.710 48.555,215.884 50.952 C 213.878 51.948,211.452 53.548,210.493 54.507 C 209.535 55.465,205.454 56.250,201.425 56.250 C 133.180 56.250,76.437 141.472,98.950 210.156 C 126.543 294.340,235.605 324.199,293.901 263.530 L 300.060 257.120 299.057 262.136 C 297.745 268.696,301.690 275.000,307.106 275.000 C 310.222 275.000,311.211 275.976,311.978 279.812 C 312.775 283.799,313.506 284.462,316.236 283.681 C 318.048 283.162,321.492 282.309,323.889 281.786 C 326.286 281.263,327.973 280.049,327.637 279.089 C 327.030 277.351,323.915 277.091,317.969 278.281 C 315.413 278.792,314.753 277.958,314.345 273.703 C 313.945 269.530,313.325 268.713,311.220 269.579 C 300.440 274.014,299.919 261.530,310.204 245.237 C 322.299 226.078,327.532 209.871,329.225 186.328 C 329.896 176.998,330.735 173.438,332.263 173.438 C 333.425 173.438,334.375 172.383,334.375 171.094 C 334.375 166.440,339.956 168.710,342.542 174.416 C 344.936 179.697,344.928 180.574,342.428 187.307 C 339.575 194.991,335.498 196.937,334.657 191.016 C 334.049 186.734,331.898 186.417,330.842 190.452 C 329.920 193.980,331.060 195.963,334.804 197.345 C 336.813 198.087,337.320 199.392,336.644 202.085 C 335.746 205.663,339.039 210.937,342.171 210.938 C 345.275 210.938,348.438 208.881,348.438 206.864 C 348.438 204.309,345.941 203.969,344.484 206.326 C 343.199 208.406,339.224 205.389,339.662 202.666 C 340.659 196.463,345.175 193.744,350.584 196.089 C 352.626 196.974,353.937 196.599,354.915 194.850 C 355.687 193.470,357.364 191.297,358.640 190.021 C 360.331 188.329,360.470 187.395,359.150 186.580 C 358.154 185.964,356.489 186.622,355.450 188.043 C 353.448 190.780,345.313 191.658,345.313 189.136 C 345.313 185.920,349.049 179.688,350.977 179.688 C 353.797 179.688,356.250 174.597,356.250 168.744 C 356.250 164.557,356.761 163.918,359.766 164.346 C 362.552 164.743,363.217 165.759,362.973 169.245 C 362.604 174.506,366.140 174.226,366.917 168.932 C 367.614 164.180,364.547 160.938,359.353 160.938 C 355.974 160.938,354.798 160.029,353.985 156.789 C 352.813 152.120,354.953 149.953,359.548 151.155 C 361.172 151.580,362.500 151.155,362.500 150.212 C 362.500 147.254,354.672 146.221,352.059 148.834 C 350.047 150.846,349.974 152.449,351.570 159.584 C 353.696 169.088,353.260 175.235,350.391 176.180 C 349.027 176.629,348.438 174.752,348.438 169.960 C 348.438 166.075,347.379 161.781,345.997 160.064 C 343.707 157.219,343.617 157.404,344.535 163.050 C 345.513 169.064,345.511 169.067,341.940 166.565 C 337.364 163.360,336.587 163.413,332.813 167.188 C 329.688 170.312,329.688 170.312,329.688 162.471 C 329.688 115.750,276.104 60.975,226.341 56.825 L 213.985 55.794 218.711 52.920 C 224.309 49.516,225.586 40.221,220.713 38.351 C 218.259 37.410,218.345 37.038,221.580 34.598 L 225.171 31.889 221.960 28.984 C 217.776 25.196,217.912 23.987,222.656 22.796 C 224.805 22.257,226.563 21.126,226.563 20.283 C 226.563 18.409,224.027 18.496,218.359 20.566 M178.125 23.343 C 178.125 24.254,180.234 25.000,182.813 25.000 C 187.453 25.000,189.363 28.352,185.932 30.472 C 185.069 31.005,184.813 33.232,185.362 35.420 C 186.015 38.022,185.612 39.864,184.196 40.745 C 182.396 41.865,182.376 42.648,184.074 45.387 C 186.513 49.321,184.476 52.668,179.183 53.422 C 177.312 53.688,176.065 54.609,176.411 55.469 C 177.312 57.703,183.136 56.465,186.180 53.392 C 188.104 51.451,188.905 47.175,189.305 36.719 L 189.844 22.656 183.984 22.171 C 180.593 21.891,178.125 22.384,178.125 23.343 M265.625 31.250 C 265.625 32.109,266.328 32.813,267.188 32.813 C 269.640 32.813,269.016 37.741,266.164 40.893 C 263.756 43.553,263.763 43.954,266.263 46.717 C 268.817 49.539,268.772 49.810,265.334 52.263 C 261.790 54.791,261.778 54.887,264.752 57.109 C 267.293 59.007,267.371 59.375,265.235 59.375 C 259.989 59.375,261.198 62.300,268.375 66.974 C 276.135 72.027,279.477 71.001,273.186 65.497 C 270.674 63.299,270.142 62.046,271.484 61.488 C 274.246 60.341,273.917 56.250,271.064 56.250 C 269.429 56.250,268.916 55.156,269.416 52.734 C 271.649 41.920,271.958 34.015,270.232 31.934 C 268.078 29.339,265.625 28.975,265.625 31.250 M143.750 35.938 C 143.750 36.797,144.783 37.500,146.045 37.500 C 147.437 37.500,147.988 38.417,147.445 39.831 C 146.934 41.161,147.626 42.574,149.057 43.123 C 152.198 44.328,152.280 47.459,149.236 49.986 C 147.956 51.048,147.323 52.586,147.829 53.404 C 151.645 59.579,155.398 47.972,152.043 40.369 C 149.619 34.874,143.750 31.738,143.750 35.938 M121.038 50.359 C 110.191 57.468,110.127 57.523,111.284 58.680 C 111.854 59.250,115.561 57.531,119.520 54.859 C 128.552 48.763,128.246 48.681,127.118 56.909 C 126.199 63.612,126.304 63.832,130.650 64.330 C 136.681 65.021,137.179 69.065,132.167 76.638 C 127.714 83.367,127.388 84.375,129.668 84.375 C 137.022 84.375,141.240 64.613,134.434 62.044 C 129.657 60.241,129.607 59.972,131.786 47.852 C 132.359 44.659,128.286 45.609,121.038 50.359 M304.484 58.974 C 290.672 74.103,288.889 78.190,294.499 81.866 C 296.629 83.262,299.460 86.507,300.789 89.077 C 302.118 91.647,303.890 93.750,304.728 93.750 C 307.850 93.750,306.081 88.833,300.941 83.224 L 295.632 77.430 301.332 70.032 C 307.277 62.314,309.375 60.942,309.375 64.770 C 309.375 72.324,322.562 82.751,326.780 78.532 C 327.974 77.338,326.414 75.952,321.362 73.717 C 315.234 71.007,314.005 69.656,312.339 63.805 C 309.685 54.481,308.982 54.048,304.484 58.974 M230.593 60.813 C 255.131 64.364,303.125 94.786,303.125 106.789 C 303.125 107.646,304.090 109.458,305.268 110.814 C 325.724 134.355,331.361 182.539,317.858 218.414 C 288.114 297.435,186.125 316.760,128.878 254.222 C 54.890 173.397,122.338 45.146,230.593 60.813 M107.712 84.673 C 107.656 84.939,107.260 89.023,106.831 93.750 C 105.756 105.598,103.614 106.799,102.301 96.289 C 100.798 84.262,98.603 86.638,99.611 99.201 C 100.548 110.867,99.997 111.495,95.505 103.882 C 89.722 94.079,74.516 94.264,76.313 104.116 C 77.136 108.628,81.508 112.867,83.395 110.980 C 84.478 109.897,84.058 108.706,82.084 107.263 C 77.938 104.231,80.050 100.000,85.709 100.000 C 90.591 100.000,94.327 104.122,96.196 111.571 C 99.345 124.118,110.938 106.847,110.938 89.608 C 110.938 86.872,108.145 82.600,107.712 84.673 M130.506 105.078 C 136.827 123.862,128.105 142.450,118.137 131.436 C 115.323 128.327,117.868 123.438,122.299 123.438 C 123.490 123.438,123.418 122.803,122.077 121.484 C 119.864 119.308,114.063 124.857,114.063 129.150 C 114.063 131.515,120.857 139.067,122.976 139.057 C 127.051 139.038,134.196 132.517,135.257 127.848 L 136.438 122.656 137.877 128.052 C 140.668 138.516,149.647 142.184,155.978 135.446 C 161.710 129.344,159.009 120.313,151.451 120.313 C 147.496 120.313,147.569 122.846,151.555 123.888 C 156.319 125.134,157.171 129.461,153.396 133.236 C 145.204 141.428,136.649 125.604,141.176 110.630 C 143.794 101.970,143.538 101.563,135.495 101.563 C 129.786 101.563,129.412 101.826,130.506 105.078 M138.485 108.203 C 137.967 110.137,137.484 112.773,137.412 114.063 C 137.323 115.640,136.841 115.384,135.938 113.281 C 133.776 108.251,134.175 104.688,136.901 104.688 C 138.758 104.688,139.177 105.619,138.485 108.203 M329.636 109.766 L 329.584 114.844 326.623 111.295 C 323.833 107.949,320.474 108.969,322.656 112.500 C 323.187 113.359,322.789 114.063,321.772 114.063 C 320.524 114.063,320.247 115.689,320.920 119.056 C 323.085 129.877,325.197 135.938,326.805 135.938 C 327.814 135.938,328.079 134.527,327.465 132.422 C 324.089 120.835,324.318 118.568,328.695 120.232 C 332.715 121.761,332.813 121.651,332.813 115.586 C 332.813 106.981,336.858 107.321,345.965 116.691 C 353.621 124.568,357.126 125.000,351.714 117.401 C 342.492 104.450,329.735 100.038,329.636 109.766 M61.817 137.665 C 56.502 160.901,56.368 160.657,75.192 161.985 L 88.440 162.920 90.834 151.773 C 92.150 145.641,92.667 140.625,91.981 140.625 C 90.161 140.625,88.061 145.264,86.854 151.953 C 86.272 155.176,85.182 157.813,84.432 157.813 C 80.636 157.813,78.125 155.517,78.125 152.046 C 78.125 147.287,74.439 147.965,73.719 152.857 C 73.336 155.463,72.147 156.250,68.592 156.250 C 62.727 156.250,61.651 153.462,63.965 144.271 C 65.175 139.466,65.264 136.514,64.230 135.480 C 63.196 134.446,62.386 135.179,61.817 137.665 M220.045 142.600 C 215.128 150.296,215.732 152.208,222.720 151.074 C 231.728 149.612,234.374 153.154,230.031 160.863 L 226.469 167.188 233.625 167.188 C 242.983 167.188,247.341 164.723,258.273 153.252 C 267.760 143.296,273.529 141.132,276.311 146.484 C 278.574 150.839,276.245 154.553,266.899 161.490 C 262.099 165.053,253.697 171.686,248.227 176.230 C 225.091 195.448,217.502 201.814,214.694 204.359 C 207.477 210.897,199.087 212.459,192.914 208.414 C 188.346 205.421,187.973 201.470,191.920 197.898 C 195.511 194.648,201.563 194.496,201.563 197.656 C 201.563 198.945,202.315 200.000,203.234 200.000 C 209.008 200.000,203.408 192.933,197.282 192.489 L 190.657 192.009 192.985 186.439 C 194.265 183.375,195.313 180.616,195.313 180.308 C 195.313 180.000,192.254 180.167,188.515 180.679 C 181.113 181.694,175.000 179.454,175.000 175.726 C 175.000 174.467,176.055 173.438,177.344 173.438 C 180.441 173.438,180.355 170.470,177.223 169.269 C 175.867 168.748,173.633 169.448,172.258 170.822 C 167.029 176.051,178.329 187.571,186.228 185.064 C 189.110 184.149,189.369 184.503,188.464 188.110 C 180.043 221.661,202.655 224.242,236.054 193.542 C 238.267 191.508,243.189 187.271,246.992 184.127 C 250.795 180.982,258.477 174.617,264.063 169.982 C 280.411 156.416,285.245 153.125,288.819 153.125 C 294.643 153.125,293.271 160.404,286.719 164.270 C 280.268 168.075,280.233 168.207,284.715 171.836 C 288.815 175.156,287.213 178.133,279.636 181.271 C 275.244 183.090,273.124 187.500,276.640 187.500 C 283.846 187.500,291.521 178.783,289.923 172.414 C 289.233 169.665,289.841 167.799,292.039 165.919 C 294.974 163.410,295.894 160.328,295.492 154.352 C 295.238 150.568,290.066 148.167,285.673 149.792 C 282.528 150.955,281.843 150.510,280.478 146.419 C 276.800 135.392,269.149 136.893,254.385 151.541 C 247.776 158.097,241.709 162.700,238.847 163.329 C 233.479 164.508,231.383 163.305,234.089 160.599 C 238.458 156.229,234.163 148.012,227.344 147.694 C 226.484 147.654,226.012 144.993,226.294 141.780 C 226.955 134.252,225.234 134.478,220.045 142.600 M139.429 147.283 C 138.576 148.348,136.373 152.207,134.532 155.859 L 131.186 162.500 136.445 162.500 C 146.601 162.500,150.409 173.171,142.924 180.656 C 140.141 183.439,137.485 184.526,133.940 184.333 C 126.520 183.928,125.990 184.146,128.125 186.719 C 132.492 191.981,143.726 188.851,147.640 181.281 C 152.029 172.795,149.169 159.375,142.972 159.375 C 139.389 159.375,138.799 156.605,141.337 151.697 C 143.755 147.020,142.313 143.682,139.429 147.283 M81.250 181.722 C 81.250 182.126,82.296 184.469,83.575 186.931 C 84.867 189.418,85.817 195.027,85.714 199.555 L 85.529 207.703 79.997 203.143 C 73.166 197.512,71.881 198.201,71.851 207.514 C 71.818 217.617,69.964 220.333,65.720 216.493 C 60.539 211.803,61.634 217.335,66.882 222.364 C 73.247 228.461,74.997 227.768,75.021 219.141 C 75.062 205.140,75.968 203.970,82.562 209.405 C 90.749 216.154,96.641 215.672,91.357 208.686 C 90.051 206.960,89.053 202.246,89.039 197.748 C 89.015 189.523,86.559 182.741,83.203 181.634 C 82.129 181.279,81.250 181.319,81.250 181.722 M143.005 199.703 C 141.248 201.460,142.332 203.125,145.233 203.125 C 153.261 203.125,158.452 216.959,152.734 223.116 L 149.219 226.903 152.734 229.267 C 159.373 233.731,156.413 240.328,144.350 247.955 C 141.615 249.684,141.687 249.823,145.355 249.908 C 156.356 250.164,165.413 235.949,158.594 229.129 C 155.565 226.101,155.619 225.587,159.549 220.068 C 162.641 215.726,162.683 215.270,160.218 212.796 C 158.772 211.344,156.301 207.966,154.727 205.289 C 152.128 200.869,145.160 197.548,143.005 199.703 M324.122 232.422 C 322.607 239.358,320.039 245.313,318.560 245.313 C 317.805 245.313,317.188 246.367,317.188 247.656 C 317.188 248.945,318.278 250.000,319.611 250.000 C 322.435 250.000,326.938 240.296,325.659 236.964 C 324.124 232.964,327.825 232.597,334.712 236.067 C 345.415 241.461,345.548 241.702,341.293 247.972 C 337.617 253.389,336.047 260.457,338.913 258.686 C 340.622 257.630,350.000 241.235,350.000 239.304 C 350.000 237.317,332.179 228.125,328.327 228.125 C 326.032 228.125,324.780 229.403,324.122 232.422 M97.439 246.433 C 97.570 248.047,94.542 251.211,89.844 254.371 C 77.687 262.546,75.697 261.189,112.080 269.538 C 138.998 275.716,137.500 275.478,137.500 273.569 C 137.500 272.782,127.663 269.793,115.641 266.928 C 103.618 264.063,93.775 261.285,93.766 260.755 C 93.739 259.091,106.259 251.427,108.255 251.886 C 112.563 252.875,110.988 249.027,106.076 246.559 C 99.266 243.139,97.170 243.109,97.439 246.433 M139.453 277.597 C 138.379 278.031,137.500 279.995,137.500 281.963 C 137.500 285.124,136.571 285.629,129.521 286.307 C 115.025 287.699,114.321 303.405,128.650 305.730 C 132.414 306.341,134.375 306.054,134.375 304.892 C 134.375 303.920,132.384 303.125,129.952 303.125 C 124.455 303.125,120.217 296.693,122.935 292.476 C 124.220 290.482,126.752 289.887,133.386 290.023 C 141.979 290.200,142.123 290.131,141.160 286.292 C 140.410 283.307,141.063 281.702,143.917 279.507 C 147.758 276.554,144.982 275.366,139.453 277.597 M278.777 283.984 C 278.198 287.207,277.193 290.840,276.545 292.058 C 274.758 295.411,280.411 300.521,285.906 300.521 C 290.336 300.521,290.625 300.888,290.625 306.510 C 290.625 309.805,291.328 312.500,292.188 312.500 C 294.300 312.500,294.201 292.651,292.082 291.341 C 291.165 290.774,290.041 291.739,289.585 293.485 C 288.496 297.646,285.097 298.847,282.673 295.926 C 281.124 294.060,281.256 292.523,283.340 288.153 C 286.751 281.000,286.620 278.125,282.883 278.125 C 280.583 278.125,279.569 279.571,278.777 283.984 M164.063 291.635 C 164.063 292.190,167.227 296.027,171.094 300.162 C 179.874 309.548,179.849 310.011,170.313 314.844 C 158.987 320.583,160.094 322.502,176.953 326.355 C 202.554 332.206,204.211 331.409,192.907 318.681 L 185.651 310.510 195.933 304.925 C 202.154 301.545,205.649 298.774,204.784 297.909 C 203.918 297.043,199.348 298.718,193.212 302.150 L 183.071 307.821 174.865 299.223 C 167.326 291.324,164.063 289.031,164.063 291.635 M243.211 296.607 C 238.688 301.605,239.824 309.258,245.377 311.194 C 250.012 312.810,250.067 312.946,247.602 316.708 C 243.456 323.035,245.382 324.896,253.853 322.745 C 261.994 320.678,262.778 317.879,255.142 318.141 C 250.365 318.306,250.236 318.160,252.408 315.059 C 256.095 309.795,255.222 307.813,249.219 307.813 C 242.591 307.813,241.674 303.192,247.147 297.366 C 249.765 294.580,250.000 293.750,248.171 293.750 C 246.865 293.750,244.633 295.036,243.211 296.607 M211.366 301.953 C 211.807 303.202,214.453 303.748,218.702 303.468 L 225.349 303.029 216.581 312.718 C 208.164 322.019,205.685 328.188,209.433 330.504 C 211.916 332.039,234.375 329.537,234.375 327.726 C 234.375 326.689,230.277 326.503,222.656 327.193 C 209.840 328.355,208.467 327.366,214.453 321.289 C 234.023 301.421,234.458 300.000,220.964 300.000 C 213.408 300.000,210.860 300.519,211.366 301.953 M192.188 325.119 C 192.188 325.758,188.145 325.314,183.203 324.133 C 178.262 322.953,173.340 321.961,172.266 321.931 C 168.476 321.823,170.382 318.788,176.172 315.713 L 182.031 312.601 187.109 318.280 C 189.902 321.403,192.188 324.481,192.188 325.119 M93.750 332.691 C 93.750 333.484,96.102 334.909,98.977 335.858 C 104.622 337.721,108.851 343.795,108.171 349.065 C 106.726 360.265,105.996 361.879,100.767 365.439 C 94.350 369.808,84.145 369.384,80.231 364.586 C 78.011 361.864,77.931 361.897,78.644 365.234 C 79.373 368.647,79.033 368.750,67.041 368.750 C 52.714 368.750,52.646 368.870,60.006 381.046 C 62.931 385.885,67.518 394.063,70.200 399.219 C 81.742 421.412,105.862 461.719,107.600 461.719 C 108.642 461.719,111.049 459.068,112.950 455.828 C 117.492 448.086,150.933 392.754,157.361 382.344 C 164.729 370.412,164.654 370.313,148.270 370.313 C 136.264 370.313,134.181 369.946,134.940 367.969 C 136.050 365.076,134.494 365.042,130.752 367.879 C 127.579 370.284,121.063 369.063,114.652 364.862 C 104.199 358.013,115.149 337.652,128.109 339.841 C 135.092 341.021,137.101 338.244,130.469 336.579 C 125.241 335.267,118.717 337.033,114.601 340.874 L 111.233 344.017 110.164 340.651 C 108.389 335.058,93.750 327.959,93.750 332.691 M112.919 367.188 C 115.530 370.237,115.445 370.313,109.360 370.313 C 102.914 370.313,101.771 369.166,105.000 365.938 C 107.674 363.264,109.853 363.608,112.919 367.188 M259.375 375.000 C 259.375 376.719,260.078 378.125,260.938 378.125 C 261.797 378.125,262.500 379.100,262.500 380.291 C 262.500 381.482,265.252 386.579,268.616 391.619 C 271.979 396.658,277.077 405.076,279.944 410.325 C 282.811 415.575,287.527 423.895,290.424 428.815 L 295.691 437.761 290.033 443.556 C 281.103 452.701,284.075 455.495,293.262 446.591 C 296.083 443.857,298.658 441.923,298.985 442.294 C 307.598 452.066,308.988 459.137,303.887 467.219 C 299.859 473.599,296.875 475.248,296.875 471.094 C 296.875 469.805,297.578 468.750,298.438 468.750 C 299.297 468.750,300.000 468.047,300.000 467.188 C 300.000 466.328,296.836 465.625,292.969 465.625 C 289.102 465.625,285.938 466.328,285.938 467.188 C 285.938 468.047,286.952 468.750,288.193 468.750 C 290.649 468.750,295.313 474.543,295.313 477.595 C 295.313 483.523,282.608 491.763,276.471 489.815 C 272.458 488.541,272.792 481.796,276.835 482.463 C 279.849 482.961,282.042 480.361,279.785 478.966 C 276.687 477.052,270.286 480.030,269.332 483.830 C 266.651 494.515,283.049 497.709,292.188 488.281 C 299.066 481.184,299.276 481.243,304.312 491.716 C 309.945 503.430,311.291 503.488,317.268 492.272 C 323.247 481.055,322.764 481.172,330.469 489.063 C 339.819 498.638,351.563 497.625,351.563 487.242 C 351.563 484.462,350.401 482.301,348.304 481.178 C 343.900 478.821,342.619 480.536,345.996 484.267 C 353.241 492.273,340.137 493.105,331.727 485.173 C 325.213 479.029,325.507 472.614,332.444 469.551 C 338.337 466.950,336.371 465.625,326.617 465.625 C 313.261 465.625,311.685 462.290,319.488 450.538 L 325.171 441.978 331.340 447.552 C 341.709 456.920,344.281 454.745,334.295 445.053 L 327.964 438.910 331.489 433.127 C 333.428 429.946,340.958 418.203,348.222 407.031 C 361.791 386.166,367.555 375.296,366.208 373.116 C 364.202 369.871,259.375 371.719,259.375 375.000 M137.490 376.533 C 137.484 377.838,136.082 381.016,134.375 383.594 C 132.668 386.172,131.266 389.610,131.260 391.234 C 131.247 395.091,138.125 385.198,139.632 379.192 C 140.313 376.479,141.735 375.000,143.662 375.000 C 146.398 375.000,146.268 375.698,142.070 383.564 C 137.851 391.471,135.249 404.339,139.063 398.438 C 139.896 397.148,140.588 394.490,140.601 392.529 C 140.614 390.569,141.720 388.544,143.059 388.031 C 144.397 387.517,145.126 386.142,144.678 384.974 C 143.656 382.312,150.266 375.000,153.695 375.000 C 157.144 375.000,158.296 372.685,138.845 404.830 C 129.273 420.650,118.668 438.334,115.280 444.127 C 107.301 457.771,107.102 457.831,102.186 448.105 C 99.889 443.561,95.645 436.139,92.755 431.610 C 89.865 427.082,87.500 423.106,87.500 422.776 C 87.500 422.446,84.951 417.713,81.837 412.259 C 78.722 406.806,72.666 395.789,68.380 387.778 L 60.588 373.213 99.044 373.686 C 132.196 374.094,137.499 374.487,137.490 376.533 M76.563 375.812 C 76.563 376.259,78.423 379.572,80.697 383.174 C 82.971 386.777,84.776 391.684,84.708 394.081 C 84.556 399.435,86.866 399.850,87.860 394.647 C 88.612 390.713,80.724 375.000,77.996 375.000 C 77.208 375.000,76.563 375.366,76.563 375.812 M71.096 381.896 C 73.333 384.829,76.182 387.619,77.426 388.096 C 78.748 388.604,79.707 391.094,79.735 394.092 C 79.774 398.306,80.064 398.736,81.364 396.505 C 83.304 393.174,81.286 388.991,74.237 381.733 C 67.703 375.005,65.911 375.098,71.096 381.896 M356.250 377.894 C 356.250 378.292,346.328 388.440,334.202 400.444 L 312.154 422.269 290.452 400.609 C 278.516 388.695,268.750 378.494,268.750 377.939 C 268.750 377.384,288.438 376.984,312.500 377.050 C 336.563 377.115,356.250 377.495,356.250 377.894 M304.849 430.247 C 301.672 433.425,299.524 434.524,298.497 433.497 C 296.342 431.342,271.864 389.335,271.922 387.892 C 271.949 387.247,280.448 395.432,290.810 406.082 L 309.650 425.446 304.849 430.247 M353.726 389.453 C 353.096 390.527,350.041 395.273,346.936 400.000 C 343.831 404.727,337.837 414.395,333.616 421.484 C 324.832 436.237,325.458 435.874,319.515 429.671 L 315.008 424.967 333.676 406.386 C 350.784 389.357,356.725 384.340,353.726 389.453 M110.527 393.652 C 109.307 399.155,107.217 398.853,105.802 392.969 C 105.365 391.154,104.974 392.230,104.869 395.536 C 104.604 403.860,98.438 405.596,98.438 397.347 C 98.438 393.160,94.436 390.877,91.770 393.543 C 90.452 394.861,90.678 395.313,92.656 395.313 C 94.431 395.313,95.313 396.579,95.313 399.127 C 95.313 401.224,96.027 403.382,96.900 403.922 C 99.561 405.566,97.096 407.565,93.358 406.795 C 90.508 406.207,90.709 406.568,94.424 408.702 L 99.004 411.334 94.815 413.530 C 89.494 416.318,89.441 417.544,94.699 416.224 C 98.500 415.271,98.651 415.432,96.942 418.625 C 95.934 420.508,95.389 422.886,95.731 423.911 C 96.086 424.977,97.155 424.271,98.231 422.261 C 100.983 417.118,103.173 417.979,102.218 423.828 L 101.389 428.906 104.195 424.219 L 107.000 419.531 107.510 423.828 C 107.791 426.191,108.676 428.125,109.479 428.125 C 110.281 428.125,110.960 426.191,110.987 423.828 C 111.032 419.922,111.226 419.780,113.113 422.266 C 115.461 425.359,117.188 425.808,117.188 423.326 C 117.188 421.163,121.163 417.188,123.326 417.188 C 125.828 417.188,125.345 414.529,122.656 413.497 C 121.367 413.003,120.313 411.873,120.313 410.987 C 120.313 410.100,121.367 409.375,122.656 409.375 C 123.945 409.375,125.000 408.672,125.000 407.813 C 125.000 406.953,123.594 406.250,121.875 406.250 C 117.835 406.250,117.930 405.091,122.266 401.474 C 124.199 399.861,124.944 398.518,123.920 398.489 C 122.897 398.461,121.625 399.141,121.094 400.000 C 119.132 403.173,115.391 401.795,117.133 398.540 C 119.962 393.254,118.851 391.222,115.725 395.964 L 112.720 400.522 112.219 394.402 L 111.719 388.281 110.527 393.652 M114.887 404.735 C 121.064 411.561,110.930 421.454,103.812 415.547 C 99.808 412.223,100.997 405.154,105.859 403.379 C 111.804 401.207,111.677 401.188,114.887 404.735 M105.795 405.663 C 104.154 407.305,104.453 412.171,106.264 413.290 C 109.410 415.234,114.263 412.361,113.763 408.850 C 113.286 405.505,108.049 403.410,105.795 405.663 M111.824 410.572 C 110.408 411.988,106.051 409.399,107.071 407.748 C 107.771 406.615,108.793 406.681,110.333 407.959 C 111.566 408.983,112.237 410.159,111.824 410.572 M317.493 433.886 C 322.955 439.119,322.945 439.406,316.996 447.689 L 312.118 454.482 306.703 446.611 L 301.288 438.739 305.624 434.213 C 310.960 428.643,311.991 428.615,317.493 433.886 M71.875 462.500 C 71.875 465.625,71.094 467.188,69.531 467.188 C 68.242 467.188,67.188 466.174,67.188 464.936 C 67.188 463.698,66.429 462.216,65.503 461.643 C 64.392 460.957,63.993 462.391,64.331 465.848 C 64.826 470.912,64.668 471.077,59.766 470.603 C 54.238 470.069,52.754 472.567,57.813 473.890 C 59.531 474.340,60.938 475.781,60.938 477.092 C 60.938 478.404,59.531 479.923,57.813 480.469 C 53.344 481.887,53.939 484.882,58.515 484.008 C 62.713 483.205,64.584 485.721,62.379 489.204 C 59.805 493.270,60.892 496.393,63.554 492.578 C 67.096 487.500,70.313 488.101,70.313 493.842 C 70.313 499.745,73.403 498.438,73.519 492.486 L 73.601 488.281 76.054 491.797 C 79.359 496.535,81.618 496.267,79.400 491.400 C 77.180 486.527,78.397 485.137,82.813 487.500 C 87.453 489.984,88.913 488.003,84.645 485.013 C 80.772 482.301,81.451 479.688,86.030 479.688 C 87.698 479.688,89.063 478.984,89.063 478.125 C 89.063 477.266,87.656 476.563,85.938 476.563 C 81.820 476.563,81.976 474.430,86.328 471.247 C 89.816 468.696,89.804 468.683,84.766 469.618 C 81.590 470.208,79.688 469.929,79.688 468.874 C 79.688 467.946,80.391 467.188,81.250 467.188 C 82.109 467.188,82.813 466.024,82.813 464.602 C 82.813 462.195,82.614 462.195,79.955 464.602 C 75.927 468.247,75.000 467.854,75.000 462.500 C 75.000 459.922,74.297 457.813,73.438 457.813 C 72.578 457.813,71.875 459.922,71.875 462.500 M94.497 462.654 C 93.867 465.527,94.134 468.196,95.154 469.217 C 96.407 470.469,96.875 469.152,96.875 464.375 C 96.875 456.604,95.970 455.949,94.497 462.654 M114.063 466.406 C 114.063 469.414,114.766 471.875,115.625 471.875 C 116.484 471.875,117.188 469.414,117.188 466.406 C 117.188 463.398,116.484 460.938,115.625 460.938 C 114.766 460.938,114.063 463.398,114.063 466.406 M153.243 464.707 C 148.581 469.684,144.499 469.892,142.931 465.234 C 141.789 461.844,141.723 461.872,141.082 466.016 C 140.281 471.197,138.127 471.446,133.304 466.915 C 130.335 464.126,129.688 463.970,129.688 466.042 C 129.688 467.430,130.391 469.000,131.250 469.531 C 132.109 470.062,132.813 471.903,132.813 473.622 C 132.813 475.341,132.173 476.352,131.391 475.868 C 130.609 475.385,128.676 475.487,127.094 476.095 C 124.551 477.072,124.657 477.304,128.009 478.096 C 133.311 479.350,133.829 482.503,129.033 484.327 C 126.815 485.170,125.000 486.566,125.000 487.428 C 125.000 488.419,126.439 488.340,128.913 487.213 C 133.785 484.993,135.176 486.209,132.813 490.625 C 130.493 494.960,132.387 497.020,135.180 493.200 C 137.071 490.615,141.562 490.860,140.065 493.467 C 139.729 494.052,140.019 495.937,140.711 497.656 C 141.818 500.408,141.981 500.279,142.078 496.577 C 142.234 490.602,144.539 489.930,148.334 494.755 C 152.072 499.507,154.281 498.829,151.569 493.762 C 147.771 486.665,153.243 483.236,158.523 489.404 C 160.346 491.532,161.727 492.163,162.102 491.039 C 162.437 490.032,160.379 487.076,157.528 484.471 C 151.777 479.217,152.992 476.633,161.236 476.586 C 163.548 476.573,165.845 475.908,166.340 475.108 C 167.992 472.434,164.060 471.633,158.419 473.495 C 152.123 475.573,146.879 473.099,151.563 470.260 C 157.298 466.783,158.088 465.875,157.576 463.348 C 157.111 461.056,156.478 461.254,153.243 464.707 M316.170 470.090 L 319.088 475.086 314.673 483.519 C 309.746 492.928,309.079 492.983,304.667 484.335 L 301.567 478.258 305.471 472.505 C 307.618 469.340,309.375 466.088,309.375 465.277 C 309.375 462.393,313.298 465.172,316.170 470.090 M77.813 472.188 C 82.261 476.636,78.193 485.938,71.799 485.938 C 67.175 485.938,63.641 479.436,65.545 474.430 C 67.260 469.919,74.264 468.639,77.813 472.188 M68.229 472.917 C 66.463 474.683,67.075 479.212,69.333 481.086 C 72.427 483.653,76.563 481.513,76.563 477.344 C 76.563 473.091,71.006 470.139,68.229 472.917 M99.910 475.168 C 98.941 476.979,98.740 479.029,99.465 479.725 C 104.207 484.278,112.033 479.304,107.921 474.350 C 105.090 470.938,102.005 471.253,99.910 475.168 M147.528 474.386 C 150.448 475.506,150.841 482.909,148.125 485.625 C 145.154 488.596,137.826 487.903,135.992 484.477 C 132.125 477.252,139.099 471.151,147.528 474.386 M73.438 477.344 C 73.438 478.633,72.776 479.688,71.967 479.688 C 69.997 479.688,68.586 477.248,69.834 475.999 C 71.594 474.240,73.438 474.927,73.438 477.344 M106.250 476.563 C 106.250 477.422,105.195 478.125,103.906 478.125 C 102.617 478.125,101.563 477.422,101.563 476.563 C 101.563 475.703,102.617 475.000,103.906 475.000 C 105.195 475.000,106.250 475.703,106.250 476.563 M138.530 477.259 C 136.898 481.513,139.162 484.579,143.559 484.069 C 146.761 483.698,147.656 482.740,147.656 479.688 C 147.656 475.028,140.152 473.031,138.530 477.259 M145.313 478.814 C 145.313 480.052,144.658 481.470,143.858 481.965 C 142.000 483.113,140.132 480.187,141.406 478.125 C 142.843 475.800,145.313 476.236,145.313 478.814 M92.434 482.777 C 90.595 488.053,91.463 492.188,94.410 492.188 C 95.625 492.188,96.189 489.934,95.992 485.863 C 95.596 477.708,94.525 476.779,92.434 482.777 M113.443 486.061 C 112.383 492.687,113.281 495.980,115.733 494.465 C 117.576 493.325,117.649 481.720,115.820 480.589 C 115.068 480.125,113.998 482.587,113.443 486.061 M209.063 510.828 C 204.164 512.394,197.383 515.872,193.994 518.557 C 186.517 524.478,187.207 524.461,179.158 518.923 C 171.550 513.689,162.840 510.959,153.711 510.946 C 141.232 510.929,137.468 512.615,126.754 523.019 C 116.696 532.786,106.809 538.958,101.110 539.028 C 96.835 539.081,86.237 544.959,84.472 548.256 C 74.443 566.997,79.240 584.299,95.578 588.313 C 98.785 589.101,100.524 591.248,103.103 597.603 C 110.483 615.784,129.678 621.164,153.823 611.817 C 173.718 604.115,181.592 603.681,207.813 608.836 C 232.783 613.746,254.051 610.944,268.727 600.811 C 276.355 595.544,285.859 591.802,289.313 592.706 C 301.746 595.957,313.080 564.312,303.542 552.977 L 299.271 547.901 304.518 548.951 C 307.404 549.528,316.709 550.000,325.195 550.000 L 340.625 550.000 340.625 554.906 C 340.625 557.767,339.485 560.654,337.891 561.832 C 333.608 564.996,337.533 567.822,344.415 566.531 C 350.256 565.435,351.645 563.466,347.656 561.935 C 341.357 559.518,344.952 551.563,352.344 551.563 C 356.211 551.563,359.375 552.266,359.375 553.125 C 359.375 553.984,360.430 554.688,361.719 554.688 C 363.348 554.688,364.063 553.048,364.063 549.311 C 364.063 543.509,361.505 540.454,359.978 544.432 C 359.325 546.135,356.960 546.875,352.177 546.875 L 345.313 546.875 345.313 540.625 C 345.313 535.965,345.942 534.375,347.786 534.375 C 349.147 534.375,349.967 533.496,349.609 532.422 C 349.240 531.312,346.372 530.469,342.969 530.469 C 339.566 530.469,336.698 531.312,336.328 532.422 C 335.970 533.496,336.790 534.375,338.151 534.375 C 339.968 534.375,340.626 535.932,340.627 540.234 L 340.629 546.094 322.268 545.664 C 297.851 545.091,297.716 545.052,297.381 538.397 C 296.410 519.121,271.527 518.769,261.539 537.891 C 257.604 545.424,253.125 543.617,253.125 534.496 C 253.125 514.768,232.085 503.467,209.063 510.828 M220.187 514.995 C 222.929 511.691,226.766 511.713,225.495 515.026 C 224.677 517.158,225.034 517.279,227.785 515.807 C 233.171 512.925,236.304 513.572,235.114 517.322 C 234.208 520.174,234.462 520.376,237.147 518.939 C 240.757 517.007,242.351 518.067,241.027 521.518 C 240.334 523.325,240.764 523.718,242.647 522.996 C 246.926 521.354,247.432 524.979,243.523 529.272 C 239.810 533.350,240.004 533.398,247.656 530.302 C 249.113 529.712,250.000 530.231,250.000 531.673 C 250.000 532.949,248.945 534.868,247.656 535.938 C 244.620 538.457,244.663 540.625,247.748 540.625 C 249.141 540.625,249.724 541.371,249.108 542.366 C 248.405 543.504,244.986 543.779,239.250 543.160 C 234.420 542.639,221.504 542.113,210.547 541.991 L 190.625 541.771 190.781 536.901 C 190.989 530.385,193.313 522.834,193.722 527.344 C 193.940 529.748,194.530 529.265,196.283 525.250 C 198.167 520.935,198.955 520.360,200.843 521.926 C 202.672 523.444,203.125 523.354,203.125 521.476 C 203.125 518.118,207.215 514.957,208.620 517.229 C 209.344 518.402,210.784 517.827,212.950 515.501 C 215.908 512.327,216.281 512.260,217.156 514.754 C 218.030 517.246,218.301 517.267,220.187 514.995 M150.063 518.359 L 150.125 522.656 152.456 518.359 C 153.738 515.996,155.426 514.063,156.208 514.063 C 158.715 514.063,159.700 517.257,157.871 519.461 C 156.753 520.808,156.662 521.945,157.624 522.540 C 158.463 523.059,159.579 522.131,160.103 520.480 C 161.148 517.186,165.047 515.083,167.404 516.540 C 168.317 517.104,168.174 518.342,167.041 519.708 C 164.191 523.142,166.448 523.994,170.813 521.134 C 175.099 518.325,177.229 519.843,175.494 524.468 C 174.575 526.917,174.777 527.050,176.853 525.364 C 180.764 522.187,184.539 524.577,183.323 529.460 C 182.363 533.319,182.485 533.438,185.168 531.250 C 187.843 529.069,187.970 529.177,187.011 532.813 C 186.444 534.961,185.971 537.659,185.959 538.809 C 185.942 540.484,182.286 540.730,167.578 540.048 C 157.480 539.580,141.903 539.167,132.961 539.130 C 116.741 539.063,116.710 539.055,119.565 535.901 C 121.620 533.630,122.751 533.265,123.580 534.606 C 124.310 535.787,125.671 534.232,127.284 530.372 C 129.140 525.929,130.192 524.850,131.152 526.404 C 132.153 528.024,132.745 527.641,133.608 524.816 C 134.907 520.563,138.863 515.625,140.972 515.625 C 141.757 515.625,141.952 517.031,141.406 518.750 C 140.837 520.543,141.125 521.875,142.082 521.875 C 142.999 521.875,143.750 520.961,143.750 519.844 C 143.750 517.592,146.803 514.063,148.750 514.063 C 149.438 514.063,150.028 515.996,150.063 518.359 M284.375 530.651 C 284.375 532.392,285.328 532.928,287.443 532.375 C 289.130 531.934,291.325 532.555,292.321 533.755 C 293.794 535.529,293.366 535.938,290.035 535.938 C 285.040 535.938,284.564 538.649,289.437 539.344 C 294.736 540.100,294.818 544.962,289.567 547.094 L 285.156 548.884 290.314 550.042 C 295.600 551.229,298.834 553.125,295.573 553.125 C 292.141 553.125,293.746 556.189,297.697 557.181 C 299.869 557.726,302.390 559.564,303.300 561.265 C 304.764 564.001,304.564 564.234,301.564 563.282 C 298.283 562.240,298.255 562.331,300.705 566.070 C 302.836 569.323,302.888 570.069,301.030 570.782 C 299.609 571.327,299.098 573.062,299.594 575.655 C 300.325 579.482,300.101 579.632,295.104 578.668 L 289.844 577.653 293.750 580.962 C 297.917 584.492,296.398 585.304,290.106 582.912 C 285.321 581.093,283.499 582.583,287.134 585.343 C 289.532 587.164,289.181 587.406,284.077 587.450 C 280.905 587.478,277.831 588.274,277.246 589.220 C 276.634 590.210,274.233 590.550,271.586 590.020 C 267.533 589.210,267.106 589.468,267.975 592.207 C 269.195 596.053,266.195 596.319,261.184 592.809 C 255.722 588.983,254.828 591.954,260.156 596.226 L 264.844 599.984 260.938 599.937 C 258.789 599.911,255.273 598.884,253.125 597.656 C 248.598 595.068,246.875 594.784,246.875 596.624 C 246.875 597.346,248.740 598.786,251.019 599.824 C 254.132 601.242,254.718 602.157,253.373 603.502 C 252.029 604.846,250.396 604.413,246.808 601.760 C 241.103 597.542,236.747 598.048,241.766 602.346 C 246.996 606.824,244.183 608.335,237.874 604.436 C 233.180 601.535,232.414 601.396,233.261 603.604 C 233.909 605.292,233.507 606.250,232.149 606.250 C 230.979 606.250,229.617 605.195,229.122 603.906 C 228.628 602.617,227.423 601.563,226.444 601.563 C 225.466 601.563,225.070 602.617,225.565 603.906 C 226.771 607.049,225.224 606.851,219.019 603.068 L 213.820 599.898 214.828 603.074 C 216.219 607.459,213.361 607.056,209.654 602.344 C 207.964 600.195,205.718 598.438,204.662 598.438 C 203.156 598.438,203.161 598.942,204.688 600.781 C 205.773 602.089,205.942 603.125,205.070 603.125 C 204.211 603.125,202.632 602.070,201.563 600.781 C 199.524 598.325,196.743 597.601,197.060 599.609 C 197.554 602.736,196.554 602.987,192.969 600.638 C 190.585 599.075,189.062 598.757,189.063 599.820 C 189.063 602.743,184.591 601.761,182.819 598.449 C 181.572 596.119,182.148 589.346,185.107 571.561 C 187.283 558.485,189.063 547.144,189.063 546.360 C 189.063 545.512,198.399 545.413,212.109 546.115 C 224.785 546.764,238.208 547.193,241.938 547.067 C 247.498 546.880,248.867 547.398,249.532 549.943 C 250.323 552.965,250.421 552.955,253.296 549.570 C 256.075 546.298,256.373 546.254,258.374 548.828 C 261.303 552.594,262.500 552.254,262.500 547.656 C 262.500 545.226,263.385 543.750,264.844 543.750 C 266.133 543.750,267.188 542.500,267.188 540.973 C 267.188 537.262,271.711 530.964,273.556 532.105 C 274.364 532.604,276.123 531.912,277.467 530.568 C 280.643 527.392,284.375 527.437,284.375 530.651 M110.938 543.738 C 116.706 543.096,121.255 543.063,154.297 543.423 L 184.375 543.750 184.375 548.095 C 184.375 553.810,176.919 593.532,175.000 598.047 C 173.630 601.268,170.066 603.123,170.498 600.391 C 171.059 596.837,170.023 596.594,167.807 599.757 C 166.428 601.725,164.449 603.008,163.408 602.609 C 162.367 602.209,157.733 604.267,153.110 607.182 C 146.936 611.075,144.388 611.969,143.511 610.551 C 142.564 609.019,141.917 609.021,140.378 610.560 C 138.027 612.910,132.813 613.133,132.813 610.883 C 132.813 609.768,131.874 609.768,129.790 610.883 C 125.148 613.367,121.376 612.928,122.488 610.032 C 123.268 607.999,122.610 607.746,118.748 608.594 C 115.086 609.399,114.063 609.084,114.063 607.155 C 114.063 605.798,114.941 604.604,116.016 604.503 C 117.090 604.401,115.917 603.874,113.410 603.331 C 107.735 602.102,106.155 598.497,111.198 598.282 C 114.816 598.127,114.814 598.118,110.946 597.041 C 105.719 595.587,104.742 590.664,109.651 590.515 C 112.979 590.415,113.026 590.305,110.218 589.207 C 107.778 588.253,109.194 587.321,117.162 584.630 C 129.006 580.630,131.250 580.465,131.250 583.594 C 131.250 584.967,129.826 585.938,127.813 585.938 C 125.139 585.938,124.792 586.354,126.250 587.813 C 129.004 590.566,128.558 591.885,124.609 592.662 L 121.094 593.353 124.609 594.515 C 128.829 595.909,129.092 597.719,125.391 599.875 C 123.053 601.236,123.280 601.474,126.953 601.515 C 129.323 601.541,131.250 602.438,131.251 603.516 C 131.252 604.795,133.871 605.507,138.843 605.578 C 144.813 605.664,146.398 605.164,146.264 603.235 C 146.164 601.789,147.589 600.571,149.737 600.266 C 153.191 599.776,153.232 599.637,150.518 597.581 C 147.805 595.524,147.839 595.409,151.172 595.362 C 153.105 595.335,154.688 594.609,154.688 593.750 C 154.688 592.891,153.633 592.188,152.344 592.188 C 149.234 592.188,149.381 590.658,152.734 588.113 C 155.182 586.254,154.919 586.032,150.223 585.987 C 146.401 585.951,145.204 585.349,145.811 583.767 C 146.423 582.174,145.338 581.654,141.738 581.813 C 135.428 582.094,133.841 577.428,139.742 575.946 C 142.594 575.231,144.608 575.858,146.937 578.187 C 150.888 582.138,163.281 582.091,163.281 578.125 C 163.281 576.815,162.248 576.048,160.938 576.385 C 153.401 578.328,152.001 578.108,147.937 574.342 C 143.729 570.442,143.446 570.398,137.820 572.758 C 132.455 575.008,131.917 574.986,130.469 572.450 C 125.988 564.606,114.063 558.509,114.063 564.063 C 114.063 564.922,115.645 565.636,117.578 565.649 C 123.308 565.688,130.265 573.646,127.098 576.538 C 124.962 578.489,108.820 583.471,105.998 583.050 C 104.570 582.837,102.988 583.333,102.481 584.153 C 101.477 585.778,93.783 582.872,93.762 580.859 C 93.755 580.215,92.296 579.688,90.520 579.688 C 88.004 579.688,87.508 578.999,88.278 576.572 C 89.037 574.181,88.699 573.675,86.821 574.396 C 84.094 575.442,83.435 572.640,86.031 571.036 C 87.084 570.385,86.707 569.296,84.996 568.045 C 81.172 565.248,83.328 561.069,89.201 559.894 C 93.153 559.104,93.611 558.640,91.569 557.498 C 90.177 556.718,88.340 556.512,87.488 557.039 C 86.635 557.566,85.938 557.310,85.938 556.470 C 85.938 552.183,88.392 549.894,93.943 549.007 C 98.684 548.248,99.673 547.583,98.377 546.021 C 96.471 543.724,100.637 541.971,104.688 543.366 C 105.977 543.810,108.789 543.977,110.938 543.738 M145.390 588.375 C 147.813 591.294,145.905 598.033,141.955 600.512 C 138.193 602.872,131.250 597.956,131.250 592.933 C 131.250 587.661,134.046 588.011,134.662 593.359 C 135.349 599.329,141.648 600.351,143.061 594.721 C 144.081 590.655,142.817 586.927,140.833 588.153 C 140.207 588.540,138.673 588.210,137.425 587.421 C 135.710 586.335,136.158 585.980,139.262 585.961 C 141.520 585.948,144.278 587.034,145.390 588.375 M141.413 592.199 C 141.948 593.064,141.256 594.206,139.875 594.735 C 136.884 595.883,135.216 594.618,136.655 592.291 C 137.952 590.192,140.147 590.149,141.413 592.199 " stroke="none" fill="#000000" fill-rule="evenodd"></path></g></svg>