<svg xmlns="http://www.w3.org/2000/svg" viewBox="0 0 120 120">

  <!-- The Flame Sigil (Redesigned) -->
  <g transform="translate(10, 10)">
    <!-- Central flame shape -->
    <path d="M50,15
             C45,30 35,35 40,50
             C30,60 35,75 50,80
             C65,75 70,60 60,50
             C65,35 55,30 50,15 Z"
          stroke="#16161D" stroke-width="2" fill="none"/>

    <!-- Inner flame detail -->
    <path d="M50,30
             C48,40 45,45 50,60
             C55,45 52,40 50,30 Z"
          stroke="#16161D" stroke-width="2" fill="none"/>

    <!-- Base/source of flame -->
    <line x1="40" y1="80" x2="60" y2="80" stroke="#16161D" stroke-width="2"/>

    <!-- Optional emanation lines for energy -->
    <line x1="35" y1="40" x2="25" y2="35" stroke="#16161D" stroke-width="1.5" stroke-dasharray="2,2"/>
    <line x1="65" y1="40" x2="75" y2="35" stroke="#16161D" stroke-width="1.5" stroke-dasharray="2,2"/>
    <line x1="40" y1="25" x2="30" y2="15" stroke="#16161D" stroke-width="1.5" stroke-dasharray="2,2"/>
    <line x1="60" y1="25" x2="70" y2="15" stroke="#16161D" stroke-width="1.5" stroke-dasharray="2,2"/>
  </g>

</svg>
